G04 (created by PCBNEW-RS274X (2012-01-19 BZR 3256)-stable) date Mon 24 Sep 2012 12:54:10 AM COT*
G01*
G70*
G90*
%MOIN*%
G04 Gerber Fmt 3.4, Leading zero omitted, Abs format*
%FSLAX34Y34*%
G04 APERTURE LIST*
%ADD10C,0.006000*%
%ADD11R,0.045000X0.065000*%
%ADD12R,0.065000X0.045000*%
%ADD13R,0.080000X0.080000*%
%ADD14C,0.080000*%
%ADD15C,0.065400*%
%ADD16C,0.075000*%
%ADD17R,0.040000X0.065000*%
%ADD18R,0.075000X0.120000*%
%ADD19R,0.070000X0.036000*%
G04 APERTURE END LIST*
G54D10*
G54D11*
X58900Y-28400D03*
X59500Y-28400D03*
X43700Y-23700D03*
X43100Y-23700D03*
X45500Y-23125D03*
X46100Y-23125D03*
X45500Y-24075D03*
X46100Y-24075D03*
X43100Y-29100D03*
X43700Y-29100D03*
G54D12*
X67800Y-25200D03*
X67800Y-24600D03*
G54D11*
X65000Y-26100D03*
X65600Y-26100D03*
X65000Y-26900D03*
X65600Y-26900D03*
X65000Y-27700D03*
X65600Y-27700D03*
X65000Y-25300D03*
X65600Y-25300D03*
G54D12*
X67800Y-26700D03*
X67800Y-26100D03*
G54D11*
X47800Y-28750D03*
X47200Y-28750D03*
X47800Y-27750D03*
X47200Y-27750D03*
X47800Y-26750D03*
X47200Y-26750D03*
X47800Y-25750D03*
X47200Y-25750D03*
X47800Y-24750D03*
X47200Y-24750D03*
G54D12*
X49000Y-23950D03*
X49000Y-24550D03*
X50000Y-23950D03*
X50000Y-24550D03*
X51000Y-23950D03*
X51000Y-24550D03*
X52750Y-23950D03*
X52750Y-24550D03*
G54D11*
X53300Y-25750D03*
X52700Y-25750D03*
X53300Y-27500D03*
X52700Y-27500D03*
G54D12*
X52250Y-28800D03*
X52250Y-28200D03*
X51000Y-28800D03*
X51000Y-28200D03*
G54D11*
X49200Y-27300D03*
X49800Y-27300D03*
G54D12*
X52000Y-23000D03*
X52000Y-22400D03*
G54D11*
X55100Y-25900D03*
X55700Y-25900D03*
G54D13*
X64000Y-31550D03*
G54D14*
X63000Y-31550D03*
X62000Y-31550D03*
X61000Y-31550D03*
X60000Y-31550D03*
G54D13*
X59000Y-31550D03*
G54D14*
X58000Y-31550D03*
X57000Y-31550D03*
X56000Y-31550D03*
X55000Y-31550D03*
G54D13*
X54000Y-31550D03*
G54D14*
X53000Y-31550D03*
X52000Y-31550D03*
X51000Y-31550D03*
X50000Y-31550D03*
G54D13*
X49000Y-31550D03*
G54D14*
X48000Y-31550D03*
X47000Y-31550D03*
X46000Y-31550D03*
X45000Y-31550D03*
G54D13*
X44000Y-31550D03*
G54D14*
X43000Y-31550D03*
X42000Y-31550D03*
X41000Y-31550D03*
X40000Y-31550D03*
G54D13*
X40000Y-21550D03*
G54D14*
X41000Y-21550D03*
X42000Y-21550D03*
X43000Y-21550D03*
X44000Y-21550D03*
G54D13*
X45000Y-21550D03*
G54D14*
X46000Y-21550D03*
X47000Y-21550D03*
X48000Y-21550D03*
X49000Y-21550D03*
G54D13*
X50000Y-21550D03*
G54D14*
X51000Y-21550D03*
X52000Y-21550D03*
X53000Y-21550D03*
X54000Y-21550D03*
G54D13*
X55000Y-21550D03*
G54D14*
X56000Y-21550D03*
X57000Y-21550D03*
X58000Y-21550D03*
X59000Y-21550D03*
G54D13*
X60000Y-21550D03*
G54D14*
X61000Y-21550D03*
X62000Y-21550D03*
X63000Y-21550D03*
X64000Y-21550D03*
G54D13*
X65000Y-21550D03*
G54D14*
X66000Y-21550D03*
X67000Y-21550D03*
X68000Y-21550D03*
X69000Y-21550D03*
G54D13*
X69000Y-31550D03*
G54D14*
X68000Y-31550D03*
X67000Y-31550D03*
X66000Y-31550D03*
X65000Y-31550D03*
G54D15*
X66744Y-25384D03*
X66744Y-27116D03*
G54D16*
X42500Y-28250D03*
X42500Y-30250D03*
X39500Y-28250D03*
X39500Y-30250D03*
X42500Y-23000D03*
X42500Y-25000D03*
X39500Y-23000D03*
X39500Y-25000D03*
G54D17*
X56350Y-27300D03*
X55850Y-27300D03*
X55350Y-27300D03*
X54850Y-27300D03*
X54850Y-29800D03*
X55350Y-29800D03*
X55850Y-29800D03*
X56350Y-29800D03*
G54D11*
X58900Y-27400D03*
X59500Y-27400D03*
X58900Y-25400D03*
X59500Y-25400D03*
X58900Y-26400D03*
X59500Y-26400D03*
X43700Y-24700D03*
X43100Y-24700D03*
G54D18*
X43500Y-26000D03*
X44500Y-26000D03*
X45500Y-26000D03*
X45500Y-27500D03*
X44500Y-27500D03*
X43500Y-27500D03*
G54D19*
X60900Y-28650D03*
X60900Y-28400D03*
X60900Y-28140D03*
X60900Y-27880D03*
X60900Y-27630D03*
X60900Y-27370D03*
X60900Y-27110D03*
X60900Y-26860D03*
X60900Y-26600D03*
X60900Y-26350D03*
X60900Y-26090D03*
X60900Y-25830D03*
X60900Y-25580D03*
X60900Y-25320D03*
X63700Y-25320D03*
X63700Y-25580D03*
X63700Y-25820D03*
X63700Y-26090D03*
X63700Y-26350D03*
X63700Y-26600D03*
X63700Y-26860D03*
X63700Y-27110D03*
X63700Y-27370D03*
X63700Y-27630D03*
X63700Y-27880D03*
X63700Y-28140D03*
X63700Y-28400D03*
X63700Y-28650D03*
M02*
