G04 (created by PCBNEW-RS274X (2012-01-19 BZR 3256)-stable) date Mon 24 Sep 2012 12:54:10 AM COT*
G01*
G70*
G90*
%MOIN*%
G04 Gerber Fmt 3.4, Leading zero omitted, Abs format*
%FSLAX34Y34*%
G04 APERTURE LIST*
%ADD10C,0.006000*%
%ADD11C,0.012000*%
%ADD12R,0.025000X0.045000*%
%ADD13R,0.045000X0.025000*%
%ADD14R,0.060000X0.060000*%
%ADD15C,0.060000*%
%ADD16C,0.045400*%
%ADD17C,0.055000*%
%ADD18R,0.020000X0.045000*%
%ADD19R,0.055000X0.100000*%
%ADD20R,0.050000X0.016000*%
%ADD21C,0.031500*%
%ADD22C,0.020000*%
%ADD23C,0.014000*%
%ADD24C,0.009000*%
%ADD25C,0.010000*%
G04 APERTURE END LIST*
G54D10*
G54D11*
X69093Y-22986D02*
X69007Y-23024D01*
X68864Y-23024D01*
X68807Y-22986D01*
X68778Y-22948D01*
X68750Y-22871D01*
X68750Y-22795D01*
X68778Y-22719D01*
X68807Y-22681D01*
X68864Y-22643D01*
X68978Y-22605D01*
X69036Y-22567D01*
X69064Y-22529D01*
X69093Y-22452D01*
X69093Y-22376D01*
X69064Y-22300D01*
X69036Y-22262D01*
X68978Y-22224D01*
X68836Y-22224D01*
X68750Y-22262D01*
X68493Y-23024D02*
X68493Y-22224D01*
X68236Y-23024D02*
X68236Y-22605D01*
X68265Y-22529D01*
X68322Y-22490D01*
X68407Y-22490D01*
X68465Y-22529D01*
X68493Y-22567D01*
X67693Y-23024D02*
X67693Y-22605D01*
X67722Y-22529D01*
X67779Y-22490D01*
X67893Y-22490D01*
X67950Y-22529D01*
X67693Y-22986D02*
X67750Y-23024D01*
X67893Y-23024D01*
X67950Y-22986D01*
X67979Y-22910D01*
X67979Y-22833D01*
X67950Y-22757D01*
X67893Y-22719D01*
X67750Y-22719D01*
X67693Y-22681D01*
X67407Y-23024D02*
X67407Y-22490D01*
X67407Y-22643D02*
X67379Y-22567D01*
X67350Y-22529D01*
X67293Y-22490D01*
X67236Y-22490D01*
X67036Y-23024D02*
X67036Y-22224D01*
X66979Y-22719D02*
X66808Y-23024D01*
X66808Y-22490D02*
X67036Y-22795D01*
X66350Y-22605D02*
X66264Y-22643D01*
X66236Y-22681D01*
X66207Y-22757D01*
X66207Y-22871D01*
X66236Y-22948D01*
X66264Y-22986D01*
X66322Y-23024D01*
X66550Y-23024D01*
X66550Y-22224D01*
X66350Y-22224D01*
X66293Y-22262D01*
X66264Y-22300D01*
X66236Y-22376D01*
X66236Y-22452D01*
X66264Y-22529D01*
X66293Y-22567D01*
X66350Y-22605D01*
X66550Y-22605D01*
X65864Y-23024D02*
X65922Y-22986D01*
X65950Y-22948D01*
X65979Y-22871D01*
X65979Y-22643D01*
X65950Y-22567D01*
X65922Y-22529D01*
X65864Y-22490D01*
X65779Y-22490D01*
X65722Y-22529D01*
X65693Y-22567D01*
X65664Y-22643D01*
X65664Y-22871D01*
X65693Y-22948D01*
X65722Y-22986D01*
X65779Y-23024D01*
X65864Y-23024D01*
X65150Y-23024D02*
X65150Y-22605D01*
X65179Y-22529D01*
X65236Y-22490D01*
X65350Y-22490D01*
X65407Y-22529D01*
X65150Y-22986D02*
X65207Y-23024D01*
X65350Y-23024D01*
X65407Y-22986D01*
X65436Y-22910D01*
X65436Y-22833D01*
X65407Y-22757D01*
X65350Y-22719D01*
X65207Y-22719D01*
X65150Y-22681D01*
X64864Y-23024D02*
X64864Y-22490D01*
X64864Y-22643D02*
X64836Y-22567D01*
X64807Y-22529D01*
X64750Y-22490D01*
X64693Y-22490D01*
X64236Y-23024D02*
X64236Y-22224D01*
X64236Y-22986D02*
X64293Y-23024D01*
X64407Y-23024D01*
X64465Y-22986D01*
X64493Y-22948D01*
X64522Y-22871D01*
X64522Y-22643D01*
X64493Y-22567D01*
X64465Y-22529D01*
X64407Y-22490D01*
X64293Y-22490D01*
X64236Y-22529D01*
X69293Y-23540D02*
X69264Y-23502D01*
X69207Y-23464D01*
X69064Y-23464D01*
X69007Y-23502D01*
X68978Y-23540D01*
X68950Y-23616D01*
X68950Y-23692D01*
X68978Y-23807D01*
X69321Y-24264D01*
X68950Y-24264D01*
X68693Y-24188D02*
X68665Y-24226D01*
X68693Y-24264D01*
X68722Y-24226D01*
X68693Y-24188D01*
X68693Y-24264D01*
X68293Y-23464D02*
X68236Y-23464D01*
X68179Y-23502D01*
X68150Y-23540D01*
X68121Y-23616D01*
X68093Y-23769D01*
X68093Y-23959D01*
X68121Y-24111D01*
X68150Y-24188D01*
X68179Y-24226D01*
X68236Y-24264D01*
X68293Y-24264D01*
X68350Y-24226D01*
X68379Y-24188D01*
X68407Y-24111D01*
X68436Y-23959D01*
X68436Y-23769D01*
X68407Y-23616D01*
X68379Y-23540D01*
X68350Y-23502D01*
X68293Y-23464D01*
X67093Y-24264D02*
X67379Y-24264D01*
X67379Y-23464D01*
X66807Y-24264D02*
X66865Y-24226D01*
X66893Y-24188D01*
X66922Y-24111D01*
X66922Y-23883D01*
X66893Y-23807D01*
X66865Y-23769D01*
X66807Y-23730D01*
X66722Y-23730D01*
X66665Y-23769D01*
X66636Y-23807D01*
X66607Y-23883D01*
X66607Y-24111D01*
X66636Y-24188D01*
X66665Y-24226D01*
X66722Y-24264D01*
X66807Y-24264D01*
X66407Y-23730D02*
X66293Y-24264D01*
X66179Y-23883D01*
X66064Y-24264D01*
X65950Y-23730D01*
X65378Y-24188D02*
X65407Y-24226D01*
X65493Y-24264D01*
X65550Y-24264D01*
X65635Y-24226D01*
X65693Y-24150D01*
X65721Y-24073D01*
X65750Y-23921D01*
X65750Y-23807D01*
X65721Y-23654D01*
X65693Y-23578D01*
X65635Y-23502D01*
X65550Y-23464D01*
X65493Y-23464D01*
X65407Y-23502D01*
X65378Y-23540D01*
X65035Y-24264D02*
X65093Y-24226D01*
X65121Y-24188D01*
X65150Y-24111D01*
X65150Y-23883D01*
X65121Y-23807D01*
X65093Y-23769D01*
X65035Y-23730D01*
X64950Y-23730D01*
X64893Y-23769D01*
X64864Y-23807D01*
X64835Y-23883D01*
X64835Y-24111D01*
X64864Y-24188D01*
X64893Y-24226D01*
X64950Y-24264D01*
X65035Y-24264D01*
X64607Y-24226D02*
X64550Y-24264D01*
X64435Y-24264D01*
X64378Y-24226D01*
X64350Y-24150D01*
X64350Y-24111D01*
X64378Y-24035D01*
X64435Y-23997D01*
X64521Y-23997D01*
X64578Y-23959D01*
X64607Y-23883D01*
X64607Y-23845D01*
X64578Y-23769D01*
X64521Y-23730D01*
X64435Y-23730D01*
X64378Y-23769D01*
X64178Y-23730D02*
X63949Y-23730D01*
X64092Y-23464D02*
X64092Y-24150D01*
X64064Y-24226D01*
X64006Y-24264D01*
X63949Y-24264D01*
G54D12*
X58900Y-28400D03*
X59500Y-28400D03*
X43700Y-23700D03*
X43100Y-23700D03*
X45500Y-23125D03*
X46100Y-23125D03*
X45500Y-24075D03*
X46100Y-24075D03*
X43100Y-29100D03*
X43700Y-29100D03*
G54D13*
X67800Y-25200D03*
X67800Y-24600D03*
G54D12*
X65000Y-26100D03*
X65600Y-26100D03*
X65000Y-26900D03*
X65600Y-26900D03*
X65000Y-27700D03*
X65600Y-27700D03*
X65000Y-25300D03*
X65600Y-25300D03*
G54D13*
X67800Y-26700D03*
X67800Y-26100D03*
G54D12*
X47800Y-28750D03*
X47200Y-28750D03*
X47800Y-27750D03*
X47200Y-27750D03*
X47800Y-26750D03*
X47200Y-26750D03*
X47800Y-25750D03*
X47200Y-25750D03*
X47800Y-24750D03*
X47200Y-24750D03*
G54D13*
X49000Y-23950D03*
X49000Y-24550D03*
X50000Y-23950D03*
X50000Y-24550D03*
X51000Y-23950D03*
X51000Y-24550D03*
X52750Y-23950D03*
X52750Y-24550D03*
G54D12*
X53300Y-25750D03*
X52700Y-25750D03*
X53300Y-27500D03*
X52700Y-27500D03*
G54D13*
X52250Y-28800D03*
X52250Y-28200D03*
X51000Y-28800D03*
X51000Y-28200D03*
G54D12*
X49200Y-27300D03*
X49800Y-27300D03*
G54D13*
X52000Y-23000D03*
X52000Y-22400D03*
G54D12*
X55100Y-25900D03*
X55700Y-25900D03*
G54D14*
X64000Y-31550D03*
G54D15*
X63000Y-31550D03*
X62000Y-31550D03*
X61000Y-31550D03*
X60000Y-31550D03*
G54D14*
X59000Y-31550D03*
G54D15*
X58000Y-31550D03*
X57000Y-31550D03*
X56000Y-31550D03*
X55000Y-31550D03*
G54D14*
X54000Y-31550D03*
G54D15*
X53000Y-31550D03*
X52000Y-31550D03*
X51000Y-31550D03*
X50000Y-31550D03*
G54D14*
X49000Y-31550D03*
G54D15*
X48000Y-31550D03*
X47000Y-31550D03*
X46000Y-31550D03*
X45000Y-31550D03*
G54D14*
X44000Y-31550D03*
G54D15*
X43000Y-31550D03*
X42000Y-31550D03*
X41000Y-31550D03*
X40000Y-31550D03*
G54D14*
X40000Y-21550D03*
G54D15*
X41000Y-21550D03*
X42000Y-21550D03*
X43000Y-21550D03*
X44000Y-21550D03*
G54D14*
X45000Y-21550D03*
G54D15*
X46000Y-21550D03*
X47000Y-21550D03*
X48000Y-21550D03*
X49000Y-21550D03*
G54D14*
X50000Y-21550D03*
G54D15*
X51000Y-21550D03*
X52000Y-21550D03*
X53000Y-21550D03*
X54000Y-21550D03*
G54D14*
X55000Y-21550D03*
G54D15*
X56000Y-21550D03*
X57000Y-21550D03*
X58000Y-21550D03*
X59000Y-21550D03*
G54D14*
X60000Y-21550D03*
G54D15*
X61000Y-21550D03*
X62000Y-21550D03*
X63000Y-21550D03*
X64000Y-21550D03*
G54D14*
X65000Y-21550D03*
G54D15*
X66000Y-21550D03*
X67000Y-21550D03*
X68000Y-21550D03*
X69000Y-21550D03*
G54D14*
X69000Y-31550D03*
G54D15*
X68000Y-31550D03*
X67000Y-31550D03*
X66000Y-31550D03*
X65000Y-31550D03*
G54D16*
X66744Y-25384D03*
X66744Y-27116D03*
G54D17*
X42500Y-28250D03*
X42500Y-30250D03*
X39500Y-28250D03*
X39500Y-30250D03*
X42500Y-23000D03*
X42500Y-25000D03*
X39500Y-23000D03*
X39500Y-25000D03*
G54D18*
X56350Y-27300D03*
X55850Y-27300D03*
X55350Y-27300D03*
X54850Y-27300D03*
X54850Y-29800D03*
X55350Y-29800D03*
X55850Y-29800D03*
X56350Y-29800D03*
G54D12*
X58900Y-27400D03*
X59500Y-27400D03*
X58900Y-25400D03*
X59500Y-25400D03*
X58900Y-26400D03*
X59500Y-26400D03*
X43700Y-24700D03*
X43100Y-24700D03*
G54D19*
X43500Y-26000D03*
X44500Y-26000D03*
X45500Y-26000D03*
X45500Y-27500D03*
X44500Y-27500D03*
X43500Y-27500D03*
G54D20*
X60900Y-28650D03*
X60900Y-28400D03*
X60900Y-28140D03*
X60900Y-27880D03*
X60900Y-27630D03*
X60900Y-27370D03*
X60900Y-27110D03*
X60900Y-26860D03*
X60900Y-26600D03*
X60900Y-26350D03*
X60900Y-26090D03*
X60900Y-25830D03*
X60900Y-25580D03*
X60900Y-25320D03*
X63700Y-25320D03*
X63700Y-25580D03*
X63700Y-25820D03*
X63700Y-26090D03*
X63700Y-26350D03*
X63700Y-26600D03*
X63700Y-26860D03*
X63700Y-27110D03*
X63700Y-27370D03*
X63700Y-27630D03*
X63700Y-27880D03*
X63700Y-28140D03*
X63700Y-28400D03*
X63700Y-28650D03*
G54D21*
X56050Y-26550D03*
X52175Y-25850D03*
X48925Y-27300D03*
X52650Y-22950D03*
X52150Y-25125D03*
X55050Y-25900D03*
X51000Y-28900D03*
X52975Y-24025D03*
X48850Y-23950D03*
X62200Y-24700D03*
X50250Y-23950D03*
X49400Y-23950D03*
X52350Y-28850D03*
X53350Y-25700D03*
X53350Y-28050D03*
X60650Y-24725D03*
X57150Y-25650D03*
X48550Y-28470D03*
X64800Y-24600D03*
X48600Y-26100D03*
X62900Y-26400D03*
X55150Y-28375D03*
X48575Y-30200D03*
X53875Y-29250D03*
X55800Y-28975D03*
X57575Y-28225D03*
X57550Y-26225D03*
X55700Y-23175D03*
X56200Y-23125D03*
X55350Y-23675D03*
X48275Y-23525D03*
X56625Y-23025D03*
X47750Y-23825D03*
X50575Y-22250D03*
X50500Y-22650D03*
X51125Y-27575D03*
X43075Y-30375D03*
X41850Y-30400D03*
X47675Y-23450D03*
X45575Y-30075D03*
X66400Y-26100D03*
X66400Y-26600D03*
X64500Y-25800D03*
X63100Y-25400D03*
X45500Y-26000D03*
X68600Y-27000D03*
X69325Y-27000D03*
X53600Y-24625D03*
X60725Y-23875D03*
X44775Y-24925D03*
X49125Y-25525D03*
X51775Y-28250D03*
X52375Y-27475D03*
X52475Y-26500D03*
X52550Y-25325D03*
X52775Y-28200D03*
X47200Y-28800D03*
X49675Y-24550D03*
X56725Y-25625D03*
X52600Y-24525D03*
X61700Y-26800D03*
X62700Y-26900D03*
X58575Y-24175D03*
X57575Y-29425D03*
X54575Y-29450D03*
X56225Y-26150D03*
X59950Y-25075D03*
X51125Y-24525D03*
X66100Y-25400D03*
X66700Y-27700D03*
X64600Y-28900D03*
X49125Y-26700D03*
X49175Y-27825D03*
X50550Y-24550D03*
X45500Y-23125D03*
X45488Y-24125D03*
G54D22*
X39000Y-20750D02*
X69750Y-20750D01*
X39000Y-29500D02*
X39000Y-20750D01*
X39000Y-32250D02*
X39000Y-29500D01*
X65500Y-32250D02*
X39000Y-32250D01*
X69750Y-32250D02*
X65500Y-32250D01*
X69750Y-20750D02*
X69750Y-32250D01*
G54D23*
X56050Y-26550D02*
X55375Y-26550D01*
G54D24*
X48925Y-27300D02*
X48950Y-27300D01*
G54D23*
X51000Y-28800D02*
X51000Y-28900D01*
G54D24*
X52650Y-22950D02*
X52600Y-23000D01*
X52600Y-23000D02*
X52000Y-23000D01*
G54D23*
X52175Y-25850D02*
X52175Y-25150D01*
X52175Y-25150D02*
X52150Y-25125D01*
X55375Y-26550D02*
X55100Y-26275D01*
X51000Y-28900D02*
X51375Y-29275D01*
X54350Y-25900D02*
X55050Y-25900D01*
X54050Y-26200D02*
X54350Y-25900D01*
X54050Y-28475D02*
X54050Y-26200D01*
X53250Y-29275D02*
X54050Y-28475D01*
X51375Y-29275D02*
X53250Y-29275D01*
G54D24*
X55050Y-25900D02*
X55100Y-25900D01*
G54D23*
X55050Y-25900D02*
X55100Y-25900D01*
X48950Y-27300D02*
X49200Y-27300D01*
X55100Y-26275D02*
X55100Y-25900D01*
X53500Y-25350D02*
X53450Y-25350D01*
X55350Y-28725D02*
X55850Y-28225D01*
X47700Y-25225D02*
X47800Y-25225D01*
X46875Y-25225D02*
X47700Y-25225D01*
X47700Y-25200D02*
X47800Y-25100D01*
X47700Y-25225D02*
X47700Y-25200D01*
X47800Y-25300D02*
X47800Y-25325D01*
X47700Y-25200D02*
X47800Y-25300D01*
X44225Y-25225D02*
X43700Y-24700D01*
X53300Y-25550D02*
X53300Y-25750D01*
X53500Y-25350D02*
X53300Y-25550D01*
X55975Y-25350D02*
X53500Y-25350D01*
X56525Y-25900D02*
X55975Y-25350D01*
X56525Y-26600D02*
X56525Y-25900D01*
X56350Y-26775D02*
X56525Y-26600D01*
X55850Y-27300D02*
X56350Y-27300D01*
X53300Y-25750D02*
X53300Y-25200D01*
X53300Y-25200D02*
X53300Y-24275D01*
X53300Y-24275D02*
X53300Y-24088D01*
G54D24*
X52975Y-24025D02*
X52900Y-23950D01*
X52900Y-23950D02*
X52750Y-23950D01*
G54D23*
X52750Y-23950D02*
X51000Y-23950D01*
X53300Y-27500D02*
X53300Y-25750D01*
X53350Y-28050D02*
X53350Y-27550D01*
X53350Y-27550D02*
X53300Y-27500D01*
X50000Y-23950D02*
X49400Y-23950D01*
X49400Y-23950D02*
X49000Y-23950D01*
X49000Y-23950D02*
X48850Y-23950D01*
X47800Y-24250D02*
X48100Y-23950D01*
X48100Y-23950D02*
X49000Y-23950D01*
X47800Y-24750D02*
X47800Y-24250D01*
X46875Y-25225D02*
X44225Y-25225D01*
X47800Y-24750D02*
X47800Y-25100D01*
X56350Y-27300D02*
X56350Y-26775D01*
X53450Y-25350D02*
X53300Y-25200D01*
G54D25*
X62200Y-27600D02*
X62200Y-26900D01*
G54D23*
X55350Y-29800D02*
X55350Y-28725D01*
X55850Y-28225D02*
X55850Y-27300D01*
G54D25*
X62200Y-26900D02*
X62200Y-24700D01*
G54D24*
X50250Y-23950D02*
X50000Y-23950D01*
X48850Y-23950D02*
X49000Y-23950D01*
G54D23*
X53600Y-24150D02*
X53425Y-24150D01*
X60650Y-24325D02*
X60325Y-24000D01*
X60325Y-24000D02*
X60325Y-21875D01*
X60325Y-21875D02*
X60000Y-21550D01*
X60650Y-24725D02*
X60650Y-24325D01*
X52250Y-28800D02*
X52950Y-28800D01*
X53350Y-28400D02*
X53350Y-28050D01*
X52950Y-28800D02*
X53350Y-28400D01*
G54D24*
X53350Y-25700D02*
X53300Y-25750D01*
G54D23*
X51000Y-23950D02*
X50000Y-23950D01*
G54D24*
X52300Y-28800D02*
X52250Y-28800D01*
X52350Y-28850D02*
X52300Y-28800D01*
G54D23*
X47800Y-26750D02*
X47800Y-27750D01*
X47800Y-28250D02*
X47800Y-28500D01*
X47800Y-27750D02*
X47800Y-28250D01*
X47800Y-28470D02*
X47830Y-28500D01*
X47850Y-28500D02*
X47800Y-28500D01*
X47800Y-25100D02*
X47800Y-25225D01*
X47800Y-25225D02*
X47800Y-25325D01*
X47800Y-25325D02*
X47800Y-25750D01*
X47800Y-25750D02*
X47800Y-26750D01*
X47830Y-28500D02*
X47850Y-28500D01*
X48000Y-28470D02*
X47800Y-28470D01*
G54D25*
X61920Y-27880D02*
X62200Y-27600D01*
G54D23*
X47800Y-28500D02*
X47800Y-28750D01*
X48000Y-28470D02*
X48000Y-28450D01*
X50000Y-21225D02*
X49875Y-21100D01*
X40000Y-21550D02*
X40000Y-21500D01*
X59550Y-21100D02*
X60000Y-21550D01*
X50125Y-21100D02*
X59550Y-21100D01*
X53425Y-24088D02*
X53425Y-24150D01*
X53425Y-24150D02*
X53300Y-24275D01*
X53538Y-24088D02*
X53425Y-24088D01*
X53425Y-24088D02*
X53300Y-24088D01*
X54345Y-24895D02*
X53600Y-24150D01*
X53600Y-24150D02*
X53538Y-24088D01*
X56520Y-24895D02*
X54345Y-24895D01*
X57025Y-25400D02*
X56520Y-24895D01*
X57025Y-25525D02*
X57025Y-25400D01*
X57150Y-25650D02*
X57025Y-25525D01*
X59000Y-31550D02*
X59000Y-31900D01*
X59000Y-31900D02*
X58900Y-32000D01*
X49000Y-31550D02*
X49000Y-31600D01*
X49000Y-31600D02*
X49400Y-32000D01*
X49400Y-32000D02*
X58900Y-32000D01*
X68550Y-32000D02*
X69000Y-31550D01*
X43700Y-24700D02*
X43700Y-23700D01*
X43700Y-24700D02*
X43700Y-25050D01*
X52750Y-23950D02*
X53125Y-23950D01*
X48550Y-28470D02*
X48000Y-28470D01*
X48000Y-28450D02*
X47800Y-28250D01*
G54D24*
X47800Y-26000D02*
X47800Y-25750D01*
G54D23*
X50000Y-21550D02*
X50000Y-21225D01*
X50000Y-21225D02*
X50125Y-21100D01*
G54D24*
X48100Y-28450D02*
X47800Y-28750D01*
X48530Y-28450D02*
X48100Y-28450D01*
G54D23*
X49875Y-21100D02*
X50125Y-21100D01*
G54D24*
X48550Y-28470D02*
X48530Y-28450D01*
G54D25*
X67800Y-24600D02*
X64800Y-24600D01*
G54D23*
X53300Y-24088D02*
X53263Y-24088D01*
X53263Y-24088D02*
X53125Y-23950D01*
X40400Y-21100D02*
X49875Y-21100D01*
X40000Y-21500D02*
X40400Y-21100D01*
X59000Y-31550D02*
X59000Y-31850D01*
X59000Y-31850D02*
X59150Y-32000D01*
X59150Y-32000D02*
X68550Y-32000D01*
X58900Y-32000D02*
X59150Y-32000D01*
G54D25*
X60900Y-27880D02*
X61920Y-27880D01*
G54D23*
X43500Y-25250D02*
X43500Y-26000D01*
X43700Y-25050D02*
X43500Y-25250D01*
X43700Y-29100D02*
X43700Y-28425D01*
X43500Y-28225D02*
X43500Y-27500D01*
G54D24*
X47900Y-26100D02*
X47800Y-26000D01*
X48600Y-26100D02*
X47900Y-26100D01*
G54D23*
X43700Y-28425D02*
X43500Y-28225D01*
X43500Y-27500D02*
X43500Y-26000D01*
G54D25*
X63700Y-26600D02*
X63100Y-26600D01*
X63100Y-26600D02*
X62900Y-26400D01*
X60900Y-27370D02*
X59530Y-27370D01*
X59530Y-27370D02*
X59500Y-27400D01*
X60100Y-26600D02*
X59900Y-26400D01*
X59900Y-26400D02*
X59500Y-26400D01*
X60900Y-26600D02*
X60100Y-26600D01*
X60900Y-26350D02*
X60350Y-26350D01*
X59500Y-25500D02*
X59500Y-25400D01*
X60350Y-26350D02*
X59500Y-25500D01*
X59500Y-28400D02*
X59700Y-28400D01*
X60470Y-27630D02*
X60900Y-27630D01*
X59700Y-28400D02*
X60470Y-27630D01*
G54D24*
X55350Y-27300D02*
X55350Y-28175D01*
X55350Y-28175D02*
X55150Y-28375D01*
X56350Y-30025D02*
X56050Y-30325D01*
X56050Y-30325D02*
X54625Y-30325D01*
X54625Y-30325D02*
X53850Y-29550D01*
X53850Y-29550D02*
X49175Y-29550D01*
X49175Y-29550D02*
X48575Y-30150D01*
X48575Y-30150D02*
X48575Y-30200D01*
X56350Y-29800D02*
X56350Y-30025D01*
X54850Y-28550D02*
X54150Y-29250D01*
X54150Y-29250D02*
X53875Y-29250D01*
X54850Y-27300D02*
X54850Y-28550D01*
X55850Y-29025D02*
X55850Y-29800D01*
X55800Y-28975D02*
X55850Y-29025D01*
X57550Y-28200D02*
X57550Y-26225D01*
X57575Y-28225D02*
X57550Y-28200D01*
X58750Y-27400D02*
X58300Y-26950D01*
X58900Y-27400D02*
X58750Y-27400D01*
X55700Y-23350D02*
X55700Y-23175D01*
X58300Y-25950D02*
X55700Y-23350D01*
X58300Y-26950D02*
X58300Y-25950D01*
X58900Y-26400D02*
X58900Y-26250D01*
X56200Y-23550D02*
X56200Y-23125D01*
X58900Y-26250D02*
X56200Y-23550D01*
X55350Y-23500D02*
X55350Y-23675D01*
X55305Y-23455D02*
X55350Y-23500D01*
X51580Y-23455D02*
X55305Y-23455D01*
X51205Y-23080D02*
X51580Y-23455D01*
X50205Y-23080D02*
X51205Y-23080D01*
X49875Y-22750D02*
X50205Y-23080D01*
X48620Y-22750D02*
X49875Y-22750D01*
X48275Y-23095D02*
X48620Y-22750D01*
X48275Y-23525D02*
X48275Y-23095D01*
X58350Y-25400D02*
X58900Y-25400D01*
X56575Y-23625D02*
X58350Y-25400D01*
X56575Y-23075D02*
X56575Y-23625D01*
X56625Y-23025D02*
X56575Y-23075D01*
X55375Y-23300D02*
X53000Y-23300D01*
X57925Y-25850D02*
X55375Y-23300D01*
X57925Y-27975D02*
X57925Y-25850D01*
X58350Y-28400D02*
X57925Y-27975D01*
X51650Y-23300D02*
X53000Y-23300D01*
X51275Y-22925D02*
X51650Y-23300D01*
X50300Y-22925D02*
X51275Y-22925D01*
X49950Y-22575D02*
X50300Y-22925D01*
X48575Y-22575D02*
X49950Y-22575D01*
X47975Y-23175D02*
X48575Y-22575D01*
X47975Y-23600D02*
X47975Y-23175D01*
X47750Y-23825D02*
X47975Y-23600D01*
X58900Y-28400D02*
X58350Y-28400D01*
X46100Y-22575D02*
X46100Y-23125D01*
X46500Y-22175D02*
X46100Y-22575D01*
X50500Y-22175D02*
X46500Y-22175D01*
X50575Y-22250D02*
X50500Y-22175D01*
X46100Y-24075D02*
X46100Y-23750D01*
X50200Y-22350D02*
X50500Y-22650D01*
X46775Y-22350D02*
X50200Y-22350D01*
X46450Y-22675D02*
X46775Y-22350D01*
X46450Y-23400D02*
X46450Y-22675D01*
X46100Y-23750D02*
X46450Y-23400D01*
X49375Y-28275D02*
X48450Y-29200D01*
X48450Y-29200D02*
X46075Y-29200D01*
X46075Y-29200D02*
X45500Y-28625D01*
X45500Y-28625D02*
X45500Y-27500D01*
X50650Y-27750D02*
X50125Y-28275D01*
X50125Y-28275D02*
X49375Y-28275D01*
X51125Y-27575D02*
X50950Y-27750D01*
X50950Y-27750D02*
X50650Y-27750D01*
X42200Y-30750D02*
X41850Y-30400D01*
X42700Y-30750D02*
X42200Y-30750D01*
X43075Y-30375D02*
X42700Y-30750D01*
X47675Y-23450D02*
X46500Y-24625D01*
X46500Y-24625D02*
X44600Y-24625D01*
X44600Y-24625D02*
X44175Y-24200D01*
X44175Y-24200D02*
X44175Y-23400D01*
X44175Y-23400D02*
X43900Y-23125D01*
X42850Y-23700D02*
X42500Y-23350D01*
X42500Y-23350D02*
X42500Y-23000D01*
X43100Y-23700D02*
X42850Y-23700D01*
X43900Y-23125D02*
X43325Y-23125D01*
X43325Y-23125D02*
X43100Y-23350D01*
X43100Y-23350D02*
X43100Y-23700D01*
X42500Y-23000D02*
X39500Y-23000D01*
X43100Y-28850D02*
X42500Y-28250D01*
X43100Y-29625D02*
X43100Y-29100D01*
X42500Y-28250D02*
X39500Y-28250D01*
X43550Y-30075D02*
X43100Y-29625D01*
X45575Y-30075D02*
X43550Y-30075D01*
X43100Y-29100D02*
X43100Y-28850D01*
G54D25*
X66400Y-26100D02*
X65600Y-26100D01*
X66400Y-26100D02*
X67800Y-26100D01*
X67800Y-26100D02*
X67800Y-25200D01*
X66400Y-26600D02*
X67200Y-26600D01*
X67200Y-26600D02*
X67300Y-26700D01*
X67300Y-26700D02*
X67800Y-26700D01*
X66100Y-26900D02*
X65600Y-26900D01*
X66400Y-26600D02*
X66100Y-26900D01*
X65000Y-26900D02*
X65000Y-27700D01*
X64800Y-26900D02*
X64500Y-26600D01*
X64500Y-26600D02*
X64500Y-25800D01*
X65000Y-26900D02*
X64800Y-26900D01*
X63180Y-25320D02*
X63700Y-25320D01*
X63100Y-25400D02*
X63180Y-25320D01*
X64100Y-25580D02*
X64120Y-25580D01*
X64400Y-25300D02*
X65000Y-25300D01*
X64120Y-25580D02*
X64400Y-25300D01*
X65000Y-25600D02*
X65000Y-25300D01*
X65000Y-26100D02*
X65000Y-25600D01*
X63700Y-25580D02*
X64100Y-25580D01*
G54D23*
X68600Y-27000D02*
X69325Y-27000D01*
X45750Y-25750D02*
X45500Y-26000D01*
X47200Y-25750D02*
X45750Y-25750D01*
X47200Y-26750D02*
X47200Y-25750D01*
X47200Y-27750D02*
X47200Y-26750D01*
X47200Y-28750D02*
X47200Y-27750D01*
X47200Y-24750D02*
X47025Y-24750D01*
X47025Y-24750D02*
X46850Y-24925D01*
X46850Y-24925D02*
X44775Y-24925D01*
G54D25*
X62600Y-27020D02*
X62600Y-27700D01*
X62700Y-26920D02*
X62600Y-27020D01*
X62760Y-26860D02*
X62700Y-26920D01*
X62600Y-27700D02*
X62700Y-27800D01*
X62780Y-27880D02*
X63700Y-27880D01*
X62700Y-27800D02*
X62780Y-27880D01*
X61390Y-27110D02*
X61700Y-26800D01*
X62700Y-26900D02*
X62710Y-26910D01*
X65600Y-28100D02*
X65400Y-28300D01*
X65400Y-28300D02*
X64800Y-28300D01*
X63700Y-26860D02*
X62760Y-26860D01*
X62760Y-26860D02*
X62600Y-26700D01*
G54D23*
X42500Y-30250D02*
X42500Y-30225D01*
X39700Y-30050D02*
X39500Y-30250D01*
X42325Y-30050D02*
X39700Y-30050D01*
X42500Y-30225D02*
X42325Y-30050D01*
X43100Y-24700D02*
X42800Y-24700D01*
X42800Y-24700D02*
X42500Y-25000D01*
G54D24*
X52375Y-27475D02*
X52400Y-27500D01*
X51775Y-28250D02*
X51825Y-28200D01*
X52400Y-27500D02*
X52700Y-27500D01*
X52475Y-26500D02*
X52700Y-26275D01*
X52700Y-26275D02*
X52700Y-25750D01*
X52550Y-25325D02*
X52700Y-25475D01*
X52700Y-25475D02*
X52700Y-25750D01*
X52775Y-28200D02*
X52250Y-28200D01*
G54D23*
X51000Y-28200D02*
X50750Y-28200D01*
X50750Y-28200D02*
X50250Y-28700D01*
G54D24*
X51825Y-28200D02*
X52250Y-28200D01*
X47200Y-28800D02*
X47200Y-28750D01*
X49800Y-27300D02*
X49800Y-27600D01*
X49800Y-27600D02*
X49575Y-27825D01*
X49675Y-24550D02*
X50000Y-24550D01*
G54D23*
X54075Y-25100D02*
X53600Y-24625D01*
X56200Y-25100D02*
X54075Y-25100D01*
X56725Y-25625D02*
X56200Y-25100D01*
G54D24*
X52625Y-24550D02*
X52750Y-24550D01*
X52600Y-24525D02*
X52625Y-24550D01*
G54D25*
X60900Y-27110D02*
X61390Y-27110D01*
X62700Y-26900D02*
X62700Y-26920D01*
X62710Y-26910D02*
X62700Y-26900D01*
X64800Y-28300D02*
X64600Y-28500D01*
G54D24*
X52000Y-22400D02*
X51850Y-22400D01*
X51850Y-22400D02*
X51000Y-21550D01*
X52025Y-22425D02*
X52000Y-22400D01*
X56825Y-22425D02*
X52025Y-22425D01*
X58575Y-24175D02*
X56825Y-22425D01*
X54850Y-29800D02*
X54850Y-29725D01*
G54D23*
X58000Y-29850D02*
X57575Y-29425D01*
X58000Y-29850D02*
X58000Y-31550D01*
G54D24*
X54850Y-29725D02*
X54575Y-29450D01*
G54D23*
X52750Y-24550D02*
X51000Y-24550D01*
X55975Y-25900D02*
X56225Y-26150D01*
X55700Y-25900D02*
X55975Y-25900D01*
G54D24*
X49800Y-26925D02*
X49800Y-27300D01*
G54D25*
X65600Y-27700D02*
X65600Y-28100D01*
X66700Y-27700D02*
X65600Y-27700D01*
X66100Y-25400D02*
X66000Y-25300D01*
X66000Y-25300D02*
X65600Y-25300D01*
X62600Y-26700D02*
X62760Y-26860D01*
X63700Y-26090D02*
X62710Y-26090D01*
X62600Y-26200D02*
X62600Y-26700D01*
X62710Y-26090D02*
X62600Y-26200D01*
X63700Y-28140D02*
X63700Y-27880D01*
X64240Y-28140D02*
X64600Y-28500D01*
X64600Y-28500D02*
X64600Y-28900D01*
X63700Y-28140D02*
X64240Y-28140D01*
G54D24*
X49575Y-26700D02*
X49800Y-26925D01*
X49125Y-26700D02*
X49575Y-26700D01*
X49175Y-27825D02*
X49575Y-27825D01*
X51125Y-24525D02*
X51100Y-24550D01*
X51100Y-24550D02*
X51000Y-24550D01*
X50550Y-24550D02*
X50000Y-24550D01*
X45500Y-24075D02*
X45500Y-24113D01*
X45500Y-24113D02*
X45488Y-24125D01*
G54D10*
G36*
X47250Y-24800D02*
X47150Y-24800D01*
X47100Y-24800D01*
X46887Y-24800D01*
X46825Y-24862D01*
X46825Y-24905D01*
X46578Y-24905D01*
X46613Y-24898D01*
X46709Y-24834D01*
X46864Y-24677D01*
X46887Y-24700D01*
X47100Y-24700D01*
X47150Y-24700D01*
X47250Y-24700D01*
X47250Y-24800D01*
X47250Y-24800D01*
G37*
G54D25*
X47250Y-24800D02*
X47150Y-24800D01*
X47100Y-24800D01*
X46887Y-24800D01*
X46825Y-24862D01*
X46825Y-24905D01*
X46578Y-24905D01*
X46613Y-24898D01*
X46709Y-24834D01*
X46864Y-24677D01*
X46887Y-24700D01*
X47100Y-24700D01*
X47150Y-24700D01*
X47250Y-24700D01*
X47250Y-24800D01*
G54D10*
G36*
X47480Y-28328D02*
X47466Y-28314D01*
X47374Y-28276D01*
X47312Y-28275D01*
X47250Y-28337D01*
X47250Y-28650D01*
X47250Y-28700D01*
X47250Y-28800D01*
X47150Y-28800D01*
X47150Y-28700D01*
X47150Y-28337D01*
X47150Y-28163D01*
X47150Y-27800D01*
X47150Y-27700D01*
X47150Y-27337D01*
X47150Y-27163D01*
X47150Y-26800D01*
X47150Y-26700D01*
X47150Y-26337D01*
X47150Y-26163D01*
X47150Y-25800D01*
X46887Y-25800D01*
X46825Y-25862D01*
X46826Y-25926D01*
X46826Y-26025D01*
X46864Y-26116D01*
X46934Y-26186D01*
X47026Y-26224D01*
X47088Y-26225D01*
X47150Y-26163D01*
X47150Y-26337D01*
X47088Y-26275D01*
X47026Y-26276D01*
X46934Y-26314D01*
X46864Y-26384D01*
X46826Y-26475D01*
X46826Y-26574D01*
X46825Y-26638D01*
X46887Y-26700D01*
X47150Y-26700D01*
X47150Y-26800D01*
X46887Y-26800D01*
X46825Y-26862D01*
X46826Y-26926D01*
X46826Y-27025D01*
X46864Y-27116D01*
X46934Y-27186D01*
X47026Y-27224D01*
X47088Y-27225D01*
X47150Y-27163D01*
X47150Y-27337D01*
X47088Y-27275D01*
X47026Y-27276D01*
X46934Y-27314D01*
X46864Y-27384D01*
X46826Y-27475D01*
X46826Y-27574D01*
X46825Y-27638D01*
X46887Y-27700D01*
X47150Y-27700D01*
X47150Y-27800D01*
X46887Y-27800D01*
X46825Y-27862D01*
X46826Y-27926D01*
X46826Y-28025D01*
X46864Y-28116D01*
X46934Y-28186D01*
X47026Y-28224D01*
X47088Y-28225D01*
X47150Y-28163D01*
X47150Y-28337D01*
X47088Y-28275D01*
X47026Y-28276D01*
X46934Y-28314D01*
X46864Y-28384D01*
X46826Y-28475D01*
X46826Y-28574D01*
X46825Y-28638D01*
X46887Y-28700D01*
X47150Y-28700D01*
X47150Y-28800D01*
X47100Y-28800D01*
X46887Y-28800D01*
X46825Y-28862D01*
X46825Y-28905D01*
X46197Y-28905D01*
X46025Y-28732D01*
X46025Y-26112D01*
X45963Y-26050D01*
X45550Y-26050D01*
X45550Y-26688D01*
X45612Y-26750D01*
X45726Y-26749D01*
X45825Y-26749D01*
X45916Y-26711D01*
X45986Y-26641D01*
X46024Y-26549D01*
X46025Y-26112D01*
X46025Y-28732D01*
X45795Y-28502D01*
X45795Y-28249D01*
X45824Y-28249D01*
X45916Y-28211D01*
X45986Y-28141D01*
X46024Y-28050D01*
X46024Y-27951D01*
X46024Y-26951D01*
X45986Y-26859D01*
X45916Y-26789D01*
X45825Y-26751D01*
X45726Y-26751D01*
X45176Y-26751D01*
X45084Y-26789D01*
X45014Y-26859D01*
X44999Y-26892D01*
X44986Y-26859D01*
X44916Y-26789D01*
X44825Y-26751D01*
X44726Y-26751D01*
X44176Y-26751D01*
X44084Y-26789D01*
X44014Y-26859D01*
X43999Y-26892D01*
X43986Y-26859D01*
X43916Y-26789D01*
X43825Y-26751D01*
X43820Y-26751D01*
X43820Y-26749D01*
X43824Y-26749D01*
X43916Y-26711D01*
X43986Y-26641D01*
X44000Y-26607D01*
X44014Y-26641D01*
X44084Y-26711D01*
X44175Y-26749D01*
X44274Y-26749D01*
X44824Y-26749D01*
X44916Y-26711D01*
X44986Y-26641D01*
X45000Y-26607D01*
X45014Y-26641D01*
X45084Y-26711D01*
X45175Y-26749D01*
X45274Y-26749D01*
X45388Y-26750D01*
X45450Y-26688D01*
X45450Y-26100D01*
X45450Y-26050D01*
X45450Y-25950D01*
X45550Y-25950D01*
X45600Y-25950D01*
X45963Y-25950D01*
X46025Y-25888D01*
X46024Y-25545D01*
X46826Y-25545D01*
X46826Y-25574D01*
X46825Y-25638D01*
X46887Y-25700D01*
X47100Y-25700D01*
X47150Y-25700D01*
X47250Y-25700D01*
X47250Y-25800D01*
X47250Y-25850D01*
X47250Y-26163D01*
X47312Y-26225D01*
X47374Y-26224D01*
X47466Y-26186D01*
X47480Y-26172D01*
X47480Y-26328D01*
X47466Y-26314D01*
X47374Y-26276D01*
X47312Y-26275D01*
X47250Y-26337D01*
X47250Y-26650D01*
X47250Y-26700D01*
X47250Y-26800D01*
X47250Y-26850D01*
X47250Y-27163D01*
X47312Y-27225D01*
X47374Y-27224D01*
X47466Y-27186D01*
X47480Y-27172D01*
X47480Y-27328D01*
X47466Y-27314D01*
X47374Y-27276D01*
X47312Y-27275D01*
X47250Y-27337D01*
X47250Y-27650D01*
X47250Y-27700D01*
X47250Y-27800D01*
X47250Y-27850D01*
X47250Y-28163D01*
X47312Y-28225D01*
X47374Y-28224D01*
X47466Y-28186D01*
X47480Y-28172D01*
X47480Y-28250D01*
X47480Y-28328D01*
X47480Y-28328D01*
G37*
G54D25*
X47480Y-28328D02*
X47466Y-28314D01*
X47374Y-28276D01*
X47312Y-28275D01*
X47250Y-28337D01*
X47250Y-28650D01*
X47250Y-28700D01*
X47250Y-28800D01*
X47150Y-28800D01*
X47150Y-28700D01*
X47150Y-28337D01*
X47150Y-28163D01*
X47150Y-27800D01*
X47150Y-27700D01*
X47150Y-27337D01*
X47150Y-27163D01*
X47150Y-26800D01*
X47150Y-26700D01*
X47150Y-26337D01*
X47150Y-26163D01*
X47150Y-25800D01*
X46887Y-25800D01*
X46825Y-25862D01*
X46826Y-25926D01*
X46826Y-26025D01*
X46864Y-26116D01*
X46934Y-26186D01*
X47026Y-26224D01*
X47088Y-26225D01*
X47150Y-26163D01*
X47150Y-26337D01*
X47088Y-26275D01*
X47026Y-26276D01*
X46934Y-26314D01*
X46864Y-26384D01*
X46826Y-26475D01*
X46826Y-26574D01*
X46825Y-26638D01*
X46887Y-26700D01*
X47150Y-26700D01*
X47150Y-26800D01*
X46887Y-26800D01*
X46825Y-26862D01*
X46826Y-26926D01*
X46826Y-27025D01*
X46864Y-27116D01*
X46934Y-27186D01*
X47026Y-27224D01*
X47088Y-27225D01*
X47150Y-27163D01*
X47150Y-27337D01*
X47088Y-27275D01*
X47026Y-27276D01*
X46934Y-27314D01*
X46864Y-27384D01*
X46826Y-27475D01*
X46826Y-27574D01*
X46825Y-27638D01*
X46887Y-27700D01*
X47150Y-27700D01*
X47150Y-27800D01*
X46887Y-27800D01*
X46825Y-27862D01*
X46826Y-27926D01*
X46826Y-28025D01*
X46864Y-28116D01*
X46934Y-28186D01*
X47026Y-28224D01*
X47088Y-28225D01*
X47150Y-28163D01*
X47150Y-28337D01*
X47088Y-28275D01*
X47026Y-28276D01*
X46934Y-28314D01*
X46864Y-28384D01*
X46826Y-28475D01*
X46826Y-28574D01*
X46825Y-28638D01*
X46887Y-28700D01*
X47150Y-28700D01*
X47150Y-28800D01*
X47100Y-28800D01*
X46887Y-28800D01*
X46825Y-28862D01*
X46825Y-28905D01*
X46197Y-28905D01*
X46025Y-28732D01*
X46025Y-26112D01*
X45963Y-26050D01*
X45550Y-26050D01*
X45550Y-26688D01*
X45612Y-26750D01*
X45726Y-26749D01*
X45825Y-26749D01*
X45916Y-26711D01*
X45986Y-26641D01*
X46024Y-26549D01*
X46025Y-26112D01*
X46025Y-28732D01*
X45795Y-28502D01*
X45795Y-28249D01*
X45824Y-28249D01*
X45916Y-28211D01*
X45986Y-28141D01*
X46024Y-28050D01*
X46024Y-27951D01*
X46024Y-26951D01*
X45986Y-26859D01*
X45916Y-26789D01*
X45825Y-26751D01*
X45726Y-26751D01*
X45176Y-26751D01*
X45084Y-26789D01*
X45014Y-26859D01*
X44999Y-26892D01*
X44986Y-26859D01*
X44916Y-26789D01*
X44825Y-26751D01*
X44726Y-26751D01*
X44176Y-26751D01*
X44084Y-26789D01*
X44014Y-26859D01*
X43999Y-26892D01*
X43986Y-26859D01*
X43916Y-26789D01*
X43825Y-26751D01*
X43820Y-26751D01*
X43820Y-26749D01*
X43824Y-26749D01*
X43916Y-26711D01*
X43986Y-26641D01*
X44000Y-26607D01*
X44014Y-26641D01*
X44084Y-26711D01*
X44175Y-26749D01*
X44274Y-26749D01*
X44824Y-26749D01*
X44916Y-26711D01*
X44986Y-26641D01*
X45000Y-26607D01*
X45014Y-26641D01*
X45084Y-26711D01*
X45175Y-26749D01*
X45274Y-26749D01*
X45388Y-26750D01*
X45450Y-26688D01*
X45450Y-26100D01*
X45450Y-26050D01*
X45450Y-25950D01*
X45550Y-25950D01*
X45600Y-25950D01*
X45963Y-25950D01*
X46025Y-25888D01*
X46024Y-25545D01*
X46826Y-25545D01*
X46826Y-25574D01*
X46825Y-25638D01*
X46887Y-25700D01*
X47100Y-25700D01*
X47150Y-25700D01*
X47250Y-25700D01*
X47250Y-25800D01*
X47250Y-25850D01*
X47250Y-26163D01*
X47312Y-26225D01*
X47374Y-26224D01*
X47466Y-26186D01*
X47480Y-26172D01*
X47480Y-26328D01*
X47466Y-26314D01*
X47374Y-26276D01*
X47312Y-26275D01*
X47250Y-26337D01*
X47250Y-26650D01*
X47250Y-26700D01*
X47250Y-26800D01*
X47250Y-26850D01*
X47250Y-27163D01*
X47312Y-27225D01*
X47374Y-27224D01*
X47466Y-27186D01*
X47480Y-27172D01*
X47480Y-27328D01*
X47466Y-27314D01*
X47374Y-27276D01*
X47312Y-27275D01*
X47250Y-27337D01*
X47250Y-27650D01*
X47250Y-27700D01*
X47250Y-27800D01*
X47250Y-27850D01*
X47250Y-28163D01*
X47312Y-28225D01*
X47374Y-28224D01*
X47466Y-28186D01*
X47480Y-28172D01*
X47480Y-28250D01*
X47480Y-28328D01*
G54D10*
G36*
X53012Y-28285D02*
X52817Y-28480D01*
X52672Y-28480D01*
X52686Y-28466D01*
X52724Y-28374D01*
X52725Y-28312D01*
X52663Y-28250D01*
X52350Y-28250D01*
X52300Y-28250D01*
X52200Y-28250D01*
X52200Y-28150D01*
X52200Y-27887D01*
X52138Y-27825D01*
X52074Y-27826D01*
X51975Y-27826D01*
X51884Y-27864D01*
X51814Y-27934D01*
X51776Y-28026D01*
X51775Y-28088D01*
X51837Y-28150D01*
X52200Y-28150D01*
X52200Y-28250D01*
X52150Y-28250D01*
X51837Y-28250D01*
X51775Y-28312D01*
X51776Y-28374D01*
X51814Y-28466D01*
X51848Y-28500D01*
X51814Y-28534D01*
X51776Y-28625D01*
X51776Y-28724D01*
X51776Y-28955D01*
X51507Y-28955D01*
X51474Y-28921D01*
X51474Y-28876D01*
X51474Y-28626D01*
X51436Y-28534D01*
X51402Y-28500D01*
X51436Y-28466D01*
X51474Y-28374D01*
X51475Y-28312D01*
X51413Y-28250D01*
X51100Y-28250D01*
X51050Y-28250D01*
X50950Y-28250D01*
X50950Y-28150D01*
X51050Y-28150D01*
X51100Y-28150D01*
X51413Y-28150D01*
X51475Y-28088D01*
X51474Y-28026D01*
X51436Y-27934D01*
X51387Y-27885D01*
X51469Y-27806D01*
X51531Y-27656D01*
X51531Y-27495D01*
X51475Y-27360D01*
X51475Y-24662D01*
X51413Y-24600D01*
X51050Y-24600D01*
X51050Y-24863D01*
X51112Y-24925D01*
X51176Y-24924D01*
X51275Y-24924D01*
X51366Y-24886D01*
X51436Y-24816D01*
X51474Y-24724D01*
X51475Y-24662D01*
X51475Y-27360D01*
X51469Y-27346D01*
X51356Y-27231D01*
X51206Y-27169D01*
X51045Y-27169D01*
X50950Y-27208D01*
X50950Y-24863D01*
X50950Y-24600D01*
X50587Y-24600D01*
X50525Y-24662D01*
X50526Y-24724D01*
X50564Y-24816D01*
X50634Y-24886D01*
X50725Y-24924D01*
X50824Y-24924D01*
X50888Y-24925D01*
X50950Y-24863D01*
X50950Y-27208D01*
X50896Y-27231D01*
X50781Y-27344D01*
X50735Y-27455D01*
X50650Y-27455D01*
X50537Y-27477D01*
X50475Y-27518D01*
X50475Y-24662D01*
X50413Y-24600D01*
X50050Y-24600D01*
X50050Y-24863D01*
X50112Y-24925D01*
X50176Y-24924D01*
X50275Y-24924D01*
X50366Y-24886D01*
X50436Y-24816D01*
X50474Y-24724D01*
X50475Y-24662D01*
X50475Y-27518D01*
X50441Y-27541D01*
X50439Y-27543D01*
X50175Y-27807D01*
X50175Y-27412D01*
X50175Y-27188D01*
X50174Y-27124D01*
X50174Y-27025D01*
X50136Y-26934D01*
X50066Y-26864D01*
X49974Y-26826D01*
X49950Y-26825D01*
X49950Y-24863D01*
X49950Y-24600D01*
X49587Y-24600D01*
X49525Y-24662D01*
X49526Y-24724D01*
X49564Y-24816D01*
X49634Y-24886D01*
X49725Y-24924D01*
X49824Y-24924D01*
X49888Y-24925D01*
X49950Y-24863D01*
X49950Y-26825D01*
X49912Y-26825D01*
X49850Y-26887D01*
X49850Y-27250D01*
X50113Y-27250D01*
X50175Y-27188D01*
X50175Y-27412D01*
X50113Y-27350D01*
X49850Y-27350D01*
X49850Y-27713D01*
X49912Y-27775D01*
X49974Y-27774D01*
X50066Y-27736D01*
X50136Y-27666D01*
X50174Y-27575D01*
X50174Y-27476D01*
X50175Y-27412D01*
X50175Y-27807D01*
X50002Y-27980D01*
X49750Y-27980D01*
X49750Y-27713D01*
X49750Y-27400D01*
X49750Y-27350D01*
X49750Y-27250D01*
X49750Y-27200D01*
X49750Y-26887D01*
X49688Y-26825D01*
X49626Y-26826D01*
X49534Y-26864D01*
X49500Y-26898D01*
X49475Y-26873D01*
X49475Y-24662D01*
X49413Y-24600D01*
X49050Y-24600D01*
X49050Y-24863D01*
X49112Y-24925D01*
X49176Y-24924D01*
X49275Y-24924D01*
X49366Y-24886D01*
X49436Y-24816D01*
X49474Y-24724D01*
X49475Y-24662D01*
X49475Y-26873D01*
X49466Y-26864D01*
X49375Y-26826D01*
X49276Y-26826D01*
X49026Y-26826D01*
X48934Y-26864D01*
X48904Y-26894D01*
X48845Y-26894D01*
X48696Y-26956D01*
X48581Y-27069D01*
X48519Y-27219D01*
X48519Y-27380D01*
X48581Y-27529D01*
X48694Y-27644D01*
X48844Y-27706D01*
X48904Y-27706D01*
X48934Y-27736D01*
X49025Y-27774D01*
X49124Y-27774D01*
X49374Y-27774D01*
X49466Y-27736D01*
X49500Y-27702D01*
X49534Y-27736D01*
X49626Y-27774D01*
X49688Y-27775D01*
X49750Y-27713D01*
X49750Y-27980D01*
X49375Y-27980D01*
X49262Y-28002D01*
X49166Y-28066D01*
X49164Y-28068D01*
X48922Y-28310D01*
X48894Y-28241D01*
X48781Y-28126D01*
X48631Y-28064D01*
X48470Y-28064D01*
X48321Y-28126D01*
X48296Y-28150D01*
X48152Y-28150D01*
X48127Y-28124D01*
X48136Y-28116D01*
X48174Y-28025D01*
X48174Y-27926D01*
X48174Y-27476D01*
X48136Y-27384D01*
X48120Y-27368D01*
X48120Y-27132D01*
X48136Y-27116D01*
X48174Y-27025D01*
X48174Y-26926D01*
X48174Y-26476D01*
X48140Y-26395D01*
X48320Y-26395D01*
X48369Y-26444D01*
X48519Y-26506D01*
X48680Y-26506D01*
X48829Y-26444D01*
X48944Y-26331D01*
X49006Y-26181D01*
X49006Y-26020D01*
X48950Y-25885D01*
X48950Y-24863D01*
X48950Y-24600D01*
X48587Y-24600D01*
X48525Y-24662D01*
X48526Y-24724D01*
X48564Y-24816D01*
X48634Y-24886D01*
X48725Y-24924D01*
X48824Y-24924D01*
X48888Y-24925D01*
X48950Y-24863D01*
X48950Y-25885D01*
X48944Y-25871D01*
X48831Y-25756D01*
X48681Y-25694D01*
X48520Y-25694D01*
X48371Y-25756D01*
X48321Y-25805D01*
X48174Y-25805D01*
X48174Y-25476D01*
X48136Y-25384D01*
X48120Y-25368D01*
X48120Y-25325D01*
X48120Y-25300D01*
X48120Y-25225D01*
X48120Y-25132D01*
X48136Y-25116D01*
X48174Y-25025D01*
X48174Y-24926D01*
X48174Y-24476D01*
X48136Y-24384D01*
X48127Y-24375D01*
X48232Y-24270D01*
X48578Y-24270D01*
X48564Y-24284D01*
X48526Y-24376D01*
X48525Y-24438D01*
X48587Y-24500D01*
X48900Y-24500D01*
X48950Y-24500D01*
X49050Y-24500D01*
X49100Y-24500D01*
X49413Y-24500D01*
X49475Y-24438D01*
X49474Y-24376D01*
X49465Y-24356D01*
X49480Y-24356D01*
X49545Y-24328D01*
X49526Y-24376D01*
X49525Y-24438D01*
X49587Y-24500D01*
X49900Y-24500D01*
X49950Y-24500D01*
X50050Y-24500D01*
X50100Y-24500D01*
X50413Y-24500D01*
X50475Y-24438D01*
X50474Y-24376D01*
X50445Y-24307D01*
X50479Y-24294D01*
X50503Y-24270D01*
X50578Y-24270D01*
X50564Y-24284D01*
X50526Y-24376D01*
X50525Y-24438D01*
X50587Y-24500D01*
X50900Y-24500D01*
X50950Y-24500D01*
X51050Y-24500D01*
X51100Y-24500D01*
X51413Y-24500D01*
X51475Y-24438D01*
X51474Y-24376D01*
X51436Y-24284D01*
X51422Y-24270D01*
X52328Y-24270D01*
X52314Y-24284D01*
X52276Y-24376D01*
X52275Y-24438D01*
X52337Y-24500D01*
X52650Y-24500D01*
X52700Y-24500D01*
X52800Y-24500D01*
X52800Y-24600D01*
X52800Y-24650D01*
X52800Y-24863D01*
X52862Y-24925D01*
X52926Y-24924D01*
X52980Y-24924D01*
X52980Y-25200D01*
X52980Y-25328D01*
X52966Y-25314D01*
X52874Y-25276D01*
X52812Y-25275D01*
X52750Y-25337D01*
X52750Y-25650D01*
X52750Y-25700D01*
X52750Y-25800D01*
X52750Y-25850D01*
X52750Y-26163D01*
X52812Y-26225D01*
X52874Y-26224D01*
X52966Y-26186D01*
X52980Y-26172D01*
X52980Y-27078D01*
X52966Y-27064D01*
X52874Y-27026D01*
X52812Y-27025D01*
X52750Y-27087D01*
X52750Y-27400D01*
X52750Y-27450D01*
X52750Y-27550D01*
X52700Y-27550D01*
X52700Y-24863D01*
X52700Y-24600D01*
X52337Y-24600D01*
X52275Y-24662D01*
X52276Y-24724D01*
X52282Y-24740D01*
X52231Y-24719D01*
X52070Y-24719D01*
X51921Y-24781D01*
X51806Y-24894D01*
X51744Y-25044D01*
X51744Y-25205D01*
X51806Y-25354D01*
X51855Y-25403D01*
X51855Y-25595D01*
X51831Y-25619D01*
X51769Y-25769D01*
X51769Y-25930D01*
X51831Y-26079D01*
X51944Y-26194D01*
X52094Y-26256D01*
X52255Y-26256D01*
X52404Y-26194D01*
X52423Y-26175D01*
X52434Y-26186D01*
X52526Y-26224D01*
X52588Y-26225D01*
X52650Y-26163D01*
X52650Y-25850D01*
X52650Y-25800D01*
X52650Y-25700D01*
X52650Y-25650D01*
X52650Y-25337D01*
X52588Y-25275D01*
X52527Y-25275D01*
X52556Y-25206D01*
X52556Y-25045D01*
X52505Y-24924D01*
X52574Y-24924D01*
X52638Y-24925D01*
X52700Y-24863D01*
X52700Y-27550D01*
X52650Y-27550D01*
X52650Y-27450D01*
X52650Y-27087D01*
X52588Y-27025D01*
X52526Y-27026D01*
X52434Y-27064D01*
X52364Y-27134D01*
X52326Y-27225D01*
X52326Y-27324D01*
X52325Y-27388D01*
X52387Y-27450D01*
X52650Y-27450D01*
X52650Y-27550D01*
X52600Y-27550D01*
X52387Y-27550D01*
X52325Y-27612D01*
X52326Y-27676D01*
X52326Y-27775D01*
X52351Y-27835D01*
X52300Y-27887D01*
X52300Y-28150D01*
X52663Y-28150D01*
X52725Y-28088D01*
X52724Y-28026D01*
X52703Y-27975D01*
X52800Y-27975D01*
X52800Y-27963D01*
X52812Y-27975D01*
X52874Y-27974D01*
X52955Y-27940D01*
X52944Y-27969D01*
X52944Y-28130D01*
X53006Y-28279D01*
X53012Y-28285D01*
X53012Y-28285D01*
G37*
G54D25*
X53012Y-28285D02*
X52817Y-28480D01*
X52672Y-28480D01*
X52686Y-28466D01*
X52724Y-28374D01*
X52725Y-28312D01*
X52663Y-28250D01*
X52350Y-28250D01*
X52300Y-28250D01*
X52200Y-28250D01*
X52200Y-28150D01*
X52200Y-27887D01*
X52138Y-27825D01*
X52074Y-27826D01*
X51975Y-27826D01*
X51884Y-27864D01*
X51814Y-27934D01*
X51776Y-28026D01*
X51775Y-28088D01*
X51837Y-28150D01*
X52200Y-28150D01*
X52200Y-28250D01*
X52150Y-28250D01*
X51837Y-28250D01*
X51775Y-28312D01*
X51776Y-28374D01*
X51814Y-28466D01*
X51848Y-28500D01*
X51814Y-28534D01*
X51776Y-28625D01*
X51776Y-28724D01*
X51776Y-28955D01*
X51507Y-28955D01*
X51474Y-28921D01*
X51474Y-28876D01*
X51474Y-28626D01*
X51436Y-28534D01*
X51402Y-28500D01*
X51436Y-28466D01*
X51474Y-28374D01*
X51475Y-28312D01*
X51413Y-28250D01*
X51100Y-28250D01*
X51050Y-28250D01*
X50950Y-28250D01*
X50950Y-28150D01*
X51050Y-28150D01*
X51100Y-28150D01*
X51413Y-28150D01*
X51475Y-28088D01*
X51474Y-28026D01*
X51436Y-27934D01*
X51387Y-27885D01*
X51469Y-27806D01*
X51531Y-27656D01*
X51531Y-27495D01*
X51475Y-27360D01*
X51475Y-24662D01*
X51413Y-24600D01*
X51050Y-24600D01*
X51050Y-24863D01*
X51112Y-24925D01*
X51176Y-24924D01*
X51275Y-24924D01*
X51366Y-24886D01*
X51436Y-24816D01*
X51474Y-24724D01*
X51475Y-24662D01*
X51475Y-27360D01*
X51469Y-27346D01*
X51356Y-27231D01*
X51206Y-27169D01*
X51045Y-27169D01*
X50950Y-27208D01*
X50950Y-24863D01*
X50950Y-24600D01*
X50587Y-24600D01*
X50525Y-24662D01*
X50526Y-24724D01*
X50564Y-24816D01*
X50634Y-24886D01*
X50725Y-24924D01*
X50824Y-24924D01*
X50888Y-24925D01*
X50950Y-24863D01*
X50950Y-27208D01*
X50896Y-27231D01*
X50781Y-27344D01*
X50735Y-27455D01*
X50650Y-27455D01*
X50537Y-27477D01*
X50475Y-27518D01*
X50475Y-24662D01*
X50413Y-24600D01*
X50050Y-24600D01*
X50050Y-24863D01*
X50112Y-24925D01*
X50176Y-24924D01*
X50275Y-24924D01*
X50366Y-24886D01*
X50436Y-24816D01*
X50474Y-24724D01*
X50475Y-24662D01*
X50475Y-27518D01*
X50441Y-27541D01*
X50439Y-27543D01*
X50175Y-27807D01*
X50175Y-27412D01*
X50175Y-27188D01*
X50174Y-27124D01*
X50174Y-27025D01*
X50136Y-26934D01*
X50066Y-26864D01*
X49974Y-26826D01*
X49950Y-26825D01*
X49950Y-24863D01*
X49950Y-24600D01*
X49587Y-24600D01*
X49525Y-24662D01*
X49526Y-24724D01*
X49564Y-24816D01*
X49634Y-24886D01*
X49725Y-24924D01*
X49824Y-24924D01*
X49888Y-24925D01*
X49950Y-24863D01*
X49950Y-26825D01*
X49912Y-26825D01*
X49850Y-26887D01*
X49850Y-27250D01*
X50113Y-27250D01*
X50175Y-27188D01*
X50175Y-27412D01*
X50113Y-27350D01*
X49850Y-27350D01*
X49850Y-27713D01*
X49912Y-27775D01*
X49974Y-27774D01*
X50066Y-27736D01*
X50136Y-27666D01*
X50174Y-27575D01*
X50174Y-27476D01*
X50175Y-27412D01*
X50175Y-27807D01*
X50002Y-27980D01*
X49750Y-27980D01*
X49750Y-27713D01*
X49750Y-27400D01*
X49750Y-27350D01*
X49750Y-27250D01*
X49750Y-27200D01*
X49750Y-26887D01*
X49688Y-26825D01*
X49626Y-26826D01*
X49534Y-26864D01*
X49500Y-26898D01*
X49475Y-26873D01*
X49475Y-24662D01*
X49413Y-24600D01*
X49050Y-24600D01*
X49050Y-24863D01*
X49112Y-24925D01*
X49176Y-24924D01*
X49275Y-24924D01*
X49366Y-24886D01*
X49436Y-24816D01*
X49474Y-24724D01*
X49475Y-24662D01*
X49475Y-26873D01*
X49466Y-26864D01*
X49375Y-26826D01*
X49276Y-26826D01*
X49026Y-26826D01*
X48934Y-26864D01*
X48904Y-26894D01*
X48845Y-26894D01*
X48696Y-26956D01*
X48581Y-27069D01*
X48519Y-27219D01*
X48519Y-27380D01*
X48581Y-27529D01*
X48694Y-27644D01*
X48844Y-27706D01*
X48904Y-27706D01*
X48934Y-27736D01*
X49025Y-27774D01*
X49124Y-27774D01*
X49374Y-27774D01*
X49466Y-27736D01*
X49500Y-27702D01*
X49534Y-27736D01*
X49626Y-27774D01*
X49688Y-27775D01*
X49750Y-27713D01*
X49750Y-27980D01*
X49375Y-27980D01*
X49262Y-28002D01*
X49166Y-28066D01*
X49164Y-28068D01*
X48922Y-28310D01*
X48894Y-28241D01*
X48781Y-28126D01*
X48631Y-28064D01*
X48470Y-28064D01*
X48321Y-28126D01*
X48296Y-28150D01*
X48152Y-28150D01*
X48127Y-28124D01*
X48136Y-28116D01*
X48174Y-28025D01*
X48174Y-27926D01*
X48174Y-27476D01*
X48136Y-27384D01*
X48120Y-27368D01*
X48120Y-27132D01*
X48136Y-27116D01*
X48174Y-27025D01*
X48174Y-26926D01*
X48174Y-26476D01*
X48140Y-26395D01*
X48320Y-26395D01*
X48369Y-26444D01*
X48519Y-26506D01*
X48680Y-26506D01*
X48829Y-26444D01*
X48944Y-26331D01*
X49006Y-26181D01*
X49006Y-26020D01*
X48950Y-25885D01*
X48950Y-24863D01*
X48950Y-24600D01*
X48587Y-24600D01*
X48525Y-24662D01*
X48526Y-24724D01*
X48564Y-24816D01*
X48634Y-24886D01*
X48725Y-24924D01*
X48824Y-24924D01*
X48888Y-24925D01*
X48950Y-24863D01*
X48950Y-25885D01*
X48944Y-25871D01*
X48831Y-25756D01*
X48681Y-25694D01*
X48520Y-25694D01*
X48371Y-25756D01*
X48321Y-25805D01*
X48174Y-25805D01*
X48174Y-25476D01*
X48136Y-25384D01*
X48120Y-25368D01*
X48120Y-25325D01*
X48120Y-25300D01*
X48120Y-25225D01*
X48120Y-25132D01*
X48136Y-25116D01*
X48174Y-25025D01*
X48174Y-24926D01*
X48174Y-24476D01*
X48136Y-24384D01*
X48127Y-24375D01*
X48232Y-24270D01*
X48578Y-24270D01*
X48564Y-24284D01*
X48526Y-24376D01*
X48525Y-24438D01*
X48587Y-24500D01*
X48900Y-24500D01*
X48950Y-24500D01*
X49050Y-24500D01*
X49100Y-24500D01*
X49413Y-24500D01*
X49475Y-24438D01*
X49474Y-24376D01*
X49465Y-24356D01*
X49480Y-24356D01*
X49545Y-24328D01*
X49526Y-24376D01*
X49525Y-24438D01*
X49587Y-24500D01*
X49900Y-24500D01*
X49950Y-24500D01*
X50050Y-24500D01*
X50100Y-24500D01*
X50413Y-24500D01*
X50475Y-24438D01*
X50474Y-24376D01*
X50445Y-24307D01*
X50479Y-24294D01*
X50503Y-24270D01*
X50578Y-24270D01*
X50564Y-24284D01*
X50526Y-24376D01*
X50525Y-24438D01*
X50587Y-24500D01*
X50900Y-24500D01*
X50950Y-24500D01*
X51050Y-24500D01*
X51100Y-24500D01*
X51413Y-24500D01*
X51475Y-24438D01*
X51474Y-24376D01*
X51436Y-24284D01*
X51422Y-24270D01*
X52328Y-24270D01*
X52314Y-24284D01*
X52276Y-24376D01*
X52275Y-24438D01*
X52337Y-24500D01*
X52650Y-24500D01*
X52700Y-24500D01*
X52800Y-24500D01*
X52800Y-24600D01*
X52800Y-24650D01*
X52800Y-24863D01*
X52862Y-24925D01*
X52926Y-24924D01*
X52980Y-24924D01*
X52980Y-25200D01*
X52980Y-25328D01*
X52966Y-25314D01*
X52874Y-25276D01*
X52812Y-25275D01*
X52750Y-25337D01*
X52750Y-25650D01*
X52750Y-25700D01*
X52750Y-25800D01*
X52750Y-25850D01*
X52750Y-26163D01*
X52812Y-26225D01*
X52874Y-26224D01*
X52966Y-26186D01*
X52980Y-26172D01*
X52980Y-27078D01*
X52966Y-27064D01*
X52874Y-27026D01*
X52812Y-27025D01*
X52750Y-27087D01*
X52750Y-27400D01*
X52750Y-27450D01*
X52750Y-27550D01*
X52700Y-27550D01*
X52700Y-24863D01*
X52700Y-24600D01*
X52337Y-24600D01*
X52275Y-24662D01*
X52276Y-24724D01*
X52282Y-24740D01*
X52231Y-24719D01*
X52070Y-24719D01*
X51921Y-24781D01*
X51806Y-24894D01*
X51744Y-25044D01*
X51744Y-25205D01*
X51806Y-25354D01*
X51855Y-25403D01*
X51855Y-25595D01*
X51831Y-25619D01*
X51769Y-25769D01*
X51769Y-25930D01*
X51831Y-26079D01*
X51944Y-26194D01*
X52094Y-26256D01*
X52255Y-26256D01*
X52404Y-26194D01*
X52423Y-26175D01*
X52434Y-26186D01*
X52526Y-26224D01*
X52588Y-26225D01*
X52650Y-26163D01*
X52650Y-25850D01*
X52650Y-25800D01*
X52650Y-25700D01*
X52650Y-25650D01*
X52650Y-25337D01*
X52588Y-25275D01*
X52527Y-25275D01*
X52556Y-25206D01*
X52556Y-25045D01*
X52505Y-24924D01*
X52574Y-24924D01*
X52638Y-24925D01*
X52700Y-24863D01*
X52700Y-27550D01*
X52650Y-27550D01*
X52650Y-27450D01*
X52650Y-27087D01*
X52588Y-27025D01*
X52526Y-27026D01*
X52434Y-27064D01*
X52364Y-27134D01*
X52326Y-27225D01*
X52326Y-27324D01*
X52325Y-27388D01*
X52387Y-27450D01*
X52650Y-27450D01*
X52650Y-27550D01*
X52600Y-27550D01*
X52387Y-27550D01*
X52325Y-27612D01*
X52326Y-27676D01*
X52326Y-27775D01*
X52351Y-27835D01*
X52300Y-27887D01*
X52300Y-28150D01*
X52663Y-28150D01*
X52725Y-28088D01*
X52724Y-28026D01*
X52703Y-27975D01*
X52800Y-27975D01*
X52800Y-27963D01*
X52812Y-27975D01*
X52874Y-27974D01*
X52955Y-27940D01*
X52944Y-27969D01*
X52944Y-28130D01*
X53006Y-28279D01*
X53012Y-28285D01*
G54D10*
G36*
X55030Y-29338D02*
X54999Y-29326D01*
X54962Y-29325D01*
X54900Y-29387D01*
X54900Y-29700D01*
X54900Y-29750D01*
X54900Y-29850D01*
X54800Y-29850D01*
X54800Y-29750D01*
X54800Y-29700D01*
X54800Y-29387D01*
X54738Y-29325D01*
X54701Y-29326D01*
X54609Y-29364D01*
X54539Y-29434D01*
X54501Y-29525D01*
X54501Y-29624D01*
X54500Y-29688D01*
X54512Y-29700D01*
X54500Y-29700D01*
X54500Y-29782D01*
X54244Y-29526D01*
X54263Y-29523D01*
X54359Y-29459D01*
X55030Y-28787D01*
X55030Y-29338D01*
X55030Y-29338D01*
G37*
G54D25*
X55030Y-29338D02*
X54999Y-29326D01*
X54962Y-29325D01*
X54900Y-29387D01*
X54900Y-29700D01*
X54900Y-29750D01*
X54900Y-29850D01*
X54800Y-29850D01*
X54800Y-29750D01*
X54800Y-29700D01*
X54800Y-29387D01*
X54738Y-29325D01*
X54701Y-29326D01*
X54609Y-29364D01*
X54539Y-29434D01*
X54501Y-29525D01*
X54501Y-29624D01*
X54500Y-29688D01*
X54512Y-29700D01*
X54500Y-29700D01*
X54500Y-29782D01*
X54244Y-29526D01*
X54263Y-29523D01*
X54359Y-29459D01*
X55030Y-28787D01*
X55030Y-29338D01*
G54D10*
G36*
X55750Y-25950D02*
X55650Y-25950D01*
X55650Y-25850D01*
X55750Y-25850D01*
X55750Y-25950D01*
X55750Y-25950D01*
G37*
G54D25*
X55750Y-25950D02*
X55650Y-25950D01*
X55650Y-25850D01*
X55750Y-25850D01*
X55750Y-25950D01*
G54D10*
G36*
X60454Y-25083D02*
X60439Y-25099D01*
X60401Y-25190D01*
X60401Y-25289D01*
X60401Y-25449D01*
X60401Y-25450D01*
X60401Y-25549D01*
X60401Y-25700D01*
X60401Y-25709D01*
X60401Y-25799D01*
X60401Y-25959D01*
X60401Y-25960D01*
X60401Y-25977D01*
X59874Y-25450D01*
X59874Y-25126D01*
X59836Y-25034D01*
X59766Y-24964D01*
X59675Y-24926D01*
X59576Y-24926D01*
X59326Y-24926D01*
X59234Y-24964D01*
X59200Y-24998D01*
X59166Y-24964D01*
X59075Y-24926D01*
X58976Y-24926D01*
X58726Y-24926D01*
X58634Y-24964D01*
X58564Y-25034D01*
X58534Y-25105D01*
X58472Y-25105D01*
X56870Y-23502D01*
X56870Y-23353D01*
X56969Y-23256D01*
X57031Y-23106D01*
X57031Y-22945D01*
X56969Y-22796D01*
X56856Y-22681D01*
X56706Y-22619D01*
X56545Y-22619D01*
X56396Y-22681D01*
X56334Y-22741D01*
X56281Y-22719D01*
X56120Y-22719D01*
X55971Y-22781D01*
X55923Y-22827D01*
X55781Y-22769D01*
X55620Y-22769D01*
X55471Y-22831D01*
X55356Y-22944D01*
X55330Y-23005D01*
X53056Y-23005D01*
X53056Y-22870D01*
X52994Y-22721D01*
X52881Y-22606D01*
X52731Y-22544D01*
X52570Y-22544D01*
X52469Y-22586D01*
X52474Y-22574D01*
X52475Y-22512D01*
X52413Y-22450D01*
X52100Y-22450D01*
X52050Y-22450D01*
X51950Y-22450D01*
X51900Y-22450D01*
X51587Y-22450D01*
X51525Y-22512D01*
X51526Y-22574D01*
X51564Y-22666D01*
X51598Y-22700D01*
X51564Y-22734D01*
X51545Y-22777D01*
X51484Y-22716D01*
X51388Y-22652D01*
X51275Y-22629D01*
X51270Y-22630D01*
X50906Y-22630D01*
X50906Y-22570D01*
X50883Y-22515D01*
X50919Y-22481D01*
X50981Y-22331D01*
X50981Y-22170D01*
X50948Y-22091D01*
X51134Y-22082D01*
X51281Y-22022D01*
X51308Y-21928D01*
X51035Y-21656D01*
X51000Y-21621D01*
X50929Y-21550D01*
X51000Y-21479D01*
X51071Y-21550D01*
X51106Y-21585D01*
X51378Y-21858D01*
X51472Y-21831D01*
X51495Y-21765D01*
X51535Y-21861D01*
X51689Y-22015D01*
X51720Y-22027D01*
X51634Y-22064D01*
X51564Y-22134D01*
X51526Y-22226D01*
X51525Y-22288D01*
X51587Y-22350D01*
X51900Y-22350D01*
X51950Y-22350D01*
X52050Y-22350D01*
X52100Y-22350D01*
X52413Y-22350D01*
X52475Y-22288D01*
X52474Y-22226D01*
X52436Y-22134D01*
X52366Y-22064D01*
X52279Y-22027D01*
X52311Y-22015D01*
X52465Y-21861D01*
X52500Y-21776D01*
X52535Y-21861D01*
X52689Y-22015D01*
X52891Y-22099D01*
X53109Y-22099D01*
X53311Y-22015D01*
X53465Y-21861D01*
X53500Y-21776D01*
X53535Y-21861D01*
X53689Y-22015D01*
X53891Y-22099D01*
X54109Y-22099D01*
X54311Y-22015D01*
X54451Y-21875D01*
X54451Y-21899D01*
X54489Y-21991D01*
X54559Y-22061D01*
X54650Y-22099D01*
X54749Y-22099D01*
X55349Y-22099D01*
X55441Y-22061D01*
X55511Y-21991D01*
X55549Y-21900D01*
X55549Y-21875D01*
X55689Y-22015D01*
X55891Y-22099D01*
X56109Y-22099D01*
X56311Y-22015D01*
X56465Y-21861D01*
X56500Y-21776D01*
X56535Y-21861D01*
X56689Y-22015D01*
X56891Y-22099D01*
X57109Y-22099D01*
X57311Y-22015D01*
X57465Y-21861D01*
X57500Y-21776D01*
X57535Y-21861D01*
X57689Y-22015D01*
X57891Y-22099D01*
X58109Y-22099D01*
X58311Y-22015D01*
X58465Y-21861D01*
X58500Y-21776D01*
X58535Y-21861D01*
X58689Y-22015D01*
X58891Y-22099D01*
X59109Y-22099D01*
X59311Y-22015D01*
X59451Y-21875D01*
X59451Y-21899D01*
X59489Y-21991D01*
X59559Y-22061D01*
X59650Y-22099D01*
X59749Y-22099D01*
X60005Y-22099D01*
X60005Y-24000D01*
X60029Y-24123D01*
X60099Y-24226D01*
X60330Y-24457D01*
X60330Y-24470D01*
X60306Y-24494D01*
X60244Y-24644D01*
X60244Y-24805D01*
X60306Y-24954D01*
X60419Y-25069D01*
X60454Y-25083D01*
X60454Y-25083D01*
G37*
G54D25*
X60454Y-25083D02*
X60439Y-25099D01*
X60401Y-25190D01*
X60401Y-25289D01*
X60401Y-25449D01*
X60401Y-25450D01*
X60401Y-25549D01*
X60401Y-25700D01*
X60401Y-25709D01*
X60401Y-25799D01*
X60401Y-25959D01*
X60401Y-25960D01*
X60401Y-25977D01*
X59874Y-25450D01*
X59874Y-25126D01*
X59836Y-25034D01*
X59766Y-24964D01*
X59675Y-24926D01*
X59576Y-24926D01*
X59326Y-24926D01*
X59234Y-24964D01*
X59200Y-24998D01*
X59166Y-24964D01*
X59075Y-24926D01*
X58976Y-24926D01*
X58726Y-24926D01*
X58634Y-24964D01*
X58564Y-25034D01*
X58534Y-25105D01*
X58472Y-25105D01*
X56870Y-23502D01*
X56870Y-23353D01*
X56969Y-23256D01*
X57031Y-23106D01*
X57031Y-22945D01*
X56969Y-22796D01*
X56856Y-22681D01*
X56706Y-22619D01*
X56545Y-22619D01*
X56396Y-22681D01*
X56334Y-22741D01*
X56281Y-22719D01*
X56120Y-22719D01*
X55971Y-22781D01*
X55923Y-22827D01*
X55781Y-22769D01*
X55620Y-22769D01*
X55471Y-22831D01*
X55356Y-22944D01*
X55330Y-23005D01*
X53056Y-23005D01*
X53056Y-22870D01*
X52994Y-22721D01*
X52881Y-22606D01*
X52731Y-22544D01*
X52570Y-22544D01*
X52469Y-22586D01*
X52474Y-22574D01*
X52475Y-22512D01*
X52413Y-22450D01*
X52100Y-22450D01*
X52050Y-22450D01*
X51950Y-22450D01*
X51900Y-22450D01*
X51587Y-22450D01*
X51525Y-22512D01*
X51526Y-22574D01*
X51564Y-22666D01*
X51598Y-22700D01*
X51564Y-22734D01*
X51545Y-22777D01*
X51484Y-22716D01*
X51388Y-22652D01*
X51275Y-22629D01*
X51270Y-22630D01*
X50906Y-22630D01*
X50906Y-22570D01*
X50883Y-22515D01*
X50919Y-22481D01*
X50981Y-22331D01*
X50981Y-22170D01*
X50948Y-22091D01*
X51134Y-22082D01*
X51281Y-22022D01*
X51308Y-21928D01*
X51035Y-21656D01*
X51000Y-21621D01*
X50929Y-21550D01*
X51000Y-21479D01*
X51071Y-21550D01*
X51106Y-21585D01*
X51378Y-21858D01*
X51472Y-21831D01*
X51495Y-21765D01*
X51535Y-21861D01*
X51689Y-22015D01*
X51720Y-22027D01*
X51634Y-22064D01*
X51564Y-22134D01*
X51526Y-22226D01*
X51525Y-22288D01*
X51587Y-22350D01*
X51900Y-22350D01*
X51950Y-22350D01*
X52050Y-22350D01*
X52100Y-22350D01*
X52413Y-22350D01*
X52475Y-22288D01*
X52474Y-22226D01*
X52436Y-22134D01*
X52366Y-22064D01*
X52279Y-22027D01*
X52311Y-22015D01*
X52465Y-21861D01*
X52500Y-21776D01*
X52535Y-21861D01*
X52689Y-22015D01*
X52891Y-22099D01*
X53109Y-22099D01*
X53311Y-22015D01*
X53465Y-21861D01*
X53500Y-21776D01*
X53535Y-21861D01*
X53689Y-22015D01*
X53891Y-22099D01*
X54109Y-22099D01*
X54311Y-22015D01*
X54451Y-21875D01*
X54451Y-21899D01*
X54489Y-21991D01*
X54559Y-22061D01*
X54650Y-22099D01*
X54749Y-22099D01*
X55349Y-22099D01*
X55441Y-22061D01*
X55511Y-21991D01*
X55549Y-21900D01*
X55549Y-21875D01*
X55689Y-22015D01*
X55891Y-22099D01*
X56109Y-22099D01*
X56311Y-22015D01*
X56465Y-21861D01*
X56500Y-21776D01*
X56535Y-21861D01*
X56689Y-22015D01*
X56891Y-22099D01*
X57109Y-22099D01*
X57311Y-22015D01*
X57465Y-21861D01*
X57500Y-21776D01*
X57535Y-21861D01*
X57689Y-22015D01*
X57891Y-22099D01*
X58109Y-22099D01*
X58311Y-22015D01*
X58465Y-21861D01*
X58500Y-21776D01*
X58535Y-21861D01*
X58689Y-22015D01*
X58891Y-22099D01*
X59109Y-22099D01*
X59311Y-22015D01*
X59451Y-21875D01*
X59451Y-21899D01*
X59489Y-21991D01*
X59559Y-22061D01*
X59650Y-22099D01*
X59749Y-22099D01*
X60005Y-22099D01*
X60005Y-24000D01*
X60029Y-24123D01*
X60099Y-24226D01*
X60330Y-24457D01*
X60330Y-24470D01*
X60306Y-24494D01*
X60244Y-24644D01*
X60244Y-24805D01*
X60306Y-24954D01*
X60419Y-25069D01*
X60454Y-25083D01*
G54D10*
G36*
X67500Y-25736D02*
X67434Y-25764D01*
X67398Y-25800D01*
X66986Y-25800D01*
X67013Y-25789D01*
X67148Y-25655D01*
X67221Y-25480D01*
X67221Y-25290D01*
X67149Y-25115D01*
X67015Y-24980D01*
X66840Y-24907D01*
X66650Y-24907D01*
X66475Y-24979D01*
X66340Y-25113D01*
X66267Y-25288D01*
X66267Y-25478D01*
X66339Y-25653D01*
X66379Y-25694D01*
X66320Y-25694D01*
X66171Y-25756D01*
X66126Y-25800D01*
X65963Y-25800D01*
X65936Y-25734D01*
X65902Y-25700D01*
X65936Y-25666D01*
X65974Y-25575D01*
X65974Y-25476D01*
X65975Y-25412D01*
X65913Y-25350D01*
X65700Y-25350D01*
X65650Y-25350D01*
X65550Y-25350D01*
X65550Y-25250D01*
X65650Y-25250D01*
X65700Y-25250D01*
X65913Y-25250D01*
X65975Y-25188D01*
X65974Y-25124D01*
X65974Y-25025D01*
X65936Y-24934D01*
X65902Y-24900D01*
X67398Y-24900D01*
X67364Y-24934D01*
X67326Y-25025D01*
X67326Y-25124D01*
X67326Y-25374D01*
X67364Y-25466D01*
X67434Y-25536D01*
X67500Y-25563D01*
X67500Y-25736D01*
X67500Y-25736D01*
G37*
G54D25*
X67500Y-25736D02*
X67434Y-25764D01*
X67398Y-25800D01*
X66986Y-25800D01*
X67013Y-25789D01*
X67148Y-25655D01*
X67221Y-25480D01*
X67221Y-25290D01*
X67149Y-25115D01*
X67015Y-24980D01*
X66840Y-24907D01*
X66650Y-24907D01*
X66475Y-24979D01*
X66340Y-25113D01*
X66267Y-25288D01*
X66267Y-25478D01*
X66339Y-25653D01*
X66379Y-25694D01*
X66320Y-25694D01*
X66171Y-25756D01*
X66126Y-25800D01*
X65963Y-25800D01*
X65936Y-25734D01*
X65902Y-25700D01*
X65936Y-25666D01*
X65974Y-25575D01*
X65974Y-25476D01*
X65975Y-25412D01*
X65913Y-25350D01*
X65700Y-25350D01*
X65650Y-25350D01*
X65550Y-25350D01*
X65550Y-25250D01*
X65650Y-25250D01*
X65700Y-25250D01*
X65913Y-25250D01*
X65975Y-25188D01*
X65974Y-25124D01*
X65974Y-25025D01*
X65936Y-24934D01*
X65902Y-24900D01*
X67398Y-24900D01*
X67364Y-24934D01*
X67326Y-25025D01*
X67326Y-25124D01*
X67326Y-25374D01*
X67364Y-25466D01*
X67434Y-25536D01*
X67500Y-25563D01*
X67500Y-25736D01*
G54D10*
G36*
X69950Y-32450D02*
X69718Y-32450D01*
X69718Y-24810D01*
X69718Y-21710D01*
X69527Y-21710D01*
X69549Y-21659D01*
X69549Y-21441D01*
X69465Y-21239D01*
X69311Y-21085D01*
X69109Y-21001D01*
X68891Y-21001D01*
X68689Y-21085D01*
X68535Y-21239D01*
X68500Y-21323D01*
X68465Y-21239D01*
X68311Y-21085D01*
X68109Y-21001D01*
X67891Y-21001D01*
X67689Y-21085D01*
X67535Y-21239D01*
X67500Y-21323D01*
X67465Y-21239D01*
X67311Y-21085D01*
X67109Y-21001D01*
X66891Y-21001D01*
X66689Y-21085D01*
X66535Y-21239D01*
X66500Y-21323D01*
X66465Y-21239D01*
X66311Y-21085D01*
X66109Y-21001D01*
X65891Y-21001D01*
X65689Y-21085D01*
X65549Y-21225D01*
X65549Y-21201D01*
X65511Y-21109D01*
X65441Y-21039D01*
X65350Y-21001D01*
X65251Y-21001D01*
X64651Y-21001D01*
X64559Y-21039D01*
X64489Y-21109D01*
X64451Y-21200D01*
X64451Y-21225D01*
X64311Y-21085D01*
X64109Y-21001D01*
X63891Y-21001D01*
X63689Y-21085D01*
X63535Y-21239D01*
X63500Y-21323D01*
X63465Y-21239D01*
X63311Y-21085D01*
X63109Y-21001D01*
X62891Y-21001D01*
X62689Y-21085D01*
X62535Y-21239D01*
X62500Y-21323D01*
X62465Y-21239D01*
X62311Y-21085D01*
X62109Y-21001D01*
X61891Y-21001D01*
X61689Y-21085D01*
X61535Y-21239D01*
X61497Y-21330D01*
X61472Y-21269D01*
X61378Y-21242D01*
X61308Y-21312D01*
X61308Y-21172D01*
X61281Y-21078D01*
X61079Y-21007D01*
X60866Y-21018D01*
X60719Y-21078D01*
X60692Y-21172D01*
X61000Y-21479D01*
X61308Y-21172D01*
X61308Y-21312D01*
X61071Y-21550D01*
X61378Y-21858D01*
X61472Y-21831D01*
X61495Y-21765D01*
X61535Y-21861D01*
X61689Y-22015D01*
X61891Y-22099D01*
X62109Y-22099D01*
X62311Y-22015D01*
X62465Y-21861D01*
X62500Y-21776D01*
X62535Y-21861D01*
X62689Y-22015D01*
X62891Y-22099D01*
X63109Y-22099D01*
X63311Y-22015D01*
X63465Y-21861D01*
X63500Y-21776D01*
X63535Y-21861D01*
X63583Y-21909D01*
X63583Y-24810D01*
X64448Y-24810D01*
X64456Y-24829D01*
X64569Y-24944D01*
X64646Y-24976D01*
X64636Y-25000D01*
X64400Y-25000D01*
X64285Y-25023D01*
X64188Y-25088D01*
X64187Y-25088D01*
X64187Y-25089D01*
X64165Y-25110D01*
X64161Y-25099D01*
X64091Y-25029D01*
X64000Y-24991D01*
X63901Y-24991D01*
X63401Y-24991D01*
X63330Y-25020D01*
X63243Y-25020D01*
X63181Y-24994D01*
X63020Y-24994D01*
X62871Y-25056D01*
X62756Y-25169D01*
X62694Y-25319D01*
X62694Y-25480D01*
X62756Y-25629D01*
X62869Y-25744D01*
X63019Y-25806D01*
X63180Y-25806D01*
X63201Y-25797D01*
X63201Y-25949D01*
X63203Y-25955D01*
X63201Y-25961D01*
X63200Y-25988D01*
X63229Y-26017D01*
X63239Y-26041D01*
X63283Y-26085D01*
X63239Y-26129D01*
X63228Y-26154D01*
X63131Y-26056D01*
X62981Y-25994D01*
X62820Y-25994D01*
X62671Y-26056D01*
X62556Y-26169D01*
X62500Y-26304D01*
X62500Y-24974D01*
X62544Y-24931D01*
X62606Y-24781D01*
X62606Y-24620D01*
X62544Y-24471D01*
X62431Y-24356D01*
X62281Y-24294D01*
X62120Y-24294D01*
X61971Y-24356D01*
X61856Y-24469D01*
X61794Y-24619D01*
X61794Y-24780D01*
X61856Y-24929D01*
X61900Y-24973D01*
X61900Y-26900D01*
X61900Y-27476D01*
X61796Y-27580D01*
X61399Y-27580D01*
X61399Y-27501D01*
X61398Y-27500D01*
X61399Y-27500D01*
X61399Y-27401D01*
X61399Y-27241D01*
X61398Y-27240D01*
X61399Y-27239D01*
X61400Y-27212D01*
X61377Y-27189D01*
X61361Y-27149D01*
X61327Y-27115D01*
X61361Y-27081D01*
X61385Y-27022D01*
X61400Y-27008D01*
X61399Y-26990D01*
X61399Y-26981D01*
X61399Y-26891D01*
X61399Y-26731D01*
X61398Y-26730D01*
X61399Y-26730D01*
X61399Y-26631D01*
X61399Y-26480D01*
X61399Y-26471D01*
X61399Y-26381D01*
X61399Y-26221D01*
X61398Y-26220D01*
X61399Y-26220D01*
X61399Y-26121D01*
X61399Y-25961D01*
X61398Y-25960D01*
X61399Y-25960D01*
X61399Y-25861D01*
X61399Y-25710D01*
X61399Y-25701D01*
X61399Y-25611D01*
X61399Y-25451D01*
X61398Y-25450D01*
X61399Y-25450D01*
X61399Y-25351D01*
X61399Y-25191D01*
X61361Y-25099D01*
X61308Y-25046D01*
X61291Y-25029D01*
X61200Y-24991D01*
X61101Y-24991D01*
X60958Y-24991D01*
X60994Y-24956D01*
X61056Y-24806D01*
X61056Y-24645D01*
X60994Y-24496D01*
X60970Y-24471D01*
X60970Y-24325D01*
X60946Y-24203D01*
X60945Y-24202D01*
X60922Y-24168D01*
X60876Y-24099D01*
X60876Y-24098D01*
X60645Y-23867D01*
X60645Y-21986D01*
X60675Y-22016D01*
X60707Y-21983D01*
X60719Y-22022D01*
X60921Y-22093D01*
X61134Y-22082D01*
X61281Y-22022D01*
X61308Y-21928D01*
X61035Y-21656D01*
X61000Y-21621D01*
X60929Y-21550D01*
X60894Y-21515D01*
X60622Y-21242D01*
X60549Y-21262D01*
X60549Y-21201D01*
X60511Y-21109D01*
X60441Y-21039D01*
X60350Y-21001D01*
X60251Y-21001D01*
X59903Y-21001D01*
X59776Y-20874D01*
X59673Y-20804D01*
X59550Y-20780D01*
X50125Y-20780D01*
X49875Y-20780D01*
X40400Y-20780D01*
X40278Y-20804D01*
X40276Y-20804D01*
X40276Y-20805D01*
X40173Y-20874D01*
X40046Y-21001D01*
X39651Y-21001D01*
X39559Y-21039D01*
X39489Y-21109D01*
X39451Y-21200D01*
X39451Y-21299D01*
X39451Y-21899D01*
X39489Y-21991D01*
X39559Y-22061D01*
X39650Y-22099D01*
X39749Y-22099D01*
X40349Y-22099D01*
X40441Y-22061D01*
X40511Y-21991D01*
X40549Y-21900D01*
X40549Y-21837D01*
X40622Y-21858D01*
X40894Y-21585D01*
X40929Y-21550D01*
X41000Y-21479D01*
X41071Y-21550D01*
X41106Y-21585D01*
X41378Y-21858D01*
X41472Y-21831D01*
X41495Y-21765D01*
X41535Y-21861D01*
X41689Y-22015D01*
X41891Y-22099D01*
X42109Y-22099D01*
X42311Y-22015D01*
X42465Y-21861D01*
X42500Y-21776D01*
X42535Y-21861D01*
X42689Y-22015D01*
X42891Y-22099D01*
X43109Y-22099D01*
X43311Y-22015D01*
X43465Y-21861D01*
X43500Y-21776D01*
X43535Y-21861D01*
X43689Y-22015D01*
X43891Y-22099D01*
X44109Y-22099D01*
X44311Y-22015D01*
X44451Y-21875D01*
X44451Y-21899D01*
X44489Y-21991D01*
X44559Y-22061D01*
X44650Y-22099D01*
X44749Y-22099D01*
X45349Y-22099D01*
X45441Y-22061D01*
X45511Y-21991D01*
X45549Y-21900D01*
X45549Y-21875D01*
X45689Y-22015D01*
X45891Y-22099D01*
X46109Y-22099D01*
X46194Y-22063D01*
X45891Y-22366D01*
X45827Y-22462D01*
X45804Y-22575D01*
X45805Y-22579D01*
X45805Y-22718D01*
X45800Y-22723D01*
X45766Y-22689D01*
X45675Y-22651D01*
X45576Y-22651D01*
X45326Y-22651D01*
X45234Y-22689D01*
X45164Y-22759D01*
X45126Y-22850D01*
X45126Y-22949D01*
X45126Y-22966D01*
X45094Y-23044D01*
X45094Y-23205D01*
X45126Y-23281D01*
X45126Y-23399D01*
X45164Y-23491D01*
X45234Y-23561D01*
X45325Y-23599D01*
X45424Y-23599D01*
X45674Y-23599D01*
X45766Y-23561D01*
X45800Y-23527D01*
X45834Y-23561D01*
X45868Y-23575D01*
X45827Y-23637D01*
X45824Y-23648D01*
X45800Y-23673D01*
X45766Y-23639D01*
X45675Y-23601D01*
X45576Y-23601D01*
X45326Y-23601D01*
X45234Y-23639D01*
X45164Y-23709D01*
X45126Y-23800D01*
X45126Y-23899D01*
X45126Y-23937D01*
X45082Y-24044D01*
X45082Y-24205D01*
X45126Y-24310D01*
X45126Y-24330D01*
X44723Y-24330D01*
X44470Y-24077D01*
X44470Y-23400D01*
X44469Y-23399D01*
X44470Y-23399D01*
X44465Y-23377D01*
X44448Y-23287D01*
X44447Y-23286D01*
X44384Y-23191D01*
X44381Y-23189D01*
X44109Y-22916D01*
X44013Y-22852D01*
X43900Y-22829D01*
X43895Y-22830D01*
X43325Y-22830D01*
X43212Y-22852D01*
X43116Y-22916D01*
X43114Y-22918D01*
X43025Y-23007D01*
X43025Y-22896D01*
X42945Y-22703D01*
X42798Y-22555D01*
X42605Y-22475D01*
X42396Y-22475D01*
X42203Y-22555D01*
X42055Y-22702D01*
X42053Y-22705D01*
X41308Y-22705D01*
X41308Y-21928D01*
X41000Y-21621D01*
X40692Y-21928D01*
X40719Y-22022D01*
X40921Y-22093D01*
X41134Y-22082D01*
X41281Y-22022D01*
X41308Y-21928D01*
X41308Y-22705D01*
X39945Y-22705D01*
X39945Y-22703D01*
X39798Y-22555D01*
X39605Y-22475D01*
X39396Y-22475D01*
X39203Y-22555D01*
X39055Y-22702D01*
X38975Y-22895D01*
X38975Y-23104D01*
X39055Y-23297D01*
X39202Y-23445D01*
X39395Y-23525D01*
X39604Y-23525D01*
X39797Y-23445D01*
X39945Y-23298D01*
X39946Y-23295D01*
X42054Y-23295D01*
X42055Y-23297D01*
X42202Y-23445D01*
X42225Y-23454D01*
X42227Y-23463D01*
X42291Y-23559D01*
X42639Y-23906D01*
X42641Y-23909D01*
X42726Y-23965D01*
X42726Y-23974D01*
X42764Y-24066D01*
X42834Y-24136D01*
X42925Y-24174D01*
X43024Y-24174D01*
X43274Y-24174D01*
X43366Y-24136D01*
X43380Y-24122D01*
X43380Y-24278D01*
X43366Y-24264D01*
X43274Y-24226D01*
X43212Y-24225D01*
X43150Y-24287D01*
X43150Y-24600D01*
X43150Y-24650D01*
X43150Y-24750D01*
X43150Y-24800D01*
X43150Y-25113D01*
X43197Y-25160D01*
X43180Y-25250D01*
X43180Y-25251D01*
X43176Y-25251D01*
X43084Y-25289D01*
X43050Y-25323D01*
X43050Y-25113D01*
X43050Y-24800D01*
X43050Y-24750D01*
X43050Y-24650D01*
X43050Y-24600D01*
X43050Y-24287D01*
X42988Y-24225D01*
X42926Y-24226D01*
X42834Y-24264D01*
X42764Y-24334D01*
X42726Y-24425D01*
X42726Y-24524D01*
X42725Y-24533D01*
X42574Y-24481D01*
X42370Y-24492D01*
X42233Y-24548D01*
X42210Y-24639D01*
X42465Y-24894D01*
X42500Y-24929D01*
X42571Y-25000D01*
X42606Y-25035D01*
X42861Y-25290D01*
X42952Y-25267D01*
X42983Y-25174D01*
X42988Y-25175D01*
X43050Y-25113D01*
X43050Y-25323D01*
X43014Y-25359D01*
X42976Y-25450D01*
X42976Y-25549D01*
X42976Y-26549D01*
X43014Y-26641D01*
X43084Y-26711D01*
X43175Y-26749D01*
X43180Y-26749D01*
X43180Y-26751D01*
X43176Y-26751D01*
X43084Y-26789D01*
X43014Y-26859D01*
X42976Y-26950D01*
X42976Y-27049D01*
X42976Y-28027D01*
X42945Y-27953D01*
X42798Y-27805D01*
X42790Y-27801D01*
X42790Y-25361D01*
X42500Y-25071D01*
X42429Y-25142D01*
X42429Y-25000D01*
X42139Y-24710D01*
X42048Y-24733D01*
X41981Y-24926D01*
X41992Y-25130D01*
X42048Y-25267D01*
X42139Y-25290D01*
X42429Y-25000D01*
X42429Y-25142D01*
X42210Y-25361D01*
X42233Y-25452D01*
X42426Y-25519D01*
X42630Y-25508D01*
X42767Y-25452D01*
X42790Y-25361D01*
X42790Y-27801D01*
X42605Y-27725D01*
X42396Y-27725D01*
X42203Y-27805D01*
X42055Y-27952D01*
X42053Y-27955D01*
X40019Y-27955D01*
X40019Y-25074D01*
X40008Y-24870D01*
X39952Y-24733D01*
X39861Y-24710D01*
X39790Y-24781D01*
X39790Y-24639D01*
X39767Y-24548D01*
X39574Y-24481D01*
X39370Y-24492D01*
X39233Y-24548D01*
X39210Y-24639D01*
X39500Y-24929D01*
X39790Y-24639D01*
X39790Y-24781D01*
X39571Y-25000D01*
X39861Y-25290D01*
X39952Y-25267D01*
X40019Y-25074D01*
X40019Y-27955D01*
X39945Y-27955D01*
X39945Y-27953D01*
X39798Y-27805D01*
X39790Y-27801D01*
X39790Y-25361D01*
X39500Y-25071D01*
X39429Y-25142D01*
X39429Y-25000D01*
X39139Y-24710D01*
X39048Y-24733D01*
X38981Y-24926D01*
X38992Y-25130D01*
X39048Y-25267D01*
X39139Y-25290D01*
X39429Y-25000D01*
X39429Y-25142D01*
X39210Y-25361D01*
X39233Y-25452D01*
X39426Y-25519D01*
X39630Y-25508D01*
X39767Y-25452D01*
X39790Y-25361D01*
X39790Y-27801D01*
X39605Y-27725D01*
X39396Y-27725D01*
X39203Y-27805D01*
X39055Y-27952D01*
X38975Y-28145D01*
X38975Y-28354D01*
X39055Y-28547D01*
X39202Y-28695D01*
X39395Y-28775D01*
X39604Y-28775D01*
X39797Y-28695D01*
X39945Y-28548D01*
X39946Y-28545D01*
X42054Y-28545D01*
X42055Y-28547D01*
X42202Y-28695D01*
X42395Y-28775D01*
X42604Y-28775D01*
X42606Y-28773D01*
X42726Y-28893D01*
X42726Y-28924D01*
X42726Y-29374D01*
X42764Y-29466D01*
X42805Y-29507D01*
X42805Y-29620D01*
X42804Y-29625D01*
X42827Y-29738D01*
X42891Y-29834D01*
X43026Y-29969D01*
X42995Y-29969D01*
X42953Y-29986D01*
X42952Y-29983D01*
X42861Y-29960D01*
X42790Y-30031D01*
X42790Y-29889D01*
X42767Y-29798D01*
X42574Y-29731D01*
X42370Y-29742D01*
X42233Y-29798D01*
X42210Y-29889D01*
X42500Y-30179D01*
X42790Y-29889D01*
X42790Y-30031D01*
X42606Y-30215D01*
X42571Y-30250D01*
X42500Y-30321D01*
X42429Y-30250D01*
X42394Y-30215D01*
X42139Y-29960D01*
X42048Y-29983D01*
X42029Y-30034D01*
X41931Y-29994D01*
X41770Y-29994D01*
X41621Y-30056D01*
X41506Y-30169D01*
X41444Y-30319D01*
X41444Y-30480D01*
X41506Y-30629D01*
X41619Y-30744D01*
X41769Y-30806D01*
X41838Y-30806D01*
X41989Y-30956D01*
X41991Y-30959D01*
X42054Y-31001D01*
X41891Y-31001D01*
X41689Y-31085D01*
X41535Y-31239D01*
X41500Y-31323D01*
X41465Y-31239D01*
X41311Y-31085D01*
X41109Y-31001D01*
X40891Y-31001D01*
X40689Y-31085D01*
X40535Y-31239D01*
X40500Y-31323D01*
X40465Y-31239D01*
X40311Y-31085D01*
X40109Y-31001D01*
X40019Y-31001D01*
X40019Y-30324D01*
X40008Y-30120D01*
X39952Y-29983D01*
X39861Y-29960D01*
X39790Y-30031D01*
X39790Y-29889D01*
X39767Y-29798D01*
X39574Y-29731D01*
X39370Y-29742D01*
X39233Y-29798D01*
X39210Y-29889D01*
X39500Y-30179D01*
X39790Y-29889D01*
X39790Y-30031D01*
X39571Y-30250D01*
X39861Y-30540D01*
X39952Y-30517D01*
X40019Y-30324D01*
X40019Y-31001D01*
X39891Y-31001D01*
X39790Y-31043D01*
X39790Y-30611D01*
X39500Y-30321D01*
X39429Y-30392D01*
X39429Y-30250D01*
X39139Y-29960D01*
X39048Y-29983D01*
X38981Y-30176D01*
X38992Y-30380D01*
X39048Y-30517D01*
X39139Y-30540D01*
X39429Y-30250D01*
X39429Y-30392D01*
X39210Y-30611D01*
X39233Y-30702D01*
X39426Y-30769D01*
X39630Y-30758D01*
X39767Y-30702D01*
X39790Y-30611D01*
X39790Y-31043D01*
X39689Y-31085D01*
X39535Y-31239D01*
X39451Y-31441D01*
X39451Y-31659D01*
X39535Y-31861D01*
X39689Y-32015D01*
X39891Y-32099D01*
X40109Y-32099D01*
X40311Y-32015D01*
X40465Y-31861D01*
X40500Y-31776D01*
X40535Y-31861D01*
X40689Y-32015D01*
X40891Y-32099D01*
X41109Y-32099D01*
X41311Y-32015D01*
X41465Y-31861D01*
X41500Y-31776D01*
X41535Y-31861D01*
X41689Y-32015D01*
X41891Y-32099D01*
X42109Y-32099D01*
X42311Y-32015D01*
X42465Y-31861D01*
X42500Y-31776D01*
X42535Y-31861D01*
X42689Y-32015D01*
X42891Y-32099D01*
X43109Y-32099D01*
X43311Y-32015D01*
X43451Y-31875D01*
X43451Y-31899D01*
X43489Y-31991D01*
X43559Y-32061D01*
X43650Y-32099D01*
X43749Y-32099D01*
X44349Y-32099D01*
X44441Y-32061D01*
X44511Y-31991D01*
X44549Y-31900D01*
X44549Y-31875D01*
X44689Y-32015D01*
X44891Y-32099D01*
X45109Y-32099D01*
X45311Y-32015D01*
X45465Y-31861D01*
X45500Y-31776D01*
X45535Y-31861D01*
X45689Y-32015D01*
X45891Y-32099D01*
X46109Y-32099D01*
X46311Y-32015D01*
X46465Y-31861D01*
X46500Y-31776D01*
X46535Y-31861D01*
X46689Y-32015D01*
X46891Y-32099D01*
X47109Y-32099D01*
X47311Y-32015D01*
X47465Y-31861D01*
X47502Y-31769D01*
X47528Y-31831D01*
X47622Y-31858D01*
X47929Y-31550D01*
X47622Y-31242D01*
X47528Y-31269D01*
X47504Y-31334D01*
X47465Y-31239D01*
X47311Y-31085D01*
X47109Y-31001D01*
X46891Y-31001D01*
X46689Y-31085D01*
X46535Y-31239D01*
X46500Y-31323D01*
X46465Y-31239D01*
X46311Y-31085D01*
X46109Y-31001D01*
X45891Y-31001D01*
X45689Y-31085D01*
X45535Y-31239D01*
X45500Y-31323D01*
X45465Y-31239D01*
X45311Y-31085D01*
X45109Y-31001D01*
X44891Y-31001D01*
X44689Y-31085D01*
X44549Y-31225D01*
X44549Y-31201D01*
X44511Y-31109D01*
X44441Y-31039D01*
X44350Y-31001D01*
X44251Y-31001D01*
X43651Y-31001D01*
X43559Y-31039D01*
X43489Y-31109D01*
X43451Y-31200D01*
X43451Y-31225D01*
X43311Y-31085D01*
X43109Y-31001D01*
X42891Y-31001D01*
X42689Y-31085D01*
X42535Y-31239D01*
X42500Y-31323D01*
X42465Y-31239D01*
X42311Y-31085D01*
X42214Y-31045D01*
X42695Y-31045D01*
X42700Y-31046D01*
X42700Y-31045D01*
X42813Y-31023D01*
X42909Y-30959D01*
X43086Y-30781D01*
X43155Y-30781D01*
X43304Y-30719D01*
X43419Y-30606D01*
X43481Y-30456D01*
X43481Y-30356D01*
X43550Y-30370D01*
X45295Y-30370D01*
X45344Y-30419D01*
X45494Y-30481D01*
X45655Y-30481D01*
X45804Y-30419D01*
X45919Y-30306D01*
X45981Y-30156D01*
X45981Y-29995D01*
X45919Y-29846D01*
X45806Y-29731D01*
X45656Y-29669D01*
X45495Y-29669D01*
X45346Y-29731D01*
X45296Y-29780D01*
X43672Y-29780D01*
X43397Y-29504D01*
X43400Y-29502D01*
X43434Y-29536D01*
X43525Y-29574D01*
X43624Y-29574D01*
X43874Y-29574D01*
X43966Y-29536D01*
X44036Y-29466D01*
X44074Y-29375D01*
X44074Y-29276D01*
X44074Y-28826D01*
X44036Y-28734D01*
X44020Y-28718D01*
X44020Y-28425D01*
X44019Y-28424D01*
X43996Y-28303D01*
X43995Y-28301D01*
X43927Y-28199D01*
X43986Y-28141D01*
X44000Y-28107D01*
X44014Y-28141D01*
X44084Y-28211D01*
X44175Y-28249D01*
X44274Y-28249D01*
X44824Y-28249D01*
X44916Y-28211D01*
X44986Y-28141D01*
X45000Y-28107D01*
X45014Y-28141D01*
X45084Y-28211D01*
X45175Y-28249D01*
X45205Y-28249D01*
X45205Y-28620D01*
X45204Y-28625D01*
X45227Y-28738D01*
X45291Y-28834D01*
X45864Y-29406D01*
X45866Y-29409D01*
X45962Y-29473D01*
X46075Y-29495D01*
X48445Y-29495D01*
X48450Y-29496D01*
X48450Y-29495D01*
X48563Y-29473D01*
X48659Y-29409D01*
X49497Y-28570D01*
X50120Y-28570D01*
X50125Y-28571D01*
X50125Y-28570D01*
X50238Y-28548D01*
X50334Y-28484D01*
X50525Y-28292D01*
X50525Y-28300D01*
X50537Y-28300D01*
X50525Y-28312D01*
X50526Y-28374D01*
X50564Y-28466D01*
X50598Y-28500D01*
X50564Y-28534D01*
X50526Y-28625D01*
X50526Y-28724D01*
X50526Y-28974D01*
X50564Y-29066D01*
X50634Y-29136D01*
X50682Y-29156D01*
X50769Y-29244D01*
X50795Y-29255D01*
X49175Y-29255D01*
X49061Y-29277D01*
X49023Y-29303D01*
X48966Y-29341D01*
X48964Y-29343D01*
X48513Y-29794D01*
X48495Y-29794D01*
X48346Y-29856D01*
X48231Y-29969D01*
X48169Y-30119D01*
X48169Y-30280D01*
X48231Y-30429D01*
X48344Y-30544D01*
X48494Y-30606D01*
X48655Y-30606D01*
X48804Y-30544D01*
X48919Y-30431D01*
X48981Y-30281D01*
X48981Y-30161D01*
X49297Y-29845D01*
X53727Y-29845D01*
X54416Y-30534D01*
X54512Y-30598D01*
X54625Y-30621D01*
X54625Y-30620D01*
X54629Y-30620D01*
X56045Y-30620D01*
X56050Y-30621D01*
X56050Y-30620D01*
X56163Y-30598D01*
X56259Y-30534D01*
X56531Y-30260D01*
X56591Y-30236D01*
X56661Y-30166D01*
X56699Y-30075D01*
X56699Y-29976D01*
X56699Y-29526D01*
X56661Y-29434D01*
X56591Y-29364D01*
X56500Y-29326D01*
X56401Y-29326D01*
X56201Y-29326D01*
X56145Y-29349D01*
X56145Y-29203D01*
X56206Y-29056D01*
X56206Y-28895D01*
X56144Y-28746D01*
X56031Y-28631D01*
X55935Y-28591D01*
X56076Y-28451D01*
X56145Y-28348D01*
X56146Y-28347D01*
X56170Y-28225D01*
X56170Y-27761D01*
X56200Y-27774D01*
X56299Y-27774D01*
X56499Y-27774D01*
X56591Y-27736D01*
X56661Y-27666D01*
X56699Y-27575D01*
X56699Y-27476D01*
X56699Y-27026D01*
X56670Y-26955D01*
X56670Y-26907D01*
X56751Y-26827D01*
X56751Y-26826D01*
X56797Y-26757D01*
X56820Y-26723D01*
X56821Y-26722D01*
X56844Y-26600D01*
X56845Y-26600D01*
X56845Y-25918D01*
X56919Y-25994D01*
X57069Y-26056D01*
X57180Y-26056D01*
X57144Y-26144D01*
X57144Y-26305D01*
X57206Y-26454D01*
X57255Y-26503D01*
X57255Y-27970D01*
X57231Y-27994D01*
X57169Y-28144D01*
X57169Y-28305D01*
X57231Y-28454D01*
X57344Y-28569D01*
X57494Y-28631D01*
X57655Y-28631D01*
X57804Y-28569D01*
X57919Y-28456D01*
X57939Y-28407D01*
X58141Y-28609D01*
X58237Y-28673D01*
X58350Y-28696D01*
X58350Y-28695D01*
X58354Y-28695D01*
X58534Y-28695D01*
X58564Y-28766D01*
X58634Y-28836D01*
X58725Y-28874D01*
X58824Y-28874D01*
X59074Y-28874D01*
X59166Y-28836D01*
X59200Y-28802D01*
X59234Y-28836D01*
X59325Y-28874D01*
X59424Y-28874D01*
X59674Y-28874D01*
X59766Y-28836D01*
X59836Y-28766D01*
X59874Y-28675D01*
X59874Y-28637D01*
X59912Y-28612D01*
X60401Y-28123D01*
X60401Y-28269D01*
X60401Y-28270D01*
X60401Y-28369D01*
X60401Y-28520D01*
X60401Y-28529D01*
X60401Y-28619D01*
X60401Y-28779D01*
X60439Y-28871D01*
X60509Y-28941D01*
X60600Y-28979D01*
X60699Y-28979D01*
X61199Y-28979D01*
X61291Y-28941D01*
X61361Y-28871D01*
X61399Y-28780D01*
X61399Y-28681D01*
X61399Y-28530D01*
X61399Y-28521D01*
X61399Y-28431D01*
X61399Y-28271D01*
X61398Y-28270D01*
X61399Y-28270D01*
X61399Y-28180D01*
X61920Y-28180D01*
X62035Y-28157D01*
X62132Y-28092D01*
X62411Y-27813D01*
X62411Y-27812D01*
X62412Y-27812D01*
X62476Y-27715D01*
X62477Y-27715D01*
X62499Y-27601D01*
X62500Y-27600D01*
X62500Y-26900D01*
X62500Y-26494D01*
X62556Y-26629D01*
X62669Y-26744D01*
X62819Y-26806D01*
X62881Y-26806D01*
X62887Y-26812D01*
X62888Y-26812D01*
X62985Y-26877D01*
X63099Y-26899D01*
X63100Y-26900D01*
X63200Y-26900D01*
X63200Y-26960D01*
X63200Y-26962D01*
X63201Y-26989D01*
X63201Y-27079D01*
X63201Y-27239D01*
X63201Y-27240D01*
X63201Y-27339D01*
X63201Y-27499D01*
X63201Y-27500D01*
X63201Y-27599D01*
X63201Y-27751D01*
X63200Y-27778D01*
X63215Y-27793D01*
X63239Y-27851D01*
X63273Y-27885D01*
X63239Y-27919D01*
X63222Y-27959D01*
X63200Y-27982D01*
X63201Y-28009D01*
X63201Y-28010D01*
X63201Y-28011D01*
X63200Y-28038D01*
X63222Y-28060D01*
X63239Y-28101D01*
X63278Y-28140D01*
X63239Y-28179D01*
X63221Y-28220D01*
X63200Y-28242D01*
X63201Y-28269D01*
X63201Y-28270D01*
X63201Y-28369D01*
X63201Y-28520D01*
X63201Y-28529D01*
X63201Y-28619D01*
X63201Y-28779D01*
X63239Y-28871D01*
X63309Y-28941D01*
X63400Y-28979D01*
X63499Y-28979D01*
X63999Y-28979D01*
X64091Y-28941D01*
X64161Y-28871D01*
X64199Y-28780D01*
X64199Y-28681D01*
X64199Y-28530D01*
X64199Y-28521D01*
X64199Y-28431D01*
X64199Y-28271D01*
X64198Y-28270D01*
X64199Y-28269D01*
X64200Y-28242D01*
X64177Y-28219D01*
X64161Y-28179D01*
X64122Y-28140D01*
X64161Y-28101D01*
X64177Y-28060D01*
X64200Y-28038D01*
X64199Y-28011D01*
X64198Y-28010D01*
X64199Y-28009D01*
X64200Y-27982D01*
X64177Y-27959D01*
X64161Y-27919D01*
X64127Y-27885D01*
X64161Y-27851D01*
X64185Y-27792D01*
X64200Y-27778D01*
X64199Y-27760D01*
X64199Y-27751D01*
X64199Y-27661D01*
X64199Y-27501D01*
X64198Y-27500D01*
X64199Y-27500D01*
X64199Y-27401D01*
X64199Y-27241D01*
X64198Y-27240D01*
X64199Y-27240D01*
X64199Y-27141D01*
X64199Y-26989D01*
X64199Y-26981D01*
X64200Y-26962D01*
X64184Y-26946D01*
X64161Y-26889D01*
X64127Y-26855D01*
X64161Y-26821D01*
X64178Y-26779D01*
X64200Y-26758D01*
X64199Y-26731D01*
X64198Y-26730D01*
X64199Y-26730D01*
X64199Y-26631D01*
X64199Y-26480D01*
X64199Y-26471D01*
X64199Y-26381D01*
X64199Y-26221D01*
X64198Y-26220D01*
X64199Y-26219D01*
X64200Y-26192D01*
X64200Y-26600D01*
X64223Y-26715D01*
X64288Y-26812D01*
X64588Y-27112D01*
X64626Y-27137D01*
X64626Y-27174D01*
X64664Y-27266D01*
X64698Y-27300D01*
X64664Y-27334D01*
X64626Y-27425D01*
X64626Y-27524D01*
X64626Y-27974D01*
X64664Y-28066D01*
X64734Y-28136D01*
X64825Y-28174D01*
X64924Y-28174D01*
X65174Y-28174D01*
X65266Y-28136D01*
X65300Y-28102D01*
X65334Y-28136D01*
X65426Y-28174D01*
X65488Y-28175D01*
X65550Y-28113D01*
X65550Y-27800D01*
X65550Y-27750D01*
X65550Y-27650D01*
X65650Y-27650D01*
X65700Y-27650D01*
X65913Y-27650D01*
X65975Y-27588D01*
X65974Y-27524D01*
X65974Y-27425D01*
X65936Y-27334D01*
X65902Y-27300D01*
X65936Y-27266D01*
X65963Y-27200D01*
X66100Y-27200D01*
X66215Y-27177D01*
X66267Y-27142D01*
X66267Y-27210D01*
X66339Y-27385D01*
X66473Y-27520D01*
X66648Y-27593D01*
X66838Y-27593D01*
X67013Y-27521D01*
X67148Y-27387D01*
X67221Y-27212D01*
X67221Y-27022D01*
X67204Y-26980D01*
X67300Y-27000D01*
X67398Y-27000D01*
X67434Y-27036D01*
X67525Y-27074D01*
X67624Y-27074D01*
X68074Y-27074D01*
X68166Y-27036D01*
X68236Y-26966D01*
X68274Y-26875D01*
X68274Y-26776D01*
X68274Y-26526D01*
X68236Y-26434D01*
X68202Y-26400D01*
X68236Y-26366D01*
X68274Y-26275D01*
X68274Y-26176D01*
X68274Y-25926D01*
X68236Y-25834D01*
X68166Y-25764D01*
X68100Y-25736D01*
X68100Y-25563D01*
X68166Y-25536D01*
X68236Y-25466D01*
X68274Y-25375D01*
X68274Y-25276D01*
X68274Y-25026D01*
X68236Y-24934D01*
X68202Y-24900D01*
X68236Y-24866D01*
X68259Y-24810D01*
X69718Y-24810D01*
X69718Y-32450D01*
X69549Y-32450D01*
X69549Y-31900D01*
X69549Y-31801D01*
X69549Y-31201D01*
X69511Y-31109D01*
X69441Y-31039D01*
X69350Y-31001D01*
X69251Y-31001D01*
X68651Y-31001D01*
X68559Y-31039D01*
X68489Y-31109D01*
X68451Y-31200D01*
X68451Y-31262D01*
X68378Y-31242D01*
X68308Y-31312D01*
X68308Y-31172D01*
X68281Y-31078D01*
X68079Y-31007D01*
X67866Y-31018D01*
X67719Y-31078D01*
X67692Y-31172D01*
X68000Y-31479D01*
X68308Y-31172D01*
X68308Y-31312D01*
X68071Y-31550D01*
X68000Y-31621D01*
X67929Y-31550D01*
X67894Y-31515D01*
X67622Y-31242D01*
X67528Y-31269D01*
X67504Y-31334D01*
X67465Y-31239D01*
X67311Y-31085D01*
X67109Y-31001D01*
X66891Y-31001D01*
X66689Y-31085D01*
X66535Y-31239D01*
X66500Y-31323D01*
X66465Y-31239D01*
X66311Y-31085D01*
X66109Y-31001D01*
X65975Y-31001D01*
X65975Y-27812D01*
X65913Y-27750D01*
X65650Y-27750D01*
X65650Y-28113D01*
X65712Y-28175D01*
X65774Y-28174D01*
X65866Y-28136D01*
X65936Y-28066D01*
X65974Y-27975D01*
X65974Y-27876D01*
X65975Y-27812D01*
X65975Y-31001D01*
X65891Y-31001D01*
X65689Y-31085D01*
X65535Y-31239D01*
X65500Y-31323D01*
X65465Y-31239D01*
X65311Y-31085D01*
X65109Y-31001D01*
X64891Y-31001D01*
X64689Y-31085D01*
X64549Y-31225D01*
X64549Y-31201D01*
X64511Y-31109D01*
X64441Y-31039D01*
X64350Y-31001D01*
X64251Y-31001D01*
X63651Y-31001D01*
X63559Y-31039D01*
X63489Y-31109D01*
X63451Y-31200D01*
X63451Y-31225D01*
X63311Y-31085D01*
X63109Y-31001D01*
X62891Y-31001D01*
X62689Y-31085D01*
X62535Y-31239D01*
X62500Y-31323D01*
X62465Y-31239D01*
X62311Y-31085D01*
X62109Y-31001D01*
X61891Y-31001D01*
X61689Y-31085D01*
X61535Y-31239D01*
X61500Y-31323D01*
X61465Y-31239D01*
X61311Y-31085D01*
X61109Y-31001D01*
X60891Y-31001D01*
X60689Y-31085D01*
X60535Y-31239D01*
X60500Y-31323D01*
X60465Y-31239D01*
X60311Y-31085D01*
X60109Y-31001D01*
X59891Y-31001D01*
X59689Y-31085D01*
X59549Y-31225D01*
X59549Y-31201D01*
X59511Y-31109D01*
X59441Y-31039D01*
X59350Y-31001D01*
X59251Y-31001D01*
X58651Y-31001D01*
X58559Y-31039D01*
X58489Y-31109D01*
X58451Y-31200D01*
X58451Y-31262D01*
X58378Y-31242D01*
X58308Y-31312D01*
X58308Y-31172D01*
X58281Y-31078D01*
X58079Y-31007D01*
X57866Y-31018D01*
X57719Y-31078D01*
X57692Y-31172D01*
X58000Y-31479D01*
X58308Y-31172D01*
X58308Y-31312D01*
X58071Y-31550D01*
X58000Y-31621D01*
X57929Y-31550D01*
X57894Y-31515D01*
X57622Y-31242D01*
X57528Y-31269D01*
X57504Y-31334D01*
X57465Y-31239D01*
X57311Y-31085D01*
X57109Y-31001D01*
X56891Y-31001D01*
X56689Y-31085D01*
X56535Y-31239D01*
X56500Y-31323D01*
X56465Y-31239D01*
X56311Y-31085D01*
X56109Y-31001D01*
X55891Y-31001D01*
X55689Y-31085D01*
X55535Y-31239D01*
X55500Y-31323D01*
X55465Y-31239D01*
X55311Y-31085D01*
X55109Y-31001D01*
X54891Y-31001D01*
X54689Y-31085D01*
X54549Y-31225D01*
X54549Y-31201D01*
X54511Y-31109D01*
X54441Y-31039D01*
X54350Y-31001D01*
X54251Y-31001D01*
X53651Y-31001D01*
X53559Y-31039D01*
X53489Y-31109D01*
X53451Y-31200D01*
X53451Y-31225D01*
X53311Y-31085D01*
X53109Y-31001D01*
X52891Y-31001D01*
X52689Y-31085D01*
X52535Y-31239D01*
X52500Y-31323D01*
X52465Y-31239D01*
X52311Y-31085D01*
X52109Y-31001D01*
X51891Y-31001D01*
X51689Y-31085D01*
X51535Y-31239D01*
X51500Y-31323D01*
X51465Y-31239D01*
X51311Y-31085D01*
X51109Y-31001D01*
X50891Y-31001D01*
X50689Y-31085D01*
X50535Y-31239D01*
X50500Y-31323D01*
X50465Y-31239D01*
X50311Y-31085D01*
X50109Y-31001D01*
X49891Y-31001D01*
X49689Y-31085D01*
X49549Y-31225D01*
X49549Y-31201D01*
X49511Y-31109D01*
X49441Y-31039D01*
X49350Y-31001D01*
X49251Y-31001D01*
X48651Y-31001D01*
X48559Y-31039D01*
X48489Y-31109D01*
X48451Y-31200D01*
X48451Y-31262D01*
X48378Y-31242D01*
X48308Y-31312D01*
X48308Y-31172D01*
X48281Y-31078D01*
X48079Y-31007D01*
X47866Y-31018D01*
X47719Y-31078D01*
X47692Y-31172D01*
X48000Y-31479D01*
X48308Y-31172D01*
X48308Y-31312D01*
X48071Y-31550D01*
X48378Y-31858D01*
X48451Y-31837D01*
X48451Y-31899D01*
X48489Y-31991D01*
X48559Y-32061D01*
X48650Y-32099D01*
X48749Y-32099D01*
X49046Y-32099D01*
X49173Y-32226D01*
X49174Y-32226D01*
X49276Y-32295D01*
X49278Y-32296D01*
X49400Y-32320D01*
X58900Y-32320D01*
X59150Y-32320D01*
X68550Y-32320D01*
X68672Y-32296D01*
X68673Y-32296D01*
X68776Y-32226D01*
X68903Y-32099D01*
X69349Y-32099D01*
X69441Y-32061D01*
X69511Y-31991D01*
X69549Y-31900D01*
X69549Y-32450D01*
X48308Y-32450D01*
X48308Y-31928D01*
X48000Y-31621D01*
X47692Y-31928D01*
X47719Y-32022D01*
X47921Y-32093D01*
X48134Y-32082D01*
X48281Y-32022D01*
X48308Y-31928D01*
X48308Y-32450D01*
X38800Y-32450D01*
X38800Y-20550D01*
X69950Y-20550D01*
X69950Y-32450D01*
X69950Y-32450D01*
G37*
G54D25*
X69950Y-32450D02*
X69718Y-32450D01*
X69718Y-24810D01*
X69718Y-21710D01*
X69527Y-21710D01*
X69549Y-21659D01*
X69549Y-21441D01*
X69465Y-21239D01*
X69311Y-21085D01*
X69109Y-21001D01*
X68891Y-21001D01*
X68689Y-21085D01*
X68535Y-21239D01*
X68500Y-21323D01*
X68465Y-21239D01*
X68311Y-21085D01*
X68109Y-21001D01*
X67891Y-21001D01*
X67689Y-21085D01*
X67535Y-21239D01*
X67500Y-21323D01*
X67465Y-21239D01*
X67311Y-21085D01*
X67109Y-21001D01*
X66891Y-21001D01*
X66689Y-21085D01*
X66535Y-21239D01*
X66500Y-21323D01*
X66465Y-21239D01*
X66311Y-21085D01*
X66109Y-21001D01*
X65891Y-21001D01*
X65689Y-21085D01*
X65549Y-21225D01*
X65549Y-21201D01*
X65511Y-21109D01*
X65441Y-21039D01*
X65350Y-21001D01*
X65251Y-21001D01*
X64651Y-21001D01*
X64559Y-21039D01*
X64489Y-21109D01*
X64451Y-21200D01*
X64451Y-21225D01*
X64311Y-21085D01*
X64109Y-21001D01*
X63891Y-21001D01*
X63689Y-21085D01*
X63535Y-21239D01*
X63500Y-21323D01*
X63465Y-21239D01*
X63311Y-21085D01*
X63109Y-21001D01*
X62891Y-21001D01*
X62689Y-21085D01*
X62535Y-21239D01*
X62500Y-21323D01*
X62465Y-21239D01*
X62311Y-21085D01*
X62109Y-21001D01*
X61891Y-21001D01*
X61689Y-21085D01*
X61535Y-21239D01*
X61497Y-21330D01*
X61472Y-21269D01*
X61378Y-21242D01*
X61308Y-21312D01*
X61308Y-21172D01*
X61281Y-21078D01*
X61079Y-21007D01*
X60866Y-21018D01*
X60719Y-21078D01*
X60692Y-21172D01*
X61000Y-21479D01*
X61308Y-21172D01*
X61308Y-21312D01*
X61071Y-21550D01*
X61378Y-21858D01*
X61472Y-21831D01*
X61495Y-21765D01*
X61535Y-21861D01*
X61689Y-22015D01*
X61891Y-22099D01*
X62109Y-22099D01*
X62311Y-22015D01*
X62465Y-21861D01*
X62500Y-21776D01*
X62535Y-21861D01*
X62689Y-22015D01*
X62891Y-22099D01*
X63109Y-22099D01*
X63311Y-22015D01*
X63465Y-21861D01*
X63500Y-21776D01*
X63535Y-21861D01*
X63583Y-21909D01*
X63583Y-24810D01*
X64448Y-24810D01*
X64456Y-24829D01*
X64569Y-24944D01*
X64646Y-24976D01*
X64636Y-25000D01*
X64400Y-25000D01*
X64285Y-25023D01*
X64188Y-25088D01*
X64187Y-25088D01*
X64187Y-25089D01*
X64165Y-25110D01*
X64161Y-25099D01*
X64091Y-25029D01*
X64000Y-24991D01*
X63901Y-24991D01*
X63401Y-24991D01*
X63330Y-25020D01*
X63243Y-25020D01*
X63181Y-24994D01*
X63020Y-24994D01*
X62871Y-25056D01*
X62756Y-25169D01*
X62694Y-25319D01*
X62694Y-25480D01*
X62756Y-25629D01*
X62869Y-25744D01*
X63019Y-25806D01*
X63180Y-25806D01*
X63201Y-25797D01*
X63201Y-25949D01*
X63203Y-25955D01*
X63201Y-25961D01*
X63200Y-25988D01*
X63229Y-26017D01*
X63239Y-26041D01*
X63283Y-26085D01*
X63239Y-26129D01*
X63228Y-26154D01*
X63131Y-26056D01*
X62981Y-25994D01*
X62820Y-25994D01*
X62671Y-26056D01*
X62556Y-26169D01*
X62500Y-26304D01*
X62500Y-24974D01*
X62544Y-24931D01*
X62606Y-24781D01*
X62606Y-24620D01*
X62544Y-24471D01*
X62431Y-24356D01*
X62281Y-24294D01*
X62120Y-24294D01*
X61971Y-24356D01*
X61856Y-24469D01*
X61794Y-24619D01*
X61794Y-24780D01*
X61856Y-24929D01*
X61900Y-24973D01*
X61900Y-26900D01*
X61900Y-27476D01*
X61796Y-27580D01*
X61399Y-27580D01*
X61399Y-27501D01*
X61398Y-27500D01*
X61399Y-27500D01*
X61399Y-27401D01*
X61399Y-27241D01*
X61398Y-27240D01*
X61399Y-27239D01*
X61400Y-27212D01*
X61377Y-27189D01*
X61361Y-27149D01*
X61327Y-27115D01*
X61361Y-27081D01*
X61385Y-27022D01*
X61400Y-27008D01*
X61399Y-26990D01*
X61399Y-26981D01*
X61399Y-26891D01*
X61399Y-26731D01*
X61398Y-26730D01*
X61399Y-26730D01*
X61399Y-26631D01*
X61399Y-26480D01*
X61399Y-26471D01*
X61399Y-26381D01*
X61399Y-26221D01*
X61398Y-26220D01*
X61399Y-26220D01*
X61399Y-26121D01*
X61399Y-25961D01*
X61398Y-25960D01*
X61399Y-25960D01*
X61399Y-25861D01*
X61399Y-25710D01*
X61399Y-25701D01*
X61399Y-25611D01*
X61399Y-25451D01*
X61398Y-25450D01*
X61399Y-25450D01*
X61399Y-25351D01*
X61399Y-25191D01*
X61361Y-25099D01*
X61308Y-25046D01*
X61291Y-25029D01*
X61200Y-24991D01*
X61101Y-24991D01*
X60958Y-24991D01*
X60994Y-24956D01*
X61056Y-24806D01*
X61056Y-24645D01*
X60994Y-24496D01*
X60970Y-24471D01*
X60970Y-24325D01*
X60946Y-24203D01*
X60945Y-24202D01*
X60922Y-24168D01*
X60876Y-24099D01*
X60876Y-24098D01*
X60645Y-23867D01*
X60645Y-21986D01*
X60675Y-22016D01*
X60707Y-21983D01*
X60719Y-22022D01*
X60921Y-22093D01*
X61134Y-22082D01*
X61281Y-22022D01*
X61308Y-21928D01*
X61035Y-21656D01*
X61000Y-21621D01*
X60929Y-21550D01*
X60894Y-21515D01*
X60622Y-21242D01*
X60549Y-21262D01*
X60549Y-21201D01*
X60511Y-21109D01*
X60441Y-21039D01*
X60350Y-21001D01*
X60251Y-21001D01*
X59903Y-21001D01*
X59776Y-20874D01*
X59673Y-20804D01*
X59550Y-20780D01*
X50125Y-20780D01*
X49875Y-20780D01*
X40400Y-20780D01*
X40278Y-20804D01*
X40276Y-20804D01*
X40276Y-20805D01*
X40173Y-20874D01*
X40046Y-21001D01*
X39651Y-21001D01*
X39559Y-21039D01*
X39489Y-21109D01*
X39451Y-21200D01*
X39451Y-21299D01*
X39451Y-21899D01*
X39489Y-21991D01*
X39559Y-22061D01*
X39650Y-22099D01*
X39749Y-22099D01*
X40349Y-22099D01*
X40441Y-22061D01*
X40511Y-21991D01*
X40549Y-21900D01*
X40549Y-21837D01*
X40622Y-21858D01*
X40894Y-21585D01*
X40929Y-21550D01*
X41000Y-21479D01*
X41071Y-21550D01*
X41106Y-21585D01*
X41378Y-21858D01*
X41472Y-21831D01*
X41495Y-21765D01*
X41535Y-21861D01*
X41689Y-22015D01*
X41891Y-22099D01*
X42109Y-22099D01*
X42311Y-22015D01*
X42465Y-21861D01*
X42500Y-21776D01*
X42535Y-21861D01*
X42689Y-22015D01*
X42891Y-22099D01*
X43109Y-22099D01*
X43311Y-22015D01*
X43465Y-21861D01*
X43500Y-21776D01*
X43535Y-21861D01*
X43689Y-22015D01*
X43891Y-22099D01*
X44109Y-22099D01*
X44311Y-22015D01*
X44451Y-21875D01*
X44451Y-21899D01*
X44489Y-21991D01*
X44559Y-22061D01*
X44650Y-22099D01*
X44749Y-22099D01*
X45349Y-22099D01*
X45441Y-22061D01*
X45511Y-21991D01*
X45549Y-21900D01*
X45549Y-21875D01*
X45689Y-22015D01*
X45891Y-22099D01*
X46109Y-22099D01*
X46194Y-22063D01*
X45891Y-22366D01*
X45827Y-22462D01*
X45804Y-22575D01*
X45805Y-22579D01*
X45805Y-22718D01*
X45800Y-22723D01*
X45766Y-22689D01*
X45675Y-22651D01*
X45576Y-22651D01*
X45326Y-22651D01*
X45234Y-22689D01*
X45164Y-22759D01*
X45126Y-22850D01*
X45126Y-22949D01*
X45126Y-22966D01*
X45094Y-23044D01*
X45094Y-23205D01*
X45126Y-23281D01*
X45126Y-23399D01*
X45164Y-23491D01*
X45234Y-23561D01*
X45325Y-23599D01*
X45424Y-23599D01*
X45674Y-23599D01*
X45766Y-23561D01*
X45800Y-23527D01*
X45834Y-23561D01*
X45868Y-23575D01*
X45827Y-23637D01*
X45824Y-23648D01*
X45800Y-23673D01*
X45766Y-23639D01*
X45675Y-23601D01*
X45576Y-23601D01*
X45326Y-23601D01*
X45234Y-23639D01*
X45164Y-23709D01*
X45126Y-23800D01*
X45126Y-23899D01*
X45126Y-23937D01*
X45082Y-24044D01*
X45082Y-24205D01*
X45126Y-24310D01*
X45126Y-24330D01*
X44723Y-24330D01*
X44470Y-24077D01*
X44470Y-23400D01*
X44469Y-23399D01*
X44470Y-23399D01*
X44465Y-23377D01*
X44448Y-23287D01*
X44447Y-23286D01*
X44384Y-23191D01*
X44381Y-23189D01*
X44109Y-22916D01*
X44013Y-22852D01*
X43900Y-22829D01*
X43895Y-22830D01*
X43325Y-22830D01*
X43212Y-22852D01*
X43116Y-22916D01*
X43114Y-22918D01*
X43025Y-23007D01*
X43025Y-22896D01*
X42945Y-22703D01*
X42798Y-22555D01*
X42605Y-22475D01*
X42396Y-22475D01*
X42203Y-22555D01*
X42055Y-22702D01*
X42053Y-22705D01*
X41308Y-22705D01*
X41308Y-21928D01*
X41000Y-21621D01*
X40692Y-21928D01*
X40719Y-22022D01*
X40921Y-22093D01*
X41134Y-22082D01*
X41281Y-22022D01*
X41308Y-21928D01*
X41308Y-22705D01*
X39945Y-22705D01*
X39945Y-22703D01*
X39798Y-22555D01*
X39605Y-22475D01*
X39396Y-22475D01*
X39203Y-22555D01*
X39055Y-22702D01*
X38975Y-22895D01*
X38975Y-23104D01*
X39055Y-23297D01*
X39202Y-23445D01*
X39395Y-23525D01*
X39604Y-23525D01*
X39797Y-23445D01*
X39945Y-23298D01*
X39946Y-23295D01*
X42054Y-23295D01*
X42055Y-23297D01*
X42202Y-23445D01*
X42225Y-23454D01*
X42227Y-23463D01*
X42291Y-23559D01*
X42639Y-23906D01*
X42641Y-23909D01*
X42726Y-23965D01*
X42726Y-23974D01*
X42764Y-24066D01*
X42834Y-24136D01*
X42925Y-24174D01*
X43024Y-24174D01*
X43274Y-24174D01*
X43366Y-24136D01*
X43380Y-24122D01*
X43380Y-24278D01*
X43366Y-24264D01*
X43274Y-24226D01*
X43212Y-24225D01*
X43150Y-24287D01*
X43150Y-24600D01*
X43150Y-24650D01*
X43150Y-24750D01*
X43150Y-24800D01*
X43150Y-25113D01*
X43197Y-25160D01*
X43180Y-25250D01*
X43180Y-25251D01*
X43176Y-25251D01*
X43084Y-25289D01*
X43050Y-25323D01*
X43050Y-25113D01*
X43050Y-24800D01*
X43050Y-24750D01*
X43050Y-24650D01*
X43050Y-24600D01*
X43050Y-24287D01*
X42988Y-24225D01*
X42926Y-24226D01*
X42834Y-24264D01*
X42764Y-24334D01*
X42726Y-24425D01*
X42726Y-24524D01*
X42725Y-24533D01*
X42574Y-24481D01*
X42370Y-24492D01*
X42233Y-24548D01*
X42210Y-24639D01*
X42465Y-24894D01*
X42500Y-24929D01*
X42571Y-25000D01*
X42606Y-25035D01*
X42861Y-25290D01*
X42952Y-25267D01*
X42983Y-25174D01*
X42988Y-25175D01*
X43050Y-25113D01*
X43050Y-25323D01*
X43014Y-25359D01*
X42976Y-25450D01*
X42976Y-25549D01*
X42976Y-26549D01*
X43014Y-26641D01*
X43084Y-26711D01*
X43175Y-26749D01*
X43180Y-26749D01*
X43180Y-26751D01*
X43176Y-26751D01*
X43084Y-26789D01*
X43014Y-26859D01*
X42976Y-26950D01*
X42976Y-27049D01*
X42976Y-28027D01*
X42945Y-27953D01*
X42798Y-27805D01*
X42790Y-27801D01*
X42790Y-25361D01*
X42500Y-25071D01*
X42429Y-25142D01*
X42429Y-25000D01*
X42139Y-24710D01*
X42048Y-24733D01*
X41981Y-24926D01*
X41992Y-25130D01*
X42048Y-25267D01*
X42139Y-25290D01*
X42429Y-25000D01*
X42429Y-25142D01*
X42210Y-25361D01*
X42233Y-25452D01*
X42426Y-25519D01*
X42630Y-25508D01*
X42767Y-25452D01*
X42790Y-25361D01*
X42790Y-27801D01*
X42605Y-27725D01*
X42396Y-27725D01*
X42203Y-27805D01*
X42055Y-27952D01*
X42053Y-27955D01*
X40019Y-27955D01*
X40019Y-25074D01*
X40008Y-24870D01*
X39952Y-24733D01*
X39861Y-24710D01*
X39790Y-24781D01*
X39790Y-24639D01*
X39767Y-24548D01*
X39574Y-24481D01*
X39370Y-24492D01*
X39233Y-24548D01*
X39210Y-24639D01*
X39500Y-24929D01*
X39790Y-24639D01*
X39790Y-24781D01*
X39571Y-25000D01*
X39861Y-25290D01*
X39952Y-25267D01*
X40019Y-25074D01*
X40019Y-27955D01*
X39945Y-27955D01*
X39945Y-27953D01*
X39798Y-27805D01*
X39790Y-27801D01*
X39790Y-25361D01*
X39500Y-25071D01*
X39429Y-25142D01*
X39429Y-25000D01*
X39139Y-24710D01*
X39048Y-24733D01*
X38981Y-24926D01*
X38992Y-25130D01*
X39048Y-25267D01*
X39139Y-25290D01*
X39429Y-25000D01*
X39429Y-25142D01*
X39210Y-25361D01*
X39233Y-25452D01*
X39426Y-25519D01*
X39630Y-25508D01*
X39767Y-25452D01*
X39790Y-25361D01*
X39790Y-27801D01*
X39605Y-27725D01*
X39396Y-27725D01*
X39203Y-27805D01*
X39055Y-27952D01*
X38975Y-28145D01*
X38975Y-28354D01*
X39055Y-28547D01*
X39202Y-28695D01*
X39395Y-28775D01*
X39604Y-28775D01*
X39797Y-28695D01*
X39945Y-28548D01*
X39946Y-28545D01*
X42054Y-28545D01*
X42055Y-28547D01*
X42202Y-28695D01*
X42395Y-28775D01*
X42604Y-28775D01*
X42606Y-28773D01*
X42726Y-28893D01*
X42726Y-28924D01*
X42726Y-29374D01*
X42764Y-29466D01*
X42805Y-29507D01*
X42805Y-29620D01*
X42804Y-29625D01*
X42827Y-29738D01*
X42891Y-29834D01*
X43026Y-29969D01*
X42995Y-29969D01*
X42953Y-29986D01*
X42952Y-29983D01*
X42861Y-29960D01*
X42790Y-30031D01*
X42790Y-29889D01*
X42767Y-29798D01*
X42574Y-29731D01*
X42370Y-29742D01*
X42233Y-29798D01*
X42210Y-29889D01*
X42500Y-30179D01*
X42790Y-29889D01*
X42790Y-30031D01*
X42606Y-30215D01*
X42571Y-30250D01*
X42500Y-30321D01*
X42429Y-30250D01*
X42394Y-30215D01*
X42139Y-29960D01*
X42048Y-29983D01*
X42029Y-30034D01*
X41931Y-29994D01*
X41770Y-29994D01*
X41621Y-30056D01*
X41506Y-30169D01*
X41444Y-30319D01*
X41444Y-30480D01*
X41506Y-30629D01*
X41619Y-30744D01*
X41769Y-30806D01*
X41838Y-30806D01*
X41989Y-30956D01*
X41991Y-30959D01*
X42054Y-31001D01*
X41891Y-31001D01*
X41689Y-31085D01*
X41535Y-31239D01*
X41500Y-31323D01*
X41465Y-31239D01*
X41311Y-31085D01*
X41109Y-31001D01*
X40891Y-31001D01*
X40689Y-31085D01*
X40535Y-31239D01*
X40500Y-31323D01*
X40465Y-31239D01*
X40311Y-31085D01*
X40109Y-31001D01*
X40019Y-31001D01*
X40019Y-30324D01*
X40008Y-30120D01*
X39952Y-29983D01*
X39861Y-29960D01*
X39790Y-30031D01*
X39790Y-29889D01*
X39767Y-29798D01*
X39574Y-29731D01*
X39370Y-29742D01*
X39233Y-29798D01*
X39210Y-29889D01*
X39500Y-30179D01*
X39790Y-29889D01*
X39790Y-30031D01*
X39571Y-30250D01*
X39861Y-30540D01*
X39952Y-30517D01*
X40019Y-30324D01*
X40019Y-31001D01*
X39891Y-31001D01*
X39790Y-31043D01*
X39790Y-30611D01*
X39500Y-30321D01*
X39429Y-30392D01*
X39429Y-30250D01*
X39139Y-29960D01*
X39048Y-29983D01*
X38981Y-30176D01*
X38992Y-30380D01*
X39048Y-30517D01*
X39139Y-30540D01*
X39429Y-30250D01*
X39429Y-30392D01*
X39210Y-30611D01*
X39233Y-30702D01*
X39426Y-30769D01*
X39630Y-30758D01*
X39767Y-30702D01*
X39790Y-30611D01*
X39790Y-31043D01*
X39689Y-31085D01*
X39535Y-31239D01*
X39451Y-31441D01*
X39451Y-31659D01*
X39535Y-31861D01*
X39689Y-32015D01*
X39891Y-32099D01*
X40109Y-32099D01*
X40311Y-32015D01*
X40465Y-31861D01*
X40500Y-31776D01*
X40535Y-31861D01*
X40689Y-32015D01*
X40891Y-32099D01*
X41109Y-32099D01*
X41311Y-32015D01*
X41465Y-31861D01*
X41500Y-31776D01*
X41535Y-31861D01*
X41689Y-32015D01*
X41891Y-32099D01*
X42109Y-32099D01*
X42311Y-32015D01*
X42465Y-31861D01*
X42500Y-31776D01*
X42535Y-31861D01*
X42689Y-32015D01*
X42891Y-32099D01*
X43109Y-32099D01*
X43311Y-32015D01*
X43451Y-31875D01*
X43451Y-31899D01*
X43489Y-31991D01*
X43559Y-32061D01*
X43650Y-32099D01*
X43749Y-32099D01*
X44349Y-32099D01*
X44441Y-32061D01*
X44511Y-31991D01*
X44549Y-31900D01*
X44549Y-31875D01*
X44689Y-32015D01*
X44891Y-32099D01*
X45109Y-32099D01*
X45311Y-32015D01*
X45465Y-31861D01*
X45500Y-31776D01*
X45535Y-31861D01*
X45689Y-32015D01*
X45891Y-32099D01*
X46109Y-32099D01*
X46311Y-32015D01*
X46465Y-31861D01*
X46500Y-31776D01*
X46535Y-31861D01*
X46689Y-32015D01*
X46891Y-32099D01*
X47109Y-32099D01*
X47311Y-32015D01*
X47465Y-31861D01*
X47502Y-31769D01*
X47528Y-31831D01*
X47622Y-31858D01*
X47929Y-31550D01*
X47622Y-31242D01*
X47528Y-31269D01*
X47504Y-31334D01*
X47465Y-31239D01*
X47311Y-31085D01*
X47109Y-31001D01*
X46891Y-31001D01*
X46689Y-31085D01*
X46535Y-31239D01*
X46500Y-31323D01*
X46465Y-31239D01*
X46311Y-31085D01*
X46109Y-31001D01*
X45891Y-31001D01*
X45689Y-31085D01*
X45535Y-31239D01*
X45500Y-31323D01*
X45465Y-31239D01*
X45311Y-31085D01*
X45109Y-31001D01*
X44891Y-31001D01*
X44689Y-31085D01*
X44549Y-31225D01*
X44549Y-31201D01*
X44511Y-31109D01*
X44441Y-31039D01*
X44350Y-31001D01*
X44251Y-31001D01*
X43651Y-31001D01*
X43559Y-31039D01*
X43489Y-31109D01*
X43451Y-31200D01*
X43451Y-31225D01*
X43311Y-31085D01*
X43109Y-31001D01*
X42891Y-31001D01*
X42689Y-31085D01*
X42535Y-31239D01*
X42500Y-31323D01*
X42465Y-31239D01*
X42311Y-31085D01*
X42214Y-31045D01*
X42695Y-31045D01*
X42700Y-31046D01*
X42700Y-31045D01*
X42813Y-31023D01*
X42909Y-30959D01*
X43086Y-30781D01*
X43155Y-30781D01*
X43304Y-30719D01*
X43419Y-30606D01*
X43481Y-30456D01*
X43481Y-30356D01*
X43550Y-30370D01*
X45295Y-30370D01*
X45344Y-30419D01*
X45494Y-30481D01*
X45655Y-30481D01*
X45804Y-30419D01*
X45919Y-30306D01*
X45981Y-30156D01*
X45981Y-29995D01*
X45919Y-29846D01*
X45806Y-29731D01*
X45656Y-29669D01*
X45495Y-29669D01*
X45346Y-29731D01*
X45296Y-29780D01*
X43672Y-29780D01*
X43397Y-29504D01*
X43400Y-29502D01*
X43434Y-29536D01*
X43525Y-29574D01*
X43624Y-29574D01*
X43874Y-29574D01*
X43966Y-29536D01*
X44036Y-29466D01*
X44074Y-29375D01*
X44074Y-29276D01*
X44074Y-28826D01*
X44036Y-28734D01*
X44020Y-28718D01*
X44020Y-28425D01*
X44019Y-28424D01*
X43996Y-28303D01*
X43995Y-28301D01*
X43927Y-28199D01*
X43986Y-28141D01*
X44000Y-28107D01*
X44014Y-28141D01*
X44084Y-28211D01*
X44175Y-28249D01*
X44274Y-28249D01*
X44824Y-28249D01*
X44916Y-28211D01*
X44986Y-28141D01*
X45000Y-28107D01*
X45014Y-28141D01*
X45084Y-28211D01*
X45175Y-28249D01*
X45205Y-28249D01*
X45205Y-28620D01*
X45204Y-28625D01*
X45227Y-28738D01*
X45291Y-28834D01*
X45864Y-29406D01*
X45866Y-29409D01*
X45962Y-29473D01*
X46075Y-29495D01*
X48445Y-29495D01*
X48450Y-29496D01*
X48450Y-29495D01*
X48563Y-29473D01*
X48659Y-29409D01*
X49497Y-28570D01*
X50120Y-28570D01*
X50125Y-28571D01*
X50125Y-28570D01*
X50238Y-28548D01*
X50334Y-28484D01*
X50525Y-28292D01*
X50525Y-28300D01*
X50537Y-28300D01*
X50525Y-28312D01*
X50526Y-28374D01*
X50564Y-28466D01*
X50598Y-28500D01*
X50564Y-28534D01*
X50526Y-28625D01*
X50526Y-28724D01*
X50526Y-28974D01*
X50564Y-29066D01*
X50634Y-29136D01*
X50682Y-29156D01*
X50769Y-29244D01*
X50795Y-29255D01*
X49175Y-29255D01*
X49061Y-29277D01*
X49023Y-29303D01*
X48966Y-29341D01*
X48964Y-29343D01*
X48513Y-29794D01*
X48495Y-29794D01*
X48346Y-29856D01*
X48231Y-29969D01*
X48169Y-30119D01*
X48169Y-30280D01*
X48231Y-30429D01*
X48344Y-30544D01*
X48494Y-30606D01*
X48655Y-30606D01*
X48804Y-30544D01*
X48919Y-30431D01*
X48981Y-30281D01*
X48981Y-30161D01*
X49297Y-29845D01*
X53727Y-29845D01*
X54416Y-30534D01*
X54512Y-30598D01*
X54625Y-30621D01*
X54625Y-30620D01*
X54629Y-30620D01*
X56045Y-30620D01*
X56050Y-30621D01*
X56050Y-30620D01*
X56163Y-30598D01*
X56259Y-30534D01*
X56531Y-30260D01*
X56591Y-30236D01*
X56661Y-30166D01*
X56699Y-30075D01*
X56699Y-29976D01*
X56699Y-29526D01*
X56661Y-29434D01*
X56591Y-29364D01*
X56500Y-29326D01*
X56401Y-29326D01*
X56201Y-29326D01*
X56145Y-29349D01*
X56145Y-29203D01*
X56206Y-29056D01*
X56206Y-28895D01*
X56144Y-28746D01*
X56031Y-28631D01*
X55935Y-28591D01*
X56076Y-28451D01*
X56145Y-28348D01*
X56146Y-28347D01*
X56170Y-28225D01*
X56170Y-27761D01*
X56200Y-27774D01*
X56299Y-27774D01*
X56499Y-27774D01*
X56591Y-27736D01*
X56661Y-27666D01*
X56699Y-27575D01*
X56699Y-27476D01*
X56699Y-27026D01*
X56670Y-26955D01*
X56670Y-26907D01*
X56751Y-26827D01*
X56751Y-26826D01*
X56797Y-26757D01*
X56820Y-26723D01*
X56821Y-26722D01*
X56844Y-26600D01*
X56845Y-26600D01*
X56845Y-25918D01*
X56919Y-25994D01*
X57069Y-26056D01*
X57180Y-26056D01*
X57144Y-26144D01*
X57144Y-26305D01*
X57206Y-26454D01*
X57255Y-26503D01*
X57255Y-27970D01*
X57231Y-27994D01*
X57169Y-28144D01*
X57169Y-28305D01*
X57231Y-28454D01*
X57344Y-28569D01*
X57494Y-28631D01*
X57655Y-28631D01*
X57804Y-28569D01*
X57919Y-28456D01*
X57939Y-28407D01*
X58141Y-28609D01*
X58237Y-28673D01*
X58350Y-28696D01*
X58350Y-28695D01*
X58354Y-28695D01*
X58534Y-28695D01*
X58564Y-28766D01*
X58634Y-28836D01*
X58725Y-28874D01*
X58824Y-28874D01*
X59074Y-28874D01*
X59166Y-28836D01*
X59200Y-28802D01*
X59234Y-28836D01*
X59325Y-28874D01*
X59424Y-28874D01*
X59674Y-28874D01*
X59766Y-28836D01*
X59836Y-28766D01*
X59874Y-28675D01*
X59874Y-28637D01*
X59912Y-28612D01*
X60401Y-28123D01*
X60401Y-28269D01*
X60401Y-28270D01*
X60401Y-28369D01*
X60401Y-28520D01*
X60401Y-28529D01*
X60401Y-28619D01*
X60401Y-28779D01*
X60439Y-28871D01*
X60509Y-28941D01*
X60600Y-28979D01*
X60699Y-28979D01*
X61199Y-28979D01*
X61291Y-28941D01*
X61361Y-28871D01*
X61399Y-28780D01*
X61399Y-28681D01*
X61399Y-28530D01*
X61399Y-28521D01*
X61399Y-28431D01*
X61399Y-28271D01*
X61398Y-28270D01*
X61399Y-28270D01*
X61399Y-28180D01*
X61920Y-28180D01*
X62035Y-28157D01*
X62132Y-28092D01*
X62411Y-27813D01*
X62411Y-27812D01*
X62412Y-27812D01*
X62476Y-27715D01*
X62477Y-27715D01*
X62499Y-27601D01*
X62500Y-27600D01*
X62500Y-26900D01*
X62500Y-26494D01*
X62556Y-26629D01*
X62669Y-26744D01*
X62819Y-26806D01*
X62881Y-26806D01*
X62887Y-26812D01*
X62888Y-26812D01*
X62985Y-26877D01*
X63099Y-26899D01*
X63100Y-26900D01*
X63200Y-26900D01*
X63200Y-26960D01*
X63200Y-26962D01*
X63201Y-26989D01*
X63201Y-27079D01*
X63201Y-27239D01*
X63201Y-27240D01*
X63201Y-27339D01*
X63201Y-27499D01*
X63201Y-27500D01*
X63201Y-27599D01*
X63201Y-27751D01*
X63200Y-27778D01*
X63215Y-27793D01*
X63239Y-27851D01*
X63273Y-27885D01*
X63239Y-27919D01*
X63222Y-27959D01*
X63200Y-27982D01*
X63201Y-28009D01*
X63201Y-28010D01*
X63201Y-28011D01*
X63200Y-28038D01*
X63222Y-28060D01*
X63239Y-28101D01*
X63278Y-28140D01*
X63239Y-28179D01*
X63221Y-28220D01*
X63200Y-28242D01*
X63201Y-28269D01*
X63201Y-28270D01*
X63201Y-28369D01*
X63201Y-28520D01*
X63201Y-28529D01*
X63201Y-28619D01*
X63201Y-28779D01*
X63239Y-28871D01*
X63309Y-28941D01*
X63400Y-28979D01*
X63499Y-28979D01*
X63999Y-28979D01*
X64091Y-28941D01*
X64161Y-28871D01*
X64199Y-28780D01*
X64199Y-28681D01*
X64199Y-28530D01*
X64199Y-28521D01*
X64199Y-28431D01*
X64199Y-28271D01*
X64198Y-28270D01*
X64199Y-28269D01*
X64200Y-28242D01*
X64177Y-28219D01*
X64161Y-28179D01*
X64122Y-28140D01*
X64161Y-28101D01*
X64177Y-28060D01*
X64200Y-28038D01*
X64199Y-28011D01*
X64198Y-28010D01*
X64199Y-28009D01*
X64200Y-27982D01*
X64177Y-27959D01*
X64161Y-27919D01*
X64127Y-27885D01*
X64161Y-27851D01*
X64185Y-27792D01*
X64200Y-27778D01*
X64199Y-27760D01*
X64199Y-27751D01*
X64199Y-27661D01*
X64199Y-27501D01*
X64198Y-27500D01*
X64199Y-27500D01*
X64199Y-27401D01*
X64199Y-27241D01*
X64198Y-27240D01*
X64199Y-27240D01*
X64199Y-27141D01*
X64199Y-26989D01*
X64199Y-26981D01*
X64200Y-26962D01*
X64184Y-26946D01*
X64161Y-26889D01*
X64127Y-26855D01*
X64161Y-26821D01*
X64178Y-26779D01*
X64200Y-26758D01*
X64199Y-26731D01*
X64198Y-26730D01*
X64199Y-26730D01*
X64199Y-26631D01*
X64199Y-26480D01*
X64199Y-26471D01*
X64199Y-26381D01*
X64199Y-26221D01*
X64198Y-26220D01*
X64199Y-26219D01*
X64200Y-26192D01*
X64200Y-26600D01*
X64223Y-26715D01*
X64288Y-26812D01*
X64588Y-27112D01*
X64626Y-27137D01*
X64626Y-27174D01*
X64664Y-27266D01*
X64698Y-27300D01*
X64664Y-27334D01*
X64626Y-27425D01*
X64626Y-27524D01*
X64626Y-27974D01*
X64664Y-28066D01*
X64734Y-28136D01*
X64825Y-28174D01*
X64924Y-28174D01*
X65174Y-28174D01*
X65266Y-28136D01*
X65300Y-28102D01*
X65334Y-28136D01*
X65426Y-28174D01*
X65488Y-28175D01*
X65550Y-28113D01*
X65550Y-27800D01*
X65550Y-27750D01*
X65550Y-27650D01*
X65650Y-27650D01*
X65700Y-27650D01*
X65913Y-27650D01*
X65975Y-27588D01*
X65974Y-27524D01*
X65974Y-27425D01*
X65936Y-27334D01*
X65902Y-27300D01*
X65936Y-27266D01*
X65963Y-27200D01*
X66100Y-27200D01*
X66215Y-27177D01*
X66267Y-27142D01*
X66267Y-27210D01*
X66339Y-27385D01*
X66473Y-27520D01*
X66648Y-27593D01*
X66838Y-27593D01*
X67013Y-27521D01*
X67148Y-27387D01*
X67221Y-27212D01*
X67221Y-27022D01*
X67204Y-26980D01*
X67300Y-27000D01*
X67398Y-27000D01*
X67434Y-27036D01*
X67525Y-27074D01*
X67624Y-27074D01*
X68074Y-27074D01*
X68166Y-27036D01*
X68236Y-26966D01*
X68274Y-26875D01*
X68274Y-26776D01*
X68274Y-26526D01*
X68236Y-26434D01*
X68202Y-26400D01*
X68236Y-26366D01*
X68274Y-26275D01*
X68274Y-26176D01*
X68274Y-25926D01*
X68236Y-25834D01*
X68166Y-25764D01*
X68100Y-25736D01*
X68100Y-25563D01*
X68166Y-25536D01*
X68236Y-25466D01*
X68274Y-25375D01*
X68274Y-25276D01*
X68274Y-25026D01*
X68236Y-24934D01*
X68202Y-24900D01*
X68236Y-24866D01*
X68259Y-24810D01*
X69718Y-24810D01*
X69718Y-32450D01*
X69549Y-32450D01*
X69549Y-31900D01*
X69549Y-31801D01*
X69549Y-31201D01*
X69511Y-31109D01*
X69441Y-31039D01*
X69350Y-31001D01*
X69251Y-31001D01*
X68651Y-31001D01*
X68559Y-31039D01*
X68489Y-31109D01*
X68451Y-31200D01*
X68451Y-31262D01*
X68378Y-31242D01*
X68308Y-31312D01*
X68308Y-31172D01*
X68281Y-31078D01*
X68079Y-31007D01*
X67866Y-31018D01*
X67719Y-31078D01*
X67692Y-31172D01*
X68000Y-31479D01*
X68308Y-31172D01*
X68308Y-31312D01*
X68071Y-31550D01*
X68000Y-31621D01*
X67929Y-31550D01*
X67894Y-31515D01*
X67622Y-31242D01*
X67528Y-31269D01*
X67504Y-31334D01*
X67465Y-31239D01*
X67311Y-31085D01*
X67109Y-31001D01*
X66891Y-31001D01*
X66689Y-31085D01*
X66535Y-31239D01*
X66500Y-31323D01*
X66465Y-31239D01*
X66311Y-31085D01*
X66109Y-31001D01*
X65975Y-31001D01*
X65975Y-27812D01*
X65913Y-27750D01*
X65650Y-27750D01*
X65650Y-28113D01*
X65712Y-28175D01*
X65774Y-28174D01*
X65866Y-28136D01*
X65936Y-28066D01*
X65974Y-27975D01*
X65974Y-27876D01*
X65975Y-27812D01*
X65975Y-31001D01*
X65891Y-31001D01*
X65689Y-31085D01*
X65535Y-31239D01*
X65500Y-31323D01*
X65465Y-31239D01*
X65311Y-31085D01*
X65109Y-31001D01*
X64891Y-31001D01*
X64689Y-31085D01*
X64549Y-31225D01*
X64549Y-31201D01*
X64511Y-31109D01*
X64441Y-31039D01*
X64350Y-31001D01*
X64251Y-31001D01*
X63651Y-31001D01*
X63559Y-31039D01*
X63489Y-31109D01*
X63451Y-31200D01*
X63451Y-31225D01*
X63311Y-31085D01*
X63109Y-31001D01*
X62891Y-31001D01*
X62689Y-31085D01*
X62535Y-31239D01*
X62500Y-31323D01*
X62465Y-31239D01*
X62311Y-31085D01*
X62109Y-31001D01*
X61891Y-31001D01*
X61689Y-31085D01*
X61535Y-31239D01*
X61500Y-31323D01*
X61465Y-31239D01*
X61311Y-31085D01*
X61109Y-31001D01*
X60891Y-31001D01*
X60689Y-31085D01*
X60535Y-31239D01*
X60500Y-31323D01*
X60465Y-31239D01*
X60311Y-31085D01*
X60109Y-31001D01*
X59891Y-31001D01*
X59689Y-31085D01*
X59549Y-31225D01*
X59549Y-31201D01*
X59511Y-31109D01*
X59441Y-31039D01*
X59350Y-31001D01*
X59251Y-31001D01*
X58651Y-31001D01*
X58559Y-31039D01*
X58489Y-31109D01*
X58451Y-31200D01*
X58451Y-31262D01*
X58378Y-31242D01*
X58308Y-31312D01*
X58308Y-31172D01*
X58281Y-31078D01*
X58079Y-31007D01*
X57866Y-31018D01*
X57719Y-31078D01*
X57692Y-31172D01*
X58000Y-31479D01*
X58308Y-31172D01*
X58308Y-31312D01*
X58071Y-31550D01*
X58000Y-31621D01*
X57929Y-31550D01*
X57894Y-31515D01*
X57622Y-31242D01*
X57528Y-31269D01*
X57504Y-31334D01*
X57465Y-31239D01*
X57311Y-31085D01*
X57109Y-31001D01*
X56891Y-31001D01*
X56689Y-31085D01*
X56535Y-31239D01*
X56500Y-31323D01*
X56465Y-31239D01*
X56311Y-31085D01*
X56109Y-31001D01*
X55891Y-31001D01*
X55689Y-31085D01*
X55535Y-31239D01*
X55500Y-31323D01*
X55465Y-31239D01*
X55311Y-31085D01*
X55109Y-31001D01*
X54891Y-31001D01*
X54689Y-31085D01*
X54549Y-31225D01*
X54549Y-31201D01*
X54511Y-31109D01*
X54441Y-31039D01*
X54350Y-31001D01*
X54251Y-31001D01*
X53651Y-31001D01*
X53559Y-31039D01*
X53489Y-31109D01*
X53451Y-31200D01*
X53451Y-31225D01*
X53311Y-31085D01*
X53109Y-31001D01*
X52891Y-31001D01*
X52689Y-31085D01*
X52535Y-31239D01*
X52500Y-31323D01*
X52465Y-31239D01*
X52311Y-31085D01*
X52109Y-31001D01*
X51891Y-31001D01*
X51689Y-31085D01*
X51535Y-31239D01*
X51500Y-31323D01*
X51465Y-31239D01*
X51311Y-31085D01*
X51109Y-31001D01*
X50891Y-31001D01*
X50689Y-31085D01*
X50535Y-31239D01*
X50500Y-31323D01*
X50465Y-31239D01*
X50311Y-31085D01*
X50109Y-31001D01*
X49891Y-31001D01*
X49689Y-31085D01*
X49549Y-31225D01*
X49549Y-31201D01*
X49511Y-31109D01*
X49441Y-31039D01*
X49350Y-31001D01*
X49251Y-31001D01*
X48651Y-31001D01*
X48559Y-31039D01*
X48489Y-31109D01*
X48451Y-31200D01*
X48451Y-31262D01*
X48378Y-31242D01*
X48308Y-31312D01*
X48308Y-31172D01*
X48281Y-31078D01*
X48079Y-31007D01*
X47866Y-31018D01*
X47719Y-31078D01*
X47692Y-31172D01*
X48000Y-31479D01*
X48308Y-31172D01*
X48308Y-31312D01*
X48071Y-31550D01*
X48378Y-31858D01*
X48451Y-31837D01*
X48451Y-31899D01*
X48489Y-31991D01*
X48559Y-32061D01*
X48650Y-32099D01*
X48749Y-32099D01*
X49046Y-32099D01*
X49173Y-32226D01*
X49174Y-32226D01*
X49276Y-32295D01*
X49278Y-32296D01*
X49400Y-32320D01*
X58900Y-32320D01*
X59150Y-32320D01*
X68550Y-32320D01*
X68672Y-32296D01*
X68673Y-32296D01*
X68776Y-32226D01*
X68903Y-32099D01*
X69349Y-32099D01*
X69441Y-32061D01*
X69511Y-31991D01*
X69549Y-31900D01*
X69549Y-32450D01*
X48308Y-32450D01*
X48308Y-31928D01*
X48000Y-31621D01*
X47692Y-31928D01*
X47719Y-32022D01*
X47921Y-32093D01*
X48134Y-32082D01*
X48281Y-32022D01*
X48308Y-31928D01*
X48308Y-32450D01*
X38800Y-32450D01*
X38800Y-20550D01*
X69950Y-20550D01*
X69950Y-32450D01*
M02*
