M48
;DRILL file {Pcbnew (2012-01-19 BZR 3256)-stable} date Mon 24 Sep 2012 12:54:32 AM COT
;FORMAT={2:4/ absolute / inch / keep zeros}
FMAT,2
INCH,TZ
T1C0.012
T2C0.032
T3C0.039
T4C0.040
%
G90
G05
M72
T1
X041850Y-030400
X043075Y-030375
X044775Y-024925
X045488Y-024125
X045500Y-023125
X045500Y-026000
X045575Y-030075
X047200Y-028800
X047675Y-023450
X047750Y-023825
X048275Y-023525
X048550Y-028470
X048575Y-030200
X048600Y-026100
X048850Y-023950
X048925Y-027300
X049125Y-025525
X049125Y-026700
X049175Y-027825
X049400Y-023950
X049675Y-024550
X050250Y-023950
X050500Y-022650
X050550Y-024550
X050575Y-022250
X051000Y-028900
X051125Y-024525
X051125Y-027575
X051775Y-028250
X052150Y-025125
X052175Y-025850
X052350Y-028850
X052375Y-027475
X052475Y-026500
X052550Y-025325
X052600Y-024525
X052650Y-022950
X052775Y-028200
X052975Y-024025
X053350Y-025700
X053350Y-028050
X053600Y-024625
X053875Y-029250
X054575Y-029450
X055050Y-025900
X055150Y-028375
X055350Y-023675
X055700Y-023175
X055800Y-028975
X056050Y-026550
X056200Y-023125
X056225Y-026150
X056625Y-023025
X056725Y-025625
X057150Y-025650
X057550Y-026225
X057575Y-028225
X057575Y-029425
X058575Y-024175
X059950Y-025075
X060650Y-024725
X060725Y-023875
X061700Y-026800
X062200Y-024700
X062700Y-026900
X062900Y-026400
X063100Y-025400
X064500Y-025800
X064600Y-028900
X064800Y-024600
X066100Y-025400
X066400Y-026100
X066400Y-026600
X066700Y-027700
X068600Y-027000
X069325Y-027000
T2
X039500Y-023000
X039500Y-025000
X039500Y-028250
X039500Y-030250
X042500Y-023000
X042500Y-025000
X042500Y-028250
X042500Y-030250
T3
X066744Y-025384
X066744Y-027116
T4
X040000Y-021550
X040000Y-031550
X041000Y-021550
X041000Y-031550
X042000Y-021550
X042000Y-031550
X043000Y-021550
X043000Y-031550
X044000Y-021550
X044000Y-031550
X045000Y-021550
X045000Y-031550
X046000Y-021550
X046000Y-031550
X047000Y-021550
X047000Y-031550
X048000Y-021550
X048000Y-031550
X049000Y-021550
X049000Y-031550
X050000Y-021550
X050000Y-031550
X051000Y-021550
X051000Y-031550
X052000Y-021550
X052000Y-031550
X053000Y-021550
X053000Y-031550
X054000Y-021550
X054000Y-031550
X055000Y-021550
X055000Y-031550
X056000Y-021550
X056000Y-031550
X057000Y-021550
X057000Y-031550
X058000Y-021550
X058000Y-031550
X059000Y-021550
X059000Y-031550
X060000Y-021550
X060000Y-031550
X061000Y-021550
X061000Y-031550
X062000Y-021550
X062000Y-031550
X063000Y-021550
X063000Y-031550
X064000Y-021550
X064000Y-031550
X065000Y-021550
X065000Y-031550
X066000Y-021550
X066000Y-031550
X067000Y-021550
X067000Y-031550
X068000Y-021550
X068000Y-031550
X069000Y-021550
X069000Y-031550
T0
M30
