G04 (created by PCBNEW-RS274X (2012-01-19 BZR 3256)-stable) date Thu 07 Mar 2013 02:54:08 AM COT*
G01*
G70*
G90*
%MOIN*%
G04 Gerber Fmt 3.4, Leading zero omitted, Abs format*
%FSLAX34Y34*%
G04 APERTURE LIST*
%ADD10C,0.006000*%
%ADD11C,0.015000*%
%ADD12C,0.005000*%
%ADD13C,0.008000*%
%ADD14C,0.002600*%
%ADD15C,0.004000*%
%ADD16C,0.004500*%
%ADD17C,0.012000*%
%ADD18C,0.002400*%
%ADD19C,0.003900*%
%ADD20C,0.003500*%
G04 APERTURE END LIST*
G54D10*
G54D11*
X44250Y-31250D02*
X44500Y-31250D01*
X44250Y-21750D02*
X44250Y-31250D01*
X69750Y-21750D02*
X69750Y-22000D01*
X44250Y-21750D02*
X69750Y-21750D01*
X69750Y-31250D02*
X44250Y-31250D01*
X69750Y-21250D02*
X69750Y-31250D01*
G54D12*
X47900Y-26200D02*
X47900Y-25300D01*
X47900Y-25300D02*
X47400Y-25300D01*
X47400Y-25300D02*
X47400Y-26200D01*
X47400Y-26200D02*
X47900Y-26200D01*
X48550Y-26800D02*
X48550Y-25900D01*
X48550Y-25900D02*
X48050Y-25900D01*
X48050Y-25900D02*
X48050Y-26800D01*
X48050Y-26800D02*
X48550Y-26800D01*
X60375Y-28725D02*
X59475Y-28725D01*
X59475Y-28725D02*
X59475Y-29225D01*
X59475Y-29225D02*
X60375Y-29225D01*
X60375Y-29225D02*
X60375Y-28725D01*
X50550Y-28200D02*
X49650Y-28200D01*
X49650Y-28200D02*
X49650Y-28700D01*
X49650Y-28700D02*
X50550Y-28700D01*
X50550Y-28700D02*
X50550Y-28200D01*
X50550Y-27250D02*
X49650Y-27250D01*
X49650Y-27250D02*
X49650Y-27750D01*
X49650Y-27750D02*
X50550Y-27750D01*
X50550Y-27750D02*
X50550Y-27250D01*
X50550Y-25850D02*
X49650Y-25850D01*
X49650Y-25850D02*
X49650Y-26350D01*
X49650Y-26350D02*
X50550Y-26350D01*
X50550Y-26350D02*
X50550Y-25850D01*
X50550Y-25200D02*
X49650Y-25200D01*
X49650Y-25200D02*
X49650Y-25700D01*
X49650Y-25700D02*
X50550Y-25700D01*
X50550Y-25700D02*
X50550Y-25200D01*
X50550Y-24200D02*
X49650Y-24200D01*
X49650Y-24200D02*
X49650Y-24700D01*
X49650Y-24700D02*
X50550Y-24700D01*
X50550Y-24700D02*
X50550Y-24200D01*
X51250Y-23800D02*
X51250Y-24700D01*
X51250Y-24700D02*
X51750Y-24700D01*
X51750Y-24700D02*
X51750Y-23800D01*
X51750Y-23800D02*
X51250Y-23800D01*
X52400Y-23800D02*
X52400Y-24700D01*
X52400Y-24700D02*
X52900Y-24700D01*
X52900Y-24700D02*
X52900Y-23800D01*
X52900Y-23800D02*
X52400Y-23800D01*
X50925Y-28650D02*
X51825Y-28650D01*
X51825Y-28650D02*
X51825Y-28150D01*
X51825Y-28150D02*
X50925Y-28150D01*
X50925Y-28150D02*
X50925Y-28650D01*
X56050Y-24950D02*
X55150Y-24950D01*
X55150Y-24950D02*
X55150Y-25450D01*
X55150Y-25450D02*
X56050Y-25450D01*
X56050Y-25450D02*
X56050Y-24950D01*
X56050Y-27650D02*
X55150Y-27650D01*
X55150Y-27650D02*
X55150Y-28150D01*
X55150Y-28150D02*
X56050Y-28150D01*
X56050Y-28150D02*
X56050Y-27650D01*
X55000Y-29500D02*
X55000Y-28600D01*
X55000Y-28600D02*
X54500Y-28600D01*
X54500Y-28600D02*
X54500Y-29500D01*
X54500Y-29500D02*
X55000Y-29500D01*
X53950Y-29500D02*
X53950Y-28600D01*
X53950Y-28600D02*
X53450Y-28600D01*
X53450Y-28600D02*
X53450Y-29500D01*
X53450Y-29500D02*
X53950Y-29500D01*
X50550Y-26550D02*
X49650Y-26550D01*
X49650Y-26550D02*
X49650Y-27050D01*
X49650Y-27050D02*
X50550Y-27050D01*
X50550Y-27050D02*
X50550Y-26550D01*
X56050Y-25850D02*
X55150Y-25850D01*
X55150Y-25850D02*
X55150Y-26350D01*
X55150Y-26350D02*
X56050Y-26350D01*
X56050Y-26350D02*
X56050Y-25850D01*
X56050Y-26750D02*
X55150Y-26750D01*
X55150Y-26750D02*
X55150Y-27250D01*
X55150Y-27250D02*
X56050Y-27250D01*
X56050Y-27250D02*
X56050Y-26750D01*
G54D13*
X60100Y-25900D02*
X60100Y-24700D01*
X60100Y-24700D02*
X62900Y-24700D01*
X62900Y-24700D02*
X62900Y-25900D01*
X60100Y-27100D02*
X60100Y-27400D01*
X60100Y-27400D02*
X60700Y-28300D01*
X60700Y-28300D02*
X62300Y-28300D01*
X62300Y-28300D02*
X62900Y-27400D01*
X62900Y-27400D02*
X62900Y-27100D01*
G54D12*
X58900Y-27250D02*
X56900Y-27250D01*
X56900Y-27250D02*
X56900Y-29050D01*
X56900Y-29050D02*
X58900Y-29050D01*
X58900Y-29050D02*
X58900Y-27250D01*
X58900Y-27850D02*
X58700Y-27850D01*
X58700Y-27850D02*
X58700Y-28350D01*
X58700Y-28350D02*
X58900Y-28350D01*
X51250Y-25750D02*
X51250Y-24850D01*
X51250Y-24850D02*
X50750Y-24850D01*
X50750Y-24850D02*
X50750Y-25750D01*
X50750Y-25750D02*
X51250Y-25750D01*
G54D11*
X51500Y-26250D02*
X51750Y-26500D01*
X51750Y-26500D02*
X51500Y-26750D01*
X51500Y-26250D02*
X51500Y-26750D01*
X51500Y-25000D02*
X51500Y-28000D01*
X51500Y-28000D02*
X54500Y-28000D01*
X54500Y-28000D02*
X54500Y-25000D01*
X54500Y-25000D02*
X51500Y-25000D01*
G54D12*
X46555Y-29440D02*
X46335Y-29440D01*
X47065Y-29265D02*
X46805Y-29005D01*
X47065Y-29205D02*
X46870Y-29005D01*
X46555Y-29695D02*
X46335Y-29695D01*
X46555Y-29185D02*
X46335Y-29185D01*
X47065Y-29440D02*
X47285Y-29440D01*
X47065Y-29695D02*
X47285Y-29695D01*
X47065Y-29185D02*
X47285Y-29185D01*
X46555Y-29005D02*
X46555Y-29875D01*
X46555Y-29875D02*
X47065Y-29875D01*
X47065Y-29875D02*
X47065Y-29005D01*
X47065Y-29005D02*
X46555Y-29005D01*
X49085Y-29721D02*
X49085Y-28539D01*
X49085Y-28539D02*
X48415Y-28539D01*
X48415Y-28539D02*
X48415Y-29721D01*
X48415Y-29721D02*
X49085Y-29721D01*
X49084Y-28795D02*
X48829Y-28540D01*
X49084Y-28735D02*
X48889Y-28540D01*
X48412Y-29130D02*
X48152Y-29130D01*
X48412Y-29505D02*
X48152Y-29505D01*
X48412Y-28755D02*
X48152Y-28755D01*
X49088Y-29130D02*
X49348Y-29130D01*
X49088Y-29505D02*
X49348Y-29505D01*
X49088Y-28755D02*
X49348Y-28755D01*
X66000Y-29600D02*
X66000Y-28700D01*
X66000Y-28700D02*
X65500Y-28700D01*
X65500Y-28700D02*
X65500Y-29600D01*
X65500Y-29600D02*
X66000Y-29600D01*
X66900Y-29600D02*
X66900Y-28700D01*
X66900Y-28700D02*
X66400Y-28700D01*
X66400Y-28700D02*
X66400Y-29600D01*
X66400Y-29600D02*
X66900Y-29600D01*
X64300Y-29400D02*
X65200Y-29400D01*
X65200Y-29400D02*
X65200Y-28900D01*
X65200Y-28900D02*
X64300Y-28900D01*
X64300Y-28900D02*
X64300Y-29400D01*
X67250Y-23050D02*
X67250Y-23950D01*
X67250Y-23950D02*
X67750Y-23950D01*
X67750Y-23950D02*
X67750Y-23050D01*
X67750Y-23050D02*
X67250Y-23050D01*
X67750Y-29950D02*
X67750Y-29050D01*
X67750Y-29050D02*
X67250Y-29050D01*
X67250Y-29050D02*
X67250Y-29950D01*
X67250Y-29950D02*
X67750Y-29950D01*
X66000Y-24250D02*
X66900Y-24250D01*
X66900Y-24250D02*
X66900Y-23750D01*
X66900Y-23750D02*
X66000Y-23750D01*
X66000Y-23750D02*
X66000Y-24250D01*
G54D14*
X66391Y-28310D02*
X66273Y-28310D01*
X66273Y-28310D02*
X66273Y-27858D01*
X66391Y-27858D02*
X66273Y-27858D01*
X66391Y-28310D02*
X66391Y-27858D01*
X66194Y-28310D02*
X66076Y-28310D01*
X66076Y-28310D02*
X66076Y-27858D01*
X66194Y-27858D02*
X66076Y-27858D01*
X66194Y-28310D02*
X66194Y-27858D01*
X65997Y-28310D02*
X65879Y-28310D01*
X65879Y-28310D02*
X65879Y-27858D01*
X65997Y-27858D02*
X65879Y-27858D01*
X65997Y-28310D02*
X65997Y-27858D01*
X65801Y-28310D02*
X65683Y-28310D01*
X65683Y-28310D02*
X65683Y-27858D01*
X65801Y-27858D02*
X65683Y-27858D01*
X65801Y-28310D02*
X65801Y-27858D01*
X65604Y-28310D02*
X65486Y-28310D01*
X65486Y-28310D02*
X65486Y-27858D01*
X65604Y-27858D02*
X65486Y-27858D01*
X65604Y-28310D02*
X65604Y-27858D01*
X65407Y-28310D02*
X65289Y-28310D01*
X65289Y-28310D02*
X65289Y-27858D01*
X65407Y-27858D02*
X65289Y-27858D01*
X65407Y-28310D02*
X65407Y-27858D01*
X65211Y-28310D02*
X65093Y-28310D01*
X65093Y-28310D02*
X65093Y-27858D01*
X65211Y-27858D02*
X65093Y-27858D01*
X65211Y-28310D02*
X65211Y-27858D01*
X65014Y-28310D02*
X64896Y-28310D01*
X64896Y-28310D02*
X64896Y-27858D01*
X65014Y-27858D02*
X64896Y-27858D01*
X65014Y-28310D02*
X65014Y-27858D01*
X64817Y-28310D02*
X64699Y-28310D01*
X64699Y-28310D02*
X64699Y-27858D01*
X64817Y-27858D02*
X64699Y-27858D01*
X64817Y-28310D02*
X64817Y-27858D01*
X64621Y-28310D02*
X64503Y-28310D01*
X64503Y-28310D02*
X64503Y-27858D01*
X64621Y-27858D02*
X64503Y-27858D01*
X64621Y-28310D02*
X64621Y-27858D01*
X64424Y-28310D02*
X64306Y-28310D01*
X64306Y-28310D02*
X64306Y-27858D01*
X64424Y-27858D02*
X64306Y-27858D01*
X64424Y-28310D02*
X64424Y-27858D01*
X64227Y-28310D02*
X64109Y-28310D01*
X64109Y-28310D02*
X64109Y-27858D01*
X64227Y-27858D02*
X64109Y-27858D01*
X64227Y-28310D02*
X64227Y-27858D01*
X63892Y-27641D02*
X63440Y-27641D01*
X63440Y-27641D02*
X63440Y-27523D01*
X63892Y-27523D02*
X63440Y-27523D01*
X63892Y-27641D02*
X63892Y-27523D01*
X63892Y-27444D02*
X63440Y-27444D01*
X63440Y-27444D02*
X63440Y-27326D01*
X63892Y-27326D02*
X63440Y-27326D01*
X63892Y-27444D02*
X63892Y-27326D01*
X63892Y-27247D02*
X63440Y-27247D01*
X63440Y-27247D02*
X63440Y-27129D01*
X63892Y-27129D02*
X63440Y-27129D01*
X63892Y-27247D02*
X63892Y-27129D01*
X63892Y-27051D02*
X63440Y-27051D01*
X63440Y-27051D02*
X63440Y-26933D01*
X63892Y-26933D02*
X63440Y-26933D01*
X63892Y-27051D02*
X63892Y-26933D01*
X63892Y-26854D02*
X63440Y-26854D01*
X63440Y-26854D02*
X63440Y-26736D01*
X63892Y-26736D02*
X63440Y-26736D01*
X63892Y-26854D02*
X63892Y-26736D01*
X63892Y-26657D02*
X63440Y-26657D01*
X63440Y-26657D02*
X63440Y-26539D01*
X63892Y-26539D02*
X63440Y-26539D01*
X63892Y-26657D02*
X63892Y-26539D01*
X63892Y-26461D02*
X63440Y-26461D01*
X63440Y-26461D02*
X63440Y-26343D01*
X63892Y-26343D02*
X63440Y-26343D01*
X63892Y-26461D02*
X63892Y-26343D01*
X63892Y-26264D02*
X63440Y-26264D01*
X63440Y-26264D02*
X63440Y-26146D01*
X63892Y-26146D02*
X63440Y-26146D01*
X63892Y-26264D02*
X63892Y-26146D01*
X63892Y-26067D02*
X63440Y-26067D01*
X63440Y-26067D02*
X63440Y-25949D01*
X63892Y-25949D02*
X63440Y-25949D01*
X63892Y-26067D02*
X63892Y-25949D01*
X63892Y-25871D02*
X63440Y-25871D01*
X63440Y-25871D02*
X63440Y-25753D01*
X63892Y-25753D02*
X63440Y-25753D01*
X63892Y-25871D02*
X63892Y-25753D01*
X63892Y-25674D02*
X63440Y-25674D01*
X63440Y-25674D02*
X63440Y-25556D01*
X63892Y-25556D02*
X63440Y-25556D01*
X63892Y-25674D02*
X63892Y-25556D01*
X63892Y-25477D02*
X63440Y-25477D01*
X63440Y-25477D02*
X63440Y-25359D01*
X63892Y-25359D02*
X63440Y-25359D01*
X63892Y-25477D02*
X63892Y-25359D01*
X64227Y-25142D02*
X64109Y-25142D01*
X64109Y-25142D02*
X64109Y-24690D01*
X64227Y-24690D02*
X64109Y-24690D01*
X64227Y-25142D02*
X64227Y-24690D01*
X64424Y-25142D02*
X64306Y-25142D01*
X64306Y-25142D02*
X64306Y-24690D01*
X64424Y-24690D02*
X64306Y-24690D01*
X64424Y-25142D02*
X64424Y-24690D01*
X64621Y-25142D02*
X64503Y-25142D01*
X64503Y-25142D02*
X64503Y-24690D01*
X64621Y-24690D02*
X64503Y-24690D01*
X64621Y-25142D02*
X64621Y-24690D01*
X64817Y-25142D02*
X64699Y-25142D01*
X64699Y-25142D02*
X64699Y-24690D01*
X64817Y-24690D02*
X64699Y-24690D01*
X64817Y-25142D02*
X64817Y-24690D01*
X65014Y-25142D02*
X64896Y-25142D01*
X64896Y-25142D02*
X64896Y-24690D01*
X65014Y-24690D02*
X64896Y-24690D01*
X65014Y-25142D02*
X65014Y-24690D01*
X65211Y-25142D02*
X65093Y-25142D01*
X65093Y-25142D02*
X65093Y-24690D01*
X65211Y-24690D02*
X65093Y-24690D01*
X65211Y-25142D02*
X65211Y-24690D01*
X65407Y-25142D02*
X65289Y-25142D01*
X65289Y-25142D02*
X65289Y-24690D01*
X65407Y-24690D02*
X65289Y-24690D01*
X65407Y-25142D02*
X65407Y-24690D01*
X65604Y-25142D02*
X65486Y-25142D01*
X65486Y-25142D02*
X65486Y-24690D01*
X65604Y-24690D02*
X65486Y-24690D01*
X65604Y-25142D02*
X65604Y-24690D01*
X65801Y-25142D02*
X65683Y-25142D01*
X65683Y-25142D02*
X65683Y-24690D01*
X65801Y-24690D02*
X65683Y-24690D01*
X65801Y-25142D02*
X65801Y-24690D01*
X65997Y-25142D02*
X65879Y-25142D01*
X65879Y-25142D02*
X65879Y-24690D01*
X65997Y-24690D02*
X65879Y-24690D01*
X65997Y-25142D02*
X65997Y-24690D01*
X66194Y-25142D02*
X66076Y-25142D01*
X66076Y-25142D02*
X66076Y-24690D01*
X66194Y-24690D02*
X66076Y-24690D01*
X66194Y-25142D02*
X66194Y-24690D01*
X66391Y-25142D02*
X66273Y-25142D01*
X66273Y-25142D02*
X66273Y-24690D01*
X66391Y-24690D02*
X66273Y-24690D01*
X66391Y-25142D02*
X66391Y-24690D01*
X67060Y-25477D02*
X66608Y-25477D01*
X66608Y-25477D02*
X66608Y-25359D01*
X67060Y-25359D02*
X66608Y-25359D01*
X67060Y-25477D02*
X67060Y-25359D01*
X67060Y-25674D02*
X66608Y-25674D01*
X66608Y-25674D02*
X66608Y-25556D01*
X67060Y-25556D02*
X66608Y-25556D01*
X67060Y-25674D02*
X67060Y-25556D01*
X67060Y-25871D02*
X66608Y-25871D01*
X66608Y-25871D02*
X66608Y-25753D01*
X67060Y-25753D02*
X66608Y-25753D01*
X67060Y-25871D02*
X67060Y-25753D01*
X67060Y-26067D02*
X66608Y-26067D01*
X66608Y-26067D02*
X66608Y-25949D01*
X67060Y-25949D02*
X66608Y-25949D01*
X67060Y-26067D02*
X67060Y-25949D01*
X67060Y-26264D02*
X66608Y-26264D01*
X66608Y-26264D02*
X66608Y-26146D01*
X67060Y-26146D02*
X66608Y-26146D01*
X67060Y-26264D02*
X67060Y-26146D01*
X67060Y-26461D02*
X66608Y-26461D01*
X66608Y-26461D02*
X66608Y-26343D01*
X67060Y-26343D02*
X66608Y-26343D01*
X67060Y-26461D02*
X67060Y-26343D01*
X67060Y-26657D02*
X66608Y-26657D01*
X66608Y-26657D02*
X66608Y-26539D01*
X67060Y-26539D02*
X66608Y-26539D01*
X67060Y-26657D02*
X67060Y-26539D01*
X67060Y-26854D02*
X66608Y-26854D01*
X66608Y-26854D02*
X66608Y-26736D01*
X67060Y-26736D02*
X66608Y-26736D01*
X67060Y-26854D02*
X67060Y-26736D01*
X67060Y-27051D02*
X66608Y-27051D01*
X66608Y-27051D02*
X66608Y-26933D01*
X67060Y-26933D02*
X66608Y-26933D01*
X67060Y-27051D02*
X67060Y-26933D01*
X67060Y-27247D02*
X66608Y-27247D01*
X66608Y-27247D02*
X66608Y-27129D01*
X67060Y-27129D02*
X66608Y-27129D01*
X67060Y-27247D02*
X67060Y-27129D01*
X67060Y-27444D02*
X66608Y-27444D01*
X66608Y-27444D02*
X66608Y-27326D01*
X67060Y-27326D02*
X66608Y-27326D01*
X67060Y-27444D02*
X67060Y-27326D01*
X67060Y-27641D02*
X66608Y-27641D01*
X66608Y-27641D02*
X66608Y-27523D01*
X67060Y-27523D02*
X66608Y-27523D01*
X67060Y-27641D02*
X67060Y-27523D01*
G54D13*
X63912Y-25241D02*
X63991Y-25162D01*
X63991Y-25162D02*
X66509Y-25162D01*
X66509Y-25162D02*
X66588Y-25241D01*
X66588Y-25241D02*
X66588Y-27759D01*
X66588Y-27759D02*
X66509Y-27838D01*
X66509Y-27838D02*
X63991Y-27838D01*
X63991Y-27838D02*
X63912Y-27759D01*
X63912Y-27759D02*
X63912Y-25241D01*
G54D15*
X66232Y-27385D02*
X66230Y-27403D01*
X66224Y-27421D01*
X66215Y-27438D01*
X66203Y-27453D01*
X66189Y-27465D01*
X66172Y-27474D01*
X66154Y-27480D01*
X66135Y-27481D01*
X66117Y-27480D01*
X66099Y-27474D01*
X66082Y-27466D01*
X66068Y-27454D01*
X66055Y-27439D01*
X66046Y-27423D01*
X66041Y-27405D01*
X66039Y-27386D01*
X66040Y-27368D01*
X66045Y-27350D01*
X66054Y-27333D01*
X66066Y-27318D01*
X66080Y-27306D01*
X66097Y-27297D01*
X66115Y-27291D01*
X66133Y-27289D01*
X66151Y-27290D01*
X66170Y-27295D01*
X66186Y-27304D01*
X66201Y-27315D01*
X66214Y-27330D01*
X66223Y-27346D01*
X66229Y-27364D01*
X66231Y-27383D01*
X66232Y-27385D01*
G54D13*
X69150Y-28450D02*
X69000Y-28450D01*
X67850Y-28450D02*
X68000Y-28450D01*
X67850Y-24550D02*
X68000Y-24550D01*
X69150Y-24550D02*
X69000Y-24550D01*
X69500Y-24250D02*
X69000Y-24250D01*
X67500Y-24250D02*
X68000Y-24250D01*
X67500Y-28750D02*
X68000Y-28750D01*
X69500Y-28750D02*
X69000Y-28750D01*
X67850Y-28450D02*
X67600Y-28200D01*
X67600Y-28200D02*
X67600Y-24800D01*
X67600Y-24800D02*
X67850Y-24550D01*
X69150Y-24550D02*
X69400Y-24800D01*
X69400Y-24800D02*
X69400Y-28200D01*
X69400Y-28200D02*
X69150Y-28450D01*
X67500Y-24250D02*
X67500Y-28750D01*
X69500Y-28750D02*
X69500Y-24250D01*
G54D16*
X47713Y-26430D02*
X47580Y-26370D01*
X47713Y-26327D02*
X47433Y-26327D01*
X47433Y-26395D01*
X47447Y-26413D01*
X47460Y-26421D01*
X47487Y-26430D01*
X47527Y-26430D01*
X47553Y-26421D01*
X47567Y-26413D01*
X47580Y-26395D01*
X47580Y-26327D01*
X47460Y-26498D02*
X47447Y-26507D01*
X47433Y-26524D01*
X47433Y-26567D01*
X47447Y-26584D01*
X47460Y-26593D01*
X47487Y-26601D01*
X47513Y-26601D01*
X47553Y-26593D01*
X47713Y-26490D01*
X47713Y-26601D01*
X47433Y-26712D02*
X47433Y-26729D01*
X47447Y-26746D01*
X47460Y-26755D01*
X47487Y-26764D01*
X47540Y-26772D01*
X47607Y-26772D01*
X47660Y-26764D01*
X47687Y-26755D01*
X47700Y-26746D01*
X47713Y-26729D01*
X47713Y-26712D01*
X47700Y-26695D01*
X47687Y-26686D01*
X47660Y-26678D01*
X47607Y-26669D01*
X47540Y-26669D01*
X47487Y-26678D01*
X47460Y-26686D01*
X47447Y-26695D01*
X47433Y-26712D01*
X47433Y-26935D02*
X47433Y-26849D01*
X47567Y-26840D01*
X47553Y-26849D01*
X47540Y-26866D01*
X47540Y-26909D01*
X47553Y-26926D01*
X47567Y-26935D01*
X47593Y-26943D01*
X47660Y-26943D01*
X47687Y-26935D01*
X47700Y-26926D01*
X47713Y-26909D01*
X47713Y-26866D01*
X47700Y-26849D01*
X47687Y-26840D01*
X48423Y-27020D02*
X48290Y-26960D01*
X48423Y-26917D02*
X48143Y-26917D01*
X48143Y-26985D01*
X48157Y-27003D01*
X48170Y-27011D01*
X48197Y-27020D01*
X48237Y-27020D01*
X48263Y-27011D01*
X48277Y-27003D01*
X48290Y-26985D01*
X48290Y-26917D01*
X48170Y-27088D02*
X48157Y-27097D01*
X48143Y-27114D01*
X48143Y-27157D01*
X48157Y-27174D01*
X48170Y-27183D01*
X48197Y-27191D01*
X48223Y-27191D01*
X48263Y-27183D01*
X48423Y-27080D01*
X48423Y-27191D01*
X48143Y-27302D02*
X48143Y-27319D01*
X48157Y-27336D01*
X48170Y-27345D01*
X48197Y-27354D01*
X48250Y-27362D01*
X48317Y-27362D01*
X48370Y-27354D01*
X48397Y-27345D01*
X48410Y-27336D01*
X48423Y-27319D01*
X48423Y-27302D01*
X48410Y-27285D01*
X48397Y-27276D01*
X48370Y-27268D01*
X48317Y-27259D01*
X48250Y-27259D01*
X48197Y-27268D01*
X48170Y-27276D01*
X48157Y-27285D01*
X48143Y-27302D01*
X48263Y-27465D02*
X48250Y-27447D01*
X48237Y-27439D01*
X48210Y-27430D01*
X48197Y-27430D01*
X48170Y-27439D01*
X48157Y-27447D01*
X48143Y-27465D01*
X48143Y-27499D01*
X48157Y-27516D01*
X48170Y-27525D01*
X48197Y-27533D01*
X48210Y-27533D01*
X48237Y-27525D01*
X48250Y-27516D01*
X48263Y-27499D01*
X48263Y-27465D01*
X48277Y-27447D01*
X48290Y-27439D01*
X48317Y-27430D01*
X48370Y-27430D01*
X48397Y-27439D01*
X48410Y-27447D01*
X48423Y-27465D01*
X48423Y-27499D01*
X48410Y-27516D01*
X48397Y-27525D01*
X48370Y-27533D01*
X48317Y-27533D01*
X48290Y-27525D01*
X48277Y-27516D01*
X48263Y-27499D01*
X60075Y-28538D02*
X60135Y-28405D01*
X60178Y-28538D02*
X60178Y-28258D01*
X60110Y-28258D01*
X60092Y-28272D01*
X60084Y-28285D01*
X60075Y-28312D01*
X60075Y-28352D01*
X60084Y-28378D01*
X60092Y-28392D01*
X60110Y-28405D01*
X60178Y-28405D01*
X60007Y-28285D02*
X59998Y-28272D01*
X59981Y-28258D01*
X59938Y-28258D01*
X59921Y-28272D01*
X59912Y-28285D01*
X59904Y-28312D01*
X59904Y-28338D01*
X59912Y-28378D01*
X60015Y-28538D01*
X59904Y-28538D01*
X59793Y-28258D02*
X59776Y-28258D01*
X59759Y-28272D01*
X59750Y-28285D01*
X59741Y-28312D01*
X59733Y-28365D01*
X59733Y-28432D01*
X59741Y-28485D01*
X59750Y-28512D01*
X59759Y-28525D01*
X59776Y-28538D01*
X59793Y-28538D01*
X59810Y-28525D01*
X59819Y-28512D01*
X59827Y-28485D01*
X59836Y-28432D01*
X59836Y-28365D01*
X59827Y-28312D01*
X59819Y-28285D01*
X59810Y-28272D01*
X59793Y-28258D01*
X59648Y-28538D02*
X59613Y-28538D01*
X59596Y-28525D01*
X59588Y-28512D01*
X59570Y-28472D01*
X59562Y-28418D01*
X59562Y-28312D01*
X59570Y-28285D01*
X59579Y-28272D01*
X59596Y-28258D01*
X59630Y-28258D01*
X59648Y-28272D01*
X59656Y-28285D01*
X59665Y-28312D01*
X59665Y-28378D01*
X59656Y-28405D01*
X59648Y-28418D01*
X59630Y-28432D01*
X59596Y-28432D01*
X59579Y-28418D01*
X59570Y-28405D01*
X59562Y-28378D01*
X51200Y-28512D02*
X51209Y-28521D01*
X51235Y-28531D01*
X51252Y-28531D01*
X51277Y-28521D01*
X51295Y-28502D01*
X51303Y-28483D01*
X51312Y-28445D01*
X51312Y-28417D01*
X51303Y-28379D01*
X51295Y-28360D01*
X51277Y-28340D01*
X51252Y-28331D01*
X51235Y-28331D01*
X51209Y-28340D01*
X51200Y-28350D01*
X51132Y-28350D02*
X51123Y-28340D01*
X51106Y-28331D01*
X51063Y-28331D01*
X51046Y-28340D01*
X51037Y-28350D01*
X51029Y-28369D01*
X51029Y-28388D01*
X51037Y-28417D01*
X51140Y-28531D01*
X51029Y-28531D01*
X50918Y-28331D02*
X50901Y-28331D01*
X50884Y-28340D01*
X50875Y-28350D01*
X50866Y-28369D01*
X50858Y-28407D01*
X50858Y-28455D01*
X50866Y-28493D01*
X50875Y-28512D01*
X50884Y-28521D01*
X50901Y-28531D01*
X50918Y-28531D01*
X50935Y-28521D01*
X50944Y-28512D01*
X50952Y-28493D01*
X50961Y-28455D01*
X50961Y-28407D01*
X50952Y-28369D01*
X50944Y-28350D01*
X50935Y-28340D01*
X50918Y-28331D01*
X50687Y-28531D02*
X50790Y-28531D01*
X50738Y-28531D02*
X50738Y-28331D01*
X50755Y-28360D01*
X50773Y-28379D01*
X50790Y-28388D01*
X49420Y-27562D02*
X49429Y-27571D01*
X49455Y-27581D01*
X49472Y-27581D01*
X49497Y-27571D01*
X49515Y-27552D01*
X49523Y-27533D01*
X49532Y-27495D01*
X49532Y-27467D01*
X49523Y-27429D01*
X49515Y-27410D01*
X49497Y-27390D01*
X49472Y-27381D01*
X49455Y-27381D01*
X49429Y-27390D01*
X49420Y-27400D01*
X49352Y-27400D02*
X49343Y-27390D01*
X49326Y-27381D01*
X49283Y-27381D01*
X49266Y-27390D01*
X49257Y-27400D01*
X49249Y-27419D01*
X49249Y-27438D01*
X49257Y-27467D01*
X49360Y-27581D01*
X49249Y-27581D01*
X49138Y-27381D02*
X49121Y-27381D01*
X49104Y-27390D01*
X49095Y-27400D01*
X49086Y-27419D01*
X49078Y-27457D01*
X49078Y-27505D01*
X49086Y-27543D01*
X49095Y-27562D01*
X49104Y-27571D01*
X49121Y-27581D01*
X49138Y-27581D01*
X49155Y-27571D01*
X49164Y-27562D01*
X49172Y-27543D01*
X49181Y-27505D01*
X49181Y-27457D01*
X49172Y-27419D01*
X49164Y-27400D01*
X49155Y-27390D01*
X49138Y-27381D01*
X49010Y-27400D02*
X49001Y-27390D01*
X48984Y-27381D01*
X48941Y-27381D01*
X48924Y-27390D01*
X48915Y-27400D01*
X48907Y-27419D01*
X48907Y-27438D01*
X48915Y-27467D01*
X49018Y-27581D01*
X48907Y-27581D01*
X49470Y-26172D02*
X49479Y-26181D01*
X49505Y-26191D01*
X49522Y-26191D01*
X49547Y-26181D01*
X49565Y-26162D01*
X49573Y-26143D01*
X49582Y-26105D01*
X49582Y-26077D01*
X49573Y-26039D01*
X49565Y-26020D01*
X49547Y-26000D01*
X49522Y-25991D01*
X49505Y-25991D01*
X49479Y-26000D01*
X49470Y-26010D01*
X49402Y-26010D02*
X49393Y-26000D01*
X49376Y-25991D01*
X49333Y-25991D01*
X49316Y-26000D01*
X49307Y-26010D01*
X49299Y-26029D01*
X49299Y-26048D01*
X49307Y-26077D01*
X49410Y-26191D01*
X49299Y-26191D01*
X49188Y-25991D02*
X49171Y-25991D01*
X49154Y-26000D01*
X49145Y-26010D01*
X49136Y-26029D01*
X49128Y-26067D01*
X49128Y-26115D01*
X49136Y-26153D01*
X49145Y-26172D01*
X49154Y-26181D01*
X49171Y-26191D01*
X49188Y-26191D01*
X49205Y-26181D01*
X49214Y-26172D01*
X49222Y-26153D01*
X49231Y-26115D01*
X49231Y-26067D01*
X49222Y-26029D01*
X49214Y-26010D01*
X49205Y-26000D01*
X49188Y-25991D01*
X49068Y-25991D02*
X48957Y-25991D01*
X49017Y-26067D01*
X48991Y-26067D01*
X48974Y-26077D01*
X48965Y-26086D01*
X48957Y-26105D01*
X48957Y-26153D01*
X48965Y-26172D01*
X48974Y-26181D01*
X48991Y-26191D01*
X49043Y-26191D01*
X49060Y-26181D01*
X49068Y-26172D01*
X49430Y-25502D02*
X49439Y-25511D01*
X49465Y-25521D01*
X49482Y-25521D01*
X49507Y-25511D01*
X49525Y-25492D01*
X49533Y-25473D01*
X49542Y-25435D01*
X49542Y-25407D01*
X49533Y-25369D01*
X49525Y-25350D01*
X49507Y-25330D01*
X49482Y-25321D01*
X49465Y-25321D01*
X49439Y-25330D01*
X49430Y-25340D01*
X49362Y-25340D02*
X49353Y-25330D01*
X49336Y-25321D01*
X49293Y-25321D01*
X49276Y-25330D01*
X49267Y-25340D01*
X49259Y-25359D01*
X49259Y-25378D01*
X49267Y-25407D01*
X49370Y-25521D01*
X49259Y-25521D01*
X49148Y-25321D02*
X49131Y-25321D01*
X49114Y-25330D01*
X49105Y-25340D01*
X49096Y-25359D01*
X49088Y-25397D01*
X49088Y-25445D01*
X49096Y-25483D01*
X49105Y-25502D01*
X49114Y-25511D01*
X49131Y-25521D01*
X49148Y-25521D01*
X49165Y-25511D01*
X49174Y-25502D01*
X49182Y-25483D01*
X49191Y-25445D01*
X49191Y-25397D01*
X49182Y-25359D01*
X49174Y-25340D01*
X49165Y-25330D01*
X49148Y-25321D01*
X48934Y-25388D02*
X48934Y-25521D01*
X48977Y-25311D02*
X49020Y-25454D01*
X48908Y-25454D01*
X50300Y-24512D02*
X50309Y-24521D01*
X50335Y-24531D01*
X50352Y-24531D01*
X50377Y-24521D01*
X50395Y-24502D01*
X50403Y-24483D01*
X50412Y-24445D01*
X50412Y-24417D01*
X50403Y-24379D01*
X50395Y-24360D01*
X50377Y-24340D01*
X50352Y-24331D01*
X50335Y-24331D01*
X50309Y-24340D01*
X50300Y-24350D01*
X50232Y-24350D02*
X50223Y-24340D01*
X50206Y-24331D01*
X50163Y-24331D01*
X50146Y-24340D01*
X50137Y-24350D01*
X50129Y-24369D01*
X50129Y-24388D01*
X50137Y-24417D01*
X50240Y-24531D01*
X50129Y-24531D01*
X50018Y-24331D02*
X50001Y-24331D01*
X49984Y-24340D01*
X49975Y-24350D01*
X49966Y-24369D01*
X49958Y-24407D01*
X49958Y-24455D01*
X49966Y-24493D01*
X49975Y-24512D01*
X49984Y-24521D01*
X50001Y-24531D01*
X50018Y-24531D01*
X50035Y-24521D01*
X50044Y-24512D01*
X50052Y-24493D01*
X50061Y-24455D01*
X50061Y-24407D01*
X50052Y-24369D01*
X50044Y-24350D01*
X50035Y-24340D01*
X50018Y-24331D01*
X49795Y-24331D02*
X49881Y-24331D01*
X49890Y-24426D01*
X49881Y-24417D01*
X49864Y-24407D01*
X49821Y-24407D01*
X49804Y-24417D01*
X49795Y-24426D01*
X49787Y-24445D01*
X49787Y-24493D01*
X49795Y-24512D01*
X49804Y-24521D01*
X49821Y-24531D01*
X49864Y-24531D01*
X49881Y-24521D01*
X49890Y-24512D01*
X51562Y-23050D02*
X51571Y-23041D01*
X51581Y-23015D01*
X51581Y-22998D01*
X51571Y-22973D01*
X51552Y-22955D01*
X51533Y-22947D01*
X51495Y-22938D01*
X51467Y-22938D01*
X51429Y-22947D01*
X51410Y-22955D01*
X51390Y-22973D01*
X51381Y-22998D01*
X51381Y-23015D01*
X51390Y-23041D01*
X51400Y-23050D01*
X51400Y-23118D02*
X51390Y-23127D01*
X51381Y-23144D01*
X51381Y-23187D01*
X51390Y-23204D01*
X51400Y-23213D01*
X51419Y-23221D01*
X51438Y-23221D01*
X51467Y-23213D01*
X51581Y-23110D01*
X51581Y-23221D01*
X51381Y-23332D02*
X51381Y-23349D01*
X51390Y-23366D01*
X51400Y-23375D01*
X51419Y-23384D01*
X51457Y-23392D01*
X51505Y-23392D01*
X51543Y-23384D01*
X51562Y-23375D01*
X51571Y-23366D01*
X51581Y-23349D01*
X51581Y-23332D01*
X51571Y-23315D01*
X51562Y-23306D01*
X51543Y-23298D01*
X51505Y-23289D01*
X51457Y-23289D01*
X51419Y-23298D01*
X51400Y-23306D01*
X51390Y-23315D01*
X51381Y-23332D01*
X51381Y-23546D02*
X51381Y-23512D01*
X51390Y-23495D01*
X51400Y-23486D01*
X51429Y-23469D01*
X51467Y-23460D01*
X51543Y-23460D01*
X51562Y-23469D01*
X51571Y-23477D01*
X51581Y-23495D01*
X51581Y-23529D01*
X51571Y-23546D01*
X51562Y-23555D01*
X51543Y-23563D01*
X51495Y-23563D01*
X51476Y-23555D01*
X51467Y-23546D01*
X51457Y-23529D01*
X51457Y-23495D01*
X51467Y-23477D01*
X51476Y-23469D01*
X51495Y-23460D01*
X52812Y-23050D02*
X52821Y-23041D01*
X52831Y-23015D01*
X52831Y-22998D01*
X52821Y-22973D01*
X52802Y-22955D01*
X52783Y-22947D01*
X52745Y-22938D01*
X52717Y-22938D01*
X52679Y-22947D01*
X52660Y-22955D01*
X52640Y-22973D01*
X52631Y-22998D01*
X52631Y-23015D01*
X52640Y-23041D01*
X52650Y-23050D01*
X52650Y-23118D02*
X52640Y-23127D01*
X52631Y-23144D01*
X52631Y-23187D01*
X52640Y-23204D01*
X52650Y-23213D01*
X52669Y-23221D01*
X52688Y-23221D01*
X52717Y-23213D01*
X52831Y-23110D01*
X52831Y-23221D01*
X52631Y-23332D02*
X52631Y-23349D01*
X52640Y-23366D01*
X52650Y-23375D01*
X52669Y-23384D01*
X52707Y-23392D01*
X52755Y-23392D01*
X52793Y-23384D01*
X52812Y-23375D01*
X52821Y-23366D01*
X52831Y-23349D01*
X52831Y-23332D01*
X52821Y-23315D01*
X52812Y-23306D01*
X52793Y-23298D01*
X52755Y-23289D01*
X52707Y-23289D01*
X52669Y-23298D01*
X52650Y-23306D01*
X52640Y-23315D01*
X52631Y-23332D01*
X52631Y-23452D02*
X52631Y-23572D01*
X52831Y-23495D01*
X50575Y-28412D02*
X50584Y-28421D01*
X50610Y-28431D01*
X50627Y-28431D01*
X50652Y-28421D01*
X50670Y-28402D01*
X50678Y-28383D01*
X50687Y-28345D01*
X50687Y-28317D01*
X50678Y-28279D01*
X50670Y-28260D01*
X50652Y-28240D01*
X50627Y-28231D01*
X50610Y-28231D01*
X50584Y-28240D01*
X50575Y-28250D01*
X50507Y-28250D02*
X50498Y-28240D01*
X50481Y-28231D01*
X50438Y-28231D01*
X50421Y-28240D01*
X50412Y-28250D01*
X50404Y-28269D01*
X50404Y-28288D01*
X50412Y-28317D01*
X50515Y-28431D01*
X50404Y-28431D01*
X50293Y-28231D02*
X50276Y-28231D01*
X50259Y-28240D01*
X50250Y-28250D01*
X50241Y-28269D01*
X50233Y-28307D01*
X50233Y-28355D01*
X50241Y-28393D01*
X50250Y-28412D01*
X50259Y-28421D01*
X50276Y-28431D01*
X50293Y-28431D01*
X50310Y-28421D01*
X50319Y-28412D01*
X50327Y-28393D01*
X50336Y-28355D01*
X50336Y-28307D01*
X50327Y-28269D01*
X50319Y-28250D01*
X50310Y-28240D01*
X50293Y-28231D01*
X50130Y-28317D02*
X50148Y-28307D01*
X50156Y-28298D01*
X50165Y-28279D01*
X50165Y-28269D01*
X50156Y-28250D01*
X50148Y-28240D01*
X50130Y-28231D01*
X50096Y-28231D01*
X50079Y-28240D01*
X50070Y-28250D01*
X50062Y-28269D01*
X50062Y-28279D01*
X50070Y-28298D01*
X50079Y-28307D01*
X50096Y-28317D01*
X50130Y-28317D01*
X50148Y-28326D01*
X50156Y-28336D01*
X50165Y-28355D01*
X50165Y-28393D01*
X50156Y-28412D01*
X50148Y-28421D01*
X50130Y-28431D01*
X50096Y-28431D01*
X50079Y-28421D01*
X50070Y-28412D01*
X50062Y-28393D01*
X50062Y-28355D01*
X50070Y-28336D01*
X50079Y-28326D01*
X50096Y-28317D01*
X56700Y-25312D02*
X56709Y-25321D01*
X56735Y-25331D01*
X56752Y-25331D01*
X56777Y-25321D01*
X56795Y-25302D01*
X56803Y-25283D01*
X56812Y-25245D01*
X56812Y-25217D01*
X56803Y-25179D01*
X56795Y-25160D01*
X56777Y-25140D01*
X56752Y-25131D01*
X56735Y-25131D01*
X56709Y-25140D01*
X56700Y-25150D01*
X56632Y-25150D02*
X56623Y-25140D01*
X56606Y-25131D01*
X56563Y-25131D01*
X56546Y-25140D01*
X56537Y-25150D01*
X56529Y-25169D01*
X56529Y-25188D01*
X56537Y-25217D01*
X56640Y-25331D01*
X56529Y-25331D01*
X56358Y-25331D02*
X56461Y-25331D01*
X56409Y-25331D02*
X56409Y-25131D01*
X56426Y-25160D01*
X56444Y-25179D01*
X56461Y-25188D01*
X56247Y-25131D02*
X56230Y-25131D01*
X56213Y-25140D01*
X56204Y-25150D01*
X56195Y-25169D01*
X56187Y-25207D01*
X56187Y-25255D01*
X56195Y-25293D01*
X56204Y-25312D01*
X56213Y-25321D01*
X56230Y-25331D01*
X56247Y-25331D01*
X56264Y-25321D01*
X56273Y-25312D01*
X56281Y-25293D01*
X56290Y-25255D01*
X56290Y-25207D01*
X56281Y-25169D01*
X56273Y-25150D01*
X56264Y-25140D01*
X56247Y-25131D01*
X55800Y-27962D02*
X55809Y-27971D01*
X55835Y-27981D01*
X55852Y-27981D01*
X55877Y-27971D01*
X55895Y-27952D01*
X55903Y-27933D01*
X55912Y-27895D01*
X55912Y-27867D01*
X55903Y-27829D01*
X55895Y-27810D01*
X55877Y-27790D01*
X55852Y-27781D01*
X55835Y-27781D01*
X55809Y-27790D01*
X55800Y-27800D01*
X55732Y-27800D02*
X55723Y-27790D01*
X55706Y-27781D01*
X55663Y-27781D01*
X55646Y-27790D01*
X55637Y-27800D01*
X55629Y-27819D01*
X55629Y-27838D01*
X55637Y-27867D01*
X55740Y-27981D01*
X55629Y-27981D01*
X55458Y-27981D02*
X55561Y-27981D01*
X55509Y-27981D02*
X55509Y-27781D01*
X55526Y-27810D01*
X55544Y-27829D01*
X55561Y-27838D01*
X55287Y-27981D02*
X55390Y-27981D01*
X55338Y-27981D02*
X55338Y-27781D01*
X55355Y-27810D01*
X55373Y-27829D01*
X55390Y-27838D01*
X55312Y-28800D02*
X55321Y-28791D01*
X55331Y-28765D01*
X55331Y-28748D01*
X55321Y-28723D01*
X55302Y-28705D01*
X55283Y-28697D01*
X55245Y-28688D01*
X55217Y-28688D01*
X55179Y-28697D01*
X55160Y-28705D01*
X55140Y-28723D01*
X55131Y-28748D01*
X55131Y-28765D01*
X55140Y-28791D01*
X55150Y-28800D01*
X55150Y-28868D02*
X55140Y-28877D01*
X55131Y-28894D01*
X55131Y-28937D01*
X55140Y-28954D01*
X55150Y-28963D01*
X55169Y-28971D01*
X55188Y-28971D01*
X55217Y-28963D01*
X55331Y-28860D01*
X55331Y-28971D01*
X55331Y-29142D02*
X55331Y-29039D01*
X55331Y-29091D02*
X55131Y-29091D01*
X55160Y-29074D01*
X55179Y-29056D01*
X55188Y-29039D01*
X55150Y-29210D02*
X55140Y-29219D01*
X55131Y-29236D01*
X55131Y-29279D01*
X55140Y-29296D01*
X55150Y-29305D01*
X55169Y-29313D01*
X55188Y-29313D01*
X55217Y-29305D01*
X55331Y-29202D01*
X55331Y-29313D01*
X53312Y-28800D02*
X53321Y-28791D01*
X53331Y-28765D01*
X53331Y-28748D01*
X53321Y-28723D01*
X53302Y-28705D01*
X53283Y-28697D01*
X53245Y-28688D01*
X53217Y-28688D01*
X53179Y-28697D01*
X53160Y-28705D01*
X53140Y-28723D01*
X53131Y-28748D01*
X53131Y-28765D01*
X53140Y-28791D01*
X53150Y-28800D01*
X53150Y-28868D02*
X53140Y-28877D01*
X53131Y-28894D01*
X53131Y-28937D01*
X53140Y-28954D01*
X53150Y-28963D01*
X53169Y-28971D01*
X53188Y-28971D01*
X53217Y-28963D01*
X53331Y-28860D01*
X53331Y-28971D01*
X53331Y-29142D02*
X53331Y-29039D01*
X53331Y-29091D02*
X53131Y-29091D01*
X53160Y-29074D01*
X53179Y-29056D01*
X53188Y-29039D01*
X53131Y-29202D02*
X53131Y-29313D01*
X53207Y-29253D01*
X53207Y-29279D01*
X53217Y-29296D01*
X53226Y-29305D01*
X53245Y-29313D01*
X53293Y-29313D01*
X53312Y-29305D01*
X53321Y-29296D01*
X53331Y-29279D01*
X53331Y-29227D01*
X53321Y-29210D01*
X53312Y-29202D01*
X49450Y-26912D02*
X49459Y-26921D01*
X49485Y-26931D01*
X49502Y-26931D01*
X49527Y-26921D01*
X49545Y-26902D01*
X49553Y-26883D01*
X49562Y-26845D01*
X49562Y-26817D01*
X49553Y-26779D01*
X49545Y-26760D01*
X49527Y-26740D01*
X49502Y-26731D01*
X49485Y-26731D01*
X49459Y-26740D01*
X49450Y-26750D01*
X49382Y-26750D02*
X49373Y-26740D01*
X49356Y-26731D01*
X49313Y-26731D01*
X49296Y-26740D01*
X49287Y-26750D01*
X49279Y-26769D01*
X49279Y-26788D01*
X49287Y-26817D01*
X49390Y-26931D01*
X49279Y-26931D01*
X49108Y-26931D02*
X49211Y-26931D01*
X49159Y-26931D02*
X49159Y-26731D01*
X49176Y-26760D01*
X49194Y-26779D01*
X49211Y-26788D01*
X48954Y-26798D02*
X48954Y-26931D01*
X48997Y-26721D02*
X49040Y-26864D01*
X48928Y-26864D01*
X56700Y-26312D02*
X56709Y-26321D01*
X56735Y-26331D01*
X56752Y-26331D01*
X56777Y-26321D01*
X56795Y-26302D01*
X56803Y-26283D01*
X56812Y-26245D01*
X56812Y-26217D01*
X56803Y-26179D01*
X56795Y-26160D01*
X56777Y-26140D01*
X56752Y-26131D01*
X56735Y-26131D01*
X56709Y-26140D01*
X56700Y-26150D01*
X56632Y-26150D02*
X56623Y-26140D01*
X56606Y-26131D01*
X56563Y-26131D01*
X56546Y-26140D01*
X56537Y-26150D01*
X56529Y-26169D01*
X56529Y-26188D01*
X56537Y-26217D01*
X56640Y-26331D01*
X56529Y-26331D01*
X56358Y-26331D02*
X56461Y-26331D01*
X56409Y-26331D02*
X56409Y-26131D01*
X56426Y-26160D01*
X56444Y-26179D01*
X56461Y-26188D01*
X56195Y-26131D02*
X56281Y-26131D01*
X56290Y-26226D01*
X56281Y-26217D01*
X56264Y-26207D01*
X56221Y-26207D01*
X56204Y-26217D01*
X56195Y-26226D01*
X56187Y-26245D01*
X56187Y-26293D01*
X56195Y-26312D01*
X56204Y-26321D01*
X56221Y-26331D01*
X56264Y-26331D01*
X56281Y-26321D01*
X56290Y-26312D01*
X56700Y-27062D02*
X56709Y-27071D01*
X56735Y-27081D01*
X56752Y-27081D01*
X56777Y-27071D01*
X56795Y-27052D01*
X56803Y-27033D01*
X56812Y-26995D01*
X56812Y-26967D01*
X56803Y-26929D01*
X56795Y-26910D01*
X56777Y-26890D01*
X56752Y-26881D01*
X56735Y-26881D01*
X56709Y-26890D01*
X56700Y-26900D01*
X56632Y-26900D02*
X56623Y-26890D01*
X56606Y-26881D01*
X56563Y-26881D01*
X56546Y-26890D01*
X56537Y-26900D01*
X56529Y-26919D01*
X56529Y-26938D01*
X56537Y-26967D01*
X56640Y-27081D01*
X56529Y-27081D01*
X56358Y-27081D02*
X56461Y-27081D01*
X56409Y-27081D02*
X56409Y-26881D01*
X56426Y-26910D01*
X56444Y-26929D01*
X56461Y-26938D01*
X56204Y-26881D02*
X56238Y-26881D01*
X56255Y-26890D01*
X56264Y-26900D01*
X56281Y-26929D01*
X56290Y-26967D01*
X56290Y-27043D01*
X56281Y-27062D01*
X56273Y-27071D01*
X56255Y-27081D01*
X56221Y-27081D01*
X56204Y-27071D01*
X56195Y-27062D01*
X56187Y-27043D01*
X56187Y-26995D01*
X56195Y-26976D01*
X56204Y-26967D01*
X56221Y-26957D01*
X56255Y-26957D01*
X56273Y-26967D01*
X56281Y-26976D01*
X56290Y-26995D01*
G54D13*
X62972Y-24874D02*
X63296Y-24874D01*
X63334Y-24893D01*
X63353Y-24912D01*
X63372Y-24950D01*
X63372Y-25027D01*
X63353Y-25065D01*
X63334Y-25084D01*
X63296Y-25103D01*
X62972Y-25103D01*
X63105Y-25465D02*
X63372Y-25465D01*
X62953Y-25369D02*
X63239Y-25274D01*
X63239Y-25522D01*
X62972Y-25750D02*
X62972Y-25789D01*
X62991Y-25827D01*
X63010Y-25846D01*
X63048Y-25865D01*
X63124Y-25884D01*
X63220Y-25884D01*
X63296Y-25865D01*
X63334Y-25846D01*
X63353Y-25827D01*
X63372Y-25789D01*
X63372Y-25750D01*
X63353Y-25712D01*
X63334Y-25693D01*
X63296Y-25674D01*
X63220Y-25655D01*
X63124Y-25655D01*
X63048Y-25674D01*
X63010Y-25693D01*
X62991Y-25712D01*
X62972Y-25750D01*
X63010Y-26036D02*
X62991Y-26055D01*
X62972Y-26093D01*
X62972Y-26189D01*
X62991Y-26227D01*
X63010Y-26246D01*
X63048Y-26265D01*
X63086Y-26265D01*
X63143Y-26246D01*
X63372Y-26017D01*
X63372Y-26265D01*
X63936Y-26878D02*
X63745Y-26878D01*
X63974Y-26992D02*
X63841Y-26592D01*
X63707Y-26992D01*
X63574Y-26992D02*
X63574Y-26592D01*
X63421Y-26592D01*
X63383Y-26611D01*
X63364Y-26630D01*
X63345Y-26668D01*
X63345Y-26725D01*
X63364Y-26763D01*
X63383Y-26782D01*
X63421Y-26801D01*
X63574Y-26801D01*
X62964Y-26992D02*
X63193Y-26992D01*
X63079Y-26992D02*
X63079Y-26592D01*
X63117Y-26649D01*
X63155Y-26687D01*
X63193Y-26706D01*
X62583Y-26992D02*
X62812Y-26992D01*
X62698Y-26992D02*
X62698Y-26592D01*
X62736Y-26649D01*
X62774Y-26687D01*
X62812Y-26706D01*
X62431Y-26630D02*
X62412Y-26611D01*
X62374Y-26592D01*
X62278Y-26592D01*
X62240Y-26611D01*
X62221Y-26630D01*
X62202Y-26668D01*
X62202Y-26706D01*
X62221Y-26763D01*
X62450Y-26992D01*
X62202Y-26992D01*
X62050Y-26630D02*
X62031Y-26611D01*
X61993Y-26592D01*
X61897Y-26592D01*
X61859Y-26611D01*
X61840Y-26630D01*
X61821Y-26668D01*
X61821Y-26706D01*
X61840Y-26763D01*
X62069Y-26992D01*
X61821Y-26992D01*
X61745Y-27030D02*
X61440Y-27030D01*
X61135Y-26992D02*
X61364Y-26992D01*
X61250Y-26992D02*
X61250Y-26592D01*
X61288Y-26649D01*
X61326Y-26687D01*
X61364Y-26706D01*
X60964Y-26954D02*
X60945Y-26973D01*
X60964Y-26992D01*
X60983Y-26973D01*
X60964Y-26954D01*
X60964Y-26992D01*
X60793Y-26630D02*
X60774Y-26611D01*
X60736Y-26592D01*
X60640Y-26592D01*
X60602Y-26611D01*
X60583Y-26630D01*
X60564Y-26668D01*
X60564Y-26706D01*
X60583Y-26763D01*
X60812Y-26992D01*
X60564Y-26992D01*
G54D12*
X59032Y-27504D02*
X59396Y-27504D01*
X59439Y-27523D01*
X59461Y-27542D01*
X59482Y-27580D01*
X59482Y-27657D01*
X59461Y-27695D01*
X59439Y-27714D01*
X59396Y-27733D01*
X59032Y-27733D01*
X59075Y-27904D02*
X59054Y-27923D01*
X59032Y-27961D01*
X59032Y-28057D01*
X59054Y-28095D01*
X59075Y-28114D01*
X59118Y-28133D01*
X59161Y-28133D01*
X59225Y-28114D01*
X59482Y-27885D01*
X59482Y-28133D01*
X59032Y-28380D02*
X59032Y-28419D01*
X59054Y-28457D01*
X59075Y-28476D01*
X59118Y-28495D01*
X59204Y-28514D01*
X59311Y-28514D01*
X59396Y-28495D01*
X59439Y-28476D01*
X59461Y-28457D01*
X59482Y-28419D01*
X59482Y-28380D01*
X59461Y-28342D01*
X59439Y-28323D01*
X59396Y-28304D01*
X59311Y-28285D01*
X59204Y-28285D01*
X59118Y-28304D01*
X59075Y-28323D01*
X59054Y-28342D01*
X59032Y-28380D01*
X59075Y-28666D02*
X59054Y-28685D01*
X59032Y-28723D01*
X59032Y-28819D01*
X59054Y-28857D01*
X59075Y-28876D01*
X59118Y-28895D01*
X59161Y-28895D01*
X59225Y-28876D01*
X59482Y-28647D01*
X59482Y-28895D01*
X60132Y-26905D02*
X59732Y-26905D01*
X60018Y-27039D01*
X59732Y-27172D01*
X60132Y-27172D01*
X59770Y-27343D02*
X59751Y-27362D01*
X59732Y-27400D01*
X59732Y-27496D01*
X59751Y-27534D01*
X59770Y-27553D01*
X59808Y-27572D01*
X59846Y-27572D01*
X59903Y-27553D01*
X60132Y-27324D01*
X60132Y-27572D01*
X59732Y-27934D02*
X59732Y-27743D01*
X59922Y-27724D01*
X59903Y-27743D01*
X59884Y-27781D01*
X59884Y-27877D01*
X59903Y-27915D01*
X59922Y-27934D01*
X59960Y-27953D01*
X60056Y-27953D01*
X60094Y-27934D01*
X60113Y-27915D01*
X60132Y-27877D01*
X60132Y-27781D01*
X60113Y-27743D01*
X60094Y-27724D01*
X60132Y-28124D02*
X59732Y-28124D01*
X59732Y-28277D01*
X59751Y-28315D01*
X59770Y-28334D01*
X59808Y-28353D01*
X59865Y-28353D01*
X59903Y-28334D01*
X59922Y-28315D01*
X59941Y-28277D01*
X59941Y-28124D01*
X59732Y-28486D02*
X60132Y-28753D01*
X59732Y-28753D02*
X60132Y-28486D01*
X59732Y-28867D02*
X60132Y-29134D01*
X59732Y-29134D02*
X60132Y-28867D01*
G54D16*
X51062Y-24300D02*
X51071Y-24291D01*
X51081Y-24265D01*
X51081Y-24248D01*
X51071Y-24223D01*
X51052Y-24205D01*
X51033Y-24197D01*
X50995Y-24188D01*
X50967Y-24188D01*
X50929Y-24197D01*
X50910Y-24205D01*
X50890Y-24223D01*
X50881Y-24248D01*
X50881Y-24265D01*
X50890Y-24291D01*
X50900Y-24300D01*
X50881Y-24360D02*
X50881Y-24471D01*
X50957Y-24411D01*
X50957Y-24437D01*
X50967Y-24454D01*
X50976Y-24463D01*
X50995Y-24471D01*
X51043Y-24471D01*
X51062Y-24463D01*
X51071Y-24454D01*
X51081Y-24437D01*
X51081Y-24385D01*
X51071Y-24368D01*
X51062Y-24360D01*
X50881Y-24582D02*
X50881Y-24599D01*
X50890Y-24616D01*
X50900Y-24625D01*
X50919Y-24634D01*
X50957Y-24642D01*
X51005Y-24642D01*
X51043Y-24634D01*
X51062Y-24625D01*
X51071Y-24616D01*
X51081Y-24599D01*
X51081Y-24582D01*
X51071Y-24565D01*
X51062Y-24556D01*
X51043Y-24548D01*
X51005Y-24539D01*
X50957Y-24539D01*
X50919Y-24548D01*
X50900Y-24556D01*
X50890Y-24565D01*
X50881Y-24582D01*
X51081Y-24813D02*
X51081Y-24710D01*
X51081Y-24762D02*
X50881Y-24762D01*
X50910Y-24745D01*
X50929Y-24727D01*
X50938Y-24710D01*
G54D17*
X54483Y-25021D02*
X54483Y-25135D01*
X54511Y-25193D01*
X54569Y-25250D01*
X54683Y-25278D01*
X54883Y-25278D01*
X54997Y-25250D01*
X55054Y-25193D01*
X55083Y-25135D01*
X55083Y-25021D01*
X55054Y-24964D01*
X54997Y-24907D01*
X54883Y-24878D01*
X54683Y-24878D01*
X54569Y-24907D01*
X54511Y-24964D01*
X54483Y-25021D01*
X55054Y-25507D02*
X55083Y-25593D01*
X55083Y-25736D01*
X55054Y-25793D01*
X55026Y-25822D01*
X54969Y-25850D01*
X54911Y-25850D01*
X54854Y-25822D01*
X54826Y-25793D01*
X54797Y-25736D01*
X54769Y-25622D01*
X54740Y-25564D01*
X54711Y-25536D01*
X54654Y-25507D01*
X54597Y-25507D01*
X54540Y-25536D01*
X54511Y-25564D01*
X54483Y-25622D01*
X54483Y-25764D01*
X54511Y-25850D01*
X55026Y-26450D02*
X55054Y-26421D01*
X55083Y-26335D01*
X55083Y-26278D01*
X55054Y-26193D01*
X54997Y-26135D01*
X54940Y-26107D01*
X54826Y-26078D01*
X54740Y-26078D01*
X54626Y-26107D01*
X54569Y-26135D01*
X54511Y-26193D01*
X54483Y-26278D01*
X54483Y-26335D01*
X54511Y-26421D01*
X54540Y-26450D01*
X54483Y-26650D02*
X54483Y-27021D01*
X54711Y-26821D01*
X54711Y-26907D01*
X54740Y-26964D01*
X54769Y-26993D01*
X54826Y-27021D01*
X54969Y-27021D01*
X55026Y-26993D01*
X55054Y-26964D01*
X55083Y-26907D01*
X55083Y-26735D01*
X55054Y-26678D01*
X55026Y-26650D01*
X54483Y-27392D02*
X54483Y-27449D01*
X54511Y-27506D01*
X54540Y-27535D01*
X54597Y-27564D01*
X54711Y-27592D01*
X54854Y-27592D01*
X54969Y-27564D01*
X55026Y-27535D01*
X55054Y-27506D01*
X55083Y-27449D01*
X55083Y-27392D01*
X55054Y-27335D01*
X55026Y-27306D01*
X54969Y-27278D01*
X54854Y-27249D01*
X54711Y-27249D01*
X54597Y-27278D01*
X54540Y-27306D01*
X54511Y-27335D01*
X54483Y-27392D01*
X55083Y-28163D02*
X55083Y-27820D01*
X55083Y-27992D02*
X54483Y-27992D01*
X54569Y-27935D01*
X54626Y-27877D01*
X54654Y-27820D01*
G54D18*
X47362Y-28740D02*
X47362Y-28835D01*
X47356Y-28847D01*
X47351Y-28852D01*
X47339Y-28858D01*
X47317Y-28858D01*
X47306Y-28852D01*
X47300Y-28847D01*
X47294Y-28835D01*
X47294Y-28740D01*
X47187Y-28779D02*
X47187Y-28858D01*
X47215Y-28734D02*
X47244Y-28818D01*
X47170Y-28818D01*
X47103Y-28740D02*
X47092Y-28740D01*
X47081Y-28745D01*
X47075Y-28751D01*
X47070Y-28762D01*
X47064Y-28785D01*
X47064Y-28813D01*
X47070Y-28835D01*
X47075Y-28847D01*
X47081Y-28852D01*
X47092Y-28858D01*
X47103Y-28858D01*
X47115Y-28852D01*
X47120Y-28847D01*
X47126Y-28835D01*
X47132Y-28813D01*
X47132Y-28785D01*
X47126Y-28762D01*
X47120Y-28751D01*
X47115Y-28745D01*
X47103Y-28740D01*
X47025Y-28740D02*
X46952Y-28740D01*
X46991Y-28785D01*
X46975Y-28785D01*
X46963Y-28790D01*
X46958Y-28796D01*
X46952Y-28807D01*
X46952Y-28835D01*
X46958Y-28847D01*
X46963Y-28852D01*
X46975Y-28858D01*
X47008Y-28858D01*
X47020Y-28852D01*
X47025Y-28847D01*
G54D19*
X48908Y-28202D02*
X48908Y-28362D01*
X48899Y-28380D01*
X48889Y-28390D01*
X48871Y-28399D01*
X48833Y-28399D01*
X48814Y-28390D01*
X48805Y-28380D01*
X48796Y-28362D01*
X48796Y-28202D01*
X48721Y-28202D02*
X48599Y-28202D01*
X48665Y-28277D01*
X48636Y-28277D01*
X48618Y-28287D01*
X48608Y-28296D01*
X48599Y-28315D01*
X48599Y-28362D01*
X48608Y-28380D01*
X48618Y-28390D01*
X48636Y-28399D01*
X48693Y-28399D01*
X48711Y-28390D01*
X48721Y-28380D01*
X48477Y-28202D02*
X48458Y-28202D01*
X48439Y-28212D01*
X48430Y-28221D01*
X48420Y-28240D01*
X48411Y-28277D01*
X48411Y-28324D01*
X48420Y-28362D01*
X48430Y-28380D01*
X48439Y-28390D01*
X48458Y-28399D01*
X48477Y-28399D01*
X48495Y-28390D01*
X48505Y-28380D01*
X48514Y-28362D01*
X48523Y-28324D01*
X48523Y-28277D01*
X48514Y-28240D01*
X48505Y-28221D01*
X48495Y-28212D01*
X48477Y-28202D01*
X48223Y-28399D02*
X48335Y-28399D01*
X48279Y-28399D02*
X48279Y-28202D01*
X48298Y-28230D01*
X48317Y-28249D01*
X48335Y-28259D01*
G54D16*
X65863Y-28950D02*
X65730Y-28890D01*
X65863Y-28847D02*
X65583Y-28847D01*
X65583Y-28915D01*
X65597Y-28933D01*
X65610Y-28941D01*
X65637Y-28950D01*
X65677Y-28950D01*
X65703Y-28941D01*
X65717Y-28933D01*
X65730Y-28915D01*
X65730Y-28847D01*
X65583Y-29010D02*
X65583Y-29130D01*
X65863Y-29053D01*
X65583Y-29232D02*
X65583Y-29249D01*
X65597Y-29266D01*
X65610Y-29275D01*
X65637Y-29284D01*
X65690Y-29292D01*
X65757Y-29292D01*
X65810Y-29284D01*
X65837Y-29275D01*
X65850Y-29266D01*
X65863Y-29249D01*
X65863Y-29232D01*
X65850Y-29215D01*
X65837Y-29206D01*
X65810Y-29198D01*
X65757Y-29189D01*
X65690Y-29189D01*
X65637Y-29198D01*
X65610Y-29206D01*
X65597Y-29215D01*
X65583Y-29232D01*
X65863Y-29463D02*
X65863Y-29360D01*
X65863Y-29412D02*
X65583Y-29412D01*
X65623Y-29395D01*
X65650Y-29377D01*
X65663Y-29360D01*
X66763Y-28950D02*
X66630Y-28890D01*
X66763Y-28847D02*
X66483Y-28847D01*
X66483Y-28915D01*
X66497Y-28933D01*
X66510Y-28941D01*
X66537Y-28950D01*
X66577Y-28950D01*
X66603Y-28941D01*
X66617Y-28933D01*
X66630Y-28915D01*
X66630Y-28847D01*
X66483Y-29010D02*
X66483Y-29130D01*
X66763Y-29053D01*
X66483Y-29232D02*
X66483Y-29249D01*
X66497Y-29266D01*
X66510Y-29275D01*
X66537Y-29284D01*
X66590Y-29292D01*
X66657Y-29292D01*
X66710Y-29284D01*
X66737Y-29275D01*
X66750Y-29266D01*
X66763Y-29249D01*
X66763Y-29232D01*
X66750Y-29215D01*
X66737Y-29206D01*
X66710Y-29198D01*
X66657Y-29189D01*
X66590Y-29189D01*
X66537Y-29198D01*
X66510Y-29206D01*
X66497Y-29215D01*
X66483Y-29232D01*
X66510Y-29360D02*
X66497Y-29369D01*
X66483Y-29386D01*
X66483Y-29429D01*
X66497Y-29446D01*
X66510Y-29455D01*
X66537Y-29463D01*
X66563Y-29463D01*
X66603Y-29455D01*
X66763Y-29352D01*
X66763Y-29463D01*
X64950Y-29263D02*
X65010Y-29130D01*
X65053Y-29263D02*
X65053Y-28983D01*
X64985Y-28983D01*
X64967Y-28997D01*
X64959Y-29010D01*
X64950Y-29037D01*
X64950Y-29077D01*
X64959Y-29103D01*
X64967Y-29117D01*
X64985Y-29130D01*
X65053Y-29130D01*
X64890Y-28983D02*
X64770Y-28983D01*
X64847Y-29263D01*
X64668Y-28983D02*
X64651Y-28983D01*
X64634Y-28997D01*
X64625Y-29010D01*
X64616Y-29037D01*
X64608Y-29090D01*
X64608Y-29157D01*
X64616Y-29210D01*
X64625Y-29237D01*
X64634Y-29250D01*
X64651Y-29263D01*
X64668Y-29263D01*
X64685Y-29250D01*
X64694Y-29237D01*
X64702Y-29210D01*
X64711Y-29157D01*
X64711Y-29090D01*
X64702Y-29037D01*
X64694Y-29010D01*
X64685Y-28997D01*
X64668Y-28983D01*
X64548Y-28983D02*
X64437Y-28983D01*
X64497Y-29090D01*
X64471Y-29090D01*
X64454Y-29103D01*
X64445Y-29117D01*
X64437Y-29143D01*
X64437Y-29210D01*
X64445Y-29237D01*
X64454Y-29250D01*
X64471Y-29263D01*
X64523Y-29263D01*
X64540Y-29250D01*
X64548Y-29237D01*
X67562Y-23300D02*
X67571Y-23291D01*
X67581Y-23265D01*
X67581Y-23248D01*
X67571Y-23223D01*
X67552Y-23205D01*
X67533Y-23197D01*
X67495Y-23188D01*
X67467Y-23188D01*
X67429Y-23197D01*
X67410Y-23205D01*
X67390Y-23223D01*
X67381Y-23248D01*
X67381Y-23265D01*
X67390Y-23291D01*
X67400Y-23300D01*
X67381Y-23360D02*
X67381Y-23480D01*
X67581Y-23403D01*
X67381Y-23582D02*
X67381Y-23599D01*
X67390Y-23616D01*
X67400Y-23625D01*
X67419Y-23634D01*
X67457Y-23642D01*
X67505Y-23642D01*
X67543Y-23634D01*
X67562Y-23625D01*
X67571Y-23616D01*
X67581Y-23599D01*
X67581Y-23582D01*
X67571Y-23565D01*
X67562Y-23556D01*
X67543Y-23548D01*
X67505Y-23539D01*
X67457Y-23539D01*
X67419Y-23548D01*
X67400Y-23556D01*
X67390Y-23565D01*
X67381Y-23582D01*
X67581Y-23813D02*
X67581Y-23710D01*
X67581Y-23762D02*
X67381Y-23762D01*
X67410Y-23745D01*
X67429Y-23727D01*
X67438Y-23710D01*
X67562Y-29300D02*
X67571Y-29291D01*
X67581Y-29265D01*
X67581Y-29248D01*
X67571Y-29223D01*
X67552Y-29205D01*
X67533Y-29197D01*
X67495Y-29188D01*
X67467Y-29188D01*
X67429Y-29197D01*
X67410Y-29205D01*
X67390Y-29223D01*
X67381Y-29248D01*
X67381Y-29265D01*
X67390Y-29291D01*
X67400Y-29300D01*
X67381Y-29360D02*
X67381Y-29480D01*
X67581Y-29403D01*
X67381Y-29582D02*
X67381Y-29599D01*
X67390Y-29616D01*
X67400Y-29625D01*
X67419Y-29634D01*
X67457Y-29642D01*
X67505Y-29642D01*
X67543Y-29634D01*
X67562Y-29625D01*
X67571Y-29616D01*
X67581Y-29599D01*
X67581Y-29582D01*
X67571Y-29565D01*
X67562Y-29556D01*
X67543Y-29548D01*
X67505Y-29539D01*
X67457Y-29539D01*
X67419Y-29548D01*
X67400Y-29556D01*
X67390Y-29565D01*
X67381Y-29582D01*
X67400Y-29710D02*
X67390Y-29719D01*
X67381Y-29736D01*
X67381Y-29779D01*
X67390Y-29796D01*
X67400Y-29805D01*
X67419Y-29813D01*
X67438Y-29813D01*
X67467Y-29805D01*
X67581Y-29702D01*
X67581Y-29813D01*
X66650Y-24062D02*
X66659Y-24071D01*
X66685Y-24081D01*
X66702Y-24081D01*
X66727Y-24071D01*
X66745Y-24052D01*
X66753Y-24033D01*
X66762Y-23995D01*
X66762Y-23967D01*
X66753Y-23929D01*
X66745Y-23910D01*
X66727Y-23890D01*
X66702Y-23881D01*
X66685Y-23881D01*
X66659Y-23890D01*
X66650Y-23900D01*
X66590Y-23881D02*
X66470Y-23881D01*
X66547Y-24081D01*
X66368Y-23881D02*
X66351Y-23881D01*
X66334Y-23890D01*
X66325Y-23900D01*
X66316Y-23919D01*
X66308Y-23957D01*
X66308Y-24005D01*
X66316Y-24043D01*
X66325Y-24062D01*
X66334Y-24071D01*
X66351Y-24081D01*
X66368Y-24081D01*
X66385Y-24071D01*
X66394Y-24062D01*
X66402Y-24043D01*
X66411Y-24005D01*
X66411Y-23957D01*
X66402Y-23919D01*
X66394Y-23900D01*
X66385Y-23890D01*
X66368Y-23881D01*
X66248Y-23881D02*
X66137Y-23881D01*
X66197Y-23957D01*
X66171Y-23957D01*
X66154Y-23967D01*
X66145Y-23976D01*
X66137Y-23995D01*
X66137Y-24043D01*
X66145Y-24062D01*
X66154Y-24071D01*
X66171Y-24081D01*
X66223Y-24081D01*
X66240Y-24071D01*
X66248Y-24062D01*
G54D20*
X67452Y-25893D02*
X67857Y-25893D01*
X67905Y-25917D01*
X67929Y-25941D01*
X67952Y-25988D01*
X67952Y-26084D01*
X67929Y-26131D01*
X67905Y-26155D01*
X67857Y-26179D01*
X67452Y-26179D01*
X67452Y-26369D02*
X67452Y-26703D01*
X67952Y-26488D01*
X67452Y-26988D02*
X67452Y-27036D01*
X67476Y-27084D01*
X67500Y-27107D01*
X67548Y-27131D01*
X67643Y-27155D01*
X67762Y-27155D01*
X67857Y-27131D01*
X67905Y-27107D01*
X67929Y-27084D01*
X67952Y-27036D01*
X67952Y-26988D01*
X67929Y-26941D01*
X67905Y-26917D01*
X67857Y-26893D01*
X67762Y-26869D01*
X67643Y-26869D01*
X67548Y-26893D01*
X67500Y-26917D01*
X67476Y-26941D01*
X67452Y-26988D01*
X67952Y-27631D02*
X67952Y-27345D01*
X67952Y-27488D02*
X67452Y-27488D01*
X67524Y-27440D01*
X67571Y-27393D01*
X67595Y-27345D01*
X62690Y-25179D02*
X62690Y-25012D01*
X62952Y-25012D02*
X62452Y-25012D01*
X62452Y-25250D01*
X62452Y-25370D02*
X62452Y-25655D01*
X62952Y-25512D02*
X62452Y-25512D01*
X62500Y-25798D02*
X62476Y-25822D01*
X62452Y-25870D01*
X62452Y-25989D01*
X62476Y-26036D01*
X62500Y-26060D01*
X62548Y-26084D01*
X62595Y-26084D01*
X62667Y-26060D01*
X62952Y-25774D01*
X62952Y-26084D01*
X62500Y-26274D02*
X62476Y-26298D01*
X62452Y-26346D01*
X62452Y-26465D01*
X62476Y-26512D01*
X62500Y-26536D01*
X62548Y-26560D01*
X62595Y-26560D01*
X62667Y-26536D01*
X62952Y-26250D01*
X62952Y-26560D01*
X62452Y-26726D02*
X62452Y-27036D01*
X62643Y-26869D01*
X62643Y-26941D01*
X62667Y-26988D01*
X62690Y-27012D01*
X62738Y-27036D01*
X62857Y-27036D01*
X62905Y-27012D01*
X62929Y-26988D01*
X62952Y-26941D01*
X62952Y-26798D01*
X62929Y-26750D01*
X62905Y-26726D01*
X62500Y-27226D02*
X62476Y-27250D01*
X62452Y-27298D01*
X62452Y-27417D01*
X62476Y-27464D01*
X62500Y-27488D01*
X62548Y-27512D01*
X62595Y-27512D01*
X62667Y-27488D01*
X62952Y-27202D01*
X62952Y-27512D01*
X62952Y-27726D02*
X62452Y-27726D01*
X62452Y-27845D01*
X62476Y-27917D01*
X62524Y-27964D01*
X62571Y-27988D01*
X62667Y-28012D01*
X62738Y-28012D01*
X62833Y-27988D01*
X62881Y-27964D01*
X62929Y-27917D01*
X62952Y-27845D01*
X62952Y-27726D01*
G54D13*
X68670Y-25754D02*
X69020Y-25987D01*
X68670Y-25987D02*
X69020Y-25754D01*
X68670Y-26087D02*
X68670Y-26320D01*
X69020Y-26170D01*
X68670Y-26520D02*
X68670Y-26553D01*
X68686Y-26587D01*
X68703Y-26603D01*
X68736Y-26620D01*
X68803Y-26637D01*
X68886Y-26637D01*
X68953Y-26620D01*
X68986Y-26603D01*
X69003Y-26587D01*
X69020Y-26553D01*
X69020Y-26520D01*
X69003Y-26487D01*
X68986Y-26470D01*
X68953Y-26453D01*
X68886Y-26437D01*
X68803Y-26437D01*
X68736Y-26453D01*
X68703Y-26470D01*
X68686Y-26487D01*
X68670Y-26520D01*
X69020Y-26970D02*
X69020Y-26770D01*
X69020Y-26870D02*
X68670Y-26870D01*
X68720Y-26836D01*
X68753Y-26803D01*
X68770Y-26770D01*
X67990Y-26000D02*
X67990Y-25934D01*
X68006Y-25900D01*
X68023Y-25884D01*
X68073Y-25850D01*
X68140Y-25834D01*
X68273Y-25834D01*
X68306Y-25850D01*
X68323Y-25867D01*
X68340Y-25900D01*
X68340Y-25967D01*
X68323Y-26000D01*
X68306Y-26017D01*
X68273Y-26034D01*
X68190Y-26034D01*
X68156Y-26017D01*
X68140Y-26000D01*
X68123Y-25967D01*
X68123Y-25900D01*
X68140Y-25867D01*
X68156Y-25850D01*
X68190Y-25834D01*
X68340Y-26183D02*
X67990Y-26183D01*
X68240Y-26300D01*
X67990Y-26417D01*
X68340Y-26417D01*
X68340Y-26583D02*
X67990Y-26583D01*
X68156Y-26583D02*
X68156Y-26783D01*
X68340Y-26783D02*
X67990Y-26783D01*
X68106Y-26917D02*
X68106Y-27100D01*
X68340Y-26917D01*
X68340Y-27100D01*
M02*
