G04 (created by PCBNEW-RS274X (2012-01-19 BZR 3256)-stable) date Thu 07 Mar 2013 02:54:08 AM COT*
G01*
G70*
G90*
%MOIN*%
G04 Gerber Fmt 3.4, Leading zero omitted, Abs format*
%FSLAX34Y34*%
G04 APERTURE LIST*
%ADD10C,0.006000*%
%ADD11C,0.015000*%
%ADD12R,0.065000X0.045000*%
%ADD13R,0.045000X0.065000*%
%ADD14C,0.065400*%
%ADD15R,0.164000X0.100000*%
%ADD16R,0.060000X0.100000*%
%ADD17R,0.040000X0.065000*%
%ADD18R,0.075000X0.120000*%
%ADD19R,0.046000X0.036000*%
%ADD20R,0.059400X0.047200*%
%ADD21R,0.031800X0.067200*%
%ADD22R,0.067200X0.031800*%
%ADD23R,0.098700X0.236500*%
%ADD24R,0.080000X0.080000*%
%ADD25C,0.080000*%
%ADD26C,0.090000*%
G04 APERTURE END LIST*
G54D10*
G54D11*
X44250Y-31250D02*
X44500Y-31250D01*
X44250Y-21750D02*
X44250Y-31250D01*
X69750Y-21750D02*
X69750Y-22000D01*
X44250Y-21750D02*
X69750Y-21750D01*
X69750Y-31250D02*
X44250Y-31250D01*
X69750Y-21250D02*
X69750Y-31250D01*
G54D12*
X47650Y-26050D03*
X47650Y-25450D03*
X48300Y-26650D03*
X48300Y-26050D03*
G54D13*
X60225Y-28975D03*
X59625Y-28975D03*
X50400Y-28450D03*
X49800Y-28450D03*
X50400Y-27500D03*
X49800Y-27500D03*
X50400Y-26100D03*
X49800Y-26100D03*
X50400Y-25450D03*
X49800Y-25450D03*
X50400Y-24450D03*
X49800Y-24450D03*
G54D12*
X51500Y-23950D03*
X51500Y-24550D03*
X52650Y-23950D03*
X52650Y-24550D03*
G54D13*
X51075Y-28400D03*
X51675Y-28400D03*
X55900Y-25200D03*
X55300Y-25200D03*
X55900Y-27900D03*
X55300Y-27900D03*
G54D12*
X54750Y-29350D03*
X54750Y-28750D03*
X53700Y-29350D03*
X53700Y-28750D03*
G54D13*
X50400Y-26800D03*
X49800Y-26800D03*
X55900Y-26100D03*
X55300Y-26100D03*
X55900Y-27000D03*
X55300Y-27000D03*
G54D14*
X67744Y-25634D03*
X67744Y-27366D03*
G54D15*
X61500Y-27800D03*
G54D16*
X61500Y-25200D03*
X62400Y-25200D03*
X60600Y-25200D03*
G54D17*
X58650Y-26900D03*
X58150Y-26900D03*
X57650Y-26900D03*
X57150Y-26900D03*
X57150Y-29400D03*
X57650Y-29400D03*
X58150Y-29400D03*
X58650Y-29400D03*
G54D12*
X51000Y-25600D03*
X51000Y-25000D03*
G54D18*
X52000Y-25750D03*
X53000Y-25750D03*
X54000Y-25750D03*
X54000Y-27250D03*
X53000Y-27250D03*
X52000Y-27250D03*
G54D19*
X47210Y-29180D03*
X47210Y-29700D03*
X47210Y-29440D03*
X46410Y-29700D03*
X46410Y-29180D03*
X46410Y-29440D03*
G54D20*
X49262Y-28756D03*
X49262Y-29504D03*
X49262Y-29130D03*
X48238Y-29504D03*
X48238Y-28756D03*
X48238Y-29130D03*
G54D12*
X65750Y-29450D03*
X65750Y-28850D03*
X66650Y-29450D03*
X66650Y-28850D03*
G54D13*
X64450Y-29150D03*
X65050Y-29150D03*
G54D12*
X67500Y-23200D03*
X67500Y-23800D03*
X67500Y-29800D03*
X67500Y-29200D03*
G54D13*
X66150Y-24000D03*
X66750Y-24000D03*
G54D21*
X66332Y-28133D03*
X66135Y-28133D03*
X65938Y-28133D03*
X65742Y-28133D03*
X65545Y-28133D03*
X65348Y-28133D03*
X65152Y-28133D03*
X64955Y-28133D03*
X64758Y-28133D03*
X64562Y-28133D03*
X64365Y-28133D03*
X64168Y-28133D03*
G54D22*
X63617Y-27582D03*
X63617Y-27385D03*
X63617Y-27188D03*
X63617Y-26992D03*
X63617Y-26795D03*
X63617Y-26598D03*
X63617Y-26402D03*
X63617Y-26205D03*
X63617Y-26008D03*
X63617Y-25812D03*
X63617Y-25615D03*
X63617Y-25418D03*
G54D21*
X64168Y-24867D03*
X64365Y-24867D03*
X64562Y-24867D03*
X64758Y-24867D03*
X64955Y-24867D03*
X65152Y-24867D03*
X65348Y-24867D03*
X65545Y-24867D03*
X65742Y-24867D03*
X65938Y-24867D03*
X66135Y-24867D03*
X66332Y-24867D03*
G54D22*
X66883Y-25418D03*
X66883Y-25615D03*
X66883Y-25812D03*
X66883Y-26008D03*
X66883Y-26205D03*
X66883Y-26402D03*
X66883Y-26598D03*
X66883Y-26795D03*
X66883Y-26992D03*
X66883Y-27188D03*
X66883Y-27385D03*
X66883Y-27582D03*
G54D23*
X68500Y-28350D03*
X68500Y-24650D03*
G54D24*
X69000Y-22500D03*
G54D25*
X68000Y-22500D03*
X67000Y-22500D03*
X66000Y-22500D03*
X65000Y-22500D03*
X64000Y-22500D03*
X63000Y-22500D03*
X62000Y-22500D03*
X61000Y-22500D03*
X60000Y-22500D03*
X59000Y-22500D03*
X58000Y-22500D03*
X57000Y-22500D03*
X56000Y-22500D03*
X55000Y-22500D03*
X54000Y-22500D03*
X53000Y-22500D03*
X52000Y-22500D03*
X51000Y-22500D03*
X50000Y-22500D03*
X49000Y-22500D03*
X48000Y-22500D03*
X47000Y-22500D03*
X46000Y-22500D03*
G54D26*
X45000Y-22500D03*
G54D24*
X69000Y-30500D03*
G54D25*
X68000Y-30500D03*
X67000Y-30500D03*
X66000Y-30500D03*
X65000Y-30500D03*
X64000Y-30500D03*
X63000Y-30500D03*
X62000Y-30500D03*
X61000Y-30500D03*
X60000Y-30500D03*
X59000Y-30500D03*
X58000Y-30500D03*
X57000Y-30500D03*
X56000Y-30500D03*
X55000Y-30500D03*
X54000Y-30500D03*
X53000Y-30500D03*
X52000Y-30500D03*
X51000Y-30500D03*
X50000Y-30500D03*
X49000Y-30500D03*
X48000Y-30500D03*
X47000Y-30500D03*
X46000Y-30500D03*
G54D26*
X45000Y-30500D03*
M02*
