G04 (created by PCBNEW-RS274X (2012-01-19 BZR 3256)-stable) date Thu 07 Mar 2013 02:54:08 AM COT*
G01*
G70*
G90*
%MOIN*%
G04 Gerber Fmt 3.4, Leading zero omitted, Abs format*
%FSLAX34Y34*%
G04 APERTURE LIST*
%ADD10C,0.006000*%
%ADD11C,0.005000*%
%ADD12C,0.015000*%
%ADD13R,0.010000X0.040000*%
%ADD14R,0.040000X0.010000*%
%ADD15R,0.025000X0.045000*%
%ADD16R,0.047200X0.047200*%
%ADD17C,0.045400*%
%ADD18R,0.063000X0.021700*%
%ADD19R,0.090600X0.086600*%
%ADD20R,0.144000X0.080000*%
%ADD21R,0.040000X0.080000*%
%ADD22R,0.039400X0.039400*%
%ADD23R,0.045000X0.025000*%
%ADD24R,0.060000X0.060000*%
%ADD25C,0.060000*%
%ADD26C,0.070000*%
%ADD27C,0.031500*%
%ADD28C,0.009000*%
%ADD29C,0.014000*%
%ADD30C,0.010000*%
G04 APERTURE END LIST*
G54D10*
G54D11*
X44821Y-28443D02*
X44831Y-28400D01*
X44831Y-28329D01*
X44821Y-28300D01*
X44812Y-28286D01*
X44793Y-28271D01*
X44774Y-28271D01*
X44755Y-28286D01*
X44745Y-28300D01*
X44736Y-28329D01*
X44726Y-28386D01*
X44717Y-28414D01*
X44707Y-28429D01*
X44688Y-28443D01*
X44669Y-28443D01*
X44650Y-28429D01*
X44640Y-28414D01*
X44631Y-28386D01*
X44631Y-28314D01*
X44640Y-28271D01*
X44831Y-28143D02*
X44631Y-28143D01*
X44831Y-28014D02*
X44726Y-28014D01*
X44707Y-28028D01*
X44698Y-28057D01*
X44698Y-28100D01*
X44707Y-28128D01*
X44717Y-28143D01*
X44831Y-27743D02*
X44726Y-27743D01*
X44707Y-27757D01*
X44698Y-27786D01*
X44698Y-27843D01*
X44707Y-27872D01*
X44821Y-27743D02*
X44831Y-27772D01*
X44831Y-27843D01*
X44821Y-27872D01*
X44802Y-27886D01*
X44783Y-27886D01*
X44764Y-27872D01*
X44755Y-27843D01*
X44755Y-27772D01*
X44745Y-27743D01*
X44831Y-27601D02*
X44698Y-27601D01*
X44736Y-27601D02*
X44717Y-27586D01*
X44707Y-27572D01*
X44698Y-27543D01*
X44698Y-27515D01*
X44831Y-27415D02*
X44631Y-27415D01*
X44755Y-27386D02*
X44831Y-27300D01*
X44698Y-27300D02*
X44774Y-27415D01*
X44726Y-27072D02*
X44736Y-27029D01*
X44745Y-27014D01*
X44764Y-27000D01*
X44793Y-27000D01*
X44812Y-27014D01*
X44821Y-27029D01*
X44831Y-27057D01*
X44831Y-27172D01*
X44631Y-27172D01*
X44631Y-27072D01*
X44640Y-27043D01*
X44650Y-27029D01*
X44669Y-27014D01*
X44688Y-27014D01*
X44707Y-27029D01*
X44717Y-27043D01*
X44726Y-27072D01*
X44726Y-27172D01*
X44831Y-26829D02*
X44821Y-26857D01*
X44812Y-26872D01*
X44793Y-26886D01*
X44736Y-26886D01*
X44717Y-26872D01*
X44707Y-26857D01*
X44698Y-26829D01*
X44698Y-26786D01*
X44707Y-26757D01*
X44717Y-26743D01*
X44736Y-26729D01*
X44793Y-26729D01*
X44812Y-26743D01*
X44821Y-26757D01*
X44831Y-26786D01*
X44831Y-26829D01*
X44831Y-26472D02*
X44726Y-26472D01*
X44707Y-26486D01*
X44698Y-26515D01*
X44698Y-26572D01*
X44707Y-26601D01*
X44821Y-26472D02*
X44831Y-26501D01*
X44831Y-26572D01*
X44821Y-26601D01*
X44802Y-26615D01*
X44783Y-26615D01*
X44764Y-26601D01*
X44755Y-26572D01*
X44755Y-26501D01*
X44745Y-26472D01*
X44831Y-26330D02*
X44698Y-26330D01*
X44736Y-26330D02*
X44717Y-26315D01*
X44707Y-26301D01*
X44698Y-26272D01*
X44698Y-26244D01*
X44831Y-26015D02*
X44631Y-26015D01*
X44821Y-26015D02*
X44831Y-26044D01*
X44831Y-26101D01*
X44821Y-26129D01*
X44812Y-26144D01*
X44793Y-26158D01*
X44736Y-26158D01*
X44717Y-26144D01*
X44707Y-26129D01*
X44698Y-26101D01*
X44698Y-26044D01*
X44707Y-26015D01*
X44650Y-25658D02*
X44640Y-25644D01*
X44631Y-25615D01*
X44631Y-25544D01*
X44640Y-25515D01*
X44650Y-25501D01*
X44669Y-25486D01*
X44688Y-25486D01*
X44717Y-25501D01*
X44831Y-25672D01*
X44831Y-25486D01*
X44812Y-25358D02*
X44821Y-25343D01*
X44831Y-25358D01*
X44821Y-25372D01*
X44812Y-25358D01*
X44831Y-25358D01*
X44650Y-25229D02*
X44640Y-25215D01*
X44631Y-25186D01*
X44631Y-25115D01*
X44640Y-25086D01*
X44650Y-25072D01*
X44669Y-25057D01*
X44688Y-25057D01*
X44717Y-25072D01*
X44831Y-25243D01*
X44831Y-25057D01*
G54D12*
X44250Y-31250D02*
X44500Y-31250D01*
X44250Y-21750D02*
X44250Y-31250D01*
X69750Y-21750D02*
X69750Y-22000D01*
X44250Y-21750D02*
X69750Y-21750D01*
X69750Y-31250D02*
X44250Y-31250D01*
X69750Y-21250D02*
X69750Y-31250D01*
G54D13*
X50890Y-23450D03*
X55610Y-23450D03*
X55410Y-23450D03*
X55220Y-23450D03*
X55020Y-23450D03*
X54820Y-23450D03*
X54630Y-23450D03*
X54430Y-23450D03*
X54230Y-23450D03*
X54040Y-23450D03*
X53840Y-23450D03*
X53640Y-23450D03*
X53440Y-23450D03*
X53250Y-23450D03*
X53050Y-23450D03*
X52850Y-23450D03*
X52660Y-23450D03*
X52460Y-23450D03*
X52260Y-23450D03*
X52070Y-23450D03*
X51870Y-23450D03*
X51670Y-23450D03*
X51480Y-23450D03*
X51280Y-23450D03*
X51080Y-23450D03*
G54D14*
X56300Y-24140D03*
X56300Y-28860D03*
X56300Y-28660D03*
X56300Y-28470D03*
X56300Y-28270D03*
X56300Y-28070D03*
X56300Y-27880D03*
X56300Y-27680D03*
X56300Y-27480D03*
X56300Y-27290D03*
X56300Y-27090D03*
X56300Y-26890D03*
X56300Y-26690D03*
X56300Y-26500D03*
X56300Y-26300D03*
X56300Y-26100D03*
X56300Y-25910D03*
X56300Y-25710D03*
X56300Y-25510D03*
X56300Y-25320D03*
X56300Y-25120D03*
X56300Y-24920D03*
X56300Y-24730D03*
X56300Y-24530D03*
X56300Y-24330D03*
X50200Y-24140D03*
X50200Y-24340D03*
X50200Y-24530D03*
X50200Y-24730D03*
X50200Y-24930D03*
X50200Y-25120D03*
X50200Y-25320D03*
X50200Y-25520D03*
X50200Y-25710D03*
X50200Y-25910D03*
X50200Y-26110D03*
X50200Y-26310D03*
X50200Y-26500D03*
X50200Y-26700D03*
X50200Y-26900D03*
X50200Y-27090D03*
X50200Y-27290D03*
X50200Y-27490D03*
X50200Y-27680D03*
X50200Y-27880D03*
X50200Y-28080D03*
X50200Y-28270D03*
X50200Y-28470D03*
X50200Y-28670D03*
X50200Y-28860D03*
G54D13*
X50890Y-29550D03*
X51090Y-29550D03*
X51280Y-29550D03*
X51480Y-29550D03*
X51680Y-29550D03*
X51870Y-29550D03*
X52070Y-29550D03*
X52270Y-29550D03*
X52460Y-29550D03*
X52660Y-29550D03*
X52860Y-29550D03*
X53060Y-29550D03*
X53250Y-29550D03*
X53450Y-29550D03*
X53650Y-29550D03*
X53840Y-29550D03*
X54040Y-29550D03*
X54240Y-29550D03*
X54430Y-29550D03*
X54630Y-29550D03*
X54830Y-29550D03*
X55020Y-29550D03*
X55220Y-29550D03*
X55420Y-29550D03*
X55610Y-29550D03*
G54D15*
X47700Y-23400D03*
X48300Y-23400D03*
X47700Y-24050D03*
X48300Y-24050D03*
X68650Y-29850D03*
X68050Y-29850D03*
G54D16*
X69213Y-29250D03*
X68387Y-29250D03*
G54D17*
X67744Y-25634D03*
X67744Y-27366D03*
G54D18*
X66582Y-26500D03*
X66582Y-26185D03*
X66582Y-25868D03*
X66582Y-26815D03*
X66584Y-27130D03*
G54D19*
X66720Y-24808D03*
X66720Y-28192D03*
X68885Y-28192D03*
X68885Y-24808D03*
G54D20*
X64500Y-27800D03*
G54D21*
X64500Y-25200D03*
X63600Y-25200D03*
X65400Y-25200D03*
G54D16*
X47163Y-23400D03*
X46337Y-23400D03*
X47163Y-24050D03*
X46337Y-24050D03*
X59587Y-28950D03*
X60413Y-28950D03*
G54D15*
X47700Y-24700D03*
X48300Y-24700D03*
G54D16*
X47163Y-24700D03*
X46337Y-24700D03*
G54D22*
X46300Y-26750D03*
X46300Y-25293D03*
X48347Y-26750D03*
X48347Y-25293D03*
X46300Y-28800D03*
X46300Y-27343D03*
X48347Y-28800D03*
X48347Y-27343D03*
G54D23*
X65850Y-28950D03*
X65850Y-28350D03*
G54D24*
X69000Y-22500D03*
G54D25*
X68000Y-22500D03*
X67000Y-22500D03*
X66000Y-22500D03*
X65000Y-22500D03*
X64000Y-22500D03*
X63000Y-22500D03*
X62000Y-22500D03*
X61000Y-22500D03*
X60000Y-22500D03*
X59000Y-22500D03*
X58000Y-22500D03*
X57000Y-22500D03*
X56000Y-22500D03*
X55000Y-22500D03*
X54000Y-22500D03*
X53000Y-22500D03*
X52000Y-22500D03*
X51000Y-22500D03*
X50000Y-22500D03*
X49000Y-22500D03*
X48000Y-22500D03*
X47000Y-22500D03*
X46000Y-22500D03*
G54D26*
X45000Y-22500D03*
G54D24*
X69000Y-30500D03*
G54D25*
X68000Y-30500D03*
X67000Y-30500D03*
X66000Y-30500D03*
X65000Y-30500D03*
X64000Y-30500D03*
X63000Y-30500D03*
X62000Y-30500D03*
X61000Y-30500D03*
X60000Y-30500D03*
X59000Y-30500D03*
X58000Y-30500D03*
X57000Y-30500D03*
X56000Y-30500D03*
X55000Y-30500D03*
X54000Y-30500D03*
X53000Y-30500D03*
X52000Y-30500D03*
X51000Y-30500D03*
X50000Y-30500D03*
X49000Y-30500D03*
X48000Y-30500D03*
X47000Y-30500D03*
X46000Y-30500D03*
G54D26*
X45000Y-30500D03*
G54D27*
X61930Y-25580D03*
X62125Y-27275D03*
X57250Y-25910D03*
X53250Y-29150D03*
X50850Y-27000D03*
X55750Y-25550D03*
X58600Y-26800D03*
X69200Y-26050D03*
X52380Y-24030D03*
X51480Y-23970D03*
X64450Y-25700D03*
X55750Y-27950D03*
X54550Y-29120D03*
X50850Y-27600D03*
X50850Y-26100D03*
X55590Y-24760D03*
X50700Y-28450D03*
X64350Y-27385D03*
X48400Y-25950D03*
X63250Y-24750D03*
X67550Y-27850D03*
X65850Y-27150D03*
X58800Y-23450D03*
X50500Y-23750D03*
X58375Y-24175D03*
X50100Y-23900D03*
X47470Y-29110D03*
X55500Y-28650D03*
X51090Y-29120D03*
X54900Y-28250D03*
X55850Y-28800D03*
X59290Y-28970D03*
X54000Y-27510D03*
X48347Y-26750D03*
X45800Y-23800D03*
X49450Y-23350D03*
X49150Y-23700D03*
X48800Y-23450D03*
X53990Y-23900D03*
X53700Y-24160D03*
X46250Y-25800D03*
X50150Y-23500D03*
X52630Y-30060D03*
X53620Y-30070D03*
X54620Y-30070D03*
X56875Y-26400D03*
X60050Y-28275D03*
X54610Y-24390D03*
X57930Y-25570D03*
X63080Y-23950D03*
X63670Y-24000D03*
X54520Y-24820D03*
X57490Y-25560D03*
X53625Y-22975D03*
X65050Y-26550D03*
X65350Y-26300D03*
X52640Y-24610D03*
X64450Y-29850D03*
X61425Y-29850D03*
X59500Y-29850D03*
X51840Y-24550D03*
X65325Y-29850D03*
X49700Y-27500D03*
X48400Y-27400D03*
X63950Y-24500D03*
X48350Y-25300D03*
X55150Y-28950D03*
X55300Y-26500D03*
X57400Y-28850D03*
X55300Y-25200D03*
X53950Y-28750D03*
X60625Y-29625D03*
X62225Y-29850D03*
X63475Y-29850D03*
X49870Y-29150D03*
X68150Y-26350D03*
X61650Y-26850D03*
X62700Y-27100D03*
X62700Y-28150D03*
X63100Y-28150D03*
X47750Y-28250D03*
X51250Y-26500D03*
X54000Y-25750D03*
X68150Y-27000D03*
X55300Y-27450D03*
X49250Y-26850D03*
X65550Y-25850D03*
X49300Y-25250D03*
X65500Y-27450D03*
G54D28*
X69750Y-31250D02*
X44250Y-31250D01*
X69750Y-21250D02*
X69750Y-31250D01*
X55550Y-25910D02*
X56300Y-25910D01*
X53250Y-29050D02*
X53050Y-28850D01*
G54D29*
X61651Y-26099D02*
X61930Y-25820D01*
G54D28*
X55010Y-24370D02*
X54630Y-23990D01*
X50850Y-27000D02*
X50560Y-27290D01*
X50560Y-27290D02*
X50200Y-27290D01*
G54D29*
X55550Y-25910D02*
X55110Y-25910D01*
G54D28*
X54630Y-23450D02*
X54630Y-23700D01*
G54D29*
X55150Y-25910D02*
X54950Y-25910D01*
G54D28*
X54950Y-25820D02*
X54950Y-25910D01*
G54D29*
X53250Y-28850D02*
X53050Y-28850D01*
X53050Y-28850D02*
X51650Y-28850D01*
G54D28*
X55010Y-25760D02*
X54950Y-25820D01*
G54D29*
X53250Y-27610D02*
X54950Y-25910D01*
X53250Y-28850D02*
X53250Y-27610D01*
X55110Y-25910D02*
X55150Y-25910D01*
X57250Y-25910D02*
X57620Y-26280D01*
X57620Y-26280D02*
X61650Y-26280D01*
G54D28*
X53250Y-29150D02*
X53250Y-29050D01*
G54D29*
X61650Y-26280D02*
X61651Y-26281D01*
X51150Y-27300D02*
X50850Y-27000D01*
X61930Y-25820D02*
X61930Y-25580D01*
X61651Y-26281D02*
X61651Y-26099D01*
X61651Y-26281D02*
X62125Y-26755D01*
G54D28*
X53250Y-29550D02*
X53250Y-29150D01*
X54950Y-25710D02*
X54950Y-25820D01*
X54950Y-25710D02*
X54950Y-25750D01*
X55010Y-25150D02*
X55010Y-25760D01*
G54D29*
X51150Y-28350D02*
X51150Y-27300D01*
X62125Y-26755D02*
X62125Y-27275D01*
G54D28*
X55010Y-25150D02*
X55010Y-24370D01*
X54950Y-25750D02*
X55110Y-25910D01*
X56300Y-25910D02*
X57250Y-25910D01*
X54630Y-23700D02*
X54630Y-23990D01*
G54D29*
X53250Y-29150D02*
X53250Y-28850D01*
X51650Y-28850D02*
X51150Y-28350D01*
G54D28*
X55582Y-24412D02*
X55150Y-23980D01*
G54D29*
X62100Y-27800D02*
X61767Y-27467D01*
G54D28*
X55020Y-23850D02*
X55020Y-23450D01*
G54D29*
X61083Y-26800D02*
X61767Y-27484D01*
X64500Y-27535D02*
X64350Y-27385D01*
X50700Y-28650D02*
X50700Y-28450D01*
X68300Y-28850D02*
X68150Y-28700D01*
G54D28*
X55750Y-27950D02*
X54750Y-27950D01*
G54D29*
X69200Y-26600D02*
X69200Y-26050D01*
X50200Y-28860D02*
X50490Y-28860D01*
X50490Y-28860D02*
X50700Y-28650D01*
X61767Y-27484D02*
X61767Y-27467D01*
X58600Y-26800D02*
X61083Y-26800D01*
G54D28*
X50850Y-26100D02*
X50840Y-26110D01*
G54D29*
X50520Y-28270D02*
X50700Y-28450D01*
G54D28*
X51500Y-23950D02*
X51480Y-23970D01*
G54D29*
X50890Y-29550D02*
X50660Y-29550D01*
X68450Y-28850D02*
X68300Y-28850D01*
X50850Y-28300D02*
X50700Y-28450D01*
G54D28*
X51870Y-29550D02*
X51680Y-29550D01*
X56300Y-28070D02*
X55870Y-28070D01*
X54630Y-28070D02*
X54750Y-27950D01*
X52460Y-23450D02*
X52460Y-23950D01*
G54D29*
X64500Y-25200D02*
X64500Y-25650D01*
G54D28*
X56300Y-25710D02*
X55910Y-25710D01*
G54D29*
X69000Y-30400D02*
X69213Y-30187D01*
X69213Y-30187D02*
X69213Y-29250D01*
X69000Y-30500D02*
X69000Y-30400D01*
G54D28*
X54630Y-29550D02*
X54630Y-29130D01*
G54D29*
X64500Y-27800D02*
X64500Y-27535D01*
G54D28*
X51680Y-29550D02*
X51480Y-29550D01*
G54D29*
X68150Y-27650D02*
X68400Y-27400D01*
G54D28*
X51500Y-23900D02*
X51500Y-23950D01*
X50200Y-26110D02*
X48560Y-26110D01*
G54D29*
X50850Y-27600D02*
X50850Y-28300D01*
G54D28*
X55910Y-25710D02*
X55750Y-25550D01*
X51080Y-23780D02*
X51200Y-23900D01*
G54D29*
X50700Y-28450D02*
X50680Y-28470D01*
G54D28*
X51080Y-23450D02*
X51080Y-23780D01*
G54D29*
X54550Y-29120D02*
X54560Y-29130D01*
X51680Y-29550D02*
X51680Y-29200D01*
G54D28*
X51670Y-23730D02*
X51500Y-23900D01*
X51200Y-23900D02*
X51500Y-23900D01*
X48560Y-26110D02*
X48400Y-25950D01*
G54D29*
X68400Y-27400D02*
X69200Y-26600D01*
G54D28*
X51670Y-23450D02*
X51670Y-23730D01*
X50840Y-26110D02*
X50200Y-26110D01*
G54D29*
X50930Y-28450D02*
X50700Y-28450D01*
G54D28*
X55610Y-24740D02*
X55610Y-24440D01*
X55610Y-24440D02*
X55610Y-24412D01*
X55610Y-24412D02*
X55582Y-24412D01*
G54D29*
X50660Y-29550D02*
X50200Y-29090D01*
G54D28*
X55590Y-24760D02*
X55610Y-24740D01*
G54D29*
X64500Y-27800D02*
X62100Y-27800D01*
G54D28*
X55150Y-23980D02*
X55020Y-23850D01*
G54D29*
X50680Y-28470D02*
X50200Y-28470D01*
X69213Y-29113D02*
X68950Y-28850D01*
X68950Y-28850D02*
X68450Y-28850D01*
X51680Y-29200D02*
X50930Y-28450D01*
G54D28*
X54630Y-29130D02*
X54630Y-28070D01*
G54D29*
X68150Y-28700D02*
X68150Y-27650D01*
X50200Y-28270D02*
X50520Y-28270D01*
G54D28*
X55870Y-28070D02*
X55750Y-27950D01*
X52460Y-23950D02*
X52380Y-24030D01*
G54D29*
X64500Y-25650D02*
X64450Y-25700D01*
X50200Y-29090D02*
X50200Y-28860D01*
X54560Y-29130D02*
X54630Y-29130D01*
X69213Y-29250D02*
X69213Y-29113D01*
X63600Y-25100D02*
X63600Y-25200D01*
X63250Y-24750D02*
X63600Y-25100D01*
X67550Y-27850D02*
X67550Y-27700D01*
X67350Y-27500D02*
X67350Y-27300D01*
X67550Y-27700D02*
X67350Y-27500D01*
X67180Y-27130D02*
X66584Y-27130D01*
X67350Y-27300D02*
X67180Y-27130D01*
X65850Y-27150D02*
X65850Y-27130D01*
X65850Y-27130D02*
X65850Y-27150D01*
X65850Y-27150D02*
X65850Y-27130D01*
X66584Y-27130D02*
X65850Y-27130D01*
X65850Y-27130D02*
X64780Y-27130D01*
X63600Y-25950D02*
X63600Y-25200D01*
X64780Y-27130D02*
X63600Y-25950D01*
G54D28*
X49890Y-27940D02*
X49590Y-27940D01*
X49590Y-27940D02*
X49440Y-28090D01*
X49440Y-28090D02*
X49440Y-29600D01*
X49440Y-29600D02*
X49000Y-30040D01*
X49000Y-30040D02*
X49000Y-30500D01*
X49950Y-27880D02*
X49890Y-27940D01*
X50200Y-27880D02*
X49950Y-27880D01*
X48000Y-29990D02*
X48000Y-30500D01*
X48200Y-29790D02*
X48000Y-29990D01*
X49260Y-28000D02*
X49260Y-29370D01*
X49820Y-27770D02*
X49490Y-27770D01*
X48840Y-29790D02*
X48200Y-29790D01*
X49490Y-27770D02*
X49260Y-28000D01*
X49260Y-29370D02*
X48840Y-29790D01*
X50200Y-27680D02*
X49910Y-27680D01*
X49910Y-27680D02*
X49820Y-27770D01*
X49600Y-28290D02*
X49600Y-29640D01*
X49750Y-28140D02*
X49910Y-28140D01*
X49600Y-28290D02*
X49750Y-28140D01*
X49600Y-29640D02*
X50000Y-30040D01*
X49970Y-28080D02*
X49910Y-28140D01*
X50000Y-30040D02*
X50000Y-30500D01*
X50200Y-28080D02*
X49970Y-28080D01*
X58800Y-23450D02*
X58810Y-23450D01*
X55610Y-23450D02*
X58810Y-23450D01*
X50600Y-24150D02*
X50410Y-24340D01*
X50600Y-23850D02*
X50600Y-24150D01*
X50500Y-23750D02*
X50600Y-23850D01*
X50410Y-24340D02*
X50200Y-24340D01*
X58375Y-24175D02*
X58190Y-24140D01*
X58190Y-24140D02*
X56300Y-24140D01*
X50200Y-24000D02*
X50200Y-24140D01*
X50100Y-23900D02*
X50200Y-24000D01*
X48720Y-29440D02*
X46530Y-29440D01*
X49600Y-26900D02*
X48920Y-27580D01*
X46530Y-29440D02*
X46000Y-29970D01*
X48920Y-29240D02*
X48720Y-29440D01*
X46000Y-29970D02*
X46000Y-30500D01*
X48920Y-27580D02*
X48920Y-29240D01*
X50200Y-26900D02*
X49600Y-26900D01*
X49090Y-27670D02*
X49090Y-29300D01*
X49670Y-27090D02*
X49090Y-27670D01*
X50200Y-27090D02*
X49670Y-27090D01*
X47320Y-29620D02*
X47000Y-29940D01*
X48770Y-29620D02*
X47320Y-29620D01*
X49090Y-29300D02*
X48770Y-29620D01*
X47000Y-29940D02*
X47000Y-30500D01*
X48650Y-29250D02*
X47610Y-29250D01*
X48750Y-26800D02*
X48750Y-29150D01*
X50200Y-26500D02*
X49050Y-26500D01*
X49050Y-26500D02*
X48750Y-26800D01*
X47610Y-29250D02*
X47470Y-29110D01*
X48750Y-29150D02*
X48650Y-29250D01*
X55680Y-28470D02*
X55500Y-28650D01*
X56300Y-28470D02*
X55680Y-28470D01*
X51090Y-29120D02*
X51090Y-29550D01*
X54900Y-28250D02*
X54830Y-28320D01*
X54830Y-28320D02*
X54830Y-29550D01*
X56300Y-28860D02*
X55910Y-28860D01*
X55910Y-28860D02*
X55850Y-28800D01*
X59587Y-28950D02*
X59310Y-28950D01*
X59310Y-28950D02*
X59290Y-28970D01*
X57570Y-28270D02*
X57750Y-28450D01*
X56300Y-28270D02*
X57570Y-28270D01*
X59087Y-28450D02*
X59587Y-28950D01*
X57750Y-28450D02*
X59087Y-28450D01*
X49770Y-25320D02*
X48850Y-24400D01*
X50200Y-25320D02*
X49770Y-25320D01*
X48850Y-24100D02*
X48600Y-23850D01*
X48600Y-23850D02*
X48600Y-23700D01*
X48600Y-23700D02*
X48300Y-23400D01*
X48850Y-24400D02*
X48850Y-24100D01*
X48450Y-24050D02*
X48300Y-24050D01*
X48650Y-24450D02*
X48650Y-24250D01*
X49310Y-25710D02*
X49000Y-25400D01*
X50200Y-25710D02*
X49310Y-25710D01*
X48650Y-24250D02*
X48450Y-24050D01*
X49000Y-25400D02*
X49000Y-24800D01*
X49000Y-24800D02*
X48650Y-24450D01*
X49210Y-25910D02*
X48800Y-25500D01*
X48550Y-24700D02*
X48300Y-24700D01*
X48800Y-24950D02*
X48550Y-24700D01*
X48800Y-25500D02*
X48800Y-24950D01*
X50200Y-25910D02*
X49210Y-25910D01*
X54240Y-29550D02*
X54240Y-27750D01*
X54240Y-27750D02*
X54000Y-27510D01*
X48640Y-26310D02*
X48347Y-26603D01*
X46300Y-26750D02*
X48347Y-26750D01*
X50200Y-26310D02*
X48640Y-26310D01*
X48347Y-26603D02*
X48347Y-26750D01*
X48650Y-23150D02*
X48000Y-22500D01*
X49550Y-23050D02*
X49250Y-23050D01*
X49800Y-23300D02*
X49550Y-23050D01*
X49800Y-24378D02*
X49800Y-23300D01*
X49952Y-24530D02*
X49800Y-24378D01*
X50200Y-24530D02*
X49952Y-24530D01*
X49150Y-23150D02*
X48650Y-23150D01*
X49250Y-23050D02*
X49150Y-23150D01*
X52270Y-29550D02*
X52270Y-30090D01*
X52490Y-30310D02*
X52490Y-30440D01*
X52490Y-30440D02*
X52550Y-30500D01*
X52270Y-30090D02*
X52490Y-30310D01*
X52550Y-30500D02*
X53000Y-30500D01*
X45800Y-23800D02*
X45800Y-23150D01*
X45800Y-23150D02*
X45900Y-23050D01*
X45950Y-23000D02*
X46250Y-23000D01*
X46250Y-23000D02*
X46600Y-22650D01*
X46600Y-22650D02*
X46850Y-22650D01*
X46850Y-22650D02*
X47000Y-22500D01*
X45900Y-23050D02*
X45950Y-23000D01*
X50200Y-24730D02*
X49930Y-24730D01*
X49450Y-24250D02*
X49450Y-23350D01*
X49930Y-24730D02*
X49450Y-24250D01*
X50200Y-24930D02*
X49830Y-24930D01*
X49830Y-24930D02*
X49250Y-24350D01*
X49250Y-24350D02*
X49250Y-23800D01*
X49250Y-23800D02*
X49150Y-23700D01*
X55610Y-29795D02*
X55685Y-29870D01*
X57370Y-29870D02*
X58000Y-30500D01*
X55610Y-29550D02*
X55610Y-29795D01*
X55685Y-29870D02*
X57370Y-29870D01*
X57938Y-27713D02*
X58025Y-27800D01*
X60700Y-27800D02*
X61075Y-28175D01*
X61075Y-28175D02*
X63000Y-30100D01*
X58025Y-27800D02*
X60700Y-27800D01*
X57515Y-27290D02*
X57938Y-27713D01*
X56300Y-27290D02*
X57515Y-27290D01*
X63000Y-30100D02*
X63000Y-30500D01*
X49050Y-24378D02*
X49050Y-24250D01*
X50200Y-25120D02*
X49792Y-25120D01*
X49050Y-24000D02*
X48800Y-23750D01*
X49050Y-24250D02*
X49050Y-24000D01*
X49792Y-25120D02*
X49050Y-24378D01*
X48800Y-23750D02*
X48800Y-23450D01*
X65775Y-29775D02*
X66000Y-30000D01*
X66000Y-30000D02*
X66000Y-30500D01*
X64700Y-28700D02*
X65775Y-29775D01*
X62450Y-28700D02*
X64700Y-28700D01*
X61000Y-27250D02*
X58325Y-27250D01*
X58325Y-27250D02*
X58200Y-27125D01*
X61138Y-27388D02*
X61000Y-27250D01*
X57765Y-26690D02*
X58200Y-27125D01*
X61138Y-27388D02*
X62450Y-28700D01*
X56300Y-26690D02*
X57765Y-26690D01*
X57243Y-25382D02*
X57335Y-25290D01*
X61500Y-25070D02*
X61500Y-25075D01*
X61280Y-25290D02*
X61500Y-25070D01*
X56300Y-25510D02*
X57115Y-25510D01*
X57115Y-25510D02*
X57243Y-25382D01*
X67000Y-23250D02*
X67000Y-22500D01*
X66575Y-23675D02*
X67000Y-23250D01*
X57335Y-25290D02*
X61280Y-25290D01*
X61500Y-25075D02*
X62900Y-23675D01*
X62900Y-23675D02*
X66575Y-23675D01*
X66000Y-23050D02*
X66000Y-22500D01*
X65550Y-23500D02*
X66000Y-23050D01*
X62800Y-23500D02*
X65550Y-23500D01*
X61180Y-25120D02*
X62800Y-23500D01*
X56300Y-25120D02*
X61180Y-25120D01*
X56300Y-24730D02*
X61020Y-24730D01*
X64000Y-22850D02*
X64000Y-22500D01*
X63750Y-23100D02*
X64000Y-22850D01*
X62650Y-23100D02*
X63750Y-23100D01*
X61020Y-24730D02*
X62650Y-23100D01*
X56300Y-24530D02*
X60970Y-24530D01*
X60970Y-24530D02*
X63000Y-22500D01*
X58000Y-22500D02*
X58010Y-22490D01*
X58000Y-22590D02*
X58000Y-22490D01*
X58000Y-22590D02*
X58000Y-22500D01*
X58010Y-22490D02*
X58000Y-22490D01*
X54040Y-23830D02*
X53990Y-23900D01*
X54040Y-23450D02*
X54040Y-23830D01*
X53840Y-23450D02*
X53840Y-23180D01*
X56520Y-22980D02*
X57000Y-22500D01*
X54040Y-22980D02*
X56520Y-22980D01*
X53840Y-23180D02*
X54040Y-22980D01*
X53640Y-24100D02*
X53700Y-24160D01*
X53640Y-23450D02*
X53640Y-24100D01*
X52260Y-22760D02*
X52000Y-22500D01*
X52260Y-23450D02*
X52260Y-22760D01*
X52070Y-23450D02*
X52070Y-23195D01*
X51200Y-22500D02*
X51000Y-22500D01*
X51675Y-22975D02*
X51200Y-22500D01*
X51850Y-22975D02*
X51675Y-22975D01*
X52070Y-23195D02*
X51850Y-22975D01*
X51280Y-23450D02*
X51280Y-23205D01*
X49275Y-22500D02*
X49000Y-22500D01*
X49900Y-23125D02*
X49275Y-22500D01*
X51200Y-23125D02*
X49900Y-23125D01*
X51280Y-23205D02*
X51200Y-23125D01*
X50300Y-23350D02*
X50150Y-23500D01*
X50790Y-23350D02*
X50300Y-23350D01*
X50890Y-23450D02*
X50790Y-23350D01*
X45900Y-26150D02*
X45900Y-28400D01*
X48347Y-28800D02*
X46300Y-28800D01*
X45900Y-28400D02*
X46300Y-28800D01*
X46250Y-25800D02*
X45900Y-26150D01*
X52070Y-30430D02*
X52000Y-30500D01*
X52070Y-29550D02*
X52070Y-30430D01*
X52460Y-29890D02*
X52630Y-30060D01*
X52460Y-29550D02*
X52460Y-29890D01*
X52860Y-29820D02*
X52970Y-29930D01*
X52970Y-29930D02*
X53480Y-29930D01*
X53480Y-29930D02*
X53620Y-30070D01*
X52860Y-29550D02*
X52860Y-29820D01*
X53840Y-29550D02*
X53840Y-29830D01*
X54470Y-29940D02*
X54620Y-30070D01*
X53840Y-29830D02*
X53950Y-29940D01*
X53950Y-29940D02*
X54470Y-29940D01*
X55580Y-30030D02*
X56530Y-30030D01*
X55420Y-29550D02*
X55420Y-29870D01*
X56530Y-30030D02*
X57000Y-30500D01*
X55420Y-29870D02*
X55580Y-30030D01*
X56300Y-28660D02*
X56580Y-28660D01*
X56580Y-28660D02*
X57173Y-29253D01*
X58228Y-29253D02*
X59000Y-30025D01*
X59000Y-30025D02*
X59000Y-30500D01*
X57173Y-29253D02*
X58228Y-29253D01*
X56300Y-27880D02*
X57480Y-27880D01*
X60000Y-28675D02*
X60000Y-30500D01*
X59475Y-28150D02*
X60000Y-28675D01*
X57750Y-28150D02*
X59475Y-28150D01*
X57480Y-27880D02*
X57750Y-28150D01*
X61925Y-30425D02*
X62000Y-30500D01*
X61925Y-29325D02*
X61925Y-29750D01*
X60900Y-28300D02*
X61925Y-29325D01*
X56300Y-27680D02*
X57630Y-27680D01*
X57630Y-27680D02*
X57800Y-27850D01*
X61925Y-29750D02*
X61925Y-30425D01*
X60575Y-27975D02*
X57925Y-27975D01*
X57925Y-27975D02*
X57800Y-27850D01*
X60900Y-28300D02*
X60575Y-27975D01*
X63550Y-29075D02*
X63650Y-29075D01*
X56300Y-27090D02*
X57590Y-27090D01*
X57590Y-27090D02*
X57975Y-27475D01*
X60800Y-27625D02*
X58125Y-27625D01*
X58125Y-27625D02*
X57975Y-27475D01*
X60988Y-27813D02*
X60800Y-27625D01*
X63650Y-29075D02*
X64000Y-29425D01*
X64000Y-29425D02*
X64000Y-30500D01*
X62250Y-29075D02*
X63550Y-29075D01*
X60988Y-27813D02*
X62250Y-29075D01*
X56300Y-26890D02*
X57690Y-26890D01*
X65000Y-29350D02*
X65000Y-30500D01*
X64525Y-28875D02*
X65000Y-29350D01*
X62350Y-28875D02*
X64525Y-28875D01*
X61175Y-27700D02*
X62350Y-28875D01*
X57690Y-26890D02*
X58125Y-27325D01*
X58225Y-27425D02*
X60900Y-27425D01*
X60900Y-27425D02*
X61175Y-27700D01*
X58125Y-27325D02*
X58225Y-27425D01*
X60675Y-28375D02*
X61000Y-28700D01*
X61000Y-28700D02*
X61000Y-29000D01*
X60450Y-28375D02*
X60675Y-28375D01*
X60150Y-28375D02*
X60050Y-28275D01*
X61000Y-29000D02*
X61000Y-30500D01*
X60450Y-28375D02*
X60150Y-28375D01*
X56775Y-26300D02*
X56875Y-26400D01*
X56300Y-26300D02*
X56775Y-26300D01*
X56300Y-26100D02*
X56975Y-26100D01*
X56975Y-26100D02*
X57025Y-26100D01*
X57025Y-26100D02*
X57125Y-26200D01*
X58363Y-27013D02*
X58425Y-27075D01*
X61100Y-27075D02*
X61175Y-27150D01*
X58425Y-27075D02*
X61100Y-27075D01*
X61175Y-27150D02*
X62550Y-28525D01*
X64800Y-28525D02*
X66775Y-30500D01*
X62550Y-28525D02*
X64800Y-28525D01*
X66775Y-30500D02*
X67000Y-30500D01*
X58325Y-26700D02*
X58325Y-26975D01*
X58325Y-26975D02*
X58363Y-27013D01*
X58105Y-26480D02*
X57405Y-26480D01*
X57405Y-26480D02*
X57125Y-26200D01*
X58325Y-26700D02*
X58105Y-26480D01*
X65000Y-23000D02*
X65000Y-22500D01*
X64700Y-23300D02*
X65000Y-23000D01*
X62750Y-23300D02*
X64700Y-23300D01*
X61130Y-24920D02*
X62750Y-23300D01*
X56300Y-24920D02*
X61130Y-24920D01*
X58630Y-23770D02*
X60260Y-23770D01*
X60260Y-23770D02*
X61000Y-23030D01*
X61000Y-23030D02*
X61000Y-22500D01*
X55410Y-23450D02*
X55410Y-23700D01*
X58490Y-23630D02*
X58560Y-23700D01*
X56010Y-23630D02*
X58490Y-23630D01*
X55840Y-23800D02*
X56010Y-23630D01*
X55510Y-23800D02*
X55840Y-23800D01*
X55410Y-23700D02*
X55510Y-23800D01*
X58560Y-23700D02*
X58630Y-23770D01*
X55220Y-23800D02*
X55400Y-23980D01*
X55400Y-23980D02*
X55910Y-23980D01*
X55910Y-23980D02*
X56000Y-23890D01*
X56000Y-23890D02*
X58500Y-23890D01*
X58500Y-23890D02*
X58610Y-24000D01*
X58610Y-24000D02*
X60330Y-24000D01*
X60330Y-24000D02*
X61830Y-22500D01*
X61830Y-22500D02*
X62000Y-22500D01*
X55220Y-23450D02*
X55220Y-23800D01*
X54430Y-23700D02*
X54460Y-23730D01*
X54460Y-23730D02*
X54460Y-24140D01*
X54430Y-23450D02*
X54430Y-23700D01*
X54460Y-24140D02*
X54460Y-24240D01*
X54460Y-24240D02*
X54610Y-24390D01*
X57930Y-25570D02*
X61250Y-25570D01*
X61250Y-25570D02*
X62950Y-23870D01*
X62950Y-23870D02*
X62970Y-23870D01*
X62970Y-23870D02*
X63080Y-23950D01*
X57490Y-25640D02*
X57790Y-25940D01*
X59420Y-25940D02*
X61170Y-25940D01*
X54660Y-25200D02*
X54670Y-25190D01*
X54230Y-23740D02*
X54280Y-23790D01*
X54280Y-23790D02*
X54280Y-24240D01*
X54280Y-24240D02*
X54280Y-24310D01*
X54220Y-25160D02*
X54220Y-25250D01*
X54220Y-25250D02*
X54270Y-25200D01*
X54270Y-25200D02*
X54660Y-25200D01*
X54230Y-23450D02*
X54230Y-23740D01*
X53930Y-24660D02*
X53930Y-24870D01*
X53930Y-24870D02*
X54220Y-25160D01*
X54280Y-24310D02*
X53930Y-24660D01*
X54670Y-25190D02*
X54670Y-25030D01*
X61170Y-25940D02*
X62700Y-24410D01*
X62700Y-24410D02*
X63260Y-24410D01*
X63260Y-24410D02*
X63670Y-24000D01*
X57490Y-25560D02*
X57490Y-25640D01*
X54280Y-24580D02*
X54520Y-24820D01*
X54280Y-24240D02*
X54280Y-24580D01*
X57790Y-25940D02*
X59420Y-25940D01*
X53250Y-23450D02*
X53250Y-23175D01*
X53450Y-22975D02*
X53625Y-22975D01*
X53250Y-23175D02*
X53450Y-22975D01*
X53050Y-23125D02*
X53388Y-22787D01*
X53050Y-23450D02*
X53050Y-23125D01*
X53475Y-22700D02*
X53475Y-22550D01*
X53475Y-22550D02*
X53625Y-22400D01*
X53625Y-22400D02*
X53900Y-22400D01*
X53900Y-22400D02*
X54000Y-22500D01*
X53388Y-22787D02*
X53475Y-22700D01*
X52850Y-22650D02*
X53000Y-22500D01*
X52850Y-23450D02*
X52850Y-22650D01*
X51480Y-23450D02*
X51480Y-23155D01*
X50468Y-22968D02*
X50000Y-22500D01*
X51293Y-22968D02*
X50468Y-22968D01*
X51480Y-23155D02*
X51293Y-22968D01*
X65050Y-26550D02*
X65315Y-26815D01*
X65315Y-26815D02*
X65050Y-26550D01*
X66582Y-26815D02*
X65315Y-26815D01*
X65650Y-26500D02*
X66582Y-26500D01*
X65350Y-26300D02*
X65550Y-26500D01*
X65550Y-26500D02*
X65650Y-26500D01*
G54D29*
X65550Y-25800D02*
X65550Y-25786D01*
G54D28*
X52770Y-23860D02*
X52730Y-23860D01*
X52730Y-23860D02*
X52660Y-23790D01*
X53440Y-23450D02*
X53440Y-23780D01*
X52770Y-23860D02*
X52660Y-23970D01*
X53360Y-23860D02*
X52770Y-23860D01*
X53440Y-23780D02*
X53360Y-23860D01*
X55900Y-25100D02*
X55850Y-25100D01*
G54D29*
X55300Y-25200D02*
X55300Y-24840D01*
G54D28*
X58625Y-28975D02*
X57850Y-28975D01*
X59500Y-29850D02*
X58625Y-28975D01*
X57850Y-28975D02*
X57525Y-28975D01*
X55980Y-24330D02*
X55900Y-24410D01*
X55900Y-25100D02*
X55900Y-25200D01*
X55900Y-24410D02*
X55900Y-25100D01*
X56300Y-24330D02*
X55980Y-24330D01*
X55850Y-25100D02*
X55750Y-25200D01*
X50200Y-28670D02*
X49920Y-28670D01*
G54D29*
X65550Y-25850D02*
X65550Y-25786D01*
G54D28*
X56300Y-26500D02*
X55300Y-26500D01*
X57525Y-28975D02*
X57400Y-28850D01*
X50200Y-27490D02*
X49710Y-27490D01*
G54D29*
X68000Y-25100D02*
X68000Y-22500D01*
X65550Y-25950D02*
X65632Y-25868D01*
X68150Y-26000D02*
X68150Y-25400D01*
G54D28*
X60413Y-28950D02*
X60413Y-29413D01*
X55750Y-25200D02*
X55300Y-25200D01*
X55900Y-25200D02*
X55750Y-25200D01*
X56300Y-25320D02*
X56020Y-25320D01*
X56020Y-25320D02*
X55900Y-25200D01*
X55020Y-29080D02*
X55150Y-28950D01*
X49820Y-28770D02*
X49820Y-29100D01*
G54D29*
X68050Y-30450D02*
X68000Y-30500D01*
X65632Y-25868D02*
X66582Y-25868D01*
G54D28*
X52660Y-23790D02*
X52660Y-23970D01*
X52660Y-23450D02*
X52660Y-23790D01*
X52660Y-23970D02*
X52660Y-24590D01*
G54D29*
X52660Y-24590D02*
X52640Y-24610D01*
G54D28*
X63950Y-24500D02*
X64000Y-24550D01*
G54D29*
X66582Y-26185D02*
X65685Y-26185D01*
X65550Y-25786D02*
X65632Y-25868D01*
G54D28*
X46337Y-24050D02*
X46337Y-23400D01*
G54D29*
X56300Y-27480D02*
X55330Y-27480D01*
G54D28*
X49920Y-28670D02*
X49820Y-28770D01*
X54040Y-28840D02*
X53950Y-28750D01*
X50200Y-25520D02*
X49570Y-25520D01*
X54040Y-29550D02*
X54040Y-28840D01*
X65400Y-24800D02*
X65400Y-25200D01*
G54D29*
X68050Y-29850D02*
X68050Y-30450D01*
G54D28*
X55020Y-29550D02*
X55020Y-29080D01*
G54D29*
X48347Y-27347D02*
X48347Y-27343D01*
X46300Y-24737D02*
X46337Y-24700D01*
G54D28*
X50200Y-26700D02*
X49400Y-26700D01*
X49710Y-27490D02*
X49700Y-27500D01*
G54D29*
X68150Y-26350D02*
X68150Y-26000D01*
X55330Y-27480D02*
X55300Y-27450D01*
G54D28*
X64000Y-24550D02*
X65150Y-24550D01*
X65150Y-24550D02*
X65400Y-24800D01*
X60413Y-29413D02*
X60625Y-29625D01*
X63475Y-29850D02*
X63475Y-29825D01*
G54D29*
X48350Y-25300D02*
X48347Y-25297D01*
G54D28*
X49820Y-29100D02*
X49870Y-29150D01*
G54D29*
X51870Y-24520D02*
X51840Y-24550D01*
X48347Y-25297D02*
X48347Y-25293D01*
G54D28*
X46337Y-24700D02*
X46337Y-24050D01*
G54D29*
X63100Y-28150D02*
X62700Y-28150D01*
X46300Y-27800D02*
X46750Y-28250D01*
X46750Y-28250D02*
X47750Y-28250D01*
X46300Y-27343D02*
X46300Y-27800D01*
X53250Y-26500D02*
X54000Y-25750D01*
X51250Y-26500D02*
X53250Y-26500D01*
G54D28*
X54820Y-23450D02*
X54820Y-23890D01*
X55300Y-24370D02*
X55300Y-24840D01*
X54820Y-23890D02*
X55300Y-24370D01*
G54D29*
X68150Y-27000D02*
X68150Y-26350D01*
X46300Y-25293D02*
X46300Y-24737D01*
X65550Y-25950D02*
X65550Y-25850D01*
G54D28*
X49400Y-26700D02*
X49250Y-26850D01*
G54D29*
X65685Y-26185D02*
X65550Y-26050D01*
G54D28*
X49570Y-25520D02*
X49300Y-25250D01*
G54D29*
X68150Y-25400D02*
X68000Y-25250D01*
X68000Y-29300D02*
X67650Y-28950D01*
X67650Y-28950D02*
X65850Y-28950D01*
X68000Y-30500D02*
X68000Y-29300D01*
X67950Y-26185D02*
X67985Y-26185D01*
X67985Y-26185D02*
X68150Y-26350D01*
X48347Y-27343D02*
X46300Y-27343D01*
X65400Y-25200D02*
X65400Y-25636D01*
X65400Y-25636D02*
X65550Y-25786D01*
X48400Y-27400D02*
X48347Y-27347D01*
G54D28*
X51870Y-23450D02*
X51870Y-24520D01*
G54D29*
X65550Y-26050D02*
X65550Y-25950D01*
X48347Y-25293D02*
X46300Y-25293D01*
X66582Y-26185D02*
X67950Y-26185D01*
X67965Y-26185D02*
X68150Y-26000D01*
X67950Y-26185D02*
X67965Y-26185D01*
X68000Y-25250D02*
X68000Y-25100D01*
X65550Y-25786D02*
X65550Y-25800D01*
G54D28*
X47700Y-23400D02*
X47163Y-23400D01*
X47163Y-24050D02*
X47700Y-24050D01*
X47163Y-24700D02*
X47700Y-24700D01*
X65500Y-27450D02*
X65850Y-27800D01*
X65850Y-27800D02*
X65850Y-28350D01*
X68650Y-29850D02*
X68650Y-29513D01*
X68650Y-29513D02*
X68387Y-29250D01*
G54D10*
G36*
X48565Y-28464D02*
X48516Y-28464D01*
X48297Y-28464D01*
X48297Y-27728D01*
X48297Y-27393D01*
X47962Y-27393D01*
X47900Y-27455D01*
X47901Y-27589D01*
X47939Y-27681D01*
X48009Y-27751D01*
X48100Y-27789D01*
X48199Y-27789D01*
X48235Y-27790D01*
X48297Y-27728D01*
X48297Y-28464D01*
X48122Y-28464D01*
X48071Y-28485D01*
X48032Y-28525D01*
X48011Y-28576D01*
X48011Y-28615D01*
X46747Y-28615D01*
X46747Y-27455D01*
X46685Y-27393D01*
X46350Y-27393D01*
X46350Y-27728D01*
X46412Y-27790D01*
X46448Y-27789D01*
X46547Y-27789D01*
X46638Y-27751D01*
X46708Y-27681D01*
X46746Y-27589D01*
X46747Y-27455D01*
X46747Y-28615D01*
X46636Y-28615D01*
X46636Y-28575D01*
X46615Y-28524D01*
X46575Y-28485D01*
X46524Y-28464D01*
X46469Y-28464D01*
X46225Y-28464D01*
X46085Y-28323D01*
X46085Y-27789D01*
X46152Y-27789D01*
X46188Y-27790D01*
X46250Y-27728D01*
X46250Y-27443D01*
X46250Y-27393D01*
X46250Y-27293D01*
X46350Y-27293D01*
X46400Y-27293D01*
X46685Y-27293D01*
X46747Y-27231D01*
X46746Y-27097D01*
X46708Y-27005D01*
X46638Y-26935D01*
X48009Y-26935D01*
X47939Y-27005D01*
X47901Y-27097D01*
X47900Y-27231D01*
X47962Y-27293D01*
X48247Y-27293D01*
X48297Y-27293D01*
X48397Y-27293D01*
X48397Y-27393D01*
X48397Y-27443D01*
X48397Y-27728D01*
X48459Y-27790D01*
X48495Y-27789D01*
X48565Y-27789D01*
X48565Y-28464D01*
X48565Y-28464D01*
G37*
G54D30*
X48565Y-28464D02*
X48516Y-28464D01*
X48297Y-28464D01*
X48297Y-27728D01*
X48297Y-27393D01*
X47962Y-27393D01*
X47900Y-27455D01*
X47901Y-27589D01*
X47939Y-27681D01*
X48009Y-27751D01*
X48100Y-27789D01*
X48199Y-27789D01*
X48235Y-27790D01*
X48297Y-27728D01*
X48297Y-28464D01*
X48122Y-28464D01*
X48071Y-28485D01*
X48032Y-28525D01*
X48011Y-28576D01*
X48011Y-28615D01*
X46747Y-28615D01*
X46747Y-27455D01*
X46685Y-27393D01*
X46350Y-27393D01*
X46350Y-27728D01*
X46412Y-27790D01*
X46448Y-27789D01*
X46547Y-27789D01*
X46638Y-27751D01*
X46708Y-27681D01*
X46746Y-27589D01*
X46747Y-27455D01*
X46747Y-28615D01*
X46636Y-28615D01*
X46636Y-28575D01*
X46615Y-28524D01*
X46575Y-28485D01*
X46524Y-28464D01*
X46469Y-28464D01*
X46225Y-28464D01*
X46085Y-28323D01*
X46085Y-27789D01*
X46152Y-27789D01*
X46188Y-27790D01*
X46250Y-27728D01*
X46250Y-27443D01*
X46250Y-27393D01*
X46250Y-27293D01*
X46350Y-27293D01*
X46400Y-27293D01*
X46685Y-27293D01*
X46747Y-27231D01*
X46746Y-27097D01*
X46708Y-27005D01*
X46638Y-26935D01*
X48009Y-26935D01*
X47939Y-27005D01*
X47901Y-27097D01*
X47900Y-27231D01*
X47962Y-27293D01*
X48247Y-27293D01*
X48297Y-27293D01*
X48397Y-27293D01*
X48397Y-27393D01*
X48397Y-27443D01*
X48397Y-27728D01*
X48459Y-27790D01*
X48495Y-27789D01*
X48565Y-27789D01*
X48565Y-28464D01*
G54D10*
G36*
X50250Y-27491D02*
X49972Y-27491D01*
X49962Y-27495D01*
X49910Y-27495D01*
X49839Y-27509D01*
X49830Y-27515D01*
X49812Y-27515D01*
X49750Y-27577D01*
X49743Y-27585D01*
X49490Y-27585D01*
X49423Y-27598D01*
X49747Y-27275D01*
X49813Y-27275D01*
X49789Y-27299D01*
X49751Y-27391D01*
X49750Y-27403D01*
X49812Y-27465D01*
X49939Y-27465D01*
X49973Y-27479D01*
X50028Y-27479D01*
X50250Y-27479D01*
X50250Y-27491D01*
X50250Y-27491D01*
G37*
G54D30*
X50250Y-27491D02*
X49972Y-27491D01*
X49962Y-27495D01*
X49910Y-27495D01*
X49839Y-27509D01*
X49830Y-27515D01*
X49812Y-27515D01*
X49750Y-27577D01*
X49743Y-27585D01*
X49490Y-27585D01*
X49423Y-27598D01*
X49747Y-27275D01*
X49813Y-27275D01*
X49789Y-27299D01*
X49751Y-27391D01*
X49750Y-27403D01*
X49812Y-27465D01*
X49939Y-27465D01*
X49973Y-27479D01*
X50028Y-27479D01*
X50250Y-27479D01*
X50250Y-27491D01*
G54D10*
G36*
X54127Y-29100D02*
X54126Y-29101D01*
X54055Y-29101D01*
X54055Y-29313D01*
X54051Y-29323D01*
X54051Y-29378D01*
X54051Y-29600D01*
X54029Y-29600D01*
X54029Y-29322D01*
X54015Y-29288D01*
X54015Y-29162D01*
X53954Y-29101D01*
X53940Y-29101D01*
X53849Y-29139D01*
X53779Y-29209D01*
X53778Y-29211D01*
X53762Y-29211D01*
X53744Y-29218D01*
X53727Y-29211D01*
X53672Y-29211D01*
X53572Y-29211D01*
X53549Y-29220D01*
X53542Y-29217D01*
X53546Y-29209D01*
X53546Y-29091D01*
X53501Y-28982D01*
X53460Y-28941D01*
X53460Y-28850D01*
X53460Y-27696D01*
X53704Y-27452D01*
X53704Y-27569D01*
X53749Y-27678D01*
X53832Y-27761D01*
X53941Y-27806D01*
X54034Y-27806D01*
X54055Y-27827D01*
X54055Y-29100D01*
X54127Y-29100D01*
X54127Y-29100D01*
G37*
G54D30*
X54127Y-29100D02*
X54126Y-29101D01*
X54055Y-29101D01*
X54055Y-29313D01*
X54051Y-29323D01*
X54051Y-29378D01*
X54051Y-29600D01*
X54029Y-29600D01*
X54029Y-29322D01*
X54015Y-29288D01*
X54015Y-29162D01*
X53954Y-29101D01*
X53940Y-29101D01*
X53849Y-29139D01*
X53779Y-29209D01*
X53778Y-29211D01*
X53762Y-29211D01*
X53744Y-29218D01*
X53727Y-29211D01*
X53672Y-29211D01*
X53572Y-29211D01*
X53549Y-29220D01*
X53542Y-29217D01*
X53546Y-29209D01*
X53546Y-29091D01*
X53501Y-28982D01*
X53460Y-28941D01*
X53460Y-28850D01*
X53460Y-27696D01*
X53704Y-27452D01*
X53704Y-27569D01*
X53749Y-27678D01*
X53832Y-27761D01*
X53941Y-27806D01*
X54034Y-27806D01*
X54055Y-27827D01*
X54055Y-29100D01*
X54127Y-29100D01*
G54D10*
G36*
X57058Y-25305D02*
X57038Y-25325D01*
X56536Y-25325D01*
X56527Y-25321D01*
X56472Y-25321D01*
X56250Y-25321D01*
X56250Y-25309D01*
X56528Y-25309D01*
X56537Y-25305D01*
X57058Y-25305D01*
X57058Y-25305D01*
G37*
G54D30*
X57058Y-25305D02*
X57038Y-25325D01*
X56536Y-25325D01*
X56527Y-25321D01*
X56472Y-25321D01*
X56250Y-25321D01*
X56250Y-25309D01*
X56528Y-25309D01*
X56537Y-25305D01*
X57058Y-25305D01*
G54D10*
G36*
X57458Y-27495D02*
X56536Y-27495D01*
X56527Y-27491D01*
X56472Y-27491D01*
X56072Y-27491D01*
X56038Y-27505D01*
X55912Y-27505D01*
X55850Y-27567D01*
X55851Y-27579D01*
X55889Y-27671D01*
X55916Y-27698D01*
X55809Y-27654D01*
X55691Y-27654D01*
X55582Y-27699D01*
X55516Y-27765D01*
X54750Y-27765D01*
X54679Y-27779D01*
X54619Y-27819D01*
X54617Y-27821D01*
X54499Y-27939D01*
X54459Y-27999D01*
X54445Y-28070D01*
X54445Y-28842D01*
X54425Y-28851D01*
X54425Y-27750D01*
X54411Y-27679D01*
X54371Y-27619D01*
X54296Y-27544D01*
X54296Y-27451D01*
X54251Y-27342D01*
X54168Y-27259D01*
X54059Y-27214D01*
X53942Y-27214D01*
X55036Y-26120D01*
X55110Y-26120D01*
X55150Y-26120D01*
X55550Y-26120D01*
X55630Y-26104D01*
X55643Y-26095D01*
X55961Y-26095D01*
X55961Y-26178D01*
X55970Y-26200D01*
X55961Y-26223D01*
X55961Y-26238D01*
X55959Y-26239D01*
X55889Y-26309D01*
X55851Y-26401D01*
X55850Y-26413D01*
X55912Y-26475D01*
X56039Y-26475D01*
X56073Y-26489D01*
X56128Y-26489D01*
X56350Y-26489D01*
X56350Y-26501D01*
X56072Y-26501D01*
X56021Y-26522D01*
X56018Y-26525D01*
X55912Y-26525D01*
X55850Y-26587D01*
X55851Y-26599D01*
X55889Y-26691D01*
X55959Y-26761D01*
X55961Y-26761D01*
X55961Y-26768D01*
X55970Y-26790D01*
X55961Y-26813D01*
X55961Y-26868D01*
X55961Y-26968D01*
X55970Y-26990D01*
X55961Y-27013D01*
X55961Y-27068D01*
X55961Y-27168D01*
X55970Y-27190D01*
X55961Y-27213D01*
X55961Y-27218D01*
X55959Y-27219D01*
X55889Y-27289D01*
X55851Y-27381D01*
X55850Y-27393D01*
X55912Y-27455D01*
X56018Y-27455D01*
X56022Y-27458D01*
X56073Y-27479D01*
X56128Y-27479D01*
X56528Y-27479D01*
X56537Y-27475D01*
X57438Y-27475D01*
X57458Y-27495D01*
X57458Y-27495D01*
G37*
G54D30*
X57458Y-27495D02*
X56536Y-27495D01*
X56527Y-27491D01*
X56472Y-27491D01*
X56072Y-27491D01*
X56038Y-27505D01*
X55912Y-27505D01*
X55850Y-27567D01*
X55851Y-27579D01*
X55889Y-27671D01*
X55916Y-27698D01*
X55809Y-27654D01*
X55691Y-27654D01*
X55582Y-27699D01*
X55516Y-27765D01*
X54750Y-27765D01*
X54679Y-27779D01*
X54619Y-27819D01*
X54617Y-27821D01*
X54499Y-27939D01*
X54459Y-27999D01*
X54445Y-28070D01*
X54445Y-28842D01*
X54425Y-28851D01*
X54425Y-27750D01*
X54411Y-27679D01*
X54371Y-27619D01*
X54296Y-27544D01*
X54296Y-27451D01*
X54251Y-27342D01*
X54168Y-27259D01*
X54059Y-27214D01*
X53942Y-27214D01*
X55036Y-26120D01*
X55110Y-26120D01*
X55150Y-26120D01*
X55550Y-26120D01*
X55630Y-26104D01*
X55643Y-26095D01*
X55961Y-26095D01*
X55961Y-26178D01*
X55970Y-26200D01*
X55961Y-26223D01*
X55961Y-26238D01*
X55959Y-26239D01*
X55889Y-26309D01*
X55851Y-26401D01*
X55850Y-26413D01*
X55912Y-26475D01*
X56039Y-26475D01*
X56073Y-26489D01*
X56128Y-26489D01*
X56350Y-26489D01*
X56350Y-26501D01*
X56072Y-26501D01*
X56021Y-26522D01*
X56018Y-26525D01*
X55912Y-26525D01*
X55850Y-26587D01*
X55851Y-26599D01*
X55889Y-26691D01*
X55959Y-26761D01*
X55961Y-26761D01*
X55961Y-26768D01*
X55970Y-26790D01*
X55961Y-26813D01*
X55961Y-26868D01*
X55961Y-26968D01*
X55970Y-26990D01*
X55961Y-27013D01*
X55961Y-27068D01*
X55961Y-27168D01*
X55970Y-27190D01*
X55961Y-27213D01*
X55961Y-27218D01*
X55959Y-27219D01*
X55889Y-27289D01*
X55851Y-27381D01*
X55850Y-27393D01*
X55912Y-27455D01*
X56018Y-27455D01*
X56022Y-27458D01*
X56073Y-27479D01*
X56128Y-27479D01*
X56528Y-27479D01*
X56537Y-27475D01*
X57438Y-27475D01*
X57458Y-27495D01*
G54D10*
G36*
X58126Y-24345D02*
X56536Y-24345D01*
X56527Y-24341D01*
X56472Y-24341D01*
X56072Y-24341D01*
X56038Y-24355D01*
X55912Y-24355D01*
X55850Y-24417D01*
X55851Y-24429D01*
X55889Y-24521D01*
X55959Y-24591D01*
X55961Y-24591D01*
X55961Y-24608D01*
X55970Y-24630D01*
X55961Y-24653D01*
X55961Y-24708D01*
X55961Y-24808D01*
X55968Y-24825D01*
X55961Y-24843D01*
X55961Y-24898D01*
X55961Y-24998D01*
X55970Y-25020D01*
X55961Y-25043D01*
X55961Y-25058D01*
X55959Y-25059D01*
X55889Y-25129D01*
X55851Y-25220D01*
X55850Y-25220D01*
X55850Y-25233D01*
X55850Y-25270D01*
X55809Y-25254D01*
X55691Y-25254D01*
X55582Y-25299D01*
X55499Y-25382D01*
X55454Y-25491D01*
X55454Y-25609D01*
X55491Y-25700D01*
X55195Y-25700D01*
X55195Y-25150D01*
X55195Y-24370D01*
X55181Y-24299D01*
X55141Y-24239D01*
X54815Y-23913D01*
X54815Y-23899D01*
X54815Y-23700D01*
X54815Y-23686D01*
X54819Y-23677D01*
X54819Y-23622D01*
X54819Y-23400D01*
X54831Y-23400D01*
X54831Y-23678D01*
X54835Y-23687D01*
X54835Y-23850D01*
X54844Y-23899D01*
X54849Y-23921D01*
X54889Y-23981D01*
X55017Y-24108D01*
X55019Y-24111D01*
X55419Y-24511D01*
X55339Y-24592D01*
X55294Y-24701D01*
X55294Y-24819D01*
X55339Y-24928D01*
X55422Y-25011D01*
X55531Y-25056D01*
X55649Y-25056D01*
X55758Y-25011D01*
X55841Y-24928D01*
X55886Y-24819D01*
X55886Y-24701D01*
X55841Y-24592D01*
X55795Y-24546D01*
X55795Y-24440D01*
X55795Y-24412D01*
X55781Y-24341D01*
X55741Y-24281D01*
X55681Y-24241D01*
X55669Y-24238D01*
X55596Y-24165D01*
X55878Y-24165D01*
X55851Y-24231D01*
X55850Y-24243D01*
X55912Y-24305D01*
X56018Y-24305D01*
X56022Y-24308D01*
X56073Y-24329D01*
X56128Y-24329D01*
X56528Y-24329D01*
X56537Y-24325D01*
X58116Y-24325D01*
X58124Y-24343D01*
X58126Y-24345D01*
X58126Y-24345D01*
G37*
G54D30*
X58126Y-24345D02*
X56536Y-24345D01*
X56527Y-24341D01*
X56472Y-24341D01*
X56072Y-24341D01*
X56038Y-24355D01*
X55912Y-24355D01*
X55850Y-24417D01*
X55851Y-24429D01*
X55889Y-24521D01*
X55959Y-24591D01*
X55961Y-24591D01*
X55961Y-24608D01*
X55970Y-24630D01*
X55961Y-24653D01*
X55961Y-24708D01*
X55961Y-24808D01*
X55968Y-24825D01*
X55961Y-24843D01*
X55961Y-24898D01*
X55961Y-24998D01*
X55970Y-25020D01*
X55961Y-25043D01*
X55961Y-25058D01*
X55959Y-25059D01*
X55889Y-25129D01*
X55851Y-25220D01*
X55850Y-25220D01*
X55850Y-25233D01*
X55850Y-25270D01*
X55809Y-25254D01*
X55691Y-25254D01*
X55582Y-25299D01*
X55499Y-25382D01*
X55454Y-25491D01*
X55454Y-25609D01*
X55491Y-25700D01*
X55195Y-25700D01*
X55195Y-25150D01*
X55195Y-24370D01*
X55181Y-24299D01*
X55141Y-24239D01*
X54815Y-23913D01*
X54815Y-23899D01*
X54815Y-23700D01*
X54815Y-23686D01*
X54819Y-23677D01*
X54819Y-23622D01*
X54819Y-23400D01*
X54831Y-23400D01*
X54831Y-23678D01*
X54835Y-23687D01*
X54835Y-23850D01*
X54844Y-23899D01*
X54849Y-23921D01*
X54889Y-23981D01*
X55017Y-24108D01*
X55019Y-24111D01*
X55419Y-24511D01*
X55339Y-24592D01*
X55294Y-24701D01*
X55294Y-24819D01*
X55339Y-24928D01*
X55422Y-25011D01*
X55531Y-25056D01*
X55649Y-25056D01*
X55758Y-25011D01*
X55841Y-24928D01*
X55886Y-24819D01*
X55886Y-24701D01*
X55841Y-24592D01*
X55795Y-24546D01*
X55795Y-24440D01*
X55795Y-24412D01*
X55781Y-24341D01*
X55741Y-24281D01*
X55681Y-24241D01*
X55669Y-24238D01*
X55596Y-24165D01*
X55878Y-24165D01*
X55851Y-24231D01*
X55850Y-24243D01*
X55912Y-24305D01*
X56018Y-24305D01*
X56022Y-24308D01*
X56073Y-24329D01*
X56128Y-24329D01*
X56528Y-24329D01*
X56537Y-24325D01*
X58116Y-24325D01*
X58124Y-24343D01*
X58126Y-24345D01*
G54D10*
G36*
X61915Y-27066D02*
X61874Y-27107D01*
X61829Y-27216D01*
X61829Y-27249D01*
X61231Y-26652D01*
X61164Y-26606D01*
X61150Y-26603D01*
X61083Y-26590D01*
X58809Y-26590D01*
X58768Y-26549D01*
X58659Y-26504D01*
X58541Y-26504D01*
X58434Y-26547D01*
X58377Y-26490D01*
X61563Y-26490D01*
X61915Y-26841D01*
X61915Y-27066D01*
X61915Y-27066D01*
G37*
G54D30*
X61915Y-27066D02*
X61874Y-27107D01*
X61829Y-27216D01*
X61829Y-27249D01*
X61231Y-26652D01*
X61164Y-26606D01*
X61150Y-26603D01*
X61083Y-26590D01*
X58809Y-26590D01*
X58768Y-26549D01*
X58659Y-26504D01*
X58541Y-26504D01*
X58434Y-26547D01*
X58377Y-26490D01*
X61563Y-26490D01*
X61915Y-26841D01*
X61915Y-27066D01*
G54D10*
G36*
X64465Y-27112D02*
X64409Y-27089D01*
X64291Y-27089D01*
X64182Y-27134D01*
X64099Y-27217D01*
X64080Y-27261D01*
X63752Y-27261D01*
X63701Y-27282D01*
X63662Y-27322D01*
X63641Y-27373D01*
X63641Y-27428D01*
X63641Y-27590D01*
X62186Y-27590D01*
X62167Y-27571D01*
X62184Y-27571D01*
X62293Y-27526D01*
X62376Y-27443D01*
X62421Y-27334D01*
X62421Y-27216D01*
X62376Y-27107D01*
X62335Y-27066D01*
X62335Y-26755D01*
X62321Y-26687D01*
X62319Y-26675D01*
X62319Y-26674D01*
X62273Y-26607D01*
X62273Y-26606D01*
X61861Y-26194D01*
X61861Y-26185D01*
X62078Y-25969D01*
X62078Y-25968D01*
X62108Y-25923D01*
X62123Y-25901D01*
X62124Y-25900D01*
X62139Y-25820D01*
X62140Y-25820D01*
X62140Y-25789D01*
X62181Y-25748D01*
X62226Y-25639D01*
X62226Y-25521D01*
X62181Y-25412D01*
X62098Y-25329D01*
X62058Y-25312D01*
X62776Y-24595D01*
X62993Y-24595D01*
X62954Y-24691D01*
X62954Y-24809D01*
X62999Y-24918D01*
X63082Y-25001D01*
X63191Y-25046D01*
X63249Y-25046D01*
X63261Y-25057D01*
X63261Y-25628D01*
X63282Y-25679D01*
X63322Y-25718D01*
X63373Y-25739D01*
X63390Y-25739D01*
X63390Y-25950D01*
X63403Y-26017D01*
X63406Y-26031D01*
X63452Y-26098D01*
X64465Y-27112D01*
X64465Y-27112D01*
G37*
G54D30*
X64465Y-27112D02*
X64409Y-27089D01*
X64291Y-27089D01*
X64182Y-27134D01*
X64099Y-27217D01*
X64080Y-27261D01*
X63752Y-27261D01*
X63701Y-27282D01*
X63662Y-27322D01*
X63641Y-27373D01*
X63641Y-27428D01*
X63641Y-27590D01*
X62186Y-27590D01*
X62167Y-27571D01*
X62184Y-27571D01*
X62293Y-27526D01*
X62376Y-27443D01*
X62421Y-27334D01*
X62421Y-27216D01*
X62376Y-27107D01*
X62335Y-27066D01*
X62335Y-26755D01*
X62321Y-26687D01*
X62319Y-26675D01*
X62319Y-26674D01*
X62273Y-26607D01*
X62273Y-26606D01*
X61861Y-26194D01*
X61861Y-26185D01*
X62078Y-25969D01*
X62078Y-25968D01*
X62108Y-25923D01*
X62123Y-25901D01*
X62124Y-25900D01*
X62139Y-25820D01*
X62140Y-25820D01*
X62140Y-25789D01*
X62181Y-25748D01*
X62226Y-25639D01*
X62226Y-25521D01*
X62181Y-25412D01*
X62098Y-25329D01*
X62058Y-25312D01*
X62776Y-24595D01*
X62993Y-24595D01*
X62954Y-24691D01*
X62954Y-24809D01*
X62999Y-24918D01*
X63082Y-25001D01*
X63191Y-25046D01*
X63249Y-25046D01*
X63261Y-25057D01*
X63261Y-25628D01*
X63282Y-25679D01*
X63322Y-25718D01*
X63373Y-25739D01*
X63390Y-25739D01*
X63390Y-25950D01*
X63403Y-26017D01*
X63406Y-26031D01*
X63452Y-26098D01*
X64465Y-27112D01*
G54D10*
G36*
X65665Y-28086D02*
X65597Y-28086D01*
X65546Y-28107D01*
X65507Y-28147D01*
X65486Y-28198D01*
X65486Y-28253D01*
X65486Y-28503D01*
X65507Y-28554D01*
X65543Y-28589D01*
X65484Y-28614D01*
X65414Y-28684D01*
X65376Y-28776D01*
X65375Y-28838D01*
X64931Y-28394D01*
X64871Y-28354D01*
X64800Y-28340D01*
X62626Y-28340D01*
X62296Y-28010D01*
X63641Y-28010D01*
X63641Y-28228D01*
X63662Y-28279D01*
X63702Y-28318D01*
X63753Y-28339D01*
X63808Y-28339D01*
X65248Y-28339D01*
X65299Y-28318D01*
X65338Y-28278D01*
X65359Y-28227D01*
X65359Y-28172D01*
X65359Y-27712D01*
X65441Y-27746D01*
X65534Y-27746D01*
X65665Y-27877D01*
X65665Y-28086D01*
X65665Y-28086D01*
G37*
G54D30*
X65665Y-28086D02*
X65597Y-28086D01*
X65546Y-28107D01*
X65507Y-28147D01*
X65486Y-28198D01*
X65486Y-28253D01*
X65486Y-28503D01*
X65507Y-28554D01*
X65543Y-28589D01*
X65484Y-28614D01*
X65414Y-28684D01*
X65376Y-28776D01*
X65375Y-28838D01*
X64931Y-28394D01*
X64871Y-28354D01*
X64800Y-28340D01*
X62626Y-28340D01*
X62296Y-28010D01*
X63641Y-28010D01*
X63641Y-28228D01*
X63662Y-28279D01*
X63702Y-28318D01*
X63753Y-28339D01*
X63808Y-28339D01*
X65248Y-28339D01*
X65299Y-28318D01*
X65338Y-28278D01*
X65359Y-28227D01*
X65359Y-28172D01*
X65359Y-27712D01*
X65441Y-27746D01*
X65534Y-27746D01*
X65665Y-27877D01*
X65665Y-28086D01*
G54D10*
G36*
X69535Y-31035D02*
X68075Y-31035D01*
X68134Y-31032D01*
X68281Y-30972D01*
X68308Y-30878D01*
X68000Y-30571D01*
X67929Y-30641D01*
X67929Y-30500D01*
X67622Y-30192D01*
X67528Y-30219D01*
X67457Y-30421D01*
X67468Y-30634D01*
X67528Y-30781D01*
X67622Y-30808D01*
X67929Y-30500D01*
X67929Y-30641D01*
X67692Y-30878D01*
X67719Y-30972D01*
X67898Y-31035D01*
X58439Y-31035D01*
X58439Y-30588D01*
X58439Y-30413D01*
X58372Y-30252D01*
X58249Y-30128D01*
X58088Y-30061D01*
X57913Y-30061D01*
X57849Y-30087D01*
X57501Y-29739D01*
X57441Y-29699D01*
X57370Y-29685D01*
X55799Y-29685D01*
X55799Y-29322D01*
X55778Y-29271D01*
X55738Y-29232D01*
X55687Y-29211D01*
X55632Y-29211D01*
X55532Y-29211D01*
X55514Y-29218D01*
X55497Y-29211D01*
X55442Y-29211D01*
X55342Y-29211D01*
X55319Y-29220D01*
X55297Y-29211D01*
X55281Y-29211D01*
X55281Y-29209D01*
X55211Y-29139D01*
X55120Y-29101D01*
X55106Y-29101D01*
X55045Y-29162D01*
X55045Y-29289D01*
X55031Y-29323D01*
X55031Y-29378D01*
X55031Y-29778D01*
X55045Y-29812D01*
X55045Y-29938D01*
X55106Y-29999D01*
X55120Y-29999D01*
X55211Y-29961D01*
X55246Y-29925D01*
X55249Y-29941D01*
X55289Y-30001D01*
X55449Y-30161D01*
X55509Y-30201D01*
X55580Y-30215D01*
X55664Y-30215D01*
X55628Y-30251D01*
X55561Y-30412D01*
X55561Y-30587D01*
X55628Y-30748D01*
X55751Y-30872D01*
X55912Y-30939D01*
X56087Y-30939D01*
X56248Y-30872D01*
X56372Y-30749D01*
X56439Y-30588D01*
X56439Y-30413D01*
X56372Y-30252D01*
X56335Y-30215D01*
X56453Y-30215D01*
X56587Y-30348D01*
X56561Y-30412D01*
X56561Y-30587D01*
X56628Y-30748D01*
X56751Y-30872D01*
X56912Y-30939D01*
X57087Y-30939D01*
X57248Y-30872D01*
X57372Y-30749D01*
X57439Y-30588D01*
X57439Y-30413D01*
X57372Y-30252D01*
X57249Y-30128D01*
X57088Y-30061D01*
X56913Y-30061D01*
X56849Y-30087D01*
X56816Y-30055D01*
X57293Y-30055D01*
X57587Y-30348D01*
X57561Y-30412D01*
X57561Y-30587D01*
X57628Y-30748D01*
X57751Y-30872D01*
X57912Y-30939D01*
X58087Y-30939D01*
X58248Y-30872D01*
X58372Y-30749D01*
X58439Y-30588D01*
X58439Y-31035D01*
X51439Y-31035D01*
X51439Y-30588D01*
X51439Y-30413D01*
X51372Y-30252D01*
X51249Y-30128D01*
X51088Y-30061D01*
X50913Y-30061D01*
X50752Y-30128D01*
X50628Y-30251D01*
X50561Y-30412D01*
X50561Y-30587D01*
X50628Y-30748D01*
X50751Y-30872D01*
X50912Y-30939D01*
X51087Y-30939D01*
X51248Y-30872D01*
X51372Y-30749D01*
X51439Y-30588D01*
X51439Y-31035D01*
X45489Y-31035D01*
X45489Y-30598D01*
X45489Y-30403D01*
X45489Y-22598D01*
X45489Y-22403D01*
X45415Y-22223D01*
X45277Y-22086D01*
X45098Y-22011D01*
X44903Y-22011D01*
X44723Y-22085D01*
X44586Y-22223D01*
X44511Y-22402D01*
X44511Y-22597D01*
X44585Y-22777D01*
X44723Y-22914D01*
X44902Y-22989D01*
X45097Y-22989D01*
X45277Y-22915D01*
X45414Y-22777D01*
X45489Y-22598D01*
X45489Y-30403D01*
X45415Y-30223D01*
X45277Y-30086D01*
X45098Y-30011D01*
X44903Y-30011D01*
X44723Y-30085D01*
X44586Y-30223D01*
X44511Y-30402D01*
X44511Y-30597D01*
X44585Y-30777D01*
X44723Y-30914D01*
X44902Y-30989D01*
X45097Y-30989D01*
X45277Y-30915D01*
X45414Y-30777D01*
X45489Y-30598D01*
X45489Y-31035D01*
X44500Y-31035D01*
X44465Y-31035D01*
X44465Y-28665D01*
X45055Y-28665D01*
X45055Y-24835D01*
X44465Y-24835D01*
X44465Y-21965D01*
X67924Y-21965D01*
X67866Y-21968D01*
X67719Y-22028D01*
X67692Y-22122D01*
X68000Y-22429D01*
X68308Y-22122D01*
X68281Y-22028D01*
X68101Y-21965D01*
X69535Y-21965D01*
X69535Y-22000D01*
X69535Y-28903D01*
X69527Y-28896D01*
X69476Y-28875D01*
X69421Y-28875D01*
X69271Y-28875D01*
X69160Y-28764D01*
X69366Y-28764D01*
X69417Y-28743D01*
X69456Y-28703D01*
X69477Y-28652D01*
X69477Y-28597D01*
X69477Y-27731D01*
X69456Y-27680D01*
X69416Y-27641D01*
X69365Y-27620D01*
X69310Y-27620D01*
X68476Y-27620D01*
X68548Y-27549D01*
X68548Y-27548D01*
X68549Y-27546D01*
X69348Y-26749D01*
X69348Y-26748D01*
X69378Y-26703D01*
X69393Y-26681D01*
X69394Y-26680D01*
X69409Y-26600D01*
X69410Y-26600D01*
X69410Y-26259D01*
X69451Y-26218D01*
X69496Y-26109D01*
X69496Y-25991D01*
X69477Y-25944D01*
X69477Y-25268D01*
X69477Y-25213D01*
X69477Y-24347D01*
X69456Y-24296D01*
X69439Y-24279D01*
X69439Y-22827D01*
X69439Y-22772D01*
X69439Y-22172D01*
X69418Y-22121D01*
X69378Y-22082D01*
X69327Y-22061D01*
X69272Y-22061D01*
X68672Y-22061D01*
X68621Y-22082D01*
X68582Y-22122D01*
X68561Y-22173D01*
X68561Y-22228D01*
X68561Y-22828D01*
X68582Y-22879D01*
X68622Y-22918D01*
X68673Y-22939D01*
X68728Y-22939D01*
X69328Y-22939D01*
X69379Y-22918D01*
X69418Y-22878D01*
X69439Y-22827D01*
X69439Y-24279D01*
X69416Y-24257D01*
X69365Y-24236D01*
X69310Y-24236D01*
X68543Y-24236D01*
X68543Y-22579D01*
X68532Y-22366D01*
X68472Y-22219D01*
X68378Y-22192D01*
X68071Y-22500D01*
X68378Y-22808D01*
X68472Y-22781D01*
X68543Y-22579D01*
X68543Y-24236D01*
X68404Y-24236D01*
X68353Y-24257D01*
X68314Y-24297D01*
X68308Y-24311D01*
X68308Y-22878D01*
X68000Y-22571D01*
X67929Y-22641D01*
X67929Y-22500D01*
X67622Y-22192D01*
X67528Y-22219D01*
X67457Y-22421D01*
X67468Y-22634D01*
X67528Y-22781D01*
X67622Y-22808D01*
X67929Y-22500D01*
X67929Y-22641D01*
X67692Y-22878D01*
X67719Y-22972D01*
X67921Y-23043D01*
X68134Y-23032D01*
X68281Y-22972D01*
X68308Y-22878D01*
X68308Y-24311D01*
X68293Y-24348D01*
X68293Y-24403D01*
X68293Y-25269D01*
X68314Y-25320D01*
X68354Y-25359D01*
X68405Y-25380D01*
X68460Y-25380D01*
X69366Y-25380D01*
X69417Y-25359D01*
X69456Y-25319D01*
X69477Y-25268D01*
X69477Y-25944D01*
X69451Y-25882D01*
X69368Y-25799D01*
X69259Y-25754D01*
X69141Y-25754D01*
X69032Y-25799D01*
X68949Y-25882D01*
X68904Y-25991D01*
X68904Y-26109D01*
X68949Y-26218D01*
X68990Y-26259D01*
X68990Y-26513D01*
X68253Y-27250D01*
X68251Y-27252D01*
X68111Y-27392D01*
X68111Y-27293D01*
X68111Y-25707D01*
X68111Y-25561D01*
X68055Y-25426D01*
X67952Y-25323D01*
X67817Y-25267D01*
X67671Y-25267D01*
X67536Y-25323D01*
X67433Y-25426D01*
X67377Y-25561D01*
X67377Y-25707D01*
X67433Y-25842D01*
X67536Y-25945D01*
X67671Y-26001D01*
X67817Y-26001D01*
X67952Y-25945D01*
X68055Y-25842D01*
X68111Y-25707D01*
X68111Y-27293D01*
X68055Y-27158D01*
X67952Y-27055D01*
X67817Y-26999D01*
X67671Y-26999D01*
X67536Y-27055D01*
X67468Y-27122D01*
X67328Y-26982D01*
X67312Y-26971D01*
X67312Y-25268D01*
X67312Y-25213D01*
X67312Y-24347D01*
X67291Y-24296D01*
X67251Y-24257D01*
X67200Y-24236D01*
X67145Y-24236D01*
X66239Y-24236D01*
X66188Y-24257D01*
X66149Y-24297D01*
X66128Y-24348D01*
X66128Y-24403D01*
X66128Y-25269D01*
X66149Y-25320D01*
X66189Y-25359D01*
X66240Y-25380D01*
X66295Y-25380D01*
X67201Y-25380D01*
X67252Y-25359D01*
X67291Y-25319D01*
X67312Y-25268D01*
X67312Y-26971D01*
X67261Y-26936D01*
X67247Y-26933D01*
X67180Y-26920D01*
X67036Y-26920D01*
X67036Y-26895D01*
X67036Y-26679D01*
X67026Y-26657D01*
X67036Y-26635D01*
X67036Y-26580D01*
X67036Y-26504D01*
X67038Y-26504D01*
X67108Y-26434D01*
X67146Y-26342D01*
X67147Y-26297D01*
X67147Y-26073D01*
X67146Y-26028D01*
X67145Y-26026D01*
X67146Y-26025D01*
X67147Y-25980D01*
X67147Y-25756D01*
X67146Y-25711D01*
X67108Y-25619D01*
X67038Y-25549D01*
X66947Y-25511D01*
X66848Y-25511D01*
X66694Y-25510D01*
X66632Y-25572D01*
X66632Y-25818D01*
X67085Y-25818D01*
X67147Y-25756D01*
X67147Y-25980D01*
X67111Y-25944D01*
X67108Y-25936D01*
X67038Y-25866D01*
X66947Y-25828D01*
X66848Y-25828D01*
X66694Y-25827D01*
X66632Y-25889D01*
X66632Y-25918D01*
X66632Y-26135D01*
X66632Y-26164D01*
X66694Y-26226D01*
X66848Y-26225D01*
X66947Y-26225D01*
X67038Y-26187D01*
X67108Y-26117D01*
X67111Y-26108D01*
X67147Y-26073D01*
X67147Y-26297D01*
X67085Y-26235D01*
X66682Y-26235D01*
X66632Y-26235D01*
X66532Y-26235D01*
X66532Y-26164D01*
X66532Y-26135D01*
X66532Y-25918D01*
X66532Y-25889D01*
X66532Y-25818D01*
X66532Y-25572D01*
X66470Y-25510D01*
X66316Y-25511D01*
X66217Y-25511D01*
X66126Y-25549D01*
X66056Y-25619D01*
X66018Y-25711D01*
X66017Y-25756D01*
X66079Y-25818D01*
X66532Y-25818D01*
X66532Y-25889D01*
X66470Y-25827D01*
X66316Y-25828D01*
X66217Y-25828D01*
X66126Y-25866D01*
X66056Y-25936D01*
X66052Y-25944D01*
X66017Y-25980D01*
X66018Y-26025D01*
X66018Y-26026D01*
X66018Y-26028D01*
X66017Y-26073D01*
X66052Y-26108D01*
X66056Y-26117D01*
X66126Y-26187D01*
X66217Y-26225D01*
X66316Y-26225D01*
X66470Y-26226D01*
X66532Y-26164D01*
X66532Y-26235D01*
X66482Y-26235D01*
X66079Y-26235D01*
X66017Y-26297D01*
X66017Y-26315D01*
X65850Y-26315D01*
X65850Y-25312D01*
X65850Y-25088D01*
X65849Y-24849D01*
X65849Y-24750D01*
X65811Y-24659D01*
X65741Y-24589D01*
X65649Y-24551D01*
X65512Y-24550D01*
X65450Y-24612D01*
X65450Y-25150D01*
X65788Y-25150D01*
X65850Y-25088D01*
X65850Y-25312D01*
X65788Y-25250D01*
X65450Y-25250D01*
X65450Y-25788D01*
X65512Y-25850D01*
X65649Y-25849D01*
X65741Y-25811D01*
X65811Y-25741D01*
X65849Y-25650D01*
X65849Y-25551D01*
X65850Y-25312D01*
X65850Y-26315D01*
X65650Y-26315D01*
X65646Y-26315D01*
X65646Y-26241D01*
X65601Y-26132D01*
X65518Y-26049D01*
X65409Y-26004D01*
X65350Y-26004D01*
X65350Y-25788D01*
X65350Y-25250D01*
X65350Y-25150D01*
X65350Y-24612D01*
X65288Y-24550D01*
X65151Y-24551D01*
X65059Y-24589D01*
X64989Y-24659D01*
X64951Y-24750D01*
X64951Y-24849D01*
X64950Y-25088D01*
X65012Y-25150D01*
X65350Y-25150D01*
X65350Y-25250D01*
X65012Y-25250D01*
X64950Y-25312D01*
X64951Y-25551D01*
X64951Y-25650D01*
X64989Y-25741D01*
X65059Y-25811D01*
X65151Y-25849D01*
X65288Y-25850D01*
X65350Y-25788D01*
X65350Y-26004D01*
X65291Y-26004D01*
X65182Y-26049D01*
X65099Y-26132D01*
X65054Y-26241D01*
X65054Y-26254D01*
X64991Y-26254D01*
X64882Y-26299D01*
X64839Y-26342D01*
X64839Y-25627D01*
X64839Y-25572D01*
X64839Y-24772D01*
X64818Y-24721D01*
X64778Y-24682D01*
X64727Y-24661D01*
X64672Y-24661D01*
X64272Y-24661D01*
X64221Y-24682D01*
X64182Y-24722D01*
X64161Y-24773D01*
X64161Y-24828D01*
X64161Y-25624D01*
X64154Y-25641D01*
X64154Y-25759D01*
X64199Y-25868D01*
X64282Y-25951D01*
X64391Y-25996D01*
X64509Y-25996D01*
X64618Y-25951D01*
X64701Y-25868D01*
X64746Y-25759D01*
X64746Y-25731D01*
X64779Y-25718D01*
X64818Y-25678D01*
X64839Y-25627D01*
X64839Y-26342D01*
X64799Y-26382D01*
X64754Y-26491D01*
X64754Y-26609D01*
X64799Y-26718D01*
X64882Y-26801D01*
X64991Y-26846D01*
X65084Y-26846D01*
X65158Y-26920D01*
X64866Y-26920D01*
X63810Y-25863D01*
X63810Y-25739D01*
X63828Y-25739D01*
X63879Y-25718D01*
X63918Y-25678D01*
X63939Y-25627D01*
X63939Y-25572D01*
X63939Y-24772D01*
X63918Y-24721D01*
X63878Y-24682D01*
X63827Y-24661D01*
X63772Y-24661D01*
X63533Y-24661D01*
X63501Y-24582D01*
X63425Y-24506D01*
X63635Y-24296D01*
X63729Y-24296D01*
X63838Y-24251D01*
X63921Y-24168D01*
X63966Y-24059D01*
X63966Y-23941D01*
X63932Y-23860D01*
X66575Y-23860D01*
X66646Y-23846D01*
X66706Y-23806D01*
X67131Y-23381D01*
X67171Y-23321D01*
X67185Y-23250D01*
X67185Y-22898D01*
X67248Y-22872D01*
X67372Y-22749D01*
X67439Y-22588D01*
X67439Y-22413D01*
X67372Y-22252D01*
X67249Y-22128D01*
X67088Y-22061D01*
X66913Y-22061D01*
X66752Y-22128D01*
X66628Y-22251D01*
X66561Y-22412D01*
X66561Y-22587D01*
X66628Y-22748D01*
X66751Y-22872D01*
X66815Y-22898D01*
X66815Y-23173D01*
X66498Y-23490D01*
X65822Y-23490D01*
X66131Y-23181D01*
X66171Y-23121D01*
X66185Y-23050D01*
X66185Y-22898D01*
X66248Y-22872D01*
X66372Y-22749D01*
X66439Y-22588D01*
X66439Y-22413D01*
X66372Y-22252D01*
X66249Y-22128D01*
X66088Y-22061D01*
X65913Y-22061D01*
X65752Y-22128D01*
X65628Y-22251D01*
X65561Y-22412D01*
X65561Y-22587D01*
X65628Y-22748D01*
X65751Y-22872D01*
X65815Y-22898D01*
X65815Y-22973D01*
X65473Y-23315D01*
X64947Y-23315D01*
X65131Y-23131D01*
X65171Y-23071D01*
X65185Y-23000D01*
X65185Y-22898D01*
X65248Y-22872D01*
X65372Y-22749D01*
X65439Y-22588D01*
X65439Y-22413D01*
X65372Y-22252D01*
X65249Y-22128D01*
X65088Y-22061D01*
X64913Y-22061D01*
X64752Y-22128D01*
X64628Y-22251D01*
X64561Y-22412D01*
X64561Y-22587D01*
X64628Y-22748D01*
X64751Y-22872D01*
X64815Y-22898D01*
X64815Y-22923D01*
X64623Y-23115D01*
X63996Y-23115D01*
X64128Y-22982D01*
X64130Y-22981D01*
X64131Y-22981D01*
X64171Y-22921D01*
X64174Y-22902D01*
X64248Y-22872D01*
X64372Y-22749D01*
X64439Y-22588D01*
X64439Y-22413D01*
X64372Y-22252D01*
X64249Y-22128D01*
X64088Y-22061D01*
X63913Y-22061D01*
X63752Y-22128D01*
X63628Y-22251D01*
X63561Y-22412D01*
X63561Y-22587D01*
X63628Y-22748D01*
X63733Y-22854D01*
X63673Y-22915D01*
X63144Y-22915D01*
X63248Y-22872D01*
X63372Y-22749D01*
X63439Y-22588D01*
X63439Y-22413D01*
X63372Y-22252D01*
X63249Y-22128D01*
X63088Y-22061D01*
X62913Y-22061D01*
X62752Y-22128D01*
X62628Y-22251D01*
X62561Y-22412D01*
X62561Y-22587D01*
X62587Y-22651D01*
X60893Y-24345D01*
X58624Y-24345D01*
X58626Y-24343D01*
X58671Y-24234D01*
X58671Y-24185D01*
X60330Y-24185D01*
X60401Y-24171D01*
X60461Y-24131D01*
X61735Y-22856D01*
X61751Y-22872D01*
X61912Y-22939D01*
X62087Y-22939D01*
X62248Y-22872D01*
X62372Y-22749D01*
X62439Y-22588D01*
X62439Y-22413D01*
X62372Y-22252D01*
X62249Y-22128D01*
X62088Y-22061D01*
X61913Y-22061D01*
X61752Y-22128D01*
X61628Y-22251D01*
X61561Y-22412D01*
X61561Y-22507D01*
X61409Y-22658D01*
X61439Y-22588D01*
X61439Y-22413D01*
X61372Y-22252D01*
X61249Y-22128D01*
X61088Y-22061D01*
X60913Y-22061D01*
X60752Y-22128D01*
X60628Y-22251D01*
X60561Y-22412D01*
X60561Y-22587D01*
X60628Y-22748D01*
X60751Y-22872D01*
X60815Y-22898D01*
X60815Y-22953D01*
X60439Y-23329D01*
X60439Y-22588D01*
X60439Y-22413D01*
X60372Y-22252D01*
X60249Y-22128D01*
X60088Y-22061D01*
X59913Y-22061D01*
X59752Y-22128D01*
X59628Y-22251D01*
X59561Y-22412D01*
X59561Y-22587D01*
X59628Y-22748D01*
X59751Y-22872D01*
X59912Y-22939D01*
X60087Y-22939D01*
X60248Y-22872D01*
X60372Y-22749D01*
X60439Y-22588D01*
X60439Y-23329D01*
X60183Y-23585D01*
X59439Y-23585D01*
X59439Y-22588D01*
X59439Y-22413D01*
X59372Y-22252D01*
X59249Y-22128D01*
X59088Y-22061D01*
X58913Y-22061D01*
X58752Y-22128D01*
X58628Y-22251D01*
X58561Y-22412D01*
X58561Y-22587D01*
X58628Y-22748D01*
X58751Y-22872D01*
X58912Y-22939D01*
X59087Y-22939D01*
X59248Y-22872D01*
X59372Y-22749D01*
X59439Y-22588D01*
X59439Y-23585D01*
X59064Y-23585D01*
X59096Y-23509D01*
X59096Y-23391D01*
X59051Y-23282D01*
X58968Y-23199D01*
X58859Y-23154D01*
X58741Y-23154D01*
X58632Y-23199D01*
X58566Y-23265D01*
X58439Y-23265D01*
X58439Y-22588D01*
X58439Y-22413D01*
X58372Y-22252D01*
X58249Y-22128D01*
X58088Y-22061D01*
X57913Y-22061D01*
X57752Y-22128D01*
X57628Y-22251D01*
X57561Y-22412D01*
X57561Y-22587D01*
X57628Y-22748D01*
X57751Y-22872D01*
X57912Y-22939D01*
X58087Y-22939D01*
X58248Y-22872D01*
X58372Y-22749D01*
X58439Y-22588D01*
X58439Y-23265D01*
X55799Y-23265D01*
X55799Y-23222D01*
X55778Y-23171D01*
X55771Y-23165D01*
X56520Y-23165D01*
X56591Y-23151D01*
X56651Y-23111D01*
X56848Y-22912D01*
X56912Y-22939D01*
X57087Y-22939D01*
X57248Y-22872D01*
X57372Y-22749D01*
X57439Y-22588D01*
X57439Y-22413D01*
X57372Y-22252D01*
X57249Y-22128D01*
X57088Y-22061D01*
X56913Y-22061D01*
X56752Y-22128D01*
X56628Y-22251D01*
X56561Y-22412D01*
X56561Y-22587D01*
X56587Y-22650D01*
X56443Y-22795D01*
X56325Y-22795D01*
X56372Y-22749D01*
X56439Y-22588D01*
X56439Y-22413D01*
X56372Y-22252D01*
X56249Y-22128D01*
X56088Y-22061D01*
X55913Y-22061D01*
X55752Y-22128D01*
X55628Y-22251D01*
X55561Y-22412D01*
X55561Y-22587D01*
X55628Y-22748D01*
X55674Y-22795D01*
X55325Y-22795D01*
X55372Y-22749D01*
X55439Y-22588D01*
X55439Y-22413D01*
X55372Y-22252D01*
X55249Y-22128D01*
X55088Y-22061D01*
X54913Y-22061D01*
X54752Y-22128D01*
X54628Y-22251D01*
X54561Y-22412D01*
X54561Y-22587D01*
X54628Y-22748D01*
X54674Y-22795D01*
X54325Y-22795D01*
X54372Y-22749D01*
X54439Y-22588D01*
X54439Y-22413D01*
X54372Y-22252D01*
X54249Y-22128D01*
X54088Y-22061D01*
X53913Y-22061D01*
X53752Y-22128D01*
X53664Y-22215D01*
X53625Y-22215D01*
X53554Y-22229D01*
X53494Y-22269D01*
X53412Y-22350D01*
X53372Y-22252D01*
X53249Y-22128D01*
X53088Y-22061D01*
X52913Y-22061D01*
X52752Y-22128D01*
X52628Y-22251D01*
X52561Y-22412D01*
X52561Y-22587D01*
X52628Y-22748D01*
X52665Y-22785D01*
X52665Y-23000D01*
X52747Y-23000D01*
X52746Y-23001D01*
X52665Y-23001D01*
X52665Y-23213D01*
X52661Y-23223D01*
X52661Y-23278D01*
X52661Y-23678D01*
X52682Y-23729D01*
X52685Y-23731D01*
X52685Y-23838D01*
X52746Y-23899D01*
X52760Y-23899D01*
X52851Y-23861D01*
X52921Y-23791D01*
X52921Y-23789D01*
X52928Y-23789D01*
X52950Y-23779D01*
X52973Y-23789D01*
X53028Y-23789D01*
X53128Y-23789D01*
X53150Y-23779D01*
X53173Y-23789D01*
X53178Y-23789D01*
X53179Y-23791D01*
X53249Y-23861D01*
X53340Y-23899D01*
X53354Y-23899D01*
X53415Y-23838D01*
X53415Y-23731D01*
X53418Y-23728D01*
X53439Y-23677D01*
X53439Y-23622D01*
X53439Y-23400D01*
X53451Y-23400D01*
X53451Y-23678D01*
X53455Y-23687D01*
X53455Y-23899D01*
X53455Y-23986D01*
X53449Y-23992D01*
X53404Y-24101D01*
X53404Y-24219D01*
X53449Y-24328D01*
X53532Y-24411D01*
X53641Y-24456D01*
X53759Y-24456D01*
X53868Y-24411D01*
X53951Y-24328D01*
X53996Y-24219D01*
X53996Y-24196D01*
X54049Y-24196D01*
X54095Y-24177D01*
X54095Y-24233D01*
X53799Y-24529D01*
X53759Y-24589D01*
X53745Y-24660D01*
X53745Y-24870D01*
X53759Y-24941D01*
X53799Y-25001D01*
X54035Y-25237D01*
X54035Y-25250D01*
X54049Y-25321D01*
X54089Y-25381D01*
X54149Y-25421D01*
X54220Y-25435D01*
X54291Y-25421D01*
X54345Y-25385D01*
X54660Y-25385D01*
X54731Y-25371D01*
X54791Y-25331D01*
X54801Y-25321D01*
X54825Y-25285D01*
X54825Y-25575D01*
X54819Y-25579D01*
X54779Y-25639D01*
X54765Y-25710D01*
X54765Y-25750D01*
X54765Y-25798D01*
X53102Y-27462D01*
X53056Y-27529D01*
X53053Y-27542D01*
X53040Y-27610D01*
X53040Y-28640D01*
X51736Y-28640D01*
X51360Y-28263D01*
X51360Y-27300D01*
X51346Y-27232D01*
X51344Y-27220D01*
X51344Y-27219D01*
X51298Y-27152D01*
X51298Y-27151D01*
X51146Y-26999D01*
X51146Y-26941D01*
X51101Y-26832D01*
X51018Y-26749D01*
X50909Y-26704D01*
X50791Y-26704D01*
X50682Y-26749D01*
X50647Y-26784D01*
X50588Y-26725D01*
X50461Y-26725D01*
X50427Y-26711D01*
X50372Y-26711D01*
X49972Y-26711D01*
X49962Y-26715D01*
X49600Y-26715D01*
X49529Y-26729D01*
X49469Y-26769D01*
X49467Y-26771D01*
X48935Y-27303D01*
X48935Y-26877D01*
X49127Y-26685D01*
X49963Y-26685D01*
X49973Y-26689D01*
X50028Y-26689D01*
X50428Y-26689D01*
X50462Y-26675D01*
X50588Y-26675D01*
X50650Y-26613D01*
X50649Y-26601D01*
X50611Y-26509D01*
X50541Y-26439D01*
X50539Y-26438D01*
X50539Y-26422D01*
X50531Y-26404D01*
X50539Y-26387D01*
X50539Y-26332D01*
X50539Y-26295D01*
X50626Y-26295D01*
X50682Y-26351D01*
X50791Y-26396D01*
X50909Y-26396D01*
X51018Y-26351D01*
X51101Y-26268D01*
X51146Y-26159D01*
X51146Y-26041D01*
X51101Y-25932D01*
X51018Y-25849D01*
X50909Y-25804D01*
X50791Y-25804D01*
X50682Y-25849D01*
X50606Y-25925D01*
X50539Y-25925D01*
X50539Y-25832D01*
X50529Y-25809D01*
X50539Y-25787D01*
X50539Y-25781D01*
X50541Y-25781D01*
X50611Y-25711D01*
X50649Y-25619D01*
X50650Y-25607D01*
X50588Y-25545D01*
X50481Y-25545D01*
X50478Y-25542D01*
X50427Y-25521D01*
X50372Y-25521D01*
X49972Y-25521D01*
X49962Y-25525D01*
X49387Y-25525D01*
X49185Y-25323D01*
X49185Y-24997D01*
X49639Y-25451D01*
X49699Y-25491D01*
X49770Y-25505D01*
X49963Y-25505D01*
X49973Y-25509D01*
X50028Y-25509D01*
X50428Y-25509D01*
X50462Y-25495D01*
X50588Y-25495D01*
X50650Y-25433D01*
X50649Y-25421D01*
X50611Y-25329D01*
X50541Y-25259D01*
X50539Y-25258D01*
X50539Y-25242D01*
X50529Y-25219D01*
X50539Y-25197D01*
X50539Y-25142D01*
X50539Y-25042D01*
X50531Y-25024D01*
X50539Y-25007D01*
X50539Y-24952D01*
X50539Y-24852D01*
X50529Y-24829D01*
X50539Y-24807D01*
X50539Y-24752D01*
X50539Y-24652D01*
X50529Y-24629D01*
X50539Y-24607D01*
X50539Y-24552D01*
X50539Y-24472D01*
X50541Y-24471D01*
X50728Y-24282D01*
X50730Y-24281D01*
X50731Y-24281D01*
X50771Y-24221D01*
X50785Y-24150D01*
X50785Y-23850D01*
X50783Y-23840D01*
X50796Y-23809D01*
X50796Y-23782D01*
X50813Y-23789D01*
X50868Y-23789D01*
X50896Y-23789D01*
X50909Y-23851D01*
X50949Y-23911D01*
X51067Y-24028D01*
X51069Y-24031D01*
X51129Y-24071D01*
X51200Y-24085D01*
X51207Y-24085D01*
X51229Y-24138D01*
X51312Y-24221D01*
X51421Y-24266D01*
X51539Y-24266D01*
X51648Y-24221D01*
X51731Y-24138D01*
X51776Y-24029D01*
X51776Y-23911D01*
X51771Y-23899D01*
X51784Y-23899D01*
X51845Y-23838D01*
X51845Y-23780D01*
X51855Y-23730D01*
X51855Y-23686D01*
X51859Y-23677D01*
X51859Y-23622D01*
X51859Y-23400D01*
X51881Y-23400D01*
X51881Y-23678D01*
X51895Y-23712D01*
X51895Y-23838D01*
X51956Y-23899D01*
X51970Y-23899D01*
X52061Y-23861D01*
X52131Y-23791D01*
X52131Y-23789D01*
X52148Y-23789D01*
X52165Y-23781D01*
X52183Y-23789D01*
X52202Y-23789D01*
X52129Y-23862D01*
X52084Y-23971D01*
X52084Y-24089D01*
X52129Y-24198D01*
X52212Y-24281D01*
X52321Y-24326D01*
X52439Y-24326D01*
X52548Y-24281D01*
X52631Y-24198D01*
X52676Y-24089D01*
X52676Y-23971D01*
X52646Y-23899D01*
X52645Y-23895D01*
X52645Y-23686D01*
X52649Y-23677D01*
X52649Y-23622D01*
X52649Y-23222D01*
X52635Y-23188D01*
X52635Y-23062D01*
X52574Y-23001D01*
X52560Y-23001D01*
X52469Y-23039D01*
X52445Y-23063D01*
X52445Y-22760D01*
X52431Y-22689D01*
X52410Y-22657D01*
X52439Y-22588D01*
X52439Y-22413D01*
X52372Y-22252D01*
X52249Y-22128D01*
X52088Y-22061D01*
X51913Y-22061D01*
X51752Y-22128D01*
X51628Y-22251D01*
X51561Y-22412D01*
X51561Y-22587D01*
X51569Y-22608D01*
X51439Y-22477D01*
X51439Y-22413D01*
X51372Y-22252D01*
X51249Y-22128D01*
X51088Y-22061D01*
X50913Y-22061D01*
X50752Y-22128D01*
X50628Y-22251D01*
X50561Y-22412D01*
X50561Y-22587D01*
X50628Y-22748D01*
X50662Y-22783D01*
X50544Y-22783D01*
X50412Y-22651D01*
X50439Y-22588D01*
X50439Y-22413D01*
X50372Y-22252D01*
X50249Y-22128D01*
X50088Y-22061D01*
X49913Y-22061D01*
X49752Y-22128D01*
X49628Y-22251D01*
X49561Y-22412D01*
X49561Y-22524D01*
X49431Y-22394D01*
X49372Y-22252D01*
X49249Y-22128D01*
X49088Y-22061D01*
X48913Y-22061D01*
X48752Y-22128D01*
X48628Y-22251D01*
X48561Y-22412D01*
X48561Y-22587D01*
X48628Y-22748D01*
X48751Y-22872D01*
X48912Y-22939D01*
X49087Y-22939D01*
X49107Y-22930D01*
X49073Y-22965D01*
X48727Y-22965D01*
X48412Y-22650D01*
X48439Y-22588D01*
X48439Y-22413D01*
X48372Y-22252D01*
X48249Y-22128D01*
X48088Y-22061D01*
X47913Y-22061D01*
X47752Y-22128D01*
X47628Y-22251D01*
X47561Y-22412D01*
X47561Y-22587D01*
X47628Y-22748D01*
X47751Y-22872D01*
X47912Y-22939D01*
X48087Y-22939D01*
X48150Y-22912D01*
X48274Y-23036D01*
X48147Y-23036D01*
X48096Y-23057D01*
X48057Y-23097D01*
X48036Y-23148D01*
X48036Y-23203D01*
X48036Y-23653D01*
X48057Y-23704D01*
X48078Y-23724D01*
X48057Y-23747D01*
X48036Y-23798D01*
X48036Y-23853D01*
X48036Y-24303D01*
X48057Y-24354D01*
X48078Y-24374D01*
X48057Y-24397D01*
X48036Y-24448D01*
X48036Y-24503D01*
X48036Y-24873D01*
X48009Y-24885D01*
X47964Y-24930D01*
X47964Y-24897D01*
X47964Y-24447D01*
X47943Y-24396D01*
X47921Y-24375D01*
X47943Y-24353D01*
X47964Y-24302D01*
X47964Y-24247D01*
X47964Y-23797D01*
X47943Y-23746D01*
X47921Y-23725D01*
X47943Y-23703D01*
X47964Y-23652D01*
X47964Y-23597D01*
X47964Y-23147D01*
X47943Y-23096D01*
X47903Y-23057D01*
X47852Y-23036D01*
X47797Y-23036D01*
X47547Y-23036D01*
X47496Y-23057D01*
X47492Y-23060D01*
X47477Y-23046D01*
X47426Y-23025D01*
X47371Y-23025D01*
X46899Y-23025D01*
X46848Y-23046D01*
X46809Y-23085D01*
X46784Y-23023D01*
X46714Y-22953D01*
X46622Y-22915D01*
X46597Y-22914D01*
X46677Y-22835D01*
X46714Y-22835D01*
X46751Y-22872D01*
X46912Y-22939D01*
X47087Y-22939D01*
X47248Y-22872D01*
X47372Y-22749D01*
X47439Y-22588D01*
X47439Y-22413D01*
X47372Y-22252D01*
X47249Y-22128D01*
X47088Y-22061D01*
X46913Y-22061D01*
X46752Y-22128D01*
X46628Y-22251D01*
X46561Y-22412D01*
X46561Y-22472D01*
X46529Y-22479D01*
X46469Y-22519D01*
X46468Y-22519D01*
X46468Y-22520D01*
X46439Y-22549D01*
X46439Y-22413D01*
X46372Y-22252D01*
X46249Y-22128D01*
X46088Y-22061D01*
X45913Y-22061D01*
X45752Y-22128D01*
X45628Y-22251D01*
X45561Y-22412D01*
X45561Y-22587D01*
X45628Y-22748D01*
X45751Y-22872D01*
X45797Y-22891D01*
X45769Y-22919D01*
X45669Y-23019D01*
X45629Y-23079D01*
X45615Y-23150D01*
X45615Y-23566D01*
X45549Y-23632D01*
X45504Y-23741D01*
X45504Y-23859D01*
X45549Y-23968D01*
X45632Y-24051D01*
X45741Y-24096D01*
X45851Y-24096D01*
X45851Y-24150D01*
X45863Y-24150D01*
X45851Y-24162D01*
X45852Y-24237D01*
X45852Y-24336D01*
X45868Y-24375D01*
X45852Y-24414D01*
X45852Y-24513D01*
X45851Y-24588D01*
X45913Y-24650D01*
X46287Y-24650D01*
X46287Y-24474D01*
X46287Y-24276D01*
X46287Y-24150D01*
X46287Y-24100D01*
X46287Y-24000D01*
X46287Y-23950D01*
X46287Y-23824D01*
X46287Y-23626D01*
X46287Y-23500D01*
X46287Y-23450D01*
X46287Y-23350D01*
X46387Y-23350D01*
X46387Y-23450D01*
X46387Y-23500D01*
X46387Y-23626D01*
X46387Y-23824D01*
X46387Y-23950D01*
X46387Y-24000D01*
X46387Y-24100D01*
X46387Y-24150D01*
X46387Y-24276D01*
X46387Y-24474D01*
X46387Y-24600D01*
X46387Y-24650D01*
X46387Y-24750D01*
X46387Y-24800D01*
X46387Y-24871D01*
X46350Y-24908D01*
X46350Y-25243D01*
X46685Y-25243D01*
X46747Y-25181D01*
X46746Y-25114D01*
X46784Y-25077D01*
X46809Y-25015D01*
X46849Y-25054D01*
X46900Y-25075D01*
X46955Y-25075D01*
X47427Y-25075D01*
X47478Y-25054D01*
X47492Y-25038D01*
X47497Y-25043D01*
X47548Y-25064D01*
X47603Y-25064D01*
X47853Y-25064D01*
X47902Y-25043D01*
X47901Y-25047D01*
X47900Y-25181D01*
X47962Y-25243D01*
X48247Y-25243D01*
X48297Y-25243D01*
X48397Y-25243D01*
X48397Y-25343D01*
X48297Y-25343D01*
X48247Y-25343D01*
X47962Y-25343D01*
X47900Y-25405D01*
X47901Y-25539D01*
X47939Y-25631D01*
X48009Y-25701D01*
X48100Y-25739D01*
X48192Y-25739D01*
X48149Y-25782D01*
X48104Y-25891D01*
X48104Y-26009D01*
X48149Y-26118D01*
X48232Y-26201D01*
X48341Y-26246D01*
X48436Y-26246D01*
X48439Y-26248D01*
X48274Y-26414D01*
X48122Y-26414D01*
X48071Y-26435D01*
X48032Y-26475D01*
X48011Y-26526D01*
X48011Y-26565D01*
X46636Y-26565D01*
X46636Y-26525D01*
X46615Y-26474D01*
X46575Y-26435D01*
X46524Y-26414D01*
X46469Y-26414D01*
X46085Y-26414D01*
X46085Y-26227D01*
X46216Y-26096D01*
X46309Y-26096D01*
X46418Y-26051D01*
X46501Y-25968D01*
X46546Y-25859D01*
X46546Y-25741D01*
X46545Y-25739D01*
X46547Y-25739D01*
X46638Y-25701D01*
X46708Y-25631D01*
X46746Y-25539D01*
X46747Y-25405D01*
X46685Y-25343D01*
X46400Y-25343D01*
X46350Y-25343D01*
X46287Y-25343D01*
X46287Y-25124D01*
X46287Y-24750D01*
X45913Y-24750D01*
X45851Y-24812D01*
X45852Y-24887D01*
X45852Y-24986D01*
X45865Y-25018D01*
X45854Y-25047D01*
X45853Y-25181D01*
X45915Y-25243D01*
X46250Y-25243D01*
X46250Y-25161D01*
X46287Y-25124D01*
X46287Y-25343D01*
X46250Y-25343D01*
X46200Y-25343D01*
X45915Y-25343D01*
X45853Y-25405D01*
X45854Y-25539D01*
X45892Y-25631D01*
X45962Y-25701D01*
X45969Y-25704D01*
X45954Y-25741D01*
X45954Y-25834D01*
X45769Y-26019D01*
X45729Y-26079D01*
X45715Y-26150D01*
X45715Y-28400D01*
X45729Y-28471D01*
X45769Y-28531D01*
X45964Y-28725D01*
X45964Y-29025D01*
X45985Y-29076D01*
X46025Y-29115D01*
X46076Y-29136D01*
X46131Y-29136D01*
X46525Y-29136D01*
X46576Y-29115D01*
X46615Y-29075D01*
X46636Y-29024D01*
X46636Y-28985D01*
X47201Y-28985D01*
X47174Y-29051D01*
X47174Y-29169D01*
X47209Y-29255D01*
X46530Y-29255D01*
X46459Y-29269D01*
X46399Y-29309D01*
X46397Y-29311D01*
X45869Y-29839D01*
X45829Y-29899D01*
X45815Y-29970D01*
X45815Y-30101D01*
X45752Y-30128D01*
X45628Y-30251D01*
X45561Y-30412D01*
X45561Y-30587D01*
X45628Y-30748D01*
X45751Y-30872D01*
X45912Y-30939D01*
X46087Y-30939D01*
X46248Y-30872D01*
X46372Y-30749D01*
X46439Y-30588D01*
X46439Y-30413D01*
X46372Y-30252D01*
X46249Y-30128D01*
X46185Y-30101D01*
X46185Y-30046D01*
X46606Y-29625D01*
X47053Y-29625D01*
X46869Y-29809D01*
X46829Y-29869D01*
X46815Y-29940D01*
X46815Y-30101D01*
X46752Y-30128D01*
X46628Y-30251D01*
X46561Y-30412D01*
X46561Y-30587D01*
X46628Y-30748D01*
X46751Y-30872D01*
X46912Y-30939D01*
X47087Y-30939D01*
X47248Y-30872D01*
X47372Y-30749D01*
X47439Y-30588D01*
X47439Y-30413D01*
X47372Y-30252D01*
X47249Y-30128D01*
X47185Y-30101D01*
X47185Y-30016D01*
X47396Y-29805D01*
X47923Y-29805D01*
X47869Y-29859D01*
X47829Y-29919D01*
X47815Y-29990D01*
X47815Y-30101D01*
X47752Y-30128D01*
X47628Y-30251D01*
X47561Y-30412D01*
X47561Y-30587D01*
X47628Y-30748D01*
X47751Y-30872D01*
X47912Y-30939D01*
X48087Y-30939D01*
X48248Y-30872D01*
X48372Y-30749D01*
X48439Y-30588D01*
X48439Y-30413D01*
X48372Y-30252D01*
X48249Y-30128D01*
X48185Y-30101D01*
X48185Y-30066D01*
X48276Y-29975D01*
X48827Y-29975D01*
X48815Y-30040D01*
X48815Y-30101D01*
X48752Y-30128D01*
X48628Y-30251D01*
X48561Y-30412D01*
X48561Y-30587D01*
X48628Y-30748D01*
X48751Y-30872D01*
X48912Y-30939D01*
X49087Y-30939D01*
X49248Y-30872D01*
X49372Y-30749D01*
X49439Y-30588D01*
X49439Y-30413D01*
X49372Y-30252D01*
X49249Y-30128D01*
X49196Y-30105D01*
X49500Y-29801D01*
X49804Y-30106D01*
X49752Y-30128D01*
X49628Y-30251D01*
X49561Y-30412D01*
X49561Y-30587D01*
X49628Y-30748D01*
X49751Y-30872D01*
X49912Y-30939D01*
X50087Y-30939D01*
X50248Y-30872D01*
X50372Y-30749D01*
X50439Y-30588D01*
X50439Y-30413D01*
X50372Y-30252D01*
X50249Y-30128D01*
X50185Y-30101D01*
X50185Y-30040D01*
X50171Y-29969D01*
X50131Y-29909D01*
X50128Y-29907D01*
X49785Y-29563D01*
X49785Y-28851D01*
X49789Y-28861D01*
X49859Y-28931D01*
X49861Y-28931D01*
X49861Y-28938D01*
X49882Y-28989D01*
X49922Y-29028D01*
X49973Y-29049D01*
X49990Y-29049D01*
X49990Y-29090D01*
X50003Y-29157D01*
X50006Y-29171D01*
X50052Y-29238D01*
X50511Y-29698D01*
X50512Y-29698D01*
X50557Y-29728D01*
X50579Y-29743D01*
X50580Y-29744D01*
X50660Y-29760D01*
X50701Y-29760D01*
X50701Y-29778D01*
X50722Y-29829D01*
X50762Y-29868D01*
X50813Y-29889D01*
X50868Y-29889D01*
X50968Y-29889D01*
X50990Y-29879D01*
X51013Y-29889D01*
X51068Y-29889D01*
X51168Y-29889D01*
X51185Y-29881D01*
X51203Y-29889D01*
X51258Y-29889D01*
X51358Y-29889D01*
X51380Y-29879D01*
X51403Y-29889D01*
X51458Y-29889D01*
X51558Y-29889D01*
X51580Y-29879D01*
X51603Y-29889D01*
X51658Y-29889D01*
X51758Y-29889D01*
X51775Y-29881D01*
X51793Y-29889D01*
X51848Y-29889D01*
X51885Y-29889D01*
X51885Y-30072D01*
X51752Y-30128D01*
X51628Y-30251D01*
X51561Y-30412D01*
X51561Y-30587D01*
X51628Y-30748D01*
X51751Y-30872D01*
X51912Y-30939D01*
X52087Y-30939D01*
X52248Y-30872D01*
X52372Y-30749D01*
X52420Y-30632D01*
X52479Y-30671D01*
X52549Y-30685D01*
X52549Y-30684D01*
X52550Y-30685D01*
X52601Y-30685D01*
X52628Y-30748D01*
X52751Y-30872D01*
X52912Y-30939D01*
X53087Y-30939D01*
X53248Y-30872D01*
X53372Y-30749D01*
X53439Y-30588D01*
X53439Y-30413D01*
X53372Y-30252D01*
X53249Y-30128D01*
X53217Y-30115D01*
X53324Y-30115D01*
X53324Y-30129D01*
X53369Y-30238D01*
X53452Y-30321D01*
X53561Y-30366D01*
X53580Y-30366D01*
X53561Y-30412D01*
X53561Y-30587D01*
X53628Y-30748D01*
X53751Y-30872D01*
X53912Y-30939D01*
X54087Y-30939D01*
X54248Y-30872D01*
X54372Y-30749D01*
X54439Y-30588D01*
X54439Y-30413D01*
X54372Y-30252D01*
X54249Y-30128D01*
X54241Y-30125D01*
X54324Y-30125D01*
X54324Y-30129D01*
X54369Y-30238D01*
X54452Y-30321D01*
X54561Y-30366D01*
X54580Y-30366D01*
X54561Y-30412D01*
X54561Y-30587D01*
X54628Y-30748D01*
X54751Y-30872D01*
X54912Y-30939D01*
X55087Y-30939D01*
X55248Y-30872D01*
X55372Y-30749D01*
X55439Y-30588D01*
X55439Y-30413D01*
X55372Y-30252D01*
X55249Y-30128D01*
X55088Y-30061D01*
X54916Y-30061D01*
X54916Y-30011D01*
X54909Y-29994D01*
X54920Y-29999D01*
X54934Y-29999D01*
X54995Y-29938D01*
X54995Y-29831D01*
X54998Y-29828D01*
X55019Y-29777D01*
X55019Y-29722D01*
X55019Y-29322D01*
X55015Y-29312D01*
X55015Y-29101D01*
X54934Y-29101D01*
X54933Y-29100D01*
X55015Y-29100D01*
X55015Y-28522D01*
X55068Y-28501D01*
X55151Y-28418D01*
X55196Y-28309D01*
X55196Y-28191D01*
X55172Y-28135D01*
X55516Y-28135D01*
X55582Y-28201D01*
X55691Y-28246D01*
X55809Y-28246D01*
X55813Y-28243D01*
X55870Y-28255D01*
X55961Y-28255D01*
X55961Y-28285D01*
X55680Y-28285D01*
X55609Y-28299D01*
X55549Y-28339D01*
X55547Y-28341D01*
X55534Y-28354D01*
X55441Y-28354D01*
X55332Y-28399D01*
X55249Y-28482D01*
X55204Y-28591D01*
X55204Y-28709D01*
X55249Y-28818D01*
X55332Y-28901D01*
X55441Y-28946D01*
X55559Y-28946D01*
X55585Y-28935D01*
X55599Y-28968D01*
X55682Y-29051D01*
X55791Y-29096D01*
X55909Y-29096D01*
X56018Y-29051D01*
X56024Y-29045D01*
X56063Y-29045D01*
X56073Y-29049D01*
X56128Y-29049D01*
X56528Y-29049D01*
X56579Y-29028D01*
X56618Y-28988D01*
X56626Y-28967D01*
X57040Y-29381D01*
X57042Y-29384D01*
X57102Y-29424D01*
X57173Y-29438D01*
X58151Y-29438D01*
X58815Y-30101D01*
X58752Y-30128D01*
X58628Y-30251D01*
X58561Y-30412D01*
X58561Y-30587D01*
X58628Y-30748D01*
X58751Y-30872D01*
X58912Y-30939D01*
X59087Y-30939D01*
X59248Y-30872D01*
X59372Y-30749D01*
X59439Y-30588D01*
X59439Y-30413D01*
X59372Y-30252D01*
X59249Y-30128D01*
X59185Y-30101D01*
X59185Y-30025D01*
X59184Y-30024D01*
X59185Y-30024D01*
X59171Y-29954D01*
X59131Y-29894D01*
X59128Y-29892D01*
X58359Y-29122D01*
X58299Y-29082D01*
X58228Y-29068D01*
X57249Y-29068D01*
X56711Y-28529D01*
X56651Y-28489D01*
X56639Y-28486D01*
X56639Y-28455D01*
X57493Y-28455D01*
X57617Y-28578D01*
X57619Y-28581D01*
X57679Y-28621D01*
X57750Y-28635D01*
X59010Y-28635D01*
X59108Y-28733D01*
X59039Y-28802D01*
X58994Y-28911D01*
X58994Y-29029D01*
X59039Y-29138D01*
X59122Y-29221D01*
X59231Y-29266D01*
X59234Y-29266D01*
X59273Y-29304D01*
X59324Y-29325D01*
X59379Y-29325D01*
X59815Y-29325D01*
X59815Y-30101D01*
X59752Y-30128D01*
X59628Y-30251D01*
X59561Y-30412D01*
X59561Y-30587D01*
X59628Y-30748D01*
X59751Y-30872D01*
X59912Y-30939D01*
X60087Y-30939D01*
X60248Y-30872D01*
X60372Y-30749D01*
X60439Y-30588D01*
X60439Y-30413D01*
X60372Y-30252D01*
X60249Y-30128D01*
X60185Y-30101D01*
X60185Y-29435D01*
X60301Y-29436D01*
X60363Y-29374D01*
X60363Y-29050D01*
X60363Y-29000D01*
X60363Y-28900D01*
X60463Y-28900D01*
X60463Y-29000D01*
X60463Y-29050D01*
X60463Y-29374D01*
X60525Y-29436D01*
X60698Y-29435D01*
X60790Y-29397D01*
X60815Y-29372D01*
X60815Y-30101D01*
X60752Y-30128D01*
X60628Y-30251D01*
X60561Y-30412D01*
X60561Y-30587D01*
X60628Y-30748D01*
X60751Y-30872D01*
X60912Y-30939D01*
X61087Y-30939D01*
X61248Y-30872D01*
X61372Y-30749D01*
X61439Y-30588D01*
X61439Y-30413D01*
X61372Y-30252D01*
X61249Y-30128D01*
X61185Y-30101D01*
X61185Y-29000D01*
X61185Y-28846D01*
X61740Y-29401D01*
X61740Y-29750D01*
X61740Y-30139D01*
X61628Y-30251D01*
X61561Y-30412D01*
X61561Y-30587D01*
X61628Y-30748D01*
X61751Y-30872D01*
X61912Y-30939D01*
X62087Y-30939D01*
X62248Y-30872D01*
X62372Y-30749D01*
X62439Y-30588D01*
X62439Y-30413D01*
X62372Y-30252D01*
X62249Y-30128D01*
X62110Y-30070D01*
X62110Y-29750D01*
X62110Y-29472D01*
X62761Y-30123D01*
X62752Y-30128D01*
X62628Y-30251D01*
X62561Y-30412D01*
X62561Y-30587D01*
X62628Y-30748D01*
X62751Y-30872D01*
X62912Y-30939D01*
X63087Y-30939D01*
X63248Y-30872D01*
X63372Y-30749D01*
X63439Y-30588D01*
X63439Y-30413D01*
X63372Y-30252D01*
X63249Y-30128D01*
X63185Y-30101D01*
X63185Y-30100D01*
X63171Y-30029D01*
X63131Y-29969D01*
X62422Y-29260D01*
X63550Y-29260D01*
X63573Y-29260D01*
X63815Y-29502D01*
X63815Y-30101D01*
X63752Y-30128D01*
X63628Y-30251D01*
X63561Y-30412D01*
X63561Y-30587D01*
X63628Y-30748D01*
X63751Y-30872D01*
X63912Y-30939D01*
X64087Y-30939D01*
X64248Y-30872D01*
X64372Y-30749D01*
X64439Y-30588D01*
X64439Y-30413D01*
X64372Y-30252D01*
X64249Y-30128D01*
X64185Y-30101D01*
X64185Y-29425D01*
X64184Y-29424D01*
X64185Y-29424D01*
X64182Y-29412D01*
X64171Y-29354D01*
X64131Y-29294D01*
X64130Y-29293D01*
X63897Y-29060D01*
X64448Y-29060D01*
X64815Y-29426D01*
X64815Y-30101D01*
X64752Y-30128D01*
X64628Y-30251D01*
X64561Y-30412D01*
X64561Y-30587D01*
X64628Y-30748D01*
X64751Y-30872D01*
X64912Y-30939D01*
X65087Y-30939D01*
X65248Y-30872D01*
X65372Y-30749D01*
X65439Y-30588D01*
X65439Y-30413D01*
X65372Y-30252D01*
X65249Y-30128D01*
X65185Y-30101D01*
X65185Y-29447D01*
X65644Y-29906D01*
X65815Y-30077D01*
X65815Y-30101D01*
X65752Y-30128D01*
X65628Y-30251D01*
X65561Y-30412D01*
X65561Y-30587D01*
X65628Y-30748D01*
X65751Y-30872D01*
X65912Y-30939D01*
X66087Y-30939D01*
X66248Y-30872D01*
X66372Y-30749D01*
X66439Y-30588D01*
X66439Y-30426D01*
X66561Y-30548D01*
X66561Y-30587D01*
X66628Y-30748D01*
X66751Y-30872D01*
X66912Y-30939D01*
X67087Y-30939D01*
X67248Y-30872D01*
X67372Y-30749D01*
X67439Y-30588D01*
X67439Y-30413D01*
X67372Y-30252D01*
X67249Y-30128D01*
X67088Y-30061D01*
X66913Y-30061D01*
X66752Y-30128D01*
X66708Y-30171D01*
X66325Y-29788D01*
X65862Y-29325D01*
X65950Y-29325D01*
X65950Y-29313D01*
X65962Y-29325D01*
X66026Y-29324D01*
X66125Y-29324D01*
X66216Y-29286D01*
X66286Y-29216D01*
X66324Y-29124D01*
X66325Y-29062D01*
X66263Y-29000D01*
X65950Y-29000D01*
X65900Y-29000D01*
X65800Y-29000D01*
X65800Y-28900D01*
X65900Y-28900D01*
X65950Y-28900D01*
X66263Y-28900D01*
X66325Y-28838D01*
X66324Y-28776D01*
X66319Y-28764D01*
X67201Y-28764D01*
X67252Y-28743D01*
X67291Y-28703D01*
X67312Y-28652D01*
X67312Y-28597D01*
X67312Y-28031D01*
X67382Y-28101D01*
X67491Y-28146D01*
X67609Y-28146D01*
X67718Y-28101D01*
X67801Y-28018D01*
X67846Y-27909D01*
X67846Y-27791D01*
X67821Y-27731D01*
X67940Y-27681D01*
X67940Y-28700D01*
X67953Y-28767D01*
X67956Y-28781D01*
X68002Y-28848D01*
X68060Y-28907D01*
X68033Y-28936D01*
X68012Y-28987D01*
X68012Y-29042D01*
X68012Y-29375D01*
X67950Y-29375D01*
X67950Y-29387D01*
X67938Y-29375D01*
X67876Y-29376D01*
X67784Y-29414D01*
X67714Y-29484D01*
X67676Y-29575D01*
X67676Y-29674D01*
X67675Y-29738D01*
X67737Y-29800D01*
X67950Y-29800D01*
X68000Y-29800D01*
X68100Y-29800D01*
X68100Y-29900D01*
X68000Y-29900D01*
X67950Y-29900D01*
X67737Y-29900D01*
X67675Y-29962D01*
X67676Y-30026D01*
X67676Y-30125D01*
X67714Y-30216D01*
X67784Y-30286D01*
X67876Y-30324D01*
X67894Y-30324D01*
X67965Y-30394D01*
X68000Y-30429D01*
X68071Y-30500D01*
X68106Y-30535D01*
X68378Y-30808D01*
X68472Y-30781D01*
X68543Y-30579D01*
X68532Y-30366D01*
X68472Y-30219D01*
X68433Y-30207D01*
X68447Y-30193D01*
X68498Y-30214D01*
X68553Y-30214D01*
X68561Y-30214D01*
X68561Y-30228D01*
X68561Y-30828D01*
X68582Y-30879D01*
X68622Y-30918D01*
X68673Y-30939D01*
X68728Y-30939D01*
X69328Y-30939D01*
X69379Y-30918D01*
X69418Y-30878D01*
X69439Y-30827D01*
X69439Y-30772D01*
X69439Y-30172D01*
X69423Y-30133D01*
X69423Y-29625D01*
X69477Y-29625D01*
X69528Y-29604D01*
X69535Y-29596D01*
X69535Y-31035D01*
X69535Y-31035D01*
G37*
G54D30*
X69535Y-31035D02*
X68075Y-31035D01*
X68134Y-31032D01*
X68281Y-30972D01*
X68308Y-30878D01*
X68000Y-30571D01*
X67929Y-30641D01*
X67929Y-30500D01*
X67622Y-30192D01*
X67528Y-30219D01*
X67457Y-30421D01*
X67468Y-30634D01*
X67528Y-30781D01*
X67622Y-30808D01*
X67929Y-30500D01*
X67929Y-30641D01*
X67692Y-30878D01*
X67719Y-30972D01*
X67898Y-31035D01*
X58439Y-31035D01*
X58439Y-30588D01*
X58439Y-30413D01*
X58372Y-30252D01*
X58249Y-30128D01*
X58088Y-30061D01*
X57913Y-30061D01*
X57849Y-30087D01*
X57501Y-29739D01*
X57441Y-29699D01*
X57370Y-29685D01*
X55799Y-29685D01*
X55799Y-29322D01*
X55778Y-29271D01*
X55738Y-29232D01*
X55687Y-29211D01*
X55632Y-29211D01*
X55532Y-29211D01*
X55514Y-29218D01*
X55497Y-29211D01*
X55442Y-29211D01*
X55342Y-29211D01*
X55319Y-29220D01*
X55297Y-29211D01*
X55281Y-29211D01*
X55281Y-29209D01*
X55211Y-29139D01*
X55120Y-29101D01*
X55106Y-29101D01*
X55045Y-29162D01*
X55045Y-29289D01*
X55031Y-29323D01*
X55031Y-29378D01*
X55031Y-29778D01*
X55045Y-29812D01*
X55045Y-29938D01*
X55106Y-29999D01*
X55120Y-29999D01*
X55211Y-29961D01*
X55246Y-29925D01*
X55249Y-29941D01*
X55289Y-30001D01*
X55449Y-30161D01*
X55509Y-30201D01*
X55580Y-30215D01*
X55664Y-30215D01*
X55628Y-30251D01*
X55561Y-30412D01*
X55561Y-30587D01*
X55628Y-30748D01*
X55751Y-30872D01*
X55912Y-30939D01*
X56087Y-30939D01*
X56248Y-30872D01*
X56372Y-30749D01*
X56439Y-30588D01*
X56439Y-30413D01*
X56372Y-30252D01*
X56335Y-30215D01*
X56453Y-30215D01*
X56587Y-30348D01*
X56561Y-30412D01*
X56561Y-30587D01*
X56628Y-30748D01*
X56751Y-30872D01*
X56912Y-30939D01*
X57087Y-30939D01*
X57248Y-30872D01*
X57372Y-30749D01*
X57439Y-30588D01*
X57439Y-30413D01*
X57372Y-30252D01*
X57249Y-30128D01*
X57088Y-30061D01*
X56913Y-30061D01*
X56849Y-30087D01*
X56816Y-30055D01*
X57293Y-30055D01*
X57587Y-30348D01*
X57561Y-30412D01*
X57561Y-30587D01*
X57628Y-30748D01*
X57751Y-30872D01*
X57912Y-30939D01*
X58087Y-30939D01*
X58248Y-30872D01*
X58372Y-30749D01*
X58439Y-30588D01*
X58439Y-31035D01*
X51439Y-31035D01*
X51439Y-30588D01*
X51439Y-30413D01*
X51372Y-30252D01*
X51249Y-30128D01*
X51088Y-30061D01*
X50913Y-30061D01*
X50752Y-30128D01*
X50628Y-30251D01*
X50561Y-30412D01*
X50561Y-30587D01*
X50628Y-30748D01*
X50751Y-30872D01*
X50912Y-30939D01*
X51087Y-30939D01*
X51248Y-30872D01*
X51372Y-30749D01*
X51439Y-30588D01*
X51439Y-31035D01*
X45489Y-31035D01*
X45489Y-30598D01*
X45489Y-30403D01*
X45489Y-22598D01*
X45489Y-22403D01*
X45415Y-22223D01*
X45277Y-22086D01*
X45098Y-22011D01*
X44903Y-22011D01*
X44723Y-22085D01*
X44586Y-22223D01*
X44511Y-22402D01*
X44511Y-22597D01*
X44585Y-22777D01*
X44723Y-22914D01*
X44902Y-22989D01*
X45097Y-22989D01*
X45277Y-22915D01*
X45414Y-22777D01*
X45489Y-22598D01*
X45489Y-30403D01*
X45415Y-30223D01*
X45277Y-30086D01*
X45098Y-30011D01*
X44903Y-30011D01*
X44723Y-30085D01*
X44586Y-30223D01*
X44511Y-30402D01*
X44511Y-30597D01*
X44585Y-30777D01*
X44723Y-30914D01*
X44902Y-30989D01*
X45097Y-30989D01*
X45277Y-30915D01*
X45414Y-30777D01*
X45489Y-30598D01*
X45489Y-31035D01*
X44500Y-31035D01*
X44465Y-31035D01*
X44465Y-28665D01*
X45055Y-28665D01*
X45055Y-24835D01*
X44465Y-24835D01*
X44465Y-21965D01*
X67924Y-21965D01*
X67866Y-21968D01*
X67719Y-22028D01*
X67692Y-22122D01*
X68000Y-22429D01*
X68308Y-22122D01*
X68281Y-22028D01*
X68101Y-21965D01*
X69535Y-21965D01*
X69535Y-22000D01*
X69535Y-28903D01*
X69527Y-28896D01*
X69476Y-28875D01*
X69421Y-28875D01*
X69271Y-28875D01*
X69160Y-28764D01*
X69366Y-28764D01*
X69417Y-28743D01*
X69456Y-28703D01*
X69477Y-28652D01*
X69477Y-28597D01*
X69477Y-27731D01*
X69456Y-27680D01*
X69416Y-27641D01*
X69365Y-27620D01*
X69310Y-27620D01*
X68476Y-27620D01*
X68548Y-27549D01*
X68548Y-27548D01*
X68549Y-27546D01*
X69348Y-26749D01*
X69348Y-26748D01*
X69378Y-26703D01*
X69393Y-26681D01*
X69394Y-26680D01*
X69409Y-26600D01*
X69410Y-26600D01*
X69410Y-26259D01*
X69451Y-26218D01*
X69496Y-26109D01*
X69496Y-25991D01*
X69477Y-25944D01*
X69477Y-25268D01*
X69477Y-25213D01*
X69477Y-24347D01*
X69456Y-24296D01*
X69439Y-24279D01*
X69439Y-22827D01*
X69439Y-22772D01*
X69439Y-22172D01*
X69418Y-22121D01*
X69378Y-22082D01*
X69327Y-22061D01*
X69272Y-22061D01*
X68672Y-22061D01*
X68621Y-22082D01*
X68582Y-22122D01*
X68561Y-22173D01*
X68561Y-22228D01*
X68561Y-22828D01*
X68582Y-22879D01*
X68622Y-22918D01*
X68673Y-22939D01*
X68728Y-22939D01*
X69328Y-22939D01*
X69379Y-22918D01*
X69418Y-22878D01*
X69439Y-22827D01*
X69439Y-24279D01*
X69416Y-24257D01*
X69365Y-24236D01*
X69310Y-24236D01*
X68543Y-24236D01*
X68543Y-22579D01*
X68532Y-22366D01*
X68472Y-22219D01*
X68378Y-22192D01*
X68071Y-22500D01*
X68378Y-22808D01*
X68472Y-22781D01*
X68543Y-22579D01*
X68543Y-24236D01*
X68404Y-24236D01*
X68353Y-24257D01*
X68314Y-24297D01*
X68308Y-24311D01*
X68308Y-22878D01*
X68000Y-22571D01*
X67929Y-22641D01*
X67929Y-22500D01*
X67622Y-22192D01*
X67528Y-22219D01*
X67457Y-22421D01*
X67468Y-22634D01*
X67528Y-22781D01*
X67622Y-22808D01*
X67929Y-22500D01*
X67929Y-22641D01*
X67692Y-22878D01*
X67719Y-22972D01*
X67921Y-23043D01*
X68134Y-23032D01*
X68281Y-22972D01*
X68308Y-22878D01*
X68308Y-24311D01*
X68293Y-24348D01*
X68293Y-24403D01*
X68293Y-25269D01*
X68314Y-25320D01*
X68354Y-25359D01*
X68405Y-25380D01*
X68460Y-25380D01*
X69366Y-25380D01*
X69417Y-25359D01*
X69456Y-25319D01*
X69477Y-25268D01*
X69477Y-25944D01*
X69451Y-25882D01*
X69368Y-25799D01*
X69259Y-25754D01*
X69141Y-25754D01*
X69032Y-25799D01*
X68949Y-25882D01*
X68904Y-25991D01*
X68904Y-26109D01*
X68949Y-26218D01*
X68990Y-26259D01*
X68990Y-26513D01*
X68253Y-27250D01*
X68251Y-27252D01*
X68111Y-27392D01*
X68111Y-27293D01*
X68111Y-25707D01*
X68111Y-25561D01*
X68055Y-25426D01*
X67952Y-25323D01*
X67817Y-25267D01*
X67671Y-25267D01*
X67536Y-25323D01*
X67433Y-25426D01*
X67377Y-25561D01*
X67377Y-25707D01*
X67433Y-25842D01*
X67536Y-25945D01*
X67671Y-26001D01*
X67817Y-26001D01*
X67952Y-25945D01*
X68055Y-25842D01*
X68111Y-25707D01*
X68111Y-27293D01*
X68055Y-27158D01*
X67952Y-27055D01*
X67817Y-26999D01*
X67671Y-26999D01*
X67536Y-27055D01*
X67468Y-27122D01*
X67328Y-26982D01*
X67312Y-26971D01*
X67312Y-25268D01*
X67312Y-25213D01*
X67312Y-24347D01*
X67291Y-24296D01*
X67251Y-24257D01*
X67200Y-24236D01*
X67145Y-24236D01*
X66239Y-24236D01*
X66188Y-24257D01*
X66149Y-24297D01*
X66128Y-24348D01*
X66128Y-24403D01*
X66128Y-25269D01*
X66149Y-25320D01*
X66189Y-25359D01*
X66240Y-25380D01*
X66295Y-25380D01*
X67201Y-25380D01*
X67252Y-25359D01*
X67291Y-25319D01*
X67312Y-25268D01*
X67312Y-26971D01*
X67261Y-26936D01*
X67247Y-26933D01*
X67180Y-26920D01*
X67036Y-26920D01*
X67036Y-26895D01*
X67036Y-26679D01*
X67026Y-26657D01*
X67036Y-26635D01*
X67036Y-26580D01*
X67036Y-26504D01*
X67038Y-26504D01*
X67108Y-26434D01*
X67146Y-26342D01*
X67147Y-26297D01*
X67147Y-26073D01*
X67146Y-26028D01*
X67145Y-26026D01*
X67146Y-26025D01*
X67147Y-25980D01*
X67147Y-25756D01*
X67146Y-25711D01*
X67108Y-25619D01*
X67038Y-25549D01*
X66947Y-25511D01*
X66848Y-25511D01*
X66694Y-25510D01*
X66632Y-25572D01*
X66632Y-25818D01*
X67085Y-25818D01*
X67147Y-25756D01*
X67147Y-25980D01*
X67111Y-25944D01*
X67108Y-25936D01*
X67038Y-25866D01*
X66947Y-25828D01*
X66848Y-25828D01*
X66694Y-25827D01*
X66632Y-25889D01*
X66632Y-25918D01*
X66632Y-26135D01*
X66632Y-26164D01*
X66694Y-26226D01*
X66848Y-26225D01*
X66947Y-26225D01*
X67038Y-26187D01*
X67108Y-26117D01*
X67111Y-26108D01*
X67147Y-26073D01*
X67147Y-26297D01*
X67085Y-26235D01*
X66682Y-26235D01*
X66632Y-26235D01*
X66532Y-26235D01*
X66532Y-26164D01*
X66532Y-26135D01*
X66532Y-25918D01*
X66532Y-25889D01*
X66532Y-25818D01*
X66532Y-25572D01*
X66470Y-25510D01*
X66316Y-25511D01*
X66217Y-25511D01*
X66126Y-25549D01*
X66056Y-25619D01*
X66018Y-25711D01*
X66017Y-25756D01*
X66079Y-25818D01*
X66532Y-25818D01*
X66532Y-25889D01*
X66470Y-25827D01*
X66316Y-25828D01*
X66217Y-25828D01*
X66126Y-25866D01*
X66056Y-25936D01*
X66052Y-25944D01*
X66017Y-25980D01*
X66018Y-26025D01*
X66018Y-26026D01*
X66018Y-26028D01*
X66017Y-26073D01*
X66052Y-26108D01*
X66056Y-26117D01*
X66126Y-26187D01*
X66217Y-26225D01*
X66316Y-26225D01*
X66470Y-26226D01*
X66532Y-26164D01*
X66532Y-26235D01*
X66482Y-26235D01*
X66079Y-26235D01*
X66017Y-26297D01*
X66017Y-26315D01*
X65850Y-26315D01*
X65850Y-25312D01*
X65850Y-25088D01*
X65849Y-24849D01*
X65849Y-24750D01*
X65811Y-24659D01*
X65741Y-24589D01*
X65649Y-24551D01*
X65512Y-24550D01*
X65450Y-24612D01*
X65450Y-25150D01*
X65788Y-25150D01*
X65850Y-25088D01*
X65850Y-25312D01*
X65788Y-25250D01*
X65450Y-25250D01*
X65450Y-25788D01*
X65512Y-25850D01*
X65649Y-25849D01*
X65741Y-25811D01*
X65811Y-25741D01*
X65849Y-25650D01*
X65849Y-25551D01*
X65850Y-25312D01*
X65850Y-26315D01*
X65650Y-26315D01*
X65646Y-26315D01*
X65646Y-26241D01*
X65601Y-26132D01*
X65518Y-26049D01*
X65409Y-26004D01*
X65350Y-26004D01*
X65350Y-25788D01*
X65350Y-25250D01*
X65350Y-25150D01*
X65350Y-24612D01*
X65288Y-24550D01*
X65151Y-24551D01*
X65059Y-24589D01*
X64989Y-24659D01*
X64951Y-24750D01*
X64951Y-24849D01*
X64950Y-25088D01*
X65012Y-25150D01*
X65350Y-25150D01*
X65350Y-25250D01*
X65012Y-25250D01*
X64950Y-25312D01*
X64951Y-25551D01*
X64951Y-25650D01*
X64989Y-25741D01*
X65059Y-25811D01*
X65151Y-25849D01*
X65288Y-25850D01*
X65350Y-25788D01*
X65350Y-26004D01*
X65291Y-26004D01*
X65182Y-26049D01*
X65099Y-26132D01*
X65054Y-26241D01*
X65054Y-26254D01*
X64991Y-26254D01*
X64882Y-26299D01*
X64839Y-26342D01*
X64839Y-25627D01*
X64839Y-25572D01*
X64839Y-24772D01*
X64818Y-24721D01*
X64778Y-24682D01*
X64727Y-24661D01*
X64672Y-24661D01*
X64272Y-24661D01*
X64221Y-24682D01*
X64182Y-24722D01*
X64161Y-24773D01*
X64161Y-24828D01*
X64161Y-25624D01*
X64154Y-25641D01*
X64154Y-25759D01*
X64199Y-25868D01*
X64282Y-25951D01*
X64391Y-25996D01*
X64509Y-25996D01*
X64618Y-25951D01*
X64701Y-25868D01*
X64746Y-25759D01*
X64746Y-25731D01*
X64779Y-25718D01*
X64818Y-25678D01*
X64839Y-25627D01*
X64839Y-26342D01*
X64799Y-26382D01*
X64754Y-26491D01*
X64754Y-26609D01*
X64799Y-26718D01*
X64882Y-26801D01*
X64991Y-26846D01*
X65084Y-26846D01*
X65158Y-26920D01*
X64866Y-26920D01*
X63810Y-25863D01*
X63810Y-25739D01*
X63828Y-25739D01*
X63879Y-25718D01*
X63918Y-25678D01*
X63939Y-25627D01*
X63939Y-25572D01*
X63939Y-24772D01*
X63918Y-24721D01*
X63878Y-24682D01*
X63827Y-24661D01*
X63772Y-24661D01*
X63533Y-24661D01*
X63501Y-24582D01*
X63425Y-24506D01*
X63635Y-24296D01*
X63729Y-24296D01*
X63838Y-24251D01*
X63921Y-24168D01*
X63966Y-24059D01*
X63966Y-23941D01*
X63932Y-23860D01*
X66575Y-23860D01*
X66646Y-23846D01*
X66706Y-23806D01*
X67131Y-23381D01*
X67171Y-23321D01*
X67185Y-23250D01*
X67185Y-22898D01*
X67248Y-22872D01*
X67372Y-22749D01*
X67439Y-22588D01*
X67439Y-22413D01*
X67372Y-22252D01*
X67249Y-22128D01*
X67088Y-22061D01*
X66913Y-22061D01*
X66752Y-22128D01*
X66628Y-22251D01*
X66561Y-22412D01*
X66561Y-22587D01*
X66628Y-22748D01*
X66751Y-22872D01*
X66815Y-22898D01*
X66815Y-23173D01*
X66498Y-23490D01*
X65822Y-23490D01*
X66131Y-23181D01*
X66171Y-23121D01*
X66185Y-23050D01*
X66185Y-22898D01*
X66248Y-22872D01*
X66372Y-22749D01*
X66439Y-22588D01*
X66439Y-22413D01*
X66372Y-22252D01*
X66249Y-22128D01*
X66088Y-22061D01*
X65913Y-22061D01*
X65752Y-22128D01*
X65628Y-22251D01*
X65561Y-22412D01*
X65561Y-22587D01*
X65628Y-22748D01*
X65751Y-22872D01*
X65815Y-22898D01*
X65815Y-22973D01*
X65473Y-23315D01*
X64947Y-23315D01*
X65131Y-23131D01*
X65171Y-23071D01*
X65185Y-23000D01*
X65185Y-22898D01*
X65248Y-22872D01*
X65372Y-22749D01*
X65439Y-22588D01*
X65439Y-22413D01*
X65372Y-22252D01*
X65249Y-22128D01*
X65088Y-22061D01*
X64913Y-22061D01*
X64752Y-22128D01*
X64628Y-22251D01*
X64561Y-22412D01*
X64561Y-22587D01*
X64628Y-22748D01*
X64751Y-22872D01*
X64815Y-22898D01*
X64815Y-22923D01*
X64623Y-23115D01*
X63996Y-23115D01*
X64128Y-22982D01*
X64130Y-22981D01*
X64131Y-22981D01*
X64171Y-22921D01*
X64174Y-22902D01*
X64248Y-22872D01*
X64372Y-22749D01*
X64439Y-22588D01*
X64439Y-22413D01*
X64372Y-22252D01*
X64249Y-22128D01*
X64088Y-22061D01*
X63913Y-22061D01*
X63752Y-22128D01*
X63628Y-22251D01*
X63561Y-22412D01*
X63561Y-22587D01*
X63628Y-22748D01*
X63733Y-22854D01*
X63673Y-22915D01*
X63144Y-22915D01*
X63248Y-22872D01*
X63372Y-22749D01*
X63439Y-22588D01*
X63439Y-22413D01*
X63372Y-22252D01*
X63249Y-22128D01*
X63088Y-22061D01*
X62913Y-22061D01*
X62752Y-22128D01*
X62628Y-22251D01*
X62561Y-22412D01*
X62561Y-22587D01*
X62587Y-22651D01*
X60893Y-24345D01*
X58624Y-24345D01*
X58626Y-24343D01*
X58671Y-24234D01*
X58671Y-24185D01*
X60330Y-24185D01*
X60401Y-24171D01*
X60461Y-24131D01*
X61735Y-22856D01*
X61751Y-22872D01*
X61912Y-22939D01*
X62087Y-22939D01*
X62248Y-22872D01*
X62372Y-22749D01*
X62439Y-22588D01*
X62439Y-22413D01*
X62372Y-22252D01*
X62249Y-22128D01*
X62088Y-22061D01*
X61913Y-22061D01*
X61752Y-22128D01*
X61628Y-22251D01*
X61561Y-22412D01*
X61561Y-22507D01*
X61409Y-22658D01*
X61439Y-22588D01*
X61439Y-22413D01*
X61372Y-22252D01*
X61249Y-22128D01*
X61088Y-22061D01*
X60913Y-22061D01*
X60752Y-22128D01*
X60628Y-22251D01*
X60561Y-22412D01*
X60561Y-22587D01*
X60628Y-22748D01*
X60751Y-22872D01*
X60815Y-22898D01*
X60815Y-22953D01*
X60439Y-23329D01*
X60439Y-22588D01*
X60439Y-22413D01*
X60372Y-22252D01*
X60249Y-22128D01*
X60088Y-22061D01*
X59913Y-22061D01*
X59752Y-22128D01*
X59628Y-22251D01*
X59561Y-22412D01*
X59561Y-22587D01*
X59628Y-22748D01*
X59751Y-22872D01*
X59912Y-22939D01*
X60087Y-22939D01*
X60248Y-22872D01*
X60372Y-22749D01*
X60439Y-22588D01*
X60439Y-23329D01*
X60183Y-23585D01*
X59439Y-23585D01*
X59439Y-22588D01*
X59439Y-22413D01*
X59372Y-22252D01*
X59249Y-22128D01*
X59088Y-22061D01*
X58913Y-22061D01*
X58752Y-22128D01*
X58628Y-22251D01*
X58561Y-22412D01*
X58561Y-22587D01*
X58628Y-22748D01*
X58751Y-22872D01*
X58912Y-22939D01*
X59087Y-22939D01*
X59248Y-22872D01*
X59372Y-22749D01*
X59439Y-22588D01*
X59439Y-23585D01*
X59064Y-23585D01*
X59096Y-23509D01*
X59096Y-23391D01*
X59051Y-23282D01*
X58968Y-23199D01*
X58859Y-23154D01*
X58741Y-23154D01*
X58632Y-23199D01*
X58566Y-23265D01*
X58439Y-23265D01*
X58439Y-22588D01*
X58439Y-22413D01*
X58372Y-22252D01*
X58249Y-22128D01*
X58088Y-22061D01*
X57913Y-22061D01*
X57752Y-22128D01*
X57628Y-22251D01*
X57561Y-22412D01*
X57561Y-22587D01*
X57628Y-22748D01*
X57751Y-22872D01*
X57912Y-22939D01*
X58087Y-22939D01*
X58248Y-22872D01*
X58372Y-22749D01*
X58439Y-22588D01*
X58439Y-23265D01*
X55799Y-23265D01*
X55799Y-23222D01*
X55778Y-23171D01*
X55771Y-23165D01*
X56520Y-23165D01*
X56591Y-23151D01*
X56651Y-23111D01*
X56848Y-22912D01*
X56912Y-22939D01*
X57087Y-22939D01*
X57248Y-22872D01*
X57372Y-22749D01*
X57439Y-22588D01*
X57439Y-22413D01*
X57372Y-22252D01*
X57249Y-22128D01*
X57088Y-22061D01*
X56913Y-22061D01*
X56752Y-22128D01*
X56628Y-22251D01*
X56561Y-22412D01*
X56561Y-22587D01*
X56587Y-22650D01*
X56443Y-22795D01*
X56325Y-22795D01*
X56372Y-22749D01*
X56439Y-22588D01*
X56439Y-22413D01*
X56372Y-22252D01*
X56249Y-22128D01*
X56088Y-22061D01*
X55913Y-22061D01*
X55752Y-22128D01*
X55628Y-22251D01*
X55561Y-22412D01*
X55561Y-22587D01*
X55628Y-22748D01*
X55674Y-22795D01*
X55325Y-22795D01*
X55372Y-22749D01*
X55439Y-22588D01*
X55439Y-22413D01*
X55372Y-22252D01*
X55249Y-22128D01*
X55088Y-22061D01*
X54913Y-22061D01*
X54752Y-22128D01*
X54628Y-22251D01*
X54561Y-22412D01*
X54561Y-22587D01*
X54628Y-22748D01*
X54674Y-22795D01*
X54325Y-22795D01*
X54372Y-22749D01*
X54439Y-22588D01*
X54439Y-22413D01*
X54372Y-22252D01*
X54249Y-22128D01*
X54088Y-22061D01*
X53913Y-22061D01*
X53752Y-22128D01*
X53664Y-22215D01*
X53625Y-22215D01*
X53554Y-22229D01*
X53494Y-22269D01*
X53412Y-22350D01*
X53372Y-22252D01*
X53249Y-22128D01*
X53088Y-22061D01*
X52913Y-22061D01*
X52752Y-22128D01*
X52628Y-22251D01*
X52561Y-22412D01*
X52561Y-22587D01*
X52628Y-22748D01*
X52665Y-22785D01*
X52665Y-23000D01*
X52747Y-23000D01*
X52746Y-23001D01*
X52665Y-23001D01*
X52665Y-23213D01*
X52661Y-23223D01*
X52661Y-23278D01*
X52661Y-23678D01*
X52682Y-23729D01*
X52685Y-23731D01*
X52685Y-23838D01*
X52746Y-23899D01*
X52760Y-23899D01*
X52851Y-23861D01*
X52921Y-23791D01*
X52921Y-23789D01*
X52928Y-23789D01*
X52950Y-23779D01*
X52973Y-23789D01*
X53028Y-23789D01*
X53128Y-23789D01*
X53150Y-23779D01*
X53173Y-23789D01*
X53178Y-23789D01*
X53179Y-23791D01*
X53249Y-23861D01*
X53340Y-23899D01*
X53354Y-23899D01*
X53415Y-23838D01*
X53415Y-23731D01*
X53418Y-23728D01*
X53439Y-23677D01*
X53439Y-23622D01*
X53439Y-23400D01*
X53451Y-23400D01*
X53451Y-23678D01*
X53455Y-23687D01*
X53455Y-23899D01*
X53455Y-23986D01*
X53449Y-23992D01*
X53404Y-24101D01*
X53404Y-24219D01*
X53449Y-24328D01*
X53532Y-24411D01*
X53641Y-24456D01*
X53759Y-24456D01*
X53868Y-24411D01*
X53951Y-24328D01*
X53996Y-24219D01*
X53996Y-24196D01*
X54049Y-24196D01*
X54095Y-24177D01*
X54095Y-24233D01*
X53799Y-24529D01*
X53759Y-24589D01*
X53745Y-24660D01*
X53745Y-24870D01*
X53759Y-24941D01*
X53799Y-25001D01*
X54035Y-25237D01*
X54035Y-25250D01*
X54049Y-25321D01*
X54089Y-25381D01*
X54149Y-25421D01*
X54220Y-25435D01*
X54291Y-25421D01*
X54345Y-25385D01*
X54660Y-25385D01*
X54731Y-25371D01*
X54791Y-25331D01*
X54801Y-25321D01*
X54825Y-25285D01*
X54825Y-25575D01*
X54819Y-25579D01*
X54779Y-25639D01*
X54765Y-25710D01*
X54765Y-25750D01*
X54765Y-25798D01*
X53102Y-27462D01*
X53056Y-27529D01*
X53053Y-27542D01*
X53040Y-27610D01*
X53040Y-28640D01*
X51736Y-28640D01*
X51360Y-28263D01*
X51360Y-27300D01*
X51346Y-27232D01*
X51344Y-27220D01*
X51344Y-27219D01*
X51298Y-27152D01*
X51298Y-27151D01*
X51146Y-26999D01*
X51146Y-26941D01*
X51101Y-26832D01*
X51018Y-26749D01*
X50909Y-26704D01*
X50791Y-26704D01*
X50682Y-26749D01*
X50647Y-26784D01*
X50588Y-26725D01*
X50461Y-26725D01*
X50427Y-26711D01*
X50372Y-26711D01*
X49972Y-26711D01*
X49962Y-26715D01*
X49600Y-26715D01*
X49529Y-26729D01*
X49469Y-26769D01*
X49467Y-26771D01*
X48935Y-27303D01*
X48935Y-26877D01*
X49127Y-26685D01*
X49963Y-26685D01*
X49973Y-26689D01*
X50028Y-26689D01*
X50428Y-26689D01*
X50462Y-26675D01*
X50588Y-26675D01*
X50650Y-26613D01*
X50649Y-26601D01*
X50611Y-26509D01*
X50541Y-26439D01*
X50539Y-26438D01*
X50539Y-26422D01*
X50531Y-26404D01*
X50539Y-26387D01*
X50539Y-26332D01*
X50539Y-26295D01*
X50626Y-26295D01*
X50682Y-26351D01*
X50791Y-26396D01*
X50909Y-26396D01*
X51018Y-26351D01*
X51101Y-26268D01*
X51146Y-26159D01*
X51146Y-26041D01*
X51101Y-25932D01*
X51018Y-25849D01*
X50909Y-25804D01*
X50791Y-25804D01*
X50682Y-25849D01*
X50606Y-25925D01*
X50539Y-25925D01*
X50539Y-25832D01*
X50529Y-25809D01*
X50539Y-25787D01*
X50539Y-25781D01*
X50541Y-25781D01*
X50611Y-25711D01*
X50649Y-25619D01*
X50650Y-25607D01*
X50588Y-25545D01*
X50481Y-25545D01*
X50478Y-25542D01*
X50427Y-25521D01*
X50372Y-25521D01*
X49972Y-25521D01*
X49962Y-25525D01*
X49387Y-25525D01*
X49185Y-25323D01*
X49185Y-24997D01*
X49639Y-25451D01*
X49699Y-25491D01*
X49770Y-25505D01*
X49963Y-25505D01*
X49973Y-25509D01*
X50028Y-25509D01*
X50428Y-25509D01*
X50462Y-25495D01*
X50588Y-25495D01*
X50650Y-25433D01*
X50649Y-25421D01*
X50611Y-25329D01*
X50541Y-25259D01*
X50539Y-25258D01*
X50539Y-25242D01*
X50529Y-25219D01*
X50539Y-25197D01*
X50539Y-25142D01*
X50539Y-25042D01*
X50531Y-25024D01*
X50539Y-25007D01*
X50539Y-24952D01*
X50539Y-24852D01*
X50529Y-24829D01*
X50539Y-24807D01*
X50539Y-24752D01*
X50539Y-24652D01*
X50529Y-24629D01*
X50539Y-24607D01*
X50539Y-24552D01*
X50539Y-24472D01*
X50541Y-24471D01*
X50728Y-24282D01*
X50730Y-24281D01*
X50731Y-24281D01*
X50771Y-24221D01*
X50785Y-24150D01*
X50785Y-23850D01*
X50783Y-23840D01*
X50796Y-23809D01*
X50796Y-23782D01*
X50813Y-23789D01*
X50868Y-23789D01*
X50896Y-23789D01*
X50909Y-23851D01*
X50949Y-23911D01*
X51067Y-24028D01*
X51069Y-24031D01*
X51129Y-24071D01*
X51200Y-24085D01*
X51207Y-24085D01*
X51229Y-24138D01*
X51312Y-24221D01*
X51421Y-24266D01*
X51539Y-24266D01*
X51648Y-24221D01*
X51731Y-24138D01*
X51776Y-24029D01*
X51776Y-23911D01*
X51771Y-23899D01*
X51784Y-23899D01*
X51845Y-23838D01*
X51845Y-23780D01*
X51855Y-23730D01*
X51855Y-23686D01*
X51859Y-23677D01*
X51859Y-23622D01*
X51859Y-23400D01*
X51881Y-23400D01*
X51881Y-23678D01*
X51895Y-23712D01*
X51895Y-23838D01*
X51956Y-23899D01*
X51970Y-23899D01*
X52061Y-23861D01*
X52131Y-23791D01*
X52131Y-23789D01*
X52148Y-23789D01*
X52165Y-23781D01*
X52183Y-23789D01*
X52202Y-23789D01*
X52129Y-23862D01*
X52084Y-23971D01*
X52084Y-24089D01*
X52129Y-24198D01*
X52212Y-24281D01*
X52321Y-24326D01*
X52439Y-24326D01*
X52548Y-24281D01*
X52631Y-24198D01*
X52676Y-24089D01*
X52676Y-23971D01*
X52646Y-23899D01*
X52645Y-23895D01*
X52645Y-23686D01*
X52649Y-23677D01*
X52649Y-23622D01*
X52649Y-23222D01*
X52635Y-23188D01*
X52635Y-23062D01*
X52574Y-23001D01*
X52560Y-23001D01*
X52469Y-23039D01*
X52445Y-23063D01*
X52445Y-22760D01*
X52431Y-22689D01*
X52410Y-22657D01*
X52439Y-22588D01*
X52439Y-22413D01*
X52372Y-22252D01*
X52249Y-22128D01*
X52088Y-22061D01*
X51913Y-22061D01*
X51752Y-22128D01*
X51628Y-22251D01*
X51561Y-22412D01*
X51561Y-22587D01*
X51569Y-22608D01*
X51439Y-22477D01*
X51439Y-22413D01*
X51372Y-22252D01*
X51249Y-22128D01*
X51088Y-22061D01*
X50913Y-22061D01*
X50752Y-22128D01*
X50628Y-22251D01*
X50561Y-22412D01*
X50561Y-22587D01*
X50628Y-22748D01*
X50662Y-22783D01*
X50544Y-22783D01*
X50412Y-22651D01*
X50439Y-22588D01*
X50439Y-22413D01*
X50372Y-22252D01*
X50249Y-22128D01*
X50088Y-22061D01*
X49913Y-22061D01*
X49752Y-22128D01*
X49628Y-22251D01*
X49561Y-22412D01*
X49561Y-22524D01*
X49431Y-22394D01*
X49372Y-22252D01*
X49249Y-22128D01*
X49088Y-22061D01*
X48913Y-22061D01*
X48752Y-22128D01*
X48628Y-22251D01*
X48561Y-22412D01*
X48561Y-22587D01*
X48628Y-22748D01*
X48751Y-22872D01*
X48912Y-22939D01*
X49087Y-22939D01*
X49107Y-22930D01*
X49073Y-22965D01*
X48727Y-22965D01*
X48412Y-22650D01*
X48439Y-22588D01*
X48439Y-22413D01*
X48372Y-22252D01*
X48249Y-22128D01*
X48088Y-22061D01*
X47913Y-22061D01*
X47752Y-22128D01*
X47628Y-22251D01*
X47561Y-22412D01*
X47561Y-22587D01*
X47628Y-22748D01*
X47751Y-22872D01*
X47912Y-22939D01*
X48087Y-22939D01*
X48150Y-22912D01*
X48274Y-23036D01*
X48147Y-23036D01*
X48096Y-23057D01*
X48057Y-23097D01*
X48036Y-23148D01*
X48036Y-23203D01*
X48036Y-23653D01*
X48057Y-23704D01*
X48078Y-23724D01*
X48057Y-23747D01*
X48036Y-23798D01*
X48036Y-23853D01*
X48036Y-24303D01*
X48057Y-24354D01*
X48078Y-24374D01*
X48057Y-24397D01*
X48036Y-24448D01*
X48036Y-24503D01*
X48036Y-24873D01*
X48009Y-24885D01*
X47964Y-24930D01*
X47964Y-24897D01*
X47964Y-24447D01*
X47943Y-24396D01*
X47921Y-24375D01*
X47943Y-24353D01*
X47964Y-24302D01*
X47964Y-24247D01*
X47964Y-23797D01*
X47943Y-23746D01*
X47921Y-23725D01*
X47943Y-23703D01*
X47964Y-23652D01*
X47964Y-23597D01*
X47964Y-23147D01*
X47943Y-23096D01*
X47903Y-23057D01*
X47852Y-23036D01*
X47797Y-23036D01*
X47547Y-23036D01*
X47496Y-23057D01*
X47492Y-23060D01*
X47477Y-23046D01*
X47426Y-23025D01*
X47371Y-23025D01*
X46899Y-23025D01*
X46848Y-23046D01*
X46809Y-23085D01*
X46784Y-23023D01*
X46714Y-22953D01*
X46622Y-22915D01*
X46597Y-22914D01*
X46677Y-22835D01*
X46714Y-22835D01*
X46751Y-22872D01*
X46912Y-22939D01*
X47087Y-22939D01*
X47248Y-22872D01*
X47372Y-22749D01*
X47439Y-22588D01*
X47439Y-22413D01*
X47372Y-22252D01*
X47249Y-22128D01*
X47088Y-22061D01*
X46913Y-22061D01*
X46752Y-22128D01*
X46628Y-22251D01*
X46561Y-22412D01*
X46561Y-22472D01*
X46529Y-22479D01*
X46469Y-22519D01*
X46468Y-22519D01*
X46468Y-22520D01*
X46439Y-22549D01*
X46439Y-22413D01*
X46372Y-22252D01*
X46249Y-22128D01*
X46088Y-22061D01*
X45913Y-22061D01*
X45752Y-22128D01*
X45628Y-22251D01*
X45561Y-22412D01*
X45561Y-22587D01*
X45628Y-22748D01*
X45751Y-22872D01*
X45797Y-22891D01*
X45769Y-22919D01*
X45669Y-23019D01*
X45629Y-23079D01*
X45615Y-23150D01*
X45615Y-23566D01*
X45549Y-23632D01*
X45504Y-23741D01*
X45504Y-23859D01*
X45549Y-23968D01*
X45632Y-24051D01*
X45741Y-24096D01*
X45851Y-24096D01*
X45851Y-24150D01*
X45863Y-24150D01*
X45851Y-24162D01*
X45852Y-24237D01*
X45852Y-24336D01*
X45868Y-24375D01*
X45852Y-24414D01*
X45852Y-24513D01*
X45851Y-24588D01*
X45913Y-24650D01*
X46287Y-24650D01*
X46287Y-24474D01*
X46287Y-24276D01*
X46287Y-24150D01*
X46287Y-24100D01*
X46287Y-24000D01*
X46287Y-23950D01*
X46287Y-23824D01*
X46287Y-23626D01*
X46287Y-23500D01*
X46287Y-23450D01*
X46287Y-23350D01*
X46387Y-23350D01*
X46387Y-23450D01*
X46387Y-23500D01*
X46387Y-23626D01*
X46387Y-23824D01*
X46387Y-23950D01*
X46387Y-24000D01*
X46387Y-24100D01*
X46387Y-24150D01*
X46387Y-24276D01*
X46387Y-24474D01*
X46387Y-24600D01*
X46387Y-24650D01*
X46387Y-24750D01*
X46387Y-24800D01*
X46387Y-24871D01*
X46350Y-24908D01*
X46350Y-25243D01*
X46685Y-25243D01*
X46747Y-25181D01*
X46746Y-25114D01*
X46784Y-25077D01*
X46809Y-25015D01*
X46849Y-25054D01*
X46900Y-25075D01*
X46955Y-25075D01*
X47427Y-25075D01*
X47478Y-25054D01*
X47492Y-25038D01*
X47497Y-25043D01*
X47548Y-25064D01*
X47603Y-25064D01*
X47853Y-25064D01*
X47902Y-25043D01*
X47901Y-25047D01*
X47900Y-25181D01*
X47962Y-25243D01*
X48247Y-25243D01*
X48297Y-25243D01*
X48397Y-25243D01*
X48397Y-25343D01*
X48297Y-25343D01*
X48247Y-25343D01*
X47962Y-25343D01*
X47900Y-25405D01*
X47901Y-25539D01*
X47939Y-25631D01*
X48009Y-25701D01*
X48100Y-25739D01*
X48192Y-25739D01*
X48149Y-25782D01*
X48104Y-25891D01*
X48104Y-26009D01*
X48149Y-26118D01*
X48232Y-26201D01*
X48341Y-26246D01*
X48436Y-26246D01*
X48439Y-26248D01*
X48274Y-26414D01*
X48122Y-26414D01*
X48071Y-26435D01*
X48032Y-26475D01*
X48011Y-26526D01*
X48011Y-26565D01*
X46636Y-26565D01*
X46636Y-26525D01*
X46615Y-26474D01*
X46575Y-26435D01*
X46524Y-26414D01*
X46469Y-26414D01*
X46085Y-26414D01*
X46085Y-26227D01*
X46216Y-26096D01*
X46309Y-26096D01*
X46418Y-26051D01*
X46501Y-25968D01*
X46546Y-25859D01*
X46546Y-25741D01*
X46545Y-25739D01*
X46547Y-25739D01*
X46638Y-25701D01*
X46708Y-25631D01*
X46746Y-25539D01*
X46747Y-25405D01*
X46685Y-25343D01*
X46400Y-25343D01*
X46350Y-25343D01*
X46287Y-25343D01*
X46287Y-25124D01*
X46287Y-24750D01*
X45913Y-24750D01*
X45851Y-24812D01*
X45852Y-24887D01*
X45852Y-24986D01*
X45865Y-25018D01*
X45854Y-25047D01*
X45853Y-25181D01*
X45915Y-25243D01*
X46250Y-25243D01*
X46250Y-25161D01*
X46287Y-25124D01*
X46287Y-25343D01*
X46250Y-25343D01*
X46200Y-25343D01*
X45915Y-25343D01*
X45853Y-25405D01*
X45854Y-25539D01*
X45892Y-25631D01*
X45962Y-25701D01*
X45969Y-25704D01*
X45954Y-25741D01*
X45954Y-25834D01*
X45769Y-26019D01*
X45729Y-26079D01*
X45715Y-26150D01*
X45715Y-28400D01*
X45729Y-28471D01*
X45769Y-28531D01*
X45964Y-28725D01*
X45964Y-29025D01*
X45985Y-29076D01*
X46025Y-29115D01*
X46076Y-29136D01*
X46131Y-29136D01*
X46525Y-29136D01*
X46576Y-29115D01*
X46615Y-29075D01*
X46636Y-29024D01*
X46636Y-28985D01*
X47201Y-28985D01*
X47174Y-29051D01*
X47174Y-29169D01*
X47209Y-29255D01*
X46530Y-29255D01*
X46459Y-29269D01*
X46399Y-29309D01*
X46397Y-29311D01*
X45869Y-29839D01*
X45829Y-29899D01*
X45815Y-29970D01*
X45815Y-30101D01*
X45752Y-30128D01*
X45628Y-30251D01*
X45561Y-30412D01*
X45561Y-30587D01*
X45628Y-30748D01*
X45751Y-30872D01*
X45912Y-30939D01*
X46087Y-30939D01*
X46248Y-30872D01*
X46372Y-30749D01*
X46439Y-30588D01*
X46439Y-30413D01*
X46372Y-30252D01*
X46249Y-30128D01*
X46185Y-30101D01*
X46185Y-30046D01*
X46606Y-29625D01*
X47053Y-29625D01*
X46869Y-29809D01*
X46829Y-29869D01*
X46815Y-29940D01*
X46815Y-30101D01*
X46752Y-30128D01*
X46628Y-30251D01*
X46561Y-30412D01*
X46561Y-30587D01*
X46628Y-30748D01*
X46751Y-30872D01*
X46912Y-30939D01*
X47087Y-30939D01*
X47248Y-30872D01*
X47372Y-30749D01*
X47439Y-30588D01*
X47439Y-30413D01*
X47372Y-30252D01*
X47249Y-30128D01*
X47185Y-30101D01*
X47185Y-30016D01*
X47396Y-29805D01*
X47923Y-29805D01*
X47869Y-29859D01*
X47829Y-29919D01*
X47815Y-29990D01*
X47815Y-30101D01*
X47752Y-30128D01*
X47628Y-30251D01*
X47561Y-30412D01*
X47561Y-30587D01*
X47628Y-30748D01*
X47751Y-30872D01*
X47912Y-30939D01*
X48087Y-30939D01*
X48248Y-30872D01*
X48372Y-30749D01*
X48439Y-30588D01*
X48439Y-30413D01*
X48372Y-30252D01*
X48249Y-30128D01*
X48185Y-30101D01*
X48185Y-30066D01*
X48276Y-29975D01*
X48827Y-29975D01*
X48815Y-30040D01*
X48815Y-30101D01*
X48752Y-30128D01*
X48628Y-30251D01*
X48561Y-30412D01*
X48561Y-30587D01*
X48628Y-30748D01*
X48751Y-30872D01*
X48912Y-30939D01*
X49087Y-30939D01*
X49248Y-30872D01*
X49372Y-30749D01*
X49439Y-30588D01*
X49439Y-30413D01*
X49372Y-30252D01*
X49249Y-30128D01*
X49196Y-30105D01*
X49500Y-29801D01*
X49804Y-30106D01*
X49752Y-30128D01*
X49628Y-30251D01*
X49561Y-30412D01*
X49561Y-30587D01*
X49628Y-30748D01*
X49751Y-30872D01*
X49912Y-30939D01*
X50087Y-30939D01*
X50248Y-30872D01*
X50372Y-30749D01*
X50439Y-30588D01*
X50439Y-30413D01*
X50372Y-30252D01*
X50249Y-30128D01*
X50185Y-30101D01*
X50185Y-30040D01*
X50171Y-29969D01*
X50131Y-29909D01*
X50128Y-29907D01*
X49785Y-29563D01*
X49785Y-28851D01*
X49789Y-28861D01*
X49859Y-28931D01*
X49861Y-28931D01*
X49861Y-28938D01*
X49882Y-28989D01*
X49922Y-29028D01*
X49973Y-29049D01*
X49990Y-29049D01*
X49990Y-29090D01*
X50003Y-29157D01*
X50006Y-29171D01*
X50052Y-29238D01*
X50511Y-29698D01*
X50512Y-29698D01*
X50557Y-29728D01*
X50579Y-29743D01*
X50580Y-29744D01*
X50660Y-29760D01*
X50701Y-29760D01*
X50701Y-29778D01*
X50722Y-29829D01*
X50762Y-29868D01*
X50813Y-29889D01*
X50868Y-29889D01*
X50968Y-29889D01*
X50990Y-29879D01*
X51013Y-29889D01*
X51068Y-29889D01*
X51168Y-29889D01*
X51185Y-29881D01*
X51203Y-29889D01*
X51258Y-29889D01*
X51358Y-29889D01*
X51380Y-29879D01*
X51403Y-29889D01*
X51458Y-29889D01*
X51558Y-29889D01*
X51580Y-29879D01*
X51603Y-29889D01*
X51658Y-29889D01*
X51758Y-29889D01*
X51775Y-29881D01*
X51793Y-29889D01*
X51848Y-29889D01*
X51885Y-29889D01*
X51885Y-30072D01*
X51752Y-30128D01*
X51628Y-30251D01*
X51561Y-30412D01*
X51561Y-30587D01*
X51628Y-30748D01*
X51751Y-30872D01*
X51912Y-30939D01*
X52087Y-30939D01*
X52248Y-30872D01*
X52372Y-30749D01*
X52420Y-30632D01*
X52479Y-30671D01*
X52549Y-30685D01*
X52549Y-30684D01*
X52550Y-30685D01*
X52601Y-30685D01*
X52628Y-30748D01*
X52751Y-30872D01*
X52912Y-30939D01*
X53087Y-30939D01*
X53248Y-30872D01*
X53372Y-30749D01*
X53439Y-30588D01*
X53439Y-30413D01*
X53372Y-30252D01*
X53249Y-30128D01*
X53217Y-30115D01*
X53324Y-30115D01*
X53324Y-30129D01*
X53369Y-30238D01*
X53452Y-30321D01*
X53561Y-30366D01*
X53580Y-30366D01*
X53561Y-30412D01*
X53561Y-30587D01*
X53628Y-30748D01*
X53751Y-30872D01*
X53912Y-30939D01*
X54087Y-30939D01*
X54248Y-30872D01*
X54372Y-30749D01*
X54439Y-30588D01*
X54439Y-30413D01*
X54372Y-30252D01*
X54249Y-30128D01*
X54241Y-30125D01*
X54324Y-30125D01*
X54324Y-30129D01*
X54369Y-30238D01*
X54452Y-30321D01*
X54561Y-30366D01*
X54580Y-30366D01*
X54561Y-30412D01*
X54561Y-30587D01*
X54628Y-30748D01*
X54751Y-30872D01*
X54912Y-30939D01*
X55087Y-30939D01*
X55248Y-30872D01*
X55372Y-30749D01*
X55439Y-30588D01*
X55439Y-30413D01*
X55372Y-30252D01*
X55249Y-30128D01*
X55088Y-30061D01*
X54916Y-30061D01*
X54916Y-30011D01*
X54909Y-29994D01*
X54920Y-29999D01*
X54934Y-29999D01*
X54995Y-29938D01*
X54995Y-29831D01*
X54998Y-29828D01*
X55019Y-29777D01*
X55019Y-29722D01*
X55019Y-29322D01*
X55015Y-29312D01*
X55015Y-29101D01*
X54934Y-29101D01*
X54933Y-29100D01*
X55015Y-29100D01*
X55015Y-28522D01*
X55068Y-28501D01*
X55151Y-28418D01*
X55196Y-28309D01*
X55196Y-28191D01*
X55172Y-28135D01*
X55516Y-28135D01*
X55582Y-28201D01*
X55691Y-28246D01*
X55809Y-28246D01*
X55813Y-28243D01*
X55870Y-28255D01*
X55961Y-28255D01*
X55961Y-28285D01*
X55680Y-28285D01*
X55609Y-28299D01*
X55549Y-28339D01*
X55547Y-28341D01*
X55534Y-28354D01*
X55441Y-28354D01*
X55332Y-28399D01*
X55249Y-28482D01*
X55204Y-28591D01*
X55204Y-28709D01*
X55249Y-28818D01*
X55332Y-28901D01*
X55441Y-28946D01*
X55559Y-28946D01*
X55585Y-28935D01*
X55599Y-28968D01*
X55682Y-29051D01*
X55791Y-29096D01*
X55909Y-29096D01*
X56018Y-29051D01*
X56024Y-29045D01*
X56063Y-29045D01*
X56073Y-29049D01*
X56128Y-29049D01*
X56528Y-29049D01*
X56579Y-29028D01*
X56618Y-28988D01*
X56626Y-28967D01*
X57040Y-29381D01*
X57042Y-29384D01*
X57102Y-29424D01*
X57173Y-29438D01*
X58151Y-29438D01*
X58815Y-30101D01*
X58752Y-30128D01*
X58628Y-30251D01*
X58561Y-30412D01*
X58561Y-30587D01*
X58628Y-30748D01*
X58751Y-30872D01*
X58912Y-30939D01*
X59087Y-30939D01*
X59248Y-30872D01*
X59372Y-30749D01*
X59439Y-30588D01*
X59439Y-30413D01*
X59372Y-30252D01*
X59249Y-30128D01*
X59185Y-30101D01*
X59185Y-30025D01*
X59184Y-30024D01*
X59185Y-30024D01*
X59171Y-29954D01*
X59131Y-29894D01*
X59128Y-29892D01*
X58359Y-29122D01*
X58299Y-29082D01*
X58228Y-29068D01*
X57249Y-29068D01*
X56711Y-28529D01*
X56651Y-28489D01*
X56639Y-28486D01*
X56639Y-28455D01*
X57493Y-28455D01*
X57617Y-28578D01*
X57619Y-28581D01*
X57679Y-28621D01*
X57750Y-28635D01*
X59010Y-28635D01*
X59108Y-28733D01*
X59039Y-28802D01*
X58994Y-28911D01*
X58994Y-29029D01*
X59039Y-29138D01*
X59122Y-29221D01*
X59231Y-29266D01*
X59234Y-29266D01*
X59273Y-29304D01*
X59324Y-29325D01*
X59379Y-29325D01*
X59815Y-29325D01*
X59815Y-30101D01*
X59752Y-30128D01*
X59628Y-30251D01*
X59561Y-30412D01*
X59561Y-30587D01*
X59628Y-30748D01*
X59751Y-30872D01*
X59912Y-30939D01*
X60087Y-30939D01*
X60248Y-30872D01*
X60372Y-30749D01*
X60439Y-30588D01*
X60439Y-30413D01*
X60372Y-30252D01*
X60249Y-30128D01*
X60185Y-30101D01*
X60185Y-29435D01*
X60301Y-29436D01*
X60363Y-29374D01*
X60363Y-29050D01*
X60363Y-29000D01*
X60363Y-28900D01*
X60463Y-28900D01*
X60463Y-29000D01*
X60463Y-29050D01*
X60463Y-29374D01*
X60525Y-29436D01*
X60698Y-29435D01*
X60790Y-29397D01*
X60815Y-29372D01*
X60815Y-30101D01*
X60752Y-30128D01*
X60628Y-30251D01*
X60561Y-30412D01*
X60561Y-30587D01*
X60628Y-30748D01*
X60751Y-30872D01*
X60912Y-30939D01*
X61087Y-30939D01*
X61248Y-30872D01*
X61372Y-30749D01*
X61439Y-30588D01*
X61439Y-30413D01*
X61372Y-30252D01*
X61249Y-30128D01*
X61185Y-30101D01*
X61185Y-29000D01*
X61185Y-28846D01*
X61740Y-29401D01*
X61740Y-29750D01*
X61740Y-30139D01*
X61628Y-30251D01*
X61561Y-30412D01*
X61561Y-30587D01*
X61628Y-30748D01*
X61751Y-30872D01*
X61912Y-30939D01*
X62087Y-30939D01*
X62248Y-30872D01*
X62372Y-30749D01*
X62439Y-30588D01*
X62439Y-30413D01*
X62372Y-30252D01*
X62249Y-30128D01*
X62110Y-30070D01*
X62110Y-29750D01*
X62110Y-29472D01*
X62761Y-30123D01*
X62752Y-30128D01*
X62628Y-30251D01*
X62561Y-30412D01*
X62561Y-30587D01*
X62628Y-30748D01*
X62751Y-30872D01*
X62912Y-30939D01*
X63087Y-30939D01*
X63248Y-30872D01*
X63372Y-30749D01*
X63439Y-30588D01*
X63439Y-30413D01*
X63372Y-30252D01*
X63249Y-30128D01*
X63185Y-30101D01*
X63185Y-30100D01*
X63171Y-30029D01*
X63131Y-29969D01*
X62422Y-29260D01*
X63550Y-29260D01*
X63573Y-29260D01*
X63815Y-29502D01*
X63815Y-30101D01*
X63752Y-30128D01*
X63628Y-30251D01*
X63561Y-30412D01*
X63561Y-30587D01*
X63628Y-30748D01*
X63751Y-30872D01*
X63912Y-30939D01*
X64087Y-30939D01*
X64248Y-30872D01*
X64372Y-30749D01*
X64439Y-30588D01*
X64439Y-30413D01*
X64372Y-30252D01*
X64249Y-30128D01*
X64185Y-30101D01*
X64185Y-29425D01*
X64184Y-29424D01*
X64185Y-29424D01*
X64182Y-29412D01*
X64171Y-29354D01*
X64131Y-29294D01*
X64130Y-29293D01*
X63897Y-29060D01*
X64448Y-29060D01*
X64815Y-29426D01*
X64815Y-30101D01*
X64752Y-30128D01*
X64628Y-30251D01*
X64561Y-30412D01*
X64561Y-30587D01*
X64628Y-30748D01*
X64751Y-30872D01*
X64912Y-30939D01*
X65087Y-30939D01*
X65248Y-30872D01*
X65372Y-30749D01*
X65439Y-30588D01*
X65439Y-30413D01*
X65372Y-30252D01*
X65249Y-30128D01*
X65185Y-30101D01*
X65185Y-29447D01*
X65644Y-29906D01*
X65815Y-30077D01*
X65815Y-30101D01*
X65752Y-30128D01*
X65628Y-30251D01*
X65561Y-30412D01*
X65561Y-30587D01*
X65628Y-30748D01*
X65751Y-30872D01*
X65912Y-30939D01*
X66087Y-30939D01*
X66248Y-30872D01*
X66372Y-30749D01*
X66439Y-30588D01*
X66439Y-30426D01*
X66561Y-30548D01*
X66561Y-30587D01*
X66628Y-30748D01*
X66751Y-30872D01*
X66912Y-30939D01*
X67087Y-30939D01*
X67248Y-30872D01*
X67372Y-30749D01*
X67439Y-30588D01*
X67439Y-30413D01*
X67372Y-30252D01*
X67249Y-30128D01*
X67088Y-30061D01*
X66913Y-30061D01*
X66752Y-30128D01*
X66708Y-30171D01*
X66325Y-29788D01*
X65862Y-29325D01*
X65950Y-29325D01*
X65950Y-29313D01*
X65962Y-29325D01*
X66026Y-29324D01*
X66125Y-29324D01*
X66216Y-29286D01*
X66286Y-29216D01*
X66324Y-29124D01*
X66325Y-29062D01*
X66263Y-29000D01*
X65950Y-29000D01*
X65900Y-29000D01*
X65800Y-29000D01*
X65800Y-28900D01*
X65900Y-28900D01*
X65950Y-28900D01*
X66263Y-28900D01*
X66325Y-28838D01*
X66324Y-28776D01*
X66319Y-28764D01*
X67201Y-28764D01*
X67252Y-28743D01*
X67291Y-28703D01*
X67312Y-28652D01*
X67312Y-28597D01*
X67312Y-28031D01*
X67382Y-28101D01*
X67491Y-28146D01*
X67609Y-28146D01*
X67718Y-28101D01*
X67801Y-28018D01*
X67846Y-27909D01*
X67846Y-27791D01*
X67821Y-27731D01*
X67940Y-27681D01*
X67940Y-28700D01*
X67953Y-28767D01*
X67956Y-28781D01*
X68002Y-28848D01*
X68060Y-28907D01*
X68033Y-28936D01*
X68012Y-28987D01*
X68012Y-29042D01*
X68012Y-29375D01*
X67950Y-29375D01*
X67950Y-29387D01*
X67938Y-29375D01*
X67876Y-29376D01*
X67784Y-29414D01*
X67714Y-29484D01*
X67676Y-29575D01*
X67676Y-29674D01*
X67675Y-29738D01*
X67737Y-29800D01*
X67950Y-29800D01*
X68000Y-29800D01*
X68100Y-29800D01*
X68100Y-29900D01*
X68000Y-29900D01*
X67950Y-29900D01*
X67737Y-29900D01*
X67675Y-29962D01*
X67676Y-30026D01*
X67676Y-30125D01*
X67714Y-30216D01*
X67784Y-30286D01*
X67876Y-30324D01*
X67894Y-30324D01*
X67965Y-30394D01*
X68000Y-30429D01*
X68071Y-30500D01*
X68106Y-30535D01*
X68378Y-30808D01*
X68472Y-30781D01*
X68543Y-30579D01*
X68532Y-30366D01*
X68472Y-30219D01*
X68433Y-30207D01*
X68447Y-30193D01*
X68498Y-30214D01*
X68553Y-30214D01*
X68561Y-30214D01*
X68561Y-30228D01*
X68561Y-30828D01*
X68582Y-30879D01*
X68622Y-30918D01*
X68673Y-30939D01*
X68728Y-30939D01*
X69328Y-30939D01*
X69379Y-30918D01*
X69418Y-30878D01*
X69439Y-30827D01*
X69439Y-30772D01*
X69439Y-30172D01*
X69423Y-30133D01*
X69423Y-29625D01*
X69477Y-29625D01*
X69528Y-29604D01*
X69535Y-29596D01*
X69535Y-31035D01*
M02*
