M48
;DRILL file {Pcbnew (2012-01-19 BZR 3256)-stable} date Thu 07 Mar 2013 02:53:05 AM COT
;FORMAT={2:4/ absolute / inch / keep zeros}
FMAT,2
INCH,TZ
T1C0.012
T2C0.039
T3C0.040
%
G90
G05
M72
T1
X045800Y-023800
X046250Y-025800
X047470Y-029110
X047750Y-028250
X048347Y-026750
X048350Y-025300
X048400Y-025950
X048400Y-027400
X048800Y-023450
X049150Y-023700
X049250Y-026850
X049300Y-025250
X049450Y-023350
X049700Y-027500
X049870Y-029150
X050100Y-023900
X050150Y-023500
X050500Y-023750
X050700Y-028450
X050850Y-026100
X050850Y-027000
X050850Y-027600
X051090Y-029120
X051250Y-026500
X051480Y-023970
X051840Y-024550
X052380Y-024030
X052630Y-030060
X052640Y-024610
X053250Y-029150
X053620Y-030070
X053625Y-022975
X053700Y-024160
X053950Y-028750
X053990Y-023900
X054000Y-025750
X054000Y-027510
X054520Y-024820
X054550Y-029120
X054610Y-024390
X054620Y-030070
X054900Y-028250
X055150Y-028950
X055300Y-025200
X055300Y-026500
X055300Y-027450
X055500Y-028650
X055590Y-024760
X055750Y-025550
X055750Y-027950
X055850Y-028800
X056875Y-026400
X057250Y-025910
X057400Y-028850
X057490Y-025560
X057930Y-025570
X058375Y-024175
X058600Y-026800
X058800Y-023450
X059290Y-028970
X059500Y-029850
X060050Y-028275
X060625Y-029625
X061425Y-029850
X061650Y-026850
X061930Y-025580
X062125Y-027275
X062225Y-029850
X062700Y-027100
X062700Y-028150
X063080Y-023950
X063100Y-028150
X063250Y-024750
X063475Y-029850
X063670Y-024000
X063950Y-024500
X064350Y-027385
X064450Y-025700
X064450Y-029850
X065050Y-026550
X065325Y-029850
X065350Y-026300
X065500Y-027450
X065550Y-025850
X065850Y-027150
X067550Y-027850
X068150Y-026350
X068150Y-027000
X069200Y-026050
T2
X067744Y-025634
X067744Y-027366
T3
X045000Y-022500
X045000Y-030500
X046000Y-022500
X046000Y-030500
X047000Y-022500
X047000Y-030500
X048000Y-022500
X048000Y-030500
X049000Y-022500
X049000Y-030500
X050000Y-022500
X050000Y-030500
X051000Y-022500
X051000Y-030500
X052000Y-022500
X052000Y-030500
X053000Y-022500
X053000Y-030500
X054000Y-022500
X054000Y-030500
X055000Y-022500
X055000Y-030500
X056000Y-022500
X056000Y-030500
X057000Y-022500
X057000Y-030500
X058000Y-022500
X058000Y-030500
X059000Y-022500
X059000Y-030500
X060000Y-022500
X060000Y-030500
X061000Y-022500
X061000Y-030500
X062000Y-022500
X062000Y-030500
X063000Y-022500
X063000Y-030500
X064000Y-022500
X064000Y-030500
X065000Y-022500
X065000Y-030500
X066000Y-022500
X066000Y-030500
X067000Y-022500
X067000Y-030500
X068000Y-022500
X068000Y-030500
X069000Y-022500
X069000Y-030500
T0
M30
