G04 (created by PCBNEW-RS274X (2012-01-19 BZR 3256)-stable) date Thu 07 Mar 2013 02:54:08 AM COT*
G01*
G70*
G90*
%MOIN*%
G04 Gerber Fmt 3.4, Leading zero omitted, Abs format*
%FSLAX34Y34*%
G04 APERTURE LIST*
%ADD10C,0.006000*%
%ADD11C,0.015000*%
%ADD12C,0.012000*%
G04 APERTURE END LIST*
G54D10*
G54D11*
X44250Y-31250D02*
X44500Y-31250D01*
X44250Y-21750D02*
X44250Y-31250D01*
X69750Y-21750D02*
X69750Y-22000D01*
X44250Y-21750D02*
X69750Y-21750D01*
G54D12*
X71164Y-28270D02*
X71164Y-28213D01*
X71202Y-28156D01*
X71240Y-28127D01*
X71316Y-28098D01*
X71469Y-28070D01*
X71659Y-28070D01*
X71811Y-28098D01*
X71888Y-28127D01*
X71926Y-28156D01*
X71964Y-28213D01*
X71964Y-28270D01*
X71926Y-28327D01*
X71888Y-28356D01*
X71811Y-28384D01*
X71659Y-28413D01*
X71469Y-28413D01*
X71316Y-28384D01*
X71240Y-28356D01*
X71202Y-28327D01*
X71164Y-28270D01*
X71888Y-27813D02*
X71926Y-27785D01*
X71964Y-27813D01*
X71926Y-27842D01*
X71888Y-27813D01*
X71964Y-27813D01*
X71507Y-27441D02*
X71469Y-27499D01*
X71430Y-27527D01*
X71354Y-27556D01*
X71316Y-27556D01*
X71240Y-27527D01*
X71202Y-27499D01*
X71164Y-27441D01*
X71164Y-27327D01*
X71202Y-27270D01*
X71240Y-27241D01*
X71316Y-27213D01*
X71354Y-27213D01*
X71430Y-27241D01*
X71469Y-27270D01*
X71507Y-27327D01*
X71507Y-27441D01*
X71545Y-27499D01*
X71583Y-27527D01*
X71659Y-27556D01*
X71811Y-27556D01*
X71888Y-27527D01*
X71926Y-27499D01*
X71964Y-27441D01*
X71964Y-27327D01*
X71926Y-27270D01*
X71888Y-27241D01*
X71811Y-27213D01*
X71659Y-27213D01*
X71583Y-27241D01*
X71545Y-27270D01*
X71507Y-27327D01*
X71164Y-26842D02*
X71164Y-26785D01*
X71202Y-26728D01*
X71240Y-26699D01*
X71316Y-26670D01*
X71469Y-26642D01*
X71659Y-26642D01*
X71811Y-26670D01*
X71888Y-26699D01*
X71926Y-26728D01*
X71964Y-26785D01*
X71964Y-26842D01*
X71926Y-26899D01*
X71888Y-26928D01*
X71811Y-26956D01*
X71659Y-26985D01*
X71469Y-26985D01*
X71316Y-26956D01*
X71240Y-26928D01*
X71202Y-26899D01*
X71164Y-26842D01*
X71164Y-26271D02*
X71164Y-26214D01*
X71202Y-26157D01*
X71240Y-26128D01*
X71316Y-26099D01*
X71469Y-26071D01*
X71659Y-26071D01*
X71811Y-26099D01*
X71888Y-26128D01*
X71926Y-26157D01*
X71964Y-26214D01*
X71964Y-26271D01*
X71926Y-26328D01*
X71888Y-26357D01*
X71811Y-26385D01*
X71659Y-26414D01*
X71469Y-26414D01*
X71316Y-26385D01*
X71240Y-26357D01*
X71202Y-26328D01*
X71164Y-26271D01*
X71164Y-25700D02*
X71164Y-25643D01*
X71202Y-25586D01*
X71240Y-25557D01*
X71316Y-25528D01*
X71469Y-25500D01*
X71659Y-25500D01*
X71811Y-25528D01*
X71888Y-25557D01*
X71926Y-25586D01*
X71964Y-25643D01*
X71964Y-25700D01*
X71926Y-25757D01*
X71888Y-25786D01*
X71811Y-25814D01*
X71659Y-25843D01*
X71469Y-25843D01*
X71316Y-25814D01*
X71240Y-25786D01*
X71202Y-25757D01*
X71164Y-25700D01*
X71164Y-24815D02*
X71316Y-24815D01*
X71164Y-24586D02*
X71316Y-24586D01*
X71000Y-30500D02*
X71000Y-22500D01*
X69000Y-30500D02*
X72280Y-30500D01*
X69000Y-22500D02*
X72280Y-22500D01*
X71000Y-22500D02*
X71230Y-22943D01*
X71000Y-22500D02*
X70770Y-22943D01*
X71000Y-30500D02*
X71230Y-30057D01*
X71000Y-30500D02*
X70770Y-30057D01*
G54D11*
X69750Y-31250D02*
X44250Y-31250D01*
X69750Y-21250D02*
X69750Y-31250D01*
G54D12*
X54801Y-16635D02*
X54687Y-16635D01*
X54630Y-16673D01*
X54601Y-16711D01*
X54544Y-16825D01*
X54515Y-16978D01*
X54515Y-17282D01*
X54544Y-17359D01*
X54572Y-17397D01*
X54630Y-17435D01*
X54744Y-17435D01*
X54801Y-17397D01*
X54830Y-17359D01*
X54858Y-17282D01*
X54858Y-17092D01*
X54830Y-17016D01*
X54801Y-16978D01*
X54744Y-16940D01*
X54630Y-16940D01*
X54572Y-16978D01*
X54544Y-17016D01*
X54515Y-17092D01*
X55372Y-16901D02*
X55372Y-17435D01*
X55229Y-16597D02*
X55086Y-17168D01*
X55458Y-17168D01*
X55686Y-17359D02*
X55714Y-17397D01*
X55686Y-17435D01*
X55657Y-17397D01*
X55686Y-17359D01*
X55686Y-17435D01*
X55915Y-16635D02*
X56315Y-16635D01*
X56058Y-17435D01*
X56486Y-16635D02*
X56886Y-16635D01*
X56629Y-17435D01*
X57228Y-16635D02*
X57285Y-16635D01*
X57342Y-16673D01*
X57371Y-16711D01*
X57400Y-16787D01*
X57428Y-16940D01*
X57428Y-17130D01*
X57400Y-17282D01*
X57371Y-17359D01*
X57342Y-17397D01*
X57285Y-17435D01*
X57228Y-17435D01*
X57171Y-17397D01*
X57142Y-17359D01*
X57114Y-17282D01*
X57085Y-17130D01*
X57085Y-16940D01*
X57114Y-16787D01*
X57142Y-16711D01*
X57171Y-16673D01*
X57228Y-16635D01*
X58142Y-17435D02*
X58142Y-16901D01*
X58142Y-16978D02*
X58170Y-16940D01*
X58228Y-16901D01*
X58313Y-16901D01*
X58370Y-16940D01*
X58399Y-17016D01*
X58399Y-17435D01*
X58399Y-17016D02*
X58428Y-16940D01*
X58485Y-16901D01*
X58570Y-16901D01*
X58628Y-16940D01*
X58656Y-17016D01*
X58656Y-17435D01*
X58942Y-17435D02*
X58942Y-16901D01*
X58942Y-16978D02*
X58970Y-16940D01*
X59028Y-16901D01*
X59113Y-16901D01*
X59170Y-16940D01*
X59199Y-17016D01*
X59199Y-17435D01*
X59199Y-17016D02*
X59228Y-16940D01*
X59285Y-16901D01*
X59370Y-16901D01*
X59428Y-16940D01*
X59456Y-17016D01*
X59456Y-17435D01*
X44250Y-17751D02*
X69750Y-17751D01*
X44250Y-21250D02*
X44250Y-16471D01*
X69750Y-21250D02*
X69750Y-16471D01*
X69750Y-17751D02*
X69307Y-17981D01*
X69750Y-17751D02*
X69307Y-17521D01*
X44250Y-17751D02*
X44693Y-17981D01*
X44250Y-17751D02*
X44693Y-17521D01*
M02*
