G04 (created by PCBNEW-RS274X (2012-01-19 BZR 3256)-stable) date Thu 07 Mar 2013 02:54:08 AM COT*
G01*
G70*
G90*
%MOIN*%
G04 Gerber Fmt 3.4, Leading zero omitted, Abs format*
%FSLAX34Y34*%
G04 APERTURE LIST*
%ADD10C,0.006000*%
%ADD11C,0.015000*%
%ADD12R,0.045000X0.025000*%
%ADD13R,0.025000X0.045000*%
%ADD14C,0.045400*%
%ADD15R,0.144000X0.080000*%
%ADD16R,0.040000X0.080000*%
%ADD17R,0.020000X0.045000*%
%ADD18R,0.055000X0.100000*%
%ADD19R,0.026000X0.016000*%
%ADD20R,0.039400X0.027200*%
%ADD21R,0.011800X0.047200*%
%ADD22R,0.047200X0.011800*%
%ADD23R,0.078700X0.216500*%
%ADD24R,0.060000X0.060000*%
%ADD25C,0.060000*%
%ADD26C,0.070000*%
%ADD27C,0.031500*%
%ADD28C,0.009000*%
%ADD29C,0.014000*%
%ADD30C,0.010000*%
G04 APERTURE END LIST*
G54D10*
G54D11*
X44250Y-31250D02*
X44500Y-31250D01*
X44250Y-21750D02*
X44250Y-31250D01*
X69750Y-21750D02*
X69750Y-22000D01*
X44250Y-21750D02*
X69750Y-21750D01*
X69750Y-31250D02*
X44250Y-31250D01*
X69750Y-21250D02*
X69750Y-31250D01*
G54D12*
X47650Y-26050D03*
X47650Y-25450D03*
X48300Y-26650D03*
X48300Y-26050D03*
G54D13*
X60225Y-28975D03*
X59625Y-28975D03*
X50400Y-28450D03*
X49800Y-28450D03*
X50400Y-27500D03*
X49800Y-27500D03*
X50400Y-26100D03*
X49800Y-26100D03*
X50400Y-25450D03*
X49800Y-25450D03*
X50400Y-24450D03*
X49800Y-24450D03*
G54D12*
X51500Y-23950D03*
X51500Y-24550D03*
X52650Y-23950D03*
X52650Y-24550D03*
G54D13*
X51075Y-28400D03*
X51675Y-28400D03*
X55900Y-25200D03*
X55300Y-25200D03*
X55900Y-27900D03*
X55300Y-27900D03*
G54D12*
X54750Y-29350D03*
X54750Y-28750D03*
X53700Y-29350D03*
X53700Y-28750D03*
G54D13*
X50400Y-26800D03*
X49800Y-26800D03*
X55900Y-26100D03*
X55300Y-26100D03*
X55900Y-27000D03*
X55300Y-27000D03*
G54D14*
X67744Y-25634D03*
X67744Y-27366D03*
G54D15*
X61500Y-27800D03*
G54D16*
X61500Y-25200D03*
X62400Y-25200D03*
X60600Y-25200D03*
G54D17*
X58650Y-26900D03*
X58150Y-26900D03*
X57650Y-26900D03*
X57150Y-26900D03*
X57150Y-29400D03*
X57650Y-29400D03*
X58150Y-29400D03*
X58650Y-29400D03*
G54D12*
X51000Y-25600D03*
X51000Y-25000D03*
G54D18*
X52000Y-25750D03*
X53000Y-25750D03*
X54000Y-25750D03*
X54000Y-27250D03*
X53000Y-27250D03*
X52000Y-27250D03*
G54D19*
X47210Y-29180D03*
X47210Y-29700D03*
X47210Y-29440D03*
X46410Y-29700D03*
X46410Y-29180D03*
X46410Y-29440D03*
G54D20*
X49262Y-28756D03*
X49262Y-29504D03*
X49262Y-29130D03*
X48238Y-29504D03*
X48238Y-28756D03*
X48238Y-29130D03*
G54D12*
X65750Y-29450D03*
X65750Y-28850D03*
X66650Y-29450D03*
X66650Y-28850D03*
G54D13*
X64450Y-29150D03*
X65050Y-29150D03*
G54D12*
X67500Y-23200D03*
X67500Y-23800D03*
X67500Y-29800D03*
X67500Y-29200D03*
G54D13*
X66150Y-24000D03*
X66750Y-24000D03*
G54D21*
X66332Y-28133D03*
X66135Y-28133D03*
X65938Y-28133D03*
X65742Y-28133D03*
X65545Y-28133D03*
X65348Y-28133D03*
X65152Y-28133D03*
X64955Y-28133D03*
X64758Y-28133D03*
X64562Y-28133D03*
X64365Y-28133D03*
X64168Y-28133D03*
G54D22*
X63617Y-27582D03*
X63617Y-27385D03*
X63617Y-27188D03*
X63617Y-26992D03*
X63617Y-26795D03*
X63617Y-26598D03*
X63617Y-26402D03*
X63617Y-26205D03*
X63617Y-26008D03*
X63617Y-25812D03*
X63617Y-25615D03*
X63617Y-25418D03*
G54D21*
X64168Y-24867D03*
X64365Y-24867D03*
X64562Y-24867D03*
X64758Y-24867D03*
X64955Y-24867D03*
X65152Y-24867D03*
X65348Y-24867D03*
X65545Y-24867D03*
X65742Y-24867D03*
X65938Y-24867D03*
X66135Y-24867D03*
X66332Y-24867D03*
G54D22*
X66883Y-25418D03*
X66883Y-25615D03*
X66883Y-25812D03*
X66883Y-26008D03*
X66883Y-26205D03*
X66883Y-26402D03*
X66883Y-26598D03*
X66883Y-26795D03*
X66883Y-26992D03*
X66883Y-27188D03*
X66883Y-27385D03*
X66883Y-27582D03*
G54D23*
X68500Y-28350D03*
X68500Y-24650D03*
G54D24*
X69000Y-22500D03*
G54D25*
X68000Y-22500D03*
X67000Y-22500D03*
X66000Y-22500D03*
X65000Y-22500D03*
X64000Y-22500D03*
X63000Y-22500D03*
X62000Y-22500D03*
X61000Y-22500D03*
X60000Y-22500D03*
X59000Y-22500D03*
X58000Y-22500D03*
X57000Y-22500D03*
X56000Y-22500D03*
X55000Y-22500D03*
X54000Y-22500D03*
X53000Y-22500D03*
X52000Y-22500D03*
X51000Y-22500D03*
X50000Y-22500D03*
X49000Y-22500D03*
X48000Y-22500D03*
X47000Y-22500D03*
X46000Y-22500D03*
G54D26*
X45000Y-22500D03*
G54D24*
X69000Y-30500D03*
G54D25*
X68000Y-30500D03*
X67000Y-30500D03*
X66000Y-30500D03*
X65000Y-30500D03*
X64000Y-30500D03*
X63000Y-30500D03*
X62000Y-30500D03*
X61000Y-30500D03*
X60000Y-30500D03*
X59000Y-30500D03*
X58000Y-30500D03*
X57000Y-30500D03*
X56000Y-30500D03*
X55000Y-30500D03*
X54000Y-30500D03*
X53000Y-30500D03*
X52000Y-30500D03*
X51000Y-30500D03*
X50000Y-30500D03*
X49000Y-30500D03*
X48000Y-30500D03*
X47000Y-30500D03*
X46000Y-30500D03*
G54D26*
X45000Y-30500D03*
G54D27*
X61930Y-25580D03*
X62125Y-27275D03*
X57250Y-25910D03*
X53250Y-29150D03*
X50850Y-27000D03*
X55750Y-25550D03*
X58600Y-26800D03*
X69200Y-26050D03*
X52380Y-24030D03*
X51480Y-23970D03*
X64450Y-25700D03*
X55750Y-27950D03*
X54550Y-29120D03*
X50850Y-27600D03*
X50850Y-26100D03*
X55590Y-24760D03*
X50700Y-28450D03*
X64350Y-27385D03*
X48400Y-25950D03*
X63250Y-24750D03*
X67550Y-27850D03*
X65850Y-27150D03*
X58800Y-23450D03*
X50500Y-23750D03*
X58375Y-24175D03*
X50100Y-23900D03*
X47470Y-29110D03*
X55500Y-28650D03*
X51090Y-29120D03*
X54900Y-28250D03*
X55850Y-28800D03*
X59290Y-28970D03*
X54000Y-27510D03*
X48347Y-26750D03*
X45800Y-23800D03*
X49450Y-23350D03*
X49150Y-23700D03*
X48800Y-23450D03*
X53990Y-23900D03*
X53700Y-24160D03*
X46250Y-25800D03*
X50150Y-23500D03*
X52630Y-30060D03*
X53620Y-30070D03*
X54620Y-30070D03*
X56875Y-26400D03*
X60050Y-28275D03*
X54610Y-24390D03*
X57930Y-25570D03*
X63080Y-23950D03*
X63670Y-24000D03*
X54520Y-24820D03*
X57490Y-25560D03*
X53625Y-22975D03*
X65050Y-26550D03*
X65350Y-26300D03*
X52640Y-24610D03*
X64450Y-29850D03*
X61425Y-29850D03*
X59500Y-29850D03*
X51840Y-24550D03*
X65325Y-29850D03*
X49700Y-27500D03*
X48400Y-27400D03*
X63950Y-24500D03*
X48350Y-25300D03*
X55150Y-28950D03*
X55300Y-26500D03*
X57400Y-28850D03*
X55300Y-25200D03*
X53950Y-28750D03*
X60625Y-29625D03*
X62225Y-29850D03*
X63475Y-29850D03*
X49870Y-29150D03*
X68150Y-26350D03*
X61650Y-26850D03*
X62700Y-27100D03*
X62700Y-28150D03*
X63100Y-28150D03*
X47750Y-28250D03*
X51250Y-26500D03*
X54000Y-25750D03*
X68150Y-27000D03*
X55300Y-27450D03*
X49250Y-26850D03*
X65550Y-25850D03*
X49300Y-25250D03*
X65500Y-27450D03*
G54D28*
X69750Y-21250D02*
X69750Y-31250D01*
X69750Y-31250D02*
X44250Y-31250D01*
G54D29*
X55900Y-26100D02*
X56075Y-25925D01*
X61930Y-25580D02*
X61550Y-25200D01*
G54D28*
X50650Y-26800D02*
X50850Y-27000D01*
G54D29*
X62025Y-27275D02*
X61500Y-27800D01*
X57235Y-25925D02*
X56075Y-25925D01*
G54D28*
X53450Y-29350D02*
X53700Y-29350D01*
X55900Y-27000D02*
X55900Y-26100D01*
X50400Y-26800D02*
X50650Y-26800D01*
G54D29*
X61550Y-25200D02*
X61500Y-25200D01*
X57235Y-25925D02*
X57250Y-25910D01*
G54D28*
X53250Y-29150D02*
X53450Y-29350D01*
G54D29*
X62125Y-27275D02*
X62025Y-27275D01*
X54870Y-25530D02*
X54960Y-25440D01*
X54430Y-25180D02*
X54430Y-25410D01*
G54D28*
X50750Y-27500D02*
X50850Y-27600D01*
G54D29*
X69050Y-23350D02*
X69200Y-23500D01*
G54D28*
X46540Y-29700D02*
X46860Y-29380D01*
G54D29*
X54960Y-25170D02*
X54970Y-25180D01*
G54D28*
X55610Y-25750D02*
X55610Y-27450D01*
G54D29*
X54970Y-25180D02*
X54970Y-25250D01*
X69200Y-23500D02*
X69200Y-23250D01*
G54D28*
X47650Y-26050D02*
X48300Y-26050D01*
G54D29*
X65348Y-25252D02*
X65200Y-25400D01*
X53050Y-24430D02*
X53050Y-24175D01*
G54D28*
X46860Y-29380D02*
X46860Y-27820D01*
G54D29*
X54750Y-29350D02*
X54750Y-29320D01*
X65200Y-25400D02*
X64500Y-25400D01*
G54D28*
X58650Y-27275D02*
X58650Y-26900D01*
G54D29*
X64400Y-25300D02*
X64500Y-25400D01*
X64365Y-25585D02*
X64365Y-25750D01*
X64215Y-27385D02*
X63617Y-27385D01*
G54D28*
X52380Y-24030D02*
X52410Y-24000D01*
G54D29*
X54430Y-25410D02*
X54550Y-25530D01*
G54D28*
X57650Y-29740D02*
X57650Y-29720D01*
X46860Y-26530D02*
X47340Y-26050D01*
X57730Y-29820D02*
X57650Y-29740D01*
G54D29*
X51075Y-28400D02*
X50750Y-28400D01*
X51200Y-27250D02*
X52000Y-27250D01*
X54970Y-25250D02*
X54970Y-25160D01*
G54D28*
X55750Y-25610D02*
X55610Y-25750D01*
X50400Y-27500D02*
X50750Y-27500D01*
X46990Y-27710D02*
X46970Y-27710D01*
X46860Y-27710D02*
X46860Y-27580D01*
G54D29*
X69200Y-26050D02*
X69200Y-23500D01*
G54D28*
X55750Y-27950D02*
X55800Y-27900D01*
G54D29*
X69200Y-23100D02*
X69200Y-22700D01*
X64450Y-25700D02*
X64400Y-25750D01*
X51150Y-24050D02*
X50750Y-24450D01*
X64365Y-24867D02*
X64365Y-25300D01*
G54D28*
X55750Y-25550D02*
X55900Y-25400D01*
X48960Y-27720D02*
X46990Y-27720D01*
G54D29*
X50850Y-27600D02*
X51200Y-27250D01*
G54D28*
X57640Y-29720D02*
X57540Y-29820D01*
G54D29*
X53970Y-24930D02*
X54180Y-24930D01*
G54D28*
X56670Y-29820D02*
X56270Y-29420D01*
X55800Y-27900D02*
X55900Y-27900D01*
G54D29*
X53190Y-24800D02*
X53050Y-24660D01*
X64365Y-27250D02*
X64350Y-27250D01*
X64500Y-25400D02*
X64365Y-25400D01*
G54D28*
X46990Y-27710D02*
X46860Y-27580D01*
X55100Y-29350D02*
X55170Y-29420D01*
X46410Y-29700D02*
X46540Y-29700D01*
X54750Y-29350D02*
X55100Y-29350D01*
G54D29*
X64365Y-27265D02*
X64485Y-27385D01*
X69050Y-23300D02*
X68050Y-23300D01*
X64400Y-25750D02*
X64365Y-25750D01*
X67850Y-23500D02*
X66100Y-23500D01*
G54D28*
X57540Y-29820D02*
X56670Y-29820D01*
G54D29*
X68050Y-23300D02*
X67850Y-23500D01*
X65348Y-24867D02*
X65348Y-25252D01*
G54D28*
X60225Y-28975D02*
X60225Y-28850D01*
G54D29*
X64365Y-25300D02*
X64400Y-25300D01*
X50750Y-28400D02*
X50700Y-28450D01*
X69050Y-23300D02*
X69050Y-23250D01*
G54D28*
X50400Y-26100D02*
X50400Y-25450D01*
G54D29*
X58150Y-28400D02*
X58400Y-28650D01*
X58150Y-26900D02*
X58150Y-28400D01*
G54D28*
X57730Y-29820D02*
X57540Y-29820D01*
X48400Y-25950D02*
X48300Y-26050D01*
G54D29*
X64365Y-27250D02*
X64365Y-27265D01*
X64350Y-27250D02*
X64215Y-27385D01*
X64365Y-25750D02*
X64365Y-27250D01*
X64485Y-27385D02*
X64350Y-27385D01*
X51000Y-25600D02*
X51000Y-25950D01*
X64562Y-28133D02*
X64562Y-27462D01*
X51400Y-24050D02*
X51150Y-24050D01*
G54D28*
X49262Y-28756D02*
X49262Y-28022D01*
X47340Y-26050D02*
X47650Y-26050D01*
G54D29*
X54180Y-24930D02*
X54430Y-25180D01*
X55900Y-25200D02*
X55900Y-24920D01*
G54D28*
X46870Y-27710D02*
X46860Y-27710D01*
G54D29*
X50850Y-26100D02*
X51650Y-26100D01*
X55740Y-24760D02*
X55590Y-24760D01*
X58600Y-26800D02*
X58650Y-26875D01*
X52650Y-23950D02*
X52825Y-23950D01*
X66100Y-23500D02*
X65348Y-24252D01*
G54D28*
X55750Y-27590D02*
X55750Y-27950D01*
G54D29*
X52950Y-24075D02*
X52825Y-23950D01*
X54750Y-29320D02*
X54550Y-29120D01*
X50400Y-28450D02*
X50700Y-28450D01*
X64350Y-27385D02*
X64215Y-27385D01*
X64562Y-27462D02*
X64485Y-27385D01*
G54D28*
X46860Y-27720D02*
X46870Y-27710D01*
G54D29*
X58650Y-26900D02*
X58150Y-26900D01*
X69200Y-23250D02*
X69200Y-23100D01*
X53970Y-24930D02*
X53660Y-24930D01*
G54D28*
X58280Y-29820D02*
X57730Y-29820D01*
G54D29*
X51000Y-25950D02*
X50850Y-26100D01*
G54D28*
X55170Y-29420D02*
X56270Y-29420D01*
X58400Y-29700D02*
X58280Y-29820D01*
G54D29*
X69200Y-22700D02*
X69000Y-22500D01*
X69150Y-23300D02*
X69050Y-23300D01*
G54D28*
X51480Y-23970D02*
X51500Y-23950D01*
G54D29*
X50750Y-24450D02*
X50400Y-24450D01*
X64365Y-25300D02*
X64365Y-25400D01*
G54D28*
X57650Y-29720D02*
X57640Y-29720D01*
G54D29*
X53530Y-24800D02*
X53190Y-24800D01*
G54D28*
X49262Y-28022D02*
X48960Y-27720D01*
G54D29*
X54960Y-24920D02*
X55120Y-24760D01*
G54D28*
X58400Y-29700D02*
X58400Y-28650D01*
G54D29*
X54960Y-25170D02*
X54960Y-24920D01*
X69050Y-23250D02*
X69200Y-23100D01*
X54970Y-25160D02*
X54960Y-25170D01*
X58650Y-26875D02*
X58650Y-26900D01*
X64500Y-25400D02*
X64500Y-25450D01*
G54D28*
X46970Y-27710D02*
X46860Y-27820D01*
X55610Y-27450D02*
X55750Y-27590D01*
G54D29*
X55590Y-24760D02*
X55120Y-24760D01*
X52000Y-27250D02*
X52000Y-25750D01*
X69200Y-23250D02*
X69150Y-23300D01*
X54550Y-25530D02*
X54870Y-25530D01*
X64365Y-25400D02*
X64365Y-25585D01*
X54960Y-25440D02*
X54960Y-25170D01*
G54D28*
X52410Y-24000D02*
X52410Y-23950D01*
G54D29*
X50400Y-24450D02*
X50400Y-25450D01*
X55900Y-24920D02*
X55740Y-24760D01*
G54D28*
X55750Y-25550D02*
X55750Y-25610D01*
G54D29*
X53590Y-24860D02*
X53660Y-24930D01*
X65348Y-24252D02*
X65348Y-24867D01*
G54D28*
X60225Y-28850D02*
X58650Y-27275D01*
G54D29*
X52950Y-24075D02*
X53050Y-24175D01*
G54D28*
X50400Y-26100D02*
X50850Y-26100D01*
G54D29*
X69050Y-23300D02*
X69050Y-23350D01*
X51650Y-26100D02*
X52000Y-25750D01*
G54D28*
X46860Y-27820D02*
X46860Y-27710D01*
G54D29*
X52650Y-23950D02*
X52410Y-23950D01*
G54D28*
X46990Y-27720D02*
X46860Y-27720D01*
X57650Y-29720D02*
X57650Y-29400D01*
G54D29*
X53050Y-24660D02*
X53050Y-24430D01*
X51500Y-23950D02*
X51400Y-24050D01*
X64500Y-25450D02*
X64365Y-25585D01*
X52410Y-23950D02*
X51500Y-23950D01*
G54D28*
X46860Y-27580D02*
X46860Y-26530D01*
X46990Y-27720D02*
X46990Y-27710D01*
G54D29*
X53590Y-24860D02*
X53530Y-24800D01*
G54D28*
X55900Y-25400D02*
X55900Y-25200D01*
X66850Y-24000D02*
X67400Y-24550D01*
G54D29*
X62400Y-25200D02*
X62800Y-25200D01*
X62800Y-25200D02*
X63250Y-24750D01*
X65750Y-29450D02*
X66650Y-29450D01*
X65742Y-27700D02*
X65742Y-27658D01*
X65742Y-27658D02*
X65850Y-27550D01*
X65850Y-27550D02*
X65850Y-27150D01*
X66900Y-29450D02*
X67050Y-29300D01*
X67050Y-29300D02*
X67050Y-28950D01*
X67050Y-28950D02*
X67550Y-28450D01*
X67550Y-28450D02*
X67550Y-27850D01*
X66650Y-29450D02*
X66900Y-29450D01*
X65938Y-27238D02*
X65850Y-27150D01*
X65938Y-27462D02*
X65938Y-27238D01*
X65938Y-28133D02*
X65938Y-27462D01*
X66148Y-26402D02*
X65850Y-26700D01*
X65850Y-26700D02*
X65850Y-27150D01*
X66883Y-26402D02*
X66148Y-26402D01*
X65742Y-27658D02*
X65938Y-27462D01*
X65742Y-27700D02*
X65742Y-27700D01*
X65742Y-28133D02*
X65742Y-27700D01*
G54D28*
X66750Y-24000D02*
X66850Y-24000D01*
X67248Y-26402D02*
X66883Y-26402D01*
X67400Y-26250D02*
X67248Y-26402D01*
X67400Y-24550D02*
X67400Y-26250D01*
X48238Y-29738D02*
X49000Y-30500D01*
X48238Y-29504D02*
X48238Y-29738D01*
X47830Y-30010D02*
X47830Y-29260D01*
X48000Y-30180D02*
X47830Y-30010D01*
X47830Y-29260D02*
X47960Y-29130D01*
X47960Y-29130D02*
X48238Y-29130D01*
X48000Y-30500D02*
X48000Y-30180D01*
X48466Y-28756D02*
X48820Y-29110D01*
X48820Y-29110D02*
X48820Y-29700D01*
X48820Y-29700D02*
X49080Y-29960D01*
X48238Y-28756D02*
X48466Y-28756D01*
X49080Y-29960D02*
X49460Y-29960D01*
X49460Y-29960D02*
X50000Y-30500D01*
X50584Y-29504D02*
X51000Y-29920D01*
X49262Y-29504D02*
X50584Y-29504D01*
X51000Y-29920D02*
X51000Y-30500D01*
X58900Y-24500D02*
X58900Y-23550D01*
X58900Y-23550D02*
X58800Y-23450D01*
X62982Y-25418D02*
X62550Y-25850D01*
X62550Y-25850D02*
X59100Y-25850D01*
X59100Y-25850D02*
X58900Y-25650D01*
X58900Y-25650D02*
X58900Y-24500D01*
X63617Y-25418D02*
X62982Y-25418D01*
X54600Y-23675D02*
X54298Y-23977D01*
X55875Y-23675D02*
X54600Y-23675D01*
X56200Y-24000D02*
X55875Y-23675D01*
X53705Y-24435D02*
X53502Y-24435D01*
X52990Y-23500D02*
X52430Y-23500D01*
X53430Y-23940D02*
X52990Y-23500D01*
X53430Y-24363D02*
X53430Y-23940D01*
X53502Y-24435D02*
X53430Y-24363D01*
X54150Y-24360D02*
X54020Y-24490D01*
X54020Y-24490D02*
X53760Y-24490D01*
X63617Y-25615D02*
X63035Y-25615D01*
X56650Y-24000D02*
X56525Y-24000D01*
X58700Y-25700D02*
X58700Y-24250D01*
X59050Y-26050D02*
X58700Y-25700D01*
X62600Y-26050D02*
X59050Y-26050D01*
X63035Y-25615D02*
X62600Y-26050D01*
X52430Y-23500D02*
X50750Y-23500D01*
X50750Y-23500D02*
X50500Y-23750D01*
X58475Y-23875D02*
X56775Y-23875D01*
X56775Y-23875D02*
X56650Y-24000D01*
X58700Y-24100D02*
X58475Y-23875D01*
X58700Y-24250D02*
X58700Y-24100D01*
X54298Y-23977D02*
X54150Y-24125D01*
X53760Y-24490D02*
X53705Y-24435D01*
X54150Y-24125D02*
X54150Y-24360D01*
X56525Y-24000D02*
X56200Y-24000D01*
X63088Y-25812D02*
X62650Y-26250D01*
X62650Y-26250D02*
X59000Y-26250D01*
X59000Y-26250D02*
X58500Y-25750D01*
X58500Y-25750D02*
X58500Y-24300D01*
X58500Y-24300D02*
X58375Y-24175D01*
X63617Y-25812D02*
X63088Y-25812D01*
X50900Y-23750D02*
X50900Y-23900D01*
X52925Y-23700D02*
X50950Y-23700D01*
X50950Y-23700D02*
X50900Y-23750D01*
X50250Y-24050D02*
X50100Y-23900D01*
X53635Y-24605D02*
X53345Y-24605D01*
X53260Y-24520D02*
X53260Y-24260D01*
X53345Y-24605D02*
X53260Y-24520D01*
X53260Y-24035D02*
X52925Y-23700D01*
X53260Y-24260D02*
X53260Y-24035D01*
X54320Y-24340D02*
X54320Y-24440D01*
X54090Y-24670D02*
X53700Y-24670D01*
X54320Y-24440D02*
X54090Y-24670D01*
X50750Y-24050D02*
X50250Y-24050D01*
X50900Y-23900D02*
X50750Y-24050D01*
X54450Y-24075D02*
X54675Y-23850D01*
X55800Y-23850D02*
X56000Y-24050D01*
X54675Y-23850D02*
X55800Y-23850D01*
X58978Y-26450D02*
X58300Y-25772D01*
X59450Y-26450D02*
X58978Y-26450D01*
X63192Y-26008D02*
X62750Y-26450D01*
X62750Y-26450D02*
X59450Y-26450D01*
X63617Y-26008D02*
X63192Y-26008D01*
X56200Y-24250D02*
X56000Y-24050D01*
X57800Y-24250D02*
X56200Y-24250D01*
X58300Y-24750D02*
X57800Y-24250D01*
X58300Y-25772D02*
X58300Y-24750D01*
X54450Y-24075D02*
X54448Y-24077D01*
X54320Y-24205D02*
X54320Y-24340D01*
X53700Y-24670D02*
X53635Y-24605D01*
X54448Y-24077D02*
X54320Y-24205D01*
X46780Y-29700D02*
X46000Y-30480D01*
X46000Y-30480D02*
X46000Y-30500D01*
X47210Y-29700D02*
X46780Y-29700D01*
X47000Y-30450D02*
X47570Y-29880D01*
X47570Y-29880D02*
X47570Y-29550D01*
X47570Y-29550D02*
X47460Y-29440D01*
X47000Y-30500D02*
X47000Y-30450D01*
X47460Y-29440D02*
X47210Y-29440D01*
X47470Y-29110D02*
X47400Y-29180D01*
X47400Y-29180D02*
X47210Y-29180D01*
X56380Y-28450D02*
X55700Y-28450D01*
X57390Y-27160D02*
X57650Y-26900D01*
X57390Y-27440D02*
X57390Y-27160D01*
X56380Y-28450D02*
X57390Y-27440D01*
X55700Y-28450D02*
X55500Y-28650D01*
X52913Y-29213D02*
X51183Y-29213D01*
X51183Y-29213D02*
X51090Y-29120D01*
X56200Y-29660D02*
X53360Y-29660D01*
X58650Y-29870D02*
X58500Y-30020D01*
X58650Y-29400D02*
X58650Y-29870D01*
X56200Y-29660D02*
X56560Y-30020D01*
X53360Y-29660D02*
X52913Y-29213D01*
X58500Y-30020D02*
X56560Y-30020D01*
X57150Y-26900D02*
X57150Y-27440D01*
X57150Y-27440D02*
X56340Y-28250D01*
X56340Y-28250D02*
X54900Y-28250D01*
X58150Y-28925D02*
X57725Y-28500D01*
X57725Y-28500D02*
X56650Y-28500D01*
X56650Y-28500D02*
X56350Y-28800D01*
X56350Y-28800D02*
X55850Y-28800D01*
X58150Y-29400D02*
X58150Y-28925D01*
X59295Y-28975D02*
X59625Y-28975D01*
X59290Y-28970D02*
X59295Y-28975D01*
X54000Y-27510D02*
X54000Y-27250D01*
X48300Y-26703D02*
X48347Y-26750D01*
X48300Y-26650D02*
X48300Y-26703D01*
X49450Y-23850D02*
X49300Y-24000D01*
X49300Y-24000D02*
X48850Y-24000D01*
X48850Y-24000D02*
X48500Y-23650D01*
X48500Y-23650D02*
X45950Y-23650D01*
X45950Y-23650D02*
X45800Y-23800D01*
X49450Y-23350D02*
X49450Y-23850D01*
X46150Y-23250D02*
X46000Y-23100D01*
X48550Y-23250D02*
X46150Y-23250D01*
X48650Y-23150D02*
X48550Y-23250D01*
X48900Y-23150D02*
X48650Y-23150D01*
X49200Y-23450D02*
X48900Y-23150D01*
X46000Y-23100D02*
X46000Y-22500D01*
X49200Y-23650D02*
X49200Y-23450D01*
X49150Y-23700D02*
X49200Y-23650D01*
X48150Y-23450D02*
X45400Y-23450D01*
X45400Y-23450D02*
X45000Y-23050D01*
X45000Y-23050D02*
X45000Y-22500D01*
X48800Y-23450D02*
X48150Y-23450D01*
X58000Y-23210D02*
X58000Y-22500D01*
X57720Y-23490D02*
X58000Y-23210D01*
X54380Y-23490D02*
X57720Y-23490D01*
X53990Y-23900D02*
X54380Y-23490D01*
X53980Y-23175D02*
X55325Y-23175D01*
X53980Y-23180D02*
X53980Y-23175D01*
X53800Y-23180D02*
X53980Y-23180D01*
X53610Y-23370D02*
X53800Y-23180D01*
X53610Y-23480D02*
X53610Y-23370D01*
X55325Y-23175D02*
X56000Y-22500D01*
X53610Y-24188D02*
X53700Y-24278D01*
X53700Y-24278D02*
X53700Y-24160D01*
X53610Y-23480D02*
X53610Y-24188D01*
X47650Y-25100D02*
X47750Y-25000D01*
X47650Y-25100D02*
X47550Y-25000D01*
X47650Y-25450D02*
X47650Y-25100D01*
X46250Y-25550D02*
X46250Y-25800D01*
X47600Y-25000D02*
X46800Y-25000D01*
X47750Y-25000D02*
X47600Y-25000D01*
X49500Y-24100D02*
X49750Y-23850D01*
X47550Y-25000D02*
X47600Y-25000D01*
X46800Y-25000D02*
X46250Y-25550D01*
X49500Y-24200D02*
X49500Y-24100D01*
X49500Y-24450D02*
X48950Y-25000D01*
X48950Y-25000D02*
X47750Y-25000D01*
X49500Y-24200D02*
X49500Y-24450D01*
X49750Y-23800D02*
X49750Y-23850D01*
X50050Y-23500D02*
X49750Y-23800D01*
X50100Y-23500D02*
X50050Y-23500D01*
X50150Y-23500D02*
X50100Y-23500D01*
X46410Y-29180D02*
X46240Y-29180D01*
X46240Y-29180D02*
X45000Y-30420D01*
X45000Y-30420D02*
X45000Y-30500D01*
X54000Y-30500D02*
X53660Y-30500D01*
X52720Y-29970D02*
X52630Y-30060D01*
X53130Y-29970D02*
X52720Y-29970D01*
X53660Y-30500D02*
X53130Y-29970D01*
X54140Y-29970D02*
X53720Y-29970D01*
X53720Y-29970D02*
X53620Y-30070D01*
X55000Y-30500D02*
X54670Y-30500D01*
X54670Y-30500D02*
X54140Y-29970D01*
X54620Y-30070D02*
X54770Y-29920D01*
X56000Y-30480D02*
X56000Y-30500D01*
X55440Y-29920D02*
X56000Y-30480D01*
X54770Y-29920D02*
X55440Y-29920D01*
X60050Y-28275D02*
X59063Y-27288D01*
X59063Y-27288D02*
X59063Y-26788D01*
X56975Y-26400D02*
X57175Y-26200D01*
X57175Y-26200D02*
X57375Y-26200D01*
X57375Y-26200D02*
X57600Y-25975D01*
X57600Y-25975D02*
X58250Y-25975D01*
X58250Y-25975D02*
X58700Y-26425D01*
X56875Y-26400D02*
X56975Y-26400D01*
X58700Y-26425D02*
X59063Y-26788D01*
X57920Y-24970D02*
X57920Y-25620D01*
X57360Y-24410D02*
X57920Y-24970D01*
X63080Y-23950D02*
X63090Y-23910D01*
X60410Y-23410D02*
X60000Y-23000D01*
X62590Y-23410D02*
X60410Y-23410D01*
X63090Y-23910D02*
X62590Y-23410D01*
X55810Y-24110D02*
X56110Y-24410D01*
X54890Y-24110D02*
X55810Y-24110D01*
X54610Y-24390D02*
X54890Y-24110D01*
X56110Y-24410D02*
X57360Y-24410D01*
X57920Y-25620D02*
X57930Y-25610D01*
X57930Y-25610D02*
X57930Y-25570D01*
X60000Y-23000D02*
X60000Y-22500D01*
X60100Y-23600D02*
X59000Y-22500D01*
X62310Y-23600D02*
X60100Y-23600D01*
X62960Y-24250D02*
X62310Y-23600D01*
X63358Y-24250D02*
X62960Y-24250D01*
X63608Y-24000D02*
X63358Y-24250D01*
X63670Y-24000D02*
X63608Y-24000D01*
X54520Y-24820D02*
X54530Y-24810D01*
X54530Y-24810D02*
X54680Y-24810D01*
X54680Y-24810D02*
X55140Y-24350D01*
X55140Y-24350D02*
X55710Y-24350D01*
X55710Y-24350D02*
X56000Y-24640D01*
X56000Y-24640D02*
X57060Y-24640D01*
X57060Y-24640D02*
X57490Y-25070D01*
X57490Y-25070D02*
X57490Y-25560D01*
X54900Y-22500D02*
X55000Y-22500D01*
X54425Y-22975D02*
X54900Y-22500D01*
X54050Y-22975D02*
X54425Y-22975D01*
X53625Y-22975D02*
X54050Y-22975D01*
X64955Y-26645D02*
X65050Y-26550D01*
X64955Y-26950D02*
X64955Y-28133D01*
X64955Y-26950D02*
X64955Y-26645D01*
X64955Y-26645D02*
X64955Y-28133D01*
X65050Y-26550D02*
X64955Y-26645D01*
X65152Y-27000D02*
X65152Y-26898D01*
X64950Y-28700D02*
X64550Y-28700D01*
X64550Y-28700D02*
X64450Y-28800D01*
X64450Y-28800D02*
X64450Y-29150D01*
X65152Y-28498D02*
X64950Y-28700D01*
X64550Y-28700D02*
X64450Y-28800D01*
X64950Y-28700D02*
X64550Y-28700D01*
X64450Y-28800D02*
X64450Y-29150D01*
X65152Y-28133D02*
X65152Y-27000D01*
X65350Y-26700D02*
X65350Y-26300D01*
X65152Y-26898D02*
X65350Y-26700D01*
X65152Y-28133D02*
X65152Y-28498D01*
X65152Y-28498D02*
X64950Y-28700D01*
G54D29*
X53435Y-25035D02*
X52815Y-25035D01*
X52640Y-24860D02*
X52640Y-24610D01*
X52815Y-25035D02*
X52640Y-24860D01*
X52640Y-24610D02*
X52650Y-24550D01*
X52650Y-24600D02*
X52650Y-24550D01*
G54D28*
X64168Y-24867D02*
X64168Y-26382D01*
X57400Y-28850D02*
X57150Y-29100D01*
X57150Y-29100D02*
X57150Y-29400D01*
X61425Y-29850D02*
X59500Y-29850D01*
G54D29*
X52640Y-24610D02*
X52650Y-24600D01*
G54D28*
X64168Y-26382D02*
X63952Y-26598D01*
X55150Y-28950D02*
X54950Y-28750D01*
X49250Y-26850D02*
X49300Y-26800D01*
G54D29*
X55300Y-25600D02*
X55300Y-25650D01*
X55300Y-25650D02*
X55250Y-25700D01*
X55300Y-25900D02*
X55300Y-26100D01*
G54D28*
X46545Y-29440D02*
X46690Y-29295D01*
X68000Y-26992D02*
X68142Y-26992D01*
G54D29*
X68000Y-30500D02*
X68000Y-29900D01*
X68650Y-26450D02*
X68250Y-26450D01*
X68250Y-26450D02*
X68150Y-26350D01*
G54D28*
X67450Y-29850D02*
X67500Y-29800D01*
X60850Y-29850D02*
X61425Y-29850D01*
X61425Y-29850D02*
X62225Y-29850D01*
X61425Y-29850D02*
X61425Y-29850D01*
X62225Y-29850D02*
X63475Y-29850D01*
X63475Y-29850D02*
X64450Y-29850D01*
X64450Y-29850D02*
X65325Y-29850D01*
X65325Y-29850D02*
X67450Y-29850D01*
G54D29*
X55150Y-25750D02*
X55300Y-25900D01*
X49800Y-28450D02*
X49800Y-27500D01*
G54D28*
X64168Y-24718D02*
X63950Y-24500D01*
G54D29*
X55300Y-25700D02*
X55300Y-25200D01*
X49800Y-26100D02*
X49800Y-25450D01*
X54750Y-28750D02*
X53950Y-28750D01*
X55250Y-25700D02*
X55300Y-25700D01*
X55150Y-25750D02*
X55300Y-25600D01*
X55300Y-26500D02*
X55300Y-26100D01*
X54000Y-25750D02*
X55150Y-25750D01*
G54D28*
X49262Y-29130D02*
X49850Y-29130D01*
X48350Y-25510D02*
X48350Y-25300D01*
X46410Y-29440D02*
X46545Y-29440D01*
G54D29*
X51000Y-25000D02*
X51050Y-25000D01*
G54D28*
X54700Y-27900D02*
X54550Y-28050D01*
X49700Y-27500D02*
X49800Y-27500D01*
X49850Y-29130D02*
X49870Y-29150D01*
X55300Y-27900D02*
X54700Y-27900D01*
X64168Y-24867D02*
X64168Y-24718D01*
G54D29*
X53950Y-28750D02*
X53700Y-28750D01*
G54D28*
X49300Y-26800D02*
X49800Y-26800D01*
X60625Y-29625D02*
X60850Y-29850D01*
X66450Y-27385D02*
X66883Y-27385D01*
X48110Y-25750D02*
X48350Y-25510D01*
X46690Y-26120D02*
X47060Y-25750D01*
X47060Y-25750D02*
X48110Y-25750D01*
X49500Y-25450D02*
X49300Y-25250D01*
G54D29*
X51675Y-28400D02*
X51675Y-28850D01*
X51675Y-28850D02*
X51675Y-28875D01*
X51675Y-28875D02*
X51550Y-29000D01*
X53700Y-28750D02*
X52950Y-28750D01*
X52950Y-28750D02*
X52700Y-29000D01*
X52700Y-29000D02*
X51775Y-29000D01*
X50900Y-28800D02*
X50800Y-28900D01*
X51275Y-28800D02*
X50900Y-28800D01*
X51475Y-29000D02*
X51275Y-28800D01*
X51775Y-29000D02*
X51550Y-29000D01*
X53650Y-25400D02*
X53650Y-25250D01*
X53650Y-25250D02*
X53435Y-25035D01*
X69150Y-29450D02*
X69150Y-26950D01*
X69150Y-26950D02*
X68800Y-26600D01*
G54D28*
X50000Y-29020D02*
X50000Y-28900D01*
G54D29*
X55300Y-27450D02*
X55300Y-27000D01*
X55300Y-26100D02*
X55300Y-25700D01*
X52650Y-24550D02*
X51840Y-24550D01*
G54D28*
X49300Y-25250D02*
X49250Y-25300D01*
X54550Y-28050D02*
X54550Y-28550D01*
X55350Y-29150D02*
X55150Y-28950D01*
X56750Y-29150D02*
X55350Y-29150D01*
X57000Y-29400D02*
X56750Y-29150D01*
X57150Y-29400D02*
X57000Y-29400D01*
G54D29*
X55300Y-27900D02*
X55300Y-27450D01*
X51550Y-29000D02*
X51475Y-29000D01*
X51675Y-28850D02*
X51825Y-29000D01*
X51775Y-28950D02*
X51775Y-29000D01*
X51825Y-29000D02*
X51775Y-28950D01*
X63475Y-29850D02*
X63475Y-28525D01*
X62700Y-28150D02*
X62700Y-27100D01*
X63475Y-28525D02*
X63100Y-28150D01*
X62700Y-27100D02*
X62700Y-26850D01*
G54D28*
X54550Y-28550D02*
X54750Y-28750D01*
G54D29*
X60600Y-24920D02*
X60600Y-25200D01*
X61080Y-24440D02*
X60600Y-24920D01*
X63520Y-24440D02*
X61080Y-24440D01*
X63580Y-24500D02*
X63520Y-24440D01*
X54000Y-25750D02*
X53650Y-25400D01*
G54D28*
X68000Y-26992D02*
X68042Y-26992D01*
X49870Y-29150D02*
X50000Y-29020D01*
X68142Y-26992D02*
X68150Y-27000D01*
G54D29*
X62700Y-26850D02*
X61650Y-26850D01*
X68800Y-26600D02*
X68650Y-26450D01*
X67500Y-23000D02*
X68000Y-22500D01*
X67500Y-23200D02*
X67500Y-23000D01*
X49800Y-25450D02*
X49800Y-24450D01*
X49800Y-26800D02*
X49800Y-26100D01*
G54D28*
X65938Y-24867D02*
X65938Y-24212D01*
X65938Y-24212D02*
X66150Y-24000D01*
X66883Y-26992D02*
X66458Y-26992D01*
X66435Y-27385D02*
X66450Y-27385D01*
X66350Y-27300D02*
X66435Y-27385D01*
X66350Y-27100D02*
X66350Y-27300D01*
X66458Y-26992D02*
X66350Y-27100D01*
X65550Y-25850D02*
X65650Y-25850D01*
X65938Y-25562D02*
X65938Y-24867D01*
G54D29*
X51050Y-25000D02*
X51500Y-24550D01*
G54D28*
X49250Y-25300D02*
X48350Y-25300D01*
G54D29*
X49800Y-27500D02*
X49800Y-26800D01*
X50000Y-28900D02*
X49950Y-28900D01*
X50800Y-28900D02*
X50000Y-28900D01*
X49950Y-28900D02*
X49800Y-28750D01*
G54D28*
X63952Y-26598D02*
X63617Y-26598D01*
G54D29*
X68200Y-29700D02*
X68900Y-29700D01*
G54D28*
X64758Y-27058D02*
X64758Y-26192D01*
G54D29*
X67900Y-29800D02*
X68000Y-29900D01*
X68000Y-29900D02*
X68200Y-29700D01*
X67500Y-29800D02*
X67900Y-29800D01*
X48500Y-27500D02*
X48400Y-27400D01*
X63950Y-24500D02*
X63580Y-24500D01*
X68900Y-29700D02*
X69150Y-29450D01*
G54D28*
X65100Y-25850D02*
X65550Y-25850D01*
X64758Y-26192D02*
X65100Y-25850D01*
X64758Y-28133D02*
X64758Y-27058D01*
X64758Y-27058D02*
X64750Y-27050D01*
X54950Y-28750D02*
X54750Y-28750D01*
X65650Y-25850D02*
X65938Y-25562D01*
X66883Y-26992D02*
X68000Y-26992D01*
X68042Y-26992D02*
X68100Y-27050D01*
X49800Y-25450D02*
X49500Y-25450D01*
X46690Y-29295D02*
X46690Y-26120D01*
G54D29*
X51840Y-24550D02*
X51500Y-24550D01*
X49800Y-27500D02*
X48500Y-27500D01*
X55300Y-27000D02*
X55300Y-26500D01*
X49800Y-28750D02*
X49800Y-28450D01*
G54D28*
X66135Y-28415D02*
X65750Y-28800D01*
X65750Y-28800D02*
X65750Y-28850D01*
X66135Y-28133D02*
X66135Y-28415D01*
X68500Y-24650D02*
X67900Y-24650D01*
X67500Y-24250D02*
X67500Y-23800D01*
X67900Y-24650D02*
X67500Y-24250D01*
X67450Y-26598D02*
X66883Y-26598D01*
X67450Y-26598D02*
X67500Y-26598D01*
X67502Y-26598D02*
X68500Y-25600D01*
X68500Y-25600D02*
X68500Y-24650D01*
X67500Y-26598D02*
X67502Y-26598D01*
X65545Y-28133D02*
X65545Y-28505D01*
X65050Y-29000D02*
X65050Y-29150D01*
X65545Y-28505D02*
X65050Y-29000D01*
X65348Y-27602D02*
X65500Y-27450D01*
X65348Y-28133D02*
X65348Y-27602D01*
X66650Y-28850D02*
X66650Y-28350D01*
X66650Y-28350D02*
X67400Y-27600D01*
X67238Y-27188D02*
X66883Y-27188D01*
X67400Y-27350D02*
X67238Y-27188D01*
X67400Y-27600D02*
X67400Y-27350D01*
X68000Y-26700D02*
X68400Y-26700D01*
X68400Y-26700D02*
X68500Y-26800D01*
X68500Y-26800D02*
X68500Y-27050D01*
X67650Y-29200D02*
X68500Y-28350D01*
X67500Y-29200D02*
X67650Y-29200D01*
X68500Y-27050D02*
X68500Y-28350D01*
X67705Y-26795D02*
X67800Y-26700D01*
X67800Y-26700D02*
X68000Y-26700D01*
X66883Y-26795D02*
X67705Y-26795D01*
G54D10*
G36*
X46460Y-29481D02*
X46360Y-29481D01*
X46360Y-29480D01*
X46360Y-29400D01*
X46360Y-29399D01*
X46460Y-29399D01*
X46460Y-29400D01*
X46460Y-29480D01*
X46460Y-29481D01*
X46460Y-29481D01*
G37*
G54D30*
X46460Y-29481D02*
X46360Y-29481D01*
X46360Y-29480D01*
X46360Y-29400D01*
X46360Y-29399D01*
X46460Y-29399D01*
X46460Y-29400D01*
X46460Y-29480D01*
X46460Y-29481D01*
G54D10*
G36*
X49077Y-28481D02*
X49037Y-28481D01*
X48986Y-28502D01*
X48947Y-28542D01*
X48926Y-28593D01*
X48926Y-28648D01*
X48926Y-28782D01*
X48924Y-28783D01*
X48854Y-28853D01*
X48845Y-28874D01*
X48597Y-28625D01*
X48574Y-28609D01*
X48574Y-28592D01*
X48553Y-28541D01*
X48513Y-28502D01*
X48462Y-28481D01*
X48407Y-28481D01*
X48013Y-28481D01*
X47962Y-28502D01*
X47923Y-28542D01*
X47902Y-28593D01*
X47902Y-28648D01*
X47902Y-28920D01*
X47911Y-28943D01*
X47906Y-28955D01*
X47889Y-28959D01*
X47829Y-28999D01*
X47827Y-29001D01*
X47766Y-29062D01*
X47766Y-29051D01*
X47721Y-28942D01*
X47638Y-28859D01*
X47529Y-28814D01*
X47411Y-28814D01*
X47302Y-28859D01*
X47219Y-28942D01*
X47211Y-28961D01*
X47052Y-28961D01*
X47045Y-28963D01*
X47045Y-27905D01*
X48883Y-27905D01*
X49077Y-28099D01*
X49077Y-28481D01*
X49077Y-28481D01*
G37*
G54D30*
X49077Y-28481D02*
X49037Y-28481D01*
X48986Y-28502D01*
X48947Y-28542D01*
X48926Y-28593D01*
X48926Y-28648D01*
X48926Y-28782D01*
X48924Y-28783D01*
X48854Y-28853D01*
X48845Y-28874D01*
X48597Y-28625D01*
X48574Y-28609D01*
X48574Y-28592D01*
X48553Y-28541D01*
X48513Y-28502D01*
X48462Y-28481D01*
X48407Y-28481D01*
X48013Y-28481D01*
X47962Y-28502D01*
X47923Y-28542D01*
X47902Y-28593D01*
X47902Y-28648D01*
X47902Y-28920D01*
X47911Y-28943D01*
X47906Y-28955D01*
X47889Y-28959D01*
X47829Y-28999D01*
X47827Y-29001D01*
X47766Y-29062D01*
X47766Y-29051D01*
X47721Y-28942D01*
X47638Y-28859D01*
X47529Y-28814D01*
X47411Y-28814D01*
X47302Y-28859D01*
X47219Y-28942D01*
X47211Y-28961D01*
X47052Y-28961D01*
X47045Y-28963D01*
X47045Y-27905D01*
X48883Y-27905D01*
X49077Y-28099D01*
X49077Y-28481D01*
G54D10*
G36*
X51790Y-26611D02*
X51697Y-26611D01*
X51646Y-26632D01*
X51607Y-26672D01*
X51586Y-26723D01*
X51586Y-26778D01*
X51586Y-27040D01*
X51200Y-27040D01*
X51146Y-27050D01*
X51146Y-26941D01*
X51101Y-26832D01*
X51018Y-26749D01*
X50909Y-26704D01*
X50815Y-26704D01*
X50781Y-26669D01*
X50721Y-26629D01*
X50664Y-26617D01*
X50664Y-26547D01*
X50643Y-26496D01*
X50603Y-26457D01*
X50586Y-26450D01*
X50604Y-26443D01*
X50643Y-26403D01*
X50664Y-26352D01*
X50664Y-26333D01*
X50682Y-26351D01*
X50791Y-26396D01*
X50909Y-26396D01*
X51018Y-26351D01*
X51059Y-26310D01*
X51599Y-26310D01*
X51607Y-26329D01*
X51647Y-26368D01*
X51698Y-26389D01*
X51753Y-26389D01*
X51790Y-26389D01*
X51790Y-26611D01*
X51790Y-26611D01*
G37*
G54D30*
X51790Y-26611D02*
X51697Y-26611D01*
X51646Y-26632D01*
X51607Y-26672D01*
X51586Y-26723D01*
X51586Y-26778D01*
X51586Y-27040D01*
X51200Y-27040D01*
X51146Y-27050D01*
X51146Y-26941D01*
X51101Y-26832D01*
X51018Y-26749D01*
X50909Y-26704D01*
X50815Y-26704D01*
X50781Y-26669D01*
X50721Y-26629D01*
X50664Y-26617D01*
X50664Y-26547D01*
X50643Y-26496D01*
X50603Y-26457D01*
X50586Y-26450D01*
X50604Y-26443D01*
X50643Y-26403D01*
X50664Y-26352D01*
X50664Y-26333D01*
X50682Y-26351D01*
X50791Y-26396D01*
X50909Y-26396D01*
X51018Y-26351D01*
X51059Y-26310D01*
X51599Y-26310D01*
X51607Y-26329D01*
X51647Y-26368D01*
X51698Y-26389D01*
X51753Y-26389D01*
X51790Y-26389D01*
X51790Y-26611D01*
G54D10*
G36*
X57965Y-29063D02*
X57932Y-29097D01*
X57911Y-29148D01*
X57911Y-29203D01*
X57911Y-29635D01*
X57889Y-29635D01*
X57889Y-29597D01*
X57889Y-29147D01*
X57868Y-29096D01*
X57828Y-29057D01*
X57777Y-29036D01*
X57722Y-29036D01*
X57522Y-29036D01*
X57471Y-29057D01*
X57470Y-29057D01*
X57461Y-29034D01*
X57391Y-28964D01*
X57299Y-28926D01*
X57262Y-28925D01*
X57200Y-28987D01*
X57200Y-29300D01*
X57200Y-29350D01*
X57200Y-29450D01*
X57100Y-29450D01*
X57100Y-29350D01*
X57100Y-28987D01*
X57038Y-28925D01*
X57001Y-28926D01*
X56909Y-28964D01*
X56839Y-29034D01*
X56801Y-29125D01*
X56801Y-29224D01*
X56800Y-29288D01*
X56862Y-29350D01*
X57100Y-29350D01*
X57100Y-29450D01*
X57050Y-29450D01*
X56862Y-29450D01*
X56800Y-29512D01*
X56801Y-29576D01*
X56801Y-29635D01*
X56746Y-29635D01*
X56401Y-29289D01*
X56341Y-29249D01*
X56270Y-29235D01*
X55247Y-29235D01*
X55231Y-29219D01*
X55171Y-29179D01*
X55100Y-29165D01*
X55093Y-29146D01*
X55056Y-29110D01*
X55116Y-29086D01*
X55186Y-29016D01*
X55224Y-28924D01*
X55225Y-28862D01*
X55213Y-28850D01*
X55225Y-28850D01*
X55225Y-28759D01*
X55249Y-28818D01*
X55332Y-28901D01*
X55441Y-28946D01*
X55559Y-28946D01*
X55585Y-28935D01*
X55599Y-28968D01*
X55682Y-29051D01*
X55791Y-29096D01*
X55909Y-29096D01*
X56018Y-29051D01*
X56084Y-28985D01*
X56350Y-28985D01*
X56421Y-28971D01*
X56481Y-28931D01*
X56727Y-28685D01*
X57648Y-28685D01*
X57965Y-29002D01*
X57965Y-29063D01*
X57965Y-29063D01*
G37*
G54D30*
X57965Y-29063D02*
X57932Y-29097D01*
X57911Y-29148D01*
X57911Y-29203D01*
X57911Y-29635D01*
X57889Y-29635D01*
X57889Y-29597D01*
X57889Y-29147D01*
X57868Y-29096D01*
X57828Y-29057D01*
X57777Y-29036D01*
X57722Y-29036D01*
X57522Y-29036D01*
X57471Y-29057D01*
X57470Y-29057D01*
X57461Y-29034D01*
X57391Y-28964D01*
X57299Y-28926D01*
X57262Y-28925D01*
X57200Y-28987D01*
X57200Y-29300D01*
X57200Y-29350D01*
X57200Y-29450D01*
X57100Y-29450D01*
X57100Y-29350D01*
X57100Y-28987D01*
X57038Y-28925D01*
X57001Y-28926D01*
X56909Y-28964D01*
X56839Y-29034D01*
X56801Y-29125D01*
X56801Y-29224D01*
X56800Y-29288D01*
X56862Y-29350D01*
X57100Y-29350D01*
X57100Y-29450D01*
X57050Y-29450D01*
X56862Y-29450D01*
X56800Y-29512D01*
X56801Y-29576D01*
X56801Y-29635D01*
X56746Y-29635D01*
X56401Y-29289D01*
X56341Y-29249D01*
X56270Y-29235D01*
X55247Y-29235D01*
X55231Y-29219D01*
X55171Y-29179D01*
X55100Y-29165D01*
X55093Y-29146D01*
X55056Y-29110D01*
X55116Y-29086D01*
X55186Y-29016D01*
X55224Y-28924D01*
X55225Y-28862D01*
X55213Y-28850D01*
X55225Y-28850D01*
X55225Y-28759D01*
X55249Y-28818D01*
X55332Y-28901D01*
X55441Y-28946D01*
X55559Y-28946D01*
X55585Y-28935D01*
X55599Y-28968D01*
X55682Y-29051D01*
X55791Y-29096D01*
X55909Y-29096D01*
X56018Y-29051D01*
X56084Y-28985D01*
X56350Y-28985D01*
X56421Y-28971D01*
X56481Y-28931D01*
X56727Y-28685D01*
X57648Y-28685D01*
X57965Y-29002D01*
X57965Y-29063D01*
G54D10*
G36*
X64155Y-27148D02*
X64128Y-27175D01*
X63992Y-27175D01*
X63992Y-27101D01*
X63987Y-27089D01*
X63992Y-27078D01*
X63992Y-27023D01*
X63992Y-26905D01*
X63987Y-26893D01*
X63992Y-26881D01*
X63992Y-26868D01*
X63994Y-26868D01*
X64064Y-26798D01*
X64102Y-26707D01*
X64102Y-26688D01*
X64041Y-26627D01*
X63940Y-26627D01*
X63931Y-26618D01*
X63884Y-26598D01*
X63932Y-26579D01*
X63941Y-26569D01*
X64041Y-26569D01*
X64102Y-26508D01*
X64102Y-26489D01*
X64064Y-26398D01*
X63994Y-26328D01*
X63992Y-26327D01*
X63992Y-26315D01*
X63987Y-26303D01*
X63992Y-26291D01*
X63992Y-26236D01*
X63992Y-26118D01*
X63987Y-26106D01*
X63992Y-26094D01*
X63992Y-26039D01*
X63992Y-25921D01*
X63987Y-25909D01*
X63992Y-25898D01*
X63992Y-25843D01*
X63992Y-25725D01*
X63987Y-25713D01*
X63992Y-25701D01*
X63992Y-25646D01*
X63992Y-25528D01*
X63987Y-25516D01*
X63992Y-25504D01*
X63992Y-25449D01*
X63992Y-25331D01*
X63988Y-25322D01*
X64060Y-25352D01*
X64068Y-25352D01*
X64068Y-25353D01*
X64077Y-25353D01*
X64155Y-25353D01*
X64155Y-25400D01*
X64155Y-25585D01*
X64155Y-25638D01*
X64154Y-25641D01*
X64154Y-25759D01*
X64155Y-25761D01*
X64155Y-27148D01*
X64155Y-27148D01*
G37*
G54D30*
X64155Y-27148D02*
X64128Y-27175D01*
X63992Y-27175D01*
X63992Y-27101D01*
X63987Y-27089D01*
X63992Y-27078D01*
X63992Y-27023D01*
X63992Y-26905D01*
X63987Y-26893D01*
X63992Y-26881D01*
X63992Y-26868D01*
X63994Y-26868D01*
X64064Y-26798D01*
X64102Y-26707D01*
X64102Y-26688D01*
X64041Y-26627D01*
X63940Y-26627D01*
X63931Y-26618D01*
X63884Y-26598D01*
X63932Y-26579D01*
X63941Y-26569D01*
X64041Y-26569D01*
X64102Y-26508D01*
X64102Y-26489D01*
X64064Y-26398D01*
X63994Y-26328D01*
X63992Y-26327D01*
X63992Y-26315D01*
X63987Y-26303D01*
X63992Y-26291D01*
X63992Y-26236D01*
X63992Y-26118D01*
X63987Y-26106D01*
X63992Y-26094D01*
X63992Y-26039D01*
X63992Y-25921D01*
X63987Y-25909D01*
X63992Y-25898D01*
X63992Y-25843D01*
X63992Y-25725D01*
X63987Y-25713D01*
X63992Y-25701D01*
X63992Y-25646D01*
X63992Y-25528D01*
X63987Y-25516D01*
X63992Y-25504D01*
X63992Y-25449D01*
X63992Y-25331D01*
X63988Y-25322D01*
X64060Y-25352D01*
X64068Y-25352D01*
X64068Y-25353D01*
X64077Y-25353D01*
X64155Y-25353D01*
X64155Y-25400D01*
X64155Y-25585D01*
X64155Y-25638D01*
X64154Y-25641D01*
X64154Y-25759D01*
X64155Y-25761D01*
X64155Y-27148D01*
G54D10*
G36*
X66200Y-24050D02*
X66100Y-24050D01*
X66100Y-23950D01*
X66200Y-23950D01*
X66200Y-24050D01*
X66200Y-24050D01*
G37*
G54D30*
X66200Y-24050D02*
X66100Y-24050D01*
X66100Y-23950D01*
X66200Y-23950D01*
X66200Y-24050D01*
G54D10*
G36*
X66958Y-27780D02*
X66530Y-28208D01*
X66530Y-27869D01*
X66509Y-27818D01*
X66469Y-27779D01*
X66418Y-27758D01*
X66363Y-27758D01*
X66245Y-27758D01*
X66233Y-27762D01*
X66221Y-27758D01*
X66166Y-27758D01*
X66148Y-27758D01*
X66148Y-27462D01*
X66148Y-27238D01*
X66143Y-27215D01*
X66146Y-27209D01*
X66146Y-27091D01*
X66101Y-26982D01*
X66060Y-26941D01*
X66060Y-26786D01*
X66234Y-26612D01*
X66508Y-26612D01*
X66508Y-26685D01*
X66512Y-26697D01*
X66508Y-26709D01*
X66508Y-26721D01*
X66506Y-26722D01*
X66436Y-26792D01*
X66398Y-26883D01*
X66398Y-26902D01*
X66459Y-26963D01*
X66559Y-26963D01*
X66569Y-26972D01*
X66615Y-26991D01*
X66568Y-27011D01*
X66558Y-27021D01*
X66459Y-27021D01*
X66398Y-27082D01*
X66398Y-27101D01*
X66434Y-27188D01*
X66398Y-27276D01*
X66398Y-27295D01*
X66459Y-27356D01*
X66559Y-27356D01*
X66569Y-27365D01*
X66617Y-27384D01*
X66568Y-27405D01*
X66559Y-27414D01*
X66459Y-27414D01*
X66398Y-27475D01*
X66398Y-27494D01*
X66436Y-27585D01*
X66506Y-27655D01*
X66508Y-27655D01*
X66508Y-27669D01*
X66529Y-27720D01*
X66569Y-27759D01*
X66620Y-27780D01*
X66675Y-27780D01*
X66958Y-27780D01*
X66958Y-27780D01*
G37*
G54D30*
X66958Y-27780D02*
X66530Y-28208D01*
X66530Y-27869D01*
X66509Y-27818D01*
X66469Y-27779D01*
X66418Y-27758D01*
X66363Y-27758D01*
X66245Y-27758D01*
X66233Y-27762D01*
X66221Y-27758D01*
X66166Y-27758D01*
X66148Y-27758D01*
X66148Y-27462D01*
X66148Y-27238D01*
X66143Y-27215D01*
X66146Y-27209D01*
X66146Y-27091D01*
X66101Y-26982D01*
X66060Y-26941D01*
X66060Y-26786D01*
X66234Y-26612D01*
X66508Y-26612D01*
X66508Y-26685D01*
X66512Y-26697D01*
X66508Y-26709D01*
X66508Y-26721D01*
X66506Y-26722D01*
X66436Y-26792D01*
X66398Y-26883D01*
X66398Y-26902D01*
X66459Y-26963D01*
X66559Y-26963D01*
X66569Y-26972D01*
X66615Y-26991D01*
X66568Y-27011D01*
X66558Y-27021D01*
X66459Y-27021D01*
X66398Y-27082D01*
X66398Y-27101D01*
X66434Y-27188D01*
X66398Y-27276D01*
X66398Y-27295D01*
X66459Y-27356D01*
X66559Y-27356D01*
X66569Y-27365D01*
X66617Y-27384D01*
X66568Y-27405D01*
X66559Y-27414D01*
X66459Y-27414D01*
X66398Y-27475D01*
X66398Y-27494D01*
X66436Y-27585D01*
X66506Y-27655D01*
X66508Y-27655D01*
X66508Y-27669D01*
X66529Y-27720D01*
X66569Y-27759D01*
X66620Y-27780D01*
X66675Y-27780D01*
X66958Y-27780D01*
G54D10*
G36*
X67215Y-25258D02*
X67197Y-25241D01*
X67146Y-25220D01*
X67091Y-25220D01*
X66619Y-25220D01*
X66568Y-25241D01*
X66529Y-25281D01*
X66508Y-25332D01*
X66508Y-25387D01*
X66508Y-25505D01*
X66512Y-25517D01*
X66508Y-25529D01*
X66508Y-25584D01*
X66508Y-25702D01*
X66512Y-25714D01*
X66508Y-25726D01*
X66508Y-25781D01*
X66508Y-25899D01*
X66512Y-25910D01*
X66508Y-25922D01*
X66508Y-25977D01*
X66508Y-26095D01*
X66512Y-26107D01*
X66508Y-26119D01*
X66508Y-26174D01*
X66508Y-26192D01*
X66148Y-26192D01*
X66068Y-26208D01*
X66045Y-26223D01*
X65999Y-26254D01*
X65702Y-26552D01*
X65656Y-26619D01*
X65653Y-26632D01*
X65640Y-26700D01*
X65640Y-26941D01*
X65599Y-26982D01*
X65554Y-27091D01*
X65554Y-27154D01*
X65441Y-27154D01*
X65337Y-27196D01*
X65337Y-27000D01*
X65337Y-26975D01*
X65481Y-26831D01*
X65521Y-26771D01*
X65535Y-26700D01*
X65535Y-26534D01*
X65601Y-26468D01*
X65646Y-26359D01*
X65646Y-26241D01*
X65601Y-26132D01*
X65518Y-26049D01*
X65409Y-26004D01*
X65291Y-26004D01*
X65182Y-26049D01*
X65099Y-26132D01*
X65054Y-26241D01*
X65054Y-26254D01*
X64991Y-26254D01*
X64882Y-26299D01*
X64799Y-26382D01*
X64754Y-26491D01*
X64754Y-26609D01*
X64770Y-26647D01*
X64770Y-26950D01*
X64770Y-27452D01*
X64756Y-27382D01*
X64755Y-27381D01*
X64740Y-27359D01*
X64710Y-27314D01*
X64710Y-27313D01*
X64634Y-27238D01*
X64633Y-27237D01*
X64633Y-27236D01*
X64575Y-27178D01*
X64575Y-25968D01*
X64618Y-25951D01*
X64701Y-25868D01*
X64746Y-25759D01*
X64746Y-25641D01*
X64733Y-25610D01*
X65200Y-25610D01*
X65200Y-25609D01*
X65267Y-25596D01*
X65280Y-25594D01*
X65281Y-25594D01*
X65348Y-25548D01*
X65496Y-25401D01*
X65496Y-25400D01*
X65542Y-25333D01*
X65542Y-25332D01*
X65544Y-25319D01*
X65557Y-25252D01*
X65558Y-25252D01*
X65558Y-25242D01*
X65632Y-25242D01*
X65644Y-25237D01*
X65656Y-25242D01*
X65667Y-25242D01*
X65668Y-25244D01*
X65738Y-25314D01*
X65830Y-25352D01*
X65847Y-25353D01*
X65909Y-25291D01*
X65909Y-25191D01*
X65919Y-25181D01*
X65938Y-25134D01*
X65958Y-25182D01*
X65967Y-25190D01*
X65967Y-25291D01*
X66029Y-25353D01*
X66046Y-25352D01*
X66138Y-25314D01*
X66208Y-25244D01*
X66208Y-25242D01*
X66222Y-25242D01*
X66234Y-25237D01*
X66246Y-25242D01*
X66301Y-25242D01*
X66419Y-25242D01*
X66470Y-25221D01*
X66509Y-25181D01*
X66530Y-25130D01*
X66530Y-25075D01*
X66530Y-24603D01*
X66509Y-24552D01*
X66469Y-24513D01*
X66418Y-24492D01*
X66363Y-24492D01*
X66245Y-24492D01*
X66233Y-24496D01*
X66221Y-24492D01*
X66208Y-24492D01*
X66208Y-24490D01*
X66193Y-24475D01*
X66250Y-24475D01*
X66250Y-24463D01*
X66262Y-24475D01*
X66324Y-24474D01*
X66416Y-24436D01*
X66486Y-24366D01*
X66510Y-24307D01*
X66547Y-24343D01*
X66598Y-24364D01*
X66653Y-24364D01*
X66903Y-24364D01*
X66937Y-24349D01*
X67215Y-24626D01*
X67215Y-25258D01*
X67215Y-25258D01*
G37*
G54D30*
X67215Y-25258D02*
X67197Y-25241D01*
X67146Y-25220D01*
X67091Y-25220D01*
X66619Y-25220D01*
X66568Y-25241D01*
X66529Y-25281D01*
X66508Y-25332D01*
X66508Y-25387D01*
X66508Y-25505D01*
X66512Y-25517D01*
X66508Y-25529D01*
X66508Y-25584D01*
X66508Y-25702D01*
X66512Y-25714D01*
X66508Y-25726D01*
X66508Y-25781D01*
X66508Y-25899D01*
X66512Y-25910D01*
X66508Y-25922D01*
X66508Y-25977D01*
X66508Y-26095D01*
X66512Y-26107D01*
X66508Y-26119D01*
X66508Y-26174D01*
X66508Y-26192D01*
X66148Y-26192D01*
X66068Y-26208D01*
X66045Y-26223D01*
X65999Y-26254D01*
X65702Y-26552D01*
X65656Y-26619D01*
X65653Y-26632D01*
X65640Y-26700D01*
X65640Y-26941D01*
X65599Y-26982D01*
X65554Y-27091D01*
X65554Y-27154D01*
X65441Y-27154D01*
X65337Y-27196D01*
X65337Y-27000D01*
X65337Y-26975D01*
X65481Y-26831D01*
X65521Y-26771D01*
X65535Y-26700D01*
X65535Y-26534D01*
X65601Y-26468D01*
X65646Y-26359D01*
X65646Y-26241D01*
X65601Y-26132D01*
X65518Y-26049D01*
X65409Y-26004D01*
X65291Y-26004D01*
X65182Y-26049D01*
X65099Y-26132D01*
X65054Y-26241D01*
X65054Y-26254D01*
X64991Y-26254D01*
X64882Y-26299D01*
X64799Y-26382D01*
X64754Y-26491D01*
X64754Y-26609D01*
X64770Y-26647D01*
X64770Y-26950D01*
X64770Y-27452D01*
X64756Y-27382D01*
X64755Y-27381D01*
X64740Y-27359D01*
X64710Y-27314D01*
X64710Y-27313D01*
X64634Y-27238D01*
X64633Y-27237D01*
X64633Y-27236D01*
X64575Y-27178D01*
X64575Y-25968D01*
X64618Y-25951D01*
X64701Y-25868D01*
X64746Y-25759D01*
X64746Y-25641D01*
X64733Y-25610D01*
X65200Y-25610D01*
X65200Y-25609D01*
X65267Y-25596D01*
X65280Y-25594D01*
X65281Y-25594D01*
X65348Y-25548D01*
X65496Y-25401D01*
X65496Y-25400D01*
X65542Y-25333D01*
X65542Y-25332D01*
X65544Y-25319D01*
X65557Y-25252D01*
X65558Y-25252D01*
X65558Y-25242D01*
X65632Y-25242D01*
X65644Y-25237D01*
X65656Y-25242D01*
X65667Y-25242D01*
X65668Y-25244D01*
X65738Y-25314D01*
X65830Y-25352D01*
X65847Y-25353D01*
X65909Y-25291D01*
X65909Y-25191D01*
X65919Y-25181D01*
X65938Y-25134D01*
X65958Y-25182D01*
X65967Y-25190D01*
X65967Y-25291D01*
X66029Y-25353D01*
X66046Y-25352D01*
X66138Y-25314D01*
X66208Y-25244D01*
X66208Y-25242D01*
X66222Y-25242D01*
X66234Y-25237D01*
X66246Y-25242D01*
X66301Y-25242D01*
X66419Y-25242D01*
X66470Y-25221D01*
X66509Y-25181D01*
X66530Y-25130D01*
X66530Y-25075D01*
X66530Y-24603D01*
X66509Y-24552D01*
X66469Y-24513D01*
X66418Y-24492D01*
X66363Y-24492D01*
X66245Y-24492D01*
X66233Y-24496D01*
X66221Y-24492D01*
X66208Y-24492D01*
X66208Y-24490D01*
X66193Y-24475D01*
X66250Y-24475D01*
X66250Y-24463D01*
X66262Y-24475D01*
X66324Y-24474D01*
X66416Y-24436D01*
X66486Y-24366D01*
X66510Y-24307D01*
X66547Y-24343D01*
X66598Y-24364D01*
X66653Y-24364D01*
X66903Y-24364D01*
X66937Y-24349D01*
X67215Y-24626D01*
X67215Y-25258D01*
G54D10*
G36*
X68315Y-27129D02*
X68079Y-27129D01*
X68041Y-27144D01*
X67952Y-27055D01*
X67817Y-26999D01*
X67671Y-26999D01*
X67536Y-27055D01*
X67451Y-27139D01*
X67369Y-27057D01*
X67368Y-27056D01*
X67309Y-27017D01*
X67238Y-27003D01*
X67177Y-27003D01*
X67150Y-26991D01*
X67178Y-26980D01*
X67368Y-26980D01*
X67705Y-26980D01*
X67776Y-26966D01*
X67836Y-26926D01*
X67877Y-26885D01*
X68000Y-26885D01*
X68315Y-26885D01*
X68315Y-27050D01*
X68315Y-27129D01*
X68315Y-27129D01*
G37*
G54D30*
X68315Y-27129D02*
X68079Y-27129D01*
X68041Y-27144D01*
X67952Y-27055D01*
X67817Y-26999D01*
X67671Y-26999D01*
X67536Y-27055D01*
X67451Y-27139D01*
X67369Y-27057D01*
X67368Y-27056D01*
X67309Y-27017D01*
X67238Y-27003D01*
X67177Y-27003D01*
X67150Y-26991D01*
X67178Y-26980D01*
X67368Y-26980D01*
X67705Y-26980D01*
X67776Y-26966D01*
X67836Y-26926D01*
X67877Y-26885D01*
X68000Y-26885D01*
X68315Y-26885D01*
X68315Y-27050D01*
X68315Y-27129D01*
G54D10*
G36*
X69535Y-31035D02*
X69496Y-31035D01*
X69496Y-26109D01*
X69496Y-25991D01*
X69451Y-25882D01*
X69410Y-25841D01*
X69410Y-23500D01*
X69410Y-23250D01*
X69410Y-23100D01*
X69410Y-22886D01*
X69418Y-22878D01*
X69439Y-22827D01*
X69439Y-22772D01*
X69439Y-22172D01*
X69418Y-22121D01*
X69378Y-22082D01*
X69327Y-22061D01*
X69272Y-22061D01*
X68672Y-22061D01*
X68621Y-22082D01*
X68582Y-22122D01*
X68561Y-22173D01*
X68561Y-22228D01*
X68561Y-22828D01*
X68582Y-22879D01*
X68622Y-22918D01*
X68673Y-22939D01*
X68728Y-22939D01*
X68990Y-22939D01*
X68990Y-23013D01*
X68913Y-23090D01*
X68543Y-23090D01*
X68543Y-22579D01*
X68532Y-22366D01*
X68472Y-22219D01*
X68378Y-22192D01*
X68071Y-22500D01*
X68378Y-22808D01*
X68472Y-22781D01*
X68543Y-22579D01*
X68543Y-23090D01*
X68050Y-23090D01*
X67975Y-23105D01*
X67975Y-23100D01*
X67962Y-23100D01*
X67975Y-23088D01*
X67974Y-23040D01*
X68134Y-23032D01*
X68281Y-22972D01*
X68308Y-22878D01*
X68035Y-22606D01*
X68000Y-22571D01*
X67929Y-22500D01*
X67894Y-22465D01*
X67622Y-22192D01*
X67528Y-22219D01*
X67457Y-22421D01*
X67468Y-22634D01*
X67528Y-22781D01*
X67566Y-22792D01*
X67534Y-22825D01*
X67573Y-22864D01*
X67550Y-22887D01*
X67550Y-23100D01*
X67550Y-23150D01*
X67550Y-23250D01*
X67450Y-23250D01*
X67450Y-23150D01*
X67450Y-22887D01*
X67388Y-22825D01*
X67324Y-22826D01*
X67294Y-22826D01*
X67372Y-22749D01*
X67439Y-22588D01*
X67439Y-22413D01*
X67372Y-22252D01*
X67249Y-22128D01*
X67088Y-22061D01*
X66913Y-22061D01*
X66752Y-22128D01*
X66628Y-22251D01*
X66561Y-22412D01*
X66561Y-22587D01*
X66628Y-22748D01*
X66751Y-22872D01*
X66912Y-22939D01*
X67061Y-22939D01*
X67026Y-23026D01*
X67025Y-23088D01*
X67087Y-23150D01*
X67450Y-23150D01*
X67450Y-23250D01*
X67400Y-23250D01*
X67087Y-23250D01*
X67047Y-23290D01*
X66439Y-23290D01*
X66439Y-22588D01*
X66439Y-22413D01*
X66372Y-22252D01*
X66249Y-22128D01*
X66088Y-22061D01*
X65913Y-22061D01*
X65752Y-22128D01*
X65628Y-22251D01*
X65561Y-22412D01*
X65561Y-22587D01*
X65628Y-22748D01*
X65751Y-22872D01*
X65912Y-22939D01*
X66087Y-22939D01*
X66248Y-22872D01*
X66372Y-22749D01*
X66439Y-22588D01*
X66439Y-23290D01*
X66100Y-23290D01*
X66020Y-23306D01*
X65997Y-23321D01*
X65951Y-23352D01*
X65439Y-23864D01*
X65439Y-22588D01*
X65439Y-22413D01*
X65372Y-22252D01*
X65249Y-22128D01*
X65088Y-22061D01*
X64913Y-22061D01*
X64752Y-22128D01*
X64628Y-22251D01*
X64561Y-22412D01*
X64561Y-22587D01*
X64628Y-22748D01*
X64751Y-22872D01*
X64912Y-22939D01*
X65087Y-22939D01*
X65248Y-22872D01*
X65372Y-22749D01*
X65439Y-22588D01*
X65439Y-23864D01*
X65200Y-24104D01*
X65154Y-24171D01*
X65151Y-24184D01*
X65138Y-24252D01*
X65138Y-24492D01*
X65065Y-24492D01*
X65053Y-24496D01*
X65041Y-24492D01*
X64986Y-24492D01*
X64868Y-24492D01*
X64856Y-24496D01*
X64844Y-24492D01*
X64789Y-24492D01*
X64671Y-24492D01*
X64659Y-24496D01*
X64648Y-24492D01*
X64593Y-24492D01*
X64475Y-24492D01*
X64463Y-24496D01*
X64451Y-24492D01*
X64439Y-24492D01*
X64439Y-22588D01*
X64439Y-22413D01*
X64372Y-22252D01*
X64249Y-22128D01*
X64088Y-22061D01*
X63913Y-22061D01*
X63752Y-22128D01*
X63628Y-22251D01*
X63561Y-22412D01*
X63561Y-22587D01*
X63628Y-22748D01*
X63751Y-22872D01*
X63912Y-22939D01*
X64087Y-22939D01*
X64248Y-22872D01*
X64372Y-22749D01*
X64439Y-22588D01*
X64439Y-24492D01*
X64438Y-24492D01*
X64438Y-24490D01*
X64368Y-24420D01*
X64276Y-24382D01*
X64259Y-24381D01*
X64197Y-24443D01*
X64197Y-24543D01*
X64188Y-24553D01*
X64167Y-24604D01*
X64167Y-24659D01*
X64167Y-24807D01*
X64155Y-24867D01*
X64155Y-24917D01*
X64139Y-24917D01*
X64139Y-24817D01*
X64139Y-24443D01*
X64077Y-24381D01*
X64060Y-24382D01*
X63968Y-24420D01*
X63966Y-24422D01*
X63966Y-24059D01*
X63966Y-23941D01*
X63921Y-23832D01*
X63838Y-23749D01*
X63729Y-23704D01*
X63611Y-23704D01*
X63502Y-23749D01*
X63439Y-23812D01*
X63439Y-22588D01*
X63439Y-22413D01*
X63372Y-22252D01*
X63249Y-22128D01*
X63088Y-22061D01*
X62913Y-22061D01*
X62752Y-22128D01*
X62628Y-22251D01*
X62561Y-22412D01*
X62561Y-22587D01*
X62628Y-22748D01*
X62751Y-22872D01*
X62912Y-22939D01*
X63087Y-22939D01*
X63248Y-22872D01*
X63372Y-22749D01*
X63439Y-22588D01*
X63439Y-23812D01*
X63419Y-23832D01*
X63376Y-23936D01*
X63376Y-23891D01*
X63331Y-23782D01*
X63248Y-23699D01*
X63139Y-23654D01*
X63096Y-23654D01*
X62721Y-23279D01*
X62661Y-23239D01*
X62590Y-23225D01*
X62439Y-23225D01*
X62439Y-22588D01*
X62439Y-22413D01*
X62372Y-22252D01*
X62249Y-22128D01*
X62088Y-22061D01*
X61913Y-22061D01*
X61752Y-22128D01*
X61628Y-22251D01*
X61561Y-22412D01*
X61561Y-22587D01*
X61628Y-22748D01*
X61751Y-22872D01*
X61912Y-22939D01*
X62087Y-22939D01*
X62248Y-22872D01*
X62372Y-22749D01*
X62439Y-22588D01*
X62439Y-23225D01*
X61439Y-23225D01*
X61439Y-22588D01*
X61439Y-22413D01*
X61372Y-22252D01*
X61249Y-22128D01*
X61088Y-22061D01*
X60913Y-22061D01*
X60752Y-22128D01*
X60628Y-22251D01*
X60561Y-22412D01*
X60561Y-22587D01*
X60628Y-22748D01*
X60751Y-22872D01*
X60912Y-22939D01*
X61087Y-22939D01*
X61248Y-22872D01*
X61372Y-22749D01*
X61439Y-22588D01*
X61439Y-23225D01*
X60486Y-23225D01*
X60185Y-22923D01*
X60185Y-22898D01*
X60248Y-22872D01*
X60372Y-22749D01*
X60439Y-22588D01*
X60439Y-22413D01*
X60372Y-22252D01*
X60249Y-22128D01*
X60088Y-22061D01*
X59913Y-22061D01*
X59752Y-22128D01*
X59628Y-22251D01*
X59561Y-22412D01*
X59561Y-22587D01*
X59628Y-22748D01*
X59751Y-22872D01*
X59815Y-22898D01*
X59815Y-23000D01*
X59828Y-23066D01*
X59412Y-22651D01*
X59439Y-22588D01*
X59439Y-22413D01*
X59372Y-22252D01*
X59249Y-22128D01*
X59088Y-22061D01*
X58913Y-22061D01*
X58752Y-22128D01*
X58628Y-22251D01*
X58561Y-22412D01*
X58561Y-22587D01*
X58628Y-22748D01*
X58751Y-22872D01*
X58912Y-22939D01*
X59087Y-22939D01*
X59150Y-22912D01*
X59967Y-23728D01*
X59969Y-23731D01*
X60029Y-23771D01*
X60100Y-23785D01*
X62233Y-23785D01*
X62829Y-24381D01*
X62889Y-24421D01*
X62960Y-24435D01*
X63358Y-24435D01*
X63429Y-24421D01*
X63489Y-24381D01*
X63584Y-24285D01*
X63611Y-24296D01*
X63729Y-24296D01*
X63838Y-24251D01*
X63921Y-24168D01*
X63966Y-24059D01*
X63966Y-24422D01*
X63898Y-24490D01*
X63860Y-24581D01*
X63860Y-24680D01*
X63859Y-24755D01*
X63921Y-24817D01*
X64139Y-24817D01*
X64139Y-24917D01*
X64068Y-24917D01*
X63921Y-24917D01*
X63859Y-24979D01*
X63860Y-25054D01*
X63860Y-25153D01*
X63889Y-25223D01*
X63880Y-25220D01*
X63825Y-25220D01*
X63353Y-25220D01*
X63321Y-25233D01*
X63063Y-25233D01*
X63250Y-25046D01*
X63309Y-25046D01*
X63418Y-25001D01*
X63501Y-24918D01*
X63546Y-24809D01*
X63546Y-24691D01*
X63501Y-24582D01*
X63418Y-24499D01*
X63309Y-24454D01*
X63191Y-24454D01*
X63082Y-24499D01*
X62999Y-24582D01*
X62954Y-24691D01*
X62954Y-24749D01*
X62739Y-24964D01*
X62739Y-24772D01*
X62718Y-24721D01*
X62678Y-24682D01*
X62627Y-24661D01*
X62572Y-24661D01*
X62172Y-24661D01*
X62121Y-24682D01*
X62082Y-24722D01*
X62061Y-24773D01*
X62061Y-24828D01*
X62061Y-25313D01*
X61989Y-25284D01*
X61930Y-25284D01*
X61839Y-25192D01*
X61839Y-24772D01*
X61818Y-24721D01*
X61778Y-24682D01*
X61727Y-24661D01*
X61672Y-24661D01*
X61272Y-24661D01*
X61221Y-24682D01*
X61182Y-24722D01*
X61161Y-24773D01*
X61161Y-24828D01*
X61161Y-25628D01*
X61176Y-25665D01*
X61042Y-25665D01*
X61049Y-25650D01*
X61049Y-25551D01*
X61050Y-25312D01*
X61050Y-25088D01*
X61049Y-24849D01*
X61049Y-24750D01*
X61011Y-24659D01*
X60941Y-24589D01*
X60849Y-24551D01*
X60712Y-24550D01*
X60650Y-24612D01*
X60650Y-25150D01*
X60988Y-25150D01*
X61050Y-25088D01*
X61050Y-25312D01*
X60988Y-25250D01*
X60700Y-25250D01*
X60650Y-25250D01*
X60550Y-25250D01*
X60550Y-25150D01*
X60550Y-24612D01*
X60488Y-24550D01*
X60351Y-24551D01*
X60259Y-24589D01*
X60189Y-24659D01*
X60151Y-24750D01*
X60151Y-24849D01*
X60150Y-25088D01*
X60212Y-25150D01*
X60550Y-25150D01*
X60550Y-25250D01*
X60500Y-25250D01*
X60212Y-25250D01*
X60150Y-25312D01*
X60151Y-25551D01*
X60151Y-25650D01*
X60157Y-25665D01*
X59176Y-25665D01*
X59085Y-25573D01*
X59085Y-24500D01*
X59085Y-23550D01*
X59083Y-23540D01*
X59096Y-23509D01*
X59096Y-23391D01*
X59051Y-23282D01*
X58968Y-23199D01*
X58859Y-23154D01*
X58741Y-23154D01*
X58632Y-23199D01*
X58549Y-23282D01*
X58504Y-23391D01*
X58504Y-23509D01*
X58549Y-23618D01*
X58632Y-23701D01*
X58715Y-23735D01*
X58715Y-23853D01*
X58606Y-23744D01*
X58546Y-23704D01*
X58475Y-23690D01*
X56775Y-23690D01*
X56774Y-23690D01*
X56704Y-23704D01*
X56644Y-23744D01*
X56642Y-23746D01*
X56573Y-23815D01*
X56525Y-23815D01*
X56276Y-23815D01*
X56136Y-23675D01*
X57720Y-23675D01*
X57791Y-23661D01*
X57851Y-23621D01*
X58130Y-23342D01*
X58130Y-23341D01*
X58131Y-23341D01*
X58170Y-23281D01*
X58171Y-23281D01*
X58182Y-23222D01*
X58185Y-23211D01*
X58184Y-23210D01*
X58185Y-23210D01*
X58185Y-22898D01*
X58248Y-22872D01*
X58372Y-22749D01*
X58439Y-22588D01*
X58439Y-22413D01*
X58372Y-22252D01*
X58249Y-22128D01*
X58088Y-22061D01*
X57913Y-22061D01*
X57752Y-22128D01*
X57628Y-22251D01*
X57561Y-22412D01*
X57561Y-22587D01*
X57628Y-22748D01*
X57751Y-22872D01*
X57815Y-22898D01*
X57815Y-23133D01*
X57643Y-23305D01*
X57439Y-23305D01*
X57439Y-22588D01*
X57439Y-22413D01*
X57372Y-22252D01*
X57249Y-22128D01*
X57088Y-22061D01*
X56913Y-22061D01*
X56752Y-22128D01*
X56628Y-22251D01*
X56561Y-22412D01*
X56561Y-22587D01*
X56628Y-22748D01*
X56751Y-22872D01*
X56912Y-22939D01*
X57087Y-22939D01*
X57248Y-22872D01*
X57372Y-22749D01*
X57439Y-22588D01*
X57439Y-23305D01*
X55456Y-23305D01*
X55848Y-22912D01*
X55912Y-22939D01*
X56087Y-22939D01*
X56248Y-22872D01*
X56372Y-22749D01*
X56439Y-22588D01*
X56439Y-22413D01*
X56372Y-22252D01*
X56249Y-22128D01*
X56088Y-22061D01*
X55913Y-22061D01*
X55752Y-22128D01*
X55628Y-22251D01*
X55561Y-22412D01*
X55561Y-22587D01*
X55587Y-22650D01*
X55248Y-22990D01*
X54671Y-22990D01*
X54778Y-22883D01*
X54912Y-22939D01*
X55087Y-22939D01*
X55248Y-22872D01*
X55372Y-22749D01*
X55439Y-22588D01*
X55439Y-22413D01*
X55372Y-22252D01*
X55249Y-22128D01*
X55088Y-22061D01*
X54913Y-22061D01*
X54752Y-22128D01*
X54628Y-22251D01*
X54561Y-22412D01*
X54561Y-22577D01*
X54348Y-22790D01*
X54330Y-22790D01*
X54372Y-22749D01*
X54439Y-22588D01*
X54439Y-22413D01*
X54372Y-22252D01*
X54249Y-22128D01*
X54088Y-22061D01*
X53913Y-22061D01*
X53752Y-22128D01*
X53628Y-22251D01*
X53561Y-22412D01*
X53561Y-22587D01*
X53599Y-22679D01*
X53566Y-22679D01*
X53457Y-22724D01*
X53439Y-22742D01*
X53439Y-22588D01*
X53439Y-22413D01*
X53372Y-22252D01*
X53249Y-22128D01*
X53088Y-22061D01*
X52913Y-22061D01*
X52752Y-22128D01*
X52628Y-22251D01*
X52561Y-22412D01*
X52561Y-22587D01*
X52628Y-22748D01*
X52751Y-22872D01*
X52912Y-22939D01*
X53087Y-22939D01*
X53248Y-22872D01*
X53372Y-22749D01*
X53439Y-22588D01*
X53439Y-22742D01*
X53374Y-22807D01*
X53329Y-22916D01*
X53329Y-23034D01*
X53374Y-23143D01*
X53457Y-23226D01*
X53481Y-23236D01*
X53479Y-23239D01*
X53439Y-23299D01*
X53425Y-23370D01*
X53425Y-23480D01*
X53425Y-23673D01*
X53121Y-23369D01*
X53061Y-23329D01*
X52990Y-23315D01*
X52439Y-23315D01*
X52439Y-22588D01*
X52439Y-22413D01*
X52372Y-22252D01*
X52249Y-22128D01*
X52088Y-22061D01*
X51913Y-22061D01*
X51752Y-22128D01*
X51628Y-22251D01*
X51561Y-22412D01*
X51561Y-22587D01*
X51628Y-22748D01*
X51751Y-22872D01*
X51912Y-22939D01*
X52087Y-22939D01*
X52248Y-22872D01*
X52372Y-22749D01*
X52439Y-22588D01*
X52439Y-23315D01*
X52430Y-23315D01*
X51439Y-23315D01*
X51439Y-22588D01*
X51439Y-22413D01*
X51372Y-22252D01*
X51249Y-22128D01*
X51088Y-22061D01*
X50913Y-22061D01*
X50752Y-22128D01*
X50628Y-22251D01*
X50561Y-22412D01*
X50561Y-22587D01*
X50628Y-22748D01*
X50751Y-22872D01*
X50912Y-22939D01*
X51087Y-22939D01*
X51248Y-22872D01*
X51372Y-22749D01*
X51439Y-22588D01*
X51439Y-23315D01*
X50750Y-23315D01*
X50679Y-23329D01*
X50619Y-23369D01*
X50617Y-23371D01*
X50534Y-23454D01*
X50446Y-23454D01*
X50446Y-23441D01*
X50439Y-23424D01*
X50439Y-22588D01*
X50439Y-22413D01*
X50372Y-22252D01*
X50249Y-22128D01*
X50088Y-22061D01*
X49913Y-22061D01*
X49752Y-22128D01*
X49628Y-22251D01*
X49561Y-22412D01*
X49561Y-22587D01*
X49628Y-22748D01*
X49751Y-22872D01*
X49912Y-22939D01*
X50087Y-22939D01*
X50248Y-22872D01*
X50372Y-22749D01*
X50439Y-22588D01*
X50439Y-23424D01*
X50401Y-23332D01*
X50318Y-23249D01*
X50209Y-23204D01*
X50091Y-23204D01*
X49982Y-23249D01*
X49899Y-23332D01*
X49858Y-23429D01*
X49635Y-23653D01*
X49635Y-23584D01*
X49701Y-23518D01*
X49746Y-23409D01*
X49746Y-23291D01*
X49701Y-23182D01*
X49618Y-23099D01*
X49509Y-23054D01*
X49439Y-23054D01*
X49439Y-22588D01*
X49439Y-22413D01*
X49372Y-22252D01*
X49249Y-22128D01*
X49088Y-22061D01*
X48913Y-22061D01*
X48752Y-22128D01*
X48628Y-22251D01*
X48561Y-22412D01*
X48561Y-22587D01*
X48628Y-22748D01*
X48751Y-22872D01*
X48912Y-22939D01*
X49087Y-22939D01*
X49248Y-22872D01*
X49372Y-22749D01*
X49439Y-22588D01*
X49439Y-23054D01*
X49391Y-23054D01*
X49282Y-23099D01*
X49199Y-23182D01*
X49197Y-23185D01*
X49031Y-23019D01*
X48971Y-22979D01*
X48900Y-22965D01*
X48650Y-22965D01*
X48579Y-22979D01*
X48519Y-23019D01*
X48473Y-23065D01*
X48439Y-23065D01*
X48439Y-22588D01*
X48439Y-22413D01*
X48372Y-22252D01*
X48249Y-22128D01*
X48088Y-22061D01*
X47913Y-22061D01*
X47752Y-22128D01*
X47628Y-22251D01*
X47561Y-22412D01*
X47561Y-22587D01*
X47628Y-22748D01*
X47751Y-22872D01*
X47912Y-22939D01*
X48087Y-22939D01*
X48248Y-22872D01*
X48372Y-22749D01*
X48439Y-22588D01*
X48439Y-23065D01*
X47439Y-23065D01*
X47439Y-22588D01*
X47439Y-22413D01*
X47372Y-22252D01*
X47249Y-22128D01*
X47088Y-22061D01*
X46913Y-22061D01*
X46752Y-22128D01*
X46628Y-22251D01*
X46561Y-22412D01*
X46561Y-22587D01*
X46628Y-22748D01*
X46751Y-22872D01*
X46912Y-22939D01*
X47087Y-22939D01*
X47248Y-22872D01*
X47372Y-22749D01*
X47439Y-22588D01*
X47439Y-23065D01*
X46227Y-23065D01*
X46185Y-23023D01*
X46185Y-22898D01*
X46248Y-22872D01*
X46372Y-22749D01*
X46439Y-22588D01*
X46439Y-22413D01*
X46372Y-22252D01*
X46249Y-22128D01*
X46088Y-22061D01*
X45913Y-22061D01*
X45752Y-22128D01*
X45628Y-22251D01*
X45561Y-22412D01*
X45561Y-22587D01*
X45628Y-22748D01*
X45751Y-22872D01*
X45815Y-22898D01*
X45815Y-23100D01*
X45829Y-23171D01*
X45869Y-23231D01*
X45903Y-23265D01*
X45476Y-23265D01*
X45185Y-22973D01*
X45185Y-22952D01*
X45277Y-22915D01*
X45414Y-22777D01*
X45489Y-22598D01*
X45489Y-22403D01*
X45415Y-22223D01*
X45277Y-22086D01*
X45098Y-22011D01*
X44903Y-22011D01*
X44723Y-22085D01*
X44586Y-22223D01*
X44511Y-22402D01*
X44511Y-22597D01*
X44585Y-22777D01*
X44723Y-22914D01*
X44815Y-22952D01*
X44815Y-23050D01*
X44829Y-23121D01*
X44869Y-23181D01*
X45267Y-23578D01*
X45269Y-23581D01*
X45329Y-23621D01*
X45400Y-23635D01*
X45547Y-23635D01*
X45504Y-23741D01*
X45504Y-23859D01*
X45549Y-23968D01*
X45632Y-24051D01*
X45741Y-24096D01*
X45859Y-24096D01*
X45968Y-24051D01*
X46051Y-23968D01*
X46096Y-23859D01*
X46096Y-23835D01*
X48423Y-23835D01*
X48718Y-24130D01*
X48719Y-24131D01*
X48779Y-24171D01*
X48837Y-24182D01*
X48849Y-24185D01*
X48849Y-24184D01*
X48850Y-24185D01*
X49300Y-24185D01*
X49315Y-24182D01*
X49315Y-24200D01*
X49315Y-24373D01*
X48873Y-24815D01*
X47750Y-24815D01*
X47600Y-24815D01*
X47550Y-24815D01*
X46800Y-24815D01*
X46799Y-24815D01*
X46729Y-24829D01*
X46669Y-24869D01*
X46667Y-24871D01*
X46119Y-25419D01*
X46079Y-25479D01*
X46065Y-25550D01*
X46065Y-25566D01*
X45999Y-25632D01*
X45954Y-25741D01*
X45954Y-25859D01*
X45999Y-25968D01*
X46082Y-26051D01*
X46191Y-26096D01*
X46309Y-26096D01*
X46418Y-26051D01*
X46501Y-25968D01*
X46546Y-25859D01*
X46546Y-25741D01*
X46501Y-25632D01*
X46465Y-25596D01*
X46876Y-25185D01*
X47465Y-25185D01*
X47465Y-25186D01*
X47397Y-25186D01*
X47346Y-25207D01*
X47307Y-25247D01*
X47286Y-25298D01*
X47286Y-25353D01*
X47286Y-25603D01*
X47307Y-25654D01*
X47347Y-25693D01*
X47398Y-25714D01*
X47453Y-25714D01*
X47903Y-25714D01*
X47954Y-25693D01*
X47993Y-25653D01*
X48014Y-25602D01*
X48014Y-25547D01*
X48014Y-25297D01*
X47993Y-25246D01*
X47953Y-25207D01*
X47902Y-25186D01*
X47847Y-25186D01*
X47835Y-25186D01*
X47835Y-25185D01*
X48950Y-25185D01*
X49021Y-25171D01*
X49081Y-25131D01*
X49443Y-24767D01*
X49464Y-24816D01*
X49534Y-24886D01*
X49626Y-24924D01*
X49688Y-24925D01*
X49750Y-24863D01*
X49750Y-24550D01*
X49750Y-24500D01*
X49750Y-24400D01*
X49850Y-24400D01*
X49850Y-24500D01*
X49850Y-24550D01*
X49850Y-24863D01*
X49912Y-24925D01*
X49974Y-24924D01*
X50066Y-24886D01*
X50136Y-24816D01*
X50160Y-24757D01*
X50190Y-24786D01*
X50190Y-25113D01*
X50160Y-25143D01*
X50136Y-25084D01*
X50066Y-25014D01*
X49974Y-24976D01*
X49912Y-24975D01*
X49850Y-25037D01*
X49850Y-25350D01*
X49850Y-25400D01*
X49850Y-25500D01*
X49850Y-25550D01*
X49850Y-25687D01*
X49850Y-25863D01*
X49850Y-26000D01*
X49850Y-26050D01*
X49850Y-26150D01*
X49850Y-26200D01*
X49850Y-26387D01*
X49850Y-26513D01*
X49850Y-26700D01*
X49850Y-26750D01*
X49850Y-26850D01*
X49850Y-26900D01*
X49850Y-27087D01*
X49850Y-27213D01*
X49850Y-27400D01*
X49850Y-27450D01*
X49850Y-27550D01*
X49850Y-27600D01*
X49850Y-27913D01*
X49912Y-27975D01*
X49850Y-28037D01*
X49850Y-28350D01*
X49850Y-28400D01*
X49850Y-28500D01*
X49850Y-28550D01*
X49850Y-28863D01*
X49912Y-28925D01*
X49974Y-28924D01*
X50066Y-28886D01*
X50136Y-28816D01*
X50160Y-28757D01*
X50197Y-28793D01*
X50248Y-28814D01*
X50303Y-28814D01*
X50553Y-28814D01*
X50604Y-28793D01*
X50643Y-28753D01*
X50645Y-28746D01*
X50759Y-28746D01*
X50840Y-28712D01*
X50872Y-28743D01*
X50923Y-28764D01*
X50978Y-28764D01*
X51228Y-28764D01*
X51279Y-28743D01*
X51314Y-28706D01*
X51339Y-28766D01*
X51409Y-28836D01*
X51501Y-28874D01*
X51563Y-28875D01*
X51625Y-28813D01*
X51625Y-28500D01*
X51625Y-28450D01*
X51625Y-28350D01*
X51625Y-28300D01*
X51625Y-27987D01*
X51563Y-27925D01*
X51501Y-27926D01*
X51409Y-27964D01*
X51339Y-28034D01*
X51314Y-28092D01*
X51278Y-28057D01*
X51227Y-28036D01*
X51172Y-28036D01*
X50922Y-28036D01*
X50871Y-28057D01*
X50832Y-28097D01*
X50811Y-28148D01*
X50811Y-28175D01*
X50759Y-28154D01*
X50646Y-28154D01*
X50643Y-28146D01*
X50603Y-28107D01*
X50552Y-28086D01*
X50497Y-28086D01*
X50247Y-28086D01*
X50196Y-28107D01*
X50160Y-28143D01*
X50136Y-28084D01*
X50066Y-28014D01*
X49974Y-27976D01*
X49912Y-27975D01*
X49974Y-27974D01*
X50066Y-27936D01*
X50136Y-27866D01*
X50160Y-27807D01*
X50197Y-27843D01*
X50248Y-27864D01*
X50303Y-27864D01*
X50553Y-27864D01*
X50604Y-27843D01*
X50638Y-27807D01*
X50682Y-27851D01*
X50791Y-27896D01*
X50909Y-27896D01*
X51018Y-27851D01*
X51101Y-27768D01*
X51146Y-27659D01*
X51146Y-27600D01*
X51286Y-27460D01*
X51586Y-27460D01*
X51586Y-27778D01*
X51607Y-27829D01*
X51647Y-27868D01*
X51698Y-27889D01*
X51753Y-27889D01*
X52303Y-27889D01*
X52354Y-27868D01*
X52393Y-27828D01*
X52414Y-27777D01*
X52414Y-27722D01*
X52414Y-26722D01*
X52393Y-26671D01*
X52353Y-26632D01*
X52302Y-26611D01*
X52247Y-26611D01*
X52210Y-26611D01*
X52210Y-26389D01*
X52303Y-26389D01*
X52354Y-26368D01*
X52393Y-26328D01*
X52414Y-26277D01*
X52414Y-26222D01*
X52414Y-25222D01*
X52393Y-25171D01*
X52353Y-25132D01*
X52302Y-25111D01*
X52247Y-25111D01*
X51975Y-25111D01*
X51975Y-24662D01*
X51913Y-24600D01*
X51550Y-24600D01*
X51550Y-24863D01*
X51612Y-24925D01*
X51676Y-24924D01*
X51775Y-24924D01*
X51866Y-24886D01*
X51936Y-24816D01*
X51974Y-24724D01*
X51975Y-24662D01*
X51975Y-25111D01*
X51697Y-25111D01*
X51646Y-25132D01*
X51607Y-25172D01*
X51586Y-25223D01*
X51586Y-25278D01*
X51586Y-25867D01*
X51563Y-25890D01*
X51210Y-25890D01*
X51210Y-25864D01*
X51253Y-25864D01*
X51304Y-25843D01*
X51343Y-25803D01*
X51364Y-25752D01*
X51364Y-25697D01*
X51364Y-25447D01*
X51343Y-25396D01*
X51306Y-25360D01*
X51366Y-25336D01*
X51436Y-25266D01*
X51474Y-25174D01*
X51475Y-25112D01*
X51475Y-24888D01*
X51474Y-24826D01*
X51450Y-24767D01*
X51450Y-24600D01*
X51087Y-24600D01*
X51025Y-24662D01*
X51026Y-24724D01*
X51050Y-24782D01*
X51050Y-24950D01*
X51413Y-24950D01*
X51475Y-24888D01*
X51475Y-25112D01*
X51413Y-25050D01*
X51100Y-25050D01*
X51050Y-25050D01*
X50950Y-25050D01*
X50950Y-24950D01*
X50950Y-24900D01*
X50950Y-24687D01*
X50888Y-24625D01*
X50857Y-24625D01*
X50898Y-24598D01*
X51041Y-24454D01*
X51087Y-24500D01*
X51400Y-24500D01*
X51450Y-24500D01*
X51550Y-24500D01*
X51600Y-24500D01*
X51913Y-24500D01*
X51975Y-24438D01*
X51974Y-24376D01*
X51936Y-24284D01*
X51866Y-24214D01*
X51807Y-24189D01*
X51836Y-24160D01*
X52113Y-24160D01*
X52129Y-24198D01*
X52212Y-24281D01*
X52215Y-24282D01*
X52214Y-24284D01*
X52176Y-24376D01*
X52175Y-24438D01*
X52237Y-24500D01*
X52550Y-24500D01*
X52600Y-24500D01*
X52700Y-24500D01*
X52700Y-24600D01*
X52700Y-24650D01*
X52700Y-24863D01*
X52762Y-24925D01*
X52826Y-24924D01*
X52925Y-24924D01*
X52990Y-24896D01*
X53041Y-24948D01*
X53042Y-24948D01*
X53087Y-24978D01*
X53109Y-24993D01*
X53110Y-24994D01*
X53189Y-25009D01*
X53190Y-25010D01*
X53443Y-25010D01*
X53444Y-25010D01*
X53511Y-25078D01*
X53512Y-25078D01*
X53531Y-25091D01*
X53514Y-25109D01*
X53476Y-25201D01*
X53475Y-25638D01*
X53537Y-25700D01*
X53900Y-25700D01*
X53950Y-25700D01*
X54050Y-25700D01*
X54100Y-25700D01*
X54434Y-25700D01*
X54447Y-25708D01*
X54469Y-25723D01*
X54470Y-25724D01*
X54550Y-25740D01*
X54870Y-25740D01*
X54870Y-25739D01*
X54937Y-25726D01*
X54950Y-25724D01*
X54951Y-25724D01*
X55018Y-25678D01*
X55052Y-25643D01*
X55067Y-25650D01*
X55034Y-25664D01*
X54964Y-25734D01*
X54926Y-25825D01*
X54926Y-25924D01*
X54925Y-25988D01*
X54987Y-26050D01*
X55250Y-26050D01*
X55250Y-25687D01*
X55213Y-25650D01*
X55250Y-25613D01*
X55250Y-25300D01*
X55250Y-25250D01*
X55250Y-25150D01*
X55350Y-25150D01*
X55350Y-25250D01*
X55350Y-25300D01*
X55350Y-25613D01*
X55387Y-25650D01*
X55350Y-25687D01*
X55350Y-26000D01*
X55350Y-26050D01*
X55350Y-26150D01*
X55350Y-26200D01*
X55350Y-26513D01*
X55387Y-26550D01*
X55350Y-26587D01*
X55350Y-26900D01*
X55350Y-26950D01*
X55350Y-27050D01*
X55350Y-27100D01*
X55350Y-27413D01*
X55387Y-27450D01*
X55350Y-27487D01*
X55350Y-27800D01*
X55350Y-27850D01*
X55350Y-27950D01*
X55250Y-27950D01*
X55250Y-27850D01*
X55250Y-27487D01*
X55213Y-27450D01*
X55250Y-27413D01*
X55250Y-27050D01*
X55250Y-26950D01*
X55250Y-26587D01*
X55213Y-26550D01*
X55250Y-26513D01*
X55250Y-26150D01*
X54987Y-26150D01*
X54925Y-26212D01*
X54926Y-26276D01*
X54926Y-26375D01*
X54964Y-26466D01*
X55034Y-26536D01*
X55067Y-26550D01*
X55034Y-26564D01*
X54964Y-26634D01*
X54926Y-26725D01*
X54926Y-26824D01*
X54925Y-26888D01*
X54987Y-26950D01*
X55250Y-26950D01*
X55250Y-27050D01*
X54987Y-27050D01*
X54925Y-27112D01*
X54926Y-27176D01*
X54926Y-27275D01*
X54964Y-27366D01*
X55034Y-27436D01*
X55067Y-27450D01*
X55034Y-27464D01*
X54964Y-27534D01*
X54926Y-27625D01*
X54926Y-27724D01*
X54925Y-27788D01*
X54987Y-27850D01*
X55250Y-27850D01*
X55250Y-27950D01*
X55200Y-27950D01*
X54987Y-27950D01*
X54975Y-27961D01*
X54959Y-27954D01*
X54841Y-27954D01*
X54732Y-27999D01*
X54649Y-28082D01*
X54604Y-28191D01*
X54604Y-28309D01*
X54631Y-28375D01*
X54574Y-28376D01*
X54525Y-28376D01*
X54525Y-25862D01*
X54463Y-25800D01*
X54050Y-25800D01*
X54050Y-26438D01*
X54112Y-26500D01*
X54226Y-26499D01*
X54325Y-26499D01*
X54416Y-26461D01*
X54486Y-26391D01*
X54524Y-26299D01*
X54525Y-25862D01*
X54525Y-28376D01*
X54475Y-28376D01*
X54414Y-28401D01*
X54414Y-27777D01*
X54414Y-27722D01*
X54414Y-26722D01*
X54393Y-26671D01*
X54353Y-26632D01*
X54302Y-26611D01*
X54247Y-26611D01*
X53950Y-26611D01*
X53950Y-26438D01*
X53950Y-25800D01*
X53537Y-25800D01*
X53475Y-25862D01*
X53476Y-26299D01*
X53514Y-26391D01*
X53584Y-26461D01*
X53675Y-26499D01*
X53774Y-26499D01*
X53888Y-26500D01*
X53950Y-26438D01*
X53950Y-26611D01*
X53697Y-26611D01*
X53646Y-26632D01*
X53607Y-26672D01*
X53586Y-26723D01*
X53586Y-26778D01*
X53586Y-27778D01*
X53607Y-27829D01*
X53647Y-27868D01*
X53698Y-27889D01*
X53753Y-27889D01*
X54303Y-27889D01*
X54354Y-27868D01*
X54393Y-27828D01*
X54414Y-27777D01*
X54414Y-28401D01*
X54384Y-28414D01*
X54314Y-28484D01*
X54276Y-28576D01*
X54275Y-28638D01*
X54337Y-28700D01*
X54650Y-28700D01*
X54700Y-28700D01*
X54800Y-28700D01*
X54800Y-28800D01*
X54700Y-28800D01*
X54650Y-28800D01*
X54337Y-28800D01*
X54275Y-28862D01*
X54276Y-28924D01*
X54293Y-28965D01*
X54254Y-29061D01*
X54254Y-29179D01*
X54299Y-29288D01*
X54382Y-29371D01*
X54386Y-29372D01*
X54386Y-29475D01*
X54064Y-29475D01*
X54064Y-29447D01*
X54064Y-29197D01*
X54043Y-29146D01*
X54006Y-29110D01*
X54066Y-29086D01*
X54136Y-29016D01*
X54174Y-28924D01*
X54175Y-28862D01*
X54175Y-28638D01*
X54174Y-28576D01*
X54136Y-28484D01*
X54066Y-28414D01*
X53975Y-28376D01*
X53876Y-28376D01*
X53812Y-28375D01*
X53750Y-28437D01*
X53750Y-28700D01*
X54113Y-28700D01*
X54175Y-28638D01*
X54175Y-28862D01*
X54113Y-28800D01*
X53800Y-28800D01*
X53750Y-28800D01*
X53650Y-28800D01*
X53650Y-28700D01*
X53650Y-28437D01*
X53588Y-28375D01*
X53524Y-28376D01*
X53425Y-28376D01*
X53414Y-28380D01*
X53414Y-27777D01*
X53414Y-27722D01*
X53414Y-26722D01*
X53414Y-26277D01*
X53414Y-26222D01*
X53414Y-25222D01*
X53393Y-25171D01*
X53353Y-25132D01*
X53302Y-25111D01*
X53247Y-25111D01*
X52697Y-25111D01*
X52646Y-25132D01*
X52607Y-25172D01*
X52600Y-25189D01*
X52600Y-24863D01*
X52600Y-24600D01*
X52237Y-24600D01*
X52175Y-24662D01*
X52176Y-24724D01*
X52214Y-24816D01*
X52284Y-24886D01*
X52375Y-24924D01*
X52474Y-24924D01*
X52538Y-24925D01*
X52600Y-24863D01*
X52600Y-25189D01*
X52586Y-25223D01*
X52586Y-25278D01*
X52586Y-26278D01*
X52607Y-26329D01*
X52647Y-26368D01*
X52698Y-26389D01*
X52753Y-26389D01*
X53303Y-26389D01*
X53354Y-26368D01*
X53393Y-26328D01*
X53414Y-26277D01*
X53414Y-26722D01*
X53393Y-26671D01*
X53353Y-26632D01*
X53302Y-26611D01*
X53247Y-26611D01*
X52697Y-26611D01*
X52646Y-26632D01*
X52607Y-26672D01*
X52586Y-26723D01*
X52586Y-26778D01*
X52586Y-27778D01*
X52607Y-27829D01*
X52647Y-27868D01*
X52698Y-27889D01*
X52753Y-27889D01*
X53303Y-27889D01*
X53354Y-27868D01*
X53393Y-27828D01*
X53414Y-27777D01*
X53414Y-28380D01*
X53334Y-28414D01*
X53264Y-28484D01*
X53226Y-28576D01*
X53225Y-28638D01*
X53287Y-28700D01*
X53650Y-28700D01*
X53650Y-28800D01*
X53600Y-28800D01*
X53287Y-28800D01*
X53233Y-28854D01*
X53191Y-28854D01*
X53082Y-28899D01*
X52999Y-28982D01*
X52974Y-29040D01*
X52913Y-29028D01*
X52050Y-29028D01*
X52050Y-28512D01*
X52050Y-28288D01*
X52049Y-28224D01*
X52049Y-28125D01*
X52011Y-28034D01*
X51941Y-27964D01*
X51849Y-27926D01*
X51787Y-27925D01*
X51725Y-27987D01*
X51725Y-28350D01*
X51988Y-28350D01*
X52050Y-28288D01*
X52050Y-28512D01*
X51988Y-28450D01*
X51725Y-28450D01*
X51725Y-28813D01*
X51787Y-28875D01*
X51849Y-28874D01*
X51941Y-28836D01*
X52011Y-28766D01*
X52049Y-28675D01*
X52049Y-28576D01*
X52050Y-28512D01*
X52050Y-29028D01*
X51372Y-29028D01*
X51341Y-28952D01*
X51258Y-28869D01*
X51149Y-28824D01*
X51031Y-28824D01*
X50922Y-28869D01*
X50839Y-28952D01*
X50794Y-29061D01*
X50794Y-29179D01*
X50839Y-29288D01*
X50922Y-29371D01*
X51031Y-29416D01*
X51149Y-29416D01*
X51192Y-29398D01*
X52836Y-29398D01*
X53229Y-29791D01*
X53289Y-29831D01*
X53360Y-29845D01*
X53426Y-29845D01*
X53369Y-29902D01*
X53355Y-29933D01*
X53261Y-29839D01*
X53201Y-29799D01*
X53130Y-29785D01*
X52739Y-29785D01*
X52689Y-29764D01*
X52571Y-29764D01*
X52462Y-29809D01*
X52379Y-29892D01*
X52334Y-30001D01*
X52334Y-30119D01*
X52379Y-30228D01*
X52462Y-30311D01*
X52571Y-30356D01*
X52584Y-30356D01*
X52561Y-30412D01*
X52561Y-30587D01*
X52628Y-30748D01*
X52751Y-30872D01*
X52912Y-30939D01*
X53087Y-30939D01*
X53248Y-30872D01*
X53372Y-30749D01*
X53439Y-30588D01*
X53439Y-30540D01*
X53527Y-30628D01*
X53529Y-30631D01*
X53589Y-30671D01*
X53596Y-30672D01*
X53628Y-30748D01*
X53751Y-30872D01*
X53912Y-30939D01*
X54087Y-30939D01*
X54248Y-30872D01*
X54372Y-30749D01*
X54439Y-30588D01*
X54439Y-30530D01*
X54537Y-30628D01*
X54539Y-30631D01*
X54594Y-30668D01*
X54628Y-30748D01*
X54751Y-30872D01*
X54912Y-30939D01*
X55087Y-30939D01*
X55248Y-30872D01*
X55372Y-30749D01*
X55439Y-30588D01*
X55439Y-30413D01*
X55372Y-30252D01*
X55249Y-30128D01*
X55193Y-30105D01*
X55363Y-30105D01*
X55593Y-30334D01*
X55561Y-30412D01*
X55561Y-30587D01*
X55628Y-30748D01*
X55751Y-30872D01*
X55912Y-30939D01*
X56087Y-30939D01*
X56248Y-30872D01*
X56372Y-30749D01*
X56439Y-30588D01*
X56439Y-30413D01*
X56372Y-30252D01*
X56249Y-30128D01*
X56088Y-30061D01*
X55913Y-30061D01*
X55863Y-30081D01*
X55626Y-29845D01*
X56123Y-29845D01*
X56429Y-30151D01*
X56489Y-30191D01*
X56560Y-30205D01*
X56674Y-30205D01*
X56628Y-30251D01*
X56561Y-30412D01*
X56561Y-30587D01*
X56628Y-30748D01*
X56751Y-30872D01*
X56912Y-30939D01*
X57087Y-30939D01*
X57248Y-30872D01*
X57372Y-30749D01*
X57439Y-30588D01*
X57439Y-30413D01*
X57372Y-30252D01*
X57325Y-30205D01*
X57674Y-30205D01*
X57628Y-30251D01*
X57561Y-30412D01*
X57561Y-30587D01*
X57628Y-30748D01*
X57751Y-30872D01*
X57912Y-30939D01*
X58087Y-30939D01*
X58248Y-30872D01*
X58372Y-30749D01*
X58439Y-30588D01*
X58439Y-30413D01*
X58372Y-30252D01*
X58325Y-30205D01*
X58500Y-30205D01*
X58571Y-30191D01*
X58631Y-30151D01*
X58781Y-30001D01*
X58821Y-29941D01*
X58835Y-29870D01*
X58835Y-29736D01*
X58868Y-29703D01*
X58889Y-29652D01*
X58889Y-29597D01*
X58889Y-29147D01*
X58868Y-29096D01*
X58828Y-29057D01*
X58777Y-29036D01*
X58722Y-29036D01*
X58585Y-29036D01*
X58585Y-28742D01*
X58593Y-28730D01*
X58609Y-28650D01*
X58593Y-28569D01*
X58548Y-28501D01*
X58360Y-28313D01*
X58360Y-27211D01*
X58368Y-27203D01*
X58389Y-27152D01*
X58389Y-27110D01*
X58411Y-27110D01*
X58411Y-27153D01*
X58432Y-27204D01*
X58465Y-27236D01*
X58465Y-27275D01*
X58479Y-27346D01*
X58519Y-27406D01*
X59724Y-28611D01*
X59722Y-28611D01*
X59472Y-28611D01*
X59421Y-28632D01*
X59382Y-28672D01*
X59376Y-28685D01*
X59349Y-28674D01*
X59231Y-28674D01*
X59122Y-28719D01*
X59039Y-28802D01*
X58994Y-28911D01*
X58994Y-29029D01*
X59039Y-29138D01*
X59122Y-29221D01*
X59231Y-29266D01*
X59349Y-29266D01*
X59372Y-29256D01*
X59382Y-29279D01*
X59422Y-29318D01*
X59473Y-29339D01*
X59528Y-29339D01*
X59778Y-29339D01*
X59829Y-29318D01*
X59868Y-29278D01*
X59889Y-29227D01*
X59889Y-29172D01*
X59889Y-28776D01*
X59961Y-28848D01*
X59961Y-29228D01*
X59982Y-29279D01*
X60022Y-29318D01*
X60073Y-29339D01*
X60128Y-29339D01*
X60378Y-29339D01*
X60429Y-29318D01*
X60468Y-29278D01*
X60489Y-29227D01*
X60489Y-29172D01*
X60489Y-28722D01*
X60468Y-28671D01*
X60428Y-28632D01*
X60377Y-28611D01*
X60322Y-28611D01*
X60248Y-28611D01*
X60179Y-28542D01*
X60218Y-28526D01*
X60301Y-28443D01*
X60346Y-28334D01*
X60346Y-28216D01*
X60301Y-28107D01*
X60218Y-28024D01*
X60109Y-27979D01*
X60015Y-27979D01*
X59248Y-27211D01*
X59248Y-26788D01*
X59234Y-26717D01*
X59194Y-26657D01*
X59172Y-26635D01*
X59450Y-26635D01*
X62750Y-26635D01*
X62821Y-26621D01*
X62881Y-26581D01*
X63242Y-26220D01*
X63242Y-26292D01*
X63246Y-26304D01*
X63242Y-26316D01*
X63242Y-26327D01*
X63240Y-26328D01*
X63170Y-26398D01*
X63132Y-26489D01*
X63132Y-26508D01*
X63193Y-26569D01*
X63292Y-26569D01*
X63303Y-26579D01*
X63349Y-26598D01*
X63302Y-26618D01*
X63293Y-26627D01*
X63193Y-26627D01*
X63132Y-26688D01*
X63132Y-26707D01*
X63170Y-26798D01*
X63240Y-26868D01*
X63242Y-26868D01*
X63242Y-26882D01*
X63246Y-26894D01*
X63242Y-26906D01*
X63242Y-26961D01*
X63242Y-27079D01*
X63246Y-27090D01*
X63242Y-27102D01*
X63242Y-27157D01*
X63242Y-27275D01*
X63246Y-27287D01*
X63242Y-27299D01*
X63242Y-27354D01*
X63242Y-27472D01*
X63246Y-27484D01*
X63242Y-27496D01*
X63242Y-27551D01*
X63242Y-27669D01*
X63263Y-27720D01*
X63303Y-27759D01*
X63354Y-27780D01*
X63409Y-27780D01*
X63881Y-27780D01*
X63932Y-27759D01*
X63971Y-27719D01*
X63992Y-27668D01*
X63992Y-27613D01*
X63992Y-27595D01*
X64141Y-27595D01*
X64182Y-27636D01*
X64291Y-27681D01*
X64352Y-27681D01*
X64352Y-27758D01*
X64278Y-27758D01*
X64266Y-27762D01*
X64254Y-27758D01*
X64199Y-27758D01*
X64081Y-27758D01*
X64030Y-27779D01*
X63991Y-27819D01*
X63970Y-27870D01*
X63970Y-27925D01*
X63970Y-28397D01*
X63991Y-28448D01*
X64031Y-28487D01*
X64082Y-28508D01*
X64137Y-28508D01*
X64255Y-28508D01*
X64267Y-28503D01*
X64279Y-28508D01*
X64334Y-28508D01*
X64452Y-28508D01*
X64464Y-28503D01*
X64476Y-28508D01*
X64487Y-28508D01*
X64488Y-28510D01*
X64502Y-28524D01*
X64479Y-28529D01*
X64419Y-28569D01*
X64319Y-28669D01*
X64279Y-28729D01*
X64265Y-28799D01*
X64246Y-28807D01*
X64207Y-28847D01*
X64186Y-28898D01*
X64186Y-28953D01*
X64186Y-29403D01*
X64207Y-29454D01*
X64247Y-29493D01*
X64298Y-29514D01*
X64353Y-29514D01*
X64603Y-29514D01*
X64654Y-29493D01*
X64693Y-29453D01*
X64714Y-29402D01*
X64714Y-29347D01*
X64714Y-28897D01*
X64709Y-28885D01*
X64791Y-28885D01*
X64786Y-28898D01*
X64786Y-28953D01*
X64786Y-29403D01*
X64807Y-29454D01*
X64847Y-29493D01*
X64898Y-29514D01*
X64953Y-29514D01*
X65203Y-29514D01*
X65254Y-29493D01*
X65293Y-29453D01*
X65314Y-29402D01*
X65314Y-29347D01*
X65314Y-28998D01*
X65386Y-28926D01*
X65386Y-29003D01*
X65407Y-29054D01*
X65447Y-29093D01*
X65498Y-29114D01*
X65553Y-29114D01*
X66003Y-29114D01*
X66054Y-29093D01*
X66093Y-29053D01*
X66114Y-29002D01*
X66114Y-28947D01*
X66114Y-28697D01*
X66263Y-28547D01*
X66265Y-28546D01*
X66266Y-28546D01*
X66290Y-28508D01*
X66291Y-28508D01*
X66301Y-28508D01*
X66419Y-28508D01*
X66465Y-28489D01*
X66465Y-28586D01*
X66397Y-28586D01*
X66346Y-28607D01*
X66307Y-28647D01*
X66286Y-28698D01*
X66286Y-28753D01*
X66286Y-29003D01*
X66307Y-29054D01*
X66347Y-29093D01*
X66398Y-29114D01*
X66453Y-29114D01*
X66840Y-29114D01*
X66840Y-29186D01*
X66397Y-29186D01*
X66346Y-29207D01*
X66313Y-29240D01*
X66086Y-29240D01*
X66053Y-29207D01*
X66002Y-29186D01*
X65947Y-29186D01*
X65497Y-29186D01*
X65446Y-29207D01*
X65407Y-29247D01*
X65386Y-29298D01*
X65386Y-29353D01*
X65386Y-29603D01*
X65407Y-29654D01*
X65447Y-29693D01*
X65498Y-29714D01*
X65553Y-29714D01*
X66003Y-29714D01*
X66054Y-29693D01*
X66086Y-29660D01*
X66313Y-29660D01*
X66347Y-29693D01*
X66398Y-29714D01*
X66453Y-29714D01*
X66903Y-29714D01*
X66954Y-29693D01*
X66993Y-29653D01*
X67002Y-29628D01*
X67003Y-29628D01*
X67033Y-29608D01*
X67026Y-29626D01*
X67025Y-29688D01*
X67087Y-29750D01*
X67400Y-29750D01*
X67450Y-29750D01*
X67550Y-29750D01*
X67600Y-29750D01*
X67913Y-29750D01*
X67975Y-29688D01*
X67974Y-29626D01*
X67936Y-29534D01*
X67866Y-29464D01*
X67807Y-29439D01*
X67843Y-29403D01*
X67864Y-29352D01*
X67864Y-29297D01*
X67864Y-29248D01*
X67968Y-29144D01*
X67968Y-29460D01*
X67989Y-29511D01*
X68029Y-29550D01*
X68080Y-29571D01*
X68135Y-29571D01*
X68921Y-29571D01*
X68972Y-29550D01*
X69011Y-29510D01*
X69032Y-29459D01*
X69032Y-29404D01*
X69032Y-27240D01*
X69011Y-27189D01*
X68971Y-27150D01*
X68920Y-27129D01*
X68865Y-27129D01*
X68685Y-27129D01*
X68685Y-27050D01*
X68685Y-26800D01*
X68671Y-26729D01*
X68631Y-26669D01*
X68531Y-26569D01*
X68471Y-26529D01*
X68400Y-26515D01*
X68000Y-26515D01*
X67847Y-26515D01*
X68491Y-25871D01*
X68921Y-25871D01*
X68972Y-25850D01*
X68990Y-25831D01*
X68990Y-25841D01*
X68949Y-25882D01*
X68904Y-25991D01*
X68904Y-26109D01*
X68949Y-26218D01*
X69032Y-26301D01*
X69141Y-26346D01*
X69259Y-26346D01*
X69368Y-26301D01*
X69451Y-26218D01*
X69496Y-26109D01*
X69496Y-31035D01*
X69439Y-31035D01*
X69439Y-30827D01*
X69439Y-30772D01*
X69439Y-30172D01*
X69418Y-30121D01*
X69378Y-30082D01*
X69327Y-30061D01*
X69272Y-30061D01*
X68672Y-30061D01*
X68621Y-30082D01*
X68582Y-30122D01*
X68561Y-30173D01*
X68561Y-30228D01*
X68561Y-30828D01*
X68582Y-30879D01*
X68622Y-30918D01*
X68673Y-30939D01*
X68728Y-30939D01*
X69328Y-30939D01*
X69379Y-30918D01*
X69418Y-30878D01*
X69439Y-30827D01*
X69439Y-31035D01*
X68543Y-31035D01*
X68543Y-30579D01*
X68532Y-30366D01*
X68472Y-30219D01*
X68378Y-30192D01*
X68308Y-30262D01*
X68308Y-30122D01*
X68281Y-30028D01*
X68079Y-29957D01*
X67974Y-29962D01*
X67975Y-29912D01*
X67913Y-29850D01*
X67550Y-29850D01*
X67550Y-30113D01*
X67573Y-30136D01*
X67534Y-30175D01*
X67566Y-30207D01*
X67528Y-30219D01*
X67457Y-30421D01*
X67468Y-30634D01*
X67528Y-30781D01*
X67622Y-30808D01*
X67894Y-30535D01*
X67929Y-30500D01*
X68000Y-30429D01*
X68035Y-30394D01*
X68308Y-30122D01*
X68308Y-30262D01*
X68071Y-30500D01*
X68378Y-30808D01*
X68472Y-30781D01*
X68543Y-30579D01*
X68543Y-31035D01*
X68075Y-31035D01*
X68134Y-31032D01*
X68281Y-30972D01*
X68308Y-30878D01*
X68000Y-30571D01*
X67929Y-30641D01*
X67692Y-30878D01*
X67719Y-30972D01*
X67898Y-31035D01*
X67450Y-31035D01*
X67450Y-30113D01*
X67450Y-29850D01*
X67087Y-29850D01*
X67025Y-29912D01*
X67026Y-29974D01*
X67061Y-30061D01*
X66913Y-30061D01*
X66752Y-30128D01*
X66628Y-30251D01*
X66561Y-30412D01*
X66561Y-30587D01*
X66628Y-30748D01*
X66751Y-30872D01*
X66912Y-30939D01*
X67087Y-30939D01*
X67248Y-30872D01*
X67372Y-30749D01*
X67439Y-30588D01*
X67439Y-30413D01*
X67372Y-30252D01*
X67294Y-30174D01*
X67324Y-30174D01*
X67388Y-30175D01*
X67450Y-30113D01*
X67450Y-31035D01*
X66439Y-31035D01*
X66439Y-30588D01*
X66439Y-30413D01*
X66372Y-30252D01*
X66249Y-30128D01*
X66088Y-30061D01*
X65913Y-30061D01*
X65752Y-30128D01*
X65628Y-30251D01*
X65561Y-30412D01*
X65561Y-30587D01*
X65628Y-30748D01*
X65751Y-30872D01*
X65912Y-30939D01*
X66087Y-30939D01*
X66248Y-30872D01*
X66372Y-30749D01*
X66439Y-30588D01*
X66439Y-31035D01*
X65439Y-31035D01*
X65439Y-30588D01*
X65439Y-30413D01*
X65372Y-30252D01*
X65249Y-30128D01*
X65088Y-30061D01*
X64913Y-30061D01*
X64752Y-30128D01*
X64628Y-30251D01*
X64561Y-30412D01*
X64561Y-30587D01*
X64628Y-30748D01*
X64751Y-30872D01*
X64912Y-30939D01*
X65087Y-30939D01*
X65248Y-30872D01*
X65372Y-30749D01*
X65439Y-30588D01*
X65439Y-31035D01*
X64439Y-31035D01*
X64439Y-30588D01*
X64439Y-30413D01*
X64372Y-30252D01*
X64249Y-30128D01*
X64088Y-30061D01*
X63913Y-30061D01*
X63752Y-30128D01*
X63628Y-30251D01*
X63561Y-30412D01*
X63561Y-30587D01*
X63628Y-30748D01*
X63751Y-30872D01*
X63912Y-30939D01*
X64087Y-30939D01*
X64248Y-30872D01*
X64372Y-30749D01*
X64439Y-30588D01*
X64439Y-31035D01*
X63439Y-31035D01*
X63439Y-30588D01*
X63439Y-30413D01*
X63372Y-30252D01*
X63249Y-30128D01*
X63088Y-30061D01*
X62913Y-30061D01*
X62752Y-30128D01*
X62628Y-30251D01*
X62561Y-30412D01*
X62561Y-30587D01*
X62628Y-30748D01*
X62751Y-30872D01*
X62912Y-30939D01*
X63087Y-30939D01*
X63248Y-30872D01*
X63372Y-30749D01*
X63439Y-30588D01*
X63439Y-31035D01*
X62439Y-31035D01*
X62439Y-30588D01*
X62439Y-30413D01*
X62421Y-30369D01*
X62421Y-27334D01*
X62421Y-27216D01*
X62376Y-27107D01*
X62293Y-27024D01*
X62184Y-26979D01*
X62066Y-26979D01*
X61957Y-27024D01*
X61874Y-27107D01*
X61858Y-27144D01*
X61742Y-27261D01*
X60752Y-27261D01*
X60701Y-27282D01*
X60662Y-27322D01*
X60641Y-27373D01*
X60641Y-27428D01*
X60641Y-28228D01*
X60662Y-28279D01*
X60702Y-28318D01*
X60753Y-28339D01*
X60808Y-28339D01*
X62248Y-28339D01*
X62299Y-28318D01*
X62338Y-28278D01*
X62359Y-28227D01*
X62359Y-28172D01*
X62359Y-27460D01*
X62376Y-27443D01*
X62421Y-27334D01*
X62421Y-30369D01*
X62372Y-30252D01*
X62249Y-30128D01*
X62088Y-30061D01*
X61913Y-30061D01*
X61752Y-30128D01*
X61628Y-30251D01*
X61561Y-30412D01*
X61561Y-30587D01*
X61628Y-30748D01*
X61751Y-30872D01*
X61912Y-30939D01*
X62087Y-30939D01*
X62248Y-30872D01*
X62372Y-30749D01*
X62439Y-30588D01*
X62439Y-31035D01*
X61439Y-31035D01*
X61439Y-30588D01*
X61439Y-30413D01*
X61372Y-30252D01*
X61249Y-30128D01*
X61088Y-30061D01*
X60913Y-30061D01*
X60752Y-30128D01*
X60628Y-30251D01*
X60561Y-30412D01*
X60561Y-30587D01*
X60628Y-30748D01*
X60751Y-30872D01*
X60912Y-30939D01*
X61087Y-30939D01*
X61248Y-30872D01*
X61372Y-30749D01*
X61439Y-30588D01*
X61439Y-31035D01*
X60439Y-31035D01*
X60439Y-30588D01*
X60439Y-30413D01*
X60372Y-30252D01*
X60249Y-30128D01*
X60088Y-30061D01*
X59913Y-30061D01*
X59752Y-30128D01*
X59628Y-30251D01*
X59561Y-30412D01*
X59561Y-30587D01*
X59628Y-30748D01*
X59751Y-30872D01*
X59912Y-30939D01*
X60087Y-30939D01*
X60248Y-30872D01*
X60372Y-30749D01*
X60439Y-30588D01*
X60439Y-31035D01*
X59439Y-31035D01*
X59439Y-30588D01*
X59439Y-30413D01*
X59372Y-30252D01*
X59249Y-30128D01*
X59088Y-30061D01*
X58913Y-30061D01*
X58752Y-30128D01*
X58628Y-30251D01*
X58561Y-30412D01*
X58561Y-30587D01*
X58628Y-30748D01*
X58751Y-30872D01*
X58912Y-30939D01*
X59087Y-30939D01*
X59248Y-30872D01*
X59372Y-30749D01*
X59439Y-30588D01*
X59439Y-31035D01*
X52439Y-31035D01*
X52439Y-30588D01*
X52439Y-30413D01*
X52372Y-30252D01*
X52249Y-30128D01*
X52088Y-30061D01*
X51913Y-30061D01*
X51752Y-30128D01*
X51628Y-30251D01*
X51561Y-30412D01*
X51561Y-30587D01*
X51628Y-30748D01*
X51751Y-30872D01*
X51912Y-30939D01*
X52087Y-30939D01*
X52248Y-30872D01*
X52372Y-30749D01*
X52439Y-30588D01*
X52439Y-31035D01*
X51439Y-31035D01*
X51439Y-30588D01*
X51439Y-30413D01*
X51372Y-30252D01*
X51249Y-30128D01*
X51185Y-30101D01*
X51185Y-29920D01*
X51171Y-29849D01*
X51131Y-29789D01*
X50715Y-29373D01*
X50655Y-29333D01*
X50584Y-29319D01*
X49706Y-29319D01*
X49708Y-29315D01*
X49709Y-29242D01*
X49647Y-29180D01*
X49362Y-29180D01*
X49312Y-29180D01*
X49212Y-29180D01*
X49212Y-29080D01*
X49312Y-29080D01*
X49362Y-29080D01*
X49647Y-29080D01*
X49709Y-29018D01*
X49708Y-28945D01*
X49696Y-28916D01*
X49750Y-28863D01*
X49750Y-28550D01*
X49750Y-28500D01*
X49750Y-28400D01*
X49750Y-28350D01*
X49750Y-28037D01*
X49688Y-27975D01*
X49750Y-27913D01*
X49750Y-27550D01*
X49750Y-27450D01*
X49750Y-27213D01*
X49750Y-27087D01*
X49750Y-26850D01*
X49750Y-26750D01*
X49750Y-26513D01*
X49750Y-26387D01*
X49750Y-26150D01*
X49750Y-26050D01*
X49750Y-25863D01*
X49750Y-25687D01*
X49750Y-25500D01*
X49750Y-25400D01*
X49750Y-25037D01*
X49688Y-24975D01*
X49626Y-24976D01*
X49534Y-25014D01*
X49464Y-25084D01*
X49426Y-25175D01*
X49426Y-25274D01*
X49425Y-25338D01*
X49487Y-25400D01*
X49750Y-25400D01*
X49750Y-25500D01*
X49487Y-25500D01*
X49425Y-25562D01*
X49426Y-25626D01*
X49426Y-25725D01*
X49446Y-25775D01*
X49426Y-25825D01*
X49426Y-25924D01*
X49425Y-25988D01*
X49487Y-26050D01*
X49750Y-26050D01*
X49750Y-26150D01*
X49487Y-26150D01*
X49425Y-26212D01*
X49426Y-26276D01*
X49426Y-26375D01*
X49457Y-26450D01*
X49426Y-26525D01*
X49426Y-26624D01*
X49425Y-26688D01*
X49487Y-26750D01*
X49750Y-26750D01*
X49750Y-26850D01*
X49487Y-26850D01*
X49425Y-26912D01*
X49426Y-26976D01*
X49426Y-27075D01*
X49457Y-27150D01*
X49426Y-27225D01*
X49426Y-27324D01*
X49425Y-27388D01*
X49487Y-27450D01*
X49750Y-27450D01*
X49750Y-27550D01*
X49487Y-27550D01*
X49425Y-27612D01*
X49426Y-27676D01*
X49426Y-27775D01*
X49464Y-27866D01*
X49534Y-27936D01*
X49626Y-27974D01*
X49688Y-27975D01*
X49626Y-27976D01*
X49534Y-28014D01*
X49464Y-28084D01*
X49447Y-28124D01*
X49447Y-28022D01*
X49433Y-27951D01*
X49393Y-27891D01*
X49091Y-27589D01*
X49031Y-27549D01*
X48960Y-27535D01*
X48664Y-27535D01*
X48664Y-26802D01*
X48664Y-26747D01*
X48664Y-26497D01*
X48643Y-26446D01*
X48603Y-26407D01*
X48552Y-26386D01*
X48497Y-26386D01*
X48047Y-26386D01*
X47996Y-26407D01*
X47957Y-26447D01*
X47936Y-26498D01*
X47936Y-26553D01*
X47936Y-26803D01*
X47957Y-26854D01*
X47997Y-26893D01*
X48048Y-26914D01*
X48094Y-26914D01*
X48096Y-26918D01*
X48179Y-27001D01*
X48288Y-27046D01*
X48406Y-27046D01*
X48515Y-27001D01*
X48598Y-26918D01*
X48611Y-26885D01*
X48643Y-26853D01*
X48664Y-26802D01*
X48664Y-27535D01*
X47076Y-27535D01*
X47045Y-27503D01*
X47045Y-26606D01*
X47354Y-26296D01*
X47398Y-26314D01*
X47453Y-26314D01*
X47903Y-26314D01*
X47954Y-26293D01*
X47974Y-26271D01*
X47997Y-26293D01*
X48048Y-26314D01*
X48103Y-26314D01*
X48553Y-26314D01*
X48604Y-26293D01*
X48643Y-26253D01*
X48664Y-26202D01*
X48664Y-26147D01*
X48664Y-26086D01*
X48696Y-26009D01*
X48696Y-25891D01*
X48651Y-25782D01*
X48568Y-25699D01*
X48459Y-25654D01*
X48341Y-25654D01*
X48232Y-25699D01*
X48149Y-25782D01*
X48147Y-25786D01*
X48047Y-25786D01*
X47996Y-25807D01*
X47975Y-25828D01*
X47953Y-25807D01*
X47902Y-25786D01*
X47847Y-25786D01*
X47397Y-25786D01*
X47346Y-25807D01*
X47307Y-25847D01*
X47296Y-25873D01*
X47269Y-25879D01*
X47209Y-25919D01*
X47207Y-25921D01*
X46729Y-26399D01*
X46689Y-26459D01*
X46675Y-26530D01*
X46675Y-27580D01*
X46675Y-27710D01*
X46675Y-27715D01*
X46675Y-27720D01*
X46675Y-27820D01*
X46675Y-29062D01*
X46658Y-29021D01*
X46618Y-28982D01*
X46567Y-28961D01*
X46512Y-28961D01*
X46252Y-28961D01*
X46201Y-28982D01*
X46176Y-29007D01*
X46169Y-29009D01*
X46109Y-29049D01*
X46107Y-29051D01*
X45132Y-30025D01*
X45098Y-30011D01*
X44903Y-30011D01*
X44723Y-30085D01*
X44586Y-30223D01*
X44511Y-30402D01*
X44511Y-30597D01*
X44585Y-30777D01*
X44723Y-30914D01*
X44902Y-30989D01*
X45097Y-30989D01*
X45277Y-30915D01*
X45414Y-30777D01*
X45489Y-30598D01*
X45489Y-30403D01*
X45427Y-30254D01*
X46054Y-29626D01*
X46069Y-29661D01*
X46139Y-29731D01*
X46141Y-29731D01*
X46141Y-29808D01*
X46162Y-29859D01*
X46202Y-29898D01*
X46253Y-29919D01*
X46299Y-29919D01*
X46136Y-30081D01*
X46088Y-30061D01*
X45913Y-30061D01*
X45752Y-30128D01*
X45628Y-30251D01*
X45561Y-30412D01*
X45561Y-30587D01*
X45628Y-30748D01*
X45751Y-30872D01*
X45912Y-30939D01*
X46087Y-30939D01*
X46248Y-30872D01*
X46372Y-30749D01*
X46439Y-30588D01*
X46439Y-30413D01*
X46406Y-30335D01*
X46857Y-29885D01*
X46988Y-29885D01*
X47002Y-29898D01*
X47053Y-29919D01*
X47108Y-29919D01*
X47269Y-29919D01*
X47115Y-30072D01*
X47088Y-30061D01*
X46913Y-30061D01*
X46752Y-30128D01*
X46628Y-30251D01*
X46561Y-30412D01*
X46561Y-30587D01*
X46628Y-30748D01*
X46751Y-30872D01*
X46912Y-30939D01*
X47087Y-30939D01*
X47248Y-30872D01*
X47372Y-30749D01*
X47439Y-30588D01*
X47439Y-30413D01*
X47397Y-30314D01*
X47654Y-30057D01*
X47659Y-30081D01*
X47699Y-30141D01*
X47718Y-30160D01*
X47628Y-30251D01*
X47561Y-30412D01*
X47561Y-30587D01*
X47628Y-30748D01*
X47751Y-30872D01*
X47912Y-30939D01*
X48087Y-30939D01*
X48248Y-30872D01*
X48372Y-30749D01*
X48439Y-30588D01*
X48439Y-30413D01*
X48372Y-30252D01*
X48249Y-30128D01*
X48158Y-30090D01*
X48131Y-30049D01*
X48015Y-29933D01*
X48015Y-29779D01*
X48061Y-29779D01*
X48067Y-29809D01*
X48107Y-29869D01*
X48587Y-30348D01*
X48561Y-30412D01*
X48561Y-30587D01*
X48628Y-30748D01*
X48751Y-30872D01*
X48912Y-30939D01*
X49087Y-30939D01*
X49248Y-30872D01*
X49372Y-30749D01*
X49439Y-30588D01*
X49439Y-30413D01*
X49372Y-30252D01*
X49265Y-30145D01*
X49383Y-30145D01*
X49587Y-30348D01*
X49561Y-30412D01*
X49561Y-30587D01*
X49628Y-30748D01*
X49751Y-30872D01*
X49912Y-30939D01*
X50087Y-30939D01*
X50248Y-30872D01*
X50372Y-30749D01*
X50439Y-30588D01*
X50439Y-30413D01*
X50372Y-30252D01*
X50249Y-30128D01*
X50088Y-30061D01*
X49913Y-30061D01*
X49849Y-30087D01*
X49591Y-29829D01*
X49531Y-29789D01*
X49480Y-29779D01*
X49487Y-29779D01*
X49538Y-29758D01*
X49577Y-29718D01*
X49588Y-29689D01*
X50507Y-29689D01*
X50815Y-29997D01*
X50815Y-30101D01*
X50752Y-30128D01*
X50628Y-30251D01*
X50561Y-30412D01*
X50561Y-30587D01*
X50628Y-30748D01*
X50751Y-30872D01*
X50912Y-30939D01*
X51087Y-30939D01*
X51248Y-30872D01*
X51372Y-30749D01*
X51439Y-30588D01*
X51439Y-31035D01*
X44500Y-31035D01*
X44465Y-31035D01*
X44465Y-21965D01*
X67924Y-21965D01*
X67866Y-21968D01*
X67719Y-22028D01*
X67692Y-22122D01*
X68000Y-22429D01*
X68308Y-22122D01*
X68281Y-22028D01*
X68101Y-21965D01*
X69535Y-21965D01*
X69535Y-22000D01*
X69535Y-31035D01*
X69535Y-31035D01*
G37*
G54D30*
X69535Y-31035D02*
X69496Y-31035D01*
X69496Y-26109D01*
X69496Y-25991D01*
X69451Y-25882D01*
X69410Y-25841D01*
X69410Y-23500D01*
X69410Y-23250D01*
X69410Y-23100D01*
X69410Y-22886D01*
X69418Y-22878D01*
X69439Y-22827D01*
X69439Y-22772D01*
X69439Y-22172D01*
X69418Y-22121D01*
X69378Y-22082D01*
X69327Y-22061D01*
X69272Y-22061D01*
X68672Y-22061D01*
X68621Y-22082D01*
X68582Y-22122D01*
X68561Y-22173D01*
X68561Y-22228D01*
X68561Y-22828D01*
X68582Y-22879D01*
X68622Y-22918D01*
X68673Y-22939D01*
X68728Y-22939D01*
X68990Y-22939D01*
X68990Y-23013D01*
X68913Y-23090D01*
X68543Y-23090D01*
X68543Y-22579D01*
X68532Y-22366D01*
X68472Y-22219D01*
X68378Y-22192D01*
X68071Y-22500D01*
X68378Y-22808D01*
X68472Y-22781D01*
X68543Y-22579D01*
X68543Y-23090D01*
X68050Y-23090D01*
X67975Y-23105D01*
X67975Y-23100D01*
X67962Y-23100D01*
X67975Y-23088D01*
X67974Y-23040D01*
X68134Y-23032D01*
X68281Y-22972D01*
X68308Y-22878D01*
X68035Y-22606D01*
X68000Y-22571D01*
X67929Y-22500D01*
X67894Y-22465D01*
X67622Y-22192D01*
X67528Y-22219D01*
X67457Y-22421D01*
X67468Y-22634D01*
X67528Y-22781D01*
X67566Y-22792D01*
X67534Y-22825D01*
X67573Y-22864D01*
X67550Y-22887D01*
X67550Y-23100D01*
X67550Y-23150D01*
X67550Y-23250D01*
X67450Y-23250D01*
X67450Y-23150D01*
X67450Y-22887D01*
X67388Y-22825D01*
X67324Y-22826D01*
X67294Y-22826D01*
X67372Y-22749D01*
X67439Y-22588D01*
X67439Y-22413D01*
X67372Y-22252D01*
X67249Y-22128D01*
X67088Y-22061D01*
X66913Y-22061D01*
X66752Y-22128D01*
X66628Y-22251D01*
X66561Y-22412D01*
X66561Y-22587D01*
X66628Y-22748D01*
X66751Y-22872D01*
X66912Y-22939D01*
X67061Y-22939D01*
X67026Y-23026D01*
X67025Y-23088D01*
X67087Y-23150D01*
X67450Y-23150D01*
X67450Y-23250D01*
X67400Y-23250D01*
X67087Y-23250D01*
X67047Y-23290D01*
X66439Y-23290D01*
X66439Y-22588D01*
X66439Y-22413D01*
X66372Y-22252D01*
X66249Y-22128D01*
X66088Y-22061D01*
X65913Y-22061D01*
X65752Y-22128D01*
X65628Y-22251D01*
X65561Y-22412D01*
X65561Y-22587D01*
X65628Y-22748D01*
X65751Y-22872D01*
X65912Y-22939D01*
X66087Y-22939D01*
X66248Y-22872D01*
X66372Y-22749D01*
X66439Y-22588D01*
X66439Y-23290D01*
X66100Y-23290D01*
X66020Y-23306D01*
X65997Y-23321D01*
X65951Y-23352D01*
X65439Y-23864D01*
X65439Y-22588D01*
X65439Y-22413D01*
X65372Y-22252D01*
X65249Y-22128D01*
X65088Y-22061D01*
X64913Y-22061D01*
X64752Y-22128D01*
X64628Y-22251D01*
X64561Y-22412D01*
X64561Y-22587D01*
X64628Y-22748D01*
X64751Y-22872D01*
X64912Y-22939D01*
X65087Y-22939D01*
X65248Y-22872D01*
X65372Y-22749D01*
X65439Y-22588D01*
X65439Y-23864D01*
X65200Y-24104D01*
X65154Y-24171D01*
X65151Y-24184D01*
X65138Y-24252D01*
X65138Y-24492D01*
X65065Y-24492D01*
X65053Y-24496D01*
X65041Y-24492D01*
X64986Y-24492D01*
X64868Y-24492D01*
X64856Y-24496D01*
X64844Y-24492D01*
X64789Y-24492D01*
X64671Y-24492D01*
X64659Y-24496D01*
X64648Y-24492D01*
X64593Y-24492D01*
X64475Y-24492D01*
X64463Y-24496D01*
X64451Y-24492D01*
X64439Y-24492D01*
X64439Y-22588D01*
X64439Y-22413D01*
X64372Y-22252D01*
X64249Y-22128D01*
X64088Y-22061D01*
X63913Y-22061D01*
X63752Y-22128D01*
X63628Y-22251D01*
X63561Y-22412D01*
X63561Y-22587D01*
X63628Y-22748D01*
X63751Y-22872D01*
X63912Y-22939D01*
X64087Y-22939D01*
X64248Y-22872D01*
X64372Y-22749D01*
X64439Y-22588D01*
X64439Y-24492D01*
X64438Y-24492D01*
X64438Y-24490D01*
X64368Y-24420D01*
X64276Y-24382D01*
X64259Y-24381D01*
X64197Y-24443D01*
X64197Y-24543D01*
X64188Y-24553D01*
X64167Y-24604D01*
X64167Y-24659D01*
X64167Y-24807D01*
X64155Y-24867D01*
X64155Y-24917D01*
X64139Y-24917D01*
X64139Y-24817D01*
X64139Y-24443D01*
X64077Y-24381D01*
X64060Y-24382D01*
X63968Y-24420D01*
X63966Y-24422D01*
X63966Y-24059D01*
X63966Y-23941D01*
X63921Y-23832D01*
X63838Y-23749D01*
X63729Y-23704D01*
X63611Y-23704D01*
X63502Y-23749D01*
X63439Y-23812D01*
X63439Y-22588D01*
X63439Y-22413D01*
X63372Y-22252D01*
X63249Y-22128D01*
X63088Y-22061D01*
X62913Y-22061D01*
X62752Y-22128D01*
X62628Y-22251D01*
X62561Y-22412D01*
X62561Y-22587D01*
X62628Y-22748D01*
X62751Y-22872D01*
X62912Y-22939D01*
X63087Y-22939D01*
X63248Y-22872D01*
X63372Y-22749D01*
X63439Y-22588D01*
X63439Y-23812D01*
X63419Y-23832D01*
X63376Y-23936D01*
X63376Y-23891D01*
X63331Y-23782D01*
X63248Y-23699D01*
X63139Y-23654D01*
X63096Y-23654D01*
X62721Y-23279D01*
X62661Y-23239D01*
X62590Y-23225D01*
X62439Y-23225D01*
X62439Y-22588D01*
X62439Y-22413D01*
X62372Y-22252D01*
X62249Y-22128D01*
X62088Y-22061D01*
X61913Y-22061D01*
X61752Y-22128D01*
X61628Y-22251D01*
X61561Y-22412D01*
X61561Y-22587D01*
X61628Y-22748D01*
X61751Y-22872D01*
X61912Y-22939D01*
X62087Y-22939D01*
X62248Y-22872D01*
X62372Y-22749D01*
X62439Y-22588D01*
X62439Y-23225D01*
X61439Y-23225D01*
X61439Y-22588D01*
X61439Y-22413D01*
X61372Y-22252D01*
X61249Y-22128D01*
X61088Y-22061D01*
X60913Y-22061D01*
X60752Y-22128D01*
X60628Y-22251D01*
X60561Y-22412D01*
X60561Y-22587D01*
X60628Y-22748D01*
X60751Y-22872D01*
X60912Y-22939D01*
X61087Y-22939D01*
X61248Y-22872D01*
X61372Y-22749D01*
X61439Y-22588D01*
X61439Y-23225D01*
X60486Y-23225D01*
X60185Y-22923D01*
X60185Y-22898D01*
X60248Y-22872D01*
X60372Y-22749D01*
X60439Y-22588D01*
X60439Y-22413D01*
X60372Y-22252D01*
X60249Y-22128D01*
X60088Y-22061D01*
X59913Y-22061D01*
X59752Y-22128D01*
X59628Y-22251D01*
X59561Y-22412D01*
X59561Y-22587D01*
X59628Y-22748D01*
X59751Y-22872D01*
X59815Y-22898D01*
X59815Y-23000D01*
X59828Y-23066D01*
X59412Y-22651D01*
X59439Y-22588D01*
X59439Y-22413D01*
X59372Y-22252D01*
X59249Y-22128D01*
X59088Y-22061D01*
X58913Y-22061D01*
X58752Y-22128D01*
X58628Y-22251D01*
X58561Y-22412D01*
X58561Y-22587D01*
X58628Y-22748D01*
X58751Y-22872D01*
X58912Y-22939D01*
X59087Y-22939D01*
X59150Y-22912D01*
X59967Y-23728D01*
X59969Y-23731D01*
X60029Y-23771D01*
X60100Y-23785D01*
X62233Y-23785D01*
X62829Y-24381D01*
X62889Y-24421D01*
X62960Y-24435D01*
X63358Y-24435D01*
X63429Y-24421D01*
X63489Y-24381D01*
X63584Y-24285D01*
X63611Y-24296D01*
X63729Y-24296D01*
X63838Y-24251D01*
X63921Y-24168D01*
X63966Y-24059D01*
X63966Y-24422D01*
X63898Y-24490D01*
X63860Y-24581D01*
X63860Y-24680D01*
X63859Y-24755D01*
X63921Y-24817D01*
X64139Y-24817D01*
X64139Y-24917D01*
X64068Y-24917D01*
X63921Y-24917D01*
X63859Y-24979D01*
X63860Y-25054D01*
X63860Y-25153D01*
X63889Y-25223D01*
X63880Y-25220D01*
X63825Y-25220D01*
X63353Y-25220D01*
X63321Y-25233D01*
X63063Y-25233D01*
X63250Y-25046D01*
X63309Y-25046D01*
X63418Y-25001D01*
X63501Y-24918D01*
X63546Y-24809D01*
X63546Y-24691D01*
X63501Y-24582D01*
X63418Y-24499D01*
X63309Y-24454D01*
X63191Y-24454D01*
X63082Y-24499D01*
X62999Y-24582D01*
X62954Y-24691D01*
X62954Y-24749D01*
X62739Y-24964D01*
X62739Y-24772D01*
X62718Y-24721D01*
X62678Y-24682D01*
X62627Y-24661D01*
X62572Y-24661D01*
X62172Y-24661D01*
X62121Y-24682D01*
X62082Y-24722D01*
X62061Y-24773D01*
X62061Y-24828D01*
X62061Y-25313D01*
X61989Y-25284D01*
X61930Y-25284D01*
X61839Y-25192D01*
X61839Y-24772D01*
X61818Y-24721D01*
X61778Y-24682D01*
X61727Y-24661D01*
X61672Y-24661D01*
X61272Y-24661D01*
X61221Y-24682D01*
X61182Y-24722D01*
X61161Y-24773D01*
X61161Y-24828D01*
X61161Y-25628D01*
X61176Y-25665D01*
X61042Y-25665D01*
X61049Y-25650D01*
X61049Y-25551D01*
X61050Y-25312D01*
X61050Y-25088D01*
X61049Y-24849D01*
X61049Y-24750D01*
X61011Y-24659D01*
X60941Y-24589D01*
X60849Y-24551D01*
X60712Y-24550D01*
X60650Y-24612D01*
X60650Y-25150D01*
X60988Y-25150D01*
X61050Y-25088D01*
X61050Y-25312D01*
X60988Y-25250D01*
X60700Y-25250D01*
X60650Y-25250D01*
X60550Y-25250D01*
X60550Y-25150D01*
X60550Y-24612D01*
X60488Y-24550D01*
X60351Y-24551D01*
X60259Y-24589D01*
X60189Y-24659D01*
X60151Y-24750D01*
X60151Y-24849D01*
X60150Y-25088D01*
X60212Y-25150D01*
X60550Y-25150D01*
X60550Y-25250D01*
X60500Y-25250D01*
X60212Y-25250D01*
X60150Y-25312D01*
X60151Y-25551D01*
X60151Y-25650D01*
X60157Y-25665D01*
X59176Y-25665D01*
X59085Y-25573D01*
X59085Y-24500D01*
X59085Y-23550D01*
X59083Y-23540D01*
X59096Y-23509D01*
X59096Y-23391D01*
X59051Y-23282D01*
X58968Y-23199D01*
X58859Y-23154D01*
X58741Y-23154D01*
X58632Y-23199D01*
X58549Y-23282D01*
X58504Y-23391D01*
X58504Y-23509D01*
X58549Y-23618D01*
X58632Y-23701D01*
X58715Y-23735D01*
X58715Y-23853D01*
X58606Y-23744D01*
X58546Y-23704D01*
X58475Y-23690D01*
X56775Y-23690D01*
X56774Y-23690D01*
X56704Y-23704D01*
X56644Y-23744D01*
X56642Y-23746D01*
X56573Y-23815D01*
X56525Y-23815D01*
X56276Y-23815D01*
X56136Y-23675D01*
X57720Y-23675D01*
X57791Y-23661D01*
X57851Y-23621D01*
X58130Y-23342D01*
X58130Y-23341D01*
X58131Y-23341D01*
X58170Y-23281D01*
X58171Y-23281D01*
X58182Y-23222D01*
X58185Y-23211D01*
X58184Y-23210D01*
X58185Y-23210D01*
X58185Y-22898D01*
X58248Y-22872D01*
X58372Y-22749D01*
X58439Y-22588D01*
X58439Y-22413D01*
X58372Y-22252D01*
X58249Y-22128D01*
X58088Y-22061D01*
X57913Y-22061D01*
X57752Y-22128D01*
X57628Y-22251D01*
X57561Y-22412D01*
X57561Y-22587D01*
X57628Y-22748D01*
X57751Y-22872D01*
X57815Y-22898D01*
X57815Y-23133D01*
X57643Y-23305D01*
X57439Y-23305D01*
X57439Y-22588D01*
X57439Y-22413D01*
X57372Y-22252D01*
X57249Y-22128D01*
X57088Y-22061D01*
X56913Y-22061D01*
X56752Y-22128D01*
X56628Y-22251D01*
X56561Y-22412D01*
X56561Y-22587D01*
X56628Y-22748D01*
X56751Y-22872D01*
X56912Y-22939D01*
X57087Y-22939D01*
X57248Y-22872D01*
X57372Y-22749D01*
X57439Y-22588D01*
X57439Y-23305D01*
X55456Y-23305D01*
X55848Y-22912D01*
X55912Y-22939D01*
X56087Y-22939D01*
X56248Y-22872D01*
X56372Y-22749D01*
X56439Y-22588D01*
X56439Y-22413D01*
X56372Y-22252D01*
X56249Y-22128D01*
X56088Y-22061D01*
X55913Y-22061D01*
X55752Y-22128D01*
X55628Y-22251D01*
X55561Y-22412D01*
X55561Y-22587D01*
X55587Y-22650D01*
X55248Y-22990D01*
X54671Y-22990D01*
X54778Y-22883D01*
X54912Y-22939D01*
X55087Y-22939D01*
X55248Y-22872D01*
X55372Y-22749D01*
X55439Y-22588D01*
X55439Y-22413D01*
X55372Y-22252D01*
X55249Y-22128D01*
X55088Y-22061D01*
X54913Y-22061D01*
X54752Y-22128D01*
X54628Y-22251D01*
X54561Y-22412D01*
X54561Y-22577D01*
X54348Y-22790D01*
X54330Y-22790D01*
X54372Y-22749D01*
X54439Y-22588D01*
X54439Y-22413D01*
X54372Y-22252D01*
X54249Y-22128D01*
X54088Y-22061D01*
X53913Y-22061D01*
X53752Y-22128D01*
X53628Y-22251D01*
X53561Y-22412D01*
X53561Y-22587D01*
X53599Y-22679D01*
X53566Y-22679D01*
X53457Y-22724D01*
X53439Y-22742D01*
X53439Y-22588D01*
X53439Y-22413D01*
X53372Y-22252D01*
X53249Y-22128D01*
X53088Y-22061D01*
X52913Y-22061D01*
X52752Y-22128D01*
X52628Y-22251D01*
X52561Y-22412D01*
X52561Y-22587D01*
X52628Y-22748D01*
X52751Y-22872D01*
X52912Y-22939D01*
X53087Y-22939D01*
X53248Y-22872D01*
X53372Y-22749D01*
X53439Y-22588D01*
X53439Y-22742D01*
X53374Y-22807D01*
X53329Y-22916D01*
X53329Y-23034D01*
X53374Y-23143D01*
X53457Y-23226D01*
X53481Y-23236D01*
X53479Y-23239D01*
X53439Y-23299D01*
X53425Y-23370D01*
X53425Y-23480D01*
X53425Y-23673D01*
X53121Y-23369D01*
X53061Y-23329D01*
X52990Y-23315D01*
X52439Y-23315D01*
X52439Y-22588D01*
X52439Y-22413D01*
X52372Y-22252D01*
X52249Y-22128D01*
X52088Y-22061D01*
X51913Y-22061D01*
X51752Y-22128D01*
X51628Y-22251D01*
X51561Y-22412D01*
X51561Y-22587D01*
X51628Y-22748D01*
X51751Y-22872D01*
X51912Y-22939D01*
X52087Y-22939D01*
X52248Y-22872D01*
X52372Y-22749D01*
X52439Y-22588D01*
X52439Y-23315D01*
X52430Y-23315D01*
X51439Y-23315D01*
X51439Y-22588D01*
X51439Y-22413D01*
X51372Y-22252D01*
X51249Y-22128D01*
X51088Y-22061D01*
X50913Y-22061D01*
X50752Y-22128D01*
X50628Y-22251D01*
X50561Y-22412D01*
X50561Y-22587D01*
X50628Y-22748D01*
X50751Y-22872D01*
X50912Y-22939D01*
X51087Y-22939D01*
X51248Y-22872D01*
X51372Y-22749D01*
X51439Y-22588D01*
X51439Y-23315D01*
X50750Y-23315D01*
X50679Y-23329D01*
X50619Y-23369D01*
X50617Y-23371D01*
X50534Y-23454D01*
X50446Y-23454D01*
X50446Y-23441D01*
X50439Y-23424D01*
X50439Y-22588D01*
X50439Y-22413D01*
X50372Y-22252D01*
X50249Y-22128D01*
X50088Y-22061D01*
X49913Y-22061D01*
X49752Y-22128D01*
X49628Y-22251D01*
X49561Y-22412D01*
X49561Y-22587D01*
X49628Y-22748D01*
X49751Y-22872D01*
X49912Y-22939D01*
X50087Y-22939D01*
X50248Y-22872D01*
X50372Y-22749D01*
X50439Y-22588D01*
X50439Y-23424D01*
X50401Y-23332D01*
X50318Y-23249D01*
X50209Y-23204D01*
X50091Y-23204D01*
X49982Y-23249D01*
X49899Y-23332D01*
X49858Y-23429D01*
X49635Y-23653D01*
X49635Y-23584D01*
X49701Y-23518D01*
X49746Y-23409D01*
X49746Y-23291D01*
X49701Y-23182D01*
X49618Y-23099D01*
X49509Y-23054D01*
X49439Y-23054D01*
X49439Y-22588D01*
X49439Y-22413D01*
X49372Y-22252D01*
X49249Y-22128D01*
X49088Y-22061D01*
X48913Y-22061D01*
X48752Y-22128D01*
X48628Y-22251D01*
X48561Y-22412D01*
X48561Y-22587D01*
X48628Y-22748D01*
X48751Y-22872D01*
X48912Y-22939D01*
X49087Y-22939D01*
X49248Y-22872D01*
X49372Y-22749D01*
X49439Y-22588D01*
X49439Y-23054D01*
X49391Y-23054D01*
X49282Y-23099D01*
X49199Y-23182D01*
X49197Y-23185D01*
X49031Y-23019D01*
X48971Y-22979D01*
X48900Y-22965D01*
X48650Y-22965D01*
X48579Y-22979D01*
X48519Y-23019D01*
X48473Y-23065D01*
X48439Y-23065D01*
X48439Y-22588D01*
X48439Y-22413D01*
X48372Y-22252D01*
X48249Y-22128D01*
X48088Y-22061D01*
X47913Y-22061D01*
X47752Y-22128D01*
X47628Y-22251D01*
X47561Y-22412D01*
X47561Y-22587D01*
X47628Y-22748D01*
X47751Y-22872D01*
X47912Y-22939D01*
X48087Y-22939D01*
X48248Y-22872D01*
X48372Y-22749D01*
X48439Y-22588D01*
X48439Y-23065D01*
X47439Y-23065D01*
X47439Y-22588D01*
X47439Y-22413D01*
X47372Y-22252D01*
X47249Y-22128D01*
X47088Y-22061D01*
X46913Y-22061D01*
X46752Y-22128D01*
X46628Y-22251D01*
X46561Y-22412D01*
X46561Y-22587D01*
X46628Y-22748D01*
X46751Y-22872D01*
X46912Y-22939D01*
X47087Y-22939D01*
X47248Y-22872D01*
X47372Y-22749D01*
X47439Y-22588D01*
X47439Y-23065D01*
X46227Y-23065D01*
X46185Y-23023D01*
X46185Y-22898D01*
X46248Y-22872D01*
X46372Y-22749D01*
X46439Y-22588D01*
X46439Y-22413D01*
X46372Y-22252D01*
X46249Y-22128D01*
X46088Y-22061D01*
X45913Y-22061D01*
X45752Y-22128D01*
X45628Y-22251D01*
X45561Y-22412D01*
X45561Y-22587D01*
X45628Y-22748D01*
X45751Y-22872D01*
X45815Y-22898D01*
X45815Y-23100D01*
X45829Y-23171D01*
X45869Y-23231D01*
X45903Y-23265D01*
X45476Y-23265D01*
X45185Y-22973D01*
X45185Y-22952D01*
X45277Y-22915D01*
X45414Y-22777D01*
X45489Y-22598D01*
X45489Y-22403D01*
X45415Y-22223D01*
X45277Y-22086D01*
X45098Y-22011D01*
X44903Y-22011D01*
X44723Y-22085D01*
X44586Y-22223D01*
X44511Y-22402D01*
X44511Y-22597D01*
X44585Y-22777D01*
X44723Y-22914D01*
X44815Y-22952D01*
X44815Y-23050D01*
X44829Y-23121D01*
X44869Y-23181D01*
X45267Y-23578D01*
X45269Y-23581D01*
X45329Y-23621D01*
X45400Y-23635D01*
X45547Y-23635D01*
X45504Y-23741D01*
X45504Y-23859D01*
X45549Y-23968D01*
X45632Y-24051D01*
X45741Y-24096D01*
X45859Y-24096D01*
X45968Y-24051D01*
X46051Y-23968D01*
X46096Y-23859D01*
X46096Y-23835D01*
X48423Y-23835D01*
X48718Y-24130D01*
X48719Y-24131D01*
X48779Y-24171D01*
X48837Y-24182D01*
X48849Y-24185D01*
X48849Y-24184D01*
X48850Y-24185D01*
X49300Y-24185D01*
X49315Y-24182D01*
X49315Y-24200D01*
X49315Y-24373D01*
X48873Y-24815D01*
X47750Y-24815D01*
X47600Y-24815D01*
X47550Y-24815D01*
X46800Y-24815D01*
X46799Y-24815D01*
X46729Y-24829D01*
X46669Y-24869D01*
X46667Y-24871D01*
X46119Y-25419D01*
X46079Y-25479D01*
X46065Y-25550D01*
X46065Y-25566D01*
X45999Y-25632D01*
X45954Y-25741D01*
X45954Y-25859D01*
X45999Y-25968D01*
X46082Y-26051D01*
X46191Y-26096D01*
X46309Y-26096D01*
X46418Y-26051D01*
X46501Y-25968D01*
X46546Y-25859D01*
X46546Y-25741D01*
X46501Y-25632D01*
X46465Y-25596D01*
X46876Y-25185D01*
X47465Y-25185D01*
X47465Y-25186D01*
X47397Y-25186D01*
X47346Y-25207D01*
X47307Y-25247D01*
X47286Y-25298D01*
X47286Y-25353D01*
X47286Y-25603D01*
X47307Y-25654D01*
X47347Y-25693D01*
X47398Y-25714D01*
X47453Y-25714D01*
X47903Y-25714D01*
X47954Y-25693D01*
X47993Y-25653D01*
X48014Y-25602D01*
X48014Y-25547D01*
X48014Y-25297D01*
X47993Y-25246D01*
X47953Y-25207D01*
X47902Y-25186D01*
X47847Y-25186D01*
X47835Y-25186D01*
X47835Y-25185D01*
X48950Y-25185D01*
X49021Y-25171D01*
X49081Y-25131D01*
X49443Y-24767D01*
X49464Y-24816D01*
X49534Y-24886D01*
X49626Y-24924D01*
X49688Y-24925D01*
X49750Y-24863D01*
X49750Y-24550D01*
X49750Y-24500D01*
X49750Y-24400D01*
X49850Y-24400D01*
X49850Y-24500D01*
X49850Y-24550D01*
X49850Y-24863D01*
X49912Y-24925D01*
X49974Y-24924D01*
X50066Y-24886D01*
X50136Y-24816D01*
X50160Y-24757D01*
X50190Y-24786D01*
X50190Y-25113D01*
X50160Y-25143D01*
X50136Y-25084D01*
X50066Y-25014D01*
X49974Y-24976D01*
X49912Y-24975D01*
X49850Y-25037D01*
X49850Y-25350D01*
X49850Y-25400D01*
X49850Y-25500D01*
X49850Y-25550D01*
X49850Y-25687D01*
X49850Y-25863D01*
X49850Y-26000D01*
X49850Y-26050D01*
X49850Y-26150D01*
X49850Y-26200D01*
X49850Y-26387D01*
X49850Y-26513D01*
X49850Y-26700D01*
X49850Y-26750D01*
X49850Y-26850D01*
X49850Y-26900D01*
X49850Y-27087D01*
X49850Y-27213D01*
X49850Y-27400D01*
X49850Y-27450D01*
X49850Y-27550D01*
X49850Y-27600D01*
X49850Y-27913D01*
X49912Y-27975D01*
X49850Y-28037D01*
X49850Y-28350D01*
X49850Y-28400D01*
X49850Y-28500D01*
X49850Y-28550D01*
X49850Y-28863D01*
X49912Y-28925D01*
X49974Y-28924D01*
X50066Y-28886D01*
X50136Y-28816D01*
X50160Y-28757D01*
X50197Y-28793D01*
X50248Y-28814D01*
X50303Y-28814D01*
X50553Y-28814D01*
X50604Y-28793D01*
X50643Y-28753D01*
X50645Y-28746D01*
X50759Y-28746D01*
X50840Y-28712D01*
X50872Y-28743D01*
X50923Y-28764D01*
X50978Y-28764D01*
X51228Y-28764D01*
X51279Y-28743D01*
X51314Y-28706D01*
X51339Y-28766D01*
X51409Y-28836D01*
X51501Y-28874D01*
X51563Y-28875D01*
X51625Y-28813D01*
X51625Y-28500D01*
X51625Y-28450D01*
X51625Y-28350D01*
X51625Y-28300D01*
X51625Y-27987D01*
X51563Y-27925D01*
X51501Y-27926D01*
X51409Y-27964D01*
X51339Y-28034D01*
X51314Y-28092D01*
X51278Y-28057D01*
X51227Y-28036D01*
X51172Y-28036D01*
X50922Y-28036D01*
X50871Y-28057D01*
X50832Y-28097D01*
X50811Y-28148D01*
X50811Y-28175D01*
X50759Y-28154D01*
X50646Y-28154D01*
X50643Y-28146D01*
X50603Y-28107D01*
X50552Y-28086D01*
X50497Y-28086D01*
X50247Y-28086D01*
X50196Y-28107D01*
X50160Y-28143D01*
X50136Y-28084D01*
X50066Y-28014D01*
X49974Y-27976D01*
X49912Y-27975D01*
X49974Y-27974D01*
X50066Y-27936D01*
X50136Y-27866D01*
X50160Y-27807D01*
X50197Y-27843D01*
X50248Y-27864D01*
X50303Y-27864D01*
X50553Y-27864D01*
X50604Y-27843D01*
X50638Y-27807D01*
X50682Y-27851D01*
X50791Y-27896D01*
X50909Y-27896D01*
X51018Y-27851D01*
X51101Y-27768D01*
X51146Y-27659D01*
X51146Y-27600D01*
X51286Y-27460D01*
X51586Y-27460D01*
X51586Y-27778D01*
X51607Y-27829D01*
X51647Y-27868D01*
X51698Y-27889D01*
X51753Y-27889D01*
X52303Y-27889D01*
X52354Y-27868D01*
X52393Y-27828D01*
X52414Y-27777D01*
X52414Y-27722D01*
X52414Y-26722D01*
X52393Y-26671D01*
X52353Y-26632D01*
X52302Y-26611D01*
X52247Y-26611D01*
X52210Y-26611D01*
X52210Y-26389D01*
X52303Y-26389D01*
X52354Y-26368D01*
X52393Y-26328D01*
X52414Y-26277D01*
X52414Y-26222D01*
X52414Y-25222D01*
X52393Y-25171D01*
X52353Y-25132D01*
X52302Y-25111D01*
X52247Y-25111D01*
X51975Y-25111D01*
X51975Y-24662D01*
X51913Y-24600D01*
X51550Y-24600D01*
X51550Y-24863D01*
X51612Y-24925D01*
X51676Y-24924D01*
X51775Y-24924D01*
X51866Y-24886D01*
X51936Y-24816D01*
X51974Y-24724D01*
X51975Y-24662D01*
X51975Y-25111D01*
X51697Y-25111D01*
X51646Y-25132D01*
X51607Y-25172D01*
X51586Y-25223D01*
X51586Y-25278D01*
X51586Y-25867D01*
X51563Y-25890D01*
X51210Y-25890D01*
X51210Y-25864D01*
X51253Y-25864D01*
X51304Y-25843D01*
X51343Y-25803D01*
X51364Y-25752D01*
X51364Y-25697D01*
X51364Y-25447D01*
X51343Y-25396D01*
X51306Y-25360D01*
X51366Y-25336D01*
X51436Y-25266D01*
X51474Y-25174D01*
X51475Y-25112D01*
X51475Y-24888D01*
X51474Y-24826D01*
X51450Y-24767D01*
X51450Y-24600D01*
X51087Y-24600D01*
X51025Y-24662D01*
X51026Y-24724D01*
X51050Y-24782D01*
X51050Y-24950D01*
X51413Y-24950D01*
X51475Y-24888D01*
X51475Y-25112D01*
X51413Y-25050D01*
X51100Y-25050D01*
X51050Y-25050D01*
X50950Y-25050D01*
X50950Y-24950D01*
X50950Y-24900D01*
X50950Y-24687D01*
X50888Y-24625D01*
X50857Y-24625D01*
X50898Y-24598D01*
X51041Y-24454D01*
X51087Y-24500D01*
X51400Y-24500D01*
X51450Y-24500D01*
X51550Y-24500D01*
X51600Y-24500D01*
X51913Y-24500D01*
X51975Y-24438D01*
X51974Y-24376D01*
X51936Y-24284D01*
X51866Y-24214D01*
X51807Y-24189D01*
X51836Y-24160D01*
X52113Y-24160D01*
X52129Y-24198D01*
X52212Y-24281D01*
X52215Y-24282D01*
X52214Y-24284D01*
X52176Y-24376D01*
X52175Y-24438D01*
X52237Y-24500D01*
X52550Y-24500D01*
X52600Y-24500D01*
X52700Y-24500D01*
X52700Y-24600D01*
X52700Y-24650D01*
X52700Y-24863D01*
X52762Y-24925D01*
X52826Y-24924D01*
X52925Y-24924D01*
X52990Y-24896D01*
X53041Y-24948D01*
X53042Y-24948D01*
X53087Y-24978D01*
X53109Y-24993D01*
X53110Y-24994D01*
X53189Y-25009D01*
X53190Y-25010D01*
X53443Y-25010D01*
X53444Y-25010D01*
X53511Y-25078D01*
X53512Y-25078D01*
X53531Y-25091D01*
X53514Y-25109D01*
X53476Y-25201D01*
X53475Y-25638D01*
X53537Y-25700D01*
X53900Y-25700D01*
X53950Y-25700D01*
X54050Y-25700D01*
X54100Y-25700D01*
X54434Y-25700D01*
X54447Y-25708D01*
X54469Y-25723D01*
X54470Y-25724D01*
X54550Y-25740D01*
X54870Y-25740D01*
X54870Y-25739D01*
X54937Y-25726D01*
X54950Y-25724D01*
X54951Y-25724D01*
X55018Y-25678D01*
X55052Y-25643D01*
X55067Y-25650D01*
X55034Y-25664D01*
X54964Y-25734D01*
X54926Y-25825D01*
X54926Y-25924D01*
X54925Y-25988D01*
X54987Y-26050D01*
X55250Y-26050D01*
X55250Y-25687D01*
X55213Y-25650D01*
X55250Y-25613D01*
X55250Y-25300D01*
X55250Y-25250D01*
X55250Y-25150D01*
X55350Y-25150D01*
X55350Y-25250D01*
X55350Y-25300D01*
X55350Y-25613D01*
X55387Y-25650D01*
X55350Y-25687D01*
X55350Y-26000D01*
X55350Y-26050D01*
X55350Y-26150D01*
X55350Y-26200D01*
X55350Y-26513D01*
X55387Y-26550D01*
X55350Y-26587D01*
X55350Y-26900D01*
X55350Y-26950D01*
X55350Y-27050D01*
X55350Y-27100D01*
X55350Y-27413D01*
X55387Y-27450D01*
X55350Y-27487D01*
X55350Y-27800D01*
X55350Y-27850D01*
X55350Y-27950D01*
X55250Y-27950D01*
X55250Y-27850D01*
X55250Y-27487D01*
X55213Y-27450D01*
X55250Y-27413D01*
X55250Y-27050D01*
X55250Y-26950D01*
X55250Y-26587D01*
X55213Y-26550D01*
X55250Y-26513D01*
X55250Y-26150D01*
X54987Y-26150D01*
X54925Y-26212D01*
X54926Y-26276D01*
X54926Y-26375D01*
X54964Y-26466D01*
X55034Y-26536D01*
X55067Y-26550D01*
X55034Y-26564D01*
X54964Y-26634D01*
X54926Y-26725D01*
X54926Y-26824D01*
X54925Y-26888D01*
X54987Y-26950D01*
X55250Y-26950D01*
X55250Y-27050D01*
X54987Y-27050D01*
X54925Y-27112D01*
X54926Y-27176D01*
X54926Y-27275D01*
X54964Y-27366D01*
X55034Y-27436D01*
X55067Y-27450D01*
X55034Y-27464D01*
X54964Y-27534D01*
X54926Y-27625D01*
X54926Y-27724D01*
X54925Y-27788D01*
X54987Y-27850D01*
X55250Y-27850D01*
X55250Y-27950D01*
X55200Y-27950D01*
X54987Y-27950D01*
X54975Y-27961D01*
X54959Y-27954D01*
X54841Y-27954D01*
X54732Y-27999D01*
X54649Y-28082D01*
X54604Y-28191D01*
X54604Y-28309D01*
X54631Y-28375D01*
X54574Y-28376D01*
X54525Y-28376D01*
X54525Y-25862D01*
X54463Y-25800D01*
X54050Y-25800D01*
X54050Y-26438D01*
X54112Y-26500D01*
X54226Y-26499D01*
X54325Y-26499D01*
X54416Y-26461D01*
X54486Y-26391D01*
X54524Y-26299D01*
X54525Y-25862D01*
X54525Y-28376D01*
X54475Y-28376D01*
X54414Y-28401D01*
X54414Y-27777D01*
X54414Y-27722D01*
X54414Y-26722D01*
X54393Y-26671D01*
X54353Y-26632D01*
X54302Y-26611D01*
X54247Y-26611D01*
X53950Y-26611D01*
X53950Y-26438D01*
X53950Y-25800D01*
X53537Y-25800D01*
X53475Y-25862D01*
X53476Y-26299D01*
X53514Y-26391D01*
X53584Y-26461D01*
X53675Y-26499D01*
X53774Y-26499D01*
X53888Y-26500D01*
X53950Y-26438D01*
X53950Y-26611D01*
X53697Y-26611D01*
X53646Y-26632D01*
X53607Y-26672D01*
X53586Y-26723D01*
X53586Y-26778D01*
X53586Y-27778D01*
X53607Y-27829D01*
X53647Y-27868D01*
X53698Y-27889D01*
X53753Y-27889D01*
X54303Y-27889D01*
X54354Y-27868D01*
X54393Y-27828D01*
X54414Y-27777D01*
X54414Y-28401D01*
X54384Y-28414D01*
X54314Y-28484D01*
X54276Y-28576D01*
X54275Y-28638D01*
X54337Y-28700D01*
X54650Y-28700D01*
X54700Y-28700D01*
X54800Y-28700D01*
X54800Y-28800D01*
X54700Y-28800D01*
X54650Y-28800D01*
X54337Y-28800D01*
X54275Y-28862D01*
X54276Y-28924D01*
X54293Y-28965D01*
X54254Y-29061D01*
X54254Y-29179D01*
X54299Y-29288D01*
X54382Y-29371D01*
X54386Y-29372D01*
X54386Y-29475D01*
X54064Y-29475D01*
X54064Y-29447D01*
X54064Y-29197D01*
X54043Y-29146D01*
X54006Y-29110D01*
X54066Y-29086D01*
X54136Y-29016D01*
X54174Y-28924D01*
X54175Y-28862D01*
X54175Y-28638D01*
X54174Y-28576D01*
X54136Y-28484D01*
X54066Y-28414D01*
X53975Y-28376D01*
X53876Y-28376D01*
X53812Y-28375D01*
X53750Y-28437D01*
X53750Y-28700D01*
X54113Y-28700D01*
X54175Y-28638D01*
X54175Y-28862D01*
X54113Y-28800D01*
X53800Y-28800D01*
X53750Y-28800D01*
X53650Y-28800D01*
X53650Y-28700D01*
X53650Y-28437D01*
X53588Y-28375D01*
X53524Y-28376D01*
X53425Y-28376D01*
X53414Y-28380D01*
X53414Y-27777D01*
X53414Y-27722D01*
X53414Y-26722D01*
X53414Y-26277D01*
X53414Y-26222D01*
X53414Y-25222D01*
X53393Y-25171D01*
X53353Y-25132D01*
X53302Y-25111D01*
X53247Y-25111D01*
X52697Y-25111D01*
X52646Y-25132D01*
X52607Y-25172D01*
X52600Y-25189D01*
X52600Y-24863D01*
X52600Y-24600D01*
X52237Y-24600D01*
X52175Y-24662D01*
X52176Y-24724D01*
X52214Y-24816D01*
X52284Y-24886D01*
X52375Y-24924D01*
X52474Y-24924D01*
X52538Y-24925D01*
X52600Y-24863D01*
X52600Y-25189D01*
X52586Y-25223D01*
X52586Y-25278D01*
X52586Y-26278D01*
X52607Y-26329D01*
X52647Y-26368D01*
X52698Y-26389D01*
X52753Y-26389D01*
X53303Y-26389D01*
X53354Y-26368D01*
X53393Y-26328D01*
X53414Y-26277D01*
X53414Y-26722D01*
X53393Y-26671D01*
X53353Y-26632D01*
X53302Y-26611D01*
X53247Y-26611D01*
X52697Y-26611D01*
X52646Y-26632D01*
X52607Y-26672D01*
X52586Y-26723D01*
X52586Y-26778D01*
X52586Y-27778D01*
X52607Y-27829D01*
X52647Y-27868D01*
X52698Y-27889D01*
X52753Y-27889D01*
X53303Y-27889D01*
X53354Y-27868D01*
X53393Y-27828D01*
X53414Y-27777D01*
X53414Y-28380D01*
X53334Y-28414D01*
X53264Y-28484D01*
X53226Y-28576D01*
X53225Y-28638D01*
X53287Y-28700D01*
X53650Y-28700D01*
X53650Y-28800D01*
X53600Y-28800D01*
X53287Y-28800D01*
X53233Y-28854D01*
X53191Y-28854D01*
X53082Y-28899D01*
X52999Y-28982D01*
X52974Y-29040D01*
X52913Y-29028D01*
X52050Y-29028D01*
X52050Y-28512D01*
X52050Y-28288D01*
X52049Y-28224D01*
X52049Y-28125D01*
X52011Y-28034D01*
X51941Y-27964D01*
X51849Y-27926D01*
X51787Y-27925D01*
X51725Y-27987D01*
X51725Y-28350D01*
X51988Y-28350D01*
X52050Y-28288D01*
X52050Y-28512D01*
X51988Y-28450D01*
X51725Y-28450D01*
X51725Y-28813D01*
X51787Y-28875D01*
X51849Y-28874D01*
X51941Y-28836D01*
X52011Y-28766D01*
X52049Y-28675D01*
X52049Y-28576D01*
X52050Y-28512D01*
X52050Y-29028D01*
X51372Y-29028D01*
X51341Y-28952D01*
X51258Y-28869D01*
X51149Y-28824D01*
X51031Y-28824D01*
X50922Y-28869D01*
X50839Y-28952D01*
X50794Y-29061D01*
X50794Y-29179D01*
X50839Y-29288D01*
X50922Y-29371D01*
X51031Y-29416D01*
X51149Y-29416D01*
X51192Y-29398D01*
X52836Y-29398D01*
X53229Y-29791D01*
X53289Y-29831D01*
X53360Y-29845D01*
X53426Y-29845D01*
X53369Y-29902D01*
X53355Y-29933D01*
X53261Y-29839D01*
X53201Y-29799D01*
X53130Y-29785D01*
X52739Y-29785D01*
X52689Y-29764D01*
X52571Y-29764D01*
X52462Y-29809D01*
X52379Y-29892D01*
X52334Y-30001D01*
X52334Y-30119D01*
X52379Y-30228D01*
X52462Y-30311D01*
X52571Y-30356D01*
X52584Y-30356D01*
X52561Y-30412D01*
X52561Y-30587D01*
X52628Y-30748D01*
X52751Y-30872D01*
X52912Y-30939D01*
X53087Y-30939D01*
X53248Y-30872D01*
X53372Y-30749D01*
X53439Y-30588D01*
X53439Y-30540D01*
X53527Y-30628D01*
X53529Y-30631D01*
X53589Y-30671D01*
X53596Y-30672D01*
X53628Y-30748D01*
X53751Y-30872D01*
X53912Y-30939D01*
X54087Y-30939D01*
X54248Y-30872D01*
X54372Y-30749D01*
X54439Y-30588D01*
X54439Y-30530D01*
X54537Y-30628D01*
X54539Y-30631D01*
X54594Y-30668D01*
X54628Y-30748D01*
X54751Y-30872D01*
X54912Y-30939D01*
X55087Y-30939D01*
X55248Y-30872D01*
X55372Y-30749D01*
X55439Y-30588D01*
X55439Y-30413D01*
X55372Y-30252D01*
X55249Y-30128D01*
X55193Y-30105D01*
X55363Y-30105D01*
X55593Y-30334D01*
X55561Y-30412D01*
X55561Y-30587D01*
X55628Y-30748D01*
X55751Y-30872D01*
X55912Y-30939D01*
X56087Y-30939D01*
X56248Y-30872D01*
X56372Y-30749D01*
X56439Y-30588D01*
X56439Y-30413D01*
X56372Y-30252D01*
X56249Y-30128D01*
X56088Y-30061D01*
X55913Y-30061D01*
X55863Y-30081D01*
X55626Y-29845D01*
X56123Y-29845D01*
X56429Y-30151D01*
X56489Y-30191D01*
X56560Y-30205D01*
X56674Y-30205D01*
X56628Y-30251D01*
X56561Y-30412D01*
X56561Y-30587D01*
X56628Y-30748D01*
X56751Y-30872D01*
X56912Y-30939D01*
X57087Y-30939D01*
X57248Y-30872D01*
X57372Y-30749D01*
X57439Y-30588D01*
X57439Y-30413D01*
X57372Y-30252D01*
X57325Y-30205D01*
X57674Y-30205D01*
X57628Y-30251D01*
X57561Y-30412D01*
X57561Y-30587D01*
X57628Y-30748D01*
X57751Y-30872D01*
X57912Y-30939D01*
X58087Y-30939D01*
X58248Y-30872D01*
X58372Y-30749D01*
X58439Y-30588D01*
X58439Y-30413D01*
X58372Y-30252D01*
X58325Y-30205D01*
X58500Y-30205D01*
X58571Y-30191D01*
X58631Y-30151D01*
X58781Y-30001D01*
X58821Y-29941D01*
X58835Y-29870D01*
X58835Y-29736D01*
X58868Y-29703D01*
X58889Y-29652D01*
X58889Y-29597D01*
X58889Y-29147D01*
X58868Y-29096D01*
X58828Y-29057D01*
X58777Y-29036D01*
X58722Y-29036D01*
X58585Y-29036D01*
X58585Y-28742D01*
X58593Y-28730D01*
X58609Y-28650D01*
X58593Y-28569D01*
X58548Y-28501D01*
X58360Y-28313D01*
X58360Y-27211D01*
X58368Y-27203D01*
X58389Y-27152D01*
X58389Y-27110D01*
X58411Y-27110D01*
X58411Y-27153D01*
X58432Y-27204D01*
X58465Y-27236D01*
X58465Y-27275D01*
X58479Y-27346D01*
X58519Y-27406D01*
X59724Y-28611D01*
X59722Y-28611D01*
X59472Y-28611D01*
X59421Y-28632D01*
X59382Y-28672D01*
X59376Y-28685D01*
X59349Y-28674D01*
X59231Y-28674D01*
X59122Y-28719D01*
X59039Y-28802D01*
X58994Y-28911D01*
X58994Y-29029D01*
X59039Y-29138D01*
X59122Y-29221D01*
X59231Y-29266D01*
X59349Y-29266D01*
X59372Y-29256D01*
X59382Y-29279D01*
X59422Y-29318D01*
X59473Y-29339D01*
X59528Y-29339D01*
X59778Y-29339D01*
X59829Y-29318D01*
X59868Y-29278D01*
X59889Y-29227D01*
X59889Y-29172D01*
X59889Y-28776D01*
X59961Y-28848D01*
X59961Y-29228D01*
X59982Y-29279D01*
X60022Y-29318D01*
X60073Y-29339D01*
X60128Y-29339D01*
X60378Y-29339D01*
X60429Y-29318D01*
X60468Y-29278D01*
X60489Y-29227D01*
X60489Y-29172D01*
X60489Y-28722D01*
X60468Y-28671D01*
X60428Y-28632D01*
X60377Y-28611D01*
X60322Y-28611D01*
X60248Y-28611D01*
X60179Y-28542D01*
X60218Y-28526D01*
X60301Y-28443D01*
X60346Y-28334D01*
X60346Y-28216D01*
X60301Y-28107D01*
X60218Y-28024D01*
X60109Y-27979D01*
X60015Y-27979D01*
X59248Y-27211D01*
X59248Y-26788D01*
X59234Y-26717D01*
X59194Y-26657D01*
X59172Y-26635D01*
X59450Y-26635D01*
X62750Y-26635D01*
X62821Y-26621D01*
X62881Y-26581D01*
X63242Y-26220D01*
X63242Y-26292D01*
X63246Y-26304D01*
X63242Y-26316D01*
X63242Y-26327D01*
X63240Y-26328D01*
X63170Y-26398D01*
X63132Y-26489D01*
X63132Y-26508D01*
X63193Y-26569D01*
X63292Y-26569D01*
X63303Y-26579D01*
X63349Y-26598D01*
X63302Y-26618D01*
X63293Y-26627D01*
X63193Y-26627D01*
X63132Y-26688D01*
X63132Y-26707D01*
X63170Y-26798D01*
X63240Y-26868D01*
X63242Y-26868D01*
X63242Y-26882D01*
X63246Y-26894D01*
X63242Y-26906D01*
X63242Y-26961D01*
X63242Y-27079D01*
X63246Y-27090D01*
X63242Y-27102D01*
X63242Y-27157D01*
X63242Y-27275D01*
X63246Y-27287D01*
X63242Y-27299D01*
X63242Y-27354D01*
X63242Y-27472D01*
X63246Y-27484D01*
X63242Y-27496D01*
X63242Y-27551D01*
X63242Y-27669D01*
X63263Y-27720D01*
X63303Y-27759D01*
X63354Y-27780D01*
X63409Y-27780D01*
X63881Y-27780D01*
X63932Y-27759D01*
X63971Y-27719D01*
X63992Y-27668D01*
X63992Y-27613D01*
X63992Y-27595D01*
X64141Y-27595D01*
X64182Y-27636D01*
X64291Y-27681D01*
X64352Y-27681D01*
X64352Y-27758D01*
X64278Y-27758D01*
X64266Y-27762D01*
X64254Y-27758D01*
X64199Y-27758D01*
X64081Y-27758D01*
X64030Y-27779D01*
X63991Y-27819D01*
X63970Y-27870D01*
X63970Y-27925D01*
X63970Y-28397D01*
X63991Y-28448D01*
X64031Y-28487D01*
X64082Y-28508D01*
X64137Y-28508D01*
X64255Y-28508D01*
X64267Y-28503D01*
X64279Y-28508D01*
X64334Y-28508D01*
X64452Y-28508D01*
X64464Y-28503D01*
X64476Y-28508D01*
X64487Y-28508D01*
X64488Y-28510D01*
X64502Y-28524D01*
X64479Y-28529D01*
X64419Y-28569D01*
X64319Y-28669D01*
X64279Y-28729D01*
X64265Y-28799D01*
X64246Y-28807D01*
X64207Y-28847D01*
X64186Y-28898D01*
X64186Y-28953D01*
X64186Y-29403D01*
X64207Y-29454D01*
X64247Y-29493D01*
X64298Y-29514D01*
X64353Y-29514D01*
X64603Y-29514D01*
X64654Y-29493D01*
X64693Y-29453D01*
X64714Y-29402D01*
X64714Y-29347D01*
X64714Y-28897D01*
X64709Y-28885D01*
X64791Y-28885D01*
X64786Y-28898D01*
X64786Y-28953D01*
X64786Y-29403D01*
X64807Y-29454D01*
X64847Y-29493D01*
X64898Y-29514D01*
X64953Y-29514D01*
X65203Y-29514D01*
X65254Y-29493D01*
X65293Y-29453D01*
X65314Y-29402D01*
X65314Y-29347D01*
X65314Y-28998D01*
X65386Y-28926D01*
X65386Y-29003D01*
X65407Y-29054D01*
X65447Y-29093D01*
X65498Y-29114D01*
X65553Y-29114D01*
X66003Y-29114D01*
X66054Y-29093D01*
X66093Y-29053D01*
X66114Y-29002D01*
X66114Y-28947D01*
X66114Y-28697D01*
X66263Y-28547D01*
X66265Y-28546D01*
X66266Y-28546D01*
X66290Y-28508D01*
X66291Y-28508D01*
X66301Y-28508D01*
X66419Y-28508D01*
X66465Y-28489D01*
X66465Y-28586D01*
X66397Y-28586D01*
X66346Y-28607D01*
X66307Y-28647D01*
X66286Y-28698D01*
X66286Y-28753D01*
X66286Y-29003D01*
X66307Y-29054D01*
X66347Y-29093D01*
X66398Y-29114D01*
X66453Y-29114D01*
X66840Y-29114D01*
X66840Y-29186D01*
X66397Y-29186D01*
X66346Y-29207D01*
X66313Y-29240D01*
X66086Y-29240D01*
X66053Y-29207D01*
X66002Y-29186D01*
X65947Y-29186D01*
X65497Y-29186D01*
X65446Y-29207D01*
X65407Y-29247D01*
X65386Y-29298D01*
X65386Y-29353D01*
X65386Y-29603D01*
X65407Y-29654D01*
X65447Y-29693D01*
X65498Y-29714D01*
X65553Y-29714D01*
X66003Y-29714D01*
X66054Y-29693D01*
X66086Y-29660D01*
X66313Y-29660D01*
X66347Y-29693D01*
X66398Y-29714D01*
X66453Y-29714D01*
X66903Y-29714D01*
X66954Y-29693D01*
X66993Y-29653D01*
X67002Y-29628D01*
X67003Y-29628D01*
X67033Y-29608D01*
X67026Y-29626D01*
X67025Y-29688D01*
X67087Y-29750D01*
X67400Y-29750D01*
X67450Y-29750D01*
X67550Y-29750D01*
X67600Y-29750D01*
X67913Y-29750D01*
X67975Y-29688D01*
X67974Y-29626D01*
X67936Y-29534D01*
X67866Y-29464D01*
X67807Y-29439D01*
X67843Y-29403D01*
X67864Y-29352D01*
X67864Y-29297D01*
X67864Y-29248D01*
X67968Y-29144D01*
X67968Y-29460D01*
X67989Y-29511D01*
X68029Y-29550D01*
X68080Y-29571D01*
X68135Y-29571D01*
X68921Y-29571D01*
X68972Y-29550D01*
X69011Y-29510D01*
X69032Y-29459D01*
X69032Y-29404D01*
X69032Y-27240D01*
X69011Y-27189D01*
X68971Y-27150D01*
X68920Y-27129D01*
X68865Y-27129D01*
X68685Y-27129D01*
X68685Y-27050D01*
X68685Y-26800D01*
X68671Y-26729D01*
X68631Y-26669D01*
X68531Y-26569D01*
X68471Y-26529D01*
X68400Y-26515D01*
X68000Y-26515D01*
X67847Y-26515D01*
X68491Y-25871D01*
X68921Y-25871D01*
X68972Y-25850D01*
X68990Y-25831D01*
X68990Y-25841D01*
X68949Y-25882D01*
X68904Y-25991D01*
X68904Y-26109D01*
X68949Y-26218D01*
X69032Y-26301D01*
X69141Y-26346D01*
X69259Y-26346D01*
X69368Y-26301D01*
X69451Y-26218D01*
X69496Y-26109D01*
X69496Y-31035D01*
X69439Y-31035D01*
X69439Y-30827D01*
X69439Y-30772D01*
X69439Y-30172D01*
X69418Y-30121D01*
X69378Y-30082D01*
X69327Y-30061D01*
X69272Y-30061D01*
X68672Y-30061D01*
X68621Y-30082D01*
X68582Y-30122D01*
X68561Y-30173D01*
X68561Y-30228D01*
X68561Y-30828D01*
X68582Y-30879D01*
X68622Y-30918D01*
X68673Y-30939D01*
X68728Y-30939D01*
X69328Y-30939D01*
X69379Y-30918D01*
X69418Y-30878D01*
X69439Y-30827D01*
X69439Y-31035D01*
X68543Y-31035D01*
X68543Y-30579D01*
X68532Y-30366D01*
X68472Y-30219D01*
X68378Y-30192D01*
X68308Y-30262D01*
X68308Y-30122D01*
X68281Y-30028D01*
X68079Y-29957D01*
X67974Y-29962D01*
X67975Y-29912D01*
X67913Y-29850D01*
X67550Y-29850D01*
X67550Y-30113D01*
X67573Y-30136D01*
X67534Y-30175D01*
X67566Y-30207D01*
X67528Y-30219D01*
X67457Y-30421D01*
X67468Y-30634D01*
X67528Y-30781D01*
X67622Y-30808D01*
X67894Y-30535D01*
X67929Y-30500D01*
X68000Y-30429D01*
X68035Y-30394D01*
X68308Y-30122D01*
X68308Y-30262D01*
X68071Y-30500D01*
X68378Y-30808D01*
X68472Y-30781D01*
X68543Y-30579D01*
X68543Y-31035D01*
X68075Y-31035D01*
X68134Y-31032D01*
X68281Y-30972D01*
X68308Y-30878D01*
X68000Y-30571D01*
X67929Y-30641D01*
X67692Y-30878D01*
X67719Y-30972D01*
X67898Y-31035D01*
X67450Y-31035D01*
X67450Y-30113D01*
X67450Y-29850D01*
X67087Y-29850D01*
X67025Y-29912D01*
X67026Y-29974D01*
X67061Y-30061D01*
X66913Y-30061D01*
X66752Y-30128D01*
X66628Y-30251D01*
X66561Y-30412D01*
X66561Y-30587D01*
X66628Y-30748D01*
X66751Y-30872D01*
X66912Y-30939D01*
X67087Y-30939D01*
X67248Y-30872D01*
X67372Y-30749D01*
X67439Y-30588D01*
X67439Y-30413D01*
X67372Y-30252D01*
X67294Y-30174D01*
X67324Y-30174D01*
X67388Y-30175D01*
X67450Y-30113D01*
X67450Y-31035D01*
X66439Y-31035D01*
X66439Y-30588D01*
X66439Y-30413D01*
X66372Y-30252D01*
X66249Y-30128D01*
X66088Y-30061D01*
X65913Y-30061D01*
X65752Y-30128D01*
X65628Y-30251D01*
X65561Y-30412D01*
X65561Y-30587D01*
X65628Y-30748D01*
X65751Y-30872D01*
X65912Y-30939D01*
X66087Y-30939D01*
X66248Y-30872D01*
X66372Y-30749D01*
X66439Y-30588D01*
X66439Y-31035D01*
X65439Y-31035D01*
X65439Y-30588D01*
X65439Y-30413D01*
X65372Y-30252D01*
X65249Y-30128D01*
X65088Y-30061D01*
X64913Y-30061D01*
X64752Y-30128D01*
X64628Y-30251D01*
X64561Y-30412D01*
X64561Y-30587D01*
X64628Y-30748D01*
X64751Y-30872D01*
X64912Y-30939D01*
X65087Y-30939D01*
X65248Y-30872D01*
X65372Y-30749D01*
X65439Y-30588D01*
X65439Y-31035D01*
X64439Y-31035D01*
X64439Y-30588D01*
X64439Y-30413D01*
X64372Y-30252D01*
X64249Y-30128D01*
X64088Y-30061D01*
X63913Y-30061D01*
X63752Y-30128D01*
X63628Y-30251D01*
X63561Y-30412D01*
X63561Y-30587D01*
X63628Y-30748D01*
X63751Y-30872D01*
X63912Y-30939D01*
X64087Y-30939D01*
X64248Y-30872D01*
X64372Y-30749D01*
X64439Y-30588D01*
X64439Y-31035D01*
X63439Y-31035D01*
X63439Y-30588D01*
X63439Y-30413D01*
X63372Y-30252D01*
X63249Y-30128D01*
X63088Y-30061D01*
X62913Y-30061D01*
X62752Y-30128D01*
X62628Y-30251D01*
X62561Y-30412D01*
X62561Y-30587D01*
X62628Y-30748D01*
X62751Y-30872D01*
X62912Y-30939D01*
X63087Y-30939D01*
X63248Y-30872D01*
X63372Y-30749D01*
X63439Y-30588D01*
X63439Y-31035D01*
X62439Y-31035D01*
X62439Y-30588D01*
X62439Y-30413D01*
X62421Y-30369D01*
X62421Y-27334D01*
X62421Y-27216D01*
X62376Y-27107D01*
X62293Y-27024D01*
X62184Y-26979D01*
X62066Y-26979D01*
X61957Y-27024D01*
X61874Y-27107D01*
X61858Y-27144D01*
X61742Y-27261D01*
X60752Y-27261D01*
X60701Y-27282D01*
X60662Y-27322D01*
X60641Y-27373D01*
X60641Y-27428D01*
X60641Y-28228D01*
X60662Y-28279D01*
X60702Y-28318D01*
X60753Y-28339D01*
X60808Y-28339D01*
X62248Y-28339D01*
X62299Y-28318D01*
X62338Y-28278D01*
X62359Y-28227D01*
X62359Y-28172D01*
X62359Y-27460D01*
X62376Y-27443D01*
X62421Y-27334D01*
X62421Y-30369D01*
X62372Y-30252D01*
X62249Y-30128D01*
X62088Y-30061D01*
X61913Y-30061D01*
X61752Y-30128D01*
X61628Y-30251D01*
X61561Y-30412D01*
X61561Y-30587D01*
X61628Y-30748D01*
X61751Y-30872D01*
X61912Y-30939D01*
X62087Y-30939D01*
X62248Y-30872D01*
X62372Y-30749D01*
X62439Y-30588D01*
X62439Y-31035D01*
X61439Y-31035D01*
X61439Y-30588D01*
X61439Y-30413D01*
X61372Y-30252D01*
X61249Y-30128D01*
X61088Y-30061D01*
X60913Y-30061D01*
X60752Y-30128D01*
X60628Y-30251D01*
X60561Y-30412D01*
X60561Y-30587D01*
X60628Y-30748D01*
X60751Y-30872D01*
X60912Y-30939D01*
X61087Y-30939D01*
X61248Y-30872D01*
X61372Y-30749D01*
X61439Y-30588D01*
X61439Y-31035D01*
X60439Y-31035D01*
X60439Y-30588D01*
X60439Y-30413D01*
X60372Y-30252D01*
X60249Y-30128D01*
X60088Y-30061D01*
X59913Y-30061D01*
X59752Y-30128D01*
X59628Y-30251D01*
X59561Y-30412D01*
X59561Y-30587D01*
X59628Y-30748D01*
X59751Y-30872D01*
X59912Y-30939D01*
X60087Y-30939D01*
X60248Y-30872D01*
X60372Y-30749D01*
X60439Y-30588D01*
X60439Y-31035D01*
X59439Y-31035D01*
X59439Y-30588D01*
X59439Y-30413D01*
X59372Y-30252D01*
X59249Y-30128D01*
X59088Y-30061D01*
X58913Y-30061D01*
X58752Y-30128D01*
X58628Y-30251D01*
X58561Y-30412D01*
X58561Y-30587D01*
X58628Y-30748D01*
X58751Y-30872D01*
X58912Y-30939D01*
X59087Y-30939D01*
X59248Y-30872D01*
X59372Y-30749D01*
X59439Y-30588D01*
X59439Y-31035D01*
X52439Y-31035D01*
X52439Y-30588D01*
X52439Y-30413D01*
X52372Y-30252D01*
X52249Y-30128D01*
X52088Y-30061D01*
X51913Y-30061D01*
X51752Y-30128D01*
X51628Y-30251D01*
X51561Y-30412D01*
X51561Y-30587D01*
X51628Y-30748D01*
X51751Y-30872D01*
X51912Y-30939D01*
X52087Y-30939D01*
X52248Y-30872D01*
X52372Y-30749D01*
X52439Y-30588D01*
X52439Y-31035D01*
X51439Y-31035D01*
X51439Y-30588D01*
X51439Y-30413D01*
X51372Y-30252D01*
X51249Y-30128D01*
X51185Y-30101D01*
X51185Y-29920D01*
X51171Y-29849D01*
X51131Y-29789D01*
X50715Y-29373D01*
X50655Y-29333D01*
X50584Y-29319D01*
X49706Y-29319D01*
X49708Y-29315D01*
X49709Y-29242D01*
X49647Y-29180D01*
X49362Y-29180D01*
X49312Y-29180D01*
X49212Y-29180D01*
X49212Y-29080D01*
X49312Y-29080D01*
X49362Y-29080D01*
X49647Y-29080D01*
X49709Y-29018D01*
X49708Y-28945D01*
X49696Y-28916D01*
X49750Y-28863D01*
X49750Y-28550D01*
X49750Y-28500D01*
X49750Y-28400D01*
X49750Y-28350D01*
X49750Y-28037D01*
X49688Y-27975D01*
X49750Y-27913D01*
X49750Y-27550D01*
X49750Y-27450D01*
X49750Y-27213D01*
X49750Y-27087D01*
X49750Y-26850D01*
X49750Y-26750D01*
X49750Y-26513D01*
X49750Y-26387D01*
X49750Y-26150D01*
X49750Y-26050D01*
X49750Y-25863D01*
X49750Y-25687D01*
X49750Y-25500D01*
X49750Y-25400D01*
X49750Y-25037D01*
X49688Y-24975D01*
X49626Y-24976D01*
X49534Y-25014D01*
X49464Y-25084D01*
X49426Y-25175D01*
X49426Y-25274D01*
X49425Y-25338D01*
X49487Y-25400D01*
X49750Y-25400D01*
X49750Y-25500D01*
X49487Y-25500D01*
X49425Y-25562D01*
X49426Y-25626D01*
X49426Y-25725D01*
X49446Y-25775D01*
X49426Y-25825D01*
X49426Y-25924D01*
X49425Y-25988D01*
X49487Y-26050D01*
X49750Y-26050D01*
X49750Y-26150D01*
X49487Y-26150D01*
X49425Y-26212D01*
X49426Y-26276D01*
X49426Y-26375D01*
X49457Y-26450D01*
X49426Y-26525D01*
X49426Y-26624D01*
X49425Y-26688D01*
X49487Y-26750D01*
X49750Y-26750D01*
X49750Y-26850D01*
X49487Y-26850D01*
X49425Y-26912D01*
X49426Y-26976D01*
X49426Y-27075D01*
X49457Y-27150D01*
X49426Y-27225D01*
X49426Y-27324D01*
X49425Y-27388D01*
X49487Y-27450D01*
X49750Y-27450D01*
X49750Y-27550D01*
X49487Y-27550D01*
X49425Y-27612D01*
X49426Y-27676D01*
X49426Y-27775D01*
X49464Y-27866D01*
X49534Y-27936D01*
X49626Y-27974D01*
X49688Y-27975D01*
X49626Y-27976D01*
X49534Y-28014D01*
X49464Y-28084D01*
X49447Y-28124D01*
X49447Y-28022D01*
X49433Y-27951D01*
X49393Y-27891D01*
X49091Y-27589D01*
X49031Y-27549D01*
X48960Y-27535D01*
X48664Y-27535D01*
X48664Y-26802D01*
X48664Y-26747D01*
X48664Y-26497D01*
X48643Y-26446D01*
X48603Y-26407D01*
X48552Y-26386D01*
X48497Y-26386D01*
X48047Y-26386D01*
X47996Y-26407D01*
X47957Y-26447D01*
X47936Y-26498D01*
X47936Y-26553D01*
X47936Y-26803D01*
X47957Y-26854D01*
X47997Y-26893D01*
X48048Y-26914D01*
X48094Y-26914D01*
X48096Y-26918D01*
X48179Y-27001D01*
X48288Y-27046D01*
X48406Y-27046D01*
X48515Y-27001D01*
X48598Y-26918D01*
X48611Y-26885D01*
X48643Y-26853D01*
X48664Y-26802D01*
X48664Y-27535D01*
X47076Y-27535D01*
X47045Y-27503D01*
X47045Y-26606D01*
X47354Y-26296D01*
X47398Y-26314D01*
X47453Y-26314D01*
X47903Y-26314D01*
X47954Y-26293D01*
X47974Y-26271D01*
X47997Y-26293D01*
X48048Y-26314D01*
X48103Y-26314D01*
X48553Y-26314D01*
X48604Y-26293D01*
X48643Y-26253D01*
X48664Y-26202D01*
X48664Y-26147D01*
X48664Y-26086D01*
X48696Y-26009D01*
X48696Y-25891D01*
X48651Y-25782D01*
X48568Y-25699D01*
X48459Y-25654D01*
X48341Y-25654D01*
X48232Y-25699D01*
X48149Y-25782D01*
X48147Y-25786D01*
X48047Y-25786D01*
X47996Y-25807D01*
X47975Y-25828D01*
X47953Y-25807D01*
X47902Y-25786D01*
X47847Y-25786D01*
X47397Y-25786D01*
X47346Y-25807D01*
X47307Y-25847D01*
X47296Y-25873D01*
X47269Y-25879D01*
X47209Y-25919D01*
X47207Y-25921D01*
X46729Y-26399D01*
X46689Y-26459D01*
X46675Y-26530D01*
X46675Y-27580D01*
X46675Y-27710D01*
X46675Y-27715D01*
X46675Y-27720D01*
X46675Y-27820D01*
X46675Y-29062D01*
X46658Y-29021D01*
X46618Y-28982D01*
X46567Y-28961D01*
X46512Y-28961D01*
X46252Y-28961D01*
X46201Y-28982D01*
X46176Y-29007D01*
X46169Y-29009D01*
X46109Y-29049D01*
X46107Y-29051D01*
X45132Y-30025D01*
X45098Y-30011D01*
X44903Y-30011D01*
X44723Y-30085D01*
X44586Y-30223D01*
X44511Y-30402D01*
X44511Y-30597D01*
X44585Y-30777D01*
X44723Y-30914D01*
X44902Y-30989D01*
X45097Y-30989D01*
X45277Y-30915D01*
X45414Y-30777D01*
X45489Y-30598D01*
X45489Y-30403D01*
X45427Y-30254D01*
X46054Y-29626D01*
X46069Y-29661D01*
X46139Y-29731D01*
X46141Y-29731D01*
X46141Y-29808D01*
X46162Y-29859D01*
X46202Y-29898D01*
X46253Y-29919D01*
X46299Y-29919D01*
X46136Y-30081D01*
X46088Y-30061D01*
X45913Y-30061D01*
X45752Y-30128D01*
X45628Y-30251D01*
X45561Y-30412D01*
X45561Y-30587D01*
X45628Y-30748D01*
X45751Y-30872D01*
X45912Y-30939D01*
X46087Y-30939D01*
X46248Y-30872D01*
X46372Y-30749D01*
X46439Y-30588D01*
X46439Y-30413D01*
X46406Y-30335D01*
X46857Y-29885D01*
X46988Y-29885D01*
X47002Y-29898D01*
X47053Y-29919D01*
X47108Y-29919D01*
X47269Y-29919D01*
X47115Y-30072D01*
X47088Y-30061D01*
X46913Y-30061D01*
X46752Y-30128D01*
X46628Y-30251D01*
X46561Y-30412D01*
X46561Y-30587D01*
X46628Y-30748D01*
X46751Y-30872D01*
X46912Y-30939D01*
X47087Y-30939D01*
X47248Y-30872D01*
X47372Y-30749D01*
X47439Y-30588D01*
X47439Y-30413D01*
X47397Y-30314D01*
X47654Y-30057D01*
X47659Y-30081D01*
X47699Y-30141D01*
X47718Y-30160D01*
X47628Y-30251D01*
X47561Y-30412D01*
X47561Y-30587D01*
X47628Y-30748D01*
X47751Y-30872D01*
X47912Y-30939D01*
X48087Y-30939D01*
X48248Y-30872D01*
X48372Y-30749D01*
X48439Y-30588D01*
X48439Y-30413D01*
X48372Y-30252D01*
X48249Y-30128D01*
X48158Y-30090D01*
X48131Y-30049D01*
X48015Y-29933D01*
X48015Y-29779D01*
X48061Y-29779D01*
X48067Y-29809D01*
X48107Y-29869D01*
X48587Y-30348D01*
X48561Y-30412D01*
X48561Y-30587D01*
X48628Y-30748D01*
X48751Y-30872D01*
X48912Y-30939D01*
X49087Y-30939D01*
X49248Y-30872D01*
X49372Y-30749D01*
X49439Y-30588D01*
X49439Y-30413D01*
X49372Y-30252D01*
X49265Y-30145D01*
X49383Y-30145D01*
X49587Y-30348D01*
X49561Y-30412D01*
X49561Y-30587D01*
X49628Y-30748D01*
X49751Y-30872D01*
X49912Y-30939D01*
X50087Y-30939D01*
X50248Y-30872D01*
X50372Y-30749D01*
X50439Y-30588D01*
X50439Y-30413D01*
X50372Y-30252D01*
X50249Y-30128D01*
X50088Y-30061D01*
X49913Y-30061D01*
X49849Y-30087D01*
X49591Y-29829D01*
X49531Y-29789D01*
X49480Y-29779D01*
X49487Y-29779D01*
X49538Y-29758D01*
X49577Y-29718D01*
X49588Y-29689D01*
X50507Y-29689D01*
X50815Y-29997D01*
X50815Y-30101D01*
X50752Y-30128D01*
X50628Y-30251D01*
X50561Y-30412D01*
X50561Y-30587D01*
X50628Y-30748D01*
X50751Y-30872D01*
X50912Y-30939D01*
X51087Y-30939D01*
X51248Y-30872D01*
X51372Y-30749D01*
X51439Y-30588D01*
X51439Y-31035D01*
X44500Y-31035D01*
X44465Y-31035D01*
X44465Y-21965D01*
X67924Y-21965D01*
X67866Y-21968D01*
X67719Y-22028D01*
X67692Y-22122D01*
X68000Y-22429D01*
X68308Y-22122D01*
X68281Y-22028D01*
X68101Y-21965D01*
X69535Y-21965D01*
X69535Y-22000D01*
X69535Y-31035D01*
M02*
