G04 (created by PCBNEW-RS274X (2012-01-19 BZR 3256)-stable) date Thu 07 Mar 2013 02:54:08 AM COT*
G01*
G70*
G90*
%MOIN*%
G04 Gerber Fmt 3.4, Leading zero omitted, Abs format*
%FSLAX34Y34*%
G04 APERTURE LIST*
%ADD10C,0.006000*%
%ADD11C,0.015000*%
%ADD12R,0.030000X0.060000*%
%ADD13R,0.060000X0.030000*%
%ADD14R,0.045000X0.065000*%
%ADD15R,0.067200X0.067200*%
%ADD16C,0.065400*%
%ADD17R,0.083000X0.041700*%
%ADD18R,0.110600X0.106600*%
%ADD19R,0.164000X0.100000*%
%ADD20R,0.060000X0.100000*%
%ADD21R,0.059400X0.059400*%
%ADD22R,0.065000X0.045000*%
%ADD23R,0.080000X0.080000*%
%ADD24C,0.080000*%
%ADD25C,0.090000*%
G04 APERTURE END LIST*
G54D10*
G54D11*
X44250Y-31250D02*
X44500Y-31250D01*
X44250Y-21750D02*
X44250Y-31250D01*
X69750Y-21750D02*
X69750Y-22000D01*
X44250Y-21750D02*
X69750Y-21750D01*
X69750Y-31250D02*
X44250Y-31250D01*
X69750Y-21250D02*
X69750Y-31250D01*
G54D12*
X50890Y-23450D03*
X55610Y-23450D03*
X55410Y-23450D03*
X55220Y-23450D03*
X55020Y-23450D03*
X54820Y-23450D03*
X54630Y-23450D03*
X54430Y-23450D03*
X54230Y-23450D03*
X54040Y-23450D03*
X53840Y-23450D03*
X53640Y-23450D03*
X53440Y-23450D03*
X53250Y-23450D03*
X53050Y-23450D03*
X52850Y-23450D03*
X52660Y-23450D03*
X52460Y-23450D03*
X52260Y-23450D03*
X52070Y-23450D03*
X51870Y-23450D03*
X51670Y-23450D03*
X51480Y-23450D03*
X51280Y-23450D03*
X51080Y-23450D03*
G54D13*
X56300Y-24140D03*
X56300Y-28860D03*
X56300Y-28660D03*
X56300Y-28470D03*
X56300Y-28270D03*
X56300Y-28070D03*
X56300Y-27880D03*
X56300Y-27680D03*
X56300Y-27480D03*
X56300Y-27290D03*
X56300Y-27090D03*
X56300Y-26890D03*
X56300Y-26690D03*
X56300Y-26500D03*
X56300Y-26300D03*
X56300Y-26100D03*
X56300Y-25910D03*
X56300Y-25710D03*
X56300Y-25510D03*
X56300Y-25320D03*
X56300Y-25120D03*
X56300Y-24920D03*
X56300Y-24730D03*
X56300Y-24530D03*
X56300Y-24330D03*
X50200Y-24140D03*
X50200Y-24340D03*
X50200Y-24530D03*
X50200Y-24730D03*
X50200Y-24930D03*
X50200Y-25120D03*
X50200Y-25320D03*
X50200Y-25520D03*
X50200Y-25710D03*
X50200Y-25910D03*
X50200Y-26110D03*
X50200Y-26310D03*
X50200Y-26500D03*
X50200Y-26700D03*
X50200Y-26900D03*
X50200Y-27090D03*
X50200Y-27290D03*
X50200Y-27490D03*
X50200Y-27680D03*
X50200Y-27880D03*
X50200Y-28080D03*
X50200Y-28270D03*
X50200Y-28470D03*
X50200Y-28670D03*
X50200Y-28860D03*
G54D12*
X50890Y-29550D03*
X51090Y-29550D03*
X51280Y-29550D03*
X51480Y-29550D03*
X51680Y-29550D03*
X51870Y-29550D03*
X52070Y-29550D03*
X52270Y-29550D03*
X52460Y-29550D03*
X52660Y-29550D03*
X52860Y-29550D03*
X53060Y-29550D03*
X53250Y-29550D03*
X53450Y-29550D03*
X53650Y-29550D03*
X53840Y-29550D03*
X54040Y-29550D03*
X54240Y-29550D03*
X54430Y-29550D03*
X54630Y-29550D03*
X54830Y-29550D03*
X55020Y-29550D03*
X55220Y-29550D03*
X55420Y-29550D03*
X55610Y-29550D03*
G54D14*
X47700Y-23400D03*
X48300Y-23400D03*
X47700Y-24050D03*
X48300Y-24050D03*
X68650Y-29850D03*
X68050Y-29850D03*
G54D15*
X69213Y-29250D03*
X68387Y-29250D03*
G54D16*
X67744Y-25634D03*
X67744Y-27366D03*
G54D17*
X66582Y-26500D03*
X66582Y-26185D03*
X66582Y-25868D03*
X66582Y-26815D03*
X66584Y-27130D03*
G54D18*
X66720Y-24808D03*
X66720Y-28192D03*
X68885Y-28192D03*
X68885Y-24808D03*
G54D19*
X64500Y-27800D03*
G54D20*
X64500Y-25200D03*
X63600Y-25200D03*
X65400Y-25200D03*
G54D15*
X47163Y-23400D03*
X46337Y-23400D03*
X47163Y-24050D03*
X46337Y-24050D03*
X59587Y-28950D03*
X60413Y-28950D03*
G54D14*
X47700Y-24700D03*
X48300Y-24700D03*
G54D15*
X47163Y-24700D03*
X46337Y-24700D03*
G54D21*
X46300Y-26750D03*
X46300Y-25293D03*
X48347Y-26750D03*
X48347Y-25293D03*
X46300Y-28800D03*
X46300Y-27343D03*
X48347Y-28800D03*
X48347Y-27343D03*
G54D22*
X65850Y-28950D03*
X65850Y-28350D03*
G54D23*
X69000Y-22500D03*
G54D24*
X68000Y-22500D03*
X67000Y-22500D03*
X66000Y-22500D03*
X65000Y-22500D03*
X64000Y-22500D03*
X63000Y-22500D03*
X62000Y-22500D03*
X61000Y-22500D03*
X60000Y-22500D03*
X59000Y-22500D03*
X58000Y-22500D03*
X57000Y-22500D03*
X56000Y-22500D03*
X55000Y-22500D03*
X54000Y-22500D03*
X53000Y-22500D03*
X52000Y-22500D03*
X51000Y-22500D03*
X50000Y-22500D03*
X49000Y-22500D03*
X48000Y-22500D03*
X47000Y-22500D03*
X46000Y-22500D03*
G54D25*
X45000Y-22500D03*
G54D23*
X69000Y-30500D03*
G54D24*
X68000Y-30500D03*
X67000Y-30500D03*
X66000Y-30500D03*
X65000Y-30500D03*
X64000Y-30500D03*
X63000Y-30500D03*
X62000Y-30500D03*
X61000Y-30500D03*
X60000Y-30500D03*
X59000Y-30500D03*
X58000Y-30500D03*
X57000Y-30500D03*
X56000Y-30500D03*
X55000Y-30500D03*
X54000Y-30500D03*
X53000Y-30500D03*
X52000Y-30500D03*
X51000Y-30500D03*
X50000Y-30500D03*
X49000Y-30500D03*
X48000Y-30500D03*
X47000Y-30500D03*
X46000Y-30500D03*
G54D25*
X45000Y-30500D03*
M02*
