G04 (created by PCBNEW-RS274X (2012-01-19 BZR 3256)-stable) date Thu 07 Mar 2013 02:54:08 AM COT*
G01*
G70*
G90*
%MOIN*%
G04 Gerber Fmt 3.4, Leading zero omitted, Abs format*
%FSLAX34Y34*%
G04 APERTURE LIST*
%ADD10C,0.006000*%
%ADD11C,0.015000*%
%ADD12C,0.008000*%
%ADD13C,0.005000*%
%ADD14C,0.002600*%
%ADD15C,0.004000*%
%ADD16C,0.002000*%
%ADD17C,0.010000*%
%ADD18C,0.004500*%
%ADD19C,0.005200*%
G04 APERTURE END LIST*
G54D10*
G54D11*
X44250Y-31250D02*
X44500Y-31250D01*
X44250Y-21750D02*
X44250Y-31250D01*
X69750Y-21750D02*
X69750Y-22000D01*
X44250Y-21750D02*
X69750Y-21750D01*
X69750Y-31250D02*
X44250Y-31250D01*
X69750Y-21250D02*
X69750Y-31250D01*
G54D12*
X50900Y-24100D02*
X50896Y-24138D01*
X50884Y-24176D01*
X50866Y-24210D01*
X50841Y-24240D01*
X50811Y-24265D01*
X50777Y-24284D01*
X50740Y-24295D01*
X50701Y-24299D01*
X50663Y-24296D01*
X50626Y-24285D01*
X50591Y-24267D01*
X50561Y-24242D01*
X50535Y-24212D01*
X50517Y-24178D01*
X50505Y-24141D01*
X50501Y-24102D01*
X50504Y-24064D01*
X50515Y-24027D01*
X50532Y-23992D01*
X50557Y-23962D01*
X50586Y-23936D01*
X50620Y-23917D01*
X50658Y-23905D01*
X50696Y-23901D01*
X50734Y-23904D01*
X50772Y-23914D01*
X50807Y-23932D01*
X50837Y-23956D01*
X50863Y-23985D01*
X50882Y-24019D01*
X50895Y-24056D01*
X50899Y-24095D01*
X50900Y-24100D01*
X50750Y-23750D02*
X50500Y-24000D01*
X50600Y-29250D02*
X50500Y-29150D01*
X55900Y-29250D02*
X56000Y-29150D01*
X56000Y-23850D02*
X55900Y-23750D01*
X50500Y-24000D02*
X50500Y-29150D01*
X50600Y-29250D02*
X55900Y-29250D01*
X56000Y-29150D02*
X56000Y-23850D01*
X55900Y-23750D02*
X50750Y-23750D01*
G54D13*
X47550Y-23150D02*
X48450Y-23150D01*
X48450Y-23150D02*
X48450Y-23650D01*
X48450Y-23650D02*
X47550Y-23650D01*
X47550Y-23650D02*
X47550Y-23150D01*
X47550Y-23800D02*
X48450Y-23800D01*
X48450Y-23800D02*
X48450Y-24300D01*
X48450Y-24300D02*
X47550Y-24300D01*
X47550Y-24300D02*
X47550Y-23800D01*
X68800Y-30100D02*
X67900Y-30100D01*
X67900Y-30100D02*
X67900Y-29600D01*
X67900Y-29600D02*
X68800Y-29600D01*
X68800Y-29600D02*
X68800Y-30100D01*
G54D14*
X68604Y-29132D02*
X68604Y-29004D01*
X68604Y-29004D02*
X68407Y-29004D01*
X68407Y-29132D02*
X68407Y-29004D01*
X68604Y-29132D02*
X68407Y-29132D01*
X68604Y-29377D02*
X68604Y-29318D01*
X68604Y-29318D02*
X68505Y-29318D01*
X68505Y-29377D02*
X68505Y-29318D01*
X68604Y-29377D02*
X68505Y-29377D01*
X68604Y-29182D02*
X68604Y-29123D01*
X68604Y-29123D02*
X68505Y-29123D01*
X68505Y-29182D02*
X68505Y-29123D01*
X68604Y-29182D02*
X68505Y-29182D01*
X68604Y-29328D02*
X68604Y-29172D01*
X68604Y-29172D02*
X68535Y-29172D01*
X68535Y-29328D02*
X68535Y-29172D01*
X68604Y-29328D02*
X68535Y-29328D01*
X69193Y-29132D02*
X69193Y-29004D01*
X69193Y-29004D02*
X68996Y-29004D01*
X68996Y-29132D02*
X68996Y-29004D01*
X69193Y-29132D02*
X68996Y-29132D01*
X69193Y-29496D02*
X69193Y-29368D01*
X69193Y-29368D02*
X68996Y-29368D01*
X68996Y-29496D02*
X68996Y-29368D01*
X69193Y-29496D02*
X68996Y-29496D01*
X69095Y-29182D02*
X69095Y-29123D01*
X69095Y-29123D02*
X68996Y-29123D01*
X68996Y-29182D02*
X68996Y-29123D01*
X69095Y-29182D02*
X68996Y-29182D01*
X69095Y-29377D02*
X69095Y-29318D01*
X69095Y-29318D02*
X68996Y-29318D01*
X68996Y-29377D02*
X68996Y-29318D01*
X69095Y-29377D02*
X68996Y-29377D01*
X69065Y-29328D02*
X69065Y-29172D01*
X69065Y-29172D02*
X68996Y-29172D01*
X68996Y-29328D02*
X68996Y-29172D01*
X69065Y-29328D02*
X68996Y-29328D01*
X68800Y-29289D02*
X68800Y-29211D01*
X68800Y-29211D02*
X68722Y-29211D01*
X68722Y-29289D02*
X68722Y-29211D01*
X68800Y-29289D02*
X68722Y-29289D01*
X68604Y-29486D02*
X68604Y-29368D01*
X68604Y-29368D02*
X68486Y-29368D01*
X68486Y-29486D02*
X68486Y-29368D01*
X68604Y-29486D02*
X68486Y-29486D01*
X68436Y-29496D02*
X68436Y-29407D01*
X68436Y-29407D02*
X68407Y-29407D01*
X68407Y-29496D02*
X68407Y-29407D01*
X68436Y-29496D02*
X68407Y-29496D01*
G54D15*
X68594Y-29024D02*
X69006Y-29024D01*
X68996Y-29476D02*
X68436Y-29476D01*
G54D16*
X68494Y-29427D02*
X68493Y-29432D01*
X68491Y-29437D01*
X68489Y-29442D01*
X68485Y-29446D01*
X68481Y-29450D01*
X68476Y-29452D01*
X68471Y-29454D01*
X68466Y-29454D01*
X68461Y-29454D01*
X68456Y-29452D01*
X68451Y-29450D01*
X68447Y-29447D01*
X68443Y-29442D01*
X68441Y-29438D01*
X68439Y-29432D01*
X68439Y-29427D01*
X68439Y-29422D01*
X68440Y-29417D01*
X68443Y-29412D01*
X68446Y-29408D01*
X68451Y-29405D01*
X68455Y-29402D01*
X68460Y-29400D01*
X68466Y-29400D01*
X68470Y-29400D01*
X68476Y-29401D01*
X68481Y-29404D01*
X68485Y-29407D01*
X68488Y-29411D01*
X68491Y-29416D01*
X68493Y-29421D01*
X68493Y-29427D01*
X68494Y-29427D01*
G54D15*
X68407Y-29387D02*
X68418Y-29386D01*
X68430Y-29384D01*
X68442Y-29382D01*
X68453Y-29378D01*
X68464Y-29374D01*
X68475Y-29368D01*
X68485Y-29362D01*
X68495Y-29354D01*
X68503Y-29346D01*
X68511Y-29338D01*
X68519Y-29328D01*
X68525Y-29318D01*
X68531Y-29307D01*
X68535Y-29296D01*
X68539Y-29285D01*
X68541Y-29273D01*
X68543Y-29261D01*
X68544Y-29250D01*
X68543Y-29239D01*
X68541Y-29227D01*
X68539Y-29215D01*
X68535Y-29204D01*
X68531Y-29193D01*
X68525Y-29182D01*
X68519Y-29172D01*
X68511Y-29162D01*
X68503Y-29154D01*
X68495Y-29146D01*
X68485Y-29138D01*
X68475Y-29132D01*
X68464Y-29126D01*
X68453Y-29122D01*
X68442Y-29118D01*
X68430Y-29116D01*
X68418Y-29114D01*
X68407Y-29113D01*
X69193Y-29113D02*
X69182Y-29114D01*
X69170Y-29116D01*
X69158Y-29118D01*
X69147Y-29122D01*
X69136Y-29126D01*
X69125Y-29132D01*
X69115Y-29138D01*
X69105Y-29146D01*
X69097Y-29154D01*
X69089Y-29162D01*
X69081Y-29172D01*
X69075Y-29182D01*
X69069Y-29193D01*
X69065Y-29204D01*
X69061Y-29215D01*
X69059Y-29227D01*
X69057Y-29239D01*
X69056Y-29250D01*
X69057Y-29261D01*
X69059Y-29273D01*
X69061Y-29285D01*
X69065Y-29296D01*
X69069Y-29307D01*
X69075Y-29318D01*
X69081Y-29328D01*
X69089Y-29338D01*
X69097Y-29346D01*
X69105Y-29354D01*
X69115Y-29362D01*
X69125Y-29368D01*
X69136Y-29374D01*
X69147Y-29378D01*
X69158Y-29382D01*
X69170Y-29384D01*
X69182Y-29386D01*
X69193Y-29387D01*
G54D13*
X66552Y-27656D02*
X66552Y-27364D01*
X66564Y-25650D02*
X66564Y-25350D01*
X67260Y-28192D02*
X68320Y-28192D01*
X67260Y-24808D02*
X68320Y-24808D01*
X69996Y-28188D02*
X69996Y-24804D01*
X69420Y-28192D02*
X70080Y-28192D01*
X69420Y-24808D02*
X70080Y-24808D01*
G54D12*
X65900Y-25900D02*
X65900Y-24700D01*
X65900Y-24700D02*
X63100Y-24700D01*
X63100Y-24700D02*
X63100Y-25900D01*
X65900Y-27100D02*
X65900Y-27400D01*
X65900Y-27400D02*
X65300Y-28300D01*
X65300Y-28300D02*
X63700Y-28300D01*
X63700Y-28300D02*
X63100Y-27400D01*
X63100Y-27400D02*
X63100Y-27100D01*
G54D14*
X46554Y-23282D02*
X46554Y-23154D01*
X46554Y-23154D02*
X46357Y-23154D01*
X46357Y-23282D02*
X46357Y-23154D01*
X46554Y-23282D02*
X46357Y-23282D01*
X46554Y-23527D02*
X46554Y-23468D01*
X46554Y-23468D02*
X46455Y-23468D01*
X46455Y-23527D02*
X46455Y-23468D01*
X46554Y-23527D02*
X46455Y-23527D01*
X46554Y-23332D02*
X46554Y-23273D01*
X46554Y-23273D02*
X46455Y-23273D01*
X46455Y-23332D02*
X46455Y-23273D01*
X46554Y-23332D02*
X46455Y-23332D01*
X46554Y-23478D02*
X46554Y-23322D01*
X46554Y-23322D02*
X46485Y-23322D01*
X46485Y-23478D02*
X46485Y-23322D01*
X46554Y-23478D02*
X46485Y-23478D01*
X47143Y-23282D02*
X47143Y-23154D01*
X47143Y-23154D02*
X46946Y-23154D01*
X46946Y-23282D02*
X46946Y-23154D01*
X47143Y-23282D02*
X46946Y-23282D01*
X47143Y-23646D02*
X47143Y-23518D01*
X47143Y-23518D02*
X46946Y-23518D01*
X46946Y-23646D02*
X46946Y-23518D01*
X47143Y-23646D02*
X46946Y-23646D01*
X47045Y-23332D02*
X47045Y-23273D01*
X47045Y-23273D02*
X46946Y-23273D01*
X46946Y-23332D02*
X46946Y-23273D01*
X47045Y-23332D02*
X46946Y-23332D01*
X47045Y-23527D02*
X47045Y-23468D01*
X47045Y-23468D02*
X46946Y-23468D01*
X46946Y-23527D02*
X46946Y-23468D01*
X47045Y-23527D02*
X46946Y-23527D01*
X47015Y-23478D02*
X47015Y-23322D01*
X47015Y-23322D02*
X46946Y-23322D01*
X46946Y-23478D02*
X46946Y-23322D01*
X47015Y-23478D02*
X46946Y-23478D01*
X46750Y-23439D02*
X46750Y-23361D01*
X46750Y-23361D02*
X46672Y-23361D01*
X46672Y-23439D02*
X46672Y-23361D01*
X46750Y-23439D02*
X46672Y-23439D01*
X46554Y-23636D02*
X46554Y-23518D01*
X46554Y-23518D02*
X46436Y-23518D01*
X46436Y-23636D02*
X46436Y-23518D01*
X46554Y-23636D02*
X46436Y-23636D01*
X46386Y-23646D02*
X46386Y-23557D01*
X46386Y-23557D02*
X46357Y-23557D01*
X46357Y-23646D02*
X46357Y-23557D01*
X46386Y-23646D02*
X46357Y-23646D01*
G54D15*
X46544Y-23174D02*
X46956Y-23174D01*
X46946Y-23626D02*
X46386Y-23626D01*
G54D16*
X46444Y-23577D02*
X46443Y-23582D01*
X46441Y-23587D01*
X46439Y-23592D01*
X46435Y-23596D01*
X46431Y-23600D01*
X46426Y-23602D01*
X46421Y-23604D01*
X46416Y-23604D01*
X46411Y-23604D01*
X46406Y-23602D01*
X46401Y-23600D01*
X46397Y-23597D01*
X46393Y-23592D01*
X46391Y-23588D01*
X46389Y-23582D01*
X46389Y-23577D01*
X46389Y-23572D01*
X46390Y-23567D01*
X46393Y-23562D01*
X46396Y-23558D01*
X46401Y-23555D01*
X46405Y-23552D01*
X46410Y-23550D01*
X46416Y-23550D01*
X46420Y-23550D01*
X46426Y-23551D01*
X46431Y-23554D01*
X46435Y-23557D01*
X46438Y-23561D01*
X46441Y-23566D01*
X46443Y-23571D01*
X46443Y-23577D01*
X46444Y-23577D01*
G54D15*
X46357Y-23537D02*
X46368Y-23536D01*
X46380Y-23534D01*
X46392Y-23532D01*
X46403Y-23528D01*
X46414Y-23524D01*
X46425Y-23518D01*
X46435Y-23512D01*
X46445Y-23504D01*
X46453Y-23496D01*
X46461Y-23488D01*
X46469Y-23478D01*
X46475Y-23468D01*
X46481Y-23457D01*
X46485Y-23446D01*
X46489Y-23435D01*
X46491Y-23423D01*
X46493Y-23411D01*
X46494Y-23400D01*
X46493Y-23389D01*
X46491Y-23377D01*
X46489Y-23365D01*
X46485Y-23354D01*
X46481Y-23343D01*
X46475Y-23332D01*
X46469Y-23322D01*
X46461Y-23312D01*
X46453Y-23304D01*
X46445Y-23296D01*
X46435Y-23288D01*
X46425Y-23282D01*
X46414Y-23276D01*
X46403Y-23272D01*
X46392Y-23268D01*
X46380Y-23266D01*
X46368Y-23264D01*
X46357Y-23263D01*
X47143Y-23263D02*
X47132Y-23264D01*
X47120Y-23266D01*
X47108Y-23268D01*
X47097Y-23272D01*
X47086Y-23276D01*
X47075Y-23282D01*
X47065Y-23288D01*
X47055Y-23296D01*
X47047Y-23304D01*
X47039Y-23312D01*
X47031Y-23322D01*
X47025Y-23332D01*
X47019Y-23343D01*
X47015Y-23354D01*
X47011Y-23365D01*
X47009Y-23377D01*
X47007Y-23389D01*
X47006Y-23400D01*
X47007Y-23411D01*
X47009Y-23423D01*
X47011Y-23435D01*
X47015Y-23446D01*
X47019Y-23457D01*
X47025Y-23468D01*
X47031Y-23478D01*
X47039Y-23488D01*
X47047Y-23496D01*
X47055Y-23504D01*
X47065Y-23512D01*
X47075Y-23518D01*
X47086Y-23524D01*
X47097Y-23528D01*
X47108Y-23532D01*
X47120Y-23534D01*
X47132Y-23536D01*
X47143Y-23537D01*
G54D14*
X46554Y-23932D02*
X46554Y-23804D01*
X46554Y-23804D02*
X46357Y-23804D01*
X46357Y-23932D02*
X46357Y-23804D01*
X46554Y-23932D02*
X46357Y-23932D01*
X46554Y-24177D02*
X46554Y-24118D01*
X46554Y-24118D02*
X46455Y-24118D01*
X46455Y-24177D02*
X46455Y-24118D01*
X46554Y-24177D02*
X46455Y-24177D01*
X46554Y-23982D02*
X46554Y-23923D01*
X46554Y-23923D02*
X46455Y-23923D01*
X46455Y-23982D02*
X46455Y-23923D01*
X46554Y-23982D02*
X46455Y-23982D01*
X46554Y-24128D02*
X46554Y-23972D01*
X46554Y-23972D02*
X46485Y-23972D01*
X46485Y-24128D02*
X46485Y-23972D01*
X46554Y-24128D02*
X46485Y-24128D01*
X47143Y-23932D02*
X47143Y-23804D01*
X47143Y-23804D02*
X46946Y-23804D01*
X46946Y-23932D02*
X46946Y-23804D01*
X47143Y-23932D02*
X46946Y-23932D01*
X47143Y-24296D02*
X47143Y-24168D01*
X47143Y-24168D02*
X46946Y-24168D01*
X46946Y-24296D02*
X46946Y-24168D01*
X47143Y-24296D02*
X46946Y-24296D01*
X47045Y-23982D02*
X47045Y-23923D01*
X47045Y-23923D02*
X46946Y-23923D01*
X46946Y-23982D02*
X46946Y-23923D01*
X47045Y-23982D02*
X46946Y-23982D01*
X47045Y-24177D02*
X47045Y-24118D01*
X47045Y-24118D02*
X46946Y-24118D01*
X46946Y-24177D02*
X46946Y-24118D01*
X47045Y-24177D02*
X46946Y-24177D01*
X47015Y-24128D02*
X47015Y-23972D01*
X47015Y-23972D02*
X46946Y-23972D01*
X46946Y-24128D02*
X46946Y-23972D01*
X47015Y-24128D02*
X46946Y-24128D01*
X46750Y-24089D02*
X46750Y-24011D01*
X46750Y-24011D02*
X46672Y-24011D01*
X46672Y-24089D02*
X46672Y-24011D01*
X46750Y-24089D02*
X46672Y-24089D01*
X46554Y-24286D02*
X46554Y-24168D01*
X46554Y-24168D02*
X46436Y-24168D01*
X46436Y-24286D02*
X46436Y-24168D01*
X46554Y-24286D02*
X46436Y-24286D01*
X46386Y-24296D02*
X46386Y-24207D01*
X46386Y-24207D02*
X46357Y-24207D01*
X46357Y-24296D02*
X46357Y-24207D01*
X46386Y-24296D02*
X46357Y-24296D01*
G54D15*
X46544Y-23824D02*
X46956Y-23824D01*
X46946Y-24276D02*
X46386Y-24276D01*
G54D16*
X46444Y-24227D02*
X46443Y-24232D01*
X46441Y-24237D01*
X46439Y-24242D01*
X46435Y-24246D01*
X46431Y-24250D01*
X46426Y-24252D01*
X46421Y-24254D01*
X46416Y-24254D01*
X46411Y-24254D01*
X46406Y-24252D01*
X46401Y-24250D01*
X46397Y-24247D01*
X46393Y-24242D01*
X46391Y-24238D01*
X46389Y-24232D01*
X46389Y-24227D01*
X46389Y-24222D01*
X46390Y-24217D01*
X46393Y-24212D01*
X46396Y-24208D01*
X46401Y-24205D01*
X46405Y-24202D01*
X46410Y-24200D01*
X46416Y-24200D01*
X46420Y-24200D01*
X46426Y-24201D01*
X46431Y-24204D01*
X46435Y-24207D01*
X46438Y-24211D01*
X46441Y-24216D01*
X46443Y-24221D01*
X46443Y-24227D01*
X46444Y-24227D01*
G54D15*
X46357Y-24187D02*
X46368Y-24186D01*
X46380Y-24184D01*
X46392Y-24182D01*
X46403Y-24178D01*
X46414Y-24174D01*
X46425Y-24168D01*
X46435Y-24162D01*
X46445Y-24154D01*
X46453Y-24146D01*
X46461Y-24138D01*
X46469Y-24128D01*
X46475Y-24118D01*
X46481Y-24107D01*
X46485Y-24096D01*
X46489Y-24085D01*
X46491Y-24073D01*
X46493Y-24061D01*
X46494Y-24050D01*
X46493Y-24039D01*
X46491Y-24027D01*
X46489Y-24015D01*
X46485Y-24004D01*
X46481Y-23993D01*
X46475Y-23982D01*
X46469Y-23972D01*
X46461Y-23962D01*
X46453Y-23954D01*
X46445Y-23946D01*
X46435Y-23938D01*
X46425Y-23932D01*
X46414Y-23926D01*
X46403Y-23922D01*
X46392Y-23918D01*
X46380Y-23916D01*
X46368Y-23914D01*
X46357Y-23913D01*
X47143Y-23913D02*
X47132Y-23914D01*
X47120Y-23916D01*
X47108Y-23918D01*
X47097Y-23922D01*
X47086Y-23926D01*
X47075Y-23932D01*
X47065Y-23938D01*
X47055Y-23946D01*
X47047Y-23954D01*
X47039Y-23962D01*
X47031Y-23972D01*
X47025Y-23982D01*
X47019Y-23993D01*
X47015Y-24004D01*
X47011Y-24015D01*
X47009Y-24027D01*
X47007Y-24039D01*
X47006Y-24050D01*
X47007Y-24061D01*
X47009Y-24073D01*
X47011Y-24085D01*
X47015Y-24096D01*
X47019Y-24107D01*
X47025Y-24118D01*
X47031Y-24128D01*
X47039Y-24138D01*
X47047Y-24146D01*
X47055Y-24154D01*
X47065Y-24162D01*
X47075Y-24168D01*
X47086Y-24174D01*
X47097Y-24178D01*
X47108Y-24182D01*
X47120Y-24184D01*
X47132Y-24186D01*
X47143Y-24187D01*
G54D14*
X60196Y-29068D02*
X60196Y-29196D01*
X60196Y-29196D02*
X60393Y-29196D01*
X60393Y-29068D02*
X60393Y-29196D01*
X60196Y-29068D02*
X60393Y-29068D01*
X60196Y-28823D02*
X60196Y-28882D01*
X60196Y-28882D02*
X60295Y-28882D01*
X60295Y-28823D02*
X60295Y-28882D01*
X60196Y-28823D02*
X60295Y-28823D01*
X60196Y-29018D02*
X60196Y-29077D01*
X60196Y-29077D02*
X60295Y-29077D01*
X60295Y-29018D02*
X60295Y-29077D01*
X60196Y-29018D02*
X60295Y-29018D01*
X60196Y-28872D02*
X60196Y-29028D01*
X60196Y-29028D02*
X60265Y-29028D01*
X60265Y-28872D02*
X60265Y-29028D01*
X60196Y-28872D02*
X60265Y-28872D01*
X59607Y-29068D02*
X59607Y-29196D01*
X59607Y-29196D02*
X59804Y-29196D01*
X59804Y-29068D02*
X59804Y-29196D01*
X59607Y-29068D02*
X59804Y-29068D01*
X59607Y-28704D02*
X59607Y-28832D01*
X59607Y-28832D02*
X59804Y-28832D01*
X59804Y-28704D02*
X59804Y-28832D01*
X59607Y-28704D02*
X59804Y-28704D01*
X59705Y-29018D02*
X59705Y-29077D01*
X59705Y-29077D02*
X59804Y-29077D01*
X59804Y-29018D02*
X59804Y-29077D01*
X59705Y-29018D02*
X59804Y-29018D01*
X59705Y-28823D02*
X59705Y-28882D01*
X59705Y-28882D02*
X59804Y-28882D01*
X59804Y-28823D02*
X59804Y-28882D01*
X59705Y-28823D02*
X59804Y-28823D01*
X59735Y-28872D02*
X59735Y-29028D01*
X59735Y-29028D02*
X59804Y-29028D01*
X59804Y-28872D02*
X59804Y-29028D01*
X59735Y-28872D02*
X59804Y-28872D01*
X60000Y-28911D02*
X60000Y-28989D01*
X60000Y-28989D02*
X60078Y-28989D01*
X60078Y-28911D02*
X60078Y-28989D01*
X60000Y-28911D02*
X60078Y-28911D01*
X60196Y-28714D02*
X60196Y-28832D01*
X60196Y-28832D02*
X60314Y-28832D01*
X60314Y-28714D02*
X60314Y-28832D01*
X60196Y-28714D02*
X60314Y-28714D01*
X60364Y-28704D02*
X60364Y-28793D01*
X60364Y-28793D02*
X60393Y-28793D01*
X60393Y-28704D02*
X60393Y-28793D01*
X60364Y-28704D02*
X60393Y-28704D01*
G54D15*
X60206Y-29176D02*
X59794Y-29176D01*
X59804Y-28724D02*
X60364Y-28724D01*
G54D16*
X60362Y-28773D02*
X60361Y-28778D01*
X60359Y-28783D01*
X60357Y-28788D01*
X60353Y-28792D01*
X60349Y-28796D01*
X60344Y-28798D01*
X60339Y-28800D01*
X60334Y-28800D01*
X60329Y-28800D01*
X60324Y-28798D01*
X60319Y-28796D01*
X60315Y-28793D01*
X60311Y-28788D01*
X60309Y-28784D01*
X60307Y-28778D01*
X60307Y-28773D01*
X60307Y-28768D01*
X60308Y-28763D01*
X60311Y-28758D01*
X60314Y-28754D01*
X60319Y-28751D01*
X60323Y-28748D01*
X60328Y-28746D01*
X60334Y-28746D01*
X60338Y-28746D01*
X60344Y-28747D01*
X60349Y-28750D01*
X60353Y-28753D01*
X60356Y-28757D01*
X60359Y-28762D01*
X60361Y-28767D01*
X60361Y-28773D01*
X60362Y-28773D01*
G54D15*
X60393Y-28813D02*
X60382Y-28814D01*
X60370Y-28816D01*
X60358Y-28818D01*
X60347Y-28822D01*
X60336Y-28826D01*
X60325Y-28832D01*
X60315Y-28838D01*
X60305Y-28846D01*
X60297Y-28854D01*
X60289Y-28862D01*
X60281Y-28872D01*
X60275Y-28882D01*
X60269Y-28893D01*
X60265Y-28904D01*
X60261Y-28915D01*
X60259Y-28927D01*
X60257Y-28939D01*
X60256Y-28950D01*
X60257Y-28961D01*
X60259Y-28973D01*
X60261Y-28985D01*
X60265Y-28996D01*
X60269Y-29007D01*
X60275Y-29018D01*
X60281Y-29028D01*
X60289Y-29038D01*
X60297Y-29046D01*
X60305Y-29054D01*
X60315Y-29062D01*
X60325Y-29068D01*
X60336Y-29074D01*
X60347Y-29078D01*
X60358Y-29082D01*
X60370Y-29084D01*
X60382Y-29086D01*
X60393Y-29087D01*
X59607Y-29087D02*
X59618Y-29086D01*
X59630Y-29084D01*
X59642Y-29082D01*
X59653Y-29078D01*
X59664Y-29074D01*
X59675Y-29068D01*
X59685Y-29062D01*
X59695Y-29054D01*
X59703Y-29046D01*
X59711Y-29038D01*
X59719Y-29028D01*
X59725Y-29018D01*
X59731Y-29007D01*
X59735Y-28996D01*
X59739Y-28985D01*
X59741Y-28973D01*
X59743Y-28961D01*
X59744Y-28950D01*
X59743Y-28939D01*
X59741Y-28927D01*
X59739Y-28915D01*
X59735Y-28904D01*
X59731Y-28893D01*
X59725Y-28882D01*
X59719Y-28872D01*
X59711Y-28862D01*
X59703Y-28854D01*
X59695Y-28846D01*
X59685Y-28838D01*
X59675Y-28832D01*
X59664Y-28826D01*
X59653Y-28822D01*
X59642Y-28818D01*
X59630Y-28816D01*
X59618Y-28814D01*
X59607Y-28813D01*
G54D13*
X47550Y-24450D02*
X48450Y-24450D01*
X48450Y-24450D02*
X48450Y-24950D01*
X48450Y-24950D02*
X47550Y-24950D01*
X47550Y-24950D02*
X47550Y-24450D01*
G54D14*
X46554Y-24582D02*
X46554Y-24454D01*
X46554Y-24454D02*
X46357Y-24454D01*
X46357Y-24582D02*
X46357Y-24454D01*
X46554Y-24582D02*
X46357Y-24582D01*
X46554Y-24827D02*
X46554Y-24768D01*
X46554Y-24768D02*
X46455Y-24768D01*
X46455Y-24827D02*
X46455Y-24768D01*
X46554Y-24827D02*
X46455Y-24827D01*
X46554Y-24632D02*
X46554Y-24573D01*
X46554Y-24573D02*
X46455Y-24573D01*
X46455Y-24632D02*
X46455Y-24573D01*
X46554Y-24632D02*
X46455Y-24632D01*
X46554Y-24778D02*
X46554Y-24622D01*
X46554Y-24622D02*
X46485Y-24622D01*
X46485Y-24778D02*
X46485Y-24622D01*
X46554Y-24778D02*
X46485Y-24778D01*
X47143Y-24582D02*
X47143Y-24454D01*
X47143Y-24454D02*
X46946Y-24454D01*
X46946Y-24582D02*
X46946Y-24454D01*
X47143Y-24582D02*
X46946Y-24582D01*
X47143Y-24946D02*
X47143Y-24818D01*
X47143Y-24818D02*
X46946Y-24818D01*
X46946Y-24946D02*
X46946Y-24818D01*
X47143Y-24946D02*
X46946Y-24946D01*
X47045Y-24632D02*
X47045Y-24573D01*
X47045Y-24573D02*
X46946Y-24573D01*
X46946Y-24632D02*
X46946Y-24573D01*
X47045Y-24632D02*
X46946Y-24632D01*
X47045Y-24827D02*
X47045Y-24768D01*
X47045Y-24768D02*
X46946Y-24768D01*
X46946Y-24827D02*
X46946Y-24768D01*
X47045Y-24827D02*
X46946Y-24827D01*
X47015Y-24778D02*
X47015Y-24622D01*
X47015Y-24622D02*
X46946Y-24622D01*
X46946Y-24778D02*
X46946Y-24622D01*
X47015Y-24778D02*
X46946Y-24778D01*
X46750Y-24739D02*
X46750Y-24661D01*
X46750Y-24661D02*
X46672Y-24661D01*
X46672Y-24739D02*
X46672Y-24661D01*
X46750Y-24739D02*
X46672Y-24739D01*
X46554Y-24936D02*
X46554Y-24818D01*
X46554Y-24818D02*
X46436Y-24818D01*
X46436Y-24936D02*
X46436Y-24818D01*
X46554Y-24936D02*
X46436Y-24936D01*
X46386Y-24946D02*
X46386Y-24857D01*
X46386Y-24857D02*
X46357Y-24857D01*
X46357Y-24946D02*
X46357Y-24857D01*
X46386Y-24946D02*
X46357Y-24946D01*
G54D15*
X46544Y-24474D02*
X46956Y-24474D01*
X46946Y-24926D02*
X46386Y-24926D01*
G54D16*
X46444Y-24877D02*
X46443Y-24882D01*
X46441Y-24887D01*
X46439Y-24892D01*
X46435Y-24896D01*
X46431Y-24900D01*
X46426Y-24902D01*
X46421Y-24904D01*
X46416Y-24904D01*
X46411Y-24904D01*
X46406Y-24902D01*
X46401Y-24900D01*
X46397Y-24897D01*
X46393Y-24892D01*
X46391Y-24888D01*
X46389Y-24882D01*
X46389Y-24877D01*
X46389Y-24872D01*
X46390Y-24867D01*
X46393Y-24862D01*
X46396Y-24858D01*
X46401Y-24855D01*
X46405Y-24852D01*
X46410Y-24850D01*
X46416Y-24850D01*
X46420Y-24850D01*
X46426Y-24851D01*
X46431Y-24854D01*
X46435Y-24857D01*
X46438Y-24861D01*
X46441Y-24866D01*
X46443Y-24871D01*
X46443Y-24877D01*
X46444Y-24877D01*
G54D15*
X46357Y-24837D02*
X46368Y-24836D01*
X46380Y-24834D01*
X46392Y-24832D01*
X46403Y-24828D01*
X46414Y-24824D01*
X46425Y-24818D01*
X46435Y-24812D01*
X46445Y-24804D01*
X46453Y-24796D01*
X46461Y-24788D01*
X46469Y-24778D01*
X46475Y-24768D01*
X46481Y-24757D01*
X46485Y-24746D01*
X46489Y-24735D01*
X46491Y-24723D01*
X46493Y-24711D01*
X46494Y-24700D01*
X46493Y-24689D01*
X46491Y-24677D01*
X46489Y-24665D01*
X46485Y-24654D01*
X46481Y-24643D01*
X46475Y-24632D01*
X46469Y-24622D01*
X46461Y-24612D01*
X46453Y-24604D01*
X46445Y-24596D01*
X46435Y-24588D01*
X46425Y-24582D01*
X46414Y-24576D01*
X46403Y-24572D01*
X46392Y-24568D01*
X46380Y-24566D01*
X46368Y-24564D01*
X46357Y-24563D01*
X47143Y-24563D02*
X47132Y-24564D01*
X47120Y-24566D01*
X47108Y-24568D01*
X47097Y-24572D01*
X47086Y-24576D01*
X47075Y-24582D01*
X47065Y-24588D01*
X47055Y-24596D01*
X47047Y-24604D01*
X47039Y-24612D01*
X47031Y-24622D01*
X47025Y-24632D01*
X47019Y-24643D01*
X47015Y-24654D01*
X47011Y-24665D01*
X47009Y-24677D01*
X47007Y-24689D01*
X47006Y-24700D01*
X47007Y-24711D01*
X47009Y-24723D01*
X47011Y-24735D01*
X47015Y-24746D01*
X47019Y-24757D01*
X47025Y-24768D01*
X47031Y-24778D01*
X47039Y-24788D01*
X47047Y-24796D01*
X47055Y-24804D01*
X47065Y-24812D01*
X47075Y-24818D01*
X47086Y-24824D01*
X47097Y-24828D01*
X47108Y-24832D01*
X47120Y-24834D01*
X47132Y-24836D01*
X47143Y-24837D01*
G54D11*
X47458Y-25750D02*
X47454Y-25780D01*
X47446Y-25810D01*
X47431Y-25837D01*
X47412Y-25861D01*
X47388Y-25880D01*
X47361Y-25895D01*
X47331Y-25904D01*
X47301Y-25907D01*
X47271Y-25905D01*
X47241Y-25896D01*
X47214Y-25882D01*
X47190Y-25862D01*
X47170Y-25839D01*
X47155Y-25812D01*
X47146Y-25782D01*
X47143Y-25752D01*
X47145Y-25722D01*
X47154Y-25692D01*
X47168Y-25665D01*
X47187Y-25641D01*
X47210Y-25621D01*
X47237Y-25606D01*
X47267Y-25596D01*
X47297Y-25593D01*
X47327Y-25595D01*
X47357Y-25603D01*
X47384Y-25617D01*
X47408Y-25636D01*
X47429Y-25659D01*
X47444Y-25686D01*
X47454Y-25715D01*
X47457Y-25746D01*
X47458Y-25750D01*
X46800Y-26250D02*
X47800Y-26250D01*
X47300Y-25250D02*
X47300Y-25750D01*
X47300Y-26750D02*
X47300Y-26250D01*
X46300Y-25250D02*
X48300Y-25250D01*
X46300Y-26750D02*
X48300Y-26750D01*
X47458Y-27800D02*
X47454Y-27830D01*
X47446Y-27860D01*
X47431Y-27887D01*
X47412Y-27911D01*
X47388Y-27930D01*
X47361Y-27945D01*
X47331Y-27954D01*
X47301Y-27957D01*
X47271Y-27955D01*
X47241Y-27946D01*
X47214Y-27932D01*
X47190Y-27912D01*
X47170Y-27889D01*
X47155Y-27862D01*
X47146Y-27832D01*
X47143Y-27802D01*
X47145Y-27772D01*
X47154Y-27742D01*
X47168Y-27715D01*
X47187Y-27691D01*
X47210Y-27671D01*
X47237Y-27656D01*
X47267Y-27646D01*
X47297Y-27643D01*
X47327Y-27645D01*
X47357Y-27653D01*
X47384Y-27667D01*
X47408Y-27686D01*
X47429Y-27709D01*
X47444Y-27736D01*
X47454Y-27765D01*
X47457Y-27796D01*
X47458Y-27800D01*
X46800Y-28300D02*
X47800Y-28300D01*
X47300Y-27300D02*
X47300Y-27800D01*
X47300Y-28800D02*
X47300Y-28300D01*
X46300Y-27300D02*
X48300Y-27300D01*
X46300Y-28800D02*
X48300Y-28800D01*
G54D13*
X65600Y-29100D02*
X65600Y-28200D01*
X65600Y-28200D02*
X66100Y-28200D01*
X66100Y-28200D02*
X66100Y-29100D01*
X66100Y-29100D02*
X65600Y-29100D01*
G54D11*
X69500Y-23000D02*
X44500Y-23000D01*
X44500Y-23000D02*
X44500Y-22000D01*
X44500Y-22000D02*
X69500Y-22000D01*
X69500Y-22000D02*
X69500Y-23000D01*
X69500Y-31000D02*
X44500Y-31000D01*
X44500Y-31000D02*
X44500Y-30000D01*
X44500Y-30000D02*
X69500Y-30000D01*
X69500Y-30000D02*
X69500Y-31000D01*
G54D17*
X56374Y-23143D02*
X56374Y-23629D01*
X56393Y-23686D01*
X56412Y-23714D01*
X56450Y-23743D01*
X56527Y-23743D01*
X56565Y-23714D01*
X56584Y-23686D01*
X56603Y-23629D01*
X56603Y-23143D01*
X56774Y-23200D02*
X56793Y-23171D01*
X56831Y-23143D01*
X56927Y-23143D01*
X56965Y-23171D01*
X56984Y-23200D01*
X57003Y-23257D01*
X57003Y-23314D01*
X56984Y-23400D01*
X56755Y-23743D01*
X57003Y-23743D01*
X57250Y-23143D02*
X57289Y-23143D01*
X57327Y-23171D01*
X57346Y-23200D01*
X57365Y-23257D01*
X57384Y-23371D01*
X57384Y-23514D01*
X57365Y-23629D01*
X57346Y-23686D01*
X57327Y-23714D01*
X57289Y-23743D01*
X57250Y-23743D01*
X57212Y-23714D01*
X57193Y-23686D01*
X57174Y-23629D01*
X57155Y-23514D01*
X57155Y-23371D01*
X57174Y-23257D01*
X57193Y-23200D01*
X57212Y-23171D01*
X57250Y-23143D01*
X57765Y-23743D02*
X57536Y-23743D01*
X57650Y-23743D02*
X57650Y-23143D01*
X57612Y-23229D01*
X57574Y-23286D01*
X57536Y-23314D01*
X50963Y-24233D02*
X51230Y-24833D01*
X51230Y-24233D02*
X50963Y-24833D01*
X51611Y-24776D02*
X51592Y-24804D01*
X51535Y-24833D01*
X51497Y-24833D01*
X51439Y-24804D01*
X51401Y-24747D01*
X51382Y-24690D01*
X51363Y-24576D01*
X51363Y-24490D01*
X51382Y-24376D01*
X51401Y-24319D01*
X51439Y-24261D01*
X51497Y-24233D01*
X51535Y-24233D01*
X51592Y-24261D01*
X51611Y-24290D01*
X51744Y-24233D02*
X51992Y-24233D01*
X51858Y-24461D01*
X51916Y-24461D01*
X51954Y-24490D01*
X51973Y-24519D01*
X51992Y-24576D01*
X51992Y-24719D01*
X51973Y-24776D01*
X51954Y-24804D01*
X51916Y-24833D01*
X51801Y-24833D01*
X51763Y-24804D01*
X51744Y-24776D01*
X52144Y-24804D02*
X52201Y-24833D01*
X52297Y-24833D01*
X52335Y-24804D01*
X52354Y-24776D01*
X52373Y-24719D01*
X52373Y-24661D01*
X52354Y-24604D01*
X52335Y-24576D01*
X52297Y-24547D01*
X52220Y-24519D01*
X52182Y-24490D01*
X52163Y-24461D01*
X52144Y-24404D01*
X52144Y-24347D01*
X52163Y-24290D01*
X52182Y-24261D01*
X52220Y-24233D01*
X52316Y-24233D01*
X52373Y-24261D01*
X52735Y-24233D02*
X52544Y-24233D01*
X52525Y-24519D01*
X52544Y-24490D01*
X52582Y-24461D01*
X52678Y-24461D01*
X52716Y-24490D01*
X52735Y-24519D01*
X52754Y-24576D01*
X52754Y-24719D01*
X52735Y-24776D01*
X52716Y-24804D01*
X52678Y-24833D01*
X52582Y-24833D01*
X52544Y-24804D01*
X52525Y-24776D01*
X53001Y-24233D02*
X53040Y-24233D01*
X53078Y-24261D01*
X53097Y-24290D01*
X53116Y-24347D01*
X53135Y-24461D01*
X53135Y-24604D01*
X53116Y-24719D01*
X53097Y-24776D01*
X53078Y-24804D01*
X53040Y-24833D01*
X53001Y-24833D01*
X52963Y-24804D01*
X52944Y-24776D01*
X52925Y-24719D01*
X52906Y-24604D01*
X52906Y-24461D01*
X52925Y-24347D01*
X52944Y-24290D01*
X52963Y-24261D01*
X53001Y-24233D01*
X53287Y-24661D02*
X53478Y-24661D01*
X53249Y-24833D02*
X53382Y-24233D01*
X53516Y-24833D01*
X53649Y-24604D02*
X53954Y-24604D01*
X54087Y-24233D02*
X54220Y-24833D01*
X54354Y-24233D01*
X54754Y-24890D02*
X54716Y-24861D01*
X54678Y-24804D01*
X54621Y-24719D01*
X54582Y-24690D01*
X54544Y-24690D01*
X54563Y-24833D02*
X54525Y-24804D01*
X54487Y-24747D01*
X54468Y-24633D01*
X54468Y-24433D01*
X54487Y-24319D01*
X54525Y-24261D01*
X54563Y-24233D01*
X54640Y-24233D01*
X54678Y-24261D01*
X54716Y-24319D01*
X54735Y-24433D01*
X54735Y-24633D01*
X54716Y-24747D01*
X54678Y-24804D01*
X54640Y-24833D01*
X54563Y-24833D01*
X55116Y-24833D02*
X54887Y-24833D01*
X55001Y-24833D02*
X55001Y-24233D01*
X54963Y-24319D01*
X54925Y-24376D01*
X54887Y-24404D01*
X55363Y-24233D02*
X55402Y-24233D01*
X55440Y-24261D01*
X55459Y-24290D01*
X55478Y-24347D01*
X55497Y-24461D01*
X55497Y-24604D01*
X55478Y-24719D01*
X55459Y-24776D01*
X55440Y-24804D01*
X55402Y-24833D01*
X55363Y-24833D01*
X55325Y-24804D01*
X55306Y-24776D01*
X55287Y-24719D01*
X55268Y-24604D01*
X55268Y-24461D01*
X55287Y-24347D01*
X55306Y-24290D01*
X55325Y-24261D01*
X55363Y-24233D01*
X55744Y-24233D02*
X55783Y-24233D01*
X55821Y-24261D01*
X55840Y-24290D01*
X55859Y-24347D01*
X55878Y-24461D01*
X55878Y-24604D01*
X55859Y-24719D01*
X55840Y-24776D01*
X55821Y-24804D01*
X55783Y-24833D01*
X55744Y-24833D01*
X55706Y-24804D01*
X55687Y-24776D01*
X55668Y-24719D01*
X55649Y-24604D01*
X55649Y-24461D01*
X55668Y-24347D01*
X55687Y-24290D01*
X55706Y-24261D01*
X55744Y-24233D01*
G54D18*
X48630Y-23533D02*
X48570Y-23400D01*
X48527Y-23533D02*
X48527Y-23253D01*
X48595Y-23253D01*
X48613Y-23267D01*
X48621Y-23280D01*
X48630Y-23307D01*
X48630Y-23347D01*
X48621Y-23373D01*
X48613Y-23387D01*
X48595Y-23400D01*
X48527Y-23400D01*
X48698Y-23280D02*
X48707Y-23267D01*
X48724Y-23253D01*
X48767Y-23253D01*
X48784Y-23267D01*
X48793Y-23280D01*
X48801Y-23307D01*
X48801Y-23333D01*
X48793Y-23373D01*
X48690Y-23533D01*
X48801Y-23533D01*
X48912Y-23253D02*
X48929Y-23253D01*
X48946Y-23267D01*
X48955Y-23280D01*
X48964Y-23307D01*
X48972Y-23360D01*
X48972Y-23427D01*
X48964Y-23480D01*
X48955Y-23507D01*
X48946Y-23520D01*
X48929Y-23533D01*
X48912Y-23533D01*
X48895Y-23520D01*
X48886Y-23507D01*
X48878Y-23480D01*
X48869Y-23427D01*
X48869Y-23360D01*
X48878Y-23307D01*
X48886Y-23280D01*
X48895Y-23267D01*
X48912Y-23253D01*
X49126Y-23253D02*
X49092Y-23253D01*
X49075Y-23267D01*
X49066Y-23280D01*
X49049Y-23320D01*
X49040Y-23373D01*
X49040Y-23480D01*
X49049Y-23507D01*
X49057Y-23520D01*
X49075Y-23533D01*
X49109Y-23533D01*
X49126Y-23520D01*
X49135Y-23507D01*
X49143Y-23480D01*
X49143Y-23413D01*
X49135Y-23387D01*
X49126Y-23373D01*
X49109Y-23360D01*
X49075Y-23360D01*
X49057Y-23373D01*
X49049Y-23387D01*
X49040Y-23413D01*
X48650Y-24193D02*
X48590Y-24060D01*
X48547Y-24193D02*
X48547Y-23913D01*
X48615Y-23913D01*
X48633Y-23927D01*
X48641Y-23940D01*
X48650Y-23967D01*
X48650Y-24007D01*
X48641Y-24033D01*
X48633Y-24047D01*
X48615Y-24060D01*
X48547Y-24060D01*
X48718Y-23940D02*
X48727Y-23927D01*
X48744Y-23913D01*
X48787Y-23913D01*
X48804Y-23927D01*
X48813Y-23940D01*
X48821Y-23967D01*
X48821Y-23993D01*
X48813Y-24033D01*
X48710Y-24193D01*
X48821Y-24193D01*
X48932Y-23913D02*
X48949Y-23913D01*
X48966Y-23927D01*
X48975Y-23940D01*
X48984Y-23967D01*
X48992Y-24020D01*
X48992Y-24087D01*
X48984Y-24140D01*
X48975Y-24167D01*
X48966Y-24180D01*
X48949Y-24193D01*
X48932Y-24193D01*
X48915Y-24180D01*
X48906Y-24167D01*
X48898Y-24140D01*
X48889Y-24087D01*
X48889Y-24020D01*
X48898Y-23967D01*
X48906Y-23940D01*
X48915Y-23927D01*
X48932Y-23913D01*
X49052Y-23913D02*
X49172Y-23913D01*
X49095Y-24193D01*
X68150Y-30413D02*
X68090Y-30280D01*
X68047Y-30413D02*
X68047Y-30133D01*
X68115Y-30133D01*
X68133Y-30147D01*
X68141Y-30160D01*
X68150Y-30187D01*
X68150Y-30227D01*
X68141Y-30253D01*
X68133Y-30267D01*
X68115Y-30280D01*
X68047Y-30280D01*
X68304Y-30227D02*
X68304Y-30413D01*
X68261Y-30120D02*
X68218Y-30320D01*
X68330Y-30320D01*
X68432Y-30133D02*
X68449Y-30133D01*
X68466Y-30147D01*
X68475Y-30160D01*
X68484Y-30187D01*
X68492Y-30240D01*
X68492Y-30307D01*
X68484Y-30360D01*
X68475Y-30387D01*
X68466Y-30400D01*
X68449Y-30413D01*
X68432Y-30413D01*
X68415Y-30400D01*
X68406Y-30387D01*
X68398Y-30360D01*
X68389Y-30307D01*
X68389Y-30240D01*
X68398Y-30187D01*
X68406Y-30160D01*
X68415Y-30147D01*
X68432Y-30133D01*
X68663Y-30413D02*
X68560Y-30413D01*
X68612Y-30413D02*
X68612Y-30133D01*
X68595Y-30173D01*
X68577Y-30200D01*
X68560Y-30213D01*
G54D13*
X67092Y-29411D02*
X67092Y-29111D01*
X67164Y-29111D01*
X67207Y-29126D01*
X67235Y-29154D01*
X67250Y-29183D01*
X67264Y-29240D01*
X67264Y-29283D01*
X67250Y-29340D01*
X67235Y-29369D01*
X67207Y-29397D01*
X67164Y-29411D01*
X67092Y-29411D01*
X67521Y-29211D02*
X67521Y-29411D01*
X67450Y-29097D02*
X67378Y-29311D01*
X67564Y-29311D01*
X67736Y-29111D02*
X67764Y-29111D01*
X67793Y-29126D01*
X67807Y-29140D01*
X67821Y-29169D01*
X67836Y-29226D01*
X67836Y-29297D01*
X67821Y-29354D01*
X67807Y-29383D01*
X67793Y-29397D01*
X67764Y-29411D01*
X67736Y-29411D01*
X67707Y-29397D01*
X67693Y-29383D01*
X67678Y-29354D01*
X67664Y-29297D01*
X67664Y-29226D01*
X67678Y-29169D01*
X67693Y-29140D01*
X67707Y-29126D01*
X67736Y-29111D01*
X68122Y-29411D02*
X67950Y-29411D01*
X68036Y-29411D02*
X68036Y-29111D01*
X68007Y-29154D01*
X67979Y-29183D01*
X67950Y-29197D01*
X68607Y-28871D02*
X68464Y-28871D01*
X68464Y-28571D01*
X68707Y-28714D02*
X68807Y-28714D01*
X68850Y-28871D02*
X68707Y-28871D01*
X68707Y-28571D01*
X68850Y-28571D01*
X68978Y-28871D02*
X68978Y-28571D01*
X69050Y-28571D01*
X69093Y-28586D01*
X69121Y-28614D01*
X69136Y-28643D01*
X69150Y-28700D01*
X69150Y-28743D01*
X69136Y-28800D01*
X69121Y-28829D01*
X69093Y-28857D01*
X69050Y-28871D01*
X68978Y-28871D01*
G54D12*
X66032Y-27986D02*
X66356Y-27986D01*
X66394Y-27967D01*
X66413Y-27948D01*
X66432Y-27910D01*
X66432Y-27833D01*
X66413Y-27795D01*
X66394Y-27776D01*
X66356Y-27757D01*
X66032Y-27757D01*
X66165Y-27395D02*
X66432Y-27395D01*
X66013Y-27491D02*
X66299Y-27586D01*
X66299Y-27338D01*
X66032Y-27110D02*
X66032Y-27071D01*
X66051Y-27033D01*
X66070Y-27014D01*
X66108Y-26995D01*
X66184Y-26976D01*
X66280Y-26976D01*
X66356Y-26995D01*
X66394Y-27014D01*
X66413Y-27033D01*
X66432Y-27071D01*
X66432Y-27110D01*
X66413Y-27148D01*
X66394Y-27167D01*
X66356Y-27186D01*
X66280Y-27205D01*
X66184Y-27205D01*
X66108Y-27186D01*
X66070Y-27167D01*
X66051Y-27148D01*
X66032Y-27110D01*
X66432Y-26595D02*
X66432Y-26824D01*
X66432Y-26710D02*
X66032Y-26710D01*
X66089Y-26748D01*
X66127Y-26786D01*
X66146Y-26824D01*
X63444Y-26098D02*
X63635Y-26098D01*
X63406Y-26212D02*
X63539Y-25812D01*
X63673Y-26212D01*
X63806Y-26212D02*
X63806Y-25812D01*
X63959Y-25812D01*
X63997Y-25831D01*
X64016Y-25850D01*
X64035Y-25888D01*
X64035Y-25945D01*
X64016Y-25983D01*
X63997Y-26002D01*
X63959Y-26021D01*
X63806Y-26021D01*
X64416Y-26212D02*
X64187Y-26212D01*
X64301Y-26212D02*
X64301Y-25812D01*
X64263Y-25869D01*
X64225Y-25907D01*
X64187Y-25926D01*
X64797Y-26212D02*
X64568Y-26212D01*
X64682Y-26212D02*
X64682Y-25812D01*
X64644Y-25869D01*
X64606Y-25907D01*
X64568Y-25926D01*
X64949Y-25850D02*
X64968Y-25831D01*
X65006Y-25812D01*
X65102Y-25812D01*
X65140Y-25831D01*
X65159Y-25850D01*
X65178Y-25888D01*
X65178Y-25926D01*
X65159Y-25983D01*
X64930Y-26212D01*
X65178Y-26212D01*
X65330Y-25850D02*
X65349Y-25831D01*
X65387Y-25812D01*
X65483Y-25812D01*
X65521Y-25831D01*
X65540Y-25850D01*
X65559Y-25888D01*
X65559Y-25926D01*
X65540Y-25983D01*
X65311Y-26212D01*
X65559Y-26212D01*
X65635Y-26250D02*
X65940Y-26250D01*
X65997Y-25812D02*
X66245Y-25812D01*
X66111Y-25964D01*
X66169Y-25964D01*
X66207Y-25983D01*
X66226Y-26002D01*
X66245Y-26040D01*
X66245Y-26136D01*
X66226Y-26174D01*
X66207Y-26193D01*
X66169Y-26212D01*
X66054Y-26212D01*
X66016Y-26193D01*
X65997Y-26174D01*
X66416Y-26174D02*
X66435Y-26193D01*
X66416Y-26212D01*
X66397Y-26193D01*
X66416Y-26174D01*
X66416Y-26212D01*
X66568Y-25812D02*
X66816Y-25812D01*
X66682Y-25964D01*
X66740Y-25964D01*
X66778Y-25983D01*
X66797Y-26002D01*
X66816Y-26040D01*
X66816Y-26136D01*
X66797Y-26174D01*
X66778Y-26193D01*
X66740Y-26212D01*
X66625Y-26212D01*
X66587Y-26193D01*
X66568Y-26174D01*
G54D13*
X45022Y-23581D02*
X45022Y-23281D01*
X45094Y-23281D01*
X45137Y-23296D01*
X45165Y-23324D01*
X45180Y-23353D01*
X45194Y-23410D01*
X45194Y-23453D01*
X45180Y-23510D01*
X45165Y-23539D01*
X45137Y-23567D01*
X45094Y-23581D01*
X45022Y-23581D01*
X45308Y-23310D02*
X45322Y-23296D01*
X45351Y-23281D01*
X45422Y-23281D01*
X45451Y-23296D01*
X45465Y-23310D01*
X45480Y-23339D01*
X45480Y-23367D01*
X45465Y-23410D01*
X45294Y-23581D01*
X45480Y-23581D01*
X45666Y-23281D02*
X45694Y-23281D01*
X45723Y-23296D01*
X45737Y-23310D01*
X45751Y-23339D01*
X45766Y-23396D01*
X45766Y-23467D01*
X45751Y-23524D01*
X45737Y-23553D01*
X45723Y-23567D01*
X45694Y-23581D01*
X45666Y-23581D01*
X45637Y-23567D01*
X45623Y-23553D01*
X45608Y-23524D01*
X45594Y-23467D01*
X45594Y-23396D01*
X45608Y-23339D01*
X45623Y-23310D01*
X45637Y-23296D01*
X45666Y-23281D01*
X46052Y-23581D02*
X45880Y-23581D01*
X45966Y-23581D02*
X45966Y-23281D01*
X45937Y-23324D01*
X45909Y-23353D01*
X45880Y-23367D01*
X45002Y-24181D02*
X45002Y-23881D01*
X45074Y-23881D01*
X45117Y-23896D01*
X45145Y-23924D01*
X45160Y-23953D01*
X45174Y-24010D01*
X45174Y-24053D01*
X45160Y-24110D01*
X45145Y-24139D01*
X45117Y-24167D01*
X45074Y-24181D01*
X45002Y-24181D01*
X45288Y-23910D02*
X45302Y-23896D01*
X45331Y-23881D01*
X45402Y-23881D01*
X45431Y-23896D01*
X45445Y-23910D01*
X45460Y-23939D01*
X45460Y-23967D01*
X45445Y-24010D01*
X45274Y-24181D01*
X45460Y-24181D01*
X45646Y-23881D02*
X45674Y-23881D01*
X45703Y-23896D01*
X45717Y-23910D01*
X45731Y-23939D01*
X45746Y-23996D01*
X45746Y-24067D01*
X45731Y-24124D01*
X45717Y-24153D01*
X45703Y-24167D01*
X45674Y-24181D01*
X45646Y-24181D01*
X45617Y-24167D01*
X45603Y-24153D01*
X45588Y-24124D01*
X45574Y-24067D01*
X45574Y-23996D01*
X45588Y-23939D01*
X45603Y-23910D01*
X45617Y-23896D01*
X45646Y-23881D01*
X45860Y-23910D02*
X45874Y-23896D01*
X45903Y-23881D01*
X45974Y-23881D01*
X46003Y-23896D01*
X46017Y-23910D01*
X46032Y-23939D01*
X46032Y-23967D01*
X46017Y-24010D01*
X45846Y-24181D01*
X46032Y-24181D01*
X58412Y-29181D02*
X58412Y-28881D01*
X58484Y-28881D01*
X58527Y-28896D01*
X58555Y-28924D01*
X58570Y-28953D01*
X58584Y-29010D01*
X58584Y-29053D01*
X58570Y-29110D01*
X58555Y-29139D01*
X58527Y-29167D01*
X58484Y-29181D01*
X58412Y-29181D01*
X58698Y-28910D02*
X58712Y-28896D01*
X58741Y-28881D01*
X58812Y-28881D01*
X58841Y-28896D01*
X58855Y-28910D01*
X58870Y-28939D01*
X58870Y-28967D01*
X58855Y-29010D01*
X58684Y-29181D01*
X58870Y-29181D01*
X59056Y-28881D02*
X59084Y-28881D01*
X59113Y-28896D01*
X59127Y-28910D01*
X59141Y-28939D01*
X59156Y-28996D01*
X59156Y-29067D01*
X59141Y-29124D01*
X59127Y-29153D01*
X59113Y-29167D01*
X59084Y-29181D01*
X59056Y-29181D01*
X59027Y-29167D01*
X59013Y-29153D01*
X58998Y-29124D01*
X58984Y-29067D01*
X58984Y-28996D01*
X58998Y-28939D01*
X59013Y-28910D01*
X59027Y-28896D01*
X59056Y-28881D01*
X59256Y-28881D02*
X59442Y-28881D01*
X59342Y-28996D01*
X59384Y-28996D01*
X59413Y-29010D01*
X59427Y-29024D01*
X59442Y-29053D01*
X59442Y-29124D01*
X59427Y-29153D01*
X59413Y-29167D01*
X59384Y-29181D01*
X59299Y-29181D01*
X59270Y-29167D01*
X59256Y-29153D01*
G54D18*
X48670Y-24853D02*
X48610Y-24720D01*
X48567Y-24853D02*
X48567Y-24573D01*
X48635Y-24573D01*
X48653Y-24587D01*
X48661Y-24600D01*
X48670Y-24627D01*
X48670Y-24667D01*
X48661Y-24693D01*
X48653Y-24707D01*
X48635Y-24720D01*
X48567Y-24720D01*
X48738Y-24600D02*
X48747Y-24587D01*
X48764Y-24573D01*
X48807Y-24573D01*
X48824Y-24587D01*
X48833Y-24600D01*
X48841Y-24627D01*
X48841Y-24653D01*
X48833Y-24693D01*
X48730Y-24853D01*
X48841Y-24853D01*
X49012Y-24853D02*
X48909Y-24853D01*
X48961Y-24853D02*
X48961Y-24573D01*
X48944Y-24613D01*
X48926Y-24640D01*
X48909Y-24653D01*
X49123Y-24573D02*
X49140Y-24573D01*
X49157Y-24587D01*
X49166Y-24600D01*
X49175Y-24627D01*
X49183Y-24680D01*
X49183Y-24747D01*
X49175Y-24800D01*
X49166Y-24827D01*
X49157Y-24840D01*
X49140Y-24853D01*
X49123Y-24853D01*
X49106Y-24840D01*
X49097Y-24827D01*
X49089Y-24800D01*
X49080Y-24747D01*
X49080Y-24680D01*
X49089Y-24627D01*
X49097Y-24600D01*
X49106Y-24587D01*
X49123Y-24573D01*
G54D13*
X45002Y-24801D02*
X45002Y-24501D01*
X45074Y-24501D01*
X45117Y-24516D01*
X45145Y-24544D01*
X45160Y-24573D01*
X45174Y-24630D01*
X45174Y-24673D01*
X45160Y-24730D01*
X45145Y-24759D01*
X45117Y-24787D01*
X45074Y-24801D01*
X45002Y-24801D01*
X45288Y-24530D02*
X45302Y-24516D01*
X45331Y-24501D01*
X45402Y-24501D01*
X45431Y-24516D01*
X45445Y-24530D01*
X45460Y-24559D01*
X45460Y-24587D01*
X45445Y-24630D01*
X45274Y-24801D01*
X45460Y-24801D01*
X45646Y-24501D02*
X45674Y-24501D01*
X45703Y-24516D01*
X45717Y-24530D01*
X45731Y-24559D01*
X45746Y-24616D01*
X45746Y-24687D01*
X45731Y-24744D01*
X45717Y-24773D01*
X45703Y-24787D01*
X45674Y-24801D01*
X45646Y-24801D01*
X45617Y-24787D01*
X45603Y-24773D01*
X45588Y-24744D01*
X45574Y-24687D01*
X45574Y-24616D01*
X45588Y-24559D01*
X45603Y-24530D01*
X45617Y-24516D01*
X45646Y-24501D01*
X46003Y-24601D02*
X46003Y-24801D01*
X45932Y-24487D02*
X45860Y-24701D01*
X46046Y-24701D01*
G54D19*
X48884Y-26574D02*
X48893Y-26544D01*
X48893Y-26495D01*
X48884Y-26476D01*
X48874Y-26466D01*
X48854Y-26456D01*
X48835Y-26456D01*
X48815Y-26466D01*
X48805Y-26476D01*
X48795Y-26495D01*
X48785Y-26535D01*
X48776Y-26554D01*
X48766Y-26564D01*
X48746Y-26574D01*
X48727Y-26574D01*
X48707Y-26564D01*
X48697Y-26554D01*
X48687Y-26535D01*
X48687Y-26485D01*
X48697Y-26456D01*
X48893Y-26368D02*
X48687Y-26368D01*
X48687Y-26289D01*
X48697Y-26270D01*
X48707Y-26260D01*
X48727Y-26250D01*
X48756Y-26250D01*
X48776Y-26260D01*
X48785Y-26270D01*
X48795Y-26289D01*
X48795Y-26368D01*
X48687Y-26162D02*
X48854Y-26162D01*
X48874Y-26152D01*
X48884Y-26142D01*
X48893Y-26123D01*
X48893Y-26083D01*
X48884Y-26064D01*
X48874Y-26054D01*
X48854Y-26044D01*
X48687Y-26044D01*
X48893Y-25848D02*
X48893Y-25946D01*
X48687Y-25946D01*
X48884Y-25789D02*
X48893Y-25759D01*
X48893Y-25710D01*
X48884Y-25691D01*
X48874Y-25681D01*
X48854Y-25671D01*
X48835Y-25671D01*
X48815Y-25681D01*
X48805Y-25691D01*
X48795Y-25710D01*
X48785Y-25750D01*
X48776Y-25769D01*
X48766Y-25779D01*
X48746Y-25789D01*
X48727Y-25789D01*
X48707Y-25779D01*
X48697Y-25769D01*
X48687Y-25750D01*
X48687Y-25700D01*
X48697Y-25671D01*
X48785Y-25583D02*
X48785Y-25514D01*
X48893Y-25485D02*
X48893Y-25583D01*
X48687Y-25583D01*
X48687Y-25485D01*
X48874Y-28584D02*
X48883Y-28554D01*
X48883Y-28505D01*
X48874Y-28486D01*
X48864Y-28476D01*
X48844Y-28466D01*
X48825Y-28466D01*
X48805Y-28476D01*
X48795Y-28486D01*
X48785Y-28505D01*
X48775Y-28545D01*
X48766Y-28564D01*
X48756Y-28574D01*
X48736Y-28584D01*
X48717Y-28584D01*
X48697Y-28574D01*
X48687Y-28564D01*
X48677Y-28545D01*
X48677Y-28495D01*
X48687Y-28466D01*
X48883Y-28378D02*
X48677Y-28378D01*
X48677Y-28299D01*
X48687Y-28280D01*
X48697Y-28270D01*
X48717Y-28260D01*
X48746Y-28260D01*
X48766Y-28270D01*
X48775Y-28280D01*
X48785Y-28299D01*
X48785Y-28378D01*
X48677Y-28172D02*
X48844Y-28172D01*
X48864Y-28162D01*
X48874Y-28152D01*
X48883Y-28133D01*
X48883Y-28093D01*
X48874Y-28074D01*
X48864Y-28064D01*
X48844Y-28054D01*
X48677Y-28054D01*
X48883Y-27858D02*
X48883Y-27956D01*
X48677Y-27956D01*
X48874Y-27799D02*
X48883Y-27769D01*
X48883Y-27720D01*
X48874Y-27701D01*
X48864Y-27691D01*
X48844Y-27681D01*
X48825Y-27681D01*
X48805Y-27691D01*
X48795Y-27701D01*
X48785Y-27720D01*
X48775Y-27760D01*
X48766Y-27779D01*
X48756Y-27789D01*
X48736Y-27799D01*
X48717Y-27799D01*
X48697Y-27789D01*
X48687Y-27779D01*
X48677Y-27760D01*
X48677Y-27710D01*
X48687Y-27681D01*
X48775Y-27593D02*
X48775Y-27524D01*
X48883Y-27495D02*
X48883Y-27593D01*
X48677Y-27593D01*
X48677Y-27495D01*
G54D18*
X65912Y-28850D02*
X65921Y-28859D01*
X65931Y-28885D01*
X65931Y-28902D01*
X65921Y-28927D01*
X65902Y-28945D01*
X65883Y-28953D01*
X65845Y-28962D01*
X65817Y-28962D01*
X65779Y-28953D01*
X65760Y-28945D01*
X65740Y-28927D01*
X65731Y-28902D01*
X65731Y-28885D01*
X65740Y-28859D01*
X65750Y-28850D01*
X65731Y-28790D02*
X65731Y-28670D01*
X65931Y-28747D01*
X65731Y-28568D02*
X65731Y-28551D01*
X65740Y-28534D01*
X65750Y-28525D01*
X65769Y-28516D01*
X65807Y-28508D01*
X65855Y-28508D01*
X65893Y-28516D01*
X65912Y-28525D01*
X65921Y-28534D01*
X65931Y-28551D01*
X65931Y-28568D01*
X65921Y-28585D01*
X65912Y-28594D01*
X65893Y-28602D01*
X65855Y-28611D01*
X65807Y-28611D01*
X65769Y-28602D01*
X65750Y-28594D01*
X65740Y-28585D01*
X65731Y-28568D01*
X65731Y-28345D02*
X65731Y-28431D01*
X65826Y-28440D01*
X65817Y-28431D01*
X65807Y-28414D01*
X65807Y-28371D01*
X65817Y-28354D01*
X65826Y-28345D01*
X65845Y-28337D01*
X65893Y-28337D01*
X65912Y-28345D01*
X65921Y-28354D01*
X65931Y-28371D01*
X65931Y-28414D01*
X65921Y-28431D01*
X65912Y-28440D01*
G54D17*
X56824Y-23662D02*
X56824Y-23262D01*
X56977Y-23262D01*
X57015Y-23281D01*
X57034Y-23300D01*
X57053Y-23338D01*
X57053Y-23395D01*
X57034Y-23433D01*
X57015Y-23452D01*
X56977Y-23471D01*
X56824Y-23471D01*
X57186Y-23262D02*
X57453Y-23262D01*
X57281Y-23662D01*
X57681Y-23262D02*
X57720Y-23262D01*
X57758Y-23281D01*
X57777Y-23300D01*
X57796Y-23338D01*
X57815Y-23414D01*
X57815Y-23510D01*
X57796Y-23586D01*
X57777Y-23624D01*
X57758Y-23643D01*
X57720Y-23662D01*
X57681Y-23662D01*
X57643Y-23643D01*
X57624Y-23624D01*
X57605Y-23586D01*
X57586Y-23510D01*
X57586Y-23414D01*
X57605Y-23338D01*
X57624Y-23300D01*
X57643Y-23281D01*
X57681Y-23262D01*
X58196Y-23662D02*
X57967Y-23662D01*
X58081Y-23662D02*
X58081Y-23262D01*
X58043Y-23319D01*
X58005Y-23357D01*
X57967Y-23376D01*
G54D12*
X67462Y-23624D02*
X67443Y-23643D01*
X67386Y-23662D01*
X67348Y-23662D01*
X67290Y-23643D01*
X67252Y-23605D01*
X67233Y-23567D01*
X67214Y-23490D01*
X67214Y-23433D01*
X67233Y-23357D01*
X67252Y-23319D01*
X67290Y-23281D01*
X67348Y-23262D01*
X67386Y-23262D01*
X67443Y-23281D01*
X67462Y-23300D01*
X67709Y-23262D02*
X67786Y-23262D01*
X67824Y-23281D01*
X67862Y-23319D01*
X67881Y-23395D01*
X67881Y-23529D01*
X67862Y-23605D01*
X67824Y-23643D01*
X67786Y-23662D01*
X67709Y-23662D01*
X67671Y-23643D01*
X67633Y-23605D01*
X67614Y-23529D01*
X67614Y-23395D01*
X67633Y-23319D01*
X67671Y-23281D01*
X67709Y-23262D01*
X68052Y-23662D02*
X68052Y-23262D01*
X68281Y-23662D01*
X68281Y-23262D01*
X68471Y-23662D02*
X68471Y-23262D01*
X68700Y-23662D01*
X68700Y-23262D01*
X68795Y-23700D02*
X69100Y-23700D01*
X69176Y-23300D02*
X69195Y-23281D01*
X69233Y-23262D01*
X69329Y-23262D01*
X69367Y-23281D01*
X69386Y-23300D01*
X69405Y-23338D01*
X69405Y-23376D01*
X69386Y-23433D01*
X69157Y-23662D01*
X69405Y-23662D01*
X69767Y-23262D02*
X69576Y-23262D01*
X69557Y-23452D01*
X69576Y-23433D01*
X69614Y-23414D01*
X69710Y-23414D01*
X69748Y-23433D01*
X69767Y-23452D01*
X69786Y-23490D01*
X69786Y-23586D01*
X69767Y-23624D01*
X69748Y-23643D01*
X69710Y-23662D01*
X69614Y-23662D01*
X69576Y-23643D01*
X69557Y-23624D01*
G54D17*
X56824Y-31662D02*
X56824Y-31262D01*
X56977Y-31262D01*
X57015Y-31281D01*
X57034Y-31300D01*
X57053Y-31338D01*
X57053Y-31395D01*
X57034Y-31433D01*
X57015Y-31452D01*
X56977Y-31471D01*
X56824Y-31471D01*
X57186Y-31262D02*
X57453Y-31262D01*
X57281Y-31662D01*
X57681Y-31262D02*
X57720Y-31262D01*
X57758Y-31281D01*
X57777Y-31300D01*
X57796Y-31338D01*
X57815Y-31414D01*
X57815Y-31510D01*
X57796Y-31586D01*
X57777Y-31624D01*
X57758Y-31643D01*
X57720Y-31662D01*
X57681Y-31662D01*
X57643Y-31643D01*
X57624Y-31624D01*
X57605Y-31586D01*
X57586Y-31510D01*
X57586Y-31414D01*
X57605Y-31338D01*
X57624Y-31300D01*
X57643Y-31281D01*
X57681Y-31262D01*
X57967Y-31300D02*
X57986Y-31281D01*
X58024Y-31262D01*
X58120Y-31262D01*
X58158Y-31281D01*
X58177Y-31300D01*
X58196Y-31338D01*
X58196Y-31376D01*
X58177Y-31433D01*
X57948Y-31662D01*
X58196Y-31662D01*
G54D12*
X67462Y-31624D02*
X67443Y-31643D01*
X67386Y-31662D01*
X67348Y-31662D01*
X67290Y-31643D01*
X67252Y-31605D01*
X67233Y-31567D01*
X67214Y-31490D01*
X67214Y-31433D01*
X67233Y-31357D01*
X67252Y-31319D01*
X67290Y-31281D01*
X67348Y-31262D01*
X67386Y-31262D01*
X67443Y-31281D01*
X67462Y-31300D01*
X67709Y-31262D02*
X67786Y-31262D01*
X67824Y-31281D01*
X67862Y-31319D01*
X67881Y-31395D01*
X67881Y-31529D01*
X67862Y-31605D01*
X67824Y-31643D01*
X67786Y-31662D01*
X67709Y-31662D01*
X67671Y-31643D01*
X67633Y-31605D01*
X67614Y-31529D01*
X67614Y-31395D01*
X67633Y-31319D01*
X67671Y-31281D01*
X67709Y-31262D01*
X68052Y-31662D02*
X68052Y-31262D01*
X68281Y-31662D01*
X68281Y-31262D01*
X68471Y-31662D02*
X68471Y-31262D01*
X68700Y-31662D01*
X68700Y-31262D01*
X68795Y-31700D02*
X69100Y-31700D01*
X69176Y-31300D02*
X69195Y-31281D01*
X69233Y-31262D01*
X69329Y-31262D01*
X69367Y-31281D01*
X69386Y-31300D01*
X69405Y-31338D01*
X69405Y-31376D01*
X69386Y-31433D01*
X69157Y-31662D01*
X69405Y-31662D01*
X69767Y-31262D02*
X69576Y-31262D01*
X69557Y-31452D01*
X69576Y-31433D01*
X69614Y-31414D01*
X69710Y-31414D01*
X69748Y-31433D01*
X69767Y-31452D01*
X69786Y-31490D01*
X69786Y-31586D01*
X69767Y-31624D01*
X69748Y-31643D01*
X69710Y-31662D01*
X69614Y-31662D01*
X69576Y-31643D01*
X69557Y-31624D01*
M02*
