M48
;DRILL file {Pcbnew (2012-01-19 BZR 3256)-stable} date 6/6/2012 1:23:51 AM
;FORMAT={2:4/ absolute / inch / keep zeros}
FMAT,2
INCH,TZ
T1C0.012
T2C0.032
T3C0.040
%
G90
G05
M72
T1
X039990Y024470
X040220Y028950
X041050Y022970
X041309Y025600
X041900Y025266
X041930Y023310
X042380Y029830
X042620Y022860
X043030Y025290
X043180Y028570
X043200Y027910
X043520Y027670
X043630Y027060
X043790Y027970
X044140Y028400
X044370Y026890
X044470Y024130
X044580Y028360
X044750Y024760
X044920Y025880
X045060Y028380
X045190Y025480
X045550Y024120
X045690Y024760
X046100Y024700
X046420Y024470
X046670Y024740
X046752Y025118
X046830Y023420
X047040Y024790
X047350Y027540
X048080Y022510
X048140Y030010
X048240Y029640
X048430Y024380
X048500Y027980
X048560Y025270
X048612Y027224
X048799Y029744
X048850Y024360
X048967Y025207
X048996Y022047
X049075Y028297
X049210Y025580
X049330Y032410
X049370Y022047
X049420Y029900
X049670Y025170
X049695Y023652
X050207Y024232
X050340Y030700
X050670Y030960
X050679Y028455
X050960Y030690
X051043Y023730
X051250Y030980
X051530Y030670
X051700Y028450
X052000Y030750
X052136Y026969
X052160Y022190
X052175Y023701
X052205Y027392
X052441Y029646
X052500Y021319
X052520Y022047
X052913Y029695
X052963Y027303
X052992Y024213
X053000Y031000
X053081Y027874
X053490Y022630
X053750Y029100
X054350Y022910
X054580Y023260
X054646Y024075
X054764Y023671
X054833Y027421
X054872Y029016
X054941Y027795
X056440Y026640
X056480Y026120
X057500Y027800
X057550Y024170
X057820Y024800
X058140Y031580
X058500Y030000
X058660Y024680
X058800Y027750
X059370Y031590
X060728Y029252
X060820Y029892
X061230Y022210
X061654Y025965
X062000Y022240
X062280Y024360
X062313Y026319
X062352Y027067
X062461Y025709
X062677Y026693
X062721Y029252
X063425Y029892
X063642Y022982
X063878Y028780
X063898Y026181
X064129Y026747
X064275Y023175
X064685Y024725
X065157Y027362
X065295Y031004
X065827Y025266
X066417Y029291
X066535Y030709
X066654Y021506
X066663Y022274
X066732Y023602
X066969Y025748
X068150Y029200
X068573Y026801
X068652Y026083
X068670Y021120
T2
X041020Y021697
X041020Y023697
X041069Y029157
X041069Y031157
X044020Y021697
X044020Y023697
X044069Y029157
X044069Y031157
T3
X040000Y019500
X040000Y033500
X040050Y020800
X040050Y021800
X040050Y022800
X040050Y023800
X041000Y019500
X041000Y033500
X042000Y019500
X042000Y033500
X043000Y019500
X043000Y033500
X044000Y019500
X044000Y033500
X044790Y022680
X045000Y019500
X045000Y033500
X045790Y022680
X046000Y019500
X046000Y033500
X046790Y022680
X047000Y019500
X047000Y033500
X048000Y019500
X048000Y033500
X049000Y019500
X049000Y033500
X050000Y019500
X050000Y033500
X051000Y019500
X051000Y033500
X052000Y019500
X052000Y033500
X053000Y019500
X053000Y033500
X054000Y019500
X054000Y033500
X055000Y019500
X055000Y033500
X055900Y029050
X056000Y019500
X056000Y033500
X056900Y029050
X057000Y019500
X057000Y033500
X057900Y029050
X058000Y019500
X058000Y033500
X058441Y022984
X058441Y023984
X059000Y019500
X059000Y033500
X059441Y022984
X059441Y023984
X060000Y019500
X060000Y033500
X060441Y022984
X060441Y023984
X061000Y019500
X061000Y033500
X061441Y022984
X061441Y023984
X062000Y019500
X062000Y033500
X063000Y019500
X063000Y033500
X064000Y019500
X064000Y033500
X065000Y019500
X065000Y033500
X066000Y019500
X066000Y033500
X067000Y019500
X067000Y033500
X068000Y019500
X068000Y033500
X069000Y019500
X069000Y033500
T0
M30
