G04 (created by PCBNEW-RS274X (2012-01-19 BZR 3256)-stable) date Tue 07 Aug 2012 08:30:04 PM COT*
G01*
G70*
G90*
%MOIN*%
G04 Gerber Fmt 3.4, Leading zero omitted, Abs format*
%FSLAX34Y34*%
G04 APERTURE LIST*
%ADD10C,0.006000*%
%ADD11C,0.012000*%
%ADD12C,0.015000*%
%ADD13C,0.008000*%
%ADD14C,0.005000*%
%ADD15C,0.002600*%
%ADD16C,0.004500*%
%ADD17C,0.009000*%
%ADD18C,0.003500*%
G04 APERTURE END LIST*
G54D10*
G54D11*
X59358Y-30836D02*
X59301Y-30874D01*
X59187Y-30874D01*
X59129Y-30836D01*
X59101Y-30798D01*
X59072Y-30721D01*
X59072Y-30493D01*
X59101Y-30417D01*
X59129Y-30379D01*
X59187Y-30340D01*
X59301Y-30340D01*
X59358Y-30379D01*
X59701Y-30874D02*
X59643Y-30836D01*
X59615Y-30798D01*
X59586Y-30721D01*
X59586Y-30493D01*
X59615Y-30417D01*
X59643Y-30379D01*
X59701Y-30340D01*
X59786Y-30340D01*
X59843Y-30379D01*
X59872Y-30417D01*
X59901Y-30493D01*
X59901Y-30721D01*
X59872Y-30798D01*
X59843Y-30836D01*
X59786Y-30874D01*
X59701Y-30874D01*
X60158Y-30340D02*
X60158Y-31140D01*
X60158Y-30379D02*
X60215Y-30340D01*
X60329Y-30340D01*
X60386Y-30379D01*
X60415Y-30417D01*
X60444Y-30493D01*
X60444Y-30721D01*
X60415Y-30798D01*
X60386Y-30836D01*
X60329Y-30874D01*
X60215Y-30874D01*
X60158Y-30836D01*
X60644Y-30340D02*
X60787Y-30874D01*
X60929Y-30340D02*
X60787Y-30874D01*
X60729Y-31064D01*
X60701Y-31102D01*
X60644Y-31140D01*
X61158Y-30874D02*
X61158Y-30340D01*
X61158Y-30493D02*
X61186Y-30417D01*
X61215Y-30379D01*
X61272Y-30340D01*
X61329Y-30340D01*
X61529Y-30874D02*
X61529Y-30340D01*
X61529Y-30074D02*
X61500Y-30112D01*
X61529Y-30150D01*
X61557Y-30112D01*
X61529Y-30074D01*
X61529Y-30150D01*
X62072Y-30340D02*
X62072Y-30988D01*
X62043Y-31064D01*
X62015Y-31102D01*
X61958Y-31140D01*
X61872Y-31140D01*
X61815Y-31102D01*
X62072Y-30836D02*
X62015Y-30874D01*
X61901Y-30874D01*
X61843Y-30836D01*
X61815Y-30798D01*
X61786Y-30721D01*
X61786Y-30493D01*
X61815Y-30417D01*
X61843Y-30379D01*
X61901Y-30340D01*
X62015Y-30340D01*
X62072Y-30379D01*
X62358Y-30874D02*
X62358Y-30074D01*
X62615Y-30874D02*
X62615Y-30455D01*
X62586Y-30379D01*
X62529Y-30340D01*
X62444Y-30340D01*
X62386Y-30379D01*
X62358Y-30417D01*
X62815Y-30340D02*
X63044Y-30340D01*
X62901Y-30074D02*
X62901Y-30760D01*
X62929Y-30836D01*
X62987Y-30874D01*
X63044Y-30874D01*
X63672Y-30150D02*
X63701Y-30112D01*
X63758Y-30074D01*
X63901Y-30074D01*
X63958Y-30112D01*
X63987Y-30150D01*
X64015Y-30226D01*
X64015Y-30302D01*
X63987Y-30417D01*
X63644Y-30874D01*
X64015Y-30874D01*
X64386Y-30074D02*
X64443Y-30074D01*
X64500Y-30112D01*
X64529Y-30150D01*
X64558Y-30226D01*
X64586Y-30379D01*
X64586Y-30569D01*
X64558Y-30721D01*
X64529Y-30798D01*
X64500Y-30836D01*
X64443Y-30874D01*
X64386Y-30874D01*
X64329Y-30836D01*
X64300Y-30798D01*
X64272Y-30721D01*
X64243Y-30569D01*
X64243Y-30379D01*
X64272Y-30226D01*
X64300Y-30150D01*
X64329Y-30112D01*
X64386Y-30074D01*
X65157Y-30874D02*
X64814Y-30874D01*
X64986Y-30874D02*
X64986Y-30074D01*
X64929Y-30188D01*
X64871Y-30264D01*
X64814Y-30302D01*
X65385Y-30150D02*
X65414Y-30112D01*
X65471Y-30074D01*
X65614Y-30074D01*
X65671Y-30112D01*
X65700Y-30150D01*
X65728Y-30226D01*
X65728Y-30302D01*
X65700Y-30417D01*
X65357Y-30874D01*
X65728Y-30874D01*
X40857Y-25186D02*
X40943Y-25224D01*
X41086Y-25224D01*
X41143Y-25186D01*
X41172Y-25148D01*
X41200Y-25071D01*
X41200Y-24995D01*
X41172Y-24919D01*
X41143Y-24881D01*
X41086Y-24843D01*
X40972Y-24805D01*
X40914Y-24767D01*
X40886Y-24729D01*
X40857Y-24652D01*
X40857Y-24576D01*
X40886Y-24500D01*
X40914Y-24462D01*
X40972Y-24424D01*
X41114Y-24424D01*
X41200Y-24462D01*
X41457Y-25224D02*
X41457Y-24424D01*
X41714Y-25224D02*
X41714Y-24805D01*
X41685Y-24729D01*
X41628Y-24690D01*
X41543Y-24690D01*
X41485Y-24729D01*
X41457Y-24767D01*
X42257Y-25224D02*
X42257Y-24805D01*
X42228Y-24729D01*
X42171Y-24690D01*
X42057Y-24690D01*
X42000Y-24729D01*
X42257Y-25186D02*
X42200Y-25224D01*
X42057Y-25224D01*
X42000Y-25186D01*
X41971Y-25110D01*
X41971Y-25033D01*
X42000Y-24957D01*
X42057Y-24919D01*
X42200Y-24919D01*
X42257Y-24881D01*
X42543Y-25224D02*
X42543Y-24690D01*
X42543Y-24843D02*
X42571Y-24767D01*
X42600Y-24729D01*
X42657Y-24690D01*
X42714Y-24690D01*
X42914Y-25224D02*
X42914Y-24424D01*
X42971Y-24919D02*
X43142Y-25224D01*
X43142Y-24690D02*
X42914Y-24995D01*
X43600Y-24805D02*
X43686Y-24843D01*
X43714Y-24881D01*
X43743Y-24957D01*
X43743Y-25071D01*
X43714Y-25148D01*
X43686Y-25186D01*
X43628Y-25224D01*
X43400Y-25224D01*
X43400Y-24424D01*
X43600Y-24424D01*
X43657Y-24462D01*
X43686Y-24500D01*
X43714Y-24576D01*
X43714Y-24652D01*
X43686Y-24729D01*
X43657Y-24767D01*
X43600Y-24805D01*
X43400Y-24805D01*
X44086Y-25224D02*
X44028Y-25186D01*
X44000Y-25148D01*
X43971Y-25071D01*
X43971Y-24843D01*
X44000Y-24767D01*
X44028Y-24729D01*
X44086Y-24690D01*
X44171Y-24690D01*
X44228Y-24729D01*
X44257Y-24767D01*
X44286Y-24843D01*
X44286Y-25071D01*
X44257Y-25148D01*
X44228Y-25186D01*
X44171Y-25224D01*
X44086Y-25224D01*
X44800Y-25224D02*
X44800Y-24805D01*
X44771Y-24729D01*
X44714Y-24690D01*
X44600Y-24690D01*
X44543Y-24729D01*
X44800Y-25186D02*
X44743Y-25224D01*
X44600Y-25224D01*
X44543Y-25186D01*
X44514Y-25110D01*
X44514Y-25033D01*
X44543Y-24957D01*
X44600Y-24919D01*
X44743Y-24919D01*
X44800Y-24881D01*
X45086Y-25224D02*
X45086Y-24690D01*
X45086Y-24843D02*
X45114Y-24767D01*
X45143Y-24729D01*
X45200Y-24690D01*
X45257Y-24690D01*
X45714Y-25224D02*
X45714Y-24424D01*
X45714Y-25186D02*
X45657Y-25224D01*
X45543Y-25224D01*
X45485Y-25186D01*
X45457Y-25148D01*
X45428Y-25071D01*
X45428Y-24843D01*
X45457Y-24767D01*
X45485Y-24729D01*
X45543Y-24690D01*
X45657Y-24690D01*
X45714Y-24729D01*
G54D12*
X39400Y-34450D02*
X39400Y-18400D01*
X70000Y-34450D02*
X39400Y-34450D01*
X70000Y-34400D02*
X70000Y-34450D01*
X70000Y-34500D02*
X70000Y-34400D01*
X70000Y-34400D02*
X70000Y-34500D01*
X70000Y-18400D02*
X70000Y-34400D01*
X39400Y-18400D02*
X70000Y-18400D01*
G54D13*
X66674Y-29461D02*
X65474Y-29461D01*
X65474Y-29461D02*
X65474Y-26661D01*
X65474Y-26661D02*
X66674Y-26661D01*
X67874Y-29461D02*
X68174Y-29461D01*
X68174Y-29461D02*
X69074Y-28861D01*
X69074Y-28861D02*
X69074Y-27261D01*
X69074Y-27261D02*
X68174Y-26661D01*
X68174Y-26661D02*
X67874Y-26661D01*
G54D14*
X41177Y-27572D02*
X41177Y-28472D01*
X41177Y-28472D02*
X41677Y-28472D01*
X41677Y-28472D02*
X41677Y-27572D01*
X41677Y-27572D02*
X41177Y-27572D01*
X52550Y-22475D02*
X52550Y-23375D01*
X52550Y-23375D02*
X53050Y-23375D01*
X53050Y-23375D02*
X53050Y-22475D01*
X53050Y-22475D02*
X52550Y-22475D01*
X52775Y-27925D02*
X53675Y-27925D01*
X53675Y-27925D02*
X53675Y-27425D01*
X53675Y-27425D02*
X52775Y-27425D01*
X52775Y-27425D02*
X52775Y-27925D01*
X48400Y-28425D02*
X49300Y-28425D01*
X49300Y-28425D02*
X49300Y-27925D01*
X49300Y-27925D02*
X48400Y-27925D01*
X48400Y-27925D02*
X48400Y-28425D01*
X47280Y-24790D02*
X47280Y-23890D01*
X47280Y-23890D02*
X46780Y-23890D01*
X46780Y-23890D02*
X46780Y-24790D01*
X46780Y-24790D02*
X47280Y-24790D01*
X48230Y-27900D02*
X47330Y-27900D01*
X47330Y-27900D02*
X47330Y-28400D01*
X47330Y-28400D02*
X48230Y-28400D01*
X48230Y-28400D02*
X48230Y-27900D01*
X47325Y-27525D02*
X48225Y-27525D01*
X48225Y-27525D02*
X48225Y-27025D01*
X48225Y-27025D02*
X47325Y-27025D01*
X47325Y-27025D02*
X47325Y-27525D01*
X51725Y-22475D02*
X51725Y-23375D01*
X51725Y-23375D02*
X52225Y-23375D01*
X52225Y-23375D02*
X52225Y-22475D01*
X52225Y-22475D02*
X51725Y-22475D01*
X47247Y-25506D02*
X48147Y-25506D01*
X48147Y-25506D02*
X48147Y-25006D01*
X48147Y-25006D02*
X47247Y-25006D01*
X47247Y-25006D02*
X47247Y-25506D01*
X50275Y-28975D02*
X50275Y-28075D01*
X50275Y-28075D02*
X49775Y-28075D01*
X49775Y-28075D02*
X49775Y-28975D01*
X49775Y-28975D02*
X50275Y-28975D01*
X48625Y-22475D02*
X48625Y-23375D01*
X48625Y-23375D02*
X49125Y-23375D01*
X49125Y-23375D02*
X49125Y-22475D01*
X49125Y-22475D02*
X48625Y-22475D01*
X53175Y-29475D02*
X53175Y-28575D01*
X53175Y-28575D02*
X52675Y-28575D01*
X52675Y-28575D02*
X52675Y-29475D01*
X52675Y-29475D02*
X53175Y-29475D01*
X54308Y-28283D02*
X53408Y-28283D01*
X53408Y-28283D02*
X53408Y-28783D01*
X53408Y-28783D02*
X54308Y-28783D01*
X54308Y-28783D02*
X54308Y-28283D01*
X53750Y-25300D02*
X53750Y-24400D01*
X53750Y-24400D02*
X53250Y-24400D01*
X53250Y-24400D02*
X53250Y-25300D01*
X53250Y-25300D02*
X53750Y-25300D01*
X49475Y-22475D02*
X49475Y-23375D01*
X49475Y-23375D02*
X49975Y-23375D01*
X49975Y-23375D02*
X49975Y-22475D01*
X49975Y-22475D02*
X49475Y-22475D01*
X54325Y-23175D02*
X53425Y-23175D01*
X53425Y-23175D02*
X53425Y-23675D01*
X53425Y-23675D02*
X54325Y-23675D01*
X54325Y-23675D02*
X54325Y-23175D01*
X50875Y-27775D02*
X50875Y-28675D01*
X50875Y-28675D02*
X51375Y-28675D01*
X51375Y-28675D02*
X51375Y-27775D01*
X51375Y-27775D02*
X50875Y-27775D01*
X67375Y-30775D02*
X67374Y-30784D01*
X67371Y-30794D01*
X67366Y-30802D01*
X67360Y-30810D01*
X67352Y-30816D01*
X67344Y-30821D01*
X67335Y-30823D01*
X67325Y-30824D01*
X67316Y-30824D01*
X67307Y-30821D01*
X67298Y-30816D01*
X67291Y-30810D01*
X67284Y-30803D01*
X67280Y-30794D01*
X67277Y-30785D01*
X67276Y-30775D01*
X67276Y-30766D01*
X67279Y-30757D01*
X67283Y-30748D01*
X67290Y-30741D01*
X67297Y-30734D01*
X67305Y-30730D01*
X67315Y-30727D01*
X67324Y-30726D01*
X67333Y-30726D01*
X67343Y-30729D01*
X67351Y-30733D01*
X67359Y-30739D01*
X67365Y-30747D01*
X67370Y-30755D01*
X67373Y-30764D01*
X67374Y-30774D01*
X67375Y-30775D01*
X67775Y-30775D02*
X67375Y-30775D01*
X67375Y-30775D02*
X67375Y-31375D01*
X67375Y-31375D02*
X67775Y-31375D01*
X68175Y-31375D02*
X68575Y-31375D01*
X68575Y-31375D02*
X68575Y-30775D01*
X68575Y-30775D02*
X68175Y-30775D01*
X68900Y-22500D02*
X68899Y-22509D01*
X68896Y-22519D01*
X68891Y-22527D01*
X68885Y-22535D01*
X68877Y-22541D01*
X68869Y-22546D01*
X68860Y-22548D01*
X68850Y-22549D01*
X68841Y-22549D01*
X68832Y-22546D01*
X68823Y-22541D01*
X68816Y-22535D01*
X68809Y-22528D01*
X68805Y-22519D01*
X68802Y-22510D01*
X68801Y-22500D01*
X68801Y-22491D01*
X68804Y-22482D01*
X68808Y-22473D01*
X68815Y-22466D01*
X68822Y-22459D01*
X68830Y-22455D01*
X68840Y-22452D01*
X68849Y-22451D01*
X68858Y-22451D01*
X68868Y-22454D01*
X68876Y-22458D01*
X68884Y-22464D01*
X68890Y-22472D01*
X68895Y-22480D01*
X68898Y-22489D01*
X68899Y-22499D01*
X68900Y-22500D01*
X68850Y-22950D02*
X68850Y-22550D01*
X68850Y-22550D02*
X68250Y-22550D01*
X68250Y-22550D02*
X68250Y-22950D01*
X68250Y-23350D02*
X68250Y-23750D01*
X68250Y-23750D02*
X68850Y-23750D01*
X68850Y-23750D02*
X68850Y-23350D01*
X66800Y-22650D02*
X66799Y-22659D01*
X66796Y-22669D01*
X66791Y-22677D01*
X66785Y-22685D01*
X66777Y-22691D01*
X66769Y-22696D01*
X66760Y-22698D01*
X66750Y-22699D01*
X66741Y-22699D01*
X66732Y-22696D01*
X66723Y-22691D01*
X66716Y-22685D01*
X66709Y-22678D01*
X66705Y-22669D01*
X66702Y-22660D01*
X66701Y-22650D01*
X66701Y-22641D01*
X66704Y-22632D01*
X66708Y-22623D01*
X66715Y-22616D01*
X66722Y-22609D01*
X66730Y-22605D01*
X66740Y-22602D01*
X66749Y-22601D01*
X66758Y-22601D01*
X66768Y-22604D01*
X66776Y-22608D01*
X66784Y-22614D01*
X66790Y-22622D01*
X66795Y-22630D01*
X66798Y-22639D01*
X66799Y-22649D01*
X66800Y-22650D01*
X67200Y-22650D02*
X66800Y-22650D01*
X66800Y-22650D02*
X66800Y-23250D01*
X66800Y-23250D02*
X67200Y-23250D01*
X67600Y-23250D02*
X68000Y-23250D01*
X68000Y-23250D02*
X68000Y-22650D01*
X68000Y-22650D02*
X67600Y-22650D01*
X68500Y-29900D02*
X68499Y-29909D01*
X68496Y-29919D01*
X68491Y-29927D01*
X68485Y-29935D01*
X68477Y-29941D01*
X68469Y-29946D01*
X68460Y-29948D01*
X68450Y-29949D01*
X68441Y-29949D01*
X68432Y-29946D01*
X68423Y-29941D01*
X68416Y-29935D01*
X68409Y-29928D01*
X68405Y-29919D01*
X68402Y-29910D01*
X68401Y-29900D01*
X68401Y-29891D01*
X68404Y-29882D01*
X68408Y-29873D01*
X68415Y-29866D01*
X68422Y-29859D01*
X68430Y-29855D01*
X68440Y-29852D01*
X68449Y-29851D01*
X68458Y-29851D01*
X68468Y-29854D01*
X68476Y-29858D01*
X68484Y-29864D01*
X68490Y-29872D01*
X68495Y-29880D01*
X68498Y-29889D01*
X68499Y-29899D01*
X68500Y-29900D01*
X68000Y-29900D02*
X68400Y-29900D01*
X68400Y-29900D02*
X68400Y-29300D01*
X68400Y-29300D02*
X68000Y-29300D01*
X67600Y-29300D02*
X67200Y-29300D01*
X67200Y-29300D02*
X67200Y-29900D01*
X67200Y-29900D02*
X67600Y-29900D01*
X64699Y-25863D02*
X64699Y-24963D01*
X64699Y-24963D02*
X64199Y-24963D01*
X64199Y-24963D02*
X64199Y-25863D01*
X64199Y-25863D02*
X64699Y-25863D01*
X63813Y-25873D02*
X63813Y-24973D01*
X63813Y-24973D02*
X63313Y-24973D01*
X63313Y-24973D02*
X63313Y-25873D01*
X63313Y-25873D02*
X63813Y-25873D01*
X69250Y-26850D02*
X69250Y-25950D01*
X69250Y-25950D02*
X68750Y-25950D01*
X68750Y-25950D02*
X68750Y-26850D01*
X68750Y-26850D02*
X69250Y-26850D01*
X61925Y-26233D02*
X61925Y-27133D01*
X61925Y-27133D02*
X62425Y-27133D01*
X62425Y-27133D02*
X62425Y-26233D01*
X62425Y-26233D02*
X61925Y-26233D01*
X64958Y-28746D02*
X64058Y-28746D01*
X64058Y-28746D02*
X64058Y-29246D01*
X64058Y-29246D02*
X64958Y-29246D01*
X64958Y-29246D02*
X64958Y-28746D01*
X64125Y-24125D02*
X65025Y-24125D01*
X65025Y-24125D02*
X65025Y-23625D01*
X65025Y-23625D02*
X64125Y-23625D01*
X64125Y-23625D02*
X64125Y-24125D01*
X62875Y-28100D02*
X61975Y-28100D01*
X61975Y-28100D02*
X61975Y-28600D01*
X61975Y-28600D02*
X62875Y-28600D01*
X62875Y-28600D02*
X62875Y-28100D01*
X60650Y-28625D02*
X61550Y-28625D01*
X61550Y-28625D02*
X61550Y-28125D01*
X61550Y-28125D02*
X60650Y-28125D01*
X60650Y-28125D02*
X60650Y-28625D01*
G54D12*
X51125Y-24175D02*
X50875Y-24425D01*
X50875Y-24425D02*
X50625Y-24175D01*
X51125Y-24175D02*
X50625Y-24175D01*
X52375Y-24175D02*
X49375Y-24175D01*
X49375Y-24175D02*
X49375Y-27175D01*
X49375Y-27175D02*
X52375Y-27175D01*
X52375Y-27175D02*
X52375Y-24175D01*
G54D14*
X65155Y-27073D02*
X64255Y-27073D01*
X64255Y-27073D02*
X64255Y-27573D01*
X64255Y-27573D02*
X65155Y-27573D01*
X65155Y-27573D02*
X65155Y-27073D01*
G54D11*
X59500Y-34250D02*
X59500Y-33250D01*
X64500Y-33250D02*
X64500Y-34250D01*
X59500Y-34250D02*
X64500Y-34250D01*
X64500Y-33250D02*
X59500Y-33250D01*
X54500Y-34250D02*
X54500Y-33250D01*
X59500Y-33250D02*
X59500Y-34250D01*
X54500Y-34250D02*
X59500Y-34250D01*
X59500Y-33250D02*
X54500Y-33250D01*
X49500Y-34250D02*
X49500Y-33250D01*
X54500Y-33250D02*
X54500Y-34250D01*
X49500Y-34250D02*
X54500Y-34250D01*
X54500Y-33250D02*
X49500Y-33250D01*
X44500Y-34250D02*
X44500Y-33250D01*
X49500Y-33250D02*
X49500Y-34250D01*
X44500Y-34250D02*
X49500Y-34250D01*
X49500Y-33250D02*
X44500Y-33250D01*
X39500Y-34250D02*
X39500Y-33250D01*
X44500Y-33250D02*
X44500Y-34250D01*
X39500Y-34250D02*
X44500Y-34250D01*
X44500Y-33250D02*
X39500Y-33250D01*
X44500Y-19750D02*
X44500Y-18750D01*
X49500Y-18750D02*
X49500Y-19750D01*
X44500Y-19750D02*
X49500Y-19750D01*
X49500Y-18750D02*
X44500Y-18750D01*
X39500Y-19750D02*
X39500Y-18750D01*
X44500Y-18750D02*
X44500Y-19750D01*
X39500Y-19750D02*
X44500Y-19750D01*
X44500Y-18750D02*
X39500Y-18750D01*
X64500Y-19750D02*
X64500Y-18750D01*
X69500Y-18750D02*
X69500Y-19750D01*
X64500Y-19750D02*
X69500Y-19750D01*
X69500Y-18750D02*
X64500Y-18750D01*
X59500Y-19750D02*
X59500Y-18750D01*
X64500Y-18750D02*
X64500Y-19750D01*
X59500Y-19750D02*
X64500Y-19750D01*
X64500Y-18750D02*
X59500Y-18750D01*
X54500Y-19750D02*
X54500Y-18750D01*
X59500Y-18750D02*
X59500Y-19750D01*
X54500Y-19750D02*
X59500Y-19750D01*
X59500Y-18750D02*
X54500Y-18750D01*
G54D14*
X45150Y-29450D02*
X45150Y-31450D01*
X45150Y-31450D02*
X46950Y-31450D01*
X46950Y-31450D02*
X46950Y-29450D01*
X46950Y-29450D02*
X45150Y-29450D01*
X45750Y-29450D02*
X45750Y-29650D01*
X45750Y-29650D02*
X46250Y-29650D01*
X46250Y-29650D02*
X46250Y-29450D01*
G54D11*
X64500Y-34250D02*
X64500Y-33250D01*
X69500Y-33250D02*
X69500Y-34250D01*
X64500Y-34250D02*
X69500Y-34250D01*
X69500Y-33250D02*
X64500Y-33250D01*
X49500Y-19750D02*
X49500Y-18750D01*
X54500Y-18750D02*
X54500Y-19750D01*
X49500Y-19750D02*
X54500Y-19750D01*
X54500Y-18750D02*
X49500Y-18750D01*
G54D15*
X61020Y-20780D02*
X61160Y-20780D01*
X61160Y-20780D02*
X61160Y-21030D01*
X61020Y-21030D02*
X61160Y-21030D01*
X61020Y-20780D02*
X61020Y-21030D01*
X60650Y-20110D02*
X60790Y-20110D01*
X60790Y-20110D02*
X60790Y-20360D01*
X60650Y-20360D02*
X60790Y-20360D01*
X60650Y-20110D02*
X60650Y-20360D01*
X60281Y-20780D02*
X60420Y-20780D01*
X60420Y-20780D02*
X60420Y-21030D01*
X60281Y-21030D02*
X60420Y-21030D01*
X60281Y-20780D02*
X60281Y-21030D01*
G54D10*
X60140Y-20760D02*
X61290Y-20760D01*
X61290Y-20380D02*
X61290Y-20760D01*
X61290Y-20380D02*
X60140Y-20380D01*
X60140Y-20760D02*
X60140Y-20380D01*
G54D15*
X64760Y-20750D02*
X64900Y-20750D01*
X64900Y-20750D02*
X64900Y-21000D01*
X64760Y-21000D02*
X64900Y-21000D01*
X64760Y-20750D02*
X64760Y-21000D01*
X64390Y-20080D02*
X64530Y-20080D01*
X64530Y-20080D02*
X64530Y-20330D01*
X64390Y-20330D02*
X64530Y-20330D01*
X64390Y-20080D02*
X64390Y-20330D01*
X64021Y-20750D02*
X64160Y-20750D01*
X64160Y-20750D02*
X64160Y-21000D01*
X64021Y-21000D02*
X64160Y-21000D01*
X64021Y-20750D02*
X64021Y-21000D01*
G54D10*
X63880Y-20730D02*
X65030Y-20730D01*
X65030Y-20350D02*
X65030Y-20730D01*
X65030Y-20350D02*
X63880Y-20350D01*
X63880Y-20730D02*
X63880Y-20350D01*
G54D15*
X66810Y-20700D02*
X66950Y-20700D01*
X66950Y-20700D02*
X66950Y-20950D01*
X66810Y-20950D02*
X66950Y-20950D01*
X66810Y-20700D02*
X66810Y-20950D01*
X66440Y-20030D02*
X66580Y-20030D01*
X66580Y-20030D02*
X66580Y-20280D01*
X66440Y-20280D02*
X66580Y-20280D01*
X66440Y-20030D02*
X66440Y-20280D01*
X66071Y-20700D02*
X66210Y-20700D01*
X66210Y-20700D02*
X66210Y-20950D01*
X66071Y-20950D02*
X66210Y-20950D01*
X66071Y-20700D02*
X66071Y-20950D01*
G54D10*
X65930Y-20680D02*
X67080Y-20680D01*
X67080Y-20300D02*
X67080Y-20680D01*
X67080Y-20300D02*
X65930Y-20300D01*
X65930Y-20680D02*
X65930Y-20300D01*
G54D15*
X68810Y-20700D02*
X68950Y-20700D01*
X68950Y-20700D02*
X68950Y-20950D01*
X68810Y-20950D02*
X68950Y-20950D01*
X68810Y-20700D02*
X68810Y-20950D01*
X68440Y-20030D02*
X68580Y-20030D01*
X68580Y-20030D02*
X68580Y-20280D01*
X68440Y-20280D02*
X68580Y-20280D01*
X68440Y-20030D02*
X68440Y-20280D01*
X68071Y-20700D02*
X68210Y-20700D01*
X68210Y-20700D02*
X68210Y-20950D01*
X68071Y-20950D02*
X68210Y-20950D01*
X68071Y-20700D02*
X68071Y-20950D01*
G54D10*
X67930Y-20680D02*
X69080Y-20680D01*
X69080Y-20300D02*
X69080Y-20680D01*
X69080Y-20300D02*
X67930Y-20300D01*
X67930Y-20680D02*
X67930Y-20300D01*
G54D15*
X50860Y-20750D02*
X51000Y-20750D01*
X51000Y-20750D02*
X51000Y-21000D01*
X50860Y-21000D02*
X51000Y-21000D01*
X50860Y-20750D02*
X50860Y-21000D01*
X50490Y-20080D02*
X50630Y-20080D01*
X50630Y-20080D02*
X50630Y-20330D01*
X50490Y-20330D02*
X50630Y-20330D01*
X50490Y-20080D02*
X50490Y-20330D01*
X50121Y-20750D02*
X50260Y-20750D01*
X50260Y-20750D02*
X50260Y-21000D01*
X50121Y-21000D02*
X50260Y-21000D01*
X50121Y-20750D02*
X50121Y-21000D01*
G54D10*
X49980Y-20730D02*
X51130Y-20730D01*
X51130Y-20350D02*
X51130Y-20730D01*
X51130Y-20350D02*
X49980Y-20350D01*
X49980Y-20730D02*
X49980Y-20350D01*
G54D15*
X52860Y-20750D02*
X53000Y-20750D01*
X53000Y-20750D02*
X53000Y-21000D01*
X52860Y-21000D02*
X53000Y-21000D01*
X52860Y-20750D02*
X52860Y-21000D01*
X52490Y-20080D02*
X52630Y-20080D01*
X52630Y-20080D02*
X52630Y-20330D01*
X52490Y-20330D02*
X52630Y-20330D01*
X52490Y-20080D02*
X52490Y-20330D01*
X52121Y-20750D02*
X52260Y-20750D01*
X52260Y-20750D02*
X52260Y-21000D01*
X52121Y-21000D02*
X52260Y-21000D01*
X52121Y-20750D02*
X52121Y-21000D01*
G54D10*
X51980Y-20730D02*
X53130Y-20730D01*
X53130Y-20350D02*
X53130Y-20730D01*
X53130Y-20350D02*
X51980Y-20350D01*
X51980Y-20730D02*
X51980Y-20350D01*
G54D15*
X55860Y-20750D02*
X56000Y-20750D01*
X56000Y-20750D02*
X56000Y-21000D01*
X55860Y-21000D02*
X56000Y-21000D01*
X55860Y-20750D02*
X55860Y-21000D01*
X55490Y-20080D02*
X55630Y-20080D01*
X55630Y-20080D02*
X55630Y-20330D01*
X55490Y-20330D02*
X55630Y-20330D01*
X55490Y-20080D02*
X55490Y-20330D01*
X55121Y-20750D02*
X55260Y-20750D01*
X55260Y-20750D02*
X55260Y-21000D01*
X55121Y-21000D02*
X55260Y-21000D01*
X55121Y-20750D02*
X55121Y-21000D01*
G54D10*
X54980Y-20730D02*
X56130Y-20730D01*
X56130Y-20350D02*
X56130Y-20730D01*
X56130Y-20350D02*
X54980Y-20350D01*
X54980Y-20730D02*
X54980Y-20350D01*
G54D15*
X58810Y-20750D02*
X58950Y-20750D01*
X58950Y-20750D02*
X58950Y-21000D01*
X58810Y-21000D02*
X58950Y-21000D01*
X58810Y-20750D02*
X58810Y-21000D01*
X58440Y-20080D02*
X58580Y-20080D01*
X58580Y-20080D02*
X58580Y-20330D01*
X58440Y-20330D02*
X58580Y-20330D01*
X58440Y-20080D02*
X58440Y-20330D01*
X58071Y-20750D02*
X58210Y-20750D01*
X58210Y-20750D02*
X58210Y-21000D01*
X58071Y-21000D02*
X58210Y-21000D01*
X58071Y-20750D02*
X58071Y-21000D01*
G54D10*
X57930Y-20730D02*
X59080Y-20730D01*
X59080Y-20350D02*
X59080Y-20730D01*
X59080Y-20350D02*
X57930Y-20350D01*
X57930Y-20730D02*
X57930Y-20350D01*
G54D14*
X41930Y-29390D02*
X42830Y-29390D01*
X42830Y-29390D02*
X42830Y-28890D01*
X42830Y-28890D02*
X41930Y-28890D01*
X41930Y-28890D02*
X41930Y-29390D01*
X63250Y-24000D02*
X63250Y-24900D01*
X63250Y-24900D02*
X63750Y-24900D01*
X63750Y-24900D02*
X63750Y-24000D01*
X63750Y-24000D02*
X63250Y-24000D01*
X40575Y-22775D02*
X41475Y-22775D01*
X41475Y-22775D02*
X41475Y-22275D01*
X41475Y-22275D02*
X40575Y-22275D01*
X40575Y-22275D02*
X40575Y-22775D01*
X56360Y-24440D02*
X57260Y-24440D01*
X57260Y-24440D02*
X57260Y-23940D01*
X57260Y-23940D02*
X56360Y-23940D01*
X56360Y-23940D02*
X56360Y-24440D01*
X56360Y-23200D02*
X57260Y-23200D01*
X57260Y-23200D02*
X57260Y-22700D01*
X57260Y-22700D02*
X56360Y-22700D01*
X56360Y-22700D02*
X56360Y-23200D01*
X56360Y-23810D02*
X57260Y-23810D01*
X57260Y-23810D02*
X57260Y-23310D01*
X57260Y-23310D02*
X56360Y-23310D01*
X56360Y-23310D02*
X56360Y-23810D01*
X56360Y-25070D02*
X57260Y-25070D01*
X57260Y-25070D02*
X57260Y-24570D01*
X57260Y-24570D02*
X56360Y-24570D01*
X56360Y-24570D02*
X56360Y-25070D01*
G54D15*
X41860Y-20700D02*
X42000Y-20700D01*
X42000Y-20700D02*
X42000Y-20950D01*
X41860Y-20950D02*
X42000Y-20950D01*
X41860Y-20700D02*
X41860Y-20950D01*
X41490Y-20030D02*
X41630Y-20030D01*
X41630Y-20030D02*
X41630Y-20280D01*
X41490Y-20280D02*
X41630Y-20280D01*
X41490Y-20030D02*
X41490Y-20280D01*
X41121Y-20700D02*
X41260Y-20700D01*
X41260Y-20700D02*
X41260Y-20950D01*
X41121Y-20950D02*
X41260Y-20950D01*
X41121Y-20700D02*
X41121Y-20950D01*
G54D10*
X40980Y-20680D02*
X42130Y-20680D01*
X42130Y-20300D02*
X42130Y-20680D01*
X42130Y-20300D02*
X40980Y-20300D01*
X40980Y-20680D02*
X40980Y-20300D01*
G54D15*
X43860Y-20700D02*
X44000Y-20700D01*
X44000Y-20700D02*
X44000Y-20950D01*
X43860Y-20950D02*
X44000Y-20950D01*
X43860Y-20700D02*
X43860Y-20950D01*
X43490Y-20030D02*
X43630Y-20030D01*
X43630Y-20030D02*
X43630Y-20280D01*
X43490Y-20280D02*
X43630Y-20280D01*
X43490Y-20030D02*
X43490Y-20280D01*
X43121Y-20700D02*
X43260Y-20700D01*
X43260Y-20700D02*
X43260Y-20950D01*
X43121Y-20950D02*
X43260Y-20950D01*
X43121Y-20700D02*
X43121Y-20950D01*
G54D10*
X42980Y-20680D02*
X44130Y-20680D01*
X44130Y-20300D02*
X44130Y-20680D01*
X44130Y-20300D02*
X42980Y-20300D01*
X42980Y-20680D02*
X42980Y-20300D01*
G54D15*
X45860Y-20700D02*
X46000Y-20700D01*
X46000Y-20700D02*
X46000Y-20950D01*
X45860Y-20950D02*
X46000Y-20950D01*
X45860Y-20700D02*
X45860Y-20950D01*
X45490Y-20030D02*
X45630Y-20030D01*
X45630Y-20030D02*
X45630Y-20280D01*
X45490Y-20280D02*
X45630Y-20280D01*
X45490Y-20030D02*
X45490Y-20280D01*
X45121Y-20700D02*
X45260Y-20700D01*
X45260Y-20700D02*
X45260Y-20950D01*
X45121Y-20950D02*
X45260Y-20950D01*
X45121Y-20700D02*
X45121Y-20950D01*
G54D10*
X44980Y-20680D02*
X46130Y-20680D01*
X46130Y-20300D02*
X46130Y-20680D01*
X46130Y-20300D02*
X44980Y-20300D01*
X44980Y-20680D02*
X44980Y-20300D01*
G54D15*
X48810Y-20700D02*
X48950Y-20700D01*
X48950Y-20700D02*
X48950Y-20950D01*
X48810Y-20950D02*
X48950Y-20950D01*
X48810Y-20700D02*
X48810Y-20950D01*
X48440Y-20030D02*
X48580Y-20030D01*
X48580Y-20030D02*
X48580Y-20280D01*
X48440Y-20280D02*
X48580Y-20280D01*
X48440Y-20030D02*
X48440Y-20280D01*
X48071Y-20700D02*
X48210Y-20700D01*
X48210Y-20700D02*
X48210Y-20950D01*
X48071Y-20950D02*
X48210Y-20950D01*
X48071Y-20700D02*
X48071Y-20950D01*
G54D10*
X47930Y-20680D02*
X49080Y-20680D01*
X49080Y-20300D02*
X49080Y-20680D01*
X49080Y-20300D02*
X47930Y-20300D01*
X47930Y-20680D02*
X47930Y-20300D01*
G54D15*
X41140Y-32250D02*
X41000Y-32250D01*
X41000Y-32250D02*
X41000Y-32000D01*
X41140Y-32000D02*
X41000Y-32000D01*
X41140Y-32250D02*
X41140Y-32000D01*
X41510Y-32920D02*
X41370Y-32920D01*
X41370Y-32920D02*
X41370Y-32670D01*
X41510Y-32670D02*
X41370Y-32670D01*
X41510Y-32920D02*
X41510Y-32670D01*
X41879Y-32250D02*
X41740Y-32250D01*
X41740Y-32250D02*
X41740Y-32000D01*
X41879Y-32000D02*
X41740Y-32000D01*
X41879Y-32250D02*
X41879Y-32000D01*
G54D10*
X42020Y-32270D02*
X40870Y-32270D01*
X40870Y-32650D02*
X40870Y-32270D01*
X40870Y-32650D02*
X42020Y-32650D01*
X42020Y-32270D02*
X42020Y-32650D01*
G54D15*
X50790Y-32300D02*
X50650Y-32300D01*
X50650Y-32300D02*
X50650Y-32050D01*
X50790Y-32050D02*
X50650Y-32050D01*
X50790Y-32300D02*
X50790Y-32050D01*
X51160Y-32970D02*
X51020Y-32970D01*
X51020Y-32970D02*
X51020Y-32720D01*
X51160Y-32720D02*
X51020Y-32720D01*
X51160Y-32970D02*
X51160Y-32720D01*
X51529Y-32300D02*
X51390Y-32300D01*
X51390Y-32300D02*
X51390Y-32050D01*
X51529Y-32050D02*
X51390Y-32050D01*
X51529Y-32300D02*
X51529Y-32050D01*
G54D10*
X51670Y-32320D02*
X50520Y-32320D01*
X50520Y-32700D02*
X50520Y-32320D01*
X50520Y-32700D02*
X51670Y-32700D01*
X51670Y-32320D02*
X51670Y-32700D01*
G54D15*
X61290Y-32300D02*
X61150Y-32300D01*
X61150Y-32300D02*
X61150Y-32050D01*
X61290Y-32050D02*
X61150Y-32050D01*
X61290Y-32300D02*
X61290Y-32050D01*
X61660Y-32970D02*
X61520Y-32970D01*
X61520Y-32970D02*
X61520Y-32720D01*
X61660Y-32720D02*
X61520Y-32720D01*
X61660Y-32970D02*
X61660Y-32720D01*
X62029Y-32300D02*
X61890Y-32300D01*
X61890Y-32300D02*
X61890Y-32050D01*
X62029Y-32050D02*
X61890Y-32050D01*
X62029Y-32300D02*
X62029Y-32050D01*
G54D10*
X62170Y-32320D02*
X61020Y-32320D01*
X61020Y-32700D02*
X61020Y-32320D01*
X61020Y-32700D02*
X62170Y-32700D01*
X62170Y-32320D02*
X62170Y-32700D01*
G54D15*
X43240Y-32250D02*
X43100Y-32250D01*
X43100Y-32250D02*
X43100Y-32000D01*
X43240Y-32000D02*
X43100Y-32000D01*
X43240Y-32250D02*
X43240Y-32000D01*
X43610Y-32920D02*
X43470Y-32920D01*
X43470Y-32920D02*
X43470Y-32670D01*
X43610Y-32670D02*
X43470Y-32670D01*
X43610Y-32920D02*
X43610Y-32670D01*
X43979Y-32250D02*
X43840Y-32250D01*
X43840Y-32250D02*
X43840Y-32000D01*
X43979Y-32000D02*
X43840Y-32000D01*
X43979Y-32250D02*
X43979Y-32000D01*
G54D10*
X44120Y-32270D02*
X42970Y-32270D01*
X42970Y-32650D02*
X42970Y-32270D01*
X42970Y-32650D02*
X44120Y-32650D01*
X44120Y-32270D02*
X44120Y-32650D01*
G54D15*
X53190Y-32300D02*
X53050Y-32300D01*
X53050Y-32300D02*
X53050Y-32050D01*
X53190Y-32050D02*
X53050Y-32050D01*
X53190Y-32300D02*
X53190Y-32050D01*
X53560Y-32970D02*
X53420Y-32970D01*
X53420Y-32970D02*
X53420Y-32720D01*
X53560Y-32720D02*
X53420Y-32720D01*
X53560Y-32970D02*
X53560Y-32720D01*
X53929Y-32300D02*
X53790Y-32300D01*
X53790Y-32300D02*
X53790Y-32050D01*
X53929Y-32050D02*
X53790Y-32050D01*
X53929Y-32300D02*
X53929Y-32050D01*
G54D10*
X54070Y-32320D02*
X52920Y-32320D01*
X52920Y-32700D02*
X52920Y-32320D01*
X52920Y-32700D02*
X54070Y-32700D01*
X54070Y-32320D02*
X54070Y-32700D01*
G54D15*
X64090Y-32300D02*
X63950Y-32300D01*
X63950Y-32300D02*
X63950Y-32050D01*
X64090Y-32050D02*
X63950Y-32050D01*
X64090Y-32300D02*
X64090Y-32050D01*
X64460Y-32970D02*
X64320Y-32970D01*
X64320Y-32970D02*
X64320Y-32720D01*
X64460Y-32720D02*
X64320Y-32720D01*
X64460Y-32970D02*
X64460Y-32720D01*
X64829Y-32300D02*
X64690Y-32300D01*
X64690Y-32300D02*
X64690Y-32050D01*
X64829Y-32050D02*
X64690Y-32050D01*
X64829Y-32300D02*
X64829Y-32050D01*
G54D10*
X64970Y-32320D02*
X63820Y-32320D01*
X63820Y-32700D02*
X63820Y-32320D01*
X63820Y-32700D02*
X64970Y-32700D01*
X64970Y-32320D02*
X64970Y-32700D01*
G54D15*
X45290Y-32250D02*
X45150Y-32250D01*
X45150Y-32250D02*
X45150Y-32000D01*
X45290Y-32000D02*
X45150Y-32000D01*
X45290Y-32250D02*
X45290Y-32000D01*
X45660Y-32920D02*
X45520Y-32920D01*
X45520Y-32920D02*
X45520Y-32670D01*
X45660Y-32670D02*
X45520Y-32670D01*
X45660Y-32920D02*
X45660Y-32670D01*
X46029Y-32250D02*
X45890Y-32250D01*
X45890Y-32250D02*
X45890Y-32000D01*
X46029Y-32000D02*
X45890Y-32000D01*
X46029Y-32250D02*
X46029Y-32000D01*
G54D10*
X46170Y-32270D02*
X45020Y-32270D01*
X45020Y-32650D02*
X45020Y-32270D01*
X45020Y-32650D02*
X46170Y-32650D01*
X46170Y-32270D02*
X46170Y-32650D01*
G54D15*
X55640Y-32250D02*
X55500Y-32250D01*
X55500Y-32250D02*
X55500Y-32000D01*
X55640Y-32000D02*
X55500Y-32000D01*
X55640Y-32250D02*
X55640Y-32000D01*
X56010Y-32920D02*
X55870Y-32920D01*
X55870Y-32920D02*
X55870Y-32670D01*
X56010Y-32670D02*
X55870Y-32670D01*
X56010Y-32920D02*
X56010Y-32670D01*
X56379Y-32250D02*
X56240Y-32250D01*
X56240Y-32250D02*
X56240Y-32000D01*
X56379Y-32000D02*
X56240Y-32000D01*
X56379Y-32250D02*
X56379Y-32000D01*
G54D10*
X56520Y-32270D02*
X55370Y-32270D01*
X55370Y-32650D02*
X55370Y-32270D01*
X55370Y-32650D02*
X56520Y-32650D01*
X56520Y-32270D02*
X56520Y-32650D01*
G54D15*
X66190Y-32300D02*
X66050Y-32300D01*
X66050Y-32300D02*
X66050Y-32050D01*
X66190Y-32050D02*
X66050Y-32050D01*
X66190Y-32300D02*
X66190Y-32050D01*
X66560Y-32970D02*
X66420Y-32970D01*
X66420Y-32970D02*
X66420Y-32720D01*
X66560Y-32720D02*
X66420Y-32720D01*
X66560Y-32970D02*
X66560Y-32720D01*
X66929Y-32300D02*
X66790Y-32300D01*
X66790Y-32300D02*
X66790Y-32050D01*
X66929Y-32050D02*
X66790Y-32050D01*
X66929Y-32300D02*
X66929Y-32050D01*
G54D10*
X67070Y-32320D02*
X65920Y-32320D01*
X65920Y-32700D02*
X65920Y-32320D01*
X65920Y-32700D02*
X67070Y-32700D01*
X67070Y-32320D02*
X67070Y-32700D01*
G54D15*
X48240Y-32300D02*
X48100Y-32300D01*
X48100Y-32300D02*
X48100Y-32050D01*
X48240Y-32050D02*
X48100Y-32050D01*
X48240Y-32300D02*
X48240Y-32050D01*
X48610Y-32970D02*
X48470Y-32970D01*
X48470Y-32970D02*
X48470Y-32720D01*
X48610Y-32720D02*
X48470Y-32720D01*
X48610Y-32970D02*
X48610Y-32720D01*
X48979Y-32300D02*
X48840Y-32300D01*
X48840Y-32300D02*
X48840Y-32050D01*
X48979Y-32050D02*
X48840Y-32050D01*
X48979Y-32300D02*
X48979Y-32050D01*
G54D10*
X49120Y-32320D02*
X47970Y-32320D01*
X47970Y-32700D02*
X47970Y-32320D01*
X47970Y-32700D02*
X49120Y-32700D01*
X49120Y-32320D02*
X49120Y-32700D01*
G54D15*
X58240Y-32250D02*
X58100Y-32250D01*
X58100Y-32250D02*
X58100Y-32000D01*
X58240Y-32000D02*
X58100Y-32000D01*
X58240Y-32250D02*
X58240Y-32000D01*
X58610Y-32920D02*
X58470Y-32920D01*
X58470Y-32920D02*
X58470Y-32670D01*
X58610Y-32670D02*
X58470Y-32670D01*
X58610Y-32920D02*
X58610Y-32670D01*
X58979Y-32250D02*
X58840Y-32250D01*
X58840Y-32250D02*
X58840Y-32000D01*
X58979Y-32000D02*
X58840Y-32000D01*
X58979Y-32250D02*
X58979Y-32000D01*
G54D10*
X59120Y-32270D02*
X57970Y-32270D01*
X57970Y-32650D02*
X57970Y-32270D01*
X57970Y-32650D02*
X59120Y-32650D01*
X59120Y-32270D02*
X59120Y-32650D01*
G54D15*
X68290Y-32300D02*
X68150Y-32300D01*
X68150Y-32300D02*
X68150Y-32050D01*
X68290Y-32050D02*
X68150Y-32050D01*
X68290Y-32300D02*
X68290Y-32050D01*
X68660Y-32970D02*
X68520Y-32970D01*
X68520Y-32970D02*
X68520Y-32720D01*
X68660Y-32720D02*
X68520Y-32720D01*
X68660Y-32970D02*
X68660Y-32720D01*
X69029Y-32300D02*
X68890Y-32300D01*
X68890Y-32300D02*
X68890Y-32050D01*
X69029Y-32050D02*
X68890Y-32050D01*
X69029Y-32300D02*
X69029Y-32050D01*
G54D10*
X69170Y-32320D02*
X68020Y-32320D01*
X68020Y-32700D02*
X68020Y-32320D01*
X68020Y-32700D02*
X69170Y-32700D01*
X69170Y-32320D02*
X69170Y-32700D01*
G54D14*
X58925Y-30400D02*
X58925Y-29500D01*
X58925Y-29500D02*
X58425Y-29500D01*
X58425Y-29500D02*
X58425Y-30400D01*
X58425Y-30400D02*
X58925Y-30400D01*
X58225Y-30400D02*
X58225Y-29500D01*
X58225Y-29500D02*
X57725Y-29500D01*
X57725Y-29500D02*
X57725Y-30400D01*
X57725Y-30400D02*
X58225Y-30400D01*
X57550Y-30425D02*
X57550Y-29525D01*
X57550Y-29525D02*
X57050Y-29525D01*
X57050Y-29525D02*
X57050Y-30425D01*
X57050Y-30425D02*
X57550Y-30425D01*
X68500Y-29800D02*
X69400Y-29800D01*
X69400Y-29800D02*
X69400Y-29300D01*
X69400Y-29300D02*
X68500Y-29300D01*
X68500Y-29300D02*
X68500Y-29800D01*
G54D13*
X67876Y-26162D02*
X67876Y-26486D01*
X67857Y-26524D01*
X67838Y-26543D01*
X67800Y-26562D01*
X67723Y-26562D01*
X67685Y-26543D01*
X67666Y-26524D01*
X67647Y-26486D01*
X67647Y-26162D01*
X67247Y-26562D02*
X67476Y-26562D01*
X67362Y-26562D02*
X67362Y-26162D01*
X67400Y-26219D01*
X67438Y-26257D01*
X67476Y-26276D01*
X66904Y-26295D02*
X66904Y-26562D01*
X67000Y-26143D02*
X67095Y-26429D01*
X66847Y-26429D01*
X66619Y-26162D02*
X66580Y-26162D01*
X66542Y-26181D01*
X66523Y-26200D01*
X66504Y-26238D01*
X66485Y-26314D01*
X66485Y-26410D01*
X66504Y-26486D01*
X66523Y-26524D01*
X66542Y-26543D01*
X66580Y-26562D01*
X66619Y-26562D01*
X66657Y-26543D01*
X66676Y-26524D01*
X66695Y-26486D01*
X66714Y-26410D01*
X66714Y-26314D01*
X66695Y-26238D01*
X66676Y-26200D01*
X66657Y-26181D01*
X66619Y-26162D01*
X66104Y-26562D02*
X66333Y-26562D01*
X66219Y-26562D02*
X66219Y-26162D01*
X66257Y-26219D01*
X66295Y-26257D01*
X66333Y-26276D01*
G54D16*
X41012Y-27714D02*
X41021Y-27705D01*
X41031Y-27679D01*
X41031Y-27662D01*
X41021Y-27637D01*
X41002Y-27619D01*
X40983Y-27611D01*
X40945Y-27602D01*
X40917Y-27602D01*
X40879Y-27611D01*
X40860Y-27619D01*
X40840Y-27637D01*
X40831Y-27662D01*
X40831Y-27679D01*
X40840Y-27705D01*
X40850Y-27714D01*
X41031Y-27885D02*
X41031Y-27782D01*
X41031Y-27834D02*
X40831Y-27834D01*
X40860Y-27817D01*
X40879Y-27799D01*
X40888Y-27782D01*
X41031Y-27970D02*
X41031Y-28005D01*
X41021Y-28022D01*
X41012Y-28030D01*
X40983Y-28048D01*
X40945Y-28056D01*
X40869Y-28056D01*
X40850Y-28048D01*
X40840Y-28039D01*
X40831Y-28022D01*
X40831Y-27988D01*
X40840Y-27970D01*
X40850Y-27962D01*
X40869Y-27953D01*
X40917Y-27953D01*
X40936Y-27962D01*
X40945Y-27970D01*
X40955Y-27988D01*
X40955Y-28022D01*
X40945Y-28039D01*
X40936Y-28048D01*
X40917Y-28056D01*
X40831Y-28167D02*
X40831Y-28184D01*
X40840Y-28201D01*
X40850Y-28210D01*
X40869Y-28219D01*
X40907Y-28227D01*
X40955Y-28227D01*
X40993Y-28219D01*
X41012Y-28210D01*
X41021Y-28201D01*
X41031Y-28184D01*
X41031Y-28167D01*
X41021Y-28150D01*
X41012Y-28141D01*
X40993Y-28133D01*
X40955Y-28124D01*
X40907Y-28124D01*
X40869Y-28133D01*
X40850Y-28141D01*
X40840Y-28150D01*
X40831Y-28167D01*
X41031Y-28398D02*
X41031Y-28295D01*
X41031Y-28347D02*
X40831Y-28347D01*
X40860Y-28330D01*
X40879Y-28312D01*
X40888Y-28295D01*
X52912Y-21664D02*
X52921Y-21655D01*
X52931Y-21629D01*
X52931Y-21612D01*
X52921Y-21587D01*
X52902Y-21569D01*
X52883Y-21561D01*
X52845Y-21552D01*
X52817Y-21552D01*
X52779Y-21561D01*
X52760Y-21569D01*
X52740Y-21587D01*
X52731Y-21612D01*
X52731Y-21629D01*
X52740Y-21655D01*
X52750Y-21664D01*
X52931Y-21835D02*
X52931Y-21732D01*
X52931Y-21784D02*
X52731Y-21784D01*
X52760Y-21767D01*
X52779Y-21749D01*
X52788Y-21732D01*
X52731Y-21895D02*
X52731Y-22015D01*
X52931Y-21938D01*
X52931Y-22177D02*
X52931Y-22074D01*
X52931Y-22126D02*
X52731Y-22126D01*
X52760Y-22109D01*
X52779Y-22091D01*
X52788Y-22074D01*
X52731Y-22331D02*
X52731Y-22297D01*
X52740Y-22280D01*
X52750Y-22271D01*
X52779Y-22254D01*
X52817Y-22245D01*
X52893Y-22245D01*
X52912Y-22254D01*
X52921Y-22262D01*
X52931Y-22280D01*
X52931Y-22314D01*
X52921Y-22331D01*
X52912Y-22340D01*
X52893Y-22348D01*
X52845Y-22348D01*
X52826Y-22340D01*
X52817Y-22331D01*
X52807Y-22314D01*
X52807Y-22280D01*
X52817Y-22262D01*
X52826Y-22254D01*
X52845Y-22245D01*
X53486Y-27362D02*
X53495Y-27371D01*
X53521Y-27381D01*
X53538Y-27381D01*
X53563Y-27371D01*
X53581Y-27352D01*
X53589Y-27333D01*
X53598Y-27295D01*
X53598Y-27267D01*
X53589Y-27229D01*
X53581Y-27210D01*
X53563Y-27190D01*
X53538Y-27181D01*
X53521Y-27181D01*
X53495Y-27190D01*
X53486Y-27200D01*
X53315Y-27381D02*
X53418Y-27381D01*
X53366Y-27381D02*
X53366Y-27181D01*
X53383Y-27210D01*
X53401Y-27229D01*
X53418Y-27238D01*
X53255Y-27181D02*
X53135Y-27181D01*
X53212Y-27381D01*
X52973Y-27381D02*
X53076Y-27381D01*
X53024Y-27381D02*
X53024Y-27181D01*
X53041Y-27210D01*
X53059Y-27229D01*
X53076Y-27238D01*
X52810Y-27181D02*
X52896Y-27181D01*
X52905Y-27276D01*
X52896Y-27267D01*
X52879Y-27257D01*
X52836Y-27257D01*
X52819Y-27267D01*
X52810Y-27276D01*
X52802Y-27295D01*
X52802Y-27343D01*
X52810Y-27362D01*
X52819Y-27371D01*
X52836Y-27381D01*
X52879Y-27381D01*
X52896Y-27371D01*
X52905Y-27362D01*
X49186Y-28662D02*
X49195Y-28671D01*
X49221Y-28681D01*
X49238Y-28681D01*
X49263Y-28671D01*
X49281Y-28652D01*
X49289Y-28633D01*
X49298Y-28595D01*
X49298Y-28567D01*
X49289Y-28529D01*
X49281Y-28510D01*
X49263Y-28490D01*
X49238Y-28481D01*
X49221Y-28481D01*
X49195Y-28490D01*
X49186Y-28500D01*
X49015Y-28681D02*
X49118Y-28681D01*
X49066Y-28681D02*
X49066Y-28481D01*
X49083Y-28510D01*
X49101Y-28529D01*
X49118Y-28538D01*
X48955Y-28481D02*
X48835Y-28481D01*
X48912Y-28681D01*
X48673Y-28681D02*
X48776Y-28681D01*
X48724Y-28681D02*
X48724Y-28481D01*
X48741Y-28510D01*
X48759Y-28529D01*
X48776Y-28538D01*
X48519Y-28548D02*
X48519Y-28681D01*
X48562Y-28471D02*
X48605Y-28614D01*
X48493Y-28614D01*
X46662Y-24014D02*
X46671Y-24005D01*
X46681Y-23979D01*
X46681Y-23962D01*
X46671Y-23937D01*
X46652Y-23919D01*
X46633Y-23911D01*
X46595Y-23902D01*
X46567Y-23902D01*
X46529Y-23911D01*
X46510Y-23919D01*
X46490Y-23937D01*
X46481Y-23962D01*
X46481Y-23979D01*
X46490Y-24005D01*
X46500Y-24014D01*
X46681Y-24185D02*
X46681Y-24082D01*
X46681Y-24134D02*
X46481Y-24134D01*
X46510Y-24117D01*
X46529Y-24099D01*
X46538Y-24082D01*
X46481Y-24245D02*
X46481Y-24365D01*
X46681Y-24288D01*
X46681Y-24527D02*
X46681Y-24424D01*
X46681Y-24476D02*
X46481Y-24476D01*
X46510Y-24459D01*
X46529Y-24441D01*
X46538Y-24424D01*
X46481Y-24587D02*
X46481Y-24698D01*
X46557Y-24638D01*
X46557Y-24664D01*
X46567Y-24681D01*
X46576Y-24690D01*
X46595Y-24698D01*
X46643Y-24698D01*
X46662Y-24690D01*
X46671Y-24681D01*
X46681Y-24664D01*
X46681Y-24612D01*
X46671Y-24595D01*
X46662Y-24587D01*
X48086Y-28662D02*
X48095Y-28671D01*
X48121Y-28681D01*
X48138Y-28681D01*
X48163Y-28671D01*
X48181Y-28652D01*
X48189Y-28633D01*
X48198Y-28595D01*
X48198Y-28567D01*
X48189Y-28529D01*
X48181Y-28510D01*
X48163Y-28490D01*
X48138Y-28481D01*
X48121Y-28481D01*
X48095Y-28490D01*
X48086Y-28500D01*
X47915Y-28681D02*
X48018Y-28681D01*
X47966Y-28681D02*
X47966Y-28481D01*
X47983Y-28510D01*
X48001Y-28529D01*
X48018Y-28538D01*
X47855Y-28481D02*
X47735Y-28481D01*
X47812Y-28681D01*
X47573Y-28681D02*
X47676Y-28681D01*
X47624Y-28681D02*
X47624Y-28481D01*
X47641Y-28510D01*
X47659Y-28529D01*
X47676Y-28538D01*
X47505Y-28500D02*
X47496Y-28490D01*
X47479Y-28481D01*
X47436Y-28481D01*
X47419Y-28490D01*
X47410Y-28500D01*
X47402Y-28519D01*
X47402Y-28538D01*
X47410Y-28567D01*
X47513Y-28681D01*
X47402Y-28681D01*
X48086Y-26962D02*
X48095Y-26971D01*
X48121Y-26981D01*
X48138Y-26981D01*
X48163Y-26971D01*
X48181Y-26952D01*
X48189Y-26933D01*
X48198Y-26895D01*
X48198Y-26867D01*
X48189Y-26829D01*
X48181Y-26810D01*
X48163Y-26790D01*
X48138Y-26781D01*
X48121Y-26781D01*
X48095Y-26790D01*
X48086Y-26800D01*
X47915Y-26981D02*
X48018Y-26981D01*
X47966Y-26981D02*
X47966Y-26781D01*
X47983Y-26810D01*
X48001Y-26829D01*
X48018Y-26838D01*
X47855Y-26781D02*
X47735Y-26781D01*
X47812Y-26981D01*
X47633Y-26781D02*
X47616Y-26781D01*
X47599Y-26790D01*
X47590Y-26800D01*
X47581Y-26819D01*
X47573Y-26857D01*
X47573Y-26905D01*
X47581Y-26943D01*
X47590Y-26962D01*
X47599Y-26971D01*
X47616Y-26981D01*
X47633Y-26981D01*
X47650Y-26971D01*
X47659Y-26962D01*
X47667Y-26943D01*
X47676Y-26905D01*
X47676Y-26857D01*
X47667Y-26819D01*
X47659Y-26800D01*
X47650Y-26790D01*
X47633Y-26781D01*
X47402Y-26981D02*
X47505Y-26981D01*
X47453Y-26981D02*
X47453Y-26781D01*
X47470Y-26810D01*
X47488Y-26829D01*
X47505Y-26838D01*
X52112Y-21664D02*
X52121Y-21655D01*
X52131Y-21629D01*
X52131Y-21612D01*
X52121Y-21587D01*
X52102Y-21569D01*
X52083Y-21561D01*
X52045Y-21552D01*
X52017Y-21552D01*
X51979Y-21561D01*
X51960Y-21569D01*
X51940Y-21587D01*
X51931Y-21612D01*
X51931Y-21629D01*
X51940Y-21655D01*
X51950Y-21664D01*
X52131Y-21835D02*
X52131Y-21732D01*
X52131Y-21784D02*
X51931Y-21784D01*
X51960Y-21767D01*
X51979Y-21749D01*
X51988Y-21732D01*
X51931Y-21895D02*
X51931Y-22015D01*
X52131Y-21938D01*
X51931Y-22117D02*
X51931Y-22134D01*
X51940Y-22151D01*
X51950Y-22160D01*
X51969Y-22169D01*
X52007Y-22177D01*
X52055Y-22177D01*
X52093Y-22169D01*
X52112Y-22160D01*
X52121Y-22151D01*
X52131Y-22134D01*
X52131Y-22117D01*
X52121Y-22100D01*
X52112Y-22091D01*
X52093Y-22083D01*
X52055Y-22074D01*
X52007Y-22074D01*
X51969Y-22083D01*
X51950Y-22091D01*
X51940Y-22100D01*
X51931Y-22117D01*
X51950Y-22245D02*
X51940Y-22254D01*
X51931Y-22271D01*
X51931Y-22314D01*
X51940Y-22331D01*
X51950Y-22340D01*
X51969Y-22348D01*
X51988Y-22348D01*
X52017Y-22340D01*
X52131Y-22237D01*
X52131Y-22348D01*
X47986Y-25762D02*
X47995Y-25771D01*
X48021Y-25781D01*
X48038Y-25781D01*
X48063Y-25771D01*
X48081Y-25752D01*
X48089Y-25733D01*
X48098Y-25695D01*
X48098Y-25667D01*
X48089Y-25629D01*
X48081Y-25610D01*
X48063Y-25590D01*
X48038Y-25581D01*
X48021Y-25581D01*
X47995Y-25590D01*
X47986Y-25600D01*
X47815Y-25781D02*
X47918Y-25781D01*
X47866Y-25781D02*
X47866Y-25581D01*
X47883Y-25610D01*
X47901Y-25629D01*
X47918Y-25638D01*
X47755Y-25581D02*
X47635Y-25581D01*
X47712Y-25781D01*
X47533Y-25581D02*
X47516Y-25581D01*
X47499Y-25590D01*
X47490Y-25600D01*
X47481Y-25619D01*
X47473Y-25657D01*
X47473Y-25705D01*
X47481Y-25743D01*
X47490Y-25762D01*
X47499Y-25771D01*
X47516Y-25781D01*
X47533Y-25781D01*
X47550Y-25771D01*
X47559Y-25762D01*
X47567Y-25743D01*
X47576Y-25705D01*
X47576Y-25657D01*
X47567Y-25619D01*
X47559Y-25600D01*
X47550Y-25590D01*
X47533Y-25581D01*
X47413Y-25581D02*
X47302Y-25581D01*
X47362Y-25657D01*
X47336Y-25657D01*
X47319Y-25667D01*
X47310Y-25676D01*
X47302Y-25695D01*
X47302Y-25743D01*
X47310Y-25762D01*
X47319Y-25771D01*
X47336Y-25781D01*
X47388Y-25781D01*
X47405Y-25771D01*
X47413Y-25762D01*
X50462Y-28214D02*
X50471Y-28205D01*
X50481Y-28179D01*
X50481Y-28162D01*
X50471Y-28137D01*
X50452Y-28119D01*
X50433Y-28111D01*
X50395Y-28102D01*
X50367Y-28102D01*
X50329Y-28111D01*
X50310Y-28119D01*
X50290Y-28137D01*
X50281Y-28162D01*
X50281Y-28179D01*
X50290Y-28205D01*
X50300Y-28214D01*
X50481Y-28385D02*
X50481Y-28282D01*
X50481Y-28334D02*
X50281Y-28334D01*
X50310Y-28317D01*
X50329Y-28299D01*
X50338Y-28282D01*
X50281Y-28445D02*
X50281Y-28565D01*
X50481Y-28488D01*
X50281Y-28667D02*
X50281Y-28684D01*
X50290Y-28701D01*
X50300Y-28710D01*
X50319Y-28719D01*
X50357Y-28727D01*
X50405Y-28727D01*
X50443Y-28719D01*
X50462Y-28710D01*
X50471Y-28701D01*
X50481Y-28684D01*
X50481Y-28667D01*
X50471Y-28650D01*
X50462Y-28641D01*
X50443Y-28633D01*
X50405Y-28624D01*
X50357Y-28624D01*
X50319Y-28633D01*
X50300Y-28641D01*
X50290Y-28650D01*
X50281Y-28667D01*
X50348Y-28881D02*
X50481Y-28881D01*
X50271Y-28838D02*
X50414Y-28795D01*
X50414Y-28907D01*
X48512Y-22564D02*
X48521Y-22555D01*
X48531Y-22529D01*
X48531Y-22512D01*
X48521Y-22487D01*
X48502Y-22469D01*
X48483Y-22461D01*
X48445Y-22452D01*
X48417Y-22452D01*
X48379Y-22461D01*
X48360Y-22469D01*
X48340Y-22487D01*
X48331Y-22512D01*
X48331Y-22529D01*
X48340Y-22555D01*
X48350Y-22564D01*
X48531Y-22735D02*
X48531Y-22632D01*
X48531Y-22684D02*
X48331Y-22684D01*
X48360Y-22667D01*
X48379Y-22649D01*
X48388Y-22632D01*
X48331Y-22795D02*
X48331Y-22915D01*
X48531Y-22838D01*
X48331Y-23017D02*
X48331Y-23034D01*
X48340Y-23051D01*
X48350Y-23060D01*
X48369Y-23069D01*
X48407Y-23077D01*
X48455Y-23077D01*
X48493Y-23069D01*
X48512Y-23060D01*
X48521Y-23051D01*
X48531Y-23034D01*
X48531Y-23017D01*
X48521Y-23000D01*
X48512Y-22991D01*
X48493Y-22983D01*
X48455Y-22974D01*
X48407Y-22974D01*
X48369Y-22983D01*
X48350Y-22991D01*
X48340Y-23000D01*
X48331Y-23017D01*
X48331Y-23240D02*
X48331Y-23154D01*
X48426Y-23145D01*
X48417Y-23154D01*
X48407Y-23171D01*
X48407Y-23214D01*
X48417Y-23231D01*
X48426Y-23240D01*
X48445Y-23248D01*
X48493Y-23248D01*
X48512Y-23240D01*
X48521Y-23231D01*
X48531Y-23214D01*
X48531Y-23171D01*
X48521Y-23154D01*
X48512Y-23145D01*
X52562Y-28714D02*
X52571Y-28705D01*
X52581Y-28679D01*
X52581Y-28662D01*
X52571Y-28637D01*
X52552Y-28619D01*
X52533Y-28611D01*
X52495Y-28602D01*
X52467Y-28602D01*
X52429Y-28611D01*
X52410Y-28619D01*
X52390Y-28637D01*
X52381Y-28662D01*
X52381Y-28679D01*
X52390Y-28705D01*
X52400Y-28714D01*
X52581Y-28885D02*
X52581Y-28782D01*
X52581Y-28834D02*
X52381Y-28834D01*
X52410Y-28817D01*
X52429Y-28799D01*
X52438Y-28782D01*
X52381Y-28945D02*
X52381Y-29065D01*
X52581Y-28988D01*
X52381Y-29167D02*
X52381Y-29184D01*
X52390Y-29201D01*
X52400Y-29210D01*
X52419Y-29219D01*
X52457Y-29227D01*
X52505Y-29227D01*
X52543Y-29219D01*
X52562Y-29210D01*
X52571Y-29201D01*
X52581Y-29184D01*
X52581Y-29167D01*
X52571Y-29150D01*
X52562Y-29141D01*
X52543Y-29133D01*
X52505Y-29124D01*
X52457Y-29124D01*
X52419Y-29133D01*
X52400Y-29141D01*
X52390Y-29150D01*
X52381Y-29167D01*
X52381Y-29381D02*
X52381Y-29347D01*
X52390Y-29330D01*
X52400Y-29321D01*
X52429Y-29304D01*
X52467Y-29295D01*
X52543Y-29295D01*
X52562Y-29304D01*
X52571Y-29312D01*
X52581Y-29330D01*
X52581Y-29364D01*
X52571Y-29381D01*
X52562Y-29390D01*
X52543Y-29398D01*
X52495Y-29398D01*
X52476Y-29390D01*
X52467Y-29381D01*
X52457Y-29364D01*
X52457Y-29330D01*
X52467Y-29312D01*
X52476Y-29304D01*
X52495Y-29295D01*
X54186Y-29062D02*
X54195Y-29071D01*
X54221Y-29081D01*
X54238Y-29081D01*
X54263Y-29071D01*
X54281Y-29052D01*
X54289Y-29033D01*
X54298Y-28995D01*
X54298Y-28967D01*
X54289Y-28929D01*
X54281Y-28910D01*
X54263Y-28890D01*
X54238Y-28881D01*
X54221Y-28881D01*
X54195Y-28890D01*
X54186Y-28900D01*
X54015Y-29081D02*
X54118Y-29081D01*
X54066Y-29081D02*
X54066Y-28881D01*
X54083Y-28910D01*
X54101Y-28929D01*
X54118Y-28938D01*
X53955Y-28881D02*
X53835Y-28881D01*
X53912Y-29081D01*
X53733Y-28881D02*
X53716Y-28881D01*
X53699Y-28890D01*
X53690Y-28900D01*
X53681Y-28919D01*
X53673Y-28957D01*
X53673Y-29005D01*
X53681Y-29043D01*
X53690Y-29062D01*
X53699Y-29071D01*
X53716Y-29081D01*
X53733Y-29081D01*
X53750Y-29071D01*
X53759Y-29062D01*
X53767Y-29043D01*
X53776Y-29005D01*
X53776Y-28957D01*
X53767Y-28919D01*
X53759Y-28900D01*
X53750Y-28890D01*
X53733Y-28881D01*
X53613Y-28881D02*
X53493Y-28881D01*
X53570Y-29081D01*
X53562Y-24564D02*
X53571Y-24555D01*
X53581Y-24529D01*
X53581Y-24512D01*
X53571Y-24487D01*
X53552Y-24469D01*
X53533Y-24461D01*
X53495Y-24452D01*
X53467Y-24452D01*
X53429Y-24461D01*
X53410Y-24469D01*
X53390Y-24487D01*
X53381Y-24512D01*
X53381Y-24529D01*
X53390Y-24555D01*
X53400Y-24564D01*
X53581Y-24735D02*
X53581Y-24632D01*
X53581Y-24684D02*
X53381Y-24684D01*
X53410Y-24667D01*
X53429Y-24649D01*
X53438Y-24632D01*
X53381Y-24795D02*
X53381Y-24915D01*
X53581Y-24838D01*
X53381Y-25017D02*
X53381Y-25034D01*
X53390Y-25051D01*
X53400Y-25060D01*
X53419Y-25069D01*
X53457Y-25077D01*
X53505Y-25077D01*
X53543Y-25069D01*
X53562Y-25060D01*
X53571Y-25051D01*
X53581Y-25034D01*
X53581Y-25017D01*
X53571Y-25000D01*
X53562Y-24991D01*
X53543Y-24983D01*
X53505Y-24974D01*
X53457Y-24974D01*
X53419Y-24983D01*
X53400Y-24991D01*
X53390Y-25000D01*
X53381Y-25017D01*
X53467Y-25180D02*
X53457Y-25162D01*
X53448Y-25154D01*
X53429Y-25145D01*
X53419Y-25145D01*
X53400Y-25154D01*
X53390Y-25162D01*
X53381Y-25180D01*
X53381Y-25214D01*
X53390Y-25231D01*
X53400Y-25240D01*
X53419Y-25248D01*
X53429Y-25248D01*
X53448Y-25240D01*
X53457Y-25231D01*
X53467Y-25214D01*
X53467Y-25180D01*
X53476Y-25162D01*
X53486Y-25154D01*
X53505Y-25145D01*
X53543Y-25145D01*
X53562Y-25154D01*
X53571Y-25162D01*
X53581Y-25180D01*
X53581Y-25214D01*
X53571Y-25231D01*
X53562Y-25240D01*
X53543Y-25248D01*
X53505Y-25248D01*
X53486Y-25240D01*
X53476Y-25231D01*
X53467Y-25214D01*
X50312Y-22614D02*
X50321Y-22605D01*
X50331Y-22579D01*
X50331Y-22562D01*
X50321Y-22537D01*
X50302Y-22519D01*
X50283Y-22511D01*
X50245Y-22502D01*
X50217Y-22502D01*
X50179Y-22511D01*
X50160Y-22519D01*
X50140Y-22537D01*
X50131Y-22562D01*
X50131Y-22579D01*
X50140Y-22605D01*
X50150Y-22614D01*
X50331Y-22785D02*
X50331Y-22682D01*
X50331Y-22734D02*
X50131Y-22734D01*
X50160Y-22717D01*
X50179Y-22699D01*
X50188Y-22682D01*
X50131Y-22845D02*
X50131Y-22965D01*
X50331Y-22888D01*
X50131Y-23067D02*
X50131Y-23084D01*
X50140Y-23101D01*
X50150Y-23110D01*
X50169Y-23119D01*
X50207Y-23127D01*
X50255Y-23127D01*
X50293Y-23119D01*
X50312Y-23110D01*
X50321Y-23101D01*
X50331Y-23084D01*
X50331Y-23067D01*
X50321Y-23050D01*
X50312Y-23041D01*
X50293Y-23033D01*
X50255Y-23024D01*
X50207Y-23024D01*
X50169Y-23033D01*
X50150Y-23041D01*
X50140Y-23050D01*
X50131Y-23067D01*
X50331Y-23212D02*
X50331Y-23247D01*
X50321Y-23264D01*
X50312Y-23272D01*
X50283Y-23290D01*
X50245Y-23298D01*
X50169Y-23298D01*
X50150Y-23290D01*
X50140Y-23281D01*
X50131Y-23264D01*
X50131Y-23230D01*
X50140Y-23212D01*
X50150Y-23204D01*
X50169Y-23195D01*
X50217Y-23195D01*
X50236Y-23204D01*
X50245Y-23212D01*
X50255Y-23230D01*
X50255Y-23264D01*
X50245Y-23281D01*
X50236Y-23290D01*
X50217Y-23298D01*
X54186Y-23062D02*
X54195Y-23071D01*
X54221Y-23081D01*
X54238Y-23081D01*
X54263Y-23071D01*
X54281Y-23052D01*
X54289Y-23033D01*
X54298Y-22995D01*
X54298Y-22967D01*
X54289Y-22929D01*
X54281Y-22910D01*
X54263Y-22890D01*
X54238Y-22881D01*
X54221Y-22881D01*
X54195Y-22890D01*
X54186Y-22900D01*
X54015Y-23081D02*
X54118Y-23081D01*
X54066Y-23081D02*
X54066Y-22881D01*
X54083Y-22910D01*
X54101Y-22929D01*
X54118Y-22938D01*
X53955Y-22881D02*
X53835Y-22881D01*
X53912Y-23081D01*
X53673Y-23081D02*
X53776Y-23081D01*
X53724Y-23081D02*
X53724Y-22881D01*
X53741Y-22910D01*
X53759Y-22929D01*
X53776Y-22938D01*
X53562Y-22881D02*
X53545Y-22881D01*
X53528Y-22890D01*
X53519Y-22900D01*
X53510Y-22919D01*
X53502Y-22957D01*
X53502Y-23005D01*
X53510Y-23043D01*
X53519Y-23062D01*
X53528Y-23071D01*
X53545Y-23081D01*
X53562Y-23081D01*
X53579Y-23071D01*
X53588Y-23062D01*
X53596Y-23043D01*
X53605Y-23005D01*
X53605Y-22957D01*
X53596Y-22919D01*
X53588Y-22900D01*
X53579Y-22890D01*
X53562Y-22881D01*
X51662Y-27914D02*
X51671Y-27905D01*
X51681Y-27879D01*
X51681Y-27862D01*
X51671Y-27837D01*
X51652Y-27819D01*
X51633Y-27811D01*
X51595Y-27802D01*
X51567Y-27802D01*
X51529Y-27811D01*
X51510Y-27819D01*
X51490Y-27837D01*
X51481Y-27862D01*
X51481Y-27879D01*
X51490Y-27905D01*
X51500Y-27914D01*
X51681Y-28085D02*
X51681Y-27982D01*
X51681Y-28034D02*
X51481Y-28034D01*
X51510Y-28017D01*
X51529Y-27999D01*
X51538Y-27982D01*
X51481Y-28145D02*
X51481Y-28265D01*
X51681Y-28188D01*
X51681Y-28427D02*
X51681Y-28324D01*
X51681Y-28376D02*
X51481Y-28376D01*
X51510Y-28359D01*
X51529Y-28341D01*
X51538Y-28324D01*
X51681Y-28598D02*
X51681Y-28495D01*
X51681Y-28547D02*
X51481Y-28547D01*
X51510Y-28530D01*
X51529Y-28512D01*
X51538Y-28495D01*
G54D14*
X68399Y-30677D02*
X68411Y-30689D01*
X68446Y-30701D01*
X68470Y-30701D01*
X68506Y-30689D01*
X68530Y-30665D01*
X68541Y-30642D01*
X68553Y-30594D01*
X68553Y-30558D01*
X68541Y-30511D01*
X68530Y-30487D01*
X68506Y-30463D01*
X68470Y-30451D01*
X68446Y-30451D01*
X68411Y-30463D01*
X68399Y-30475D01*
X68161Y-30701D02*
X68303Y-30701D01*
X68232Y-30701D02*
X68232Y-30451D01*
X68256Y-30487D01*
X68280Y-30511D01*
X68303Y-30523D01*
X67946Y-30451D02*
X67994Y-30451D01*
X68018Y-30463D01*
X68030Y-30475D01*
X68053Y-30511D01*
X68065Y-30558D01*
X68065Y-30654D01*
X68053Y-30677D01*
X68042Y-30689D01*
X68018Y-30701D01*
X67970Y-30701D01*
X67946Y-30689D01*
X67934Y-30677D01*
X67923Y-30654D01*
X67923Y-30594D01*
X67934Y-30570D01*
X67946Y-30558D01*
X67970Y-30546D01*
X68018Y-30546D01*
X68042Y-30558D01*
X68053Y-30570D01*
X68065Y-30594D01*
X67768Y-30451D02*
X67744Y-30451D01*
X67720Y-30463D01*
X67708Y-30475D01*
X67696Y-30499D01*
X67685Y-30546D01*
X67685Y-30606D01*
X67696Y-30654D01*
X67708Y-30677D01*
X67720Y-30689D01*
X67744Y-30701D01*
X67768Y-30701D01*
X67792Y-30689D01*
X67804Y-30677D01*
X67815Y-30654D01*
X67827Y-30606D01*
X67827Y-30546D01*
X67815Y-30499D01*
X67804Y-30475D01*
X67792Y-30463D01*
X67768Y-30451D01*
X67458Y-30451D02*
X67577Y-30451D01*
X67589Y-30570D01*
X67577Y-30558D01*
X67554Y-30546D01*
X67494Y-30546D01*
X67470Y-30558D01*
X67458Y-30570D01*
X67447Y-30594D01*
X67447Y-30654D01*
X67458Y-30677D01*
X67470Y-30689D01*
X67494Y-30701D01*
X67554Y-30701D01*
X67577Y-30689D01*
X67589Y-30677D01*
X69177Y-22701D02*
X69189Y-22689D01*
X69201Y-22654D01*
X69201Y-22630D01*
X69189Y-22594D01*
X69165Y-22570D01*
X69142Y-22559D01*
X69094Y-22547D01*
X69058Y-22547D01*
X69011Y-22559D01*
X68987Y-22570D01*
X68963Y-22594D01*
X68951Y-22630D01*
X68951Y-22654D01*
X68963Y-22689D01*
X68975Y-22701D01*
X69201Y-22939D02*
X69201Y-22797D01*
X69201Y-22868D02*
X68951Y-22868D01*
X68987Y-22844D01*
X69011Y-22820D01*
X69023Y-22797D01*
X68951Y-23154D02*
X68951Y-23106D01*
X68963Y-23082D01*
X68975Y-23070D01*
X69011Y-23047D01*
X69058Y-23035D01*
X69154Y-23035D01*
X69177Y-23047D01*
X69189Y-23058D01*
X69201Y-23082D01*
X69201Y-23130D01*
X69189Y-23154D01*
X69177Y-23166D01*
X69154Y-23177D01*
X69094Y-23177D01*
X69070Y-23166D01*
X69058Y-23154D01*
X69046Y-23130D01*
X69046Y-23082D01*
X69058Y-23058D01*
X69070Y-23047D01*
X69094Y-23035D01*
X68951Y-23332D02*
X68951Y-23356D01*
X68963Y-23380D01*
X68975Y-23392D01*
X68999Y-23404D01*
X69046Y-23415D01*
X69106Y-23415D01*
X69154Y-23404D01*
X69177Y-23392D01*
X69189Y-23380D01*
X69201Y-23356D01*
X69201Y-23332D01*
X69189Y-23308D01*
X69177Y-23296D01*
X69154Y-23285D01*
X69106Y-23273D01*
X69046Y-23273D01*
X68999Y-23285D01*
X68975Y-23296D01*
X68963Y-23308D01*
X68951Y-23332D01*
X69035Y-23630D02*
X69201Y-23630D01*
X68939Y-23570D02*
X69118Y-23511D01*
X69118Y-23665D01*
X67799Y-22477D02*
X67811Y-22489D01*
X67846Y-22501D01*
X67870Y-22501D01*
X67906Y-22489D01*
X67930Y-22465D01*
X67941Y-22442D01*
X67953Y-22394D01*
X67953Y-22358D01*
X67941Y-22311D01*
X67930Y-22287D01*
X67906Y-22263D01*
X67870Y-22251D01*
X67846Y-22251D01*
X67811Y-22263D01*
X67799Y-22275D01*
X67561Y-22501D02*
X67703Y-22501D01*
X67632Y-22501D02*
X67632Y-22251D01*
X67656Y-22287D01*
X67680Y-22311D01*
X67703Y-22323D01*
X67346Y-22251D02*
X67394Y-22251D01*
X67418Y-22263D01*
X67430Y-22275D01*
X67453Y-22311D01*
X67465Y-22358D01*
X67465Y-22454D01*
X67453Y-22477D01*
X67442Y-22489D01*
X67418Y-22501D01*
X67370Y-22501D01*
X67346Y-22489D01*
X67334Y-22477D01*
X67323Y-22454D01*
X67323Y-22394D01*
X67334Y-22370D01*
X67346Y-22358D01*
X67370Y-22346D01*
X67418Y-22346D01*
X67442Y-22358D01*
X67453Y-22370D01*
X67465Y-22394D01*
X67168Y-22251D02*
X67144Y-22251D01*
X67120Y-22263D01*
X67108Y-22275D01*
X67096Y-22299D01*
X67085Y-22346D01*
X67085Y-22406D01*
X67096Y-22454D01*
X67108Y-22477D01*
X67120Y-22489D01*
X67144Y-22501D01*
X67168Y-22501D01*
X67192Y-22489D01*
X67204Y-22477D01*
X67215Y-22454D01*
X67227Y-22406D01*
X67227Y-22346D01*
X67215Y-22299D01*
X67204Y-22275D01*
X67192Y-22263D01*
X67168Y-22251D01*
X67001Y-22251D02*
X66847Y-22251D01*
X66930Y-22346D01*
X66894Y-22346D01*
X66870Y-22358D01*
X66858Y-22370D01*
X66847Y-22394D01*
X66847Y-22454D01*
X66858Y-22477D01*
X66870Y-22489D01*
X66894Y-22501D01*
X66966Y-22501D01*
X66989Y-22489D01*
X67001Y-22477D01*
X69499Y-29677D02*
X69511Y-29689D01*
X69546Y-29701D01*
X69570Y-29701D01*
X69606Y-29689D01*
X69630Y-29665D01*
X69641Y-29642D01*
X69653Y-29594D01*
X69653Y-29558D01*
X69641Y-29511D01*
X69630Y-29487D01*
X69606Y-29463D01*
X69570Y-29451D01*
X69546Y-29451D01*
X69511Y-29463D01*
X69499Y-29475D01*
X69261Y-29701D02*
X69403Y-29701D01*
X69332Y-29701D02*
X69332Y-29451D01*
X69356Y-29487D01*
X69380Y-29511D01*
X69403Y-29523D01*
X69046Y-29451D02*
X69094Y-29451D01*
X69118Y-29463D01*
X69130Y-29475D01*
X69153Y-29511D01*
X69165Y-29558D01*
X69165Y-29654D01*
X69153Y-29677D01*
X69142Y-29689D01*
X69118Y-29701D01*
X69070Y-29701D01*
X69046Y-29689D01*
X69034Y-29677D01*
X69023Y-29654D01*
X69023Y-29594D01*
X69034Y-29570D01*
X69046Y-29558D01*
X69070Y-29546D01*
X69118Y-29546D01*
X69142Y-29558D01*
X69153Y-29570D01*
X69165Y-29594D01*
X68868Y-29451D02*
X68844Y-29451D01*
X68820Y-29463D01*
X68808Y-29475D01*
X68796Y-29499D01*
X68785Y-29546D01*
X68785Y-29606D01*
X68796Y-29654D01*
X68808Y-29677D01*
X68820Y-29689D01*
X68844Y-29701D01*
X68868Y-29701D01*
X68892Y-29689D01*
X68904Y-29677D01*
X68915Y-29654D01*
X68927Y-29606D01*
X68927Y-29546D01*
X68915Y-29499D01*
X68904Y-29475D01*
X68892Y-29463D01*
X68868Y-29451D01*
X68689Y-29475D02*
X68677Y-29463D01*
X68654Y-29451D01*
X68594Y-29451D01*
X68570Y-29463D01*
X68558Y-29475D01*
X68547Y-29499D01*
X68547Y-29523D01*
X68558Y-29558D01*
X68701Y-29701D01*
X68547Y-29701D01*
G54D16*
X64511Y-25213D02*
X64520Y-25204D01*
X64530Y-25178D01*
X64530Y-25161D01*
X64520Y-25136D01*
X64501Y-25118D01*
X64482Y-25110D01*
X64444Y-25101D01*
X64416Y-25101D01*
X64378Y-25110D01*
X64359Y-25118D01*
X64339Y-25136D01*
X64330Y-25161D01*
X64330Y-25178D01*
X64339Y-25204D01*
X64349Y-25213D01*
X64530Y-25298D02*
X64530Y-25333D01*
X64520Y-25350D01*
X64511Y-25358D01*
X64482Y-25376D01*
X64444Y-25384D01*
X64368Y-25384D01*
X64349Y-25376D01*
X64339Y-25367D01*
X64330Y-25350D01*
X64330Y-25316D01*
X64339Y-25298D01*
X64349Y-25290D01*
X64368Y-25281D01*
X64416Y-25281D01*
X64435Y-25290D01*
X64444Y-25298D01*
X64454Y-25316D01*
X64454Y-25350D01*
X64444Y-25367D01*
X64435Y-25376D01*
X64416Y-25384D01*
X64330Y-25495D02*
X64330Y-25512D01*
X64339Y-25529D01*
X64349Y-25538D01*
X64368Y-25547D01*
X64406Y-25555D01*
X64454Y-25555D01*
X64492Y-25547D01*
X64511Y-25538D01*
X64520Y-25529D01*
X64530Y-25512D01*
X64530Y-25495D01*
X64520Y-25478D01*
X64511Y-25469D01*
X64492Y-25461D01*
X64454Y-25452D01*
X64406Y-25452D01*
X64368Y-25461D01*
X64349Y-25469D01*
X64339Y-25478D01*
X64330Y-25495D01*
X64330Y-25615D02*
X64330Y-25735D01*
X64530Y-25658D01*
X63625Y-25223D02*
X63634Y-25214D01*
X63644Y-25188D01*
X63644Y-25171D01*
X63634Y-25146D01*
X63615Y-25128D01*
X63596Y-25120D01*
X63558Y-25111D01*
X63530Y-25111D01*
X63492Y-25120D01*
X63473Y-25128D01*
X63453Y-25146D01*
X63444Y-25171D01*
X63444Y-25188D01*
X63453Y-25214D01*
X63463Y-25223D01*
X63644Y-25308D02*
X63644Y-25343D01*
X63634Y-25360D01*
X63625Y-25368D01*
X63596Y-25386D01*
X63558Y-25394D01*
X63482Y-25394D01*
X63463Y-25386D01*
X63453Y-25377D01*
X63444Y-25360D01*
X63444Y-25326D01*
X63453Y-25308D01*
X63463Y-25300D01*
X63482Y-25291D01*
X63530Y-25291D01*
X63549Y-25300D01*
X63558Y-25308D01*
X63568Y-25326D01*
X63568Y-25360D01*
X63558Y-25377D01*
X63549Y-25386D01*
X63530Y-25394D01*
X63444Y-25505D02*
X63444Y-25522D01*
X63453Y-25539D01*
X63463Y-25548D01*
X63482Y-25557D01*
X63520Y-25565D01*
X63568Y-25565D01*
X63606Y-25557D01*
X63625Y-25548D01*
X63634Y-25539D01*
X63644Y-25522D01*
X63644Y-25505D01*
X63634Y-25488D01*
X63625Y-25479D01*
X63606Y-25471D01*
X63568Y-25462D01*
X63520Y-25462D01*
X63482Y-25471D01*
X63463Y-25479D01*
X63453Y-25488D01*
X63444Y-25505D01*
X63444Y-25719D02*
X63444Y-25685D01*
X63453Y-25668D01*
X63463Y-25659D01*
X63492Y-25642D01*
X63530Y-25633D01*
X63606Y-25633D01*
X63625Y-25642D01*
X63634Y-25650D01*
X63644Y-25668D01*
X63644Y-25702D01*
X63634Y-25719D01*
X63625Y-25728D01*
X63606Y-25736D01*
X63558Y-25736D01*
X63539Y-25728D01*
X63530Y-25719D01*
X63520Y-25702D01*
X63520Y-25668D01*
X63530Y-25650D01*
X63539Y-25642D01*
X63558Y-25633D01*
X69462Y-26200D02*
X69471Y-26191D01*
X69481Y-26165D01*
X69481Y-26148D01*
X69471Y-26123D01*
X69452Y-26105D01*
X69433Y-26097D01*
X69395Y-26088D01*
X69367Y-26088D01*
X69329Y-26097D01*
X69310Y-26105D01*
X69290Y-26123D01*
X69281Y-26148D01*
X69281Y-26165D01*
X69290Y-26191D01*
X69300Y-26200D01*
X69481Y-26285D02*
X69481Y-26320D01*
X69471Y-26337D01*
X69462Y-26345D01*
X69433Y-26363D01*
X69395Y-26371D01*
X69319Y-26371D01*
X69300Y-26363D01*
X69290Y-26354D01*
X69281Y-26337D01*
X69281Y-26303D01*
X69290Y-26285D01*
X69300Y-26277D01*
X69319Y-26268D01*
X69367Y-26268D01*
X69386Y-26277D01*
X69395Y-26285D01*
X69405Y-26303D01*
X69405Y-26337D01*
X69395Y-26354D01*
X69386Y-26363D01*
X69367Y-26371D01*
X69281Y-26482D02*
X69281Y-26499D01*
X69290Y-26516D01*
X69300Y-26525D01*
X69319Y-26534D01*
X69357Y-26542D01*
X69405Y-26542D01*
X69443Y-26534D01*
X69462Y-26525D01*
X69471Y-26516D01*
X69481Y-26499D01*
X69481Y-26482D01*
X69471Y-26465D01*
X69462Y-26456D01*
X69443Y-26448D01*
X69405Y-26439D01*
X69357Y-26439D01*
X69319Y-26448D01*
X69300Y-26456D01*
X69290Y-26465D01*
X69281Y-26482D01*
X69348Y-26696D02*
X69481Y-26696D01*
X69271Y-26653D02*
X69414Y-26610D01*
X69414Y-26722D01*
X61862Y-26500D02*
X61871Y-26491D01*
X61881Y-26465D01*
X61881Y-26448D01*
X61871Y-26423D01*
X61852Y-26405D01*
X61833Y-26397D01*
X61795Y-26388D01*
X61767Y-26388D01*
X61729Y-26397D01*
X61710Y-26405D01*
X61690Y-26423D01*
X61681Y-26448D01*
X61681Y-26465D01*
X61690Y-26491D01*
X61700Y-26500D01*
X61681Y-26560D02*
X61681Y-26671D01*
X61757Y-26611D01*
X61757Y-26637D01*
X61767Y-26654D01*
X61776Y-26663D01*
X61795Y-26671D01*
X61843Y-26671D01*
X61862Y-26663D01*
X61871Y-26654D01*
X61881Y-26637D01*
X61881Y-26585D01*
X61871Y-26568D01*
X61862Y-26560D01*
X61681Y-26782D02*
X61681Y-26799D01*
X61690Y-26816D01*
X61700Y-26825D01*
X61719Y-26834D01*
X61757Y-26842D01*
X61805Y-26842D01*
X61843Y-26834D01*
X61862Y-26825D01*
X61871Y-26816D01*
X61881Y-26799D01*
X61881Y-26782D01*
X61871Y-26765D01*
X61862Y-26756D01*
X61843Y-26748D01*
X61805Y-26739D01*
X61757Y-26739D01*
X61719Y-26748D01*
X61700Y-26756D01*
X61690Y-26765D01*
X61681Y-26782D01*
X61681Y-26996D02*
X61681Y-26962D01*
X61690Y-26945D01*
X61700Y-26936D01*
X61729Y-26919D01*
X61767Y-26910D01*
X61843Y-26910D01*
X61862Y-26919D01*
X61871Y-26927D01*
X61881Y-26945D01*
X61881Y-26979D01*
X61871Y-26996D01*
X61862Y-27005D01*
X61843Y-27013D01*
X61795Y-27013D01*
X61776Y-27005D01*
X61767Y-26996D01*
X61757Y-26979D01*
X61757Y-26945D01*
X61767Y-26927D01*
X61776Y-26919D01*
X61795Y-26910D01*
X64700Y-28662D02*
X64709Y-28671D01*
X64735Y-28681D01*
X64752Y-28681D01*
X64777Y-28671D01*
X64795Y-28652D01*
X64803Y-28633D01*
X64812Y-28595D01*
X64812Y-28567D01*
X64803Y-28529D01*
X64795Y-28510D01*
X64777Y-28490D01*
X64752Y-28481D01*
X64735Y-28481D01*
X64709Y-28490D01*
X64700Y-28500D01*
X64640Y-28481D02*
X64529Y-28481D01*
X64589Y-28557D01*
X64563Y-28557D01*
X64546Y-28567D01*
X64537Y-28576D01*
X64529Y-28595D01*
X64529Y-28643D01*
X64537Y-28662D01*
X64546Y-28671D01*
X64563Y-28681D01*
X64615Y-28681D01*
X64632Y-28671D01*
X64640Y-28662D01*
X64418Y-28481D02*
X64401Y-28481D01*
X64384Y-28490D01*
X64375Y-28500D01*
X64366Y-28519D01*
X64358Y-28557D01*
X64358Y-28605D01*
X64366Y-28643D01*
X64375Y-28662D01*
X64384Y-28671D01*
X64401Y-28681D01*
X64418Y-28681D01*
X64435Y-28671D01*
X64444Y-28662D01*
X64452Y-28643D01*
X64461Y-28605D01*
X64461Y-28557D01*
X64452Y-28519D01*
X64444Y-28500D01*
X64435Y-28490D01*
X64418Y-28481D01*
X64195Y-28481D02*
X64281Y-28481D01*
X64290Y-28576D01*
X64281Y-28567D01*
X64264Y-28557D01*
X64221Y-28557D01*
X64204Y-28567D01*
X64195Y-28576D01*
X64187Y-28595D01*
X64187Y-28643D01*
X64195Y-28662D01*
X64204Y-28671D01*
X64221Y-28681D01*
X64264Y-28681D01*
X64281Y-28671D01*
X64290Y-28662D01*
X64775Y-23937D02*
X64784Y-23946D01*
X64810Y-23956D01*
X64827Y-23956D01*
X64852Y-23946D01*
X64870Y-23927D01*
X64878Y-23908D01*
X64887Y-23870D01*
X64887Y-23842D01*
X64878Y-23804D01*
X64870Y-23785D01*
X64852Y-23765D01*
X64827Y-23756D01*
X64810Y-23756D01*
X64784Y-23765D01*
X64775Y-23775D01*
X64715Y-23756D02*
X64604Y-23756D01*
X64664Y-23832D01*
X64638Y-23832D01*
X64621Y-23842D01*
X64612Y-23851D01*
X64604Y-23870D01*
X64604Y-23918D01*
X64612Y-23937D01*
X64621Y-23946D01*
X64638Y-23956D01*
X64690Y-23956D01*
X64707Y-23946D01*
X64715Y-23937D01*
X64493Y-23756D02*
X64476Y-23756D01*
X64459Y-23765D01*
X64450Y-23775D01*
X64441Y-23794D01*
X64433Y-23832D01*
X64433Y-23880D01*
X64441Y-23918D01*
X64450Y-23937D01*
X64459Y-23946D01*
X64476Y-23956D01*
X64493Y-23956D01*
X64510Y-23946D01*
X64519Y-23937D01*
X64527Y-23918D01*
X64536Y-23880D01*
X64536Y-23832D01*
X64527Y-23794D01*
X64519Y-23775D01*
X64510Y-23765D01*
X64493Y-23756D01*
X64373Y-23756D02*
X64262Y-23756D01*
X64322Y-23832D01*
X64296Y-23832D01*
X64279Y-23842D01*
X64270Y-23851D01*
X64262Y-23870D01*
X64262Y-23918D01*
X64270Y-23937D01*
X64279Y-23946D01*
X64296Y-23956D01*
X64348Y-23956D01*
X64365Y-23946D01*
X64373Y-23937D01*
X62600Y-28062D02*
X62609Y-28071D01*
X62635Y-28081D01*
X62652Y-28081D01*
X62677Y-28071D01*
X62695Y-28052D01*
X62703Y-28033D01*
X62712Y-27995D01*
X62712Y-27967D01*
X62703Y-27929D01*
X62695Y-27910D01*
X62677Y-27890D01*
X62652Y-27881D01*
X62635Y-27881D01*
X62609Y-27890D01*
X62600Y-27900D01*
X62540Y-27881D02*
X62429Y-27881D01*
X62489Y-27957D01*
X62463Y-27957D01*
X62446Y-27967D01*
X62437Y-27976D01*
X62429Y-27995D01*
X62429Y-28043D01*
X62437Y-28062D01*
X62446Y-28071D01*
X62463Y-28081D01*
X62515Y-28081D01*
X62532Y-28071D01*
X62540Y-28062D01*
X62318Y-27881D02*
X62301Y-27881D01*
X62284Y-27890D01*
X62275Y-27900D01*
X62266Y-27919D01*
X62258Y-27957D01*
X62258Y-28005D01*
X62266Y-28043D01*
X62275Y-28062D01*
X62284Y-28071D01*
X62301Y-28081D01*
X62318Y-28081D01*
X62335Y-28071D01*
X62344Y-28062D01*
X62352Y-28043D01*
X62361Y-28005D01*
X62361Y-27957D01*
X62352Y-27919D01*
X62344Y-27900D01*
X62335Y-27890D01*
X62318Y-27881D01*
X62190Y-27900D02*
X62181Y-27890D01*
X62164Y-27881D01*
X62121Y-27881D01*
X62104Y-27890D01*
X62095Y-27900D01*
X62087Y-27919D01*
X62087Y-27938D01*
X62095Y-27967D01*
X62198Y-28081D01*
X62087Y-28081D01*
X61300Y-28062D02*
X61309Y-28071D01*
X61335Y-28081D01*
X61352Y-28081D01*
X61377Y-28071D01*
X61395Y-28052D01*
X61403Y-28033D01*
X61412Y-27995D01*
X61412Y-27967D01*
X61403Y-27929D01*
X61395Y-27910D01*
X61377Y-27890D01*
X61352Y-27881D01*
X61335Y-27881D01*
X61309Y-27890D01*
X61300Y-27900D01*
X61240Y-27881D02*
X61129Y-27881D01*
X61189Y-27957D01*
X61163Y-27957D01*
X61146Y-27967D01*
X61137Y-27976D01*
X61129Y-27995D01*
X61129Y-28043D01*
X61137Y-28062D01*
X61146Y-28071D01*
X61163Y-28081D01*
X61215Y-28081D01*
X61232Y-28071D01*
X61240Y-28062D01*
X61018Y-27881D02*
X61001Y-27881D01*
X60984Y-27890D01*
X60975Y-27900D01*
X60966Y-27919D01*
X60958Y-27957D01*
X60958Y-28005D01*
X60966Y-28043D01*
X60975Y-28062D01*
X60984Y-28071D01*
X61001Y-28081D01*
X61018Y-28081D01*
X61035Y-28071D01*
X61044Y-28062D01*
X61052Y-28043D01*
X61061Y-28005D01*
X61061Y-27957D01*
X61052Y-27919D01*
X61044Y-27900D01*
X61035Y-27890D01*
X61018Y-27881D01*
X60787Y-28081D02*
X60890Y-28081D01*
X60838Y-28081D02*
X60838Y-27881D01*
X60855Y-27910D01*
X60873Y-27929D01*
X60890Y-27938D01*
G54D17*
X52493Y-24459D02*
X52493Y-24536D01*
X52521Y-24574D01*
X52579Y-24612D01*
X52693Y-24631D01*
X52893Y-24631D01*
X53007Y-24612D01*
X53064Y-24574D01*
X53093Y-24536D01*
X53093Y-24459D01*
X53064Y-24421D01*
X53007Y-24383D01*
X52893Y-24364D01*
X52693Y-24364D01*
X52579Y-24383D01*
X52521Y-24421D01*
X52493Y-24459D01*
X53064Y-24783D02*
X53093Y-24840D01*
X53093Y-24936D01*
X53064Y-24974D01*
X53036Y-24993D01*
X52979Y-25012D01*
X52921Y-25012D01*
X52864Y-24993D01*
X52836Y-24974D01*
X52807Y-24936D01*
X52779Y-24859D01*
X52750Y-24821D01*
X52721Y-24802D01*
X52664Y-24783D01*
X52607Y-24783D01*
X52550Y-24802D01*
X52521Y-24821D01*
X52493Y-24859D01*
X52493Y-24955D01*
X52521Y-25012D01*
X53036Y-25412D02*
X53064Y-25393D01*
X53093Y-25336D01*
X53093Y-25298D01*
X53064Y-25240D01*
X53007Y-25202D01*
X52950Y-25183D01*
X52836Y-25164D01*
X52750Y-25164D01*
X52636Y-25183D01*
X52579Y-25202D01*
X52521Y-25240D01*
X52493Y-25298D01*
X52493Y-25336D01*
X52521Y-25393D01*
X52550Y-25412D01*
X53093Y-25793D02*
X53093Y-25564D01*
X53093Y-25678D02*
X52493Y-25678D01*
X52579Y-25640D01*
X52636Y-25602D01*
X52664Y-25564D01*
X53093Y-25983D02*
X53093Y-26059D01*
X53064Y-26098D01*
X53036Y-26117D01*
X52950Y-26155D01*
X52836Y-26174D01*
X52607Y-26174D01*
X52550Y-26155D01*
X52521Y-26136D01*
X52493Y-26098D01*
X52493Y-26021D01*
X52521Y-25983D01*
X52550Y-25964D01*
X52607Y-25945D01*
X52750Y-25945D01*
X52807Y-25964D01*
X52836Y-25983D01*
X52864Y-26021D01*
X52864Y-26098D01*
X52836Y-26136D01*
X52807Y-26155D01*
X52750Y-26174D01*
X52493Y-26421D02*
X52493Y-26460D01*
X52521Y-26498D01*
X52550Y-26517D01*
X52607Y-26536D01*
X52721Y-26555D01*
X52864Y-26555D01*
X52979Y-26536D01*
X53036Y-26517D01*
X53064Y-26498D01*
X53093Y-26460D01*
X53093Y-26421D01*
X53064Y-26383D01*
X53036Y-26364D01*
X52979Y-26345D01*
X52864Y-26326D01*
X52721Y-26326D01*
X52607Y-26345D01*
X52550Y-26364D01*
X52521Y-26383D01*
X52493Y-26421D01*
X53093Y-26936D02*
X53093Y-26707D01*
X53093Y-26821D02*
X52493Y-26821D01*
X52579Y-26783D01*
X52636Y-26745D01*
X52664Y-26707D01*
G54D14*
X46736Y-28882D02*
X46736Y-29246D01*
X46717Y-29289D01*
X46698Y-29311D01*
X46660Y-29332D01*
X46583Y-29332D01*
X46545Y-29311D01*
X46526Y-29289D01*
X46507Y-29246D01*
X46507Y-28882D01*
X46126Y-28882D02*
X46317Y-28882D01*
X46336Y-29096D01*
X46317Y-29075D01*
X46279Y-29054D01*
X46183Y-29054D01*
X46145Y-29075D01*
X46126Y-29096D01*
X46107Y-29139D01*
X46107Y-29246D01*
X46126Y-29289D01*
X46145Y-29311D01*
X46183Y-29332D01*
X46279Y-29332D01*
X46317Y-29311D01*
X46336Y-29289D01*
X45860Y-28882D02*
X45821Y-28882D01*
X45783Y-28904D01*
X45764Y-28925D01*
X45745Y-28968D01*
X45726Y-29054D01*
X45726Y-29161D01*
X45745Y-29246D01*
X45764Y-29289D01*
X45783Y-29311D01*
X45821Y-29332D01*
X45860Y-29332D01*
X45898Y-29311D01*
X45917Y-29289D01*
X45936Y-29246D01*
X45955Y-29161D01*
X45955Y-29054D01*
X45936Y-28968D01*
X45917Y-28925D01*
X45898Y-28904D01*
X45860Y-28882D01*
X45345Y-29332D02*
X45574Y-29332D01*
X45460Y-29332D02*
X45460Y-28882D01*
X45498Y-28946D01*
X45536Y-28989D01*
X45574Y-29011D01*
G54D18*
X62002Y-19955D02*
X61502Y-19955D01*
X61502Y-20074D01*
X61526Y-20146D01*
X61574Y-20193D01*
X61621Y-20217D01*
X61717Y-20241D01*
X61788Y-20241D01*
X61883Y-20217D01*
X61931Y-20193D01*
X61979Y-20146D01*
X62002Y-20074D01*
X62002Y-19955D01*
X61502Y-20407D02*
X61502Y-20741D01*
X62002Y-20526D01*
X61502Y-21026D02*
X61502Y-21074D01*
X61526Y-21122D01*
X61550Y-21145D01*
X61598Y-21169D01*
X61693Y-21193D01*
X61812Y-21193D01*
X61907Y-21169D01*
X61955Y-21145D01*
X61979Y-21122D01*
X62002Y-21074D01*
X62002Y-21026D01*
X61979Y-20979D01*
X61955Y-20955D01*
X61907Y-20931D01*
X61812Y-20907D01*
X61693Y-20907D01*
X61598Y-20931D01*
X61550Y-20955D01*
X61526Y-20979D01*
X61502Y-21026D01*
X62002Y-21669D02*
X62002Y-21383D01*
X62002Y-21526D02*
X61502Y-21526D01*
X61574Y-21478D01*
X61621Y-21431D01*
X61645Y-21383D01*
X65802Y-19955D02*
X65302Y-19955D01*
X65302Y-20074D01*
X65326Y-20146D01*
X65374Y-20193D01*
X65421Y-20217D01*
X65517Y-20241D01*
X65588Y-20241D01*
X65683Y-20217D01*
X65731Y-20193D01*
X65779Y-20146D01*
X65802Y-20074D01*
X65802Y-19955D01*
X65302Y-20407D02*
X65302Y-20741D01*
X65802Y-20526D01*
X65302Y-21026D02*
X65302Y-21074D01*
X65326Y-21122D01*
X65350Y-21145D01*
X65398Y-21169D01*
X65493Y-21193D01*
X65612Y-21193D01*
X65707Y-21169D01*
X65755Y-21145D01*
X65779Y-21122D01*
X65802Y-21074D01*
X65802Y-21026D01*
X65779Y-20979D01*
X65755Y-20955D01*
X65707Y-20931D01*
X65612Y-20907D01*
X65493Y-20907D01*
X65398Y-20931D01*
X65350Y-20955D01*
X65326Y-20979D01*
X65302Y-21026D01*
X65350Y-21383D02*
X65326Y-21407D01*
X65302Y-21455D01*
X65302Y-21574D01*
X65326Y-21621D01*
X65350Y-21645D01*
X65398Y-21669D01*
X65445Y-21669D01*
X65517Y-21645D01*
X65802Y-21359D01*
X65802Y-21669D01*
X67602Y-19955D02*
X67102Y-19955D01*
X67102Y-20074D01*
X67126Y-20146D01*
X67174Y-20193D01*
X67221Y-20217D01*
X67317Y-20241D01*
X67388Y-20241D01*
X67483Y-20217D01*
X67531Y-20193D01*
X67579Y-20146D01*
X67602Y-20074D01*
X67602Y-19955D01*
X67102Y-20407D02*
X67102Y-20741D01*
X67602Y-20526D01*
X67102Y-21026D02*
X67102Y-21074D01*
X67126Y-21122D01*
X67150Y-21145D01*
X67198Y-21169D01*
X67293Y-21193D01*
X67412Y-21193D01*
X67507Y-21169D01*
X67555Y-21145D01*
X67579Y-21122D01*
X67602Y-21074D01*
X67602Y-21026D01*
X67579Y-20979D01*
X67555Y-20955D01*
X67507Y-20931D01*
X67412Y-20907D01*
X67293Y-20907D01*
X67198Y-20931D01*
X67150Y-20955D01*
X67126Y-20979D01*
X67102Y-21026D01*
X67102Y-21359D02*
X67102Y-21669D01*
X67293Y-21502D01*
X67293Y-21574D01*
X67317Y-21621D01*
X67340Y-21645D01*
X67388Y-21669D01*
X67507Y-21669D01*
X67555Y-21645D01*
X67579Y-21621D01*
X67602Y-21574D01*
X67602Y-21431D01*
X67579Y-21383D01*
X67555Y-21359D01*
X69702Y-20055D02*
X69202Y-20055D01*
X69202Y-20174D01*
X69226Y-20246D01*
X69274Y-20293D01*
X69321Y-20317D01*
X69417Y-20341D01*
X69488Y-20341D01*
X69583Y-20317D01*
X69631Y-20293D01*
X69679Y-20246D01*
X69702Y-20174D01*
X69702Y-20055D01*
X69202Y-20507D02*
X69202Y-20841D01*
X69702Y-20626D01*
X69202Y-21126D02*
X69202Y-21174D01*
X69226Y-21222D01*
X69250Y-21245D01*
X69298Y-21269D01*
X69393Y-21293D01*
X69512Y-21293D01*
X69607Y-21269D01*
X69655Y-21245D01*
X69679Y-21222D01*
X69702Y-21174D01*
X69702Y-21126D01*
X69679Y-21079D01*
X69655Y-21055D01*
X69607Y-21031D01*
X69512Y-21007D01*
X69393Y-21007D01*
X69298Y-21031D01*
X69250Y-21055D01*
X69226Y-21079D01*
X69202Y-21126D01*
X69369Y-21721D02*
X69702Y-21721D01*
X69179Y-21602D02*
X69536Y-21483D01*
X69536Y-21793D01*
X51802Y-20331D02*
X51302Y-20331D01*
X51302Y-20450D01*
X51326Y-20522D01*
X51374Y-20569D01*
X51421Y-20593D01*
X51517Y-20617D01*
X51588Y-20617D01*
X51683Y-20593D01*
X51731Y-20569D01*
X51779Y-20522D01*
X51802Y-20450D01*
X51802Y-20331D01*
X51802Y-21093D02*
X51802Y-20807D01*
X51802Y-20950D02*
X51302Y-20950D01*
X51374Y-20902D01*
X51421Y-20855D01*
X51445Y-20807D01*
X54002Y-20231D02*
X53502Y-20231D01*
X53502Y-20350D01*
X53526Y-20422D01*
X53574Y-20469D01*
X53621Y-20493D01*
X53717Y-20517D01*
X53788Y-20517D01*
X53883Y-20493D01*
X53931Y-20469D01*
X53979Y-20422D01*
X54002Y-20350D01*
X54002Y-20231D01*
X53550Y-20707D02*
X53526Y-20731D01*
X53502Y-20779D01*
X53502Y-20898D01*
X53526Y-20945D01*
X53550Y-20969D01*
X53598Y-20993D01*
X53645Y-20993D01*
X53717Y-20969D01*
X54002Y-20683D01*
X54002Y-20993D01*
X57102Y-20231D02*
X56602Y-20231D01*
X56602Y-20350D01*
X56626Y-20422D01*
X56674Y-20469D01*
X56721Y-20493D01*
X56817Y-20517D01*
X56888Y-20517D01*
X56983Y-20493D01*
X57031Y-20469D01*
X57079Y-20422D01*
X57102Y-20350D01*
X57102Y-20231D01*
X56602Y-20683D02*
X56602Y-20993D01*
X56793Y-20826D01*
X56793Y-20898D01*
X56817Y-20945D01*
X56840Y-20969D01*
X56888Y-20993D01*
X57007Y-20993D01*
X57055Y-20969D01*
X57079Y-20945D01*
X57102Y-20898D01*
X57102Y-20755D01*
X57079Y-20707D01*
X57055Y-20683D01*
X59802Y-20031D02*
X59302Y-20031D01*
X59302Y-20150D01*
X59326Y-20222D01*
X59374Y-20269D01*
X59421Y-20293D01*
X59517Y-20317D01*
X59588Y-20317D01*
X59683Y-20293D01*
X59731Y-20269D01*
X59779Y-20222D01*
X59802Y-20150D01*
X59802Y-20031D01*
X59469Y-20745D02*
X59802Y-20745D01*
X59279Y-20626D02*
X59636Y-20507D01*
X59636Y-20817D01*
G54D16*
X42500Y-28763D02*
X42560Y-28630D01*
X42603Y-28763D02*
X42603Y-28483D01*
X42535Y-28483D01*
X42517Y-28497D01*
X42509Y-28510D01*
X42500Y-28537D01*
X42500Y-28577D01*
X42509Y-28603D01*
X42517Y-28617D01*
X42535Y-28630D01*
X42603Y-28630D01*
X42337Y-28483D02*
X42423Y-28483D01*
X42432Y-28617D01*
X42423Y-28603D01*
X42406Y-28590D01*
X42363Y-28590D01*
X42346Y-28603D01*
X42337Y-28617D01*
X42329Y-28643D01*
X42329Y-28710D01*
X42337Y-28737D01*
X42346Y-28750D01*
X42363Y-28763D01*
X42406Y-28763D01*
X42423Y-28750D01*
X42432Y-28737D01*
X42218Y-28483D02*
X42201Y-28483D01*
X42184Y-28497D01*
X42175Y-28510D01*
X42166Y-28537D01*
X42158Y-28590D01*
X42158Y-28657D01*
X42166Y-28710D01*
X42175Y-28737D01*
X42184Y-28750D01*
X42201Y-28763D01*
X42218Y-28763D01*
X42235Y-28750D01*
X42244Y-28737D01*
X42252Y-28710D01*
X42261Y-28657D01*
X42261Y-28590D01*
X42252Y-28537D01*
X42244Y-28510D01*
X42235Y-28497D01*
X42218Y-28483D01*
X42090Y-28510D02*
X42081Y-28497D01*
X42064Y-28483D01*
X42021Y-28483D01*
X42004Y-28497D01*
X41995Y-28510D01*
X41987Y-28537D01*
X41987Y-28563D01*
X41995Y-28603D01*
X42098Y-28763D01*
X41987Y-28763D01*
X63613Y-24164D02*
X63480Y-24104D01*
X63613Y-24061D02*
X63333Y-24061D01*
X63333Y-24129D01*
X63347Y-24147D01*
X63360Y-24155D01*
X63387Y-24164D01*
X63427Y-24164D01*
X63453Y-24155D01*
X63467Y-24147D01*
X63480Y-24129D01*
X63480Y-24061D01*
X63613Y-24335D02*
X63613Y-24232D01*
X63613Y-24284D02*
X63333Y-24284D01*
X63373Y-24267D01*
X63400Y-24249D01*
X63413Y-24232D01*
X63427Y-24489D02*
X63613Y-24489D01*
X63320Y-24446D02*
X63520Y-24403D01*
X63520Y-24515D01*
X63333Y-24617D02*
X63333Y-24634D01*
X63347Y-24651D01*
X63360Y-24660D01*
X63387Y-24669D01*
X63440Y-24677D01*
X63507Y-24677D01*
X63560Y-24669D01*
X63587Y-24660D01*
X63600Y-24651D01*
X63613Y-24634D01*
X63613Y-24617D01*
X63600Y-24600D01*
X63587Y-24591D01*
X63560Y-24583D01*
X63507Y-24574D01*
X63440Y-24574D01*
X63387Y-24583D01*
X63360Y-24591D01*
X63347Y-24600D01*
X63333Y-24617D01*
X63613Y-24848D02*
X63613Y-24745D01*
X63613Y-24797D02*
X63333Y-24797D01*
X63373Y-24780D01*
X63400Y-24762D01*
X63413Y-24745D01*
X41286Y-23213D02*
X41346Y-23080D01*
X41389Y-23213D02*
X41389Y-22933D01*
X41321Y-22933D01*
X41303Y-22947D01*
X41295Y-22960D01*
X41286Y-22987D01*
X41286Y-23027D01*
X41295Y-23053D01*
X41303Y-23067D01*
X41321Y-23080D01*
X41389Y-23080D01*
X41115Y-23213D02*
X41218Y-23213D01*
X41166Y-23213D02*
X41166Y-22933D01*
X41183Y-22973D01*
X41201Y-23000D01*
X41218Y-23013D01*
X40961Y-23027D02*
X40961Y-23213D01*
X41004Y-22920D02*
X41047Y-23120D01*
X40935Y-23120D01*
X40833Y-22933D02*
X40816Y-22933D01*
X40799Y-22947D01*
X40790Y-22960D01*
X40781Y-22987D01*
X40773Y-23040D01*
X40773Y-23107D01*
X40781Y-23160D01*
X40790Y-23187D01*
X40799Y-23200D01*
X40816Y-23213D01*
X40833Y-23213D01*
X40850Y-23200D01*
X40859Y-23187D01*
X40867Y-23160D01*
X40876Y-23107D01*
X40876Y-23040D01*
X40867Y-22987D01*
X40859Y-22960D01*
X40850Y-22947D01*
X40833Y-22933D01*
X40705Y-22960D02*
X40696Y-22947D01*
X40679Y-22933D01*
X40636Y-22933D01*
X40619Y-22947D01*
X40610Y-22960D01*
X40602Y-22987D01*
X40602Y-23013D01*
X40610Y-23053D01*
X40713Y-23213D01*
X40602Y-23213D01*
X56136Y-24313D02*
X56196Y-24180D01*
X56239Y-24313D02*
X56239Y-24033D01*
X56171Y-24033D01*
X56153Y-24047D01*
X56145Y-24060D01*
X56136Y-24087D01*
X56136Y-24127D01*
X56145Y-24153D01*
X56153Y-24167D01*
X56171Y-24180D01*
X56239Y-24180D01*
X55965Y-24313D02*
X56068Y-24313D01*
X56016Y-24313D02*
X56016Y-24033D01*
X56033Y-24073D01*
X56051Y-24100D01*
X56068Y-24113D01*
X55905Y-24033D02*
X55785Y-24033D01*
X55862Y-24313D01*
X55683Y-24033D02*
X55666Y-24033D01*
X55649Y-24047D01*
X55640Y-24060D01*
X55631Y-24087D01*
X55623Y-24140D01*
X55623Y-24207D01*
X55631Y-24260D01*
X55640Y-24287D01*
X55649Y-24300D01*
X55666Y-24313D01*
X55683Y-24313D01*
X55700Y-24300D01*
X55709Y-24287D01*
X55717Y-24260D01*
X55726Y-24207D01*
X55726Y-24140D01*
X55717Y-24087D01*
X55709Y-24060D01*
X55700Y-24047D01*
X55683Y-24033D01*
X55555Y-24060D02*
X55546Y-24047D01*
X55529Y-24033D01*
X55486Y-24033D01*
X55469Y-24047D01*
X55460Y-24060D01*
X55452Y-24087D01*
X55452Y-24113D01*
X55460Y-24153D01*
X55563Y-24313D01*
X55452Y-24313D01*
X56186Y-23063D02*
X56246Y-22930D01*
X56289Y-23063D02*
X56289Y-22783D01*
X56221Y-22783D01*
X56203Y-22797D01*
X56195Y-22810D01*
X56186Y-22837D01*
X56186Y-22877D01*
X56195Y-22903D01*
X56203Y-22917D01*
X56221Y-22930D01*
X56289Y-22930D01*
X56015Y-23063D02*
X56118Y-23063D01*
X56066Y-23063D02*
X56066Y-22783D01*
X56083Y-22823D01*
X56101Y-22850D01*
X56118Y-22863D01*
X55955Y-22783D02*
X55835Y-22783D01*
X55912Y-23063D01*
X55733Y-22783D02*
X55716Y-22783D01*
X55699Y-22797D01*
X55690Y-22810D01*
X55681Y-22837D01*
X55673Y-22890D01*
X55673Y-22957D01*
X55681Y-23010D01*
X55690Y-23037D01*
X55699Y-23050D01*
X55716Y-23063D01*
X55733Y-23063D01*
X55750Y-23050D01*
X55759Y-23037D01*
X55767Y-23010D01*
X55776Y-22957D01*
X55776Y-22890D01*
X55767Y-22837D01*
X55759Y-22810D01*
X55750Y-22797D01*
X55733Y-22783D01*
X55613Y-22783D02*
X55502Y-22783D01*
X55562Y-22890D01*
X55536Y-22890D01*
X55519Y-22903D01*
X55510Y-22917D01*
X55502Y-22943D01*
X55502Y-23010D01*
X55510Y-23037D01*
X55519Y-23050D01*
X55536Y-23063D01*
X55588Y-23063D01*
X55605Y-23050D01*
X55613Y-23037D01*
X56186Y-23663D02*
X56246Y-23530D01*
X56289Y-23663D02*
X56289Y-23383D01*
X56221Y-23383D01*
X56203Y-23397D01*
X56195Y-23410D01*
X56186Y-23437D01*
X56186Y-23477D01*
X56195Y-23503D01*
X56203Y-23517D01*
X56221Y-23530D01*
X56289Y-23530D01*
X56015Y-23663D02*
X56118Y-23663D01*
X56066Y-23663D02*
X56066Y-23383D01*
X56083Y-23423D01*
X56101Y-23450D01*
X56118Y-23463D01*
X55955Y-23383D02*
X55835Y-23383D01*
X55912Y-23663D01*
X55733Y-23383D02*
X55716Y-23383D01*
X55699Y-23397D01*
X55690Y-23410D01*
X55681Y-23437D01*
X55673Y-23490D01*
X55673Y-23557D01*
X55681Y-23610D01*
X55690Y-23637D01*
X55699Y-23650D01*
X55716Y-23663D01*
X55733Y-23663D01*
X55750Y-23650D01*
X55759Y-23637D01*
X55767Y-23610D01*
X55776Y-23557D01*
X55776Y-23490D01*
X55767Y-23437D01*
X55759Y-23410D01*
X55750Y-23397D01*
X55733Y-23383D01*
X55519Y-23477D02*
X55519Y-23663D01*
X55562Y-23370D02*
X55605Y-23570D01*
X55493Y-23570D01*
X56136Y-24913D02*
X56196Y-24780D01*
X56239Y-24913D02*
X56239Y-24633D01*
X56171Y-24633D01*
X56153Y-24647D01*
X56145Y-24660D01*
X56136Y-24687D01*
X56136Y-24727D01*
X56145Y-24753D01*
X56153Y-24767D01*
X56171Y-24780D01*
X56239Y-24780D01*
X55965Y-24913D02*
X56068Y-24913D01*
X56016Y-24913D02*
X56016Y-24633D01*
X56033Y-24673D01*
X56051Y-24700D01*
X56068Y-24713D01*
X55905Y-24633D02*
X55785Y-24633D01*
X55862Y-24913D01*
X55683Y-24633D02*
X55666Y-24633D01*
X55649Y-24647D01*
X55640Y-24660D01*
X55631Y-24687D01*
X55623Y-24740D01*
X55623Y-24807D01*
X55631Y-24860D01*
X55640Y-24887D01*
X55649Y-24900D01*
X55666Y-24913D01*
X55683Y-24913D01*
X55700Y-24900D01*
X55709Y-24887D01*
X55717Y-24860D01*
X55726Y-24807D01*
X55726Y-24740D01*
X55717Y-24687D01*
X55709Y-24660D01*
X55700Y-24647D01*
X55683Y-24633D01*
X55460Y-24633D02*
X55546Y-24633D01*
X55555Y-24767D01*
X55546Y-24753D01*
X55529Y-24740D01*
X55486Y-24740D01*
X55469Y-24753D01*
X55460Y-24767D01*
X55452Y-24793D01*
X55452Y-24860D01*
X55460Y-24887D01*
X55469Y-24900D01*
X55486Y-24913D01*
X55529Y-24913D01*
X55546Y-24900D01*
X55555Y-24887D01*
G54D18*
X42802Y-20255D02*
X42302Y-20255D01*
X42302Y-20374D01*
X42326Y-20446D01*
X42374Y-20493D01*
X42421Y-20517D01*
X42517Y-20541D01*
X42588Y-20541D01*
X42683Y-20517D01*
X42731Y-20493D01*
X42779Y-20446D01*
X42802Y-20374D01*
X42802Y-20255D01*
X42302Y-20707D02*
X42302Y-21041D01*
X42802Y-20826D01*
X42302Y-21326D02*
X42302Y-21374D01*
X42326Y-21422D01*
X42350Y-21445D01*
X42398Y-21469D01*
X42493Y-21493D01*
X42612Y-21493D01*
X42707Y-21469D01*
X42755Y-21445D01*
X42779Y-21422D01*
X42802Y-21374D01*
X42802Y-21326D01*
X42779Y-21279D01*
X42755Y-21255D01*
X42707Y-21231D01*
X42612Y-21207D01*
X42493Y-21207D01*
X42398Y-21231D01*
X42350Y-21255D01*
X42326Y-21279D01*
X42302Y-21326D01*
X42302Y-21945D02*
X42302Y-21707D01*
X42540Y-21683D01*
X42517Y-21707D01*
X42493Y-21755D01*
X42493Y-21874D01*
X42517Y-21921D01*
X42540Y-21945D01*
X42588Y-21969D01*
X42707Y-21969D01*
X42755Y-21945D01*
X42779Y-21921D01*
X42802Y-21874D01*
X42802Y-21755D01*
X42779Y-21707D01*
X42755Y-21683D01*
X44802Y-20255D02*
X44302Y-20255D01*
X44302Y-20374D01*
X44326Y-20446D01*
X44374Y-20493D01*
X44421Y-20517D01*
X44517Y-20541D01*
X44588Y-20541D01*
X44683Y-20517D01*
X44731Y-20493D01*
X44779Y-20446D01*
X44802Y-20374D01*
X44802Y-20255D01*
X44302Y-20707D02*
X44302Y-21041D01*
X44802Y-20826D01*
X44302Y-21326D02*
X44302Y-21374D01*
X44326Y-21422D01*
X44350Y-21445D01*
X44398Y-21469D01*
X44493Y-21493D01*
X44612Y-21493D01*
X44707Y-21469D01*
X44755Y-21445D01*
X44779Y-21422D01*
X44802Y-21374D01*
X44802Y-21326D01*
X44779Y-21279D01*
X44755Y-21255D01*
X44707Y-21231D01*
X44612Y-21207D01*
X44493Y-21207D01*
X44398Y-21231D01*
X44350Y-21255D01*
X44326Y-21279D01*
X44302Y-21326D01*
X44302Y-21921D02*
X44302Y-21826D01*
X44326Y-21778D01*
X44350Y-21755D01*
X44421Y-21707D01*
X44517Y-21683D01*
X44707Y-21683D01*
X44755Y-21707D01*
X44779Y-21731D01*
X44802Y-21778D01*
X44802Y-21874D01*
X44779Y-21921D01*
X44755Y-21945D01*
X44707Y-21969D01*
X44588Y-21969D01*
X44540Y-21945D01*
X44517Y-21921D01*
X44493Y-21874D01*
X44493Y-21778D01*
X44517Y-21731D01*
X44540Y-21707D01*
X44588Y-21683D01*
X47102Y-20255D02*
X46602Y-20255D01*
X46602Y-20374D01*
X46626Y-20446D01*
X46674Y-20493D01*
X46721Y-20517D01*
X46817Y-20541D01*
X46888Y-20541D01*
X46983Y-20517D01*
X47031Y-20493D01*
X47079Y-20446D01*
X47102Y-20374D01*
X47102Y-20255D01*
X46602Y-20707D02*
X46602Y-21041D01*
X47102Y-20826D01*
X46602Y-21326D02*
X46602Y-21374D01*
X46626Y-21422D01*
X46650Y-21445D01*
X46698Y-21469D01*
X46793Y-21493D01*
X46912Y-21493D01*
X47007Y-21469D01*
X47055Y-21445D01*
X47079Y-21422D01*
X47102Y-21374D01*
X47102Y-21326D01*
X47079Y-21279D01*
X47055Y-21255D01*
X47007Y-21231D01*
X46912Y-21207D01*
X46793Y-21207D01*
X46698Y-21231D01*
X46650Y-21255D01*
X46626Y-21279D01*
X46602Y-21326D01*
X46602Y-21659D02*
X46602Y-21993D01*
X47102Y-21778D01*
X49802Y-20255D02*
X49302Y-20255D01*
X49302Y-20374D01*
X49326Y-20446D01*
X49374Y-20493D01*
X49421Y-20517D01*
X49517Y-20541D01*
X49588Y-20541D01*
X49683Y-20517D01*
X49731Y-20493D01*
X49779Y-20446D01*
X49802Y-20374D01*
X49802Y-20255D01*
X49302Y-20707D02*
X49302Y-21041D01*
X49802Y-20826D01*
X49302Y-21326D02*
X49302Y-21374D01*
X49326Y-21422D01*
X49350Y-21445D01*
X49398Y-21469D01*
X49493Y-21493D01*
X49612Y-21493D01*
X49707Y-21469D01*
X49755Y-21445D01*
X49779Y-21422D01*
X49802Y-21374D01*
X49802Y-21326D01*
X49779Y-21279D01*
X49755Y-21255D01*
X49707Y-21231D01*
X49612Y-21207D01*
X49493Y-21207D01*
X49398Y-21231D01*
X49350Y-21255D01*
X49326Y-21279D01*
X49302Y-21326D01*
X49517Y-21778D02*
X49493Y-21731D01*
X49469Y-21707D01*
X49421Y-21683D01*
X49398Y-21683D01*
X49350Y-21707D01*
X49326Y-21731D01*
X49302Y-21778D01*
X49302Y-21874D01*
X49326Y-21921D01*
X49350Y-21945D01*
X49398Y-21969D01*
X49421Y-21969D01*
X49469Y-21945D01*
X49493Y-21921D01*
X49517Y-21874D01*
X49517Y-21778D01*
X49540Y-21731D01*
X49564Y-21707D01*
X49612Y-21683D01*
X49707Y-21683D01*
X49755Y-21707D01*
X49779Y-21731D01*
X49802Y-21778D01*
X49802Y-21874D01*
X49779Y-21921D01*
X49755Y-21945D01*
X49707Y-21969D01*
X49612Y-21969D01*
X49564Y-21945D01*
X49540Y-21921D01*
X49517Y-21874D01*
X42702Y-31455D02*
X42202Y-31455D01*
X42202Y-31574D01*
X42226Y-31646D01*
X42274Y-31693D01*
X42321Y-31717D01*
X42417Y-31741D01*
X42488Y-31741D01*
X42583Y-31717D01*
X42631Y-31693D01*
X42679Y-31646D01*
X42702Y-31574D01*
X42702Y-31455D01*
X42202Y-31907D02*
X42202Y-32241D01*
X42702Y-32026D01*
X42202Y-32526D02*
X42202Y-32574D01*
X42226Y-32622D01*
X42250Y-32645D01*
X42298Y-32669D01*
X42393Y-32693D01*
X42512Y-32693D01*
X42607Y-32669D01*
X42655Y-32645D01*
X42679Y-32622D01*
X42702Y-32574D01*
X42702Y-32526D01*
X42679Y-32479D01*
X42655Y-32455D01*
X42607Y-32431D01*
X42512Y-32407D01*
X42393Y-32407D01*
X42298Y-32431D01*
X42250Y-32455D01*
X42226Y-32479D01*
X42202Y-32526D01*
X42702Y-32931D02*
X42702Y-33026D01*
X42679Y-33074D01*
X42655Y-33098D01*
X42583Y-33145D01*
X42488Y-33169D01*
X42298Y-33169D01*
X42250Y-33145D01*
X42226Y-33121D01*
X42202Y-33074D01*
X42202Y-32978D01*
X42226Y-32931D01*
X42250Y-32907D01*
X42298Y-32883D01*
X42417Y-32883D01*
X42464Y-32907D01*
X42488Y-32931D01*
X42512Y-32978D01*
X42512Y-33074D01*
X42488Y-33121D01*
X42464Y-33145D01*
X42417Y-33169D01*
X52202Y-31455D02*
X51702Y-31455D01*
X51702Y-31574D01*
X51726Y-31646D01*
X51774Y-31693D01*
X51821Y-31717D01*
X51917Y-31741D01*
X51988Y-31741D01*
X52083Y-31717D01*
X52131Y-31693D01*
X52179Y-31646D01*
X52202Y-31574D01*
X52202Y-31455D01*
X51702Y-31907D02*
X51702Y-32241D01*
X52202Y-32026D01*
X52202Y-32693D02*
X52202Y-32407D01*
X52202Y-32550D02*
X51702Y-32550D01*
X51774Y-32502D01*
X51821Y-32455D01*
X51845Y-32407D01*
X51702Y-33002D02*
X51702Y-33050D01*
X51726Y-33098D01*
X51750Y-33121D01*
X51798Y-33145D01*
X51893Y-33169D01*
X52012Y-33169D01*
X52107Y-33145D01*
X52155Y-33121D01*
X52179Y-33098D01*
X52202Y-33050D01*
X52202Y-33002D01*
X52179Y-32955D01*
X52155Y-32931D01*
X52107Y-32907D01*
X52012Y-32883D01*
X51893Y-32883D01*
X51798Y-32907D01*
X51750Y-32931D01*
X51726Y-32955D01*
X51702Y-33002D01*
X63202Y-31455D02*
X62702Y-31455D01*
X62702Y-31574D01*
X62726Y-31646D01*
X62774Y-31693D01*
X62821Y-31717D01*
X62917Y-31741D01*
X62988Y-31741D01*
X63083Y-31717D01*
X63131Y-31693D01*
X63179Y-31646D01*
X63202Y-31574D01*
X63202Y-31455D01*
X62702Y-31907D02*
X62702Y-32241D01*
X63202Y-32026D01*
X63202Y-32693D02*
X63202Y-32407D01*
X63202Y-32550D02*
X62702Y-32550D01*
X62774Y-32502D01*
X62821Y-32455D01*
X62845Y-32407D01*
X63202Y-33169D02*
X63202Y-32883D01*
X63202Y-33026D02*
X62702Y-33026D01*
X62774Y-32978D01*
X62821Y-32931D01*
X62845Y-32883D01*
X44902Y-31455D02*
X44402Y-31455D01*
X44402Y-31574D01*
X44426Y-31646D01*
X44474Y-31693D01*
X44521Y-31717D01*
X44617Y-31741D01*
X44688Y-31741D01*
X44783Y-31717D01*
X44831Y-31693D01*
X44879Y-31646D01*
X44902Y-31574D01*
X44902Y-31455D01*
X44402Y-31907D02*
X44402Y-32241D01*
X44902Y-32026D01*
X44902Y-32693D02*
X44902Y-32407D01*
X44902Y-32550D02*
X44402Y-32550D01*
X44474Y-32502D01*
X44521Y-32455D01*
X44545Y-32407D01*
X44450Y-32883D02*
X44426Y-32907D01*
X44402Y-32955D01*
X44402Y-33074D01*
X44426Y-33121D01*
X44450Y-33145D01*
X44498Y-33169D01*
X44545Y-33169D01*
X44617Y-33145D01*
X44902Y-32859D01*
X44902Y-33169D01*
X54802Y-31455D02*
X54302Y-31455D01*
X54302Y-31574D01*
X54326Y-31646D01*
X54374Y-31693D01*
X54421Y-31717D01*
X54517Y-31741D01*
X54588Y-31741D01*
X54683Y-31717D01*
X54731Y-31693D01*
X54779Y-31646D01*
X54802Y-31574D01*
X54802Y-31455D01*
X54302Y-31907D02*
X54302Y-32241D01*
X54802Y-32026D01*
X54802Y-32693D02*
X54802Y-32407D01*
X54802Y-32550D02*
X54302Y-32550D01*
X54374Y-32502D01*
X54421Y-32455D01*
X54445Y-32407D01*
X54302Y-32859D02*
X54302Y-33169D01*
X54493Y-33002D01*
X54493Y-33074D01*
X54517Y-33121D01*
X54540Y-33145D01*
X54588Y-33169D01*
X54707Y-33169D01*
X54755Y-33145D01*
X54779Y-33121D01*
X54802Y-33074D01*
X54802Y-32931D01*
X54779Y-32883D01*
X54755Y-32859D01*
X65802Y-31455D02*
X65302Y-31455D01*
X65302Y-31574D01*
X65326Y-31646D01*
X65374Y-31693D01*
X65421Y-31717D01*
X65517Y-31741D01*
X65588Y-31741D01*
X65683Y-31717D01*
X65731Y-31693D01*
X65779Y-31646D01*
X65802Y-31574D01*
X65802Y-31455D01*
X65302Y-31907D02*
X65302Y-32241D01*
X65802Y-32026D01*
X65802Y-32693D02*
X65802Y-32407D01*
X65802Y-32550D02*
X65302Y-32550D01*
X65374Y-32502D01*
X65421Y-32455D01*
X65445Y-32407D01*
X65469Y-33121D02*
X65802Y-33121D01*
X65279Y-33002D02*
X65636Y-32883D01*
X65636Y-33193D01*
X46802Y-31455D02*
X46302Y-31455D01*
X46302Y-31574D01*
X46326Y-31646D01*
X46374Y-31693D01*
X46421Y-31717D01*
X46517Y-31741D01*
X46588Y-31741D01*
X46683Y-31717D01*
X46731Y-31693D01*
X46779Y-31646D01*
X46802Y-31574D01*
X46802Y-31455D01*
X46302Y-31907D02*
X46302Y-32241D01*
X46802Y-32026D01*
X46802Y-32693D02*
X46802Y-32407D01*
X46802Y-32550D02*
X46302Y-32550D01*
X46374Y-32502D01*
X46421Y-32455D01*
X46445Y-32407D01*
X46302Y-33145D02*
X46302Y-32907D01*
X46540Y-32883D01*
X46517Y-32907D01*
X46493Y-32955D01*
X46493Y-33074D01*
X46517Y-33121D01*
X46540Y-33145D01*
X46588Y-33169D01*
X46707Y-33169D01*
X46755Y-33145D01*
X46779Y-33121D01*
X46802Y-33074D01*
X46802Y-32955D01*
X46779Y-32907D01*
X46755Y-32883D01*
X57202Y-31455D02*
X56702Y-31455D01*
X56702Y-31574D01*
X56726Y-31646D01*
X56774Y-31693D01*
X56821Y-31717D01*
X56917Y-31741D01*
X56988Y-31741D01*
X57083Y-31717D01*
X57131Y-31693D01*
X57179Y-31646D01*
X57202Y-31574D01*
X57202Y-31455D01*
X56702Y-31907D02*
X56702Y-32241D01*
X57202Y-32026D01*
X57202Y-32693D02*
X57202Y-32407D01*
X57202Y-32550D02*
X56702Y-32550D01*
X56774Y-32502D01*
X56821Y-32455D01*
X56845Y-32407D01*
X56702Y-33121D02*
X56702Y-33026D01*
X56726Y-32978D01*
X56750Y-32955D01*
X56821Y-32907D01*
X56917Y-32883D01*
X57107Y-32883D01*
X57155Y-32907D01*
X57179Y-32931D01*
X57202Y-32978D01*
X57202Y-33074D01*
X57179Y-33121D01*
X57155Y-33145D01*
X57107Y-33169D01*
X56988Y-33169D01*
X56940Y-33145D01*
X56917Y-33121D01*
X56893Y-33074D01*
X56893Y-32978D01*
X56917Y-32931D01*
X56940Y-32907D01*
X56988Y-32883D01*
X67802Y-31455D02*
X67302Y-31455D01*
X67302Y-31574D01*
X67326Y-31646D01*
X67374Y-31693D01*
X67421Y-31717D01*
X67517Y-31741D01*
X67588Y-31741D01*
X67683Y-31717D01*
X67731Y-31693D01*
X67779Y-31646D01*
X67802Y-31574D01*
X67802Y-31455D01*
X67302Y-31907D02*
X67302Y-32241D01*
X67802Y-32026D01*
X67802Y-32693D02*
X67802Y-32407D01*
X67802Y-32550D02*
X67302Y-32550D01*
X67374Y-32502D01*
X67421Y-32455D01*
X67445Y-32407D01*
X67302Y-32859D02*
X67302Y-33193D01*
X67802Y-32978D01*
X49802Y-31555D02*
X49302Y-31555D01*
X49302Y-31674D01*
X49326Y-31746D01*
X49374Y-31793D01*
X49421Y-31817D01*
X49517Y-31841D01*
X49588Y-31841D01*
X49683Y-31817D01*
X49731Y-31793D01*
X49779Y-31746D01*
X49802Y-31674D01*
X49802Y-31555D01*
X49302Y-32007D02*
X49302Y-32341D01*
X49802Y-32126D01*
X49802Y-32793D02*
X49802Y-32507D01*
X49802Y-32650D02*
X49302Y-32650D01*
X49374Y-32602D01*
X49421Y-32555D01*
X49445Y-32507D01*
X49517Y-33078D02*
X49493Y-33031D01*
X49469Y-33007D01*
X49421Y-32983D01*
X49398Y-32983D01*
X49350Y-33007D01*
X49326Y-33031D01*
X49302Y-33078D01*
X49302Y-33174D01*
X49326Y-33221D01*
X49350Y-33245D01*
X49398Y-33269D01*
X49421Y-33269D01*
X49469Y-33245D01*
X49493Y-33221D01*
X49517Y-33174D01*
X49517Y-33078D01*
X49540Y-33031D01*
X49564Y-33007D01*
X49612Y-32983D01*
X49707Y-32983D01*
X49755Y-33007D01*
X49779Y-33031D01*
X49802Y-33078D01*
X49802Y-33174D01*
X49779Y-33221D01*
X49755Y-33245D01*
X49707Y-33269D01*
X49612Y-33269D01*
X49564Y-33245D01*
X49540Y-33221D01*
X49517Y-33174D01*
X59802Y-31455D02*
X59302Y-31455D01*
X59302Y-31574D01*
X59326Y-31646D01*
X59374Y-31693D01*
X59421Y-31717D01*
X59517Y-31741D01*
X59588Y-31741D01*
X59683Y-31717D01*
X59731Y-31693D01*
X59779Y-31646D01*
X59802Y-31574D01*
X59802Y-31455D01*
X59302Y-31907D02*
X59302Y-32241D01*
X59802Y-32026D01*
X59802Y-32693D02*
X59802Y-32407D01*
X59802Y-32550D02*
X59302Y-32550D01*
X59374Y-32502D01*
X59421Y-32455D01*
X59445Y-32407D01*
X59802Y-32931D02*
X59802Y-33026D01*
X59779Y-33074D01*
X59755Y-33098D01*
X59683Y-33145D01*
X59588Y-33169D01*
X59398Y-33169D01*
X59350Y-33145D01*
X59326Y-33121D01*
X59302Y-33074D01*
X59302Y-32978D01*
X59326Y-32931D01*
X59350Y-32907D01*
X59398Y-32883D01*
X59517Y-32883D01*
X59564Y-32907D01*
X59588Y-32931D01*
X59612Y-32978D01*
X59612Y-33074D01*
X59588Y-33121D01*
X59564Y-33145D01*
X59517Y-33169D01*
X69802Y-31455D02*
X69302Y-31455D01*
X69302Y-31574D01*
X69326Y-31646D01*
X69374Y-31693D01*
X69421Y-31717D01*
X69517Y-31741D01*
X69588Y-31741D01*
X69683Y-31717D01*
X69731Y-31693D01*
X69779Y-31646D01*
X69802Y-31574D01*
X69802Y-31455D01*
X69302Y-31907D02*
X69302Y-32241D01*
X69802Y-32026D01*
X69350Y-32407D02*
X69326Y-32431D01*
X69302Y-32479D01*
X69302Y-32598D01*
X69326Y-32645D01*
X69350Y-32669D01*
X69398Y-32693D01*
X69445Y-32693D01*
X69517Y-32669D01*
X69802Y-32383D01*
X69802Y-32693D01*
X69302Y-33002D02*
X69302Y-33050D01*
X69326Y-33098D01*
X69350Y-33121D01*
X69398Y-33145D01*
X69493Y-33169D01*
X69612Y-33169D01*
X69707Y-33145D01*
X69755Y-33121D01*
X69779Y-33098D01*
X69802Y-33050D01*
X69802Y-33002D01*
X69779Y-32955D01*
X69755Y-32931D01*
X69707Y-32907D01*
X69612Y-32883D01*
X69493Y-32883D01*
X69398Y-32907D01*
X69350Y-32931D01*
X69326Y-32955D01*
X69302Y-33002D01*
G54D16*
X58713Y-30600D02*
X58580Y-30540D01*
X58713Y-30497D02*
X58433Y-30497D01*
X58433Y-30565D01*
X58447Y-30583D01*
X58460Y-30591D01*
X58487Y-30600D01*
X58527Y-30600D01*
X58553Y-30591D01*
X58567Y-30583D01*
X58580Y-30565D01*
X58580Y-30497D01*
X58460Y-30668D02*
X58447Y-30677D01*
X58433Y-30694D01*
X58433Y-30737D01*
X58447Y-30754D01*
X58460Y-30763D01*
X58487Y-30771D01*
X58513Y-30771D01*
X58553Y-30763D01*
X58713Y-30660D01*
X58713Y-30771D01*
X58433Y-30882D02*
X58433Y-30899D01*
X58447Y-30916D01*
X58460Y-30925D01*
X58487Y-30934D01*
X58540Y-30942D01*
X58607Y-30942D01*
X58660Y-30934D01*
X58687Y-30925D01*
X58700Y-30916D01*
X58713Y-30899D01*
X58713Y-30882D01*
X58700Y-30865D01*
X58687Y-30856D01*
X58660Y-30848D01*
X58607Y-30839D01*
X58540Y-30839D01*
X58487Y-30848D01*
X58460Y-30856D01*
X58447Y-30865D01*
X58433Y-30882D01*
X58713Y-31113D02*
X58713Y-31010D01*
X58713Y-31062D02*
X58433Y-31062D01*
X58473Y-31045D01*
X58500Y-31027D01*
X58513Y-31010D01*
X58013Y-30600D02*
X57880Y-30540D01*
X58013Y-30497D02*
X57733Y-30497D01*
X57733Y-30565D01*
X57747Y-30583D01*
X57760Y-30591D01*
X57787Y-30600D01*
X57827Y-30600D01*
X57853Y-30591D01*
X57867Y-30583D01*
X57880Y-30565D01*
X57880Y-30497D01*
X57760Y-30668D02*
X57747Y-30677D01*
X57733Y-30694D01*
X57733Y-30737D01*
X57747Y-30754D01*
X57760Y-30763D01*
X57787Y-30771D01*
X57813Y-30771D01*
X57853Y-30763D01*
X58013Y-30660D01*
X58013Y-30771D01*
X57733Y-30882D02*
X57733Y-30899D01*
X57747Y-30916D01*
X57760Y-30925D01*
X57787Y-30934D01*
X57840Y-30942D01*
X57907Y-30942D01*
X57960Y-30934D01*
X57987Y-30925D01*
X58000Y-30916D01*
X58013Y-30899D01*
X58013Y-30882D01*
X58000Y-30865D01*
X57987Y-30856D01*
X57960Y-30848D01*
X57907Y-30839D01*
X57840Y-30839D01*
X57787Y-30848D01*
X57760Y-30856D01*
X57747Y-30865D01*
X57733Y-30882D01*
X57760Y-31010D02*
X57747Y-31019D01*
X57733Y-31036D01*
X57733Y-31079D01*
X57747Y-31096D01*
X57760Y-31105D01*
X57787Y-31113D01*
X57813Y-31113D01*
X57853Y-31105D01*
X58013Y-31002D01*
X58013Y-31113D01*
X57413Y-30600D02*
X57280Y-30540D01*
X57413Y-30497D02*
X57133Y-30497D01*
X57133Y-30565D01*
X57147Y-30583D01*
X57160Y-30591D01*
X57187Y-30600D01*
X57227Y-30600D01*
X57253Y-30591D01*
X57267Y-30583D01*
X57280Y-30565D01*
X57280Y-30497D01*
X57160Y-30668D02*
X57147Y-30677D01*
X57133Y-30694D01*
X57133Y-30737D01*
X57147Y-30754D01*
X57160Y-30763D01*
X57187Y-30771D01*
X57213Y-30771D01*
X57253Y-30763D01*
X57413Y-30660D01*
X57413Y-30771D01*
X57133Y-30882D02*
X57133Y-30899D01*
X57147Y-30916D01*
X57160Y-30925D01*
X57187Y-30934D01*
X57240Y-30942D01*
X57307Y-30942D01*
X57360Y-30934D01*
X57387Y-30925D01*
X57400Y-30916D01*
X57413Y-30899D01*
X57413Y-30882D01*
X57400Y-30865D01*
X57387Y-30856D01*
X57360Y-30848D01*
X57307Y-30839D01*
X57240Y-30839D01*
X57187Y-30848D01*
X57160Y-30856D01*
X57147Y-30865D01*
X57133Y-30882D01*
X57133Y-31002D02*
X57133Y-31113D01*
X57240Y-31053D01*
X57240Y-31079D01*
X57253Y-31096D01*
X57267Y-31105D01*
X57293Y-31113D01*
X57360Y-31113D01*
X57387Y-31105D01*
X57400Y-31096D01*
X57413Y-31079D01*
X57413Y-31027D01*
X57400Y-31010D01*
X57387Y-31002D01*
X69150Y-29663D02*
X69210Y-29530D01*
X69253Y-29663D02*
X69253Y-29383D01*
X69185Y-29383D01*
X69167Y-29397D01*
X69159Y-29410D01*
X69150Y-29437D01*
X69150Y-29477D01*
X69159Y-29503D01*
X69167Y-29517D01*
X69185Y-29530D01*
X69253Y-29530D01*
X68996Y-29477D02*
X68996Y-29663D01*
X69039Y-29370D02*
X69082Y-29570D01*
X68970Y-29570D01*
X68868Y-29383D02*
X68851Y-29383D01*
X68834Y-29397D01*
X68825Y-29410D01*
X68816Y-29437D01*
X68808Y-29490D01*
X68808Y-29557D01*
X68816Y-29610D01*
X68825Y-29637D01*
X68834Y-29650D01*
X68851Y-29663D01*
X68868Y-29663D01*
X68885Y-29650D01*
X68894Y-29637D01*
X68902Y-29610D01*
X68911Y-29557D01*
X68911Y-29490D01*
X68902Y-29437D01*
X68894Y-29410D01*
X68885Y-29397D01*
X68868Y-29383D01*
X68637Y-29663D02*
X68740Y-29663D01*
X68688Y-29663D02*
X68688Y-29383D01*
X68705Y-29423D01*
X68723Y-29450D01*
X68740Y-29463D01*
M02*
