G04 (created by PCBNEW-RS274X (2012-01-19 BZR 3256)-stable) date Wed 20 Feb 2013 03:59:13 PM COT*
G01*
G70*
G90*
%MOIN*%
G04 Gerber Fmt 3.4, Leading zero omitted, Abs format*
%FSLAX34Y34*%
G04 APERTURE LIST*
%ADD10C,0.006000*%
%ADD11C,0.015000*%
%ADD12R,0.025000X0.045000*%
%ADD13R,0.045000X0.025000*%
%ADD14R,0.020000X0.045000*%
%ADD15R,0.055000X0.100000*%
%ADD16R,0.050000X0.016000*%
%ADD17R,0.026000X0.016000*%
%ADD18R,0.039400X0.027200*%
G04 APERTURE END LIST*
G54D10*
G54D11*
X44250Y-31250D02*
X44250Y-21250D01*
X69750Y-31250D02*
X44250Y-31250D01*
X69750Y-21250D02*
X69750Y-31250D01*
X44250Y-21250D02*
X69750Y-21250D01*
G54D12*
X61700Y-27300D03*
X62300Y-27300D03*
G54D13*
X47650Y-26050D03*
X47650Y-25450D03*
X48300Y-26650D03*
X48300Y-26050D03*
X62050Y-27900D03*
X62050Y-28500D03*
X68000Y-29200D03*
X68000Y-29800D03*
X68500Y-26800D03*
X68500Y-26200D03*
X67000Y-26200D03*
X67000Y-26800D03*
X67750Y-24950D03*
X67750Y-25550D03*
X68500Y-24950D03*
X68500Y-25550D03*
G54D12*
X67700Y-24250D03*
X68300Y-24250D03*
G54D13*
X67750Y-26200D03*
X67750Y-26800D03*
G54D12*
X50400Y-28450D03*
X49800Y-28450D03*
X50400Y-27500D03*
X49800Y-27500D03*
X50400Y-26100D03*
X49800Y-26100D03*
X50400Y-25450D03*
X49800Y-25450D03*
X50400Y-24450D03*
X49800Y-24450D03*
G54D13*
X51500Y-23950D03*
X51500Y-24550D03*
X52650Y-23950D03*
X52650Y-24550D03*
X53450Y-23950D03*
X53450Y-24550D03*
X54900Y-23950D03*
X54900Y-24550D03*
G54D12*
X55900Y-25200D03*
X55300Y-25200D03*
X55900Y-27900D03*
X55300Y-27900D03*
G54D13*
X54750Y-29350D03*
X54750Y-28750D03*
X53700Y-29350D03*
X53700Y-28750D03*
G54D12*
X50400Y-26800D03*
X49800Y-26800D03*
X55900Y-26100D03*
X55300Y-26100D03*
X55900Y-27000D03*
X55300Y-27000D03*
G54D14*
X58650Y-26900D03*
X58150Y-26900D03*
X57650Y-26900D03*
X57150Y-26900D03*
X57150Y-29400D03*
X57650Y-29400D03*
X58150Y-29400D03*
X58650Y-29400D03*
G54D12*
X61700Y-26650D03*
X62300Y-26650D03*
X61700Y-25350D03*
X62300Y-25350D03*
X61700Y-26000D03*
X62300Y-26000D03*
G54D13*
X51000Y-25600D03*
X51000Y-25000D03*
G54D15*
X52000Y-25750D03*
X53000Y-25750D03*
X54000Y-25750D03*
X54000Y-27250D03*
X53000Y-27250D03*
X52000Y-27250D03*
G54D16*
X63100Y-28150D03*
X63100Y-27900D03*
X63100Y-27640D03*
X63100Y-27380D03*
X63100Y-27130D03*
X63100Y-26870D03*
X63100Y-26610D03*
X63100Y-26360D03*
X63100Y-26100D03*
X63100Y-25850D03*
X63100Y-25590D03*
X63100Y-25330D03*
X63100Y-25080D03*
X63100Y-24820D03*
X65900Y-24820D03*
X65900Y-25080D03*
X65900Y-25320D03*
X65900Y-25590D03*
X65900Y-25850D03*
X65900Y-26100D03*
X65900Y-26360D03*
X65900Y-26610D03*
X65900Y-26870D03*
X65900Y-27130D03*
X65900Y-27380D03*
X65900Y-27640D03*
X65900Y-27900D03*
X65900Y-28150D03*
G54D17*
X47210Y-29180D03*
X47210Y-29700D03*
X47210Y-29440D03*
X46410Y-29700D03*
X46410Y-29180D03*
X46410Y-29440D03*
G54D18*
X49262Y-28756D03*
X49262Y-29504D03*
X49262Y-29130D03*
X48238Y-29504D03*
X48238Y-28756D03*
X48238Y-29130D03*
M02*
