G04 (created by PCBNEW-RS274X (2012-01-19 BZR 3256)-stable) date Wed 20 Feb 2013 03:59:13 PM COT*
G01*
G70*
G90*
%MOIN*%
G04 Gerber Fmt 3.4, Leading zero omitted, Abs format*
%FSLAX34Y34*%
G04 APERTURE LIST*
%ADD10C,0.006000*%
%ADD11C,0.015000*%
%ADD12C,0.008000*%
%ADD13C,0.005000*%
%ADD14C,0.002600*%
%ADD15C,0.004000*%
%ADD16C,0.002000*%
%ADD17C,0.012000*%
%ADD18C,0.010000*%
%ADD19C,0.004500*%
%ADD20C,0.005200*%
G04 APERTURE END LIST*
G54D10*
G54D11*
X44250Y-31250D02*
X44250Y-21250D01*
X69750Y-31250D02*
X44250Y-31250D01*
X69750Y-21250D02*
X69750Y-31250D01*
X44250Y-21250D02*
X69750Y-21250D01*
G54D12*
X50900Y-24100D02*
X50896Y-24138D01*
X50884Y-24176D01*
X50866Y-24210D01*
X50841Y-24240D01*
X50811Y-24265D01*
X50777Y-24284D01*
X50740Y-24295D01*
X50701Y-24299D01*
X50663Y-24296D01*
X50626Y-24285D01*
X50591Y-24267D01*
X50561Y-24242D01*
X50535Y-24212D01*
X50517Y-24178D01*
X50505Y-24141D01*
X50501Y-24102D01*
X50504Y-24064D01*
X50515Y-24027D01*
X50532Y-23992D01*
X50557Y-23962D01*
X50586Y-23936D01*
X50620Y-23917D01*
X50658Y-23905D01*
X50696Y-23901D01*
X50734Y-23904D01*
X50772Y-23914D01*
X50807Y-23932D01*
X50837Y-23956D01*
X50863Y-23985D01*
X50882Y-24019D01*
X50895Y-24056D01*
X50899Y-24095D01*
X50900Y-24100D01*
X50750Y-23750D02*
X50500Y-24000D01*
X50600Y-29250D02*
X50500Y-29150D01*
X55900Y-29250D02*
X56000Y-29150D01*
X56000Y-23850D02*
X55900Y-23750D01*
X50500Y-24000D02*
X50500Y-29150D01*
X50600Y-29250D02*
X55900Y-29250D01*
X56000Y-29150D02*
X56000Y-23850D01*
X55900Y-23750D02*
X50750Y-23750D01*
G54D13*
X47550Y-23150D02*
X48450Y-23150D01*
X48450Y-23150D02*
X48450Y-23650D01*
X48450Y-23650D02*
X47550Y-23650D01*
X47550Y-23650D02*
X47550Y-23150D01*
X47550Y-23800D02*
X48450Y-23800D01*
X48450Y-23800D02*
X48450Y-24300D01*
X48450Y-24300D02*
X47550Y-24300D01*
X47550Y-24300D02*
X47550Y-23800D01*
G54D14*
X68304Y-29382D02*
X68304Y-29254D01*
X68304Y-29254D02*
X68107Y-29254D01*
X68107Y-29382D02*
X68107Y-29254D01*
X68304Y-29382D02*
X68107Y-29382D01*
X68304Y-29627D02*
X68304Y-29568D01*
X68304Y-29568D02*
X68205Y-29568D01*
X68205Y-29627D02*
X68205Y-29568D01*
X68304Y-29627D02*
X68205Y-29627D01*
X68304Y-29432D02*
X68304Y-29373D01*
X68304Y-29373D02*
X68205Y-29373D01*
X68205Y-29432D02*
X68205Y-29373D01*
X68304Y-29432D02*
X68205Y-29432D01*
X68304Y-29578D02*
X68304Y-29422D01*
X68304Y-29422D02*
X68235Y-29422D01*
X68235Y-29578D02*
X68235Y-29422D01*
X68304Y-29578D02*
X68235Y-29578D01*
X68893Y-29382D02*
X68893Y-29254D01*
X68893Y-29254D02*
X68696Y-29254D01*
X68696Y-29382D02*
X68696Y-29254D01*
X68893Y-29382D02*
X68696Y-29382D01*
X68893Y-29746D02*
X68893Y-29618D01*
X68893Y-29618D02*
X68696Y-29618D01*
X68696Y-29746D02*
X68696Y-29618D01*
X68893Y-29746D02*
X68696Y-29746D01*
X68795Y-29432D02*
X68795Y-29373D01*
X68795Y-29373D02*
X68696Y-29373D01*
X68696Y-29432D02*
X68696Y-29373D01*
X68795Y-29432D02*
X68696Y-29432D01*
X68795Y-29627D02*
X68795Y-29568D01*
X68795Y-29568D02*
X68696Y-29568D01*
X68696Y-29627D02*
X68696Y-29568D01*
X68795Y-29627D02*
X68696Y-29627D01*
X68765Y-29578D02*
X68765Y-29422D01*
X68765Y-29422D02*
X68696Y-29422D01*
X68696Y-29578D02*
X68696Y-29422D01*
X68765Y-29578D02*
X68696Y-29578D01*
X68500Y-29539D02*
X68500Y-29461D01*
X68500Y-29461D02*
X68422Y-29461D01*
X68422Y-29539D02*
X68422Y-29461D01*
X68500Y-29539D02*
X68422Y-29539D01*
X68304Y-29736D02*
X68304Y-29618D01*
X68304Y-29618D02*
X68186Y-29618D01*
X68186Y-29736D02*
X68186Y-29618D01*
X68304Y-29736D02*
X68186Y-29736D01*
X68136Y-29746D02*
X68136Y-29657D01*
X68136Y-29657D02*
X68107Y-29657D01*
X68107Y-29746D02*
X68107Y-29657D01*
X68136Y-29746D02*
X68107Y-29746D01*
G54D15*
X68294Y-29274D02*
X68706Y-29274D01*
X68696Y-29726D02*
X68136Y-29726D01*
G54D16*
X68194Y-29677D02*
X68193Y-29682D01*
X68191Y-29687D01*
X68189Y-29692D01*
X68185Y-29696D01*
X68181Y-29700D01*
X68176Y-29702D01*
X68171Y-29704D01*
X68166Y-29704D01*
X68161Y-29704D01*
X68156Y-29702D01*
X68151Y-29700D01*
X68147Y-29697D01*
X68143Y-29692D01*
X68141Y-29688D01*
X68139Y-29682D01*
X68139Y-29677D01*
X68139Y-29672D01*
X68140Y-29667D01*
X68143Y-29662D01*
X68146Y-29658D01*
X68151Y-29655D01*
X68155Y-29652D01*
X68160Y-29650D01*
X68166Y-29650D01*
X68170Y-29650D01*
X68176Y-29651D01*
X68181Y-29654D01*
X68185Y-29657D01*
X68188Y-29661D01*
X68191Y-29666D01*
X68193Y-29671D01*
X68193Y-29677D01*
X68194Y-29677D01*
G54D15*
X68107Y-29637D02*
X68118Y-29636D01*
X68130Y-29634D01*
X68142Y-29632D01*
X68153Y-29628D01*
X68164Y-29624D01*
X68175Y-29618D01*
X68185Y-29612D01*
X68195Y-29604D01*
X68203Y-29596D01*
X68211Y-29588D01*
X68219Y-29578D01*
X68225Y-29568D01*
X68231Y-29557D01*
X68235Y-29546D01*
X68239Y-29535D01*
X68241Y-29523D01*
X68243Y-29511D01*
X68244Y-29500D01*
X68243Y-29489D01*
X68241Y-29477D01*
X68239Y-29465D01*
X68235Y-29454D01*
X68231Y-29443D01*
X68225Y-29432D01*
X68219Y-29422D01*
X68211Y-29412D01*
X68203Y-29404D01*
X68195Y-29396D01*
X68185Y-29388D01*
X68175Y-29382D01*
X68164Y-29376D01*
X68153Y-29372D01*
X68142Y-29368D01*
X68130Y-29366D01*
X68118Y-29364D01*
X68107Y-29363D01*
X68893Y-29363D02*
X68882Y-29364D01*
X68870Y-29366D01*
X68858Y-29368D01*
X68847Y-29372D01*
X68836Y-29376D01*
X68825Y-29382D01*
X68815Y-29388D01*
X68805Y-29396D01*
X68797Y-29404D01*
X68789Y-29412D01*
X68781Y-29422D01*
X68775Y-29432D01*
X68769Y-29443D01*
X68765Y-29454D01*
X68761Y-29465D01*
X68759Y-29477D01*
X68757Y-29489D01*
X68756Y-29500D01*
X68757Y-29511D01*
X68759Y-29523D01*
X68761Y-29535D01*
X68765Y-29546D01*
X68769Y-29557D01*
X68775Y-29568D01*
X68781Y-29578D01*
X68789Y-29588D01*
X68797Y-29596D01*
X68805Y-29604D01*
X68815Y-29612D01*
X68825Y-29618D01*
X68836Y-29624D01*
X68847Y-29628D01*
X68858Y-29632D01*
X68870Y-29634D01*
X68882Y-29636D01*
X68893Y-29637D01*
G54D13*
X65552Y-27656D02*
X65552Y-27364D01*
X65564Y-25650D02*
X65564Y-25350D01*
X66260Y-28192D02*
X67320Y-28192D01*
X66260Y-24808D02*
X67320Y-24808D01*
X68996Y-28188D02*
X68996Y-24804D01*
X68420Y-28192D02*
X69080Y-28192D01*
X68420Y-24808D02*
X69080Y-24808D01*
G54D12*
X62300Y-25100D02*
X61100Y-25100D01*
X61100Y-25100D02*
X61100Y-27900D01*
X61100Y-27900D02*
X62300Y-27900D01*
X63500Y-25100D02*
X63800Y-25100D01*
X63800Y-25100D02*
X64700Y-25700D01*
X64700Y-25700D02*
X64700Y-27300D01*
X64700Y-27300D02*
X63800Y-27900D01*
X63800Y-27900D02*
X63500Y-27900D01*
X59600Y-27900D02*
X60800Y-27900D01*
X60800Y-27900D02*
X60800Y-25100D01*
X60800Y-25100D02*
X59600Y-25100D01*
X58400Y-27900D02*
X58100Y-27900D01*
X58100Y-27900D02*
X57200Y-27300D01*
X57200Y-27300D02*
X57200Y-25700D01*
X57200Y-25700D02*
X58100Y-25100D01*
X58100Y-25100D02*
X58400Y-25100D01*
G54D14*
X46554Y-23282D02*
X46554Y-23154D01*
X46554Y-23154D02*
X46357Y-23154D01*
X46357Y-23282D02*
X46357Y-23154D01*
X46554Y-23282D02*
X46357Y-23282D01*
X46554Y-23527D02*
X46554Y-23468D01*
X46554Y-23468D02*
X46455Y-23468D01*
X46455Y-23527D02*
X46455Y-23468D01*
X46554Y-23527D02*
X46455Y-23527D01*
X46554Y-23332D02*
X46554Y-23273D01*
X46554Y-23273D02*
X46455Y-23273D01*
X46455Y-23332D02*
X46455Y-23273D01*
X46554Y-23332D02*
X46455Y-23332D01*
X46554Y-23478D02*
X46554Y-23322D01*
X46554Y-23322D02*
X46485Y-23322D01*
X46485Y-23478D02*
X46485Y-23322D01*
X46554Y-23478D02*
X46485Y-23478D01*
X47143Y-23282D02*
X47143Y-23154D01*
X47143Y-23154D02*
X46946Y-23154D01*
X46946Y-23282D02*
X46946Y-23154D01*
X47143Y-23282D02*
X46946Y-23282D01*
X47143Y-23646D02*
X47143Y-23518D01*
X47143Y-23518D02*
X46946Y-23518D01*
X46946Y-23646D02*
X46946Y-23518D01*
X47143Y-23646D02*
X46946Y-23646D01*
X47045Y-23332D02*
X47045Y-23273D01*
X47045Y-23273D02*
X46946Y-23273D01*
X46946Y-23332D02*
X46946Y-23273D01*
X47045Y-23332D02*
X46946Y-23332D01*
X47045Y-23527D02*
X47045Y-23468D01*
X47045Y-23468D02*
X46946Y-23468D01*
X46946Y-23527D02*
X46946Y-23468D01*
X47045Y-23527D02*
X46946Y-23527D01*
X47015Y-23478D02*
X47015Y-23322D01*
X47015Y-23322D02*
X46946Y-23322D01*
X46946Y-23478D02*
X46946Y-23322D01*
X47015Y-23478D02*
X46946Y-23478D01*
X46750Y-23439D02*
X46750Y-23361D01*
X46750Y-23361D02*
X46672Y-23361D01*
X46672Y-23439D02*
X46672Y-23361D01*
X46750Y-23439D02*
X46672Y-23439D01*
X46554Y-23636D02*
X46554Y-23518D01*
X46554Y-23518D02*
X46436Y-23518D01*
X46436Y-23636D02*
X46436Y-23518D01*
X46554Y-23636D02*
X46436Y-23636D01*
X46386Y-23646D02*
X46386Y-23557D01*
X46386Y-23557D02*
X46357Y-23557D01*
X46357Y-23646D02*
X46357Y-23557D01*
X46386Y-23646D02*
X46357Y-23646D01*
G54D15*
X46544Y-23174D02*
X46956Y-23174D01*
X46946Y-23626D02*
X46386Y-23626D01*
G54D16*
X46444Y-23577D02*
X46443Y-23582D01*
X46441Y-23587D01*
X46439Y-23592D01*
X46435Y-23596D01*
X46431Y-23600D01*
X46426Y-23602D01*
X46421Y-23604D01*
X46416Y-23604D01*
X46411Y-23604D01*
X46406Y-23602D01*
X46401Y-23600D01*
X46397Y-23597D01*
X46393Y-23592D01*
X46391Y-23588D01*
X46389Y-23582D01*
X46389Y-23577D01*
X46389Y-23572D01*
X46390Y-23567D01*
X46393Y-23562D01*
X46396Y-23558D01*
X46401Y-23555D01*
X46405Y-23552D01*
X46410Y-23550D01*
X46416Y-23550D01*
X46420Y-23550D01*
X46426Y-23551D01*
X46431Y-23554D01*
X46435Y-23557D01*
X46438Y-23561D01*
X46441Y-23566D01*
X46443Y-23571D01*
X46443Y-23577D01*
X46444Y-23577D01*
G54D15*
X46357Y-23537D02*
X46368Y-23536D01*
X46380Y-23534D01*
X46392Y-23532D01*
X46403Y-23528D01*
X46414Y-23524D01*
X46425Y-23518D01*
X46435Y-23512D01*
X46445Y-23504D01*
X46453Y-23496D01*
X46461Y-23488D01*
X46469Y-23478D01*
X46475Y-23468D01*
X46481Y-23457D01*
X46485Y-23446D01*
X46489Y-23435D01*
X46491Y-23423D01*
X46493Y-23411D01*
X46494Y-23400D01*
X46493Y-23389D01*
X46491Y-23377D01*
X46489Y-23365D01*
X46485Y-23354D01*
X46481Y-23343D01*
X46475Y-23332D01*
X46469Y-23322D01*
X46461Y-23312D01*
X46453Y-23304D01*
X46445Y-23296D01*
X46435Y-23288D01*
X46425Y-23282D01*
X46414Y-23276D01*
X46403Y-23272D01*
X46392Y-23268D01*
X46380Y-23266D01*
X46368Y-23264D01*
X46357Y-23263D01*
X47143Y-23263D02*
X47132Y-23264D01*
X47120Y-23266D01*
X47108Y-23268D01*
X47097Y-23272D01*
X47086Y-23276D01*
X47075Y-23282D01*
X47065Y-23288D01*
X47055Y-23296D01*
X47047Y-23304D01*
X47039Y-23312D01*
X47031Y-23322D01*
X47025Y-23332D01*
X47019Y-23343D01*
X47015Y-23354D01*
X47011Y-23365D01*
X47009Y-23377D01*
X47007Y-23389D01*
X47006Y-23400D01*
X47007Y-23411D01*
X47009Y-23423D01*
X47011Y-23435D01*
X47015Y-23446D01*
X47019Y-23457D01*
X47025Y-23468D01*
X47031Y-23478D01*
X47039Y-23488D01*
X47047Y-23496D01*
X47055Y-23504D01*
X47065Y-23512D01*
X47075Y-23518D01*
X47086Y-23524D01*
X47097Y-23528D01*
X47108Y-23532D01*
X47120Y-23534D01*
X47132Y-23536D01*
X47143Y-23537D01*
G54D14*
X46554Y-23932D02*
X46554Y-23804D01*
X46554Y-23804D02*
X46357Y-23804D01*
X46357Y-23932D02*
X46357Y-23804D01*
X46554Y-23932D02*
X46357Y-23932D01*
X46554Y-24177D02*
X46554Y-24118D01*
X46554Y-24118D02*
X46455Y-24118D01*
X46455Y-24177D02*
X46455Y-24118D01*
X46554Y-24177D02*
X46455Y-24177D01*
X46554Y-23982D02*
X46554Y-23923D01*
X46554Y-23923D02*
X46455Y-23923D01*
X46455Y-23982D02*
X46455Y-23923D01*
X46554Y-23982D02*
X46455Y-23982D01*
X46554Y-24128D02*
X46554Y-23972D01*
X46554Y-23972D02*
X46485Y-23972D01*
X46485Y-24128D02*
X46485Y-23972D01*
X46554Y-24128D02*
X46485Y-24128D01*
X47143Y-23932D02*
X47143Y-23804D01*
X47143Y-23804D02*
X46946Y-23804D01*
X46946Y-23932D02*
X46946Y-23804D01*
X47143Y-23932D02*
X46946Y-23932D01*
X47143Y-24296D02*
X47143Y-24168D01*
X47143Y-24168D02*
X46946Y-24168D01*
X46946Y-24296D02*
X46946Y-24168D01*
X47143Y-24296D02*
X46946Y-24296D01*
X47045Y-23982D02*
X47045Y-23923D01*
X47045Y-23923D02*
X46946Y-23923D01*
X46946Y-23982D02*
X46946Y-23923D01*
X47045Y-23982D02*
X46946Y-23982D01*
X47045Y-24177D02*
X47045Y-24118D01*
X47045Y-24118D02*
X46946Y-24118D01*
X46946Y-24177D02*
X46946Y-24118D01*
X47045Y-24177D02*
X46946Y-24177D01*
X47015Y-24128D02*
X47015Y-23972D01*
X47015Y-23972D02*
X46946Y-23972D01*
X46946Y-24128D02*
X46946Y-23972D01*
X47015Y-24128D02*
X46946Y-24128D01*
X46750Y-24089D02*
X46750Y-24011D01*
X46750Y-24011D02*
X46672Y-24011D01*
X46672Y-24089D02*
X46672Y-24011D01*
X46750Y-24089D02*
X46672Y-24089D01*
X46554Y-24286D02*
X46554Y-24168D01*
X46554Y-24168D02*
X46436Y-24168D01*
X46436Y-24286D02*
X46436Y-24168D01*
X46554Y-24286D02*
X46436Y-24286D01*
X46386Y-24296D02*
X46386Y-24207D01*
X46386Y-24207D02*
X46357Y-24207D01*
X46357Y-24296D02*
X46357Y-24207D01*
X46386Y-24296D02*
X46357Y-24296D01*
G54D15*
X46544Y-23824D02*
X46956Y-23824D01*
X46946Y-24276D02*
X46386Y-24276D01*
G54D16*
X46444Y-24227D02*
X46443Y-24232D01*
X46441Y-24237D01*
X46439Y-24242D01*
X46435Y-24246D01*
X46431Y-24250D01*
X46426Y-24252D01*
X46421Y-24254D01*
X46416Y-24254D01*
X46411Y-24254D01*
X46406Y-24252D01*
X46401Y-24250D01*
X46397Y-24247D01*
X46393Y-24242D01*
X46391Y-24238D01*
X46389Y-24232D01*
X46389Y-24227D01*
X46389Y-24222D01*
X46390Y-24217D01*
X46393Y-24212D01*
X46396Y-24208D01*
X46401Y-24205D01*
X46405Y-24202D01*
X46410Y-24200D01*
X46416Y-24200D01*
X46420Y-24200D01*
X46426Y-24201D01*
X46431Y-24204D01*
X46435Y-24207D01*
X46438Y-24211D01*
X46441Y-24216D01*
X46443Y-24221D01*
X46443Y-24227D01*
X46444Y-24227D01*
G54D15*
X46357Y-24187D02*
X46368Y-24186D01*
X46380Y-24184D01*
X46392Y-24182D01*
X46403Y-24178D01*
X46414Y-24174D01*
X46425Y-24168D01*
X46435Y-24162D01*
X46445Y-24154D01*
X46453Y-24146D01*
X46461Y-24138D01*
X46469Y-24128D01*
X46475Y-24118D01*
X46481Y-24107D01*
X46485Y-24096D01*
X46489Y-24085D01*
X46491Y-24073D01*
X46493Y-24061D01*
X46494Y-24050D01*
X46493Y-24039D01*
X46491Y-24027D01*
X46489Y-24015D01*
X46485Y-24004D01*
X46481Y-23993D01*
X46475Y-23982D01*
X46469Y-23972D01*
X46461Y-23962D01*
X46453Y-23954D01*
X46445Y-23946D01*
X46435Y-23938D01*
X46425Y-23932D01*
X46414Y-23926D01*
X46403Y-23922D01*
X46392Y-23918D01*
X46380Y-23916D01*
X46368Y-23914D01*
X46357Y-23913D01*
X47143Y-23913D02*
X47132Y-23914D01*
X47120Y-23916D01*
X47108Y-23918D01*
X47097Y-23922D01*
X47086Y-23926D01*
X47075Y-23932D01*
X47065Y-23938D01*
X47055Y-23946D01*
X47047Y-23954D01*
X47039Y-23962D01*
X47031Y-23972D01*
X47025Y-23982D01*
X47019Y-23993D01*
X47015Y-24004D01*
X47011Y-24015D01*
X47009Y-24027D01*
X47007Y-24039D01*
X47006Y-24050D01*
X47007Y-24061D01*
X47009Y-24073D01*
X47011Y-24085D01*
X47015Y-24096D01*
X47019Y-24107D01*
X47025Y-24118D01*
X47031Y-24128D01*
X47039Y-24138D01*
X47047Y-24146D01*
X47055Y-24154D01*
X47065Y-24162D01*
X47075Y-24168D01*
X47086Y-24174D01*
X47097Y-24178D01*
X47108Y-24182D01*
X47120Y-24184D01*
X47132Y-24186D01*
X47143Y-24187D01*
G54D14*
X64646Y-28368D02*
X64646Y-28496D01*
X64646Y-28496D02*
X64843Y-28496D01*
X64843Y-28368D02*
X64843Y-28496D01*
X64646Y-28368D02*
X64843Y-28368D01*
X64646Y-28123D02*
X64646Y-28182D01*
X64646Y-28182D02*
X64745Y-28182D01*
X64745Y-28123D02*
X64745Y-28182D01*
X64646Y-28123D02*
X64745Y-28123D01*
X64646Y-28318D02*
X64646Y-28377D01*
X64646Y-28377D02*
X64745Y-28377D01*
X64745Y-28318D02*
X64745Y-28377D01*
X64646Y-28318D02*
X64745Y-28318D01*
X64646Y-28172D02*
X64646Y-28328D01*
X64646Y-28328D02*
X64715Y-28328D01*
X64715Y-28172D02*
X64715Y-28328D01*
X64646Y-28172D02*
X64715Y-28172D01*
X64057Y-28368D02*
X64057Y-28496D01*
X64057Y-28496D02*
X64254Y-28496D01*
X64254Y-28368D02*
X64254Y-28496D01*
X64057Y-28368D02*
X64254Y-28368D01*
X64057Y-28004D02*
X64057Y-28132D01*
X64057Y-28132D02*
X64254Y-28132D01*
X64254Y-28004D02*
X64254Y-28132D01*
X64057Y-28004D02*
X64254Y-28004D01*
X64155Y-28318D02*
X64155Y-28377D01*
X64155Y-28377D02*
X64254Y-28377D01*
X64254Y-28318D02*
X64254Y-28377D01*
X64155Y-28318D02*
X64254Y-28318D01*
X64155Y-28123D02*
X64155Y-28182D01*
X64155Y-28182D02*
X64254Y-28182D01*
X64254Y-28123D02*
X64254Y-28182D01*
X64155Y-28123D02*
X64254Y-28123D01*
X64185Y-28172D02*
X64185Y-28328D01*
X64185Y-28328D02*
X64254Y-28328D01*
X64254Y-28172D02*
X64254Y-28328D01*
X64185Y-28172D02*
X64254Y-28172D01*
X64450Y-28211D02*
X64450Y-28289D01*
X64450Y-28289D02*
X64528Y-28289D01*
X64528Y-28211D02*
X64528Y-28289D01*
X64450Y-28211D02*
X64528Y-28211D01*
X64646Y-28014D02*
X64646Y-28132D01*
X64646Y-28132D02*
X64764Y-28132D01*
X64764Y-28014D02*
X64764Y-28132D01*
X64646Y-28014D02*
X64764Y-28014D01*
X64814Y-28004D02*
X64814Y-28093D01*
X64814Y-28093D02*
X64843Y-28093D01*
X64843Y-28004D02*
X64843Y-28093D01*
X64814Y-28004D02*
X64843Y-28004D01*
G54D15*
X64656Y-28476D02*
X64244Y-28476D01*
X64254Y-28024D02*
X64814Y-28024D01*
G54D16*
X64812Y-28073D02*
X64811Y-28078D01*
X64809Y-28083D01*
X64807Y-28088D01*
X64803Y-28092D01*
X64799Y-28096D01*
X64794Y-28098D01*
X64789Y-28100D01*
X64784Y-28100D01*
X64779Y-28100D01*
X64774Y-28098D01*
X64769Y-28096D01*
X64765Y-28093D01*
X64761Y-28088D01*
X64759Y-28084D01*
X64757Y-28078D01*
X64757Y-28073D01*
X64757Y-28068D01*
X64758Y-28063D01*
X64761Y-28058D01*
X64764Y-28054D01*
X64769Y-28051D01*
X64773Y-28048D01*
X64778Y-28046D01*
X64784Y-28046D01*
X64788Y-28046D01*
X64794Y-28047D01*
X64799Y-28050D01*
X64803Y-28053D01*
X64806Y-28057D01*
X64809Y-28062D01*
X64811Y-28067D01*
X64811Y-28073D01*
X64812Y-28073D01*
G54D15*
X64843Y-28113D02*
X64832Y-28114D01*
X64820Y-28116D01*
X64808Y-28118D01*
X64797Y-28122D01*
X64786Y-28126D01*
X64775Y-28132D01*
X64765Y-28138D01*
X64755Y-28146D01*
X64747Y-28154D01*
X64739Y-28162D01*
X64731Y-28172D01*
X64725Y-28182D01*
X64719Y-28193D01*
X64715Y-28204D01*
X64711Y-28215D01*
X64709Y-28227D01*
X64707Y-28239D01*
X64706Y-28250D01*
X64707Y-28261D01*
X64709Y-28273D01*
X64711Y-28285D01*
X64715Y-28296D01*
X64719Y-28307D01*
X64725Y-28318D01*
X64731Y-28328D01*
X64739Y-28338D01*
X64747Y-28346D01*
X64755Y-28354D01*
X64765Y-28362D01*
X64775Y-28368D01*
X64786Y-28374D01*
X64797Y-28378D01*
X64808Y-28382D01*
X64820Y-28384D01*
X64832Y-28386D01*
X64843Y-28387D01*
X64057Y-28387D02*
X64068Y-28386D01*
X64080Y-28384D01*
X64092Y-28382D01*
X64103Y-28378D01*
X64114Y-28374D01*
X64125Y-28368D01*
X64135Y-28362D01*
X64145Y-28354D01*
X64153Y-28346D01*
X64161Y-28338D01*
X64169Y-28328D01*
X64175Y-28318D01*
X64181Y-28307D01*
X64185Y-28296D01*
X64189Y-28285D01*
X64191Y-28273D01*
X64193Y-28261D01*
X64194Y-28250D01*
X64193Y-28239D01*
X64191Y-28227D01*
X64189Y-28215D01*
X64185Y-28204D01*
X64181Y-28193D01*
X64175Y-28182D01*
X64169Y-28172D01*
X64161Y-28162D01*
X64153Y-28154D01*
X64145Y-28146D01*
X64135Y-28138D01*
X64125Y-28132D01*
X64114Y-28126D01*
X64103Y-28122D01*
X64092Y-28118D01*
X64080Y-28116D01*
X64068Y-28114D01*
X64057Y-28113D01*
G54D17*
X69600Y-22600D02*
X44400Y-22600D01*
X69600Y-22600D02*
X69600Y-21400D01*
X69600Y-21400D02*
X44400Y-21400D01*
X44400Y-22600D02*
X44400Y-21400D01*
X69600Y-31100D02*
X44400Y-31100D01*
X69600Y-31100D02*
X69600Y-29900D01*
X69600Y-29900D02*
X44400Y-29900D01*
X44400Y-31100D02*
X44400Y-29900D01*
G54D13*
X47550Y-24450D02*
X48450Y-24450D01*
X48450Y-24450D02*
X48450Y-24950D01*
X48450Y-24950D02*
X47550Y-24950D01*
X47550Y-24950D02*
X47550Y-24450D01*
G54D14*
X46554Y-24582D02*
X46554Y-24454D01*
X46554Y-24454D02*
X46357Y-24454D01*
X46357Y-24582D02*
X46357Y-24454D01*
X46554Y-24582D02*
X46357Y-24582D01*
X46554Y-24827D02*
X46554Y-24768D01*
X46554Y-24768D02*
X46455Y-24768D01*
X46455Y-24827D02*
X46455Y-24768D01*
X46554Y-24827D02*
X46455Y-24827D01*
X46554Y-24632D02*
X46554Y-24573D01*
X46554Y-24573D02*
X46455Y-24573D01*
X46455Y-24632D02*
X46455Y-24573D01*
X46554Y-24632D02*
X46455Y-24632D01*
X46554Y-24778D02*
X46554Y-24622D01*
X46554Y-24622D02*
X46485Y-24622D01*
X46485Y-24778D02*
X46485Y-24622D01*
X46554Y-24778D02*
X46485Y-24778D01*
X47143Y-24582D02*
X47143Y-24454D01*
X47143Y-24454D02*
X46946Y-24454D01*
X46946Y-24582D02*
X46946Y-24454D01*
X47143Y-24582D02*
X46946Y-24582D01*
X47143Y-24946D02*
X47143Y-24818D01*
X47143Y-24818D02*
X46946Y-24818D01*
X46946Y-24946D02*
X46946Y-24818D01*
X47143Y-24946D02*
X46946Y-24946D01*
X47045Y-24632D02*
X47045Y-24573D01*
X47045Y-24573D02*
X46946Y-24573D01*
X46946Y-24632D02*
X46946Y-24573D01*
X47045Y-24632D02*
X46946Y-24632D01*
X47045Y-24827D02*
X47045Y-24768D01*
X47045Y-24768D02*
X46946Y-24768D01*
X46946Y-24827D02*
X46946Y-24768D01*
X47045Y-24827D02*
X46946Y-24827D01*
X47015Y-24778D02*
X47015Y-24622D01*
X47015Y-24622D02*
X46946Y-24622D01*
X46946Y-24778D02*
X46946Y-24622D01*
X47015Y-24778D02*
X46946Y-24778D01*
X46750Y-24739D02*
X46750Y-24661D01*
X46750Y-24661D02*
X46672Y-24661D01*
X46672Y-24739D02*
X46672Y-24661D01*
X46750Y-24739D02*
X46672Y-24739D01*
X46554Y-24936D02*
X46554Y-24818D01*
X46554Y-24818D02*
X46436Y-24818D01*
X46436Y-24936D02*
X46436Y-24818D01*
X46554Y-24936D02*
X46436Y-24936D01*
X46386Y-24946D02*
X46386Y-24857D01*
X46386Y-24857D02*
X46357Y-24857D01*
X46357Y-24946D02*
X46357Y-24857D01*
X46386Y-24946D02*
X46357Y-24946D01*
G54D15*
X46544Y-24474D02*
X46956Y-24474D01*
X46946Y-24926D02*
X46386Y-24926D01*
G54D16*
X46444Y-24877D02*
X46443Y-24882D01*
X46441Y-24887D01*
X46439Y-24892D01*
X46435Y-24896D01*
X46431Y-24900D01*
X46426Y-24902D01*
X46421Y-24904D01*
X46416Y-24904D01*
X46411Y-24904D01*
X46406Y-24902D01*
X46401Y-24900D01*
X46397Y-24897D01*
X46393Y-24892D01*
X46391Y-24888D01*
X46389Y-24882D01*
X46389Y-24877D01*
X46389Y-24872D01*
X46390Y-24867D01*
X46393Y-24862D01*
X46396Y-24858D01*
X46401Y-24855D01*
X46405Y-24852D01*
X46410Y-24850D01*
X46416Y-24850D01*
X46420Y-24850D01*
X46426Y-24851D01*
X46431Y-24854D01*
X46435Y-24857D01*
X46438Y-24861D01*
X46441Y-24866D01*
X46443Y-24871D01*
X46443Y-24877D01*
X46444Y-24877D01*
G54D15*
X46357Y-24837D02*
X46368Y-24836D01*
X46380Y-24834D01*
X46392Y-24832D01*
X46403Y-24828D01*
X46414Y-24824D01*
X46425Y-24818D01*
X46435Y-24812D01*
X46445Y-24804D01*
X46453Y-24796D01*
X46461Y-24788D01*
X46469Y-24778D01*
X46475Y-24768D01*
X46481Y-24757D01*
X46485Y-24746D01*
X46489Y-24735D01*
X46491Y-24723D01*
X46493Y-24711D01*
X46494Y-24700D01*
X46493Y-24689D01*
X46491Y-24677D01*
X46489Y-24665D01*
X46485Y-24654D01*
X46481Y-24643D01*
X46475Y-24632D01*
X46469Y-24622D01*
X46461Y-24612D01*
X46453Y-24604D01*
X46445Y-24596D01*
X46435Y-24588D01*
X46425Y-24582D01*
X46414Y-24576D01*
X46403Y-24572D01*
X46392Y-24568D01*
X46380Y-24566D01*
X46368Y-24564D01*
X46357Y-24563D01*
X47143Y-24563D02*
X47132Y-24564D01*
X47120Y-24566D01*
X47108Y-24568D01*
X47097Y-24572D01*
X47086Y-24576D01*
X47075Y-24582D01*
X47065Y-24588D01*
X47055Y-24596D01*
X47047Y-24604D01*
X47039Y-24612D01*
X47031Y-24622D01*
X47025Y-24632D01*
X47019Y-24643D01*
X47015Y-24654D01*
X47011Y-24665D01*
X47009Y-24677D01*
X47007Y-24689D01*
X47006Y-24700D01*
X47007Y-24711D01*
X47009Y-24723D01*
X47011Y-24735D01*
X47015Y-24746D01*
X47019Y-24757D01*
X47025Y-24768D01*
X47031Y-24778D01*
X47039Y-24788D01*
X47047Y-24796D01*
X47055Y-24804D01*
X47065Y-24812D01*
X47075Y-24818D01*
X47086Y-24824D01*
X47097Y-24828D01*
X47108Y-24832D01*
X47120Y-24834D01*
X47132Y-24836D01*
X47143Y-24837D01*
G54D11*
X47458Y-25750D02*
X47454Y-25780D01*
X47446Y-25810D01*
X47431Y-25837D01*
X47412Y-25861D01*
X47388Y-25880D01*
X47361Y-25895D01*
X47331Y-25904D01*
X47301Y-25907D01*
X47271Y-25905D01*
X47241Y-25896D01*
X47214Y-25882D01*
X47190Y-25862D01*
X47170Y-25839D01*
X47155Y-25812D01*
X47146Y-25782D01*
X47143Y-25752D01*
X47145Y-25722D01*
X47154Y-25692D01*
X47168Y-25665D01*
X47187Y-25641D01*
X47210Y-25621D01*
X47237Y-25606D01*
X47267Y-25596D01*
X47297Y-25593D01*
X47327Y-25595D01*
X47357Y-25603D01*
X47384Y-25617D01*
X47408Y-25636D01*
X47429Y-25659D01*
X47444Y-25686D01*
X47454Y-25715D01*
X47457Y-25746D01*
X47458Y-25750D01*
X46800Y-26250D02*
X47800Y-26250D01*
X47300Y-25250D02*
X47300Y-25750D01*
X47300Y-26750D02*
X47300Y-26250D01*
X46300Y-25250D02*
X48300Y-25250D01*
X46300Y-26750D02*
X48300Y-26750D01*
X47458Y-27800D02*
X47454Y-27830D01*
X47446Y-27860D01*
X47431Y-27887D01*
X47412Y-27911D01*
X47388Y-27930D01*
X47361Y-27945D01*
X47331Y-27954D01*
X47301Y-27957D01*
X47271Y-27955D01*
X47241Y-27946D01*
X47214Y-27932D01*
X47190Y-27912D01*
X47170Y-27889D01*
X47155Y-27862D01*
X47146Y-27832D01*
X47143Y-27802D01*
X47145Y-27772D01*
X47154Y-27742D01*
X47168Y-27715D01*
X47187Y-27691D01*
X47210Y-27671D01*
X47237Y-27656D01*
X47267Y-27646D01*
X47297Y-27643D01*
X47327Y-27645D01*
X47357Y-27653D01*
X47384Y-27667D01*
X47408Y-27686D01*
X47429Y-27709D01*
X47444Y-27736D01*
X47454Y-27765D01*
X47457Y-27796D01*
X47458Y-27800D01*
X46800Y-28300D02*
X47800Y-28300D01*
X47300Y-27300D02*
X47300Y-27800D01*
X47300Y-28800D02*
X47300Y-28300D01*
X46300Y-27300D02*
X48300Y-27300D01*
X46300Y-28800D02*
X48300Y-28800D01*
G54D18*
X56374Y-23143D02*
X56374Y-23629D01*
X56393Y-23686D01*
X56412Y-23714D01*
X56450Y-23743D01*
X56527Y-23743D01*
X56565Y-23714D01*
X56584Y-23686D01*
X56603Y-23629D01*
X56603Y-23143D01*
X56774Y-23200D02*
X56793Y-23171D01*
X56831Y-23143D01*
X56927Y-23143D01*
X56965Y-23171D01*
X56984Y-23200D01*
X57003Y-23257D01*
X57003Y-23314D01*
X56984Y-23400D01*
X56755Y-23743D01*
X57003Y-23743D01*
X57250Y-23143D02*
X57289Y-23143D01*
X57327Y-23171D01*
X57346Y-23200D01*
X57365Y-23257D01*
X57384Y-23371D01*
X57384Y-23514D01*
X57365Y-23629D01*
X57346Y-23686D01*
X57327Y-23714D01*
X57289Y-23743D01*
X57250Y-23743D01*
X57212Y-23714D01*
X57193Y-23686D01*
X57174Y-23629D01*
X57155Y-23514D01*
X57155Y-23371D01*
X57174Y-23257D01*
X57193Y-23200D01*
X57212Y-23171D01*
X57250Y-23143D01*
X57765Y-23743D02*
X57536Y-23743D01*
X57650Y-23743D02*
X57650Y-23143D01*
X57612Y-23229D01*
X57574Y-23286D01*
X57536Y-23314D01*
X50963Y-24233D02*
X51230Y-24833D01*
X51230Y-24233D02*
X50963Y-24833D01*
X51611Y-24776D02*
X51592Y-24804D01*
X51535Y-24833D01*
X51497Y-24833D01*
X51439Y-24804D01*
X51401Y-24747D01*
X51382Y-24690D01*
X51363Y-24576D01*
X51363Y-24490D01*
X51382Y-24376D01*
X51401Y-24319D01*
X51439Y-24261D01*
X51497Y-24233D01*
X51535Y-24233D01*
X51592Y-24261D01*
X51611Y-24290D01*
X51744Y-24233D02*
X51992Y-24233D01*
X51858Y-24461D01*
X51916Y-24461D01*
X51954Y-24490D01*
X51973Y-24519D01*
X51992Y-24576D01*
X51992Y-24719D01*
X51973Y-24776D01*
X51954Y-24804D01*
X51916Y-24833D01*
X51801Y-24833D01*
X51763Y-24804D01*
X51744Y-24776D01*
X52144Y-24804D02*
X52201Y-24833D01*
X52297Y-24833D01*
X52335Y-24804D01*
X52354Y-24776D01*
X52373Y-24719D01*
X52373Y-24661D01*
X52354Y-24604D01*
X52335Y-24576D01*
X52297Y-24547D01*
X52220Y-24519D01*
X52182Y-24490D01*
X52163Y-24461D01*
X52144Y-24404D01*
X52144Y-24347D01*
X52163Y-24290D01*
X52182Y-24261D01*
X52220Y-24233D01*
X52316Y-24233D01*
X52373Y-24261D01*
X52735Y-24233D02*
X52544Y-24233D01*
X52525Y-24519D01*
X52544Y-24490D01*
X52582Y-24461D01*
X52678Y-24461D01*
X52716Y-24490D01*
X52735Y-24519D01*
X52754Y-24576D01*
X52754Y-24719D01*
X52735Y-24776D01*
X52716Y-24804D01*
X52678Y-24833D01*
X52582Y-24833D01*
X52544Y-24804D01*
X52525Y-24776D01*
X53001Y-24233D02*
X53040Y-24233D01*
X53078Y-24261D01*
X53097Y-24290D01*
X53116Y-24347D01*
X53135Y-24461D01*
X53135Y-24604D01*
X53116Y-24719D01*
X53097Y-24776D01*
X53078Y-24804D01*
X53040Y-24833D01*
X53001Y-24833D01*
X52963Y-24804D01*
X52944Y-24776D01*
X52925Y-24719D01*
X52906Y-24604D01*
X52906Y-24461D01*
X52925Y-24347D01*
X52944Y-24290D01*
X52963Y-24261D01*
X53001Y-24233D01*
X53287Y-24661D02*
X53478Y-24661D01*
X53249Y-24833D02*
X53382Y-24233D01*
X53516Y-24833D01*
X53649Y-24604D02*
X53954Y-24604D01*
X54087Y-24233D02*
X54220Y-24833D01*
X54354Y-24233D01*
X54754Y-24890D02*
X54716Y-24861D01*
X54678Y-24804D01*
X54621Y-24719D01*
X54582Y-24690D01*
X54544Y-24690D01*
X54563Y-24833D02*
X54525Y-24804D01*
X54487Y-24747D01*
X54468Y-24633D01*
X54468Y-24433D01*
X54487Y-24319D01*
X54525Y-24261D01*
X54563Y-24233D01*
X54640Y-24233D01*
X54678Y-24261D01*
X54716Y-24319D01*
X54735Y-24433D01*
X54735Y-24633D01*
X54716Y-24747D01*
X54678Y-24804D01*
X54640Y-24833D01*
X54563Y-24833D01*
X55116Y-24833D02*
X54887Y-24833D01*
X55001Y-24833D02*
X55001Y-24233D01*
X54963Y-24319D01*
X54925Y-24376D01*
X54887Y-24404D01*
X55363Y-24233D02*
X55402Y-24233D01*
X55440Y-24261D01*
X55459Y-24290D01*
X55478Y-24347D01*
X55497Y-24461D01*
X55497Y-24604D01*
X55478Y-24719D01*
X55459Y-24776D01*
X55440Y-24804D01*
X55402Y-24833D01*
X55363Y-24833D01*
X55325Y-24804D01*
X55306Y-24776D01*
X55287Y-24719D01*
X55268Y-24604D01*
X55268Y-24461D01*
X55287Y-24347D01*
X55306Y-24290D01*
X55325Y-24261D01*
X55363Y-24233D01*
X55744Y-24233D02*
X55783Y-24233D01*
X55821Y-24261D01*
X55840Y-24290D01*
X55859Y-24347D01*
X55878Y-24461D01*
X55878Y-24604D01*
X55859Y-24719D01*
X55840Y-24776D01*
X55821Y-24804D01*
X55783Y-24833D01*
X55744Y-24833D01*
X55706Y-24804D01*
X55687Y-24776D01*
X55668Y-24719D01*
X55649Y-24604D01*
X55649Y-24461D01*
X55668Y-24347D01*
X55687Y-24290D01*
X55706Y-24261D01*
X55744Y-24233D01*
G54D19*
X48630Y-23533D02*
X48570Y-23400D01*
X48527Y-23533D02*
X48527Y-23253D01*
X48595Y-23253D01*
X48613Y-23267D01*
X48621Y-23280D01*
X48630Y-23307D01*
X48630Y-23347D01*
X48621Y-23373D01*
X48613Y-23387D01*
X48595Y-23400D01*
X48527Y-23400D01*
X48698Y-23280D02*
X48707Y-23267D01*
X48724Y-23253D01*
X48767Y-23253D01*
X48784Y-23267D01*
X48793Y-23280D01*
X48801Y-23307D01*
X48801Y-23333D01*
X48793Y-23373D01*
X48690Y-23533D01*
X48801Y-23533D01*
X48912Y-23253D02*
X48929Y-23253D01*
X48946Y-23267D01*
X48955Y-23280D01*
X48964Y-23307D01*
X48972Y-23360D01*
X48972Y-23427D01*
X48964Y-23480D01*
X48955Y-23507D01*
X48946Y-23520D01*
X48929Y-23533D01*
X48912Y-23533D01*
X48895Y-23520D01*
X48886Y-23507D01*
X48878Y-23480D01*
X48869Y-23427D01*
X48869Y-23360D01*
X48878Y-23307D01*
X48886Y-23280D01*
X48895Y-23267D01*
X48912Y-23253D01*
X49126Y-23253D02*
X49092Y-23253D01*
X49075Y-23267D01*
X49066Y-23280D01*
X49049Y-23320D01*
X49040Y-23373D01*
X49040Y-23480D01*
X49049Y-23507D01*
X49057Y-23520D01*
X49075Y-23533D01*
X49109Y-23533D01*
X49126Y-23520D01*
X49135Y-23507D01*
X49143Y-23480D01*
X49143Y-23413D01*
X49135Y-23387D01*
X49126Y-23373D01*
X49109Y-23360D01*
X49075Y-23360D01*
X49057Y-23373D01*
X49049Y-23387D01*
X49040Y-23413D01*
X48650Y-24193D02*
X48590Y-24060D01*
X48547Y-24193D02*
X48547Y-23913D01*
X48615Y-23913D01*
X48633Y-23927D01*
X48641Y-23940D01*
X48650Y-23967D01*
X48650Y-24007D01*
X48641Y-24033D01*
X48633Y-24047D01*
X48615Y-24060D01*
X48547Y-24060D01*
X48718Y-23940D02*
X48727Y-23927D01*
X48744Y-23913D01*
X48787Y-23913D01*
X48804Y-23927D01*
X48813Y-23940D01*
X48821Y-23967D01*
X48821Y-23993D01*
X48813Y-24033D01*
X48710Y-24193D01*
X48821Y-24193D01*
X48932Y-23913D02*
X48949Y-23913D01*
X48966Y-23927D01*
X48975Y-23940D01*
X48984Y-23967D01*
X48992Y-24020D01*
X48992Y-24087D01*
X48984Y-24140D01*
X48975Y-24167D01*
X48966Y-24180D01*
X48949Y-24193D01*
X48932Y-24193D01*
X48915Y-24180D01*
X48906Y-24167D01*
X48898Y-24140D01*
X48889Y-24087D01*
X48889Y-24020D01*
X48898Y-23967D01*
X48906Y-23940D01*
X48915Y-23927D01*
X48932Y-23913D01*
X49052Y-23913D02*
X49172Y-23913D01*
X49095Y-24193D01*
G54D13*
X66792Y-29661D02*
X66792Y-29361D01*
X66864Y-29361D01*
X66907Y-29376D01*
X66935Y-29404D01*
X66950Y-29433D01*
X66964Y-29490D01*
X66964Y-29533D01*
X66950Y-29590D01*
X66935Y-29619D01*
X66907Y-29647D01*
X66864Y-29661D01*
X66792Y-29661D01*
X67221Y-29461D02*
X67221Y-29661D01*
X67150Y-29347D02*
X67078Y-29561D01*
X67264Y-29561D01*
X67436Y-29361D02*
X67464Y-29361D01*
X67493Y-29376D01*
X67507Y-29390D01*
X67521Y-29419D01*
X67536Y-29476D01*
X67536Y-29547D01*
X67521Y-29604D01*
X67507Y-29633D01*
X67493Y-29647D01*
X67464Y-29661D01*
X67436Y-29661D01*
X67407Y-29647D01*
X67393Y-29633D01*
X67378Y-29604D01*
X67364Y-29547D01*
X67364Y-29476D01*
X67378Y-29419D01*
X67393Y-29390D01*
X67407Y-29376D01*
X67436Y-29361D01*
X67822Y-29661D02*
X67650Y-29661D01*
X67736Y-29661D02*
X67736Y-29361D01*
X67707Y-29404D01*
X67679Y-29433D01*
X67650Y-29447D01*
X67578Y-29121D02*
X67578Y-28821D01*
X67693Y-28821D01*
X67721Y-28836D01*
X67736Y-28850D01*
X67750Y-28879D01*
X67750Y-28921D01*
X67736Y-28950D01*
X67721Y-28964D01*
X67693Y-28979D01*
X67578Y-28979D01*
X67850Y-28821D02*
X67921Y-29121D01*
X67978Y-28907D01*
X68036Y-29121D01*
X68107Y-28821D01*
X68393Y-29121D02*
X68293Y-28979D01*
X68221Y-29121D02*
X68221Y-28821D01*
X68336Y-28821D01*
X68364Y-28836D01*
X68379Y-28850D01*
X68393Y-28879D01*
X68393Y-28921D01*
X68379Y-28950D01*
X68364Y-28964D01*
X68336Y-28979D01*
X68221Y-28979D01*
X68450Y-29150D02*
X68679Y-29150D01*
X68893Y-29121D02*
X68750Y-29121D01*
X68750Y-28821D01*
X68993Y-28964D02*
X69093Y-28964D01*
X69136Y-29121D02*
X68993Y-29121D01*
X68993Y-28821D01*
X69136Y-28821D01*
X69264Y-29121D02*
X69264Y-28821D01*
X69336Y-28821D01*
X69379Y-28836D01*
X69407Y-28864D01*
X69422Y-28893D01*
X69436Y-28950D01*
X69436Y-28993D01*
X69422Y-29050D01*
X69407Y-29079D01*
X69379Y-29107D01*
X69336Y-29121D01*
X69264Y-29121D01*
G54D12*
X63014Y-24492D02*
X63014Y-24816D01*
X63033Y-24854D01*
X63052Y-24873D01*
X63090Y-24892D01*
X63167Y-24892D01*
X63205Y-24873D01*
X63224Y-24854D01*
X63243Y-24816D01*
X63243Y-24492D01*
X63605Y-24625D02*
X63605Y-24892D01*
X63509Y-24473D02*
X63414Y-24759D01*
X63662Y-24759D01*
X63890Y-24492D02*
X63929Y-24492D01*
X63967Y-24511D01*
X63986Y-24530D01*
X64005Y-24568D01*
X64024Y-24644D01*
X64024Y-24740D01*
X64005Y-24816D01*
X63986Y-24854D01*
X63967Y-24873D01*
X63929Y-24892D01*
X63890Y-24892D01*
X63852Y-24873D01*
X63833Y-24854D01*
X63814Y-24816D01*
X63795Y-24740D01*
X63795Y-24644D01*
X63814Y-24568D01*
X63833Y-24530D01*
X63852Y-24511D01*
X63890Y-24492D01*
X64405Y-24892D02*
X64176Y-24892D01*
X64290Y-24892D02*
X64290Y-24492D01*
X64252Y-24549D01*
X64214Y-24587D01*
X64176Y-24606D01*
X62498Y-27556D02*
X62498Y-27365D01*
X62612Y-27594D02*
X62212Y-27461D01*
X62612Y-27327D01*
X62612Y-27194D02*
X62212Y-27194D01*
X62212Y-27041D01*
X62231Y-27003D01*
X62250Y-26984D01*
X62288Y-26965D01*
X62345Y-26965D01*
X62383Y-26984D01*
X62402Y-27003D01*
X62421Y-27041D01*
X62421Y-27194D01*
X62612Y-26584D02*
X62612Y-26813D01*
X62612Y-26699D02*
X62212Y-26699D01*
X62269Y-26737D01*
X62307Y-26775D01*
X62326Y-26813D01*
X62612Y-26203D02*
X62612Y-26432D01*
X62612Y-26318D02*
X62212Y-26318D01*
X62269Y-26356D01*
X62307Y-26394D01*
X62326Y-26432D01*
X62250Y-26051D02*
X62231Y-26032D01*
X62212Y-25994D01*
X62212Y-25898D01*
X62231Y-25860D01*
X62250Y-25841D01*
X62288Y-25822D01*
X62326Y-25822D01*
X62383Y-25841D01*
X62612Y-26070D01*
X62612Y-25822D01*
X62250Y-25670D02*
X62231Y-25651D01*
X62212Y-25613D01*
X62212Y-25517D01*
X62231Y-25479D01*
X62250Y-25460D01*
X62288Y-25441D01*
X62326Y-25441D01*
X62383Y-25460D01*
X62612Y-25689D01*
X62612Y-25441D01*
X62650Y-25365D02*
X62650Y-25060D01*
X62212Y-25003D02*
X62212Y-24755D01*
X62364Y-24889D01*
X62364Y-24831D01*
X62383Y-24793D01*
X62402Y-24774D01*
X62440Y-24755D01*
X62536Y-24755D01*
X62574Y-24774D01*
X62593Y-24793D01*
X62612Y-24831D01*
X62612Y-24946D01*
X62593Y-24984D01*
X62574Y-25003D01*
X62574Y-24584D02*
X62593Y-24565D01*
X62612Y-24584D01*
X62593Y-24603D01*
X62574Y-24584D01*
X62612Y-24584D01*
X62212Y-24432D02*
X62212Y-24184D01*
X62364Y-24318D01*
X62364Y-24260D01*
X62383Y-24222D01*
X62402Y-24203D01*
X62440Y-24184D01*
X62536Y-24184D01*
X62574Y-24203D01*
X62593Y-24222D01*
X62612Y-24260D01*
X62612Y-24375D01*
X62593Y-24413D01*
X62574Y-24432D01*
X59254Y-24552D02*
X59254Y-24876D01*
X59273Y-24914D01*
X59292Y-24933D01*
X59330Y-24952D01*
X59407Y-24952D01*
X59445Y-24933D01*
X59464Y-24914D01*
X59483Y-24876D01*
X59483Y-24552D01*
X59845Y-24685D02*
X59845Y-24952D01*
X59749Y-24533D02*
X59654Y-24819D01*
X59902Y-24819D01*
X60130Y-24552D02*
X60169Y-24552D01*
X60207Y-24571D01*
X60226Y-24590D01*
X60245Y-24628D01*
X60264Y-24704D01*
X60264Y-24800D01*
X60245Y-24876D01*
X60226Y-24914D01*
X60207Y-24933D01*
X60169Y-24952D01*
X60130Y-24952D01*
X60092Y-24933D01*
X60073Y-24914D01*
X60054Y-24876D01*
X60035Y-24800D01*
X60035Y-24704D01*
X60054Y-24628D01*
X60073Y-24590D01*
X60092Y-24571D01*
X60130Y-24552D01*
X60416Y-24590D02*
X60435Y-24571D01*
X60473Y-24552D01*
X60569Y-24552D01*
X60607Y-24571D01*
X60626Y-24590D01*
X60645Y-24628D01*
X60645Y-24666D01*
X60626Y-24723D01*
X60397Y-24952D01*
X60645Y-24952D01*
X58718Y-27436D02*
X58718Y-27245D01*
X58832Y-27474D02*
X58432Y-27341D01*
X58832Y-27207D01*
X58832Y-27074D02*
X58432Y-27074D01*
X58432Y-26921D01*
X58451Y-26883D01*
X58470Y-26864D01*
X58508Y-26845D01*
X58565Y-26845D01*
X58603Y-26864D01*
X58622Y-26883D01*
X58641Y-26921D01*
X58641Y-27074D01*
X58832Y-26464D02*
X58832Y-26693D01*
X58832Y-26579D02*
X58432Y-26579D01*
X58489Y-26617D01*
X58527Y-26655D01*
X58546Y-26693D01*
X58832Y-26083D02*
X58832Y-26312D01*
X58832Y-26198D02*
X58432Y-26198D01*
X58489Y-26236D01*
X58527Y-26274D01*
X58546Y-26312D01*
X58470Y-25931D02*
X58451Y-25912D01*
X58432Y-25874D01*
X58432Y-25778D01*
X58451Y-25740D01*
X58470Y-25721D01*
X58508Y-25702D01*
X58546Y-25702D01*
X58603Y-25721D01*
X58832Y-25950D01*
X58832Y-25702D01*
X58470Y-25550D02*
X58451Y-25531D01*
X58432Y-25493D01*
X58432Y-25397D01*
X58451Y-25359D01*
X58470Y-25340D01*
X58508Y-25321D01*
X58546Y-25321D01*
X58603Y-25340D01*
X58832Y-25569D01*
X58832Y-25321D01*
X58870Y-25245D02*
X58870Y-24940D01*
X58832Y-24635D02*
X58832Y-24864D01*
X58832Y-24750D02*
X58432Y-24750D01*
X58489Y-24788D01*
X58527Y-24826D01*
X58546Y-24864D01*
X58794Y-24464D02*
X58813Y-24445D01*
X58832Y-24464D01*
X58813Y-24483D01*
X58794Y-24464D01*
X58832Y-24464D01*
X58470Y-24293D02*
X58451Y-24274D01*
X58432Y-24236D01*
X58432Y-24140D01*
X58451Y-24102D01*
X58470Y-24083D01*
X58508Y-24064D01*
X58546Y-24064D01*
X58603Y-24083D01*
X58832Y-24312D01*
X58832Y-24064D01*
G54D13*
X45022Y-23581D02*
X45022Y-23281D01*
X45094Y-23281D01*
X45137Y-23296D01*
X45165Y-23324D01*
X45180Y-23353D01*
X45194Y-23410D01*
X45194Y-23453D01*
X45180Y-23510D01*
X45165Y-23539D01*
X45137Y-23567D01*
X45094Y-23581D01*
X45022Y-23581D01*
X45308Y-23310D02*
X45322Y-23296D01*
X45351Y-23281D01*
X45422Y-23281D01*
X45451Y-23296D01*
X45465Y-23310D01*
X45480Y-23339D01*
X45480Y-23367D01*
X45465Y-23410D01*
X45294Y-23581D01*
X45480Y-23581D01*
X45666Y-23281D02*
X45694Y-23281D01*
X45723Y-23296D01*
X45737Y-23310D01*
X45751Y-23339D01*
X45766Y-23396D01*
X45766Y-23467D01*
X45751Y-23524D01*
X45737Y-23553D01*
X45723Y-23567D01*
X45694Y-23581D01*
X45666Y-23581D01*
X45637Y-23567D01*
X45623Y-23553D01*
X45608Y-23524D01*
X45594Y-23467D01*
X45594Y-23396D01*
X45608Y-23339D01*
X45623Y-23310D01*
X45637Y-23296D01*
X45666Y-23281D01*
X46052Y-23581D02*
X45880Y-23581D01*
X45966Y-23581D02*
X45966Y-23281D01*
X45937Y-23324D01*
X45909Y-23353D01*
X45880Y-23367D01*
X45002Y-24181D02*
X45002Y-23881D01*
X45074Y-23881D01*
X45117Y-23896D01*
X45145Y-23924D01*
X45160Y-23953D01*
X45174Y-24010D01*
X45174Y-24053D01*
X45160Y-24110D01*
X45145Y-24139D01*
X45117Y-24167D01*
X45074Y-24181D01*
X45002Y-24181D01*
X45288Y-23910D02*
X45302Y-23896D01*
X45331Y-23881D01*
X45402Y-23881D01*
X45431Y-23896D01*
X45445Y-23910D01*
X45460Y-23939D01*
X45460Y-23967D01*
X45445Y-24010D01*
X45274Y-24181D01*
X45460Y-24181D01*
X45646Y-23881D02*
X45674Y-23881D01*
X45703Y-23896D01*
X45717Y-23910D01*
X45731Y-23939D01*
X45746Y-23996D01*
X45746Y-24067D01*
X45731Y-24124D01*
X45717Y-24153D01*
X45703Y-24167D01*
X45674Y-24181D01*
X45646Y-24181D01*
X45617Y-24167D01*
X45603Y-24153D01*
X45588Y-24124D01*
X45574Y-24067D01*
X45574Y-23996D01*
X45588Y-23939D01*
X45603Y-23910D01*
X45617Y-23896D01*
X45646Y-23881D01*
X45860Y-23910D02*
X45874Y-23896D01*
X45903Y-23881D01*
X45974Y-23881D01*
X46003Y-23896D01*
X46017Y-23910D01*
X46032Y-23939D01*
X46032Y-23967D01*
X46017Y-24010D01*
X45846Y-24181D01*
X46032Y-24181D01*
X62862Y-28481D02*
X62862Y-28181D01*
X62934Y-28181D01*
X62977Y-28196D01*
X63005Y-28224D01*
X63020Y-28253D01*
X63034Y-28310D01*
X63034Y-28353D01*
X63020Y-28410D01*
X63005Y-28439D01*
X62977Y-28467D01*
X62934Y-28481D01*
X62862Y-28481D01*
X63148Y-28210D02*
X63162Y-28196D01*
X63191Y-28181D01*
X63262Y-28181D01*
X63291Y-28196D01*
X63305Y-28210D01*
X63320Y-28239D01*
X63320Y-28267D01*
X63305Y-28310D01*
X63134Y-28481D01*
X63320Y-28481D01*
X63506Y-28181D02*
X63534Y-28181D01*
X63563Y-28196D01*
X63577Y-28210D01*
X63591Y-28239D01*
X63606Y-28296D01*
X63606Y-28367D01*
X63591Y-28424D01*
X63577Y-28453D01*
X63563Y-28467D01*
X63534Y-28481D01*
X63506Y-28481D01*
X63477Y-28467D01*
X63463Y-28453D01*
X63448Y-28424D01*
X63434Y-28367D01*
X63434Y-28296D01*
X63448Y-28239D01*
X63463Y-28210D01*
X63477Y-28196D01*
X63506Y-28181D01*
X63706Y-28181D02*
X63892Y-28181D01*
X63792Y-28296D01*
X63834Y-28296D01*
X63863Y-28310D01*
X63877Y-28324D01*
X63892Y-28353D01*
X63892Y-28424D01*
X63877Y-28453D01*
X63863Y-28467D01*
X63834Y-28481D01*
X63749Y-28481D01*
X63720Y-28467D01*
X63706Y-28453D01*
G54D19*
X48670Y-24853D02*
X48610Y-24720D01*
X48567Y-24853D02*
X48567Y-24573D01*
X48635Y-24573D01*
X48653Y-24587D01*
X48661Y-24600D01*
X48670Y-24627D01*
X48670Y-24667D01*
X48661Y-24693D01*
X48653Y-24707D01*
X48635Y-24720D01*
X48567Y-24720D01*
X48738Y-24600D02*
X48747Y-24587D01*
X48764Y-24573D01*
X48807Y-24573D01*
X48824Y-24587D01*
X48833Y-24600D01*
X48841Y-24627D01*
X48841Y-24653D01*
X48833Y-24693D01*
X48730Y-24853D01*
X48841Y-24853D01*
X49012Y-24853D02*
X48909Y-24853D01*
X48961Y-24853D02*
X48961Y-24573D01*
X48944Y-24613D01*
X48926Y-24640D01*
X48909Y-24653D01*
X49123Y-24573D02*
X49140Y-24573D01*
X49157Y-24587D01*
X49166Y-24600D01*
X49175Y-24627D01*
X49183Y-24680D01*
X49183Y-24747D01*
X49175Y-24800D01*
X49166Y-24827D01*
X49157Y-24840D01*
X49140Y-24853D01*
X49123Y-24853D01*
X49106Y-24840D01*
X49097Y-24827D01*
X49089Y-24800D01*
X49080Y-24747D01*
X49080Y-24680D01*
X49089Y-24627D01*
X49097Y-24600D01*
X49106Y-24587D01*
X49123Y-24573D01*
G54D13*
X45002Y-24801D02*
X45002Y-24501D01*
X45074Y-24501D01*
X45117Y-24516D01*
X45145Y-24544D01*
X45160Y-24573D01*
X45174Y-24630D01*
X45174Y-24673D01*
X45160Y-24730D01*
X45145Y-24759D01*
X45117Y-24787D01*
X45074Y-24801D01*
X45002Y-24801D01*
X45288Y-24530D02*
X45302Y-24516D01*
X45331Y-24501D01*
X45402Y-24501D01*
X45431Y-24516D01*
X45445Y-24530D01*
X45460Y-24559D01*
X45460Y-24587D01*
X45445Y-24630D01*
X45274Y-24801D01*
X45460Y-24801D01*
X45646Y-24501D02*
X45674Y-24501D01*
X45703Y-24516D01*
X45717Y-24530D01*
X45731Y-24559D01*
X45746Y-24616D01*
X45746Y-24687D01*
X45731Y-24744D01*
X45717Y-24773D01*
X45703Y-24787D01*
X45674Y-24801D01*
X45646Y-24801D01*
X45617Y-24787D01*
X45603Y-24773D01*
X45588Y-24744D01*
X45574Y-24687D01*
X45574Y-24616D01*
X45588Y-24559D01*
X45603Y-24530D01*
X45617Y-24516D01*
X45646Y-24501D01*
X46003Y-24601D02*
X46003Y-24801D01*
X45932Y-24487D02*
X45860Y-24701D01*
X46046Y-24701D01*
G54D20*
X48884Y-26574D02*
X48893Y-26544D01*
X48893Y-26495D01*
X48884Y-26476D01*
X48874Y-26466D01*
X48854Y-26456D01*
X48835Y-26456D01*
X48815Y-26466D01*
X48805Y-26476D01*
X48795Y-26495D01*
X48785Y-26535D01*
X48776Y-26554D01*
X48766Y-26564D01*
X48746Y-26574D01*
X48727Y-26574D01*
X48707Y-26564D01*
X48697Y-26554D01*
X48687Y-26535D01*
X48687Y-26485D01*
X48697Y-26456D01*
X48893Y-26368D02*
X48687Y-26368D01*
X48687Y-26289D01*
X48697Y-26270D01*
X48707Y-26260D01*
X48727Y-26250D01*
X48756Y-26250D01*
X48776Y-26260D01*
X48785Y-26270D01*
X48795Y-26289D01*
X48795Y-26368D01*
X48687Y-26162D02*
X48854Y-26162D01*
X48874Y-26152D01*
X48884Y-26142D01*
X48893Y-26123D01*
X48893Y-26083D01*
X48884Y-26064D01*
X48874Y-26054D01*
X48854Y-26044D01*
X48687Y-26044D01*
X48893Y-25848D02*
X48893Y-25946D01*
X48687Y-25946D01*
X48884Y-25789D02*
X48893Y-25759D01*
X48893Y-25710D01*
X48884Y-25691D01*
X48874Y-25681D01*
X48854Y-25671D01*
X48835Y-25671D01*
X48815Y-25681D01*
X48805Y-25691D01*
X48795Y-25710D01*
X48785Y-25750D01*
X48776Y-25769D01*
X48766Y-25779D01*
X48746Y-25789D01*
X48727Y-25789D01*
X48707Y-25779D01*
X48697Y-25769D01*
X48687Y-25750D01*
X48687Y-25700D01*
X48697Y-25671D01*
X48785Y-25583D02*
X48785Y-25514D01*
X48893Y-25485D02*
X48893Y-25583D01*
X48687Y-25583D01*
X48687Y-25485D01*
X48883Y-28589D02*
X48677Y-28589D01*
X48677Y-28510D01*
X48687Y-28491D01*
X48697Y-28481D01*
X48717Y-28471D01*
X48746Y-28471D01*
X48766Y-28481D01*
X48775Y-28491D01*
X48785Y-28510D01*
X48785Y-28589D01*
X48883Y-28265D02*
X48785Y-28334D01*
X48883Y-28383D02*
X48677Y-28383D01*
X48677Y-28304D01*
X48687Y-28285D01*
X48697Y-28275D01*
X48717Y-28265D01*
X48746Y-28265D01*
X48766Y-28275D01*
X48775Y-28285D01*
X48785Y-28304D01*
X48785Y-28383D01*
X48677Y-28138D02*
X48677Y-28098D01*
X48687Y-28079D01*
X48707Y-28059D01*
X48746Y-28049D01*
X48815Y-28049D01*
X48854Y-28059D01*
X48874Y-28079D01*
X48883Y-28098D01*
X48883Y-28138D01*
X48874Y-28157D01*
X48854Y-28177D01*
X48815Y-28187D01*
X48746Y-28187D01*
X48707Y-28177D01*
X48687Y-28157D01*
X48677Y-28138D01*
X48687Y-27853D02*
X48677Y-27873D01*
X48677Y-27902D01*
X48687Y-27932D01*
X48707Y-27951D01*
X48726Y-27961D01*
X48766Y-27971D01*
X48795Y-27971D01*
X48834Y-27961D01*
X48854Y-27951D01*
X48874Y-27932D01*
X48883Y-27902D01*
X48883Y-27882D01*
X48874Y-27853D01*
X48864Y-27843D01*
X48795Y-27843D01*
X48795Y-27882D01*
X48903Y-27804D02*
X48903Y-27647D01*
X48775Y-27529D02*
X48785Y-27500D01*
X48795Y-27490D01*
X48815Y-27480D01*
X48844Y-27480D01*
X48864Y-27490D01*
X48874Y-27500D01*
X48883Y-27519D01*
X48883Y-27598D01*
X48677Y-27598D01*
X48677Y-27529D01*
X48687Y-27510D01*
X48697Y-27500D01*
X48717Y-27490D01*
X48736Y-27490D01*
X48756Y-27500D01*
X48766Y-27510D01*
X48775Y-27529D01*
X48775Y-27598D01*
M02*
