G04 (created by PCBNEW-RS274X (2012-01-19 BZR 3256)-stable) date Wed 20 Feb 2013 03:59:13 PM COT*
G01*
G70*
G90*
%MOIN*%
G04 Gerber Fmt 3.4, Leading zero omitted, Abs format*
%FSLAX34Y34*%
G04 APERTURE LIST*
%ADD10C,0.006000*%
%ADD11C,0.015000*%
%ADD12C,0.012000*%
G04 APERTURE END LIST*
G54D10*
G54D11*
X44250Y-31250D02*
X44250Y-21250D01*
X69750Y-31250D02*
X44250Y-31250D01*
X69750Y-21250D02*
X69750Y-31250D01*
X44250Y-21250D02*
X69750Y-21250D01*
G54D12*
X54801Y-16635D02*
X54687Y-16635D01*
X54630Y-16673D01*
X54601Y-16711D01*
X54544Y-16825D01*
X54515Y-16978D01*
X54515Y-17282D01*
X54544Y-17359D01*
X54572Y-17397D01*
X54630Y-17435D01*
X54744Y-17435D01*
X54801Y-17397D01*
X54830Y-17359D01*
X54858Y-17282D01*
X54858Y-17092D01*
X54830Y-17016D01*
X54801Y-16978D01*
X54744Y-16940D01*
X54630Y-16940D01*
X54572Y-16978D01*
X54544Y-17016D01*
X54515Y-17092D01*
X55372Y-16901D02*
X55372Y-17435D01*
X55229Y-16597D02*
X55086Y-17168D01*
X55458Y-17168D01*
X55686Y-17359D02*
X55714Y-17397D01*
X55686Y-17435D01*
X55657Y-17397D01*
X55686Y-17359D01*
X55686Y-17435D01*
X55915Y-16635D02*
X56315Y-16635D01*
X56058Y-17435D01*
X56486Y-16635D02*
X56886Y-16635D01*
X56629Y-17435D01*
X57228Y-16635D02*
X57285Y-16635D01*
X57342Y-16673D01*
X57371Y-16711D01*
X57400Y-16787D01*
X57428Y-16940D01*
X57428Y-17130D01*
X57400Y-17282D01*
X57371Y-17359D01*
X57342Y-17397D01*
X57285Y-17435D01*
X57228Y-17435D01*
X57171Y-17397D01*
X57142Y-17359D01*
X57114Y-17282D01*
X57085Y-17130D01*
X57085Y-16940D01*
X57114Y-16787D01*
X57142Y-16711D01*
X57171Y-16673D01*
X57228Y-16635D01*
X58142Y-17435D02*
X58142Y-16901D01*
X58142Y-16978D02*
X58170Y-16940D01*
X58228Y-16901D01*
X58313Y-16901D01*
X58370Y-16940D01*
X58399Y-17016D01*
X58399Y-17435D01*
X58399Y-17016D02*
X58428Y-16940D01*
X58485Y-16901D01*
X58570Y-16901D01*
X58628Y-16940D01*
X58656Y-17016D01*
X58656Y-17435D01*
X58942Y-17435D02*
X58942Y-16901D01*
X58942Y-16978D02*
X58970Y-16940D01*
X59028Y-16901D01*
X59113Y-16901D01*
X59170Y-16940D01*
X59199Y-17016D01*
X59199Y-17435D01*
X59199Y-17016D02*
X59228Y-16940D01*
X59285Y-16901D01*
X59370Y-16901D01*
X59428Y-16940D01*
X59456Y-17016D01*
X59456Y-17435D01*
X44250Y-17751D02*
X69750Y-17751D01*
X44250Y-21250D02*
X44250Y-16471D01*
X69750Y-21250D02*
X69750Y-16471D01*
X69750Y-17751D02*
X69307Y-17981D01*
X69750Y-17751D02*
X69307Y-17521D01*
X44250Y-17751D02*
X44693Y-17981D01*
X44250Y-17751D02*
X44693Y-17521D01*
X38960Y-28735D02*
X38922Y-28706D01*
X38884Y-28649D01*
X38884Y-28506D01*
X38922Y-28449D01*
X38960Y-28420D01*
X39036Y-28392D01*
X39112Y-28392D01*
X39227Y-28420D01*
X39684Y-28763D01*
X39684Y-28392D01*
X38884Y-27849D02*
X38884Y-28135D01*
X39265Y-28164D01*
X39227Y-28135D01*
X39189Y-28078D01*
X39189Y-27935D01*
X39227Y-27878D01*
X39265Y-27849D01*
X39341Y-27821D01*
X39531Y-27821D01*
X39608Y-27849D01*
X39646Y-27878D01*
X39684Y-27935D01*
X39684Y-28078D01*
X39646Y-28135D01*
X39608Y-28164D01*
X39608Y-27564D02*
X39646Y-27536D01*
X39684Y-27564D01*
X39646Y-27593D01*
X39608Y-27564D01*
X39684Y-27564D01*
X39150Y-27021D02*
X39684Y-27021D01*
X38846Y-27164D02*
X39417Y-27307D01*
X39417Y-26935D01*
X38884Y-26593D02*
X38884Y-26536D01*
X38922Y-26479D01*
X38960Y-26450D01*
X39036Y-26421D01*
X39189Y-26393D01*
X39379Y-26393D01*
X39531Y-26421D01*
X39608Y-26450D01*
X39646Y-26479D01*
X39684Y-26536D01*
X39684Y-26593D01*
X39646Y-26650D01*
X39608Y-26679D01*
X39531Y-26707D01*
X39379Y-26736D01*
X39189Y-26736D01*
X39036Y-26707D01*
X38960Y-26679D01*
X38922Y-26650D01*
X38884Y-26593D01*
X38884Y-26022D02*
X38884Y-25965D01*
X38922Y-25908D01*
X38960Y-25879D01*
X39036Y-25850D01*
X39189Y-25822D01*
X39379Y-25822D01*
X39531Y-25850D01*
X39608Y-25879D01*
X39646Y-25908D01*
X39684Y-25965D01*
X39684Y-26022D01*
X39646Y-26079D01*
X39608Y-26108D01*
X39531Y-26136D01*
X39379Y-26165D01*
X39189Y-26165D01*
X39036Y-26136D01*
X38960Y-26108D01*
X38922Y-26079D01*
X38884Y-26022D01*
X39684Y-25108D02*
X39150Y-25108D01*
X39227Y-25108D02*
X39189Y-25080D01*
X39150Y-25022D01*
X39150Y-24937D01*
X39189Y-24880D01*
X39265Y-24851D01*
X39684Y-24851D01*
X39265Y-24851D02*
X39189Y-24822D01*
X39150Y-24765D01*
X39150Y-24680D01*
X39189Y-24622D01*
X39265Y-24594D01*
X39684Y-24594D01*
X39684Y-24308D02*
X39150Y-24308D01*
X39227Y-24308D02*
X39189Y-24280D01*
X39150Y-24222D01*
X39150Y-24137D01*
X39189Y-24080D01*
X39265Y-24051D01*
X39684Y-24051D01*
X39265Y-24051D02*
X39189Y-24022D01*
X39150Y-23965D01*
X39150Y-23880D01*
X39189Y-23822D01*
X39265Y-23794D01*
X39684Y-23794D01*
X40000Y-31250D02*
X40000Y-21250D01*
X44250Y-31250D02*
X38720Y-31250D01*
X44250Y-21250D02*
X38720Y-21250D01*
X40000Y-21250D02*
X40230Y-21693D01*
X40000Y-21250D02*
X39770Y-21693D01*
X40000Y-31250D02*
X40230Y-30807D01*
X40000Y-31250D02*
X39770Y-30807D01*
X43730Y-18635D02*
X43787Y-18635D01*
X43844Y-18673D01*
X43873Y-18711D01*
X43902Y-18787D01*
X43930Y-18940D01*
X43930Y-19130D01*
X43902Y-19282D01*
X43873Y-19359D01*
X43844Y-19397D01*
X43787Y-19435D01*
X43730Y-19435D01*
X43673Y-19397D01*
X43644Y-19359D01*
X43616Y-19282D01*
X43587Y-19130D01*
X43587Y-18940D01*
X43616Y-18787D01*
X43644Y-18711D01*
X43673Y-18673D01*
X43730Y-18635D01*
X44187Y-19359D02*
X44215Y-19397D01*
X44187Y-19435D01*
X44158Y-19397D01*
X44187Y-19359D01*
X44187Y-19435D01*
X44787Y-19435D02*
X44444Y-19435D01*
X44616Y-19435D02*
X44616Y-18635D01*
X44559Y-18749D01*
X44501Y-18825D01*
X44444Y-18863D01*
X45158Y-18635D02*
X45215Y-18635D01*
X45272Y-18673D01*
X45301Y-18711D01*
X45330Y-18787D01*
X45358Y-18940D01*
X45358Y-19130D01*
X45330Y-19282D01*
X45301Y-19359D01*
X45272Y-19397D01*
X45215Y-19435D01*
X45158Y-19435D01*
X45101Y-19397D01*
X45072Y-19359D01*
X45044Y-19282D01*
X45015Y-19130D01*
X45015Y-18940D01*
X45044Y-18787D01*
X45072Y-18711D01*
X45101Y-18673D01*
X45158Y-18635D01*
X45729Y-18635D02*
X45786Y-18635D01*
X45843Y-18673D01*
X45872Y-18711D01*
X45901Y-18787D01*
X45929Y-18940D01*
X45929Y-19130D01*
X45901Y-19282D01*
X45872Y-19359D01*
X45843Y-19397D01*
X45786Y-19435D01*
X45729Y-19435D01*
X45672Y-19397D01*
X45643Y-19359D01*
X45615Y-19282D01*
X45586Y-19130D01*
X45586Y-18940D01*
X45615Y-18787D01*
X45643Y-18711D01*
X45672Y-18673D01*
X45729Y-18635D01*
X46300Y-18635D02*
X46357Y-18635D01*
X46414Y-18673D01*
X46443Y-18711D01*
X46472Y-18787D01*
X46500Y-18940D01*
X46500Y-19130D01*
X46472Y-19282D01*
X46443Y-19359D01*
X46414Y-19397D01*
X46357Y-19435D01*
X46300Y-19435D01*
X46243Y-19397D01*
X46214Y-19359D01*
X46186Y-19282D01*
X46157Y-19130D01*
X46157Y-18940D01*
X46186Y-18787D01*
X46214Y-18711D01*
X46243Y-18673D01*
X46300Y-18635D01*
X47185Y-18635D02*
X47185Y-18787D01*
X47414Y-18635D02*
X47414Y-18787D01*
X45000Y-19751D02*
X46000Y-19751D01*
X45000Y-22000D02*
X45000Y-18471D01*
X46000Y-22000D02*
X46000Y-18471D01*
X46000Y-19751D02*
X45557Y-19981D01*
X46000Y-19751D02*
X45557Y-19521D01*
X45000Y-19751D02*
X45443Y-19981D01*
X45000Y-19751D02*
X45443Y-19521D01*
X42134Y-28020D02*
X42134Y-27963D01*
X42172Y-27906D01*
X42210Y-27877D01*
X42286Y-27848D01*
X42439Y-27820D01*
X42629Y-27820D01*
X42781Y-27848D01*
X42858Y-27877D01*
X42896Y-27906D01*
X42934Y-27963D01*
X42934Y-28020D01*
X42896Y-28077D01*
X42858Y-28106D01*
X42781Y-28134D01*
X42629Y-28163D01*
X42439Y-28163D01*
X42286Y-28134D01*
X42210Y-28106D01*
X42172Y-28077D01*
X42134Y-28020D01*
X42858Y-27563D02*
X42896Y-27535D01*
X42934Y-27563D01*
X42896Y-27592D01*
X42858Y-27563D01*
X42934Y-27563D01*
X42477Y-27191D02*
X42439Y-27249D01*
X42400Y-27277D01*
X42324Y-27306D01*
X42286Y-27306D01*
X42210Y-27277D01*
X42172Y-27249D01*
X42134Y-27191D01*
X42134Y-27077D01*
X42172Y-27020D01*
X42210Y-26991D01*
X42286Y-26963D01*
X42324Y-26963D01*
X42400Y-26991D01*
X42439Y-27020D01*
X42477Y-27077D01*
X42477Y-27191D01*
X42515Y-27249D01*
X42553Y-27277D01*
X42629Y-27306D01*
X42781Y-27306D01*
X42858Y-27277D01*
X42896Y-27249D01*
X42934Y-27191D01*
X42934Y-27077D01*
X42896Y-27020D01*
X42858Y-26991D01*
X42781Y-26963D01*
X42629Y-26963D01*
X42553Y-26991D01*
X42515Y-27020D01*
X42477Y-27077D01*
X42134Y-26420D02*
X42134Y-26706D01*
X42515Y-26735D01*
X42477Y-26706D01*
X42439Y-26649D01*
X42439Y-26506D01*
X42477Y-26449D01*
X42515Y-26420D01*
X42591Y-26392D01*
X42781Y-26392D01*
X42858Y-26420D01*
X42896Y-26449D01*
X42934Y-26506D01*
X42934Y-26649D01*
X42896Y-26706D01*
X42858Y-26735D01*
X42134Y-26021D02*
X42134Y-25964D01*
X42172Y-25907D01*
X42210Y-25878D01*
X42286Y-25849D01*
X42439Y-25821D01*
X42629Y-25821D01*
X42781Y-25849D01*
X42858Y-25878D01*
X42896Y-25907D01*
X42934Y-25964D01*
X42934Y-26021D01*
X42896Y-26078D01*
X42858Y-26107D01*
X42781Y-26135D01*
X42629Y-26164D01*
X42439Y-26164D01*
X42286Y-26135D01*
X42210Y-26107D01*
X42172Y-26078D01*
X42134Y-26021D01*
X42134Y-25450D02*
X42134Y-25393D01*
X42172Y-25336D01*
X42210Y-25307D01*
X42286Y-25278D01*
X42439Y-25250D01*
X42629Y-25250D01*
X42781Y-25278D01*
X42858Y-25307D01*
X42896Y-25336D01*
X42934Y-25393D01*
X42934Y-25450D01*
X42896Y-25507D01*
X42858Y-25536D01*
X42781Y-25564D01*
X42629Y-25593D01*
X42439Y-25593D01*
X42286Y-25564D01*
X42210Y-25536D01*
X42172Y-25507D01*
X42134Y-25450D01*
X42134Y-24565D02*
X42286Y-24565D01*
X42134Y-24336D02*
X42286Y-24336D01*
X43250Y-30500D02*
X43250Y-22000D01*
X45000Y-30500D02*
X41970Y-30500D01*
X45000Y-22000D02*
X41970Y-22000D01*
X43250Y-22000D02*
X43480Y-22443D01*
X43250Y-22000D02*
X43020Y-22443D01*
X43250Y-30500D02*
X43480Y-30057D01*
X43250Y-30500D02*
X43020Y-30057D01*
X40710Y-28735D02*
X40672Y-28706D01*
X40634Y-28649D01*
X40634Y-28506D01*
X40672Y-28449D01*
X40710Y-28420D01*
X40786Y-28392D01*
X40862Y-28392D01*
X40977Y-28420D01*
X41434Y-28763D01*
X41434Y-28392D01*
X41434Y-27821D02*
X41434Y-28164D01*
X41434Y-27992D02*
X40634Y-27992D01*
X40748Y-28049D01*
X40824Y-28107D01*
X40862Y-28164D01*
X41358Y-27564D02*
X41396Y-27536D01*
X41434Y-27564D01*
X41396Y-27593D01*
X41358Y-27564D01*
X41434Y-27564D01*
X40634Y-26992D02*
X40634Y-27278D01*
X41015Y-27307D01*
X40977Y-27278D01*
X40939Y-27221D01*
X40939Y-27078D01*
X40977Y-27021D01*
X41015Y-26992D01*
X41091Y-26964D01*
X41281Y-26964D01*
X41358Y-26992D01*
X41396Y-27021D01*
X41434Y-27078D01*
X41434Y-27221D01*
X41396Y-27278D01*
X41358Y-27307D01*
X41434Y-26679D02*
X41434Y-26564D01*
X41396Y-26507D01*
X41358Y-26479D01*
X41243Y-26421D01*
X41091Y-26393D01*
X40786Y-26393D01*
X40710Y-26421D01*
X40672Y-26450D01*
X40634Y-26507D01*
X40634Y-26621D01*
X40672Y-26679D01*
X40710Y-26707D01*
X40786Y-26736D01*
X40977Y-26736D01*
X41053Y-26707D01*
X41091Y-26679D01*
X41129Y-26621D01*
X41129Y-26507D01*
X41091Y-26450D01*
X41053Y-26421D01*
X40977Y-26393D01*
X40634Y-26022D02*
X40634Y-25965D01*
X40672Y-25908D01*
X40710Y-25879D01*
X40786Y-25850D01*
X40939Y-25822D01*
X41129Y-25822D01*
X41281Y-25850D01*
X41358Y-25879D01*
X41396Y-25908D01*
X41434Y-25965D01*
X41434Y-26022D01*
X41396Y-26079D01*
X41358Y-26108D01*
X41281Y-26136D01*
X41129Y-26165D01*
X40939Y-26165D01*
X40786Y-26136D01*
X40710Y-26108D01*
X40672Y-26079D01*
X40634Y-26022D01*
X41434Y-25108D02*
X40900Y-25108D01*
X40977Y-25108D02*
X40939Y-25080D01*
X40900Y-25022D01*
X40900Y-24937D01*
X40939Y-24880D01*
X41015Y-24851D01*
X41434Y-24851D01*
X41015Y-24851D02*
X40939Y-24822D01*
X40900Y-24765D01*
X40900Y-24680D01*
X40939Y-24622D01*
X41015Y-24594D01*
X41434Y-24594D01*
X41434Y-24308D02*
X40900Y-24308D01*
X40977Y-24308D02*
X40939Y-24280D01*
X40900Y-24222D01*
X40900Y-24137D01*
X40939Y-24080D01*
X41015Y-24051D01*
X41434Y-24051D01*
X41015Y-24051D02*
X40939Y-24022D01*
X40900Y-23965D01*
X40900Y-23880D01*
X40939Y-23822D01*
X41015Y-23794D01*
X41434Y-23794D01*
X41750Y-30500D02*
X41750Y-22000D01*
X69000Y-30500D02*
X40470Y-30500D01*
X69000Y-22000D02*
X40470Y-22000D01*
X41750Y-22000D02*
X41980Y-22443D01*
X41750Y-22000D02*
X41520Y-22443D01*
X41750Y-30500D02*
X41980Y-30057D01*
X41750Y-30500D02*
X41520Y-30057D01*
M02*
