M48
;DRILL file {Pcbnew (2012-01-19 BZR 3256)-stable} date Wed 20 Feb 2013 03:45:45 PM COT
;FORMAT={2:4/ absolute / inch / keep zeros}
FMAT,2
INCH,TZ
T1C0.012
T2C0.035
T3C0.039
%
G90
G05
M72
T1
X045150Y-022800
X045300Y-029050
X045300Y-029500
X045750Y-029050
X045900Y-023050
X046250Y-025800
X046250Y-027850
X046250Y-028300
X046300Y-023470
X047440Y-028200
X047470Y-029110
X047890Y-028180
X048347Y-026750
X048350Y-025300
X048400Y-025950
X048400Y-027400
X048900Y-023250
X049250Y-026850
X049300Y-025250
X049700Y-027500
X049850Y-023600
X049870Y-029150
X050000Y-023950
X050250Y-023000
X050500Y-023880
X050700Y-028450
X050850Y-026100
X050850Y-027000
X050850Y-027600
X051090Y-029120
X051480Y-023970
X051840Y-024550
X052380Y-024030
X052630Y-030060
X052640Y-024610
X053250Y-029150
X053360Y-022920
X053430Y-024590
X053620Y-030070
X053750Y-022780
X053950Y-028750
X054000Y-027510
X054550Y-029120
X054620Y-030070
X054860Y-024360
X054900Y-028250
X055150Y-028950
X055300Y-025200
X055300Y-026500
X055300Y-027450
X055450Y-024450
X055500Y-028650
X055700Y-024750
X055750Y-025550
X055750Y-027950
X055850Y-028800
X055890Y-023520
X056770Y-026270
X056810Y-026660
X056890Y-025570
X057020Y-025940
X057020Y-028690
X057230Y-024260
X057300Y-027980
X058060Y-028780
X058750Y-028270
X059500Y-022750
X059750Y-026050
X059750Y-028000
X059750Y-028500
X059780Y-026990
X060250Y-028000
X060250Y-028500
X060500Y-022750
X060500Y-023250
X060750Y-028500
X060750Y-029000
X061100Y-025000
X061250Y-029000
X061500Y-022750
X061500Y-023250
X062050Y-028300
X062500Y-022750
X062500Y-023250
X063500Y-022750
X063500Y-023250
X063800Y-029800
X063900Y-027350
X064450Y-027750
X064500Y-022750
X064500Y-023250
X064700Y-029700
X064900Y-026950
X064900Y-027950
X064950Y-026150
X064950Y-028650
X065250Y-025800
X065500Y-022750
X065500Y-023250
X065600Y-029400
X065950Y-029750
X066300Y-029400
X066500Y-022750
X066500Y-023250
X066650Y-029750
X066750Y-028650
X067100Y-029000
X067150Y-025140
X067160Y-024260
X067500Y-022750
X067500Y-023250
X067750Y-026150
X067800Y-026750
X068000Y-029050
X068450Y-025700
X069000Y-027400
T2
X045000Y-022000
X045000Y-030500
X046000Y-022000
X046000Y-030500
X047000Y-022000
X047000Y-030500
X048000Y-022000
X048000Y-030500
X049000Y-022000
X049000Y-030500
X050000Y-022000
X050000Y-030500
X051000Y-022000
X051000Y-030500
X052000Y-022000
X052000Y-030500
X053000Y-022000
X053000Y-030500
X054000Y-022000
X054000Y-030500
X055000Y-022000
X055000Y-030500
X056000Y-022000
X056000Y-030500
X057000Y-022000
X057000Y-030500
X058000Y-022000
X058000Y-030500
X059000Y-022000
X059000Y-030500
X060000Y-022000
X060000Y-030500
X061000Y-022000
X061000Y-030500
X062000Y-022000
X062000Y-030500
X063000Y-022000
X063000Y-030500
X064000Y-022000
X064000Y-030500
X065000Y-022000
X065000Y-030500
X066000Y-022000
X066000Y-030500
X067000Y-022000
X067000Y-030500
X068000Y-022000
X068000Y-030500
X069000Y-022000
X069000Y-030500
T3
X066744Y-025634
X066744Y-027366
T0
M30
